G04*
G04 #@! TF.GenerationSoftware,Altium Limited,Altium Designer,18.0.12 (696)*
G04*
G04 Layer_Color=32896*
%FSLAX23Y23*%
%MOIN*%
G70*
G01*
G75*
%ADD13C,0.020*%
%ADD16C,0.010*%
%ADD19C,0.006*%
D13*
X2407Y2659D02*
X2555D01*
X2407Y1920D02*
X2556D01*
X1582Y2659D02*
X1661D01*
X1584Y1920D02*
X1662D01*
X2555D02*
Y1979D01*
X1583Y1920D02*
Y1999D01*
X2555Y2600D02*
Y2659D01*
X1582Y2579D02*
Y2658D01*
X8011Y4409D02*
Y4488D01*
X7038Y4408D02*
Y4467D01*
X8011Y5069D02*
Y5147D01*
X7038Y5088D02*
Y5147D01*
X7931D02*
X8010D01*
X7933Y4408D02*
X8011D01*
X7038Y5147D02*
X7187D01*
X7038Y4408D02*
X7187D01*
X2407Y3454D02*
X2555D01*
X2407Y2715D02*
X2556D01*
X1582Y3454D02*
X1661D01*
X1584Y2715D02*
X1662D01*
X2555D02*
Y2774D01*
X1583Y2715D02*
Y2794D01*
X2555Y3395D02*
Y3454D01*
X1582Y3374D02*
Y3453D01*
X8011Y3614D02*
Y3693D01*
X7038Y3613D02*
Y3672D01*
X8011Y4273D02*
Y4352D01*
X7038Y4293D02*
Y4352D01*
X7931D02*
X8010D01*
X7933Y3613D02*
X8011D01*
X7038Y4352D02*
X7187D01*
X7038Y3613D02*
X7187D01*
X2407Y4262D02*
X2555D01*
X2407Y3523D02*
X2556D01*
X1582Y4262D02*
X1661D01*
X1584Y3523D02*
X1662D01*
X2555D02*
Y3582D01*
X1583Y3523D02*
Y3602D01*
X2555Y4203D02*
Y4262D01*
X1582Y4182D02*
Y4261D01*
X8011Y2806D02*
Y2885D01*
X7038Y2805D02*
Y2864D01*
X8011Y3466D02*
Y3544D01*
X7038Y3485D02*
Y3544D01*
X7931D02*
X8010D01*
X7933Y2805D02*
X8011D01*
X7038Y3544D02*
X7187D01*
X7038Y2805D02*
X7187D01*
X2407Y5057D02*
X2555D01*
X2407Y4318D02*
X2556D01*
X1582Y5057D02*
X1661D01*
X1584Y4318D02*
X1662D01*
X2555D02*
Y4377D01*
X1583Y4318D02*
Y4397D01*
X2555Y4998D02*
Y5057D01*
X1582Y4977D02*
Y5056D01*
X8011Y2011D02*
Y2090D01*
X7038Y2010D02*
Y2069D01*
X8011Y2670D02*
Y2749D01*
X7038Y2690D02*
Y2749D01*
X7931D02*
X8010D01*
X7933Y2010D02*
X8011D01*
X7038Y2749D02*
X7187D01*
X7038Y2010D02*
X7187D01*
D16*
X2809Y2301D02*
X2848D01*
Y2282D01*
X2842Y2275D01*
X2815D01*
X2809Y2282D01*
Y2301D01*
X2481Y2492D02*
X2474Y2498D01*
Y2511D01*
X2481Y2518D01*
X2487D01*
X2494Y2511D01*
Y2498D01*
X2500Y2492D01*
X2507D01*
X2513Y2498D01*
Y2511D01*
X2507Y2518D01*
X2481Y2063D02*
X2474Y2069D01*
Y2082D01*
X2481Y2089D01*
X2507D01*
X2513Y2082D01*
Y2069D01*
X2507Y2063D01*
X2494D01*
Y2076D01*
X7113Y5005D02*
X7119Y4998D01*
Y4985D01*
X7113Y4978D01*
X7087D01*
X7080Y4985D01*
Y4998D01*
X7087Y5005D01*
X7100D01*
Y4991D01*
X7113Y4575D02*
X7119Y4569D01*
Y4556D01*
X7113Y4549D01*
X7106D01*
X7100Y4556D01*
Y4569D01*
X7093Y4575D01*
X7087D01*
X7080Y4569D01*
Y4556D01*
X7087Y4549D01*
X6785Y4766D02*
X6745D01*
Y4785D01*
X6752Y4792D01*
X6778D01*
X6785Y4785D01*
Y4766D01*
X2809Y3097D02*
X2848D01*
Y3077D01*
X2842Y3070D01*
X2815D01*
X2809Y3077D01*
Y3097D01*
X2481Y3287D02*
X2474Y3293D01*
Y3307D01*
X2481Y3313D01*
X2487D01*
X2494Y3307D01*
Y3293D01*
X2500Y3287D01*
X2507D01*
X2513Y3293D01*
Y3307D01*
X2507Y3313D01*
X2481Y2858D02*
X2474Y2864D01*
Y2877D01*
X2481Y2884D01*
X2507D01*
X2513Y2877D01*
Y2864D01*
X2507Y2858D01*
X2494D01*
Y2871D01*
X7113Y4209D02*
X7119Y4203D01*
Y4190D01*
X7113Y4183D01*
X7087D01*
X7080Y4190D01*
Y4203D01*
X7087Y4209D01*
X7100D01*
Y4196D01*
X7113Y3780D02*
X7119Y3774D01*
Y3761D01*
X7113Y3754D01*
X7106D01*
X7100Y3761D01*
Y3774D01*
X7093Y3780D01*
X7087D01*
X7080Y3774D01*
Y3761D01*
X7087Y3754D01*
X6785Y3971D02*
X6745D01*
Y3990D01*
X6752Y3997D01*
X6778D01*
X6785Y3990D01*
Y3971D01*
X2809Y3904D02*
X2848D01*
Y3885D01*
X2842Y3878D01*
X2815D01*
X2809Y3885D01*
Y3904D01*
X2481Y4095D02*
X2474Y4101D01*
Y4114D01*
X2481Y4121D01*
X2487D01*
X2494Y4114D01*
Y4101D01*
X2500Y4095D01*
X2507D01*
X2513Y4101D01*
Y4114D01*
X2507Y4121D01*
X2481Y3666D02*
X2474Y3672D01*
Y3685D01*
X2481Y3692D01*
X2507D01*
X2513Y3685D01*
Y3672D01*
X2507Y3666D01*
X2494D01*
Y3679D01*
X7113Y3402D02*
X7119Y3395D01*
Y3382D01*
X7113Y3375D01*
X7087D01*
X7080Y3382D01*
Y3395D01*
X7087Y3402D01*
X7100D01*
Y3388D01*
X7113Y2972D02*
X7119Y2966D01*
Y2953D01*
X7113Y2946D01*
X7106D01*
X7100Y2953D01*
Y2966D01*
X7093Y2972D01*
X7087D01*
X7080Y2966D01*
Y2953D01*
X7087Y2946D01*
X6785Y3163D02*
X6745D01*
Y3182D01*
X6752Y3189D01*
X6778D01*
X6785Y3182D01*
Y3163D01*
X2809Y4700D02*
X2848D01*
Y4680D01*
X2842Y4673D01*
X2815D01*
X2809Y4680D01*
Y4700D01*
X2481Y4890D02*
X2474Y4896D01*
Y4910D01*
X2481Y4916D01*
X2487D01*
X2494Y4910D01*
Y4896D01*
X2500Y4890D01*
X2507D01*
X2513Y4896D01*
Y4910D01*
X2507Y4916D01*
X2481Y4461D02*
X2474Y4467D01*
Y4480D01*
X2481Y4487D01*
X2507D01*
X2513Y4480D01*
Y4467D01*
X2507Y4461D01*
X2494D01*
Y4474D01*
X7113Y2606D02*
X7119Y2600D01*
Y2587D01*
X7113Y2580D01*
X7087D01*
X7080Y2587D01*
Y2600D01*
X7087Y2606D01*
X7100D01*
Y2593D01*
X7113Y2177D02*
X7119Y2171D01*
Y2158D01*
X7113Y2151D01*
X7106D01*
X7100Y2158D01*
Y2171D01*
X7093Y2177D01*
X7087D01*
X7080Y2171D01*
Y2158D01*
X7087Y2151D01*
X6785Y2368D02*
X6745D01*
Y2387D01*
X6752Y2394D01*
X6778D01*
X6785Y2387D01*
Y2368D01*
D19*
X7369Y2824D02*
Y2785D01*
X7342D01*
X7303Y2818D02*
X7310Y2824D01*
X7323D01*
X7329Y2818D01*
Y2811D01*
X7323Y2805D01*
X7310D01*
X7303Y2798D01*
Y2792D01*
X7310Y2785D01*
X7323D01*
X7329Y2792D01*
X7264Y2785D02*
X7290D01*
X7264Y2811D01*
Y2818D01*
X7270Y2824D01*
X7283D01*
X7290Y2818D01*
X7251Y2824D02*
Y2785D01*
X7231D01*
X7224Y2792D01*
Y2798D01*
X7231Y2805D01*
X7251D01*
X7231D01*
X7224Y2811D01*
Y2818D01*
X7231Y2824D01*
X7251D01*
X2373Y4707D02*
Y4668D01*
X2346D01*
X2307Y4701D02*
X2314Y4707D01*
X2327D01*
X2333Y4701D01*
Y4694D01*
X2327Y4688D01*
X2314D01*
X2307Y4681D01*
Y4675D01*
X2314Y4668D01*
X2327D01*
X2333Y4675D01*
X2268Y4668D02*
X2294D01*
X2268Y4694D01*
Y4701D01*
X2274Y4707D01*
X2287D01*
X2294Y4701D01*
X2255Y4668D02*
Y4694D01*
X2241Y4707D01*
X2228Y4694D01*
Y4668D01*
Y4688D01*
X2255D01*
X7366Y3619D02*
Y3580D01*
X7339D01*
X7300Y3613D02*
X7307Y3619D01*
X7320D01*
X7326Y3613D01*
Y3606D01*
X7320Y3600D01*
X7307D01*
X7300Y3593D01*
Y3587D01*
X7307Y3580D01*
X7320D01*
X7326Y3587D01*
X7287Y3580D02*
X7274D01*
X7280D01*
Y3619D01*
X7287Y3613D01*
X7254Y3619D02*
Y3580D01*
X7234D01*
X7228Y3587D01*
Y3593D01*
X7234Y3600D01*
X7254D01*
X7234D01*
X7228Y3606D01*
Y3613D01*
X7234Y3619D01*
X7254D01*
X2369Y3912D02*
Y3873D01*
X2342D01*
X2303Y3906D02*
X2310Y3912D01*
X2323D01*
X2329Y3906D01*
Y3899D01*
X2323Y3893D01*
X2310D01*
X2303Y3886D01*
Y3880D01*
X2310Y3873D01*
X2323D01*
X2329Y3880D01*
X2290Y3873D02*
X2277D01*
X2283D01*
Y3912D01*
X2290Y3906D01*
X2257Y3873D02*
Y3899D01*
X2244Y3912D01*
X2231Y3899D01*
Y3873D01*
Y3893D01*
X2257D01*
X7369Y4427D02*
Y4388D01*
Y4408D01*
X7342D01*
Y4427D01*
Y4388D01*
X7303Y4421D02*
X7310Y4427D01*
X7323D01*
X7329Y4421D01*
Y4414D01*
X7323Y4408D01*
X7310D01*
X7303Y4401D01*
Y4395D01*
X7310Y4388D01*
X7323D01*
X7329Y4395D01*
X7264Y4388D02*
X7290D01*
X7264Y4414D01*
Y4421D01*
X7270Y4427D01*
X7283D01*
X7290Y4421D01*
X7251Y4427D02*
Y4388D01*
X7231D01*
X7224Y4395D01*
Y4401D01*
X7231Y4408D01*
X7251D01*
X7231D01*
X7224Y4414D01*
Y4421D01*
X7231Y4427D01*
X7251D01*
X2371Y3104D02*
Y3065D01*
Y3085D01*
X2344D01*
Y3104D01*
Y3065D01*
X2305Y3098D02*
X2312Y3104D01*
X2325D01*
X2331Y3098D01*
Y3091D01*
X2325Y3085D01*
X2312D01*
X2305Y3078D01*
Y3072D01*
X2312Y3065D01*
X2325D01*
X2331Y3072D01*
X2266Y3065D02*
X2292D01*
X2266Y3091D01*
Y3098D01*
X2272Y3104D01*
X2285D01*
X2292Y3098D01*
X2253Y3065D02*
Y3091D01*
X2239Y3104D01*
X2226Y3091D01*
Y3065D01*
Y3085D01*
X2253D01*
X7366Y5222D02*
Y5183D01*
Y5203D01*
X7339D01*
Y5222D01*
Y5183D01*
X7300Y5216D02*
X7307Y5222D01*
X7320D01*
X7326Y5216D01*
Y5209D01*
X7320Y5203D01*
X7307D01*
X7300Y5196D01*
Y5190D01*
X7307Y5183D01*
X7320D01*
X7326Y5190D01*
X7287Y5183D02*
X7274D01*
X7280D01*
Y5222D01*
X7287Y5216D01*
X7254Y5222D02*
Y5183D01*
X7234D01*
X7228Y5190D01*
Y5196D01*
X7234Y5203D01*
X7254D01*
X7234D01*
X7228Y5209D01*
Y5216D01*
X7234Y5222D01*
X7254D01*
X2371Y2309D02*
Y2270D01*
Y2290D01*
X2344D01*
Y2309D01*
Y2270D01*
X2305Y2303D02*
X2312Y2309D01*
X2325D01*
X2331Y2303D01*
Y2296D01*
X2325Y2290D01*
X2312D01*
X2305Y2283D01*
Y2277D01*
X2312Y2270D01*
X2325D01*
X2331Y2277D01*
X2292Y2270D02*
X2279D01*
X2285D01*
Y2309D01*
X2292Y2303D01*
X2259Y2270D02*
Y2296D01*
X2246Y2309D01*
X2233Y2296D01*
Y2270D01*
Y2290D01*
X2259D01*
M02*
