G04 Layer_Color=16711935*
%FSLAX25Y25*%
%MOIN*%
G70*
G01*
G75*
%ADD78C,0.20485*%
%ADD79C,0.10642*%
%ADD80R,0.10236X0.10236*%
%ADD81C,0.10236*%
%ADD82C,0.06706*%
%ADD83R,0.06706X0.06706*%
%ADD84C,0.16548*%
%ADD85R,0.16548X0.16548*%
%ADD86C,0.12611*%
%ADD87C,0.08800*%
%ADD88C,0.00800*%
%ADD89C,0.03556*%
%ADD90C,0.03162*%
D78*
X479291Y242598D02*
D03*
Y588583D02*
D03*
X240000Y314934D02*
D03*
X602205Y712205D02*
D03*
Y110158D02*
D03*
Y411181D02*
D03*
X240000Y124094D02*
D03*
Y505774D02*
D03*
Y696614D02*
D03*
D79*
X392520Y351969D02*
D03*
X413748Y464945D02*
D03*
X334748Y464445D02*
D03*
X313779Y351575D02*
D03*
D80*
X337795Y687402D02*
D03*
D81*
X357480D02*
D03*
X377165D02*
D03*
D82*
X449528Y111811D02*
D03*
X439528D02*
D03*
X277953Y699213D02*
D03*
X287953D02*
D03*
D83*
X429528Y111811D02*
D03*
X297953Y699213D02*
D03*
D84*
X517323Y168110D02*
D03*
X563779Y652362D02*
D03*
X556693Y509055D02*
D03*
X517323Y312205D02*
D03*
X413779Y409055D02*
D03*
X307480D02*
D03*
D85*
X560630Y168110D02*
D03*
X520472Y652362D02*
D03*
X513386Y509055D02*
D03*
X560630Y312205D02*
D03*
D86*
X478346Y407874D02*
D03*
X458661D02*
D03*
X438976D02*
D03*
X478346Y435433D02*
D03*
X458661D02*
D03*
X438976D02*
D03*
X276772Y369685D02*
D03*
X257087D02*
D03*
X237402D02*
D03*
X276772Y397244D02*
D03*
X257087D02*
D03*
X237402D02*
D03*
Y447244D02*
D03*
X257087D02*
D03*
X276772D02*
D03*
X237402Y419685D02*
D03*
X257087D02*
D03*
X276772D02*
D03*
D87*
X319291Y409055D02*
D03*
X401968D02*
D03*
X507402Y397716D02*
D03*
X566457D02*
D03*
X507087Y423463D02*
D03*
X566142D02*
D03*
D88*
X410472Y643543D02*
D03*
X316142Y180157D02*
D03*
D89*
X353900Y620510D02*
D03*
X346850Y641732D02*
D03*
X362598Y600394D02*
D03*
X377165Y623229D02*
D03*
X296063Y136614D02*
D03*
X361810Y201968D02*
D03*
X401968Y177165D02*
D03*
X407086Y171653D02*
D03*
X338583Y133071D02*
D03*
X270935Y148062D02*
D03*
X264173Y152756D02*
D03*
X303150Y222047D02*
D03*
X326378Y183465D02*
D03*
X367877Y193769D02*
D03*
X331102Y178740D02*
D03*
X414961Y167323D02*
D03*
X455512Y218504D02*
D03*
X436614Y228346D02*
D03*
X401575Y233858D02*
D03*
X332087Y170669D02*
D03*
X273622Y637402D02*
D03*
X312426Y634031D02*
D03*
X298425Y603937D02*
D03*
X414900Y180210D02*
D03*
X410790Y200068D02*
D03*
X364334Y214241D02*
D03*
Y220934D02*
D03*
X266605Y137826D02*
D03*
X373389Y194556D02*
D03*
X388744Y174872D02*
D03*
X413153Y209123D02*
D03*
X428901Y196918D02*
D03*
X428901Y211879D02*
D03*
X280476Y234320D02*
D03*
X360003Y236682D02*
D03*
X359610Y217785D02*
D03*
X297313Y153574D02*
D03*
X368897Y479527D02*
D03*
X301575Y481890D02*
D03*
X283927Y129952D02*
D03*
X278346Y118504D02*
D03*
X461024Y680315D02*
D03*
X455512Y670079D02*
D03*
X413386Y687402D02*
D03*
X442520Y688189D02*
D03*
X429134Y664567D02*
D03*
X378740Y656299D02*
D03*
X396850Y638189D02*
D03*
X331890Y646063D02*
D03*
X338582Y639370D02*
D03*
X369291Y647244D02*
D03*
X313386Y643701D02*
D03*
X386221Y607480D02*
D03*
X293701Y626706D02*
D03*
X314173Y605118D02*
D03*
X320472Y603544D02*
D03*
X316535Y614173D02*
D03*
X365354Y613386D02*
D03*
X337795Y586614D02*
D03*
X396457Y631103D02*
D03*
X390551D02*
D03*
X446850Y579921D02*
D03*
X298425Y617323D02*
D03*
X412205Y584252D02*
D03*
X407087Y616929D02*
D03*
Y610630D02*
D03*
X418504Y584252D02*
D03*
X273228Y597244D02*
D03*
X294488Y589370D02*
D03*
X319685Y590945D02*
D03*
X294882Y582677D02*
D03*
X277559Y564961D02*
D03*
X367323Y577559D02*
D03*
X359449Y620473D02*
D03*
X304331Y687795D02*
D03*
X391596Y201346D02*
D03*
X381102Y174409D02*
D03*
X391339Y227953D02*
D03*
X406693Y212205D02*
D03*
X452756Y339370D02*
D03*
X359842Y336221D02*
D03*
X424803Y333858D02*
D03*
X453937Y699606D02*
D03*
X454724Y675591D02*
D03*
X461024Y663386D02*
D03*
X462992Y632677D02*
D03*
X419685Y135827D02*
D03*
X421654Y122835D02*
D03*
X362992Y593307D02*
D03*
X367716Y596456D02*
D03*
X370921Y621783D02*
D03*
X356693Y167717D02*
D03*
X348031Y158661D02*
D03*
X349606Y191338D02*
D03*
X346062Y198425D02*
D03*
X433858Y188976D02*
D03*
X302362Y675984D02*
D03*
X356298Y192519D02*
D03*
X387402Y205512D02*
D03*
X397244Y170472D02*
D03*
X359842Y212598D02*
D03*
X337638Y210079D02*
D03*
X342361Y209370D02*
D03*
X335276Y614488D02*
D03*
X366063Y602913D02*
D03*
X339606Y610472D02*
D03*
X379921Y616850D02*
D03*
D90*
X350841Y210774D02*
D03*
X376220Y613937D02*
D03*
X376394Y605005D02*
D03*
M02*
