G04 Layer_Color=8388736*
%FSLAX25Y25*%
%MOIN*%
G70*
G01*
G75*
G04:AMPARAMS|DCode=29|XSize=39.37mil|YSize=15.75mil|CornerRadius=3.94mil|HoleSize=0mil|Usage=FLASHONLY|Rotation=180.000|XOffset=0mil|YOffset=0mil|HoleType=Round|Shape=RoundedRectangle|*
%AMROUNDEDRECTD29*
21,1,0.03937,0.00787,0,0,180.0*
21,1,0.03150,0.01575,0,0,180.0*
1,1,0.00787,-0.01575,0.00394*
1,1,0.00787,0.01575,0.00394*
1,1,0.00787,0.01575,-0.00394*
1,1,0.00787,-0.01575,-0.00394*
%
%ADD29ROUNDEDRECTD29*%
%ADD59R,0.10209X0.24422*%
%ADD60R,0.13398X0.22847*%
%ADD61R,0.06300X0.07099*%
%ADD62R,0.07099X0.06300*%
%ADD63R,0.12611X0.07296*%
%ADD64R,0.05603X0.04383*%
G04:AMPARAMS|DCode=65|XSize=43.83mil|YSize=70.99mil|CornerRadius=12.96mil|HoleSize=0mil|Usage=FLASHONLY|Rotation=270.000|XOffset=0mil|YOffset=0mil|HoleType=Round|Shape=RoundedRectangle|*
%AMROUNDEDRECTD65*
21,1,0.04383,0.04508,0,0,270.0*
21,1,0.01791,0.07099,0,0,270.0*
1,1,0.02591,-0.02254,-0.00896*
1,1,0.02591,-0.02254,0.00896*
1,1,0.02591,0.02254,0.00896*
1,1,0.02591,0.02254,-0.00896*
%
%ADD65ROUNDEDRECTD65*%
%ADD66R,0.04383X0.05603*%
G04:AMPARAMS|DCode=67|XSize=43.83mil|YSize=70.99mil|CornerRadius=12.96mil|HoleSize=0mil|Usage=FLASHONLY|Rotation=180.000|XOffset=0mil|YOffset=0mil|HoleType=Round|Shape=RoundedRectangle|*
%AMROUNDEDRECTD67*
21,1,0.04383,0.04508,0,0,180.0*
21,1,0.01791,0.07099,0,0,180.0*
1,1,0.02591,-0.00896,0.02254*
1,1,0.02591,0.00896,0.02254*
1,1,0.02591,0.00896,-0.02254*
1,1,0.02591,-0.00896,-0.02254*
%
%ADD67ROUNDEDRECTD67*%
%ADD68R,0.03162X0.06706*%
%ADD69R,0.06706X0.03162*%
%ADD70R,0.07690X0.03950*%
%ADD71R,0.03162X0.07887*%
%ADD72R,0.04147X0.03162*%
%ADD73R,0.03950X0.07690*%
%ADD74R,0.13398X0.09068*%
%ADD75R,0.04343X0.09068*%
%ADD76O,0.11824X0.03556*%
%ADD77R,0.05524X0.07099*%
%ADD78C,0.20485*%
%ADD79C,0.10642*%
%ADD80R,0.10236X0.10236*%
%ADD81C,0.10236*%
%ADD82C,0.06706*%
%ADD83R,0.06706X0.06706*%
%ADD84C,0.16548*%
%ADD85R,0.16548X0.16548*%
%ADD86C,0.12611*%
%ADD87C,0.08800*%
%ADD88C,0.00800*%
%ADD89C,0.03556*%
%ADD90C,0.03162*%
D29*
X346723Y204165D02*
D03*
Y209283D02*
D03*
X354991Y209558D02*
D03*
Y206724D02*
D03*
Y203928D02*
D03*
X372244Y611851D02*
D03*
Y609055D02*
D03*
Y606221D02*
D03*
X380512Y606496D02*
D03*
Y611614D02*
D03*
D59*
X414016Y343701D02*
D03*
X371024D02*
D03*
X392252Y473213D02*
D03*
X435244D02*
D03*
X313252Y472713D02*
D03*
X356244D02*
D03*
X335276Y343307D02*
D03*
X292284D02*
D03*
D60*
X392520Y343701D02*
D03*
X413748Y473213D02*
D03*
X334748Y472713D02*
D03*
X313779Y343307D02*
D03*
D61*
X365387Y176106D02*
D03*
Y186106D02*
D03*
X421427Y181748D02*
D03*
Y171748D02*
D03*
X373728Y176160D02*
D03*
Y186160D02*
D03*
X451071Y263708D02*
D03*
Y273708D02*
D03*
Y282541D02*
D03*
Y292541D02*
D03*
Y301374D02*
D03*
Y311374D02*
D03*
Y320207D02*
D03*
Y330207D02*
D03*
X434213Y320207D02*
D03*
Y330207D02*
D03*
Y311374D02*
D03*
Y301374D02*
D03*
Y292541D02*
D03*
Y282541D02*
D03*
Y263708D02*
D03*
Y273708D02*
D03*
X351964Y252484D02*
D03*
Y262484D02*
D03*
X353843Y316039D02*
D03*
Y326039D02*
D03*
X442642Y263708D02*
D03*
Y273708D02*
D03*
Y282541D02*
D03*
Y292541D02*
D03*
Y301374D02*
D03*
Y311374D02*
D03*
Y320207D02*
D03*
Y330207D02*
D03*
X357119Y174531D02*
D03*
Y184531D02*
D03*
X430680Y171748D02*
D03*
Y181748D02*
D03*
X389796Y211539D02*
D03*
Y221539D02*
D03*
X444594Y216081D02*
D03*
Y206081D02*
D03*
X390514Y157572D02*
D03*
Y167572D02*
D03*
X301532Y226694D02*
D03*
Y236695D02*
D03*
X454043Y211357D02*
D03*
Y201357D02*
D03*
X277321Y140903D02*
D03*
Y150903D02*
D03*
X380421Y167656D02*
D03*
Y157656D02*
D03*
X448851Y121776D02*
D03*
Y131776D02*
D03*
X439796Y121382D02*
D03*
Y131382D02*
D03*
X329171Y378255D02*
D03*
Y368255D02*
D03*
X409880Y377074D02*
D03*
Y367074D02*
D03*
X353843Y298539D02*
D03*
Y308539D02*
D03*
X287439Y690066D02*
D03*
Y680066D02*
D03*
X346813Y648123D02*
D03*
Y658123D02*
D03*
X284593Y485572D02*
D03*
Y495572D02*
D03*
Y504405D02*
D03*
Y514405D02*
D03*
Y523238D02*
D03*
Y533238D02*
D03*
Y542071D02*
D03*
Y552071D02*
D03*
X449126Y677238D02*
D03*
Y667238D02*
D03*
X273191Y614422D02*
D03*
Y604422D02*
D03*
X425703Y579084D02*
D03*
Y589084D02*
D03*
X278383Y679673D02*
D03*
Y689673D02*
D03*
X305807Y644031D02*
D03*
Y634031D02*
D03*
X353900Y629619D02*
D03*
Y639619D02*
D03*
X293022Y542071D02*
D03*
Y552071D02*
D03*
Y533238D02*
D03*
Y523238D02*
D03*
Y514405D02*
D03*
Y504405D02*
D03*
X276164Y542071D02*
D03*
Y552071D02*
D03*
Y523238D02*
D03*
Y533238D02*
D03*
Y504405D02*
D03*
Y514405D02*
D03*
Y485572D02*
D03*
Y495572D02*
D03*
X293022Y485572D02*
D03*
Y495572D02*
D03*
X338226Y648176D02*
D03*
Y658177D02*
D03*
X282640Y609698D02*
D03*
Y599698D02*
D03*
X337832Y594240D02*
D03*
Y604240D02*
D03*
X296555Y634031D02*
D03*
Y644031D02*
D03*
X370510Y630854D02*
D03*
Y640854D02*
D03*
X375271Y563295D02*
D03*
Y553295D02*
D03*
X400750Y440249D02*
D03*
Y450249D02*
D03*
X373391Y499740D02*
D03*
Y489740D02*
D03*
Y517240D02*
D03*
Y507239D02*
D03*
X362242Y639673D02*
D03*
Y629673D02*
D03*
D62*
X398246Y184246D02*
D03*
X408246D02*
D03*
X374334Y229595D02*
D03*
X364334D02*
D03*
X418428Y238650D02*
D03*
X408428D02*
D03*
X381814Y211879D02*
D03*
X371814D02*
D03*
X381027Y203611D02*
D03*
X371027D02*
D03*
X381027Y220146D02*
D03*
X371027D02*
D03*
X441643Y254696D02*
D03*
X431643D02*
D03*
X444309Y227946D02*
D03*
X454309D02*
D03*
X444255Y236288D02*
D03*
X454255D02*
D03*
X441710Y246057D02*
D03*
X431710D02*
D03*
X408428Y230776D02*
D03*
X418428D02*
D03*
X331868Y236214D02*
D03*
X321868D02*
D03*
X321814Y228021D02*
D03*
X331814D02*
D03*
X339742Y202356D02*
D03*
X329742D02*
D03*
X395253Y238183D02*
D03*
X385254D02*
D03*
X321814Y219753D02*
D03*
X331814D02*
D03*
X404491Y124083D02*
D03*
X414491D02*
D03*
X424176Y162666D02*
D03*
X434176D02*
D03*
X321814Y211485D02*
D03*
X331814D02*
D03*
X320020Y116820D02*
D03*
X330020D02*
D03*
X277227Y159676D02*
D03*
X267228D02*
D03*
X332382Y141251D02*
D03*
X322382D02*
D03*
X342891Y360230D02*
D03*
X332891D02*
D03*
X270717Y186750D02*
D03*
X280717D02*
D03*
X452340Y190939D02*
D03*
X442340D02*
D03*
X453521Y162592D02*
D03*
X443521D02*
D03*
X320020Y124995D02*
D03*
X330020D02*
D03*
X322373Y149550D02*
D03*
X332373D02*
D03*
X276834Y168676D02*
D03*
X266834D02*
D03*
X281558Y177676D02*
D03*
X271558D02*
D03*
X322382Y133039D02*
D03*
X332382D02*
D03*
X294860Y122828D02*
D03*
X284860D02*
D03*
X446387Y360242D02*
D03*
X436387D02*
D03*
X427887D02*
D03*
X417887D02*
D03*
X390135Y195269D02*
D03*
X380135D02*
D03*
X273713Y653187D02*
D03*
X283713D02*
D03*
X274894Y624840D02*
D03*
X284894D02*
D03*
X288885Y708625D02*
D03*
X278885D02*
D03*
X439461Y102006D02*
D03*
X449461D02*
D03*
X347099Y620510D02*
D03*
X337099D02*
D03*
X272979Y579491D02*
D03*
X282979D02*
D03*
X272926Y587832D02*
D03*
X282926D02*
D03*
X395421Y596026D02*
D03*
X405420D02*
D03*
X449220Y658465D02*
D03*
X459220D02*
D03*
X431587Y695313D02*
D03*
X441587D02*
D03*
X404065Y683921D02*
D03*
X394065D02*
D03*
X444889Y640465D02*
D03*
X454889D02*
D03*
X449220Y649465D02*
D03*
X459220D02*
D03*
X404074Y667410D02*
D03*
X394074D02*
D03*
X406428Y691965D02*
D03*
X396428D02*
D03*
X456517Y631391D02*
D03*
X446517D02*
D03*
X394065Y675709D02*
D03*
X404065D02*
D03*
X406428Y700140D02*
D03*
X396428D02*
D03*
X293058Y653113D02*
D03*
X303058D02*
D03*
X395421Y604294D02*
D03*
X405420D02*
D03*
X362901Y586184D02*
D03*
X352901D02*
D03*
X322743Y577129D02*
D03*
X312743D02*
D03*
X356208Y603900D02*
D03*
X346208D02*
D03*
X356208Y595632D02*
D03*
X346208D02*
D03*
X356208Y612168D02*
D03*
X346208D02*
D03*
X295591Y561083D02*
D03*
X285591D02*
D03*
X318989Y631533D02*
D03*
X328989D02*
D03*
X312743Y689727D02*
D03*
X322743D02*
D03*
X395421Y587758D02*
D03*
X405420D02*
D03*
X405367Y579565D02*
D03*
X395367D02*
D03*
X341981Y577596D02*
D03*
X331981D02*
D03*
X312743Y585003D02*
D03*
X322743D02*
D03*
X295524Y569722D02*
D03*
X285524D02*
D03*
X387493Y613423D02*
D03*
X397493D02*
D03*
X383556Y455549D02*
D03*
X393556D02*
D03*
X307221Y454750D02*
D03*
X317221D02*
D03*
X288721D02*
D03*
X298721D02*
D03*
X322743Y446420D02*
D03*
X312743D02*
D03*
X361868Y360230D02*
D03*
X351868D02*
D03*
X365131Y454525D02*
D03*
X375131D02*
D03*
D63*
X597638Y257087D02*
D03*
Y245669D02*
D03*
X598032Y572835D02*
D03*
Y561417D02*
D03*
Y594882D02*
D03*
Y583465D02*
D03*
X597638Y236221D02*
D03*
Y224803D02*
D03*
X347987Y351066D02*
D03*
Y339649D02*
D03*
X426987Y351566D02*
D03*
Y340149D02*
D03*
X379248Y464713D02*
D03*
Y476130D02*
D03*
X300248Y464213D02*
D03*
Y475630D02*
D03*
D64*
X359518Y353712D02*
D03*
X367323Y461280D02*
D03*
X449676Y256074D02*
D03*
X436683Y217098D02*
D03*
X428809D02*
D03*
X361880Y194775D02*
D03*
X454006Y184027D02*
D03*
X291492Y225336D02*
D03*
X311492D02*
D03*
X438487Y353003D02*
D03*
X273228Y631752D02*
D03*
X277559Y559705D02*
D03*
X415742Y590443D02*
D03*
X435743D02*
D03*
X298425Y598681D02*
D03*
X290551D02*
D03*
X365354Y621004D02*
D03*
X288748Y462776D02*
D03*
D65*
X359518Y340838D02*
D03*
X367323Y474154D02*
D03*
X449676Y243200D02*
D03*
X436683Y204224D02*
D03*
X428809D02*
D03*
X361880Y207649D02*
D03*
X454006Y171153D02*
D03*
X291492Y238210D02*
D03*
X311492D02*
D03*
X438487Y340129D02*
D03*
X273228Y644626D02*
D03*
X277559Y572579D02*
D03*
X415742Y577569D02*
D03*
X435743D02*
D03*
X298425Y611555D02*
D03*
X290551D02*
D03*
X365354Y608130D02*
D03*
X288748Y475650D02*
D03*
D66*
X397058Y229558D02*
D03*
X378947Y238613D02*
D03*
X438002Y236645D02*
D03*
X348287Y577166D02*
D03*
X330177Y586221D02*
D03*
X289232Y579134D02*
D03*
D67*
X384183Y229558D02*
D03*
X366073Y238613D02*
D03*
X425128Y236645D02*
D03*
X361161Y577166D02*
D03*
X343051Y586221D02*
D03*
X302106Y579134D02*
D03*
D68*
X368967Y160857D02*
D03*
X365227Y168338D02*
D03*
X372707D02*
D03*
X307156Y125031D02*
D03*
X310896Y117550D02*
D03*
X303416D02*
D03*
X273691Y125031D02*
D03*
X269951Y132511D02*
D03*
X277432D02*
D03*
X358268Y654921D02*
D03*
X362008Y647441D02*
D03*
X354528D02*
D03*
X419291Y693110D02*
D03*
X415551Y700591D02*
D03*
X423032D02*
D03*
X452756Y693110D02*
D03*
X456496Y685630D02*
D03*
X449016D02*
D03*
D69*
X389636Y182314D02*
D03*
X382156Y178574D02*
D03*
Y186054D02*
D03*
X337598Y633465D02*
D03*
X345079Y637205D02*
D03*
Y629725D02*
D03*
D70*
X420246Y192353D02*
D03*
Y197353D02*
D03*
Y202354D02*
D03*
Y207353D02*
D03*
Y212353D02*
D03*
Y217354D02*
D03*
Y222354D02*
D03*
X398790Y192353D02*
D03*
Y197353D02*
D03*
Y202354D02*
D03*
Y207353D02*
D03*
Y212353D02*
D03*
Y217354D02*
D03*
Y222354D02*
D03*
X306988Y623425D02*
D03*
Y618425D02*
D03*
Y613425D02*
D03*
Y608425D02*
D03*
Y603425D02*
D03*
Y598425D02*
D03*
Y593425D02*
D03*
X328445Y623425D02*
D03*
Y618425D02*
D03*
Y613425D02*
D03*
Y608425D02*
D03*
Y603425D02*
D03*
Y598425D02*
D03*
Y593425D02*
D03*
D71*
X442589Y173653D02*
D03*
X438849Y181527D02*
D03*
X446329D02*
D03*
X284646Y642126D02*
D03*
X288386Y634252D02*
D03*
X280906D02*
D03*
D72*
X282254Y346487D02*
D03*
X273790Y342747D02*
D03*
Y350228D02*
D03*
X444980Y469291D02*
D03*
X453445Y473032D02*
D03*
Y465551D02*
D03*
D73*
X340207Y216861D02*
D03*
X345207D02*
D03*
X350207D02*
D03*
X355207D02*
D03*
X340207Y238318D02*
D03*
X345207D02*
D03*
X350207D02*
D03*
X355207D02*
D03*
X399980Y136516D02*
D03*
X404980D02*
D03*
X409980D02*
D03*
X414980D02*
D03*
X399980Y157972D02*
D03*
X404980D02*
D03*
X409980D02*
D03*
X414980D02*
D03*
X323248Y675689D02*
D03*
X318248D02*
D03*
X313248D02*
D03*
X308248D02*
D03*
X323248Y654232D02*
D03*
X318248D02*
D03*
X313248D02*
D03*
X308248D02*
D03*
X387028Y598917D02*
D03*
X382028D02*
D03*
X377028D02*
D03*
X372028D02*
D03*
X387028Y577461D02*
D03*
X382028D02*
D03*
X377028D02*
D03*
X372028D02*
D03*
D74*
X391339Y622638D02*
D03*
X335827Y193110D02*
D03*
D75*
X382283Y645079D02*
D03*
X391339D02*
D03*
X400394D02*
D03*
X326772Y170669D02*
D03*
X335827D02*
D03*
X344882D02*
D03*
D76*
X439173Y648248D02*
D03*
Y653248D02*
D03*
Y658248D02*
D03*
Y663248D02*
D03*
Y668248D02*
D03*
Y673248D02*
D03*
Y678248D02*
D03*
Y683248D02*
D03*
X419882Y648248D02*
D03*
Y653248D02*
D03*
Y658248D02*
D03*
Y663248D02*
D03*
Y668248D02*
D03*
Y673248D02*
D03*
Y678248D02*
D03*
Y683248D02*
D03*
X306565Y134893D02*
D03*
Y139893D02*
D03*
Y144893D02*
D03*
Y149893D02*
D03*
Y154893D02*
D03*
Y159893D02*
D03*
Y164893D02*
D03*
Y169893D02*
D03*
X287274Y134893D02*
D03*
Y139893D02*
D03*
Y144893D02*
D03*
Y149893D02*
D03*
Y154893D02*
D03*
Y159893D02*
D03*
Y164893D02*
D03*
Y169893D02*
D03*
D77*
X418065Y597487D02*
D03*
X428065D02*
D03*
X438065D02*
D03*
X418065Y633471D02*
D03*
X428065D02*
D03*
X438065D02*
D03*
X289563Y182308D02*
D03*
X299563D02*
D03*
X309563D02*
D03*
X289563Y218292D02*
D03*
X299563D02*
D03*
X309563D02*
D03*
D78*
X479291Y242598D02*
D03*
Y588583D02*
D03*
X240000Y314934D02*
D03*
X602205Y712205D02*
D03*
Y110158D02*
D03*
Y411181D02*
D03*
X240000Y124094D02*
D03*
Y505774D02*
D03*
Y696614D02*
D03*
D79*
X392520Y351969D02*
D03*
X413748Y464945D02*
D03*
X334748Y464445D02*
D03*
X313779Y351575D02*
D03*
D80*
X337795Y687402D02*
D03*
D81*
X357480D02*
D03*
X377165D02*
D03*
D82*
X449528Y111811D02*
D03*
X439528D02*
D03*
X277953Y699213D02*
D03*
X287953D02*
D03*
D83*
X429528Y111811D02*
D03*
X297953Y699213D02*
D03*
D84*
X517323Y168110D02*
D03*
X563779Y652362D02*
D03*
X556693Y509055D02*
D03*
X517323Y312205D02*
D03*
X413779Y409055D02*
D03*
X307480D02*
D03*
D85*
X560630Y168110D02*
D03*
X520472Y652362D02*
D03*
X513386Y509055D02*
D03*
X560630Y312205D02*
D03*
D86*
X478346Y407874D02*
D03*
X458661D02*
D03*
X438976D02*
D03*
X478346Y435433D02*
D03*
X458661D02*
D03*
X438976D02*
D03*
X276772Y369685D02*
D03*
X257087D02*
D03*
X237402D02*
D03*
X276772Y397244D02*
D03*
X257087D02*
D03*
X237402D02*
D03*
Y447244D02*
D03*
X257087D02*
D03*
X276772D02*
D03*
X237402Y419685D02*
D03*
X257087D02*
D03*
X276772D02*
D03*
D87*
X319291Y409055D02*
D03*
X401968D02*
D03*
X507402Y397716D02*
D03*
X566457D02*
D03*
X507087Y423463D02*
D03*
X566142D02*
D03*
D88*
X410472Y643543D02*
D03*
X316142Y180157D02*
D03*
D89*
X353900Y620510D02*
D03*
X346850Y641732D02*
D03*
X362598Y600394D02*
D03*
X377165Y623229D02*
D03*
X296063Y136614D02*
D03*
X361810Y201968D02*
D03*
X401968Y177165D02*
D03*
X407086Y171653D02*
D03*
X338583Y133071D02*
D03*
X270935Y148062D02*
D03*
X264173Y152756D02*
D03*
X303150Y222047D02*
D03*
X326378Y183465D02*
D03*
X367877Y193769D02*
D03*
X331102Y178740D02*
D03*
X414961Y167323D02*
D03*
X455512Y218504D02*
D03*
X436614Y228346D02*
D03*
X401575Y233858D02*
D03*
X332087Y170669D02*
D03*
X273622Y637402D02*
D03*
X312426Y634031D02*
D03*
X298425Y603937D02*
D03*
X414900Y180210D02*
D03*
X410790Y200068D02*
D03*
X364334Y214241D02*
D03*
Y220934D02*
D03*
X266605Y137826D02*
D03*
X373389Y194556D02*
D03*
X388744Y174872D02*
D03*
X413153Y209123D02*
D03*
X428901Y196918D02*
D03*
X428901Y211879D02*
D03*
X280476Y234320D02*
D03*
X360003Y236682D02*
D03*
X359610Y217785D02*
D03*
X297313Y153574D02*
D03*
X368897Y479527D02*
D03*
X301575Y481890D02*
D03*
X283927Y129952D02*
D03*
X278346Y118504D02*
D03*
X461024Y680315D02*
D03*
X455512Y670079D02*
D03*
X413386Y687402D02*
D03*
X442520Y688189D02*
D03*
X429134Y664567D02*
D03*
X378740Y656299D02*
D03*
X396850Y638189D02*
D03*
X331890Y646063D02*
D03*
X338582Y639370D02*
D03*
X369291Y647244D02*
D03*
X313386Y643701D02*
D03*
X386221Y607480D02*
D03*
X293701Y626706D02*
D03*
X314173Y605118D02*
D03*
X320472Y603544D02*
D03*
X316535Y614173D02*
D03*
X365354Y613386D02*
D03*
X337795Y586614D02*
D03*
X396457Y631103D02*
D03*
X390551D02*
D03*
X446850Y579921D02*
D03*
X298425Y617323D02*
D03*
X412205Y584252D02*
D03*
X407087Y616929D02*
D03*
Y610630D02*
D03*
X418504Y584252D02*
D03*
X273228Y597244D02*
D03*
X294488Y589370D02*
D03*
X319685Y590945D02*
D03*
X294882Y582677D02*
D03*
X277559Y564961D02*
D03*
X367323Y577559D02*
D03*
X359449Y620473D02*
D03*
X304331Y687795D02*
D03*
X391596Y201346D02*
D03*
X381102Y174409D02*
D03*
X391339Y227953D02*
D03*
X406693Y212205D02*
D03*
X452756Y339370D02*
D03*
X359842Y336221D02*
D03*
X424803Y333858D02*
D03*
X453937Y699606D02*
D03*
X454724Y675591D02*
D03*
X461024Y663386D02*
D03*
X462992Y632677D02*
D03*
X419685Y135827D02*
D03*
X421654Y122835D02*
D03*
X362992Y593307D02*
D03*
X367716Y596456D02*
D03*
X370921Y621783D02*
D03*
X356693Y167717D02*
D03*
X348031Y158661D02*
D03*
X349606Y191338D02*
D03*
X346062Y198425D02*
D03*
X433858Y188976D02*
D03*
X302362Y675984D02*
D03*
X356298Y192519D02*
D03*
X387402Y205512D02*
D03*
X397244Y170472D02*
D03*
X359842Y212598D02*
D03*
X337638Y210079D02*
D03*
X342361Y209370D02*
D03*
X335276Y614488D02*
D03*
X366063Y602913D02*
D03*
X339606Y610472D02*
D03*
X379921Y616850D02*
D03*
D90*
X350841Y210774D02*
D03*
X376220Y613937D02*
D03*
X376394Y605005D02*
D03*
M02*
