M48
;Layer_Color=9474304
;FILE_FORMAT=2:5
INCH,LZ
;TYPE=PLATED
T1F00S00C0.01968
T2F00S00C0.02362
T3F00S00C0.03543
T4F00S00C0.04000
T5F00S00C0.04331
T6F00S00C0.05118
T7F00S00C0.05906
T8F00S00C0.07874
T10F00S00C0.12205
%
T01
X0350841Y0210774
X0376394Y0605005
X037622Y0613937
T02
X0278346Y0118504
X0283927Y0129952
X0296063Y0136614
X0297313Y0153574
X0270935Y0148062
X0264173Y0152756
X0266605Y0137826
X0338583Y0133071
X0419685Y0135827
X0421654Y0122835
X0414961Y0167323
X0407086Y0171653
X0401968Y0177165
X0397244Y0170472
X0388744Y0174872
X0381102Y0174409
X0373389Y0194556
X0367877Y0193769
X0356298Y0192519
X0349606Y0191338
X0346062Y0198425
X0342361Y020937
X0337638Y0210079
X0359842Y0212598
X035961Y0217785
X0364334Y0220934
Y0214241
X036181Y0201968
X0387402Y0205512
X0391596Y0201346
X041079Y0200068
X0413153Y0209123
X0406693Y0212205
X0428901Y0211879
X0428901Y0196918
X0433858Y0188976
X04149Y018021
X0401575Y0233858
X0391339Y0227953
X0360003Y0236682
X0356693Y0167717
X0348031Y0158661
X0332087Y0170669
X0331102Y017874
X0326378Y0183465
X0436614Y0228346
X0455512Y0218504
X030315Y0222047
X0280476Y023432
X0359842Y0336221
X0424803Y0333858
X0452756Y033937
X0368897Y0479527
X0367323Y0577559
X0367716Y0596456
X0362992Y0593307
X0362598Y0600394
X0366063Y0602913
X0365354Y0613386
X0359449Y0620473
X03539Y062051
X0370921Y0621783
X0377165Y0623229
X0379921Y061685
X0386221Y060748
X0407087Y061063
Y0616929
X0412205Y0584252
X0418504
X044685Y0579921
X0337795Y0586614
X0319685Y0590945
X0320472Y0603544
X0314173Y0605118
X0316535Y0614173
X0335276Y0614488
X0339606Y0610472
X0298425Y0603937
X0298425Y0617323
X0294488Y058937
X0294882Y0582677
X0277559Y0564961
X0273228Y0597244
X0301575Y048189
X0293701Y0626706
X0312426Y0634031
X0273622Y0637402
X0302362Y0675984
X0304331Y0687795
X0313386Y0643701
X033189Y0646063
X0338582Y063937
X034685Y0641732
X0369291Y0647244
X037874Y0656299
X039685Y0638189
X0396457Y0631103
X0390551
X0429134Y0664567
X0455512Y0670079
X0454724Y0675591
X0461024Y0680315
Y0663386
X0462992Y0632677
X0453937Y0699606
X044252Y0688189
X0413386Y0687402
T03
X0429528Y0111811
X0439528
X0449528
X0297953Y0699213
X0287953
X0277953
T04
X0507402Y0397716
X0507087Y0423463
X0566142
X0566457Y0397716
T05
X0319291Y0409055
X0401968
T06
X0337795Y0687402
X035748
X0377165
T07
X030748Y0409055
X0413779
T08
X0517323Y016811
X056063
Y0312205
X0517323
X039252Y0351969
X0313779Y0351575
X0334748Y0464445
X0413748Y0464945
X0513386Y0509055
X0556693
X0563779Y0652362
X0520472
T10
X024Y0124094
X0602205Y0110158
X0479291Y0242598
X024Y0314934
X0602205Y0411181
X0479291Y0588583
X024Y0505774
Y0696614
X0602205Y0712205
M30
