G04 Layer_Color=65535*
%FSLAX25Y25*%
%MOIN*%
G70*
G01*
G75*
%ADD32C,0.01000*%
%ADD33C,0.01969*%
%ADD38C,0.01575*%
%ADD39C,0.01181*%
%ADD54C,0.00984*%
%ADD55C,0.02362*%
%ADD56C,0.00787*%
%ADD57C,0.00800*%
%ADD58C,0.00394*%
D32*
X421450Y687520D02*
G03*
X421455Y687394I-1371J-119D01*
G01*
X304997Y130621D02*
G03*
X304992Y130747I1371J119D01*
G01*
X436345Y625393D02*
G03*
X439089Y625321I1366J-268D01*
G01*
X433572Y625278D02*
G03*
X436320Y625398I1383J-154D01*
G01*
X430428Y625321D02*
G03*
X433183Y625321I1378J-197D01*
G01*
X427666Y625278D02*
G03*
X430428Y625321I1383J-154D01*
G01*
X424517Y625278D02*
G03*
X427278Y625321I1383J-154D01*
G01*
X421373D02*
G03*
X424128Y625321I1378J-197D01*
G01*
X418217Y625278D02*
G03*
X420984Y625278I1383J-154D01*
G01*
X439094Y605680D02*
G03*
X436328Y605680I-1383J154D01*
G01*
X435939Y605636D02*
G03*
X433183Y605636I-1378J197D01*
G01*
X432795Y605680D02*
G03*
X430034Y605636I-1383J154D01*
G01*
X429646Y605680D02*
G03*
X426884Y605636I-1383J154D01*
G01*
X426884D02*
G03*
X424128Y605636I-1378J197D01*
G01*
X423740Y605680D02*
G03*
X420992Y605560I-1383J154D01*
G01*
X420967Y605565D02*
G03*
X418223Y605636I-1366J268D01*
G01*
X306662Y210214D02*
G03*
X309405Y210142I1366J-268D01*
G01*
X303888Y210099D02*
G03*
X306637Y210219I1383J-154D01*
G01*
X300744Y210142D02*
G03*
X303500Y210142I1378J-197D01*
G01*
X297983Y210099D02*
G03*
X300744Y210142I1383J-154D01*
G01*
X294833Y210099D02*
G03*
X297594Y210142I1383J-154D01*
G01*
X291689D02*
G03*
X294445Y210142I1378J-197D01*
G01*
X288534Y210099D02*
G03*
X291301Y210099I1383J-154D01*
G01*
X309411Y190501D02*
G03*
X306644Y190501I-1383J154D01*
G01*
X306256Y190457D02*
G03*
X303500Y190457I-1378J197D01*
G01*
X303112Y190501D02*
G03*
X300350Y190457I-1383J154D01*
G01*
X299962Y190501D02*
G03*
X297201Y190457I-1383J154D01*
G01*
X297201D02*
G03*
X294445Y190457I-1378J197D01*
G01*
X294057Y190501D02*
G03*
X291308Y190381I-1383J154D01*
G01*
X291283Y190386D02*
G03*
X288539Y190457I-1366J268D01*
G01*
X356368Y344125D02*
X362668D01*
X364173Y470866D02*
X370472D01*
X387471Y226409D02*
Y232708D01*
X369361Y235464D02*
Y241763D01*
X446526Y246487D02*
X452825D01*
X433534Y207511D02*
X439833D01*
X428416Y233495D02*
Y239794D01*
X425660Y207511D02*
X431959D01*
X358731Y204361D02*
X365030D01*
X450857Y174440D02*
X457156D01*
X288342Y234923D02*
X294642D01*
X308343D02*
X314642D01*
X435337Y343417D02*
X441636D01*
X270079Y641339D02*
X276378D01*
X357874Y574016D02*
Y580315D01*
X339764Y583071D02*
Y589370D01*
X274410Y569291D02*
X280709D01*
X298819Y575984D02*
Y582284D01*
X412593Y580856D02*
X418892D01*
X432593D02*
X438892D01*
X295276Y608268D02*
X301575D01*
X287402D02*
X293701D01*
X362205Y611417D02*
X368504D01*
X285598Y472362D02*
X291898D01*
X377165Y521654D02*
X378740Y524410D01*
X376741Y521896D02*
X377165Y521654D01*
X376378Y523229D02*
X376741Y521896D01*
X377165Y521654D02*
X378498Y522017D01*
X407874Y628740D02*
Y652756D01*
X386614Y655118D02*
X406299Y655118D01*
X422160Y629258D02*
X434758D01*
X415861Y601699D02*
X438302D01*
X441057D01*
Y629258D01*
X415861D02*
X422160D01*
X434758D02*
X441057D01*
X415861Y601699D02*
Y629258D01*
X415861Y629258D02*
X415861Y629258D01*
X415861D02*
Y629258D01*
X428847Y623747D02*
Y629253D01*
X418217Y625278D02*
Y628859D01*
X439089Y625321D02*
Y628865D01*
X418223Y602093D02*
Y605636D01*
X439094Y602099D02*
Y605680D01*
X428465Y601705D02*
Y607211D01*
X422553Y601699D02*
X435152D01*
X292476Y214079D02*
X305075D01*
X299164Y208568D02*
Y214074D01*
X288534Y210099D02*
Y213680D01*
X309405Y210142D02*
Y213686D01*
X288539Y186914D02*
Y190457D01*
X309411Y186920D02*
Y190501D01*
X298781Y186526D02*
Y192032D01*
X311768Y186521D02*
Y186521D01*
X311768D02*
X311768Y186521D01*
X311768Y186521D02*
Y214079D01*
X286571Y186521D02*
X292870D01*
X305469D02*
X311768D01*
X286571D02*
Y214079D01*
X289327D01*
X311768D01*
X292870Y186521D02*
X305469D01*
X485827Y400394D02*
Y442913D01*
X431102Y400394D02*
Y442913D01*
X485827D01*
X431102Y400394D02*
X485827D01*
X229921Y404724D02*
X284646D01*
X229921Y362205D02*
X284646D01*
Y404724D01*
X229921Y362205D02*
Y404724D01*
Y412205D02*
Y454724D01*
X284646Y412205D02*
Y454724D01*
X229921Y412205D02*
X284646D01*
X229921Y454724D02*
X284646D01*
X319291Y426772D02*
X401968D01*
X319291Y391339D02*
X401968D01*
X319291Y416929D02*
Y426772D01*
X401968Y416929D02*
Y426772D01*
X423779Y384055D02*
Y434055D01*
X297480Y384055D02*
Y434055D01*
X297480Y384055D02*
X423879D01*
X297480Y434355D02*
X423679Y434255D01*
X401968Y391339D02*
Y401181D01*
X319291Y391339D02*
Y400787D01*
X507402Y385906D02*
Y391811D01*
X566457Y385906D02*
Y391811D01*
X507402Y409528D02*
X566457D01*
X507402Y385906D02*
X566457D01*
X507402Y403622D02*
Y409528D01*
X566457Y403622D02*
Y409528D01*
X507087Y411652D02*
Y417558D01*
X566142Y411652D02*
Y417558D01*
X507087Y435274D02*
X566142D01*
X507087Y411652D02*
X566142D01*
X507087Y429369D02*
Y435274D01*
X566142Y429369D02*
Y435274D01*
X261024Y696457D02*
Y702455D01*
X264023D01*
X265022Y701455D01*
Y699456D01*
X264023Y698456D01*
X261024D01*
X267022Y701455D02*
X268021Y702455D01*
X270021D01*
X271020Y701455D01*
Y700455D01*
X270021Y699456D01*
X269021D01*
X270021D01*
X271020Y698456D01*
Y697456D01*
X270021Y696457D01*
X268021D01*
X267022Y697456D01*
X577282Y426789D02*
X578281Y427788D01*
Y429788D01*
X577282Y430787D01*
X573283D01*
X572284Y429788D01*
Y427788D01*
X573283Y426789D01*
X577282Y424789D02*
X578281Y423790D01*
Y421790D01*
X577282Y420791D01*
X576282D01*
X575282Y421790D01*
X574283Y420791D01*
X573283D01*
X572284Y421790D01*
Y423790D01*
X573283Y424789D01*
X574283D01*
X575282Y423790D01*
X576282Y424789D01*
X577282D01*
X575282Y423790D02*
Y421790D01*
X577282Y418791D02*
X578281Y417792D01*
Y415792D01*
X577282Y414793D01*
X573283D01*
X572284Y415792D01*
Y417792D01*
X573283Y418791D01*
X577282D01*
X577046Y400017D02*
X578045Y401017D01*
Y403016D01*
X577046Y404016D01*
X573047D01*
X572047Y403016D01*
Y401017D01*
X573047Y400017D01*
X577046Y398018D02*
X578045Y397018D01*
Y395019D01*
X577046Y394019D01*
X576046D01*
X575046Y395019D01*
X574047Y394019D01*
X573047D01*
X572047Y395019D01*
Y397018D01*
X573047Y398018D01*
X574047D01*
X575046Y397018D01*
X576046Y398018D01*
X577046D01*
X575046Y397018D02*
Y395019D01*
X572047Y392020D02*
Y390020D01*
Y391020D01*
X578045D01*
X577046Y392020D01*
D33*
X212598Y94488D02*
X614173D01*
Y724409D01*
X212598D02*
X614173D01*
X212598Y94488D02*
Y724409D01*
X247244Y353934D02*
X260363D01*
X247638Y466926D02*
X260757D01*
X254197Y473486D02*
Y460366D01*
D38*
X355956Y201962D02*
X355975Y201980D01*
X355956Y201999D01*
X355937Y201980D01*
X355956Y201962D01*
X371279Y613817D02*
X371260Y613798D01*
X371279Y613780D01*
X371297Y613798D01*
X371279Y613817D01*
D39*
X236535Y639975D02*
X239159Y642598D01*
X241783D01*
X244407Y639975D01*
Y632103D02*
Y634727D01*
X243095Y636039D01*
X237847D01*
X236535Y634727D01*
Y632103D01*
X237847Y630791D01*
X243095D01*
X244407Y632103D01*
X236535Y628167D02*
X241783D01*
Y624232D01*
X240471Y622920D01*
X236535D01*
Y616360D02*
Y618984D01*
X237847Y620296D01*
X240471D01*
X241783Y618984D01*
Y616360D01*
X240471Y615048D01*
X239159D01*
Y620296D01*
X236535Y604553D02*
X244407D01*
Y600617D01*
X243095Y599305D01*
X240471D01*
X239159Y600617D01*
Y604553D01*
X244407Y596681D02*
X236535D01*
X240471D01*
X241783Y595370D01*
Y592746D01*
X240471Y591434D01*
X236535D01*
X241783Y587498D02*
Y584874D01*
X240471Y583562D01*
X236535D01*
Y587498D01*
X237847Y588810D01*
X239159Y587498D01*
Y583562D01*
X236535Y580938D02*
Y577003D01*
X237847Y575691D01*
X239159Y577003D01*
Y579627D01*
X240471Y580938D01*
X241783Y579627D01*
Y575691D01*
X236535Y569131D02*
Y571755D01*
X237847Y573067D01*
X240471D01*
X241783Y571755D01*
Y569131D01*
X240471Y567819D01*
X239159D01*
Y573067D01*
X236535Y565196D02*
X239159Y562572D01*
X241783D01*
X244407Y565196D01*
X249213Y645276D02*
X257084D01*
Y641340D01*
X255772Y640028D01*
X253148D01*
X251836Y641340D01*
Y645276D01*
X249213Y636092D02*
Y633468D01*
X250524Y632157D01*
X253148D01*
X254460Y633468D01*
Y636092D01*
X253148Y637404D01*
X250524D01*
X249213Y636092D01*
X254460Y629533D02*
X250524D01*
X249213Y628221D01*
X250524Y626909D01*
X249213Y625597D01*
X250524Y624285D01*
X254460D01*
X249213Y617725D02*
Y620349D01*
X250524Y621661D01*
X253148D01*
X254460Y620349D01*
Y617725D01*
X253148Y616413D01*
X251836D01*
Y621661D01*
X254460Y613790D02*
X249213D01*
X251836D01*
X253148Y612478D01*
X254460Y611166D01*
Y609854D01*
X257084Y598047D02*
X249213D01*
Y594111D01*
X250524Y592799D01*
X251836D01*
X253148Y594111D01*
Y598047D01*
Y594111D01*
X254460Y592799D01*
X255772D01*
X257084Y594111D01*
Y598047D01*
X249213Y588863D02*
Y586239D01*
X250524Y584928D01*
X253148D01*
X254460Y586239D01*
Y588863D01*
X253148Y590175D01*
X250524D01*
X249213Y588863D01*
X254460Y580992D02*
Y578368D01*
X253148Y577056D01*
X249213D01*
Y580992D01*
X250524Y582304D01*
X251836Y580992D01*
Y577056D01*
X254460Y574432D02*
X249213D01*
X251836D01*
X253148Y573120D01*
X254460Y571808D01*
Y570497D01*
X257084Y561313D02*
X249213D01*
Y565249D01*
X250524Y566561D01*
X253148D01*
X254460Y565249D01*
Y561313D01*
D54*
X376546Y168338D02*
G03*
X376546Y168338I-492J0D01*
G01*
X382648Y189401D02*
G03*
X382648Y189401I-492J0D01*
G01*
X300561Y117550D02*
G03*
X300561Y117550I-492J0D01*
G01*
X281270Y132511D02*
G03*
X281270Y132511I-492J0D01*
G01*
X420739Y188613D02*
G03*
X420739Y188613I-492J0D01*
G01*
X450168Y181527D02*
G03*
X450168Y181527I-492J0D01*
G01*
X274282Y353574D02*
G03*
X274282Y353574I-492J0D01*
G01*
X336959Y216861D02*
G03*
X336959Y216861I-492J0D01*
G01*
X396732Y136516D02*
G03*
X396732Y136516I-492J0D01*
G01*
X327480Y675689D02*
G03*
X327480Y675689I-492J0D01*
G01*
X351673Y647441D02*
G03*
X351673Y647441I-492J0D01*
G01*
X391260Y598917D02*
G03*
X391260Y598917I-492J0D01*
G01*
X426870Y700591D02*
G03*
X426870Y700591I-492J0D01*
G01*
X307480Y627166D02*
G03*
X307480Y627166I-492J0D01*
G01*
X446161Y685630D02*
G03*
X446161Y685630I-492J0D01*
G01*
X453937Y462205D02*
G03*
X453937Y462205I-492J0D01*
G01*
X278051Y634252D02*
G03*
X278051Y634252I-492J0D01*
G01*
X345571Y626378D02*
G03*
X345571Y626378I-492J0D01*
G01*
X404823Y645079D02*
G03*
X404823Y645079I-492J0D01*
G01*
X323327Y170669D02*
G03*
X323327Y170669I-492J0D01*
G01*
X456693Y108661D02*
Y114565D01*
X459645D01*
X460629Y113581D01*
Y111613D01*
X459645Y110629D01*
X456693D01*
X466532Y108661D02*
X462597D01*
X466532Y112597D01*
Y113581D01*
X465548Y114565D01*
X463580D01*
X462597Y113581D01*
D55*
X413061Y194558D02*
G03*
X413061Y194558I-1181J0D01*
G01*
X343376Y225228D02*
G03*
X343376Y225228I-1181J0D01*
G01*
X403150Y144882D02*
G03*
X403150Y144882I-1181J0D01*
G01*
X322441Y667323D02*
G03*
X322441Y667323I-1181J0D01*
G01*
X386221Y590551D02*
G03*
X386221Y590551I-1181J0D01*
G01*
X316535Y621221D02*
G03*
X316535Y621221I-1181J0D01*
G01*
D56*
X610330Y168110D02*
G03*
X610330Y168110I-71354J0D01*
G01*
X613480Y652362D02*
G03*
X613480Y652362I-71354J0D01*
G01*
X606393Y509055D02*
G03*
X606393Y509055I-71354J0D01*
G01*
X610330Y312205D02*
G03*
X610330Y312205I-71354J0D01*
G01*
X358268Y245748D02*
Y330394D01*
X426378Y245748D02*
Y330394D01*
X363061Y161842D02*
X366211D01*
X363061D02*
Y163810D01*
X371723Y161842D02*
X374872D01*
Y163810D01*
X388652Y176409D02*
Y179558D01*
X386683Y176409D02*
X388652D01*
Y185070D02*
Y188220D01*
X386683D02*
X388652D01*
X309912Y124047D02*
X313061D01*
Y122078D02*
Y124047D01*
X301250D02*
X304400D01*
X301250Y122078D02*
Y124047D01*
X267786Y126015D02*
X270935D01*
X267786D02*
Y127983D01*
X276447Y126015D02*
X279597D01*
Y127983D01*
X415817Y190621D02*
Y224086D01*
X403219Y190621D02*
Y224086D01*
Y190621D02*
X415817D01*
X403219Y224086D02*
X415817D01*
X436683Y174834D02*
X439833D01*
X436683D02*
Y176409D01*
X445345Y174834D02*
X448494D01*
Y176409D01*
X280778Y340582D02*
Y343731D01*
X276841Y340582D02*
X280778D01*
Y349243D02*
Y352393D01*
X276841D02*
X280778D01*
X338258Y221290D02*
X357156D01*
X338258Y233889D02*
X357156D01*
X338258Y221290D02*
Y233889D01*
X357156Y221290D02*
Y233889D01*
X398031Y140945D02*
X416929D01*
X398031Y153543D02*
X416929D01*
X398031Y140945D02*
Y153543D01*
X416929Y140945D02*
Y153543D01*
X306299Y671260D02*
X325197D01*
X306299Y658662D02*
X325197D01*
Y671260D01*
X306299Y658662D02*
Y671260D01*
X361024Y653937D02*
X364173D01*
Y651969D02*
Y653937D01*
X352362D02*
X355512D01*
X352362Y651969D02*
Y653937D01*
X448000Y486520D02*
Y571166D01*
X379890Y486520D02*
Y571166D01*
X370079Y594488D02*
X388976D01*
X370079Y581890D02*
X388976D01*
Y594488D01*
X370079Y581890D02*
Y594488D01*
X413386Y694095D02*
X416535D01*
X413386D02*
Y696063D01*
X422047Y694095D02*
X425197D01*
Y696063D01*
X311417Y591693D02*
Y625158D01*
X324016Y591693D02*
Y625158D01*
X311417D02*
X324016D01*
X311417Y591693D02*
X324016D01*
X455512Y692126D02*
X458661D01*
Y690158D02*
Y692126D01*
X446850D02*
X450000D01*
X446850Y690158D02*
Y692126D01*
X446457Y472047D02*
Y475197D01*
X450394D01*
X446457Y463386D02*
Y466536D01*
Y463386D02*
X450394D01*
X287402Y640945D02*
X290551D01*
Y639370D02*
Y640945D01*
X278740D02*
X281890D01*
X278740Y639370D02*
Y640945D01*
X338583Y636221D02*
Y639370D01*
X340551D01*
X338583Y627559D02*
Y630709D01*
Y627559D02*
X340551D01*
X369000Y486020D02*
Y570666D01*
X300890Y486020D02*
Y570666D01*
X424528Y106811D02*
Y116811D01*
X454528D01*
Y106811D02*
Y116811D01*
X424528Y106811D02*
X454528D01*
X302953Y694213D02*
Y704213D01*
X272953Y694213D02*
X302953D01*
X272953D02*
Y704213D01*
X302953D01*
X572630Y168110D02*
X576630D01*
X574630Y166110D02*
Y170110D01*
X378150Y627953D02*
Y639764D01*
X404528Y627953D02*
Y639764D01*
X378150D02*
X404528D01*
X322638Y175984D02*
X349016D01*
X322638D02*
Y187795D01*
X349016Y175984D02*
Y187795D01*
X504472Y652362D02*
X508472D01*
X506472Y650362D02*
Y654362D01*
X497386Y509055D02*
X501386D01*
X499386Y507055D02*
Y511055D01*
X572630Y312205D02*
X576630D01*
X574630Y310205D02*
Y314205D01*
X426378Y646063D02*
X432677D01*
X426378Y685433D02*
X432677D01*
Y646063D02*
Y685433D01*
X426378Y646063D02*
Y685433D01*
X300069Y132708D02*
Y172078D01*
X293770Y132708D02*
Y172078D01*
Y132708D02*
X300069D01*
X293770Y172078D02*
X300069D01*
X279528Y245354D02*
Y330000D01*
X347638Y245354D02*
Y330000D01*
X232282Y267323D02*
X228346D01*
X230314D01*
Y264699D01*
X232282D01*
X228346D01*
Y263387D02*
X229002D01*
Y262731D01*
X228346D01*
Y263387D01*
X231626Y253548D02*
X232282Y254204D01*
Y255516D01*
X231626Y256172D01*
X229002D01*
X228346Y255516D01*
Y254204D01*
X229002Y253548D01*
X230314D01*
Y254860D01*
X228346Y252236D02*
X229002D01*
Y251580D01*
X228346D01*
Y252236D01*
X232282Y242396D02*
Y243708D01*
Y243052D01*
X229002D01*
X228346Y243708D01*
Y244364D01*
X229002Y245020D01*
X230970Y241085D02*
X229002D01*
X228346Y240429D01*
Y238461D01*
X230970D01*
X228346Y237149D02*
X230970D01*
Y235181D01*
X230314Y234525D01*
X228346D01*
Y233213D02*
Y231901D01*
Y232557D01*
X230970D01*
Y233213D01*
X228346Y229277D02*
Y227965D01*
X229002Y227309D01*
X230314D01*
X230970Y227965D01*
Y229277D01*
X230314Y229933D01*
X229002D01*
X228346Y229277D01*
X230970Y225998D02*
X228346D01*
X229658D01*
X230314Y225342D01*
X230970Y224686D01*
Y224030D01*
X227691Y221406D02*
X228346Y220750D01*
X229002D01*
Y221406D01*
X228346D01*
Y220750D01*
X227691Y221406D01*
X227034Y222062D01*
X228346Y214190D02*
X230970D01*
X232282Y212878D01*
X230970Y211566D01*
X228346D01*
X230314D01*
Y214190D01*
X228346Y210255D02*
X229002D01*
Y209599D01*
X228346D01*
Y210255D01*
X231626Y200415D02*
X232282Y201071D01*
Y202383D01*
X231626Y203039D01*
X229002D01*
X228346Y202383D01*
Y201071D01*
X229002Y200415D01*
X228346Y199103D02*
X229002D01*
Y198447D01*
X228346D01*
Y199103D01*
Y191888D02*
X232282D01*
Y189920D01*
X231626Y189264D01*
X230314D01*
X229658Y189920D01*
Y191888D01*
X230970Y187952D02*
X228346D01*
X229658D01*
X230314Y187296D01*
X230970Y186640D01*
Y185984D01*
Y183360D02*
Y182048D01*
X230314Y181393D01*
X228346D01*
Y183360D01*
X229002Y184016D01*
X229658Y183360D01*
Y181393D01*
X231626Y179425D02*
X230970D01*
Y180081D01*
Y178769D01*
Y179425D01*
X229002D01*
X228346Y178769D01*
Y174833D02*
Y176145D01*
X229002Y176801D01*
X230314D01*
X230970Y176145D01*
Y174833D01*
X230314Y174177D01*
X229658D01*
Y176801D01*
X228346Y172865D02*
Y170897D01*
X229002Y170241D01*
X229658Y170897D01*
Y172209D01*
X230314Y172865D01*
X230970Y172209D01*
Y170241D01*
X240629Y271392D02*
Y274016D01*
X238661D01*
Y272704D01*
Y274016D01*
X236693D01*
Y270080D02*
X237349D01*
Y269424D01*
X236693D01*
Y270080D01*
X239973Y260241D02*
X240629Y260897D01*
Y262209D01*
X239973Y262864D01*
X239317D01*
X238661Y262209D01*
Y260897D01*
X238005Y260241D01*
X237349D01*
X236693Y260897D01*
Y262209D01*
X237349Y262864D01*
X236693Y258929D02*
X237349D01*
Y258273D01*
X236693D01*
Y258929D01*
X239973Y249089D02*
X240629Y249745D01*
Y251057D01*
X239973Y251713D01*
X237349D01*
X236693Y251057D01*
Y249745D01*
X237349Y249089D01*
X238661D01*
Y250401D01*
X239317Y247122D02*
Y245810D01*
X238661Y245154D01*
X236693D01*
Y247122D01*
X237349Y247778D01*
X238005Y247122D01*
Y245154D01*
X239317Y243842D02*
X236693D01*
X238005D01*
X238661Y243186D01*
X239317Y242530D01*
Y241874D01*
Y237282D02*
Y239250D01*
X238661Y239906D01*
X237349D01*
X236693Y239250D01*
Y237282D01*
Y235970D02*
Y234658D01*
Y235314D01*
X239317D01*
Y235970D01*
Y232034D02*
Y230723D01*
X238661Y230067D01*
X236693D01*
Y232034D01*
X237349Y232691D01*
X238005Y232034D01*
Y230067D01*
X236037Y228099D02*
X236693Y227443D01*
X237349D01*
Y228099D01*
X236693D01*
Y227443D01*
X236037Y228099D01*
X235381Y228755D01*
X240629Y218260D02*
Y219571D01*
Y218915D01*
X237349D01*
X236693Y219571D01*
Y220227D01*
X237349Y220883D01*
X236693Y216948D02*
X237349D01*
Y216292D01*
X236693D01*
Y216948D01*
X240629Y207108D02*
Y209732D01*
X238661D01*
Y208420D01*
Y209732D01*
X236693D01*
Y205796D02*
X237349D01*
Y205140D01*
X236693D01*
Y205796D01*
X239973Y195957D02*
X240629Y196613D01*
Y197925D01*
X239973Y198581D01*
X237349D01*
X236693Y197925D01*
Y196613D01*
X237349Y195957D01*
X238661D01*
Y197269D01*
X239317Y194645D02*
X237349D01*
X236693Y193989D01*
Y192021D01*
X239317D01*
X236693Y188741D02*
Y190053D01*
X237349Y190709D01*
X238661D01*
X239317Y190053D01*
Y188741D01*
X238661Y188085D01*
X238005D01*
Y190709D01*
X239317Y186774D02*
X236693D01*
X238005D01*
X238661Y186118D01*
X239317Y185462D01*
Y184806D01*
Y182838D02*
X236693D01*
X238005D01*
X238661Y182182D01*
X239317Y181526D01*
Y180870D01*
X236693Y176934D02*
Y178246D01*
X237349Y178902D01*
X238661D01*
X239317Y178246D01*
Y176934D01*
X238661Y176278D01*
X238005D01*
Y178902D01*
X236693Y174966D02*
Y173654D01*
Y174310D01*
X239317D01*
Y174966D01*
Y171686D02*
X236693D01*
X238005D01*
X238661Y171031D01*
X239317Y170375D01*
Y169719D01*
X236693Y167095D02*
Y165783D01*
X237349Y165127D01*
X238661D01*
X239317Y165783D01*
Y167095D01*
X238661Y167751D01*
X237349D01*
X236693Y167095D01*
X236037Y163159D02*
X236693Y162503D01*
X237349D01*
Y163159D01*
X236693D01*
Y162503D01*
X236037Y163159D01*
X235381Y163815D01*
X246772Y243386D02*
X252675D01*
X250707Y241418D01*
X252675Y239450D01*
X246772D01*
X250707Y236498D02*
Y234530D01*
X249724Y233546D01*
X246772D01*
Y236498D01*
X247756Y237482D01*
X248740Y236498D01*
Y233546D01*
X250707Y231579D02*
X247756D01*
X246772Y230595D01*
Y227643D01*
X245788D01*
X244804Y228627D01*
Y229611D01*
X246772Y227643D02*
X250707D01*
X246772Y215836D02*
Y219771D01*
X250707Y215836D01*
X251691D01*
X252675Y216820D01*
Y218788D01*
X251691Y219771D01*
Y213868D02*
X252675Y212884D01*
Y210916D01*
X251691Y209932D01*
X247756D01*
X246772Y210916D01*
Y212884D01*
X247756Y213868D01*
X251691D01*
X246772Y207964D02*
Y205996D01*
Y206980D01*
X252675D01*
X251691Y207964D01*
X252675Y203045D02*
Y199109D01*
X251691D01*
X247756Y203045D01*
X246772D01*
X232045Y643307D02*
X227126D01*
X226142Y642323D01*
Y640355D01*
X227126Y639371D01*
X232045D01*
X226142Y637403D02*
X232045D01*
X226142Y633468D01*
X232045D01*
Y631500D02*
Y629532D01*
Y630516D01*
X226142D01*
Y631500D01*
Y629532D01*
X231061Y622645D02*
X232045Y623628D01*
Y625596D01*
X231061Y626580D01*
X227126D01*
X226142Y625596D01*
Y623628D01*
X227126Y622645D01*
X226142Y620677D02*
X230078D01*
X232045Y618709D01*
X230078Y616741D01*
X226142D01*
X229094D01*
Y620677D01*
X226142Y614773D02*
X232045D01*
X230078Y612805D01*
X232045Y610837D01*
X226142D01*
Y608869D02*
X232045D01*
Y605918D01*
X231061Y604934D01*
X229094D01*
X228110Y605918D01*
Y608869D01*
X226142Y602966D02*
X230078Y599030D01*
X232045Y597062D02*
X226142D01*
X228110D01*
X232045Y593126D01*
X229094Y596078D01*
X226142Y593126D01*
X230078Y590175D02*
Y588207D01*
X229094Y587223D01*
X226142D01*
Y590175D01*
X227126Y591159D01*
X228110Y590175D01*
Y587223D01*
X230078Y585255D02*
X226142D01*
X228110D01*
X229094Y584271D01*
X230078Y583287D01*
Y582303D01*
X231061Y578368D02*
X230078D01*
Y579351D01*
Y577384D01*
Y578368D01*
X227126D01*
X226142Y577384D01*
X232045Y570496D02*
Y574432D01*
X229094D01*
Y572464D01*
Y574432D01*
X226142D01*
Y568528D02*
Y566560D01*
Y567544D01*
X232045D01*
Y568528D01*
X230078Y563609D02*
X227126D01*
X226142Y562625D01*
Y559673D01*
X225158D01*
X224174Y560657D01*
Y561641D01*
X226142Y559673D02*
X230078D01*
D57*
X361887Y176106D02*
Y186106D01*
X368887Y176106D02*
Y186106D01*
X398246Y187746D02*
X408246D01*
X398246Y180746D02*
X408246D01*
X604256Y242364D02*
Y260336D01*
X591120Y242364D02*
Y260336D01*
X604650Y558112D02*
Y576084D01*
X591513Y558112D02*
Y576084D01*
X604650Y580159D02*
Y598132D01*
X591513Y580159D02*
Y598132D01*
X604256Y221498D02*
Y239470D01*
X591120Y221498D02*
Y239470D01*
X364334Y226095D02*
X374334D01*
X364334Y233095D02*
X374334D01*
X408428Y235150D02*
X418428D01*
X408428Y242150D02*
X418428D01*
X424928Y171748D02*
Y181748D01*
X417928Y171748D02*
Y181748D01*
X371814Y208379D02*
X381814D01*
X371814Y215379D02*
X381814D01*
X371027Y200111D02*
X381027D01*
X371027Y207111D02*
X381027D01*
X371027Y216647D02*
X381027D01*
X371027Y223646D02*
X381027D01*
X431643Y251196D02*
X441643D01*
X431643Y258196D02*
X441643D01*
X370228Y176160D02*
Y186160D01*
X377228Y176160D02*
Y186160D01*
X444309Y231446D02*
X454309D01*
X444309Y224446D02*
X454309D01*
X447571Y263708D02*
Y273708D01*
X454571Y263708D02*
Y273708D01*
X447571Y282541D02*
Y292541D01*
X454571Y282541D02*
Y292541D01*
X447571Y301374D02*
Y311374D01*
X454571Y301374D02*
Y311374D01*
X447571Y320207D02*
Y330207D01*
X454571Y320207D02*
Y330207D01*
X430713Y320207D02*
Y330207D01*
X437713Y320207D02*
Y330207D01*
Y301374D02*
Y311374D01*
X430713Y301374D02*
Y311374D01*
X437713Y282541D02*
Y292541D01*
X430713Y282541D02*
Y292541D01*
Y263708D02*
Y273708D01*
X437713Y263708D02*
Y273708D01*
X348464Y252484D02*
Y262484D01*
X355464Y252484D02*
Y262484D01*
X350343Y316039D02*
Y326039D01*
X357343Y316039D02*
Y326039D01*
X439142Y263708D02*
Y273708D01*
X446142Y263708D02*
Y273708D01*
X439142Y282541D02*
Y292541D01*
X446142Y282541D02*
Y292541D01*
X439142Y301374D02*
Y311374D01*
X446142Y301374D02*
Y311374D01*
X439142Y320207D02*
Y330207D01*
X446142Y320207D02*
Y330207D01*
X444255Y239788D02*
X454255D01*
X444255Y232788D02*
X454255D01*
X431710Y242557D02*
X441710D01*
X431710Y249557D02*
X441710D01*
X353619Y174531D02*
Y184531D01*
X360619Y174531D02*
Y184531D01*
X427179Y171748D02*
Y181748D01*
X434179Y171748D02*
Y181748D01*
X408428Y234276D02*
X418428D01*
X408428Y227276D02*
X418428D01*
X386296Y211539D02*
Y221539D01*
X393296Y211539D02*
Y221539D01*
X321868Y232714D02*
X331868D01*
X321868Y239714D02*
X331868D01*
X321814Y231521D02*
X331814D01*
X321814Y224520D02*
X331814D01*
X329742Y198856D02*
X339742D01*
X329742Y205856D02*
X339742D01*
X385254Y234683D02*
X395253D01*
X385254Y241683D02*
X395253D01*
X321814Y223253D02*
X331814D01*
X321814Y216253D02*
X331814D01*
X448095Y206081D02*
Y216081D01*
X441094Y206081D02*
Y216081D01*
X404491Y127584D02*
X414491D01*
X404491Y120583D02*
X414491D01*
X387014Y157572D02*
Y167572D01*
X394014Y157572D02*
Y167572D01*
X298031Y226694D02*
Y236695D01*
X305031Y226694D02*
Y236695D01*
X424176Y166166D02*
X434176D01*
X424176Y159166D02*
X434176D01*
X321814Y214985D02*
X331814D01*
X321814Y207985D02*
X331814D01*
X457543Y201357D02*
Y211357D01*
X450543Y201357D02*
Y211357D01*
X320020Y120320D02*
X330020D01*
X320020Y113320D02*
X330020D01*
X267228Y156176D02*
X277227D01*
X267228Y163176D02*
X277227D01*
X322382Y137751D02*
X332382D01*
X322382Y144751D02*
X332382D01*
X332891Y356730D02*
X342891D01*
X332891Y363730D02*
X342891D01*
X273821Y140903D02*
Y150903D01*
X280821Y140903D02*
Y150903D01*
X270717Y190250D02*
X280717D01*
X270717Y183250D02*
X280717D01*
X383921Y157656D02*
Y167656D01*
X376921Y157656D02*
Y167656D01*
X442340Y187439D02*
X452340D01*
X442340Y194439D02*
X452340D01*
X443521Y159092D02*
X453521D01*
X443521Y166092D02*
X453521D01*
X445351Y121776D02*
Y131776D01*
X452351Y121776D02*
Y131776D01*
X436296Y121382D02*
Y131382D01*
X443296Y121382D02*
Y131382D01*
X320020Y128495D02*
X330020D01*
X320020Y121495D02*
X330020D01*
X322373Y153050D02*
X332373D01*
X322373Y146050D02*
X332373D01*
X266834Y165176D02*
X276834D01*
X266834Y172176D02*
X276834D01*
X271558Y174176D02*
X281558D01*
X271558Y181176D02*
X281558D01*
X322382Y136539D02*
X332382D01*
X322382Y129539D02*
X332382D01*
X284860Y119328D02*
X294860D01*
X284860Y126328D02*
X294860D01*
X354605Y336343D02*
Y354316D01*
X341469Y336343D02*
Y354316D01*
X332671Y368255D02*
Y378255D01*
X325671Y368255D02*
Y378255D01*
X433605Y336843D02*
Y354816D01*
X420469Y336843D02*
Y354816D01*
X436387Y356742D02*
X446387D01*
X436387Y363742D02*
X446387D01*
X417887Y356742D02*
X427887D01*
X417887Y363742D02*
X427887D01*
X380135Y191769D02*
X390135D01*
X380135Y198769D02*
X390135D01*
X413380Y367074D02*
Y377074D01*
X406380Y367074D02*
Y377074D01*
X350343Y298539D02*
Y308539D01*
X357343Y298539D02*
Y308539D01*
X273713Y656687D02*
X283713D01*
X273713Y649687D02*
X283713D01*
X290939Y680066D02*
Y690066D01*
X283939Y680066D02*
Y690066D01*
X274894Y628340D02*
X284894D01*
X274894Y621340D02*
X284894D01*
X343313Y648123D02*
Y658123D01*
X350313Y648123D02*
Y658123D01*
X278885Y705125D02*
X288885D01*
X278885Y712124D02*
X288885D01*
X439461Y105506D02*
X449461D01*
X439461Y98506D02*
X449461D01*
X337099Y617010D02*
X347099D01*
X337099Y624010D02*
X347099D01*
X272979Y582991D02*
X282979D01*
X272979Y575991D02*
X282979D01*
X272926Y591332D02*
X282926D01*
X272926Y584333D02*
X282926D01*
X395421Y599526D02*
X405420D01*
X395421Y592526D02*
X405420D01*
X281093Y485572D02*
Y495572D01*
X288093Y485572D02*
Y495572D01*
X281093Y504405D02*
Y514405D01*
X288093Y504405D02*
Y514405D01*
X281093Y523238D02*
Y533238D01*
X288093Y523238D02*
Y533238D01*
X281093Y542071D02*
Y552071D01*
X288093Y542071D02*
Y552071D01*
X449220Y661965D02*
X459220D01*
X449220Y654965D02*
X459220D01*
X431587Y698813D02*
X441587D01*
X431587Y691813D02*
X441587D01*
X394065Y680421D02*
X404065D01*
X394065Y687421D02*
X404065D01*
X444889Y643965D02*
X454889D01*
X444889Y636965D02*
X454889D01*
X449220Y652965D02*
X459220D01*
X449220Y645965D02*
X459220D01*
X394074Y663910D02*
X404074D01*
X394074Y670910D02*
X404074D01*
X396428Y688465D02*
X406428D01*
X396428Y695465D02*
X406428D01*
X446517Y627891D02*
X456517D01*
X446517Y634891D02*
X456517D01*
X452626Y667238D02*
Y677238D01*
X445626Y667238D02*
Y677238D01*
X394065Y679209D02*
X404065D01*
X394065Y672209D02*
X404065D01*
X276691Y604422D02*
Y614422D01*
X269691Y604422D02*
Y614422D01*
X396428Y696640D02*
X406428D01*
X396428Y703640D02*
X406428D01*
X293058Y656613D02*
X303058D01*
X293058Y649613D02*
X303058D01*
X395421Y607794D02*
X405420D01*
X395421Y600794D02*
X405420D01*
X422203Y579084D02*
Y589084D01*
X429203Y579084D02*
Y589084D01*
X274884Y679673D02*
Y689673D01*
X281884Y679673D02*
Y689673D01*
X352901Y582684D02*
X362901D01*
X352901Y589684D02*
X362901D01*
X312743Y573629D02*
X322743D01*
X312743Y580628D02*
X322743D01*
X346208Y600400D02*
X356208D01*
X346208Y607400D02*
X356208D01*
X309307Y634031D02*
Y644031D01*
X302307Y634031D02*
Y644031D01*
X346208Y592132D02*
X356208D01*
X346208Y599132D02*
X356208D01*
X346208Y608668D02*
X356208D01*
X346208Y615668D02*
X356208D01*
X285591Y557583D02*
X295591D01*
X285591Y564583D02*
X295591D01*
X350400Y629619D02*
Y639619D01*
X357400Y629619D02*
Y639619D01*
X289522Y542071D02*
Y552071D01*
X296522Y542071D02*
Y552071D01*
Y523238D02*
Y533238D01*
X289522Y523238D02*
Y533238D01*
X296522Y504405D02*
Y514405D01*
X289522Y504405D02*
Y514405D01*
X272664Y542071D02*
Y552071D01*
X279664Y542071D02*
Y552071D01*
X272664Y523238D02*
Y533238D01*
X279664Y523238D02*
Y533238D01*
X272664Y504405D02*
Y514405D01*
X279664Y504405D02*
Y514405D01*
X272664Y485572D02*
Y495572D01*
X279664Y485572D02*
Y495572D01*
X318989Y635033D02*
X328989D01*
X318989Y628033D02*
X328989D01*
X289522Y485572D02*
Y495572D01*
X296522Y485572D02*
Y495572D01*
X312743Y693227D02*
X322743D01*
X312743Y686227D02*
X322743D01*
X334726Y648176D02*
Y658177D01*
X341726Y648176D02*
Y658177D01*
X395421Y591258D02*
X405420D01*
X395421Y584258D02*
X405420D01*
X395367Y576065D02*
X405367D01*
X395367Y583065D02*
X405367D01*
X286140Y599698D02*
Y609698D01*
X279140Y599698D02*
Y609698D01*
X331981Y574096D02*
X341981D01*
X331981Y581096D02*
X341981D01*
X334332Y594240D02*
Y604240D01*
X341332Y594240D02*
Y604240D01*
X312743Y588503D02*
X322743D01*
X312743Y581502D02*
X322743D01*
X293055Y634031D02*
Y644031D01*
X300055Y634031D02*
Y644031D01*
X367009Y630854D02*
Y640854D01*
X374009Y630854D02*
Y640854D01*
X285524Y566222D02*
X295524D01*
X285524Y573222D02*
X295524D01*
X387493Y616923D02*
X397493D01*
X387493Y609923D02*
X397493D01*
X383556Y459049D02*
X393556D01*
X383556Y452049D02*
X393556D01*
X307221Y458250D02*
X317221D01*
X307221Y451250D02*
X317221D01*
X372630Y461463D02*
Y479436D01*
X385766Y461463D02*
Y479436D01*
X378771Y553295D02*
Y563295D01*
X371771Y553295D02*
Y563295D01*
X397250Y440249D02*
Y450249D01*
X404250Y440249D02*
Y450249D01*
X293630Y460963D02*
Y478936D01*
X306766Y460963D02*
Y478936D01*
X288721Y458250D02*
X298721D01*
X288721Y451250D02*
X298721D01*
X312743Y442920D02*
X322743D01*
X312743Y449920D02*
X322743D01*
X376891Y489740D02*
Y499740D01*
X369891Y489740D02*
Y499740D01*
X376891Y507239D02*
Y517240D01*
X369891Y507239D02*
Y517240D01*
X365742Y629673D02*
Y639673D01*
X358742Y629673D02*
Y639673D01*
X351868Y356730D02*
X361868D01*
X351868Y363730D02*
X361868D01*
X365131Y458025D02*
X375131D01*
X365131Y451025D02*
X375131D01*
D58*
X327953Y669685D02*
X385118D01*
X327953D02*
Y705118D01*
X385039D01*
X387008Y669685D02*
Y705118D01*
X385118Y669685D02*
X387008D01*
X385039Y705118D02*
X387008D01*
X347244Y202362D02*
Y200722D01*
X347572Y200394D01*
X348228D01*
X348556Y200722D01*
Y202362D01*
X350196Y200394D02*
Y202362D01*
X349212Y201378D01*
X350524D01*
X351180Y200394D02*
Y200722D01*
X351508D01*
Y200394D01*
X351180D01*
X354132D02*
X352820D01*
X354132Y201706D01*
Y202034D01*
X353804Y202362D01*
X353148D01*
X352820Y202034D01*
X605118Y254724D02*
X607676D01*
Y253445D01*
X607250Y253019D01*
X606397D01*
X605971Y253445D01*
Y254724D01*
Y253872D02*
X605118Y253019D01*
X607250Y252166D02*
X607676Y251740D01*
Y250887D01*
X607250Y250461D01*
X606824D01*
X606397Y250887D01*
Y251313D01*
Y250887D01*
X605971Y250461D01*
X605545D01*
X605118Y250887D01*
Y251740D01*
X605545Y252166D01*
X605118Y248329D02*
X607676D01*
X606397Y249608D01*
Y247902D01*
X605905Y570472D02*
X608464D01*
Y569193D01*
X608037Y568767D01*
X607185D01*
X606758Y569193D01*
Y570472D01*
Y569620D02*
X605905Y568767D01*
X608037Y567914D02*
X608464Y567488D01*
Y566635D01*
X608037Y566209D01*
X607611D01*
X607185Y566635D01*
Y567062D01*
Y566635D01*
X606758Y566209D01*
X606332D01*
X605905Y566635D01*
Y567488D01*
X606332Y567914D01*
X608037Y565356D02*
X608464Y564930D01*
Y564077D01*
X608037Y563651D01*
X607611D01*
X607185Y564077D01*
Y564503D01*
Y564077D01*
X606758Y563651D01*
X606332D01*
X605905Y564077D01*
Y564930D01*
X606332Y565356D01*
X605905Y592520D02*
X608464D01*
Y591241D01*
X608037Y590814D01*
X607185D01*
X606758Y591241D01*
Y592520D01*
Y591667D02*
X605905Y590814D01*
X608037Y589961D02*
X608464Y589535D01*
Y588682D01*
X608037Y588256D01*
X607611D01*
X607185Y588682D01*
Y589109D01*
Y588682D01*
X606758Y588256D01*
X606332D01*
X605905Y588682D01*
Y589535D01*
X606332Y589961D01*
X605905Y585698D02*
Y587403D01*
X607611Y585698D01*
X608037D01*
X608464Y586124D01*
Y586977D01*
X608037Y587403D01*
X360630Y222047D02*
X358072D01*
Y223326D01*
X358498Y223753D01*
X359351D01*
X359777Y223326D01*
Y222047D01*
Y222900D02*
X360630Y223753D01*
Y226311D02*
Y224605D01*
X358924Y226311D01*
X358498D01*
X358072Y225885D01*
Y225032D01*
X358498Y224605D01*
Y227164D02*
X358072Y227590D01*
Y228443D01*
X358498Y228869D01*
X358924D01*
X359351Y228443D01*
Y228016D01*
Y228443D01*
X359777Y228869D01*
X360204D01*
X360630Y228443D01*
Y227590D01*
X360204Y227164D01*
X360630Y229722D02*
X360204D01*
Y230148D01*
X360630D01*
Y229722D01*
Y233559D02*
Y231854D01*
X358924Y233559D01*
X358498D01*
X358072Y233133D01*
Y232280D01*
X358498Y231854D01*
X408661Y242913D02*
Y244881D01*
X409645D01*
X409973Y244553D01*
Y243897D01*
X409645Y243569D01*
X408661D01*
X409317D02*
X409973Y242913D01*
X411941D02*
X410629D01*
X411941Y244225D01*
Y244553D01*
X411613Y244881D01*
X410957D01*
X410629Y244553D01*
X412597Y242913D02*
X413253D01*
X412925D01*
Y244881D01*
X412597Y244553D01*
X414237Y242913D02*
Y243241D01*
X414565D01*
Y242913D01*
X414237D01*
X417189D02*
X415877D01*
X417189Y244225D01*
Y244553D01*
X416861Y244881D01*
X416205D01*
X415877Y244553D01*
X416583Y174387D02*
X414024D01*
Y175666D01*
X414451Y176092D01*
X415304D01*
X415730Y175666D01*
Y174387D01*
Y175239D02*
X416583Y176092D01*
Y178650D02*
Y176945D01*
X414877Y178650D01*
X414451D01*
X414024Y178224D01*
Y177371D01*
X414451Y176945D01*
Y179503D02*
X414024Y179929D01*
Y180782D01*
X414451Y181209D01*
X416156D01*
X416583Y180782D01*
Y179929D01*
X416156Y179503D01*
X414451D01*
X416583Y182061D02*
X416156D01*
Y182488D01*
X416583D01*
Y182061D01*
Y185899D02*
Y184193D01*
X414877Y185899D01*
X414451D01*
X414024Y185472D01*
Y184620D01*
X414451Y184193D01*
X367665Y208129D02*
X366484D01*
Y208719D01*
X366681Y208916D01*
X367074D01*
X367271Y208719D01*
Y208129D01*
Y208522D02*
X367665Y208916D01*
Y209310D02*
Y209703D01*
Y209506D01*
X366484D01*
X366681Y209310D01*
Y210293D02*
X366484Y210490D01*
Y210884D01*
X366681Y211081D01*
X366877D01*
X367074Y210884D01*
X367271Y211081D01*
X367468D01*
X367665Y210884D01*
Y210490D01*
X367468Y210293D01*
X367271D01*
X367074Y210490D01*
X366877Y210293D01*
X366681D01*
X367074Y210490D02*
Y210884D01*
X367665Y211474D02*
X367468D01*
Y211671D01*
X367665D01*
Y211474D01*
Y213245D02*
Y212458D01*
X366877Y213245D01*
X366681D01*
X366484Y213048D01*
Y212655D01*
X366681Y212458D01*
X375197Y199213D02*
Y197245D01*
X374213D01*
X373885Y197573D01*
Y198229D01*
X374213Y198557D01*
X375197D01*
X374541D02*
X373885Y199213D01*
X373229D02*
X372573D01*
X372901D01*
Y197245D01*
X373229Y197573D01*
X371589Y197245D02*
X370277D01*
Y197573D01*
X371589Y198885D01*
Y199213D01*
X369621D02*
Y198885D01*
X369293D01*
Y199213D01*
X369621D01*
X366669D02*
X367981D01*
X366669Y197901D01*
Y197573D01*
X366997Y197245D01*
X367653D01*
X367981Y197573D01*
X362992Y223622D02*
Y225196D01*
X363779D01*
X364042Y224934D01*
Y224409D01*
X363779Y224147D01*
X362992D01*
X363517D02*
X364042Y223622D01*
X364566D02*
X365091D01*
X364829D01*
Y225196D01*
X364566Y224934D01*
X366928Y225196D02*
X366403Y224934D01*
X365878Y224409D01*
Y223884D01*
X366141Y223622D01*
X366666D01*
X366928Y223884D01*
Y224147D01*
X366666Y224409D01*
X365878D01*
X367453Y223622D02*
Y223884D01*
X367715D01*
Y223622D01*
X367453D01*
X369814D02*
X368764D01*
X369814Y224672D01*
Y224934D01*
X369552Y225196D01*
X369027D01*
X368764Y224934D01*
X454724Y254724D02*
Y257283D01*
X456004D01*
X456430Y256856D01*
Y256003D01*
X456004Y255577D01*
X454724D01*
X455577D02*
X456430Y254724D01*
X457283D02*
X458135D01*
X457709D01*
Y257283D01*
X457283Y256856D01*
X460694Y254724D02*
Y257283D01*
X459414Y256003D01*
X461120D01*
X461973Y254724D02*
Y255151D01*
X462399D01*
Y254724D01*
X461973D01*
X465810D02*
X464105D01*
X465810Y256430D01*
Y256856D01*
X465384Y257283D01*
X464531D01*
X464105Y256856D01*
X368347Y189921D02*
Y191889D01*
X369330D01*
X369658Y191561D01*
Y190905D01*
X369330Y190577D01*
X368347D01*
X369002D02*
X369658Y189921D01*
X370314D02*
X370970D01*
X370642D01*
Y191889D01*
X370314Y191561D01*
X371954D02*
X372282Y191889D01*
X372938D01*
X373266Y191561D01*
Y191233D01*
X372938Y190905D01*
X372610D01*
X372938D01*
X373266Y190577D01*
Y190249D01*
X372938Y189921D01*
X372282D01*
X371954Y190249D01*
X373922Y189921D02*
Y190249D01*
X374250D01*
Y189921D01*
X373922D01*
X376874D02*
X375562D01*
X376874Y191233D01*
Y191561D01*
X376546Y191889D01*
X375890D01*
X375562Y191561D01*
X458661Y230709D02*
X461220D01*
Y229430D01*
X460793Y229003D01*
X459940D01*
X459514Y229430D01*
Y230709D01*
Y229856D02*
X458661Y229003D01*
Y228150D02*
Y227298D01*
Y227724D01*
X461220D01*
X460793Y228150D01*
X458661Y226019D02*
Y225166D01*
Y225592D01*
X461220D01*
X460793Y226019D01*
X458661Y223887D02*
X459088D01*
Y223460D01*
X458661D01*
Y223887D01*
Y220049D02*
Y221755D01*
X460367Y220049D01*
X460793D01*
X461220Y220476D01*
Y221328D01*
X460793Y221755D01*
X458550Y273172D02*
X461108D01*
Y271893D01*
X460681Y271467D01*
X459829D01*
X459402Y271893D01*
Y273172D01*
Y272320D02*
X458550Y271467D01*
X458976Y270614D02*
X458550Y270188D01*
Y269335D01*
X458976Y268909D01*
X460681D01*
X461108Y269335D01*
Y270188D01*
X460681Y270614D01*
X460255D01*
X459829Y270188D01*
Y268909D01*
X458550Y268056D02*
X458976D01*
Y267630D01*
X458550D01*
Y268056D01*
Y264219D02*
Y265924D01*
X460255Y264219D01*
X460681D01*
X461108Y264645D01*
Y265498D01*
X460681Y265924D01*
X459050Y292172D02*
X461608D01*
Y290893D01*
X461181Y290467D01*
X460329D01*
X459902Y290893D01*
Y292172D01*
Y291320D02*
X459050Y290467D01*
X461181Y289614D02*
X461608Y289188D01*
Y288335D01*
X461181Y287909D01*
X460755D01*
X460329Y288335D01*
X459902Y287909D01*
X459476D01*
X459050Y288335D01*
Y289188D01*
X459476Y289614D01*
X459902D01*
X460329Y289188D01*
X460755Y289614D01*
X461181D01*
X460329Y289188D02*
Y288335D01*
X459050Y287056D02*
X459476D01*
Y286630D01*
X459050D01*
Y287056D01*
Y283219D02*
Y284924D01*
X460755Y283219D01*
X461181D01*
X461608Y283645D01*
Y284498D01*
X461181Y284924D01*
X459050Y311172D02*
X461608D01*
Y309893D01*
X461181Y309467D01*
X460329D01*
X459902Y309893D01*
Y311172D01*
Y310320D02*
X459050Y309467D01*
X461608Y308614D02*
Y306909D01*
X461181D01*
X459476Y308614D01*
X459050D01*
Y306056D02*
X459476D01*
Y305630D01*
X459050D01*
Y306056D01*
Y302219D02*
Y303924D01*
X460755Y302219D01*
X461181D01*
X461608Y302645D01*
Y303498D01*
X461181Y303924D01*
X459124Y329165D02*
X461683D01*
Y327885D01*
X461256Y327459D01*
X460403D01*
X459977Y327885D01*
Y329165D01*
Y328312D02*
X459124Y327459D01*
X461683Y324901D02*
X461256Y325754D01*
X460403Y326606D01*
X459551D01*
X459124Y326180D01*
Y325327D01*
X459551Y324901D01*
X459977D01*
X460403Y325327D01*
Y326606D01*
X459124Y324048D02*
X459551D01*
Y323622D01*
X459124D01*
Y324048D01*
Y320211D02*
Y321916D01*
X460830Y320211D01*
X461256D01*
X461683Y320637D01*
Y321490D01*
X461256Y321916D01*
X429990Y320044D02*
X427432D01*
Y321323D01*
X427859Y321750D01*
X428711D01*
X429138Y321323D01*
Y320044D01*
Y320897D02*
X429990Y321750D01*
X427432Y324308D02*
Y322602D01*
X428711D01*
X428285Y323455D01*
Y323881D01*
X428711Y324308D01*
X429564D01*
X429990Y323881D01*
Y323029D01*
X429564Y322602D01*
X429990Y325161D02*
X429564D01*
Y325587D01*
X429990D01*
Y325161D01*
Y328998D02*
Y327292D01*
X428285Y328998D01*
X427859D01*
X427432Y328572D01*
Y327719D01*
X427859Y327292D01*
X429597Y300753D02*
X427039D01*
Y302032D01*
X427465Y302458D01*
X428318D01*
X428744Y302032D01*
Y300753D01*
Y301606D02*
X429597Y302458D01*
Y304590D02*
X427039D01*
X428318Y303311D01*
Y305016D01*
X429597Y305869D02*
X429170D01*
Y306296D01*
X429597D01*
Y305869D01*
Y309707D02*
Y308001D01*
X427891Y309707D01*
X427465D01*
X427039Y309280D01*
Y308427D01*
X427465Y308001D01*
X429990Y282249D02*
X427432D01*
Y283528D01*
X427859Y283954D01*
X428711D01*
X429138Y283528D01*
Y282249D01*
Y283102D02*
X429990Y283954D01*
X427859Y284807D02*
X427432Y285233D01*
Y286086D01*
X427859Y286512D01*
X428285D01*
X428711Y286086D01*
Y285660D01*
Y286086D01*
X429138Y286512D01*
X429564D01*
X429990Y286086D01*
Y285233D01*
X429564Y284807D01*
X429990Y287365D02*
X429564D01*
Y287792D01*
X429990D01*
Y287365D01*
Y291203D02*
Y289497D01*
X428285Y291203D01*
X427859D01*
X427432Y290776D01*
Y289924D01*
X427859Y289497D01*
X429990Y263351D02*
X427432D01*
Y264630D01*
X427859Y265057D01*
X428711D01*
X429138Y264630D01*
Y263351D01*
Y264204D02*
X429990Y265057D01*
Y267615D02*
Y265909D01*
X428285Y267615D01*
X427859D01*
X427432Y267189D01*
Y266336D01*
X427859Y265909D01*
X429990Y268468D02*
X429564D01*
Y268894D01*
X429990D01*
Y268468D01*
Y272305D02*
Y270600D01*
X428285Y272305D01*
X427859D01*
X427432Y271879D01*
Y271026D01*
X427859Y270600D01*
X394882Y188583D02*
Y190157D01*
X395669D01*
X395931Y189895D01*
Y189370D01*
X395669Y189107D01*
X394882D01*
X395407D02*
X395931Y188583D01*
X396456D02*
X396981D01*
X396719D01*
Y190157D01*
X396456Y189895D01*
X397768Y188583D02*
Y188845D01*
X398030D01*
Y188583D01*
X397768D01*
X400130D02*
X399080D01*
X400130Y189632D01*
Y189895D01*
X399867Y190157D01*
X399342D01*
X399080Y189895D01*
X378613Y224768D02*
X381172D01*
Y226048D01*
X380745Y226474D01*
X379040D01*
X378613Y226048D01*
Y224768D01*
X379040Y227327D02*
X378613Y227753D01*
Y228606D01*
X379040Y229032D01*
X379466D01*
X379892Y228606D01*
X380319Y229032D01*
X380745D01*
X381172Y228606D01*
Y227753D01*
X380745Y227327D01*
X380319D01*
X379892Y227753D01*
X379466Y227327D01*
X379040D01*
X379892Y227753D02*
Y228606D01*
X381172Y229885D02*
X380745D01*
Y230311D01*
X381172D01*
Y229885D01*
Y233722D02*
Y232017D01*
X379466Y233722D01*
X379040D01*
X378613Y233296D01*
Y232443D01*
X379040Y232017D01*
X370472Y244881D02*
Y242520D01*
X371653D01*
X372047Y242913D01*
Y244488D01*
X371653Y244881D01*
X370472D01*
X372834D02*
X374408D01*
Y244488D01*
X372834Y242913D01*
Y242520D01*
X375195D02*
Y242913D01*
X375589D01*
Y242520D01*
X375195D01*
X378737D02*
X377163D01*
X378737Y244094D01*
Y244488D01*
X378344Y244881D01*
X377557D01*
X377163Y244488D01*
X454724Y253739D02*
Y251181D01*
X456004D01*
X456430Y251607D01*
Y253313D01*
X456004Y253739D01*
X454724D01*
X458562Y251181D02*
Y253739D01*
X457283Y252460D01*
X458988D01*
X459841Y251181D02*
Y251607D01*
X460267D01*
Y251181D01*
X459841D01*
X463678D02*
X461973D01*
X463678Y252887D01*
Y253313D01*
X463252Y253739D01*
X462399D01*
X461973Y253313D01*
X433282Y221857D02*
Y219889D01*
X434266D01*
X434594Y220217D01*
Y221529D01*
X434266Y221857D01*
X433282D01*
X435250Y221529D02*
X435578Y221857D01*
X436234D01*
X436562Y221529D01*
Y221201D01*
X436234Y220873D01*
X435906D01*
X436234D01*
X436562Y220545D01*
Y220217D01*
X436234Y219889D01*
X435578D01*
X435250Y220217D01*
X437218Y219889D02*
Y220217D01*
X437546D01*
Y219889D01*
X437218D01*
X440169D02*
X438858D01*
X440169Y221201D01*
Y221529D01*
X439841Y221857D01*
X439185D01*
X438858Y221529D01*
X426749Y232432D02*
Y230464D01*
X427733D01*
X428061Y230792D01*
Y232103D01*
X427733Y232432D01*
X426749D01*
X430029Y230464D02*
X428717D01*
X430029Y231775D01*
Y232103D01*
X429701Y232432D01*
X429045D01*
X428717Y232103D01*
X430685Y230464D02*
Y230792D01*
X431013D01*
Y230464D01*
X430685D01*
X433637D02*
X432325D01*
X433637Y231775D01*
Y232103D01*
X433309Y232432D01*
X432653D01*
X432325Y232103D01*
X429307Y228398D02*
X426749D01*
Y227119D01*
X427175Y226693D01*
X428881D01*
X429307Y227119D01*
Y228398D01*
X426749Y225840D02*
Y224987D01*
Y225413D01*
X429307D01*
X428881Y225840D01*
X426749Y223708D02*
X427175D01*
Y223282D01*
X426749D01*
Y223708D01*
Y219871D02*
Y221576D01*
X428454Y219871D01*
X428881D01*
X429307Y220297D01*
Y221150D01*
X428881Y221576D01*
X355512Y266929D02*
X352954D01*
Y268208D01*
X353380Y268635D01*
X354233D01*
X354659Y268208D01*
Y266929D01*
Y267782D02*
X355512Y268635D01*
X353380Y269487D02*
X352954Y269914D01*
Y270766D01*
X353380Y271193D01*
X353806D01*
X354233Y270766D01*
Y270340D01*
Y270766D01*
X354659Y271193D01*
X355085D01*
X355512Y270766D01*
Y269914D01*
X355085Y269487D01*
Y272046D02*
X355512Y272472D01*
Y273325D01*
X355085Y273751D01*
X353380D01*
X352954Y273325D01*
Y272472D01*
X353380Y272046D01*
X353806D01*
X354233Y272472D01*
Y273751D01*
X355512Y274604D02*
X355085D01*
Y275030D01*
X355512D01*
Y274604D01*
Y278441D02*
Y276736D01*
X353806Y278441D01*
X353380D01*
X352954Y278015D01*
Y277162D01*
X353380Y276736D01*
X348888Y290582D02*
X351446D01*
Y289303D01*
X351020Y288876D01*
X350167D01*
X349741Y289303D01*
Y290582D01*
Y289729D02*
X348888Y288876D01*
Y286744D02*
X351446D01*
X350167Y288024D01*
Y286318D01*
X351446Y283760D02*
Y285465D01*
X350167D01*
X350594Y284613D01*
Y284186D01*
X350167Y283760D01*
X349314D01*
X348888Y284186D01*
Y285039D01*
X349314Y285465D01*
X348888Y282907D02*
X349314D01*
Y282481D01*
X348888D01*
Y282907D01*
Y279070D02*
Y280775D01*
X350594Y279070D01*
X351020D01*
X351446Y279496D01*
Y280349D01*
X351020Y280775D01*
X457469Y271467D02*
X457895Y271893D01*
Y272746D01*
X457469Y273172D01*
X455763D01*
X455337Y272746D01*
Y271893D01*
X455763Y271467D01*
X455337Y270614D02*
Y269761D01*
Y270188D01*
X457895D01*
X457469Y270614D01*
X455337Y268482D02*
X455763D01*
Y268056D01*
X455337D01*
Y268482D01*
Y264645D02*
Y266351D01*
X457043Y264645D01*
X457469D01*
X457895Y265071D01*
Y265924D01*
X457469Y266351D01*
X457469Y290449D02*
X457895Y290875D01*
Y291728D01*
X457469Y292154D01*
X455763D01*
X455337Y291728D01*
Y290875D01*
X455763Y290449D01*
X455337Y287890D02*
Y289596D01*
X457043Y287890D01*
X457469D01*
X457895Y288317D01*
Y289170D01*
X457469Y289596D01*
X455337Y287038D02*
X455763D01*
Y286611D01*
X455337D01*
Y287038D01*
Y283200D02*
Y284906D01*
X457043Y283200D01*
X457469D01*
X457895Y283627D01*
Y284479D01*
X457469Y284906D01*
Y309467D02*
X457895Y309893D01*
Y310746D01*
X457469Y311172D01*
X455763D01*
X455337Y310746D01*
Y309893D01*
X455763Y309467D01*
X457469Y308614D02*
X457895Y308188D01*
Y307335D01*
X457469Y306909D01*
X457043D01*
X456616Y307335D01*
Y307762D01*
Y307335D01*
X456190Y306909D01*
X455763D01*
X455337Y307335D01*
Y308188D01*
X455763Y308614D01*
X455337Y306056D02*
X455763D01*
Y305630D01*
X455337D01*
Y306056D01*
Y302219D02*
Y303924D01*
X457043Y302219D01*
X457469D01*
X457895Y302645D01*
Y303498D01*
X457469Y303924D01*
X457969Y327467D02*
X458395Y327893D01*
Y328746D01*
X457969Y329172D01*
X456263D01*
X455837Y328746D01*
Y327893D01*
X456263Y327467D01*
X455837Y325335D02*
X458395D01*
X457116Y326614D01*
Y324909D01*
X455837Y324056D02*
X456263D01*
Y323630D01*
X455837D01*
Y324056D01*
Y320219D02*
Y321924D01*
X457543Y320219D01*
X457969D01*
X458395Y320645D01*
Y321498D01*
X457969Y321924D01*
X460793Y240027D02*
X461220Y240453D01*
Y241306D01*
X460793Y241732D01*
X459088D01*
X458661Y241306D01*
Y240453D01*
X459088Y240027D01*
X461220Y237469D02*
Y239174D01*
X459940D01*
X460367Y238321D01*
Y237895D01*
X459940Y237469D01*
X459088D01*
X458661Y237895D01*
Y238748D01*
X459088Y239174D01*
X458661Y236616D02*
X459088D01*
Y236189D01*
X458661D01*
Y236616D01*
Y232779D02*
Y234484D01*
X460367Y232779D01*
X460793D01*
X461220Y233205D01*
Y234058D01*
X460793Y234484D01*
X456430Y249770D02*
X456004Y250196D01*
X455151D01*
X454724Y249770D01*
Y248064D01*
X455151Y247638D01*
X456004D01*
X456430Y248064D01*
X458988Y250196D02*
X458135Y249770D01*
X457283Y248917D01*
Y248064D01*
X457709Y247638D01*
X458562D01*
X458988Y248064D01*
Y248491D01*
X458562Y248917D01*
X457283D01*
X459841Y247638D02*
Y248064D01*
X460267D01*
Y247638D01*
X459841D01*
X463678D02*
X461973D01*
X463678Y249343D01*
Y249770D01*
X463252Y250196D01*
X462399D01*
X461973Y249770D01*
X351320Y176902D02*
X350992Y176575D01*
Y175918D01*
X351320Y175591D01*
X352632D01*
X352960Y175918D01*
Y176575D01*
X352632Y176902D01*
X350992Y177558D02*
Y178870D01*
X351320D01*
X352632Y177558D01*
X352960D01*
Y179526D02*
X352632D01*
Y179854D01*
X352960D01*
Y179526D01*
Y182478D02*
Y181166D01*
X351648Y182478D01*
X351320D01*
X350992Y182150D01*
Y181494D01*
X351320Y181166D01*
X435368Y179658D02*
X435040Y179330D01*
Y178674D01*
X435368Y178347D01*
X436680D01*
X437008Y178674D01*
Y179330D01*
X436680Y179658D01*
X435368Y180314D02*
X435040Y180642D01*
Y181298D01*
X435368Y181626D01*
X435696D01*
X436024Y181298D01*
X436352Y181626D01*
X436680D01*
X437008Y181298D01*
Y180642D01*
X436680Y180314D01*
X436352D01*
X436024Y180642D01*
X435696Y180314D01*
X435368D01*
X436024Y180642D02*
Y181298D01*
X437008Y182282D02*
X436680D01*
Y182610D01*
X437008D01*
Y182282D01*
Y185234D02*
Y183922D01*
X435696Y185234D01*
X435368D01*
X435040Y184906D01*
Y184250D01*
X435368Y183922D01*
X410892Y226115D02*
X410630Y226377D01*
X410105D01*
X409842Y226115D01*
Y225065D01*
X410105Y224803D01*
X410630D01*
X410892Y225065D01*
X411417D02*
X411679Y224803D01*
X412204D01*
X412466Y225065D01*
Y226115D01*
X412204Y226377D01*
X411679D01*
X411417Y226115D01*
Y225853D01*
X411679Y225590D01*
X412466D01*
X412991Y224803D02*
Y225065D01*
X413253D01*
Y224803D01*
X412991D01*
X415352D02*
X414303D01*
X415352Y225853D01*
Y226115D01*
X415090Y226377D01*
X414565D01*
X414303Y226115D01*
X394619Y209580D02*
X394881Y209843D01*
Y210367D01*
X394619Y210630D01*
X393569D01*
X393307Y210367D01*
Y209843D01*
X393569Y209580D01*
X393307Y209056D02*
Y208531D01*
Y208793D01*
X394881D01*
X394619Y209056D01*
Y207744D02*
X394881Y207481D01*
Y206957D01*
X394619Y206694D01*
X393569D01*
X393307Y206957D01*
Y207481D01*
X393569Y207744D01*
X394619D01*
X393307Y206169D02*
X393569D01*
Y205907D01*
X393307D01*
Y206169D01*
Y203808D02*
Y204857D01*
X394357Y203808D01*
X394619D01*
X394881Y204070D01*
Y204595D01*
X394619Y204857D01*
X323359Y243077D02*
X322933Y243503D01*
X322080D01*
X321654Y243077D01*
Y241371D01*
X322080Y240945D01*
X322933D01*
X323359Y241371D01*
X324212Y240945D02*
X325064D01*
X324638D01*
Y243503D01*
X324212Y243077D01*
X326344Y240945D02*
X327196D01*
X326770D01*
Y243503D01*
X326344Y243077D01*
X328475Y240945D02*
Y241371D01*
X328902D01*
Y240945D01*
X328475D01*
X332313D02*
X330607D01*
X332313Y242650D01*
Y243077D01*
X331887Y243503D01*
X331034D01*
X330607Y243077D01*
X316470Y228871D02*
X316142Y228543D01*
Y227887D01*
X316470Y227559D01*
X317782D01*
X318110Y227887D01*
Y228543D01*
X317782Y228871D01*
X318110Y229527D02*
Y230183D01*
Y229855D01*
X316142D01*
X316470Y229527D01*
X318110Y232479D02*
Y231167D01*
X316798Y232479D01*
X316470D01*
X316142Y232151D01*
Y231495D01*
X316470Y231167D01*
X318110Y233135D02*
X317782D01*
Y233463D01*
X318110D01*
Y233135D01*
Y236087D02*
Y234775D01*
X316798Y236087D01*
X316470D01*
X316142Y235758D01*
Y235103D01*
X316470Y234775D01*
X323528Y197734D02*
X323102Y197308D01*
Y196455D01*
X323528Y196028D01*
X325233D01*
X325660Y196455D01*
Y197308D01*
X325233Y197734D01*
X325660Y198587D02*
Y199439D01*
Y199013D01*
X323102D01*
X323528Y198587D01*
Y200718D02*
X323102Y201145D01*
Y201998D01*
X323528Y202424D01*
X323954D01*
X324381Y201998D01*
Y201571D01*
Y201998D01*
X324807Y202424D01*
X325233D01*
X325660Y201998D01*
Y201145D01*
X325233Y200718D01*
X325660Y203277D02*
X325233D01*
Y203703D01*
X325660D01*
Y203277D01*
Y207114D02*
Y205409D01*
X323954Y207114D01*
X323528D01*
X323102Y206688D01*
Y205835D01*
X323528Y205409D01*
X386552Y244190D02*
X386224Y244518D01*
X385568D01*
X385240Y244190D01*
Y242878D01*
X385568Y242550D01*
X386224D01*
X386552Y242878D01*
X387208Y242550D02*
X387864D01*
X387536D01*
Y244518D01*
X387208Y244190D01*
X389832Y242550D02*
Y244518D01*
X388848Y243534D01*
X390160D01*
X390816Y242550D02*
Y242878D01*
X391144D01*
Y242550D01*
X390816D01*
X393767D02*
X392456D01*
X393767Y243862D01*
Y244190D01*
X393440Y244518D01*
X392784D01*
X392456Y244190D01*
X315683Y216272D02*
X315355Y215945D01*
Y215289D01*
X315683Y214961D01*
X316995D01*
X317323Y215289D01*
Y215945D01*
X316995Y216272D01*
X317323Y216929D02*
Y217584D01*
Y217256D01*
X315355D01*
X315683Y216929D01*
X315355Y219880D02*
Y218568D01*
X316339D01*
X316011Y219224D01*
Y219552D01*
X316339Y219880D01*
X316995D01*
X317323Y219552D01*
Y218896D01*
X316995Y218568D01*
X317323Y220536D02*
X316995D01*
Y220864D01*
X317323D01*
Y220536D01*
Y223488D02*
Y222176D01*
X316011Y223488D01*
X315683D01*
X315355Y223160D01*
Y222504D01*
X315683Y222176D01*
X447033Y200292D02*
X447361Y199964D01*
X448017D01*
X448345Y200292D01*
Y201604D01*
X448017Y201932D01*
X447361D01*
X447033Y201604D01*
X446377Y201932D02*
X445721D01*
X446049D01*
Y199964D01*
X446377Y200292D01*
X443425Y199964D02*
X444081Y200292D01*
X444737Y200948D01*
Y201604D01*
X444409Y201932D01*
X443753D01*
X443425Y201604D01*
Y201275D01*
X443753Y200948D01*
X444737D01*
X442769Y201932D02*
Y201604D01*
X442441D01*
Y201932D01*
X442769D01*
X439817D02*
X441129D01*
X439817Y200620D01*
Y200292D01*
X440145Y199964D01*
X440801D01*
X441129Y200292D01*
X413255Y117553D02*
X413682Y117127D01*
X414534D01*
X414961Y117553D01*
Y119259D01*
X414534Y119685D01*
X413682D01*
X413255Y119259D01*
X412402Y119685D02*
X411550D01*
X411976D01*
Y117127D01*
X412402Y117553D01*
X410271Y117127D02*
X408565D01*
Y117553D01*
X410271Y119259D01*
Y119685D01*
X407712D02*
Y119259D01*
X407286D01*
Y119685D01*
X407712D01*
X403875D02*
X405581D01*
X403875Y117980D01*
Y117553D01*
X404301Y117127D01*
X405154D01*
X405581Y117553D01*
X393964Y151510D02*
X394292Y151182D01*
X394948D01*
X395276Y151510D01*
Y152822D01*
X394948Y153150D01*
X394292D01*
X393964Y152822D01*
X393308Y153150D02*
X392652D01*
X392980D01*
Y151182D01*
X393308Y151510D01*
X391668D02*
X391340Y151182D01*
X390684D01*
X390356Y151510D01*
Y151838D01*
X390684Y152166D01*
X390356Y152494D01*
Y152822D01*
X390684Y153150D01*
X391340D01*
X391668Y152822D01*
Y152494D01*
X391340Y152166D01*
X391668Y151838D01*
Y151510D01*
X391340Y152166D02*
X390684D01*
X389700Y153150D02*
Y152822D01*
X389372D01*
Y153150D01*
X389700D01*
X386748D02*
X388060D01*
X386748Y151838D01*
Y151510D01*
X387076Y151182D01*
X387732D01*
X388060Y151510D01*
X295406Y226468D02*
X295078Y226140D01*
Y225484D01*
X295406Y225156D01*
X296718D01*
X297046Y225484D01*
Y226140D01*
X296718Y226468D01*
X297046Y227124D02*
Y227780D01*
Y227452D01*
X295078D01*
X295406Y227124D01*
X296718Y228764D02*
X297046Y229092D01*
Y229748D01*
X296718Y230076D01*
X295406D01*
X295078Y229748D01*
Y229092D01*
X295406Y228764D01*
X295734D01*
X296062Y229092D01*
Y230076D01*
X297046Y230732D02*
X296718D01*
Y231060D01*
X297046D01*
Y230732D01*
Y233683D02*
Y232371D01*
X295734Y233683D01*
X295406D01*
X295078Y233355D01*
Y232699D01*
X295406Y232371D01*
X426115Y157939D02*
X425787Y158267D01*
X425131D01*
X424803Y157939D01*
Y156627D01*
X425131Y156299D01*
X425787D01*
X426115Y156627D01*
X428083Y156299D02*
X426771D01*
X428083Y157611D01*
Y157939D01*
X427755Y158267D01*
X427099D01*
X426771Y157939D01*
X428739D02*
X429067Y158267D01*
X429723D01*
X430051Y157939D01*
Y156627D01*
X429723Y156299D01*
X429067D01*
X428739Y156627D01*
Y157939D01*
X430707Y156299D02*
Y156627D01*
X431035D01*
Y156299D01*
X430707D01*
X433659D02*
X432347D01*
X433659Y157611D01*
Y157939D01*
X433331Y158267D01*
X432675D01*
X432347Y157939D01*
X316470Y206036D02*
X316142Y205708D01*
Y205052D01*
X316470Y204724D01*
X317782D01*
X318110Y205052D01*
Y205708D01*
X317782Y206036D01*
X318110Y208004D02*
Y206692D01*
X316798Y208004D01*
X316470D01*
X316142Y207676D01*
Y207020D01*
X316470Y206692D01*
X318110Y208660D02*
Y209316D01*
Y208988D01*
X316142D01*
X316470Y208660D01*
X318110Y210300D02*
X317782D01*
Y210628D01*
X318110D01*
Y210300D01*
Y213252D02*
Y211940D01*
X316798Y213252D01*
X316470D01*
X316142Y212924D01*
Y212268D01*
X316470Y211940D01*
X460469Y210136D02*
X460895Y210563D01*
Y211415D01*
X460469Y211842D01*
X458763D01*
X458337Y211415D01*
Y210563D01*
X458763Y210136D01*
X458337Y207578D02*
Y209283D01*
X460042Y207578D01*
X460469D01*
X460895Y208004D01*
Y208857D01*
X460469Y209283D01*
X458337Y205020D02*
Y206725D01*
X460042Y205020D01*
X460469D01*
X460895Y205446D01*
Y206299D01*
X460469Y206725D01*
X458337Y204167D02*
X458763D01*
Y203741D01*
X458337D01*
Y204167D01*
Y200330D02*
Y202035D01*
X460042Y200330D01*
X460469D01*
X460895Y200756D01*
Y201609D01*
X460469Y202035D01*
X328679Y110497D02*
X329105Y110071D01*
X329958D01*
X330384Y110497D01*
Y112203D01*
X329958Y112629D01*
X329105D01*
X328679Y112203D01*
X326120Y112629D02*
X327826D01*
X326120Y110924D01*
Y110497D01*
X326547Y110071D01*
X327400D01*
X327826Y110497D01*
X325268D02*
X324841Y110071D01*
X323989D01*
X323562Y110497D01*
Y110924D01*
X323989Y111350D01*
X324415D01*
X323989D01*
X323562Y111776D01*
Y112203D01*
X323989Y112629D01*
X324841D01*
X325268Y112203D01*
X322709Y112629D02*
Y112203D01*
X322283D01*
Y112629D01*
X322709D01*
X318872D02*
X320578D01*
X318872Y110924D01*
Y110497D01*
X319299Y110071D01*
X320151D01*
X320578Y110497D01*
X260467Y157217D02*
X260040Y156791D01*
Y155938D01*
X260467Y155512D01*
X262172D01*
X262598Y155938D01*
Y156791D01*
X262172Y157217D01*
X262598Y159775D02*
Y158070D01*
X260893Y159775D01*
X260467D01*
X260040Y159349D01*
Y158496D01*
X260467Y158070D01*
X262598Y161907D02*
X260040D01*
X261319Y160628D01*
Y162334D01*
X262598Y163187D02*
X262172D01*
Y163613D01*
X262598D01*
Y163187D01*
Y167024D02*
Y165318D01*
X260893Y167024D01*
X260467D01*
X260040Y166597D01*
Y165745D01*
X260467Y165318D01*
X346789Y140025D02*
X347215Y139599D01*
X348068D01*
X348495Y140025D01*
Y141730D01*
X348068Y142157D01*
X347215D01*
X346789Y141730D01*
X344231Y142157D02*
X345936D01*
X344231Y140451D01*
Y140025D01*
X344657Y139599D01*
X345510D01*
X345936Y140025D01*
X341672Y139599D02*
X343378D01*
Y140878D01*
X342525Y140451D01*
X342099D01*
X341672Y140878D01*
Y141730D01*
X342099Y142157D01*
X342952D01*
X343378Y141730D01*
X340820Y142157D02*
Y141730D01*
X340393D01*
Y142157D01*
X340820D01*
X336982D02*
X338688D01*
X336982Y140451D01*
Y140025D01*
X337409Y139599D01*
X338262D01*
X338688Y140025D01*
X333989Y366699D02*
X333563Y367125D01*
X332710D01*
X332283Y366699D01*
Y364993D01*
X332710Y364567D01*
X333563D01*
X333989Y364993D01*
X334842Y366699D02*
X335268Y367125D01*
X336121D01*
X336547Y366699D01*
Y366272D01*
X336121Y365846D01*
X335694D01*
X336121D01*
X336547Y365420D01*
Y364993D01*
X336121Y364567D01*
X335268D01*
X334842Y364993D01*
X337400Y366699D02*
X337826Y367125D01*
X338679D01*
X339105Y366699D01*
Y364993D01*
X338679Y364567D01*
X337826D01*
X337400Y364993D01*
Y366699D01*
X339958Y364567D02*
Y364993D01*
X340385D01*
Y364567D01*
X339958D01*
X343795D02*
X342090D01*
X343795Y366272D01*
Y366699D01*
X343369Y367125D01*
X342516D01*
X342090Y366699D01*
X271523Y142848D02*
X271851Y142520D01*
X272507D01*
X272835Y142848D01*
Y144160D01*
X272507Y144488D01*
X271851D01*
X271523Y144160D01*
X270867Y144488D02*
X270211D01*
X270539D01*
Y143176D01*
X270867D01*
X269227Y144488D02*
Y143176D01*
X268243D01*
X267915Y143504D01*
Y144488D01*
X267259D02*
X266603D01*
X266931D01*
Y142520D01*
X267259Y142848D01*
X265619Y144488D02*
Y144160D01*
X265291D01*
Y144488D01*
X265619D01*
X262667D02*
X263979D01*
X262667Y143176D01*
Y142848D01*
X262995Y142520D01*
X263651D01*
X263979Y142848D01*
X269032Y193501D02*
X268606Y193928D01*
X267753D01*
X267327Y193501D01*
Y191796D01*
X267753Y191369D01*
X268606D01*
X269032Y191796D01*
X269885Y191369D02*
X270738D01*
X270311D01*
Y193075D01*
X269885D01*
X272017Y191369D02*
Y193075D01*
X273296D01*
X273722Y192648D01*
Y191369D01*
X276281D02*
X274575D01*
X276281Y193075D01*
Y193501D01*
X275854Y193928D01*
X275001D01*
X274575Y193501D01*
X277133Y191369D02*
Y191796D01*
X277560D01*
Y191369D01*
X277133D01*
X280971D02*
X279265D01*
X280971Y193075D01*
Y193501D01*
X280544Y193928D01*
X279692D01*
X279265Y193501D01*
X351575Y197637D02*
Y195669D01*
X352559D01*
X352887Y195997D01*
Y197309D01*
X352559Y197637D01*
X351575D01*
X354855D02*
X353543D01*
Y196653D01*
X354199Y196981D01*
X354527D01*
X354855Y196653D01*
Y195997D01*
X354527Y195669D01*
X353871D01*
X353543Y195997D01*
X355510Y195669D02*
Y195997D01*
X355838D01*
Y195669D01*
X355510D01*
X358462D02*
X357150D01*
X358462Y196981D01*
Y197309D01*
X358134Y197637D01*
X357478D01*
X357150Y197309D01*
X460501Y183102D02*
X457943D01*
Y181823D01*
X458370Y181396D01*
X460075D01*
X460501Y181823D01*
Y183102D01*
Y178838D02*
X460075Y179691D01*
X459222Y180543D01*
X458370D01*
X457943Y180117D01*
Y179264D01*
X458370Y178838D01*
X458796D01*
X459222Y179264D01*
Y180543D01*
X457943Y177985D02*
X458370D01*
Y177559D01*
X457943D01*
Y177985D01*
Y174148D02*
Y175853D01*
X459649Y174148D01*
X460075D01*
X460501Y174574D01*
Y175427D01*
X460075Y175853D01*
X285117Y224880D02*
X287676D01*
Y226159D01*
X287249Y226586D01*
X285544D01*
X285117Y226159D01*
Y224880D01*
X287249Y227438D02*
X287676Y227865D01*
Y228718D01*
X287249Y229144D01*
X285544D01*
X285117Y228718D01*
Y227865D01*
X285544Y227438D01*
X285970D01*
X286396Y227865D01*
Y229144D01*
X287676Y229997D02*
X287249D01*
Y230423D01*
X287676D01*
Y229997D01*
Y233834D02*
Y232129D01*
X285970Y233834D01*
X285544D01*
X285117Y233408D01*
Y232555D01*
X285544Y232129D01*
X305865Y225038D02*
X307833D01*
Y226022D01*
X307505Y226350D01*
X306193D01*
X305865Y226022D01*
Y225038D01*
X307833Y227006D02*
Y227662D01*
Y227334D01*
X305865D01*
X306193Y227006D01*
Y228646D02*
X305865Y228974D01*
Y229629D01*
X306193Y229958D01*
X307505D01*
X307833Y229629D01*
Y228974D01*
X307505Y228646D01*
X306193D01*
X307833Y230613D02*
X307505D01*
Y230941D01*
X307833D01*
Y230613D01*
Y233565D02*
Y232253D01*
X306521Y233565D01*
X306193D01*
X305865Y233237D01*
Y232581D01*
X306193Y232253D01*
X365550Y356693D02*
X362992D01*
Y355414D01*
X363419Y354987D01*
X365124D01*
X365550Y355414D01*
Y356693D01*
X362992Y354135D02*
Y353282D01*
Y353708D01*
X365550D01*
X365124Y354135D01*
X362992Y350297D02*
Y352003D01*
X364698Y350297D01*
X365124D01*
X365550Y350724D01*
Y351576D01*
X365124Y352003D01*
X362992Y349445D02*
X363419D01*
Y349018D01*
X362992D01*
Y349445D01*
Y345607D02*
Y347313D01*
X364698Y345607D01*
X365124D01*
X365550Y346034D01*
Y346886D01*
X365124Y347313D01*
X445545Y354066D02*
X442987D01*
Y352787D01*
X443413Y352361D01*
X445118D01*
X445545Y352787D01*
Y354066D01*
X442987Y351508D02*
Y350655D01*
Y351081D01*
X445545D01*
X445118Y351508D01*
Y349376D02*
X445545Y348950D01*
Y348097D01*
X445118Y347671D01*
X444692D01*
X444266Y348097D01*
Y348523D01*
Y348097D01*
X443839Y347671D01*
X443413D01*
X442987Y348097D01*
Y348950D01*
X443413Y349376D01*
X442987Y346818D02*
X443413D01*
Y346391D01*
X442987D01*
Y346818D01*
Y342981D02*
Y344686D01*
X444692Y342981D01*
X445118D01*
X445545Y343407D01*
Y344260D01*
X445118Y344686D01*
X371129Y156759D02*
Y155447D01*
X371457Y155119D01*
X372113D01*
X372441Y155447D01*
Y156759D01*
X372113Y157087D01*
X371457D01*
X371785Y156431D02*
X371129Y157087D01*
X371457D02*
X371129Y156759D01*
X370473Y157087D02*
X369817D01*
X370145D01*
Y155119D01*
X370473Y155447D01*
X368833Y157087D02*
Y156759D01*
X368505D01*
Y157087D01*
X368833D01*
X365881D02*
X367193D01*
X365881Y155775D01*
Y155447D01*
X366209Y155119D01*
X366865D01*
X367193Y155447D01*
X392060Y178609D02*
X393372D01*
X393700Y178937D01*
Y179593D01*
X393372Y179921D01*
X392060D01*
X391732Y179593D01*
Y178937D01*
X392388Y179265D02*
X391732Y178609D01*
Y178937D02*
X392060Y178609D01*
X391732Y176641D02*
Y177953D01*
X393044Y176641D01*
X393372D01*
X393700Y176970D01*
Y177625D01*
X393372Y177953D01*
X391732Y175986D02*
X392060D01*
Y175658D01*
X391732D01*
Y175986D01*
Y173034D02*
Y174346D01*
X393044Y173034D01*
X393372D01*
X393700Y173362D01*
Y174018D01*
X393372Y174346D01*
X315420Y116272D02*
X314108D01*
X313780Y115945D01*
Y115289D01*
X314108Y114961D01*
X315420D01*
X315748Y115289D01*
Y115945D01*
X315092Y115617D02*
X315748Y116272D01*
Y115945D02*
X315420Y116272D01*
X314108Y116929D02*
X313780Y117256D01*
Y117912D01*
X314108Y118240D01*
X314436D01*
X314764Y117912D01*
Y117584D01*
Y117912D01*
X315092Y118240D01*
X315420D01*
X315748Y117912D01*
Y117256D01*
X315420Y116929D01*
X315748Y118896D02*
X315420D01*
Y119224D01*
X315748D01*
Y118896D01*
Y121848D02*
Y120536D01*
X314436Y121848D01*
X314108D01*
X313780Y121520D01*
Y120864D01*
X314108Y120536D01*
X274279Y120932D02*
Y119620D01*
X274607Y119292D01*
X275263D01*
X275590Y119620D01*
Y120932D01*
X275263Y121260D01*
X274607D01*
X274935Y120604D02*
X274279Y121260D01*
X274607D02*
X274279Y120932D01*
X272639Y121260D02*
Y119292D01*
X273623Y120276D01*
X272311D01*
X271655Y121260D02*
Y120932D01*
X271327D01*
Y121260D01*
X271655D01*
X268703D02*
X270015D01*
X268703Y119948D01*
Y119620D01*
X269031Y119292D01*
X269687D01*
X270015Y119620D01*
X382283Y153937D02*
Y151969D01*
X381299D01*
X380972Y152297D01*
Y152953D01*
X381299Y153281D01*
X382283D01*
X381627D02*
X380972Y153937D01*
X380316D02*
X379660D01*
X379988D01*
Y151969D01*
X380316Y152297D01*
X378676D02*
X378348Y151969D01*
X377692D01*
X377364Y152297D01*
Y153609D01*
X377692Y153937D01*
X378348D01*
X378676Y153609D01*
Y152297D01*
X376708Y153937D02*
Y153609D01*
X376380D01*
Y153937D01*
X376708D01*
X373756D02*
X375068D01*
X373756Y152625D01*
Y152297D01*
X374084Y151969D01*
X374740D01*
X375068Y152297D01*
X359055Y189921D02*
Y191889D01*
X360039D01*
X360367Y191561D01*
Y190905D01*
X360039Y190577D01*
X359055D01*
X359711D02*
X360367Y189921D01*
X361023D02*
X361679D01*
X361351D01*
Y191889D01*
X361023Y191561D01*
X363975Y191889D02*
X362663D01*
Y190905D01*
X363319Y191233D01*
X363647D01*
X363975Y190905D01*
Y190249D01*
X363647Y189921D01*
X362991D01*
X362663Y190249D01*
X364631Y189921D02*
Y190249D01*
X364959D01*
Y189921D01*
X364631D01*
X367583D02*
X366271D01*
X367583Y191233D01*
Y191561D01*
X367255Y191889D01*
X366599D01*
X366271Y191561D01*
X456762Y196487D02*
X459320D01*
Y195208D01*
X458894Y194782D01*
X458041D01*
X457615Y195208D01*
Y196487D01*
Y195635D02*
X456762Y194782D01*
Y193929D02*
Y193076D01*
Y193503D01*
X459320D01*
X458894Y193929D01*
X457189Y191797D02*
X456762Y191371D01*
Y190518D01*
X457189Y190092D01*
X458894D01*
X459320Y190518D01*
Y191371D01*
X458894Y191797D01*
X458468D01*
X458041Y191371D01*
Y190092D01*
X456762Y189239D02*
X457189D01*
Y188813D01*
X456762D01*
Y189239D01*
Y185402D02*
Y187107D01*
X458468Y185402D01*
X458894D01*
X459320Y185828D01*
Y186681D01*
X458894Y187107D01*
X453613Y158298D02*
Y155740D01*
X452333D01*
X451907Y156167D01*
Y157019D01*
X452333Y157446D01*
X453613D01*
X452760D02*
X451907Y158298D01*
X449349D02*
X451054D01*
X449349Y156593D01*
Y156167D01*
X449775Y155740D01*
X450628D01*
X451054Y156167D01*
X446791Y158298D02*
X448496D01*
X446791Y156593D01*
Y156167D01*
X447217Y155740D01*
X448070D01*
X448496Y156167D01*
X445938Y158298D02*
Y157872D01*
X445511D01*
Y158298D01*
X445938D01*
X442100D02*
X443806D01*
X442100Y156593D01*
Y156167D01*
X442527Y155740D01*
X443380D01*
X443806Y156167D01*
X453613Y131921D02*
X456171D01*
Y130641D01*
X455744Y130215D01*
X454892D01*
X454465Y130641D01*
Y131921D01*
Y131068D02*
X453613Y130215D01*
Y127657D02*
Y129362D01*
X455318Y127657D01*
X455744D01*
X456171Y128083D01*
Y128936D01*
X455744Y129362D01*
X453613Y125525D02*
X456171D01*
X454892Y126804D01*
Y125099D01*
X453613Y124246D02*
X454039D01*
Y123819D01*
X453613D01*
Y124246D01*
Y120408D02*
Y122114D01*
X455318Y120408D01*
X455744D01*
X456171Y120835D01*
Y121688D01*
X455744Y122114D01*
X435109Y120438D02*
X432550D01*
Y121717D01*
X432977Y122143D01*
X433829D01*
X434256Y121717D01*
Y120438D01*
Y121291D02*
X435109Y122143D01*
Y124701D02*
Y122996D01*
X433403Y124701D01*
X432977D01*
X432550Y124275D01*
Y123422D01*
X432977Y122996D01*
X432550Y127260D02*
Y125554D01*
X433829D01*
X433403Y126407D01*
Y126833D01*
X433829Y127260D01*
X434682D01*
X435109Y126833D01*
Y125981D01*
X434682Y125554D01*
X435109Y128112D02*
X434682D01*
Y128539D01*
X435109D01*
Y128112D01*
Y131950D02*
Y130244D01*
X433403Y131950D01*
X432977D01*
X432550Y131524D01*
Y130671D01*
X432977Y130244D01*
X345739Y126409D02*
Y123850D01*
X344459D01*
X344033Y124277D01*
Y125129D01*
X344459Y125556D01*
X345739D01*
X344886D02*
X344033Y126409D01*
X341475D02*
X343180D01*
X341475Y124703D01*
Y124277D01*
X341901Y123850D01*
X342754D01*
X343180Y124277D01*
X338917Y123850D02*
X339769Y124277D01*
X340622Y125129D01*
Y125982D01*
X340196Y126409D01*
X339343D01*
X338917Y125982D01*
Y125556D01*
X339343Y125129D01*
X340622D01*
X338064Y126409D02*
Y125982D01*
X337637D01*
Y126409D01*
X338064D01*
X334226D02*
X335932D01*
X334226Y124703D01*
Y124277D01*
X334653Y123850D01*
X335506D01*
X335932Y124277D01*
X348888Y150424D02*
Y147866D01*
X347609D01*
X347183Y148293D01*
Y149145D01*
X347609Y149572D01*
X348888D01*
X348035D02*
X347183Y150424D01*
X344624D02*
X346330D01*
X344624Y148719D01*
Y148293D01*
X345051Y147866D01*
X345904D01*
X346330Y148293D01*
X343772Y147866D02*
X342066D01*
Y148293D01*
X343772Y149998D01*
Y150424D01*
X341213D02*
Y149998D01*
X340787D01*
Y150424D01*
X341213D01*
X337376D02*
X339082D01*
X337376Y148719D01*
Y148293D01*
X337803Y147866D01*
X338655D01*
X339082Y148293D01*
X256693Y172047D02*
Y174015D01*
X257677D01*
X258005Y173687D01*
Y173031D01*
X257677Y172703D01*
X256693D01*
X257349D02*
X258005Y172047D01*
X259973D02*
X258661D01*
X259973Y173359D01*
Y173687D01*
X259645Y174015D01*
X258989D01*
X258661Y173687D01*
X260629D02*
X260957Y174015D01*
X261613D01*
X261941Y173687D01*
Y173359D01*
X261613Y173031D01*
X261941Y172703D01*
Y172375D01*
X261613Y172047D01*
X260957D01*
X260629Y172375D01*
Y172703D01*
X260957Y173031D01*
X260629Y173359D01*
Y173687D01*
X260957Y173031D02*
X261613D01*
X262597Y172047D02*
Y172375D01*
X262925D01*
Y172047D01*
X262597D01*
X265548D02*
X264236D01*
X265548Y173359D01*
Y173687D01*
X265220Y174015D01*
X264564D01*
X264236Y173687D01*
X258661Y176772D02*
Y178740D01*
X259645D01*
X259973Y178411D01*
Y177756D01*
X259645Y177428D01*
X258661D01*
X259317D02*
X259973Y176772D01*
X261941D02*
X260629D01*
X261941Y178084D01*
Y178411D01*
X261613Y178740D01*
X260957D01*
X260629Y178411D01*
X262597Y177100D02*
X262925Y176772D01*
X263581D01*
X263909Y177100D01*
Y178411D01*
X263581Y178740D01*
X262925D01*
X262597Y178411D01*
Y178084D01*
X262925Y177756D01*
X263909D01*
X264565Y176772D02*
Y177100D01*
X264893D01*
Y176772D01*
X264565D01*
X267517D02*
X266205D01*
X267517Y178084D01*
Y178411D01*
X267189Y178740D01*
X266533D01*
X266205Y178411D01*
X344882Y137402D02*
Y135434D01*
X343898D01*
X343570Y135762D01*
Y136418D01*
X343898Y136746D01*
X344882D01*
X344226D02*
X343570Y137402D01*
X342914Y135762D02*
X342586Y135434D01*
X341930D01*
X341602Y135762D01*
Y136090D01*
X341930Y136418D01*
X342258D01*
X341930D01*
X341602Y136746D01*
Y137074D01*
X341930Y137402D01*
X342586D01*
X342914Y137074D01*
X340946Y135762D02*
X340618Y135434D01*
X339962D01*
X339634Y135762D01*
Y137074D01*
X339962Y137402D01*
X340618D01*
X340946Y137074D01*
Y135762D01*
X338978Y137402D02*
Y137074D01*
X338650D01*
Y137402D01*
X338978D01*
X336027D02*
X337338D01*
X336027Y136090D01*
Y135762D01*
X336354Y135434D01*
X337010D01*
X337338Y135762D01*
X294951Y118535D02*
Y115976D01*
X293672D01*
X293246Y116403D01*
Y117255D01*
X293672Y117682D01*
X294951D01*
X294098D02*
X293246Y118535D01*
X292393Y116403D02*
X291967Y115976D01*
X291114D01*
X290687Y116403D01*
Y116829D01*
X291114Y117255D01*
X291540D01*
X291114D01*
X290687Y117682D01*
Y118108D01*
X291114Y118535D01*
X291967D01*
X292393Y118108D01*
X289835Y118535D02*
X288982D01*
X289408D01*
Y115976D01*
X289835Y116403D01*
X287703Y118535D02*
Y118108D01*
X287277D01*
Y118535D01*
X287703D01*
X283865D02*
X285571D01*
X283865Y116829D01*
Y116403D01*
X284292Y115976D01*
X285145D01*
X285571Y116403D01*
X354487Y335066D02*
Y332508D01*
X353207D01*
X352781Y332934D01*
Y333787D01*
X353207Y334213D01*
X354487D01*
X353634D02*
X352781Y335066D01*
X351928Y332934D02*
X351502Y332508D01*
X350649D01*
X350223Y332934D01*
Y333361D01*
X350649Y333787D01*
X351076D01*
X350649D01*
X350223Y334213D01*
Y334640D01*
X350649Y335066D01*
X351502D01*
X351928Y334640D01*
X349370Y332934D02*
X348944Y332508D01*
X348091D01*
X347665Y332934D01*
Y333361D01*
X348091Y333787D01*
X347665Y334213D01*
Y334640D01*
X348091Y335066D01*
X348944D01*
X349370Y334640D01*
Y334213D01*
X348944Y333787D01*
X349370Y333361D01*
Y332934D01*
X348944Y333787D02*
X348091D01*
X346812Y335066D02*
Y334640D01*
X346386D01*
Y335066D01*
X346812D01*
X342974D02*
X344680D01*
X342974Y333361D01*
Y332934D01*
X343401Y332508D01*
X344254D01*
X344680Y332934D01*
X333634Y380581D02*
X336192D01*
Y379302D01*
X335766Y378876D01*
X334913D01*
X334487Y379302D01*
Y380581D01*
Y379728D02*
X333634Y378876D01*
Y376744D02*
X336192D01*
X334913Y378023D01*
Y376317D01*
X333634Y375465D02*
Y374612D01*
Y375038D01*
X336192D01*
X335766Y375465D01*
X333634Y373333D02*
X334060D01*
Y372906D01*
X333634D01*
Y373333D01*
Y369495D02*
Y371201D01*
X335339Y369495D01*
X335766D01*
X336192Y369922D01*
Y370775D01*
X335766Y371201D01*
X434646Y335433D02*
Y337401D01*
X435630D01*
X435958Y337073D01*
Y336417D01*
X435630Y336089D01*
X434646D01*
X435302D02*
X435958Y335433D01*
X437598D02*
Y337401D01*
X436614Y336417D01*
X437925D01*
X439893Y335433D02*
X438581D01*
X439893Y336745D01*
Y337073D01*
X439565Y337401D01*
X438909D01*
X438581Y337073D01*
X440549Y335433D02*
Y335761D01*
X440877D01*
Y335433D01*
X440549D01*
X443501D02*
X442189D01*
X443501Y336745D01*
Y337073D01*
X443173Y337401D01*
X442517D01*
X442189Y337073D01*
X433508Y364779D02*
Y367337D01*
X434787D01*
X435213Y366911D01*
Y366058D01*
X434787Y365632D01*
X433508D01*
X434361D02*
X435213Y364779D01*
X437345D02*
Y367337D01*
X436066Y366058D01*
X437772D01*
X438624Y366911D02*
X439051Y367337D01*
X439903D01*
X440330Y366911D01*
Y366484D01*
X439903Y366058D01*
X439477D01*
X439903D01*
X440330Y365632D01*
Y365205D01*
X439903Y364779D01*
X439051D01*
X438624Y365205D01*
X441183Y364779D02*
Y365205D01*
X441609D01*
Y364779D01*
X441183D01*
X445020D02*
X443314D01*
X445020Y366484D01*
Y366911D01*
X444593Y367337D01*
X443741D01*
X443314Y366911D01*
X282875Y191339D02*
Y193044D01*
Y192191D01*
X285433D01*
Y193897D02*
Y194749D01*
Y194323D01*
X282875D01*
X283301Y193897D01*
X285433Y196029D02*
X285007D01*
Y196455D01*
X285433D01*
Y196029D01*
Y199866D02*
Y198161D01*
X283728Y199866D01*
X283301D01*
X282875Y199440D01*
Y198587D01*
X283301Y198161D01*
X415748Y187402D02*
Y189042D01*
X415420Y189370D01*
X414764D01*
X414436Y189042D01*
Y187402D01*
X413780Y189370D02*
X413124D01*
X413452D01*
Y187402D01*
X413780Y187730D01*
X412140Y189370D02*
Y189042D01*
X411812D01*
Y189370D01*
X412140D01*
X409189D02*
X410500D01*
X409189Y188058D01*
Y187730D01*
X409516Y187402D01*
X410172D01*
X410500Y187730D01*
X445669Y167717D02*
Y169357D01*
X445341Y169685D01*
X444685D01*
X444357Y169357D01*
Y167717D01*
X442389Y169685D02*
X443701D01*
X442389Y168373D01*
Y168045D01*
X442718Y167717D01*
X443373D01*
X443701Y168045D01*
X441734Y169685D02*
Y169357D01*
X441406D01*
Y169685D01*
X441734D01*
X438782D02*
X440094D01*
X438782Y168373D01*
Y168045D01*
X439110Y167717D01*
X439766D01*
X440094Y168045D01*
X281172Y336449D02*
Y338581D01*
X280745Y339007D01*
X279892D01*
X279466Y338581D01*
Y336449D01*
X278613Y336875D02*
X278187Y336449D01*
X277334D01*
X276908Y336875D01*
Y337302D01*
X277334Y337728D01*
X277761D01*
X277334D01*
X276908Y338154D01*
Y338581D01*
X277334Y339007D01*
X278187D01*
X278613Y338581D01*
X276055Y339007D02*
Y338581D01*
X275629D01*
Y339007D01*
X276055D01*
X272218D02*
X273923D01*
X272218Y337302D01*
Y336875D01*
X272644Y336449D01*
X273497D01*
X273923Y336875D01*
X348425Y245078D02*
Y242946D01*
X348852Y242520D01*
X349704D01*
X350131Y242946D01*
Y245078D01*
X352689D02*
X350983D01*
Y243799D01*
X351836Y244225D01*
X352263D01*
X352689Y243799D01*
Y242946D01*
X352263Y242520D01*
X351410D01*
X350983Y242946D01*
X353542Y242520D02*
Y242946D01*
X353968D01*
Y242520D01*
X353542D01*
X357379D02*
X355674D01*
X357379Y244225D01*
Y244652D01*
X356953Y245078D01*
X356100D01*
X355674Y244652D01*
X420669Y156299D02*
X418537D01*
X418110Y155873D01*
Y155020D01*
X418537Y154594D01*
X420669D01*
Y152035D02*
X420242Y152888D01*
X419389Y153741D01*
X418537D01*
X418110Y153315D01*
Y152462D01*
X418537Y152035D01*
X418963D01*
X419389Y152462D01*
Y153741D01*
X418110Y151183D02*
X418537D01*
Y150756D01*
X418110D01*
Y151183D01*
Y147345D02*
Y149051D01*
X419816Y147345D01*
X420242D01*
X420669Y147772D01*
Y148625D01*
X420242Y149051D01*
X301250Y128969D02*
Y131100D01*
X300824Y131527D01*
X299971D01*
X299545Y131100D01*
Y128969D01*
X298692D02*
X296987D01*
Y129395D01*
X298692Y131100D01*
Y131527D01*
X296134D02*
Y131100D01*
X295708D01*
Y131527D01*
X296134D01*
X292297D02*
X294002D01*
X292297Y129821D01*
Y129395D01*
X292723Y128969D01*
X293576D01*
X294002Y129395D01*
X417713Y366911D02*
X417287Y367337D01*
X416434D01*
X416008Y366911D01*
Y365205D01*
X416434Y364779D01*
X417287D01*
X417713Y365205D01*
X418566Y366911D02*
X418993Y367337D01*
X419845D01*
X420272Y366911D01*
Y366484D01*
X419845Y366058D01*
X419419D01*
X419845D01*
X420272Y365632D01*
Y365205D01*
X419845Y364779D01*
X418993D01*
X418566Y365205D01*
X421124Y364779D02*
X421977D01*
X421551D01*
Y367337D01*
X421124Y366911D01*
X423256Y364779D02*
Y365205D01*
X423682D01*
Y364779D01*
X423256D01*
X427094D02*
X425388D01*
X427094Y366484D01*
Y366911D01*
X426667Y367337D01*
X425814D01*
X425388Y366911D01*
X392913Y190945D02*
Y188977D01*
X391930D01*
X391601Y189305D01*
Y189961D01*
X391930Y190289D01*
X392913D01*
X392257D02*
X391601Y190945D01*
X390946D02*
X390290D01*
X390617D01*
Y188977D01*
X390946Y189305D01*
X387994Y190945D02*
X389306D01*
X387994Y189633D01*
Y189305D01*
X388322Y188977D01*
X388978D01*
X389306Y189305D01*
X387338Y190945D02*
Y190617D01*
X387010D01*
Y190945D01*
X387338D01*
X384386D02*
X385698D01*
X384386Y189633D01*
Y189305D01*
X384714Y188977D01*
X385370D01*
X385698Y189305D01*
X414342Y379400D02*
X416901D01*
Y378121D01*
X416474Y377695D01*
X415622D01*
X415195Y378121D01*
Y379400D01*
Y378547D02*
X414342Y377695D01*
Y375563D02*
X416901D01*
X415622Y376842D01*
Y375136D01*
X414342Y373004D02*
X416901D01*
X415622Y374284D01*
Y372578D01*
X414342Y371725D02*
X414769D01*
Y371299D01*
X414342D01*
Y371725D01*
Y367888D02*
Y369593D01*
X416048Y367888D01*
X416474D01*
X416901Y368314D01*
Y369167D01*
X416474Y369593D01*
X353613Y294125D02*
X356171D01*
Y292846D01*
X355744Y292420D01*
X354892D01*
X354465Y292846D01*
Y294125D01*
Y293272D02*
X353613Y292420D01*
X354039Y291567D02*
X353613Y291141D01*
Y290288D01*
X354039Y289861D01*
X355744D01*
X356171Y290288D01*
Y291141D01*
X355744Y291567D01*
X355318D01*
X354892Y291141D01*
Y289861D01*
X354039Y289009D02*
X353613Y288582D01*
Y287730D01*
X354039Y287303D01*
X355744D01*
X356171Y287730D01*
Y288582D01*
X355744Y289009D01*
X355318D01*
X354892Y288582D01*
Y287303D01*
X353613Y286451D02*
X354039D01*
Y286024D01*
X353613D01*
Y286451D01*
Y282613D02*
Y284319D01*
X355318Y282613D01*
X355744D01*
X356171Y283039D01*
Y283892D01*
X355744Y284319D01*
X352756Y571654D02*
Y573622D01*
X351772D01*
X351444Y573294D01*
Y571982D01*
X351772Y571654D01*
X352756D01*
X350788D02*
X349476D01*
Y571982D01*
X350788Y573294D01*
Y573622D01*
X348820D02*
Y573294D01*
X348492D01*
Y573622D01*
X348820D01*
X347180D02*
X346524D01*
X346852D01*
Y571654D01*
X347180Y571982D01*
X380709Y652558D02*
Y650426D01*
X381135Y650000D01*
X381988D01*
X382414Y650426D01*
Y652558D01*
X383267Y652132D02*
X383693Y652558D01*
X384546D01*
X384972Y652132D01*
Y651706D01*
X384546Y651279D01*
X384972Y650853D01*
Y650426D01*
X384546Y650000D01*
X383693D01*
X383267Y650426D01*
Y650853D01*
X383693Y651279D01*
X383267Y651706D01*
Y652132D01*
X383693Y651279D02*
X384546D01*
X385825Y650000D02*
Y650426D01*
X386251D01*
Y650000D01*
X385825D01*
X387957D02*
X388810D01*
X388383D01*
Y652558D01*
X387957Y652132D01*
X377953Y570473D02*
Y572441D01*
X377559Y572835D01*
X376772D01*
X376378Y572441D01*
Y570473D01*
X374017D02*
X375591D01*
Y571654D01*
X374804Y571260D01*
X374411D01*
X374017Y571654D01*
Y572441D01*
X374411Y572835D01*
X375198D01*
X375591Y572441D01*
X373230Y572835D02*
Y572441D01*
X372836D01*
Y572835D01*
X373230D01*
X371262D02*
X370475D01*
X370868D01*
Y570473D01*
X371262Y570867D01*
X417060Y705545D02*
Y707250D01*
X416633Y707676D01*
X415781D01*
X415354Y707250D01*
Y705545D01*
X415781Y705118D01*
X416633D01*
X416207Y705971D02*
X417060Y705118D01*
X416633D02*
X417060Y705545D01*
X417913Y707250D02*
X418339Y707676D01*
X419192D01*
X419618Y707250D01*
Y706824D01*
X419192Y706397D01*
X418765D01*
X419192D01*
X419618Y705971D01*
Y705545D01*
X419192Y705118D01*
X418339D01*
X417913Y705545D01*
X420471Y705118D02*
Y705545D01*
X420897D01*
Y705118D01*
X420471D01*
X422603D02*
X423455D01*
X423029D01*
Y707676D01*
X422603Y707250D01*
X311417Y627952D02*
Y626312D01*
X311745Y625984D01*
X312401D01*
X312729Y626312D01*
Y627952D01*
X313385Y625984D02*
X314041D01*
X313713D01*
Y627952D01*
X313385Y627624D01*
X315025Y625984D02*
Y626312D01*
X315353D01*
Y625984D01*
X315025D01*
X316665D02*
X317321D01*
X316993D01*
Y627952D01*
X316665Y627624D01*
X348621Y590158D02*
X346063D01*
Y588878D01*
X346489Y588452D01*
X348195D01*
X348621Y588878D01*
Y590158D01*
X348195Y587599D02*
X348621Y587173D01*
Y586320D01*
X348195Y585894D01*
X347768D01*
X347342Y586320D01*
X346916Y585894D01*
X346489D01*
X346063Y586320D01*
Y587173D01*
X346489Y587599D01*
X346916D01*
X347342Y587173D01*
X347768Y587599D01*
X348195D01*
X347342Y587173D02*
Y586320D01*
X346063Y585041D02*
X346489D01*
Y584615D01*
X346063D01*
Y585041D01*
Y582909D02*
Y582056D01*
Y582483D01*
X348621D01*
X348195Y582909D01*
X270276Y557087D02*
X272835D01*
Y558366D01*
X272408Y558792D01*
X270703D01*
X270276Y558366D01*
Y557087D01*
X272835Y560924D02*
X270276D01*
X271555Y559645D01*
Y561350D01*
X272835Y562203D02*
X272408D01*
Y562630D01*
X272835D01*
Y562203D01*
Y564335D02*
Y565188D01*
Y564761D01*
X270276D01*
X270703Y564335D01*
X296850Y585432D02*
Y583465D01*
X297834D01*
X298162Y583793D01*
Y585105D01*
X297834Y585432D01*
X296850D01*
X300130Y583465D02*
X298818D01*
X300130Y584776D01*
Y585105D01*
X299802Y585432D01*
X299146D01*
X298818Y585105D01*
X300786Y583465D02*
Y583793D01*
X301114D01*
Y583465D01*
X300786D01*
X302426D02*
X303082D01*
X302754D01*
Y585432D01*
X302426Y585105D01*
X411482Y601838D02*
X411810Y602166D01*
Y602822D01*
X411482Y603150D01*
X410171D01*
X409842Y602822D01*
Y602166D01*
X410171Y601838D01*
X409842Y601182D02*
Y600526D01*
Y600854D01*
X411810D01*
X411482Y601182D01*
X411810Y598230D02*
Y599542D01*
X410826D01*
X411154Y598886D01*
Y598558D01*
X410826Y598230D01*
X410171D01*
X409842Y598558D01*
Y599214D01*
X410171Y599542D01*
X409842Y597574D02*
X410171D01*
Y597246D01*
X409842D01*
Y597574D01*
Y595934D02*
Y595278D01*
Y595606D01*
X411810D01*
X411482Y595934D01*
X269266Y488312D02*
X268839Y487886D01*
Y487033D01*
X269266Y486607D01*
X270971D01*
X271398Y487033D01*
Y487886D01*
X270971Y488312D01*
X271398Y490444D02*
X268839D01*
X270118Y489165D01*
Y490870D01*
X271398Y491723D02*
X270971D01*
Y492149D01*
X271398D01*
Y491723D01*
Y493855D02*
Y494707D01*
Y494281D01*
X268839D01*
X269266Y493855D01*
X269766Y506312D02*
X269339Y505886D01*
Y505033D01*
X269766Y504606D01*
X271471D01*
X271898Y505033D01*
Y505886D01*
X271471Y506312D01*
X269766Y507165D02*
X269339Y507591D01*
Y508444D01*
X269766Y508870D01*
X270192D01*
X270619Y508444D01*
Y508017D01*
Y508444D01*
X271045Y508870D01*
X271471D01*
X271898Y508444D01*
Y507591D01*
X271471Y507165D01*
X271898Y509723D02*
X271471D01*
Y510149D01*
X271898D01*
Y509723D01*
Y511855D02*
Y512708D01*
Y512281D01*
X269339D01*
X269766Y511855D01*
Y525330D02*
X269339Y524904D01*
Y524051D01*
X269766Y523625D01*
X271471D01*
X271898Y524051D01*
Y524904D01*
X271471Y525330D01*
X271898Y527888D02*
Y526183D01*
X270192Y527888D01*
X269766D01*
X269339Y527462D01*
Y526609D01*
X269766Y526183D01*
X271898Y528741D02*
X271471D01*
Y529168D01*
X271898D01*
Y528741D01*
Y530873D02*
Y531726D01*
Y531299D01*
X269339D01*
X269766Y530873D01*
Y544312D02*
X269339Y543886D01*
Y543033D01*
X269766Y542606D01*
X271471D01*
X271898Y543033D01*
Y543886D01*
X271471Y544312D01*
X271898Y545165D02*
Y546017D01*
Y545591D01*
X269339D01*
X269766Y545165D01*
X271898Y547296D02*
X271471D01*
Y547723D01*
X271898D01*
Y547296D01*
Y549428D02*
Y550281D01*
Y549855D01*
X269339D01*
X269766Y549428D01*
X445078Y622835D02*
Y621129D01*
Y621982D01*
X442520D01*
Y620277D02*
Y619424D01*
Y619850D01*
X445078D01*
X444652Y620277D01*
X442520Y618145D02*
X442946D01*
Y617718D01*
X442520D01*
Y618145D01*
Y616013D02*
Y615160D01*
Y615587D01*
X445078D01*
X444652Y616013D01*
X465124Y661680D02*
X465550Y662107D01*
Y662959D01*
X465124Y663386D01*
X463418D01*
X462992Y662959D01*
Y662107D01*
X463418Y661680D01*
X462992Y659122D02*
Y660828D01*
X464698Y659122D01*
X465124D01*
X465550Y659549D01*
Y660401D01*
X465124Y660828D01*
X462992Y656990D02*
X465550D01*
X464271Y658269D01*
Y656564D01*
X462992Y655711D02*
X463418D01*
Y655285D01*
X462992D01*
Y655711D01*
Y653579D02*
Y652727D01*
Y653153D01*
X465550D01*
X465124Y653579D01*
X425197Y689173D02*
Y687041D01*
X425623Y686614D01*
X426476D01*
X426902Y687041D01*
Y689173D01*
X427755D02*
X429461D01*
Y688746D01*
X427755Y687041D01*
Y686614D01*
X430313D02*
Y687041D01*
X430740D01*
Y686614D01*
X430313D01*
X432445D02*
X433298D01*
X432871D01*
Y689173D01*
X432445Y688746D01*
X431496Y699607D02*
Y702165D01*
X432775D01*
X433202Y701738D01*
Y700886D01*
X432775Y700459D01*
X431496D01*
X432349D02*
X433202Y699607D01*
X434054Y701738D02*
X434481Y702165D01*
X435333D01*
X435760Y701738D01*
Y701312D01*
X435333Y700886D01*
X434907D01*
X435333D01*
X435760Y700459D01*
Y700033D01*
X435333Y699607D01*
X434481D01*
X434054Y700033D01*
X436613Y699607D02*
X437465D01*
X437039D01*
Y702165D01*
X436613Y701738D01*
X438744Y699607D02*
Y700033D01*
X439171D01*
Y699607D01*
X438744D01*
X440876D02*
X441729D01*
X441303D01*
Y702165D01*
X440876Y701738D01*
X395669Y711811D02*
Y714369D01*
X396948D01*
X397375Y713943D01*
Y713090D01*
X396948Y712664D01*
X395669D01*
X396522D02*
X397375Y711811D01*
X398228Y713943D02*
X398654Y714369D01*
X399507D01*
X399933Y713943D01*
Y713517D01*
X399507Y713090D01*
X399080D01*
X399507D01*
X399933Y712664D01*
Y712237D01*
X399507Y711811D01*
X398654D01*
X398228Y712237D01*
X400786Y713943D02*
X401212Y714369D01*
X402065D01*
X402491Y713943D01*
Y712237D01*
X402065Y711811D01*
X401212D01*
X400786Y712237D01*
Y713943D01*
X403344Y711811D02*
Y712237D01*
X403770D01*
Y711811D01*
X403344D01*
X405476D02*
X406329D01*
X405902D01*
Y714369D01*
X405476Y713943D01*
X430315Y640551D02*
Y643110D01*
X431594D01*
X432021Y642683D01*
Y641830D01*
X431594Y641404D01*
X430315D01*
X431168D02*
X432021Y640551D01*
X434579D02*
X432873D01*
X434579Y642257D01*
Y642683D01*
X434152Y643110D01*
X433300D01*
X432873Y642683D01*
X435431Y640978D02*
X435858Y640551D01*
X436711D01*
X437137Y640978D01*
Y642683D01*
X436711Y643110D01*
X435858D01*
X435431Y642683D01*
Y642257D01*
X435858Y641830D01*
X437137D01*
X437990Y640551D02*
Y640978D01*
X438416D01*
Y640551D01*
X437990D01*
X440122D02*
X440974D01*
X440548D01*
Y643110D01*
X440122Y642683D01*
X459842Y645669D02*
X462401D01*
Y644390D01*
X461974Y643964D01*
X461122D01*
X460695Y644390D01*
Y645669D01*
Y644817D02*
X459842Y643964D01*
Y641406D02*
Y643111D01*
X461548Y641406D01*
X461974D01*
X462401Y641832D01*
Y642685D01*
X461974Y643111D01*
Y640553D02*
X462401Y640127D01*
Y639274D01*
X461974Y638847D01*
X461548D01*
X461122Y639274D01*
X460695Y638847D01*
X460269D01*
X459842Y639274D01*
Y640127D01*
X460269Y640553D01*
X460695D01*
X461122Y640127D01*
X461548Y640553D01*
X461974D01*
X461122Y640127D02*
Y639274D01*
X459842Y637995D02*
X460269D01*
Y637568D01*
X459842D01*
Y637995D01*
Y635863D02*
Y635010D01*
Y635436D01*
X462401D01*
X461974Y635863D01*
X395669Y704724D02*
Y707283D01*
X396948D01*
X397375Y706856D01*
Y706004D01*
X396948Y705577D01*
X395669D01*
X396522D02*
X397375Y704724D01*
X399933D02*
X398228D01*
X399933Y706430D01*
Y706856D01*
X399507Y707283D01*
X398654D01*
X398228Y706856D01*
X400786Y707283D02*
X402491D01*
Y706856D01*
X400786Y705151D01*
Y704724D01*
X403344D02*
Y705151D01*
X403770D01*
Y704724D01*
X403344D01*
X405476D02*
X406329D01*
X405902D01*
Y707283D01*
X405476Y706856D01*
X395669Y715748D02*
Y718306D01*
X396948D01*
X397375Y717880D01*
Y717027D01*
X396948Y716601D01*
X395669D01*
X396522D02*
X397375Y715748D01*
X399933D02*
X398228D01*
X399933Y717453D01*
Y717880D01*
X399507Y718306D01*
X398654D01*
X398228Y717880D01*
X402491Y718306D02*
X401639Y717880D01*
X400786Y717027D01*
Y716174D01*
X401212Y715748D01*
X402065D01*
X402491Y716174D01*
Y716601D01*
X402065Y717027D01*
X400786D01*
X403344Y715748D02*
Y716174D01*
X403770D01*
Y715748D01*
X403344D01*
X405476D02*
X406329D01*
X405902D01*
Y718306D01*
X405476Y717880D01*
X460269Y691208D02*
X461974D01*
X462401Y691634D01*
Y692487D01*
X461974Y692913D01*
X460269D01*
X459842Y692487D01*
Y691634D01*
X460695Y692061D02*
X459842Y691208D01*
Y691634D02*
X460269Y691208D01*
X459842Y689076D02*
X462401D01*
X461122Y690355D01*
Y688650D01*
X459842Y687797D02*
X460269D01*
Y687371D01*
X459842D01*
Y687797D01*
Y685665D02*
Y684812D01*
Y685239D01*
X462401D01*
X461974Y685665D01*
X419291Y572442D02*
Y574409D01*
X418307D01*
X417979Y574082D01*
Y572770D01*
X418307Y572442D01*
X419291D01*
X417323Y574409D02*
X416668D01*
X416995D01*
Y572442D01*
X417323Y572770D01*
X415684D02*
X415356Y572442D01*
X414700D01*
X414372Y572770D01*
Y574082D01*
X414700Y574409D01*
X415356D01*
X415684Y574082D01*
Y572770D01*
X413716Y574409D02*
Y574082D01*
X413388D01*
Y574409D01*
X413716D01*
X412076D02*
X411420D01*
X411748D01*
Y572442D01*
X412076Y572770D01*
X441928Y591732D02*
X439370D01*
Y590453D01*
X439796Y590027D01*
X441502D01*
X441928Y590453D01*
Y591732D01*
X439796Y589174D02*
X439370Y588748D01*
Y587895D01*
X439796Y587469D01*
X441502D01*
X441928Y587895D01*
Y588748D01*
X441502Y589174D01*
X441076D01*
X440649Y588748D01*
Y587469D01*
X439370Y586616D02*
X439796D01*
Y586190D01*
X439370D01*
Y586616D01*
Y584484D02*
Y583631D01*
Y584058D01*
X441928D01*
X441502Y584484D01*
X457350Y624640D02*
X457776Y624214D01*
X458629D01*
X459055Y624640D01*
Y626345D01*
X458629Y626772D01*
X457776D01*
X457350Y626345D01*
X456497Y626772D02*
X455644D01*
X456071D01*
Y625066D01*
X456497D01*
X454365Y626772D02*
Y625066D01*
X453086D01*
X452660Y625493D01*
Y626772D01*
X450101D02*
X451807D01*
X450101Y625066D01*
Y624640D01*
X450528Y624214D01*
X451380D01*
X451807Y624640D01*
X449249Y626772D02*
Y626345D01*
X448822D01*
Y626772D01*
X449249D01*
X447117D02*
X446264D01*
X446690D01*
Y624214D01*
X447117Y624640D01*
X460400Y674673D02*
X460826Y675099D01*
Y675952D01*
X460400Y676378D01*
X458694D01*
X458268Y675952D01*
Y675099D01*
X458694Y674673D01*
X458268Y673820D02*
Y672967D01*
Y673393D01*
X459973D01*
Y673820D01*
X458268Y671688D02*
X459973D01*
Y670409D01*
X459547Y669982D01*
X458268D01*
Y669130D02*
Y668277D01*
Y668703D01*
X460826D01*
X460400Y669130D01*
X458268Y666998D02*
X458694D01*
Y666571D01*
X458268D01*
Y666998D01*
Y664866D02*
Y664013D01*
Y664439D01*
X460826D01*
X460400Y664866D01*
X397375Y710400D02*
X396948Y710826D01*
X396096D01*
X395669Y710400D01*
Y708694D01*
X396096Y708268D01*
X396948D01*
X397375Y708694D01*
X399933Y708268D02*
X398228D01*
X399933Y709973D01*
Y710400D01*
X399507Y710826D01*
X398654D01*
X398228Y710400D01*
X402491Y710826D02*
X400786D01*
Y709547D01*
X401639Y709973D01*
X402065D01*
X402491Y709547D01*
Y708694D01*
X402065Y708268D01*
X401212D01*
X400786Y708694D01*
X403344Y708268D02*
Y708694D01*
X403770D01*
Y708268D01*
X403344D01*
X405476D02*
X406329D01*
X405902D01*
Y710826D01*
X405476Y710400D01*
X266766Y605643D02*
X266339Y605216D01*
Y604363D01*
X266766Y603937D01*
X268471D01*
X268898Y604363D01*
Y605216D01*
X268471Y605643D01*
X268898Y608201D02*
Y606495D01*
X267192Y608201D01*
X266766D01*
X266339Y607774D01*
Y606922D01*
X266766Y606495D01*
X268898Y610759D02*
Y609054D01*
X267192Y610759D01*
X266766D01*
X266339Y610333D01*
Y609480D01*
X266766Y609054D01*
X268898Y611612D02*
X268471D01*
Y612038D01*
X268898D01*
Y611612D01*
Y613744D02*
Y614597D01*
Y614170D01*
X266339D01*
X266766Y613744D01*
X397375Y721423D02*
X396948Y721850D01*
X396096D01*
X395669Y721423D01*
Y719718D01*
X396096Y719291D01*
X396948D01*
X397375Y719718D01*
X399933Y719291D02*
X398228D01*
X399933Y720997D01*
Y721423D01*
X399507Y721850D01*
X398654D01*
X398228Y721423D01*
X400786D02*
X401212Y721850D01*
X402065D01*
X402491Y721423D01*
Y720997D01*
X402065Y720570D01*
X401639D01*
X402065D01*
X402491Y720144D01*
Y719718D01*
X402065Y719291D01*
X401212D01*
X400786Y719718D01*
X403344Y719291D02*
Y719718D01*
X403770D01*
Y719291D01*
X403344D01*
X405476D02*
X406329D01*
X405902D01*
Y721850D01*
X405476Y721423D01*
X291864Y647507D02*
X292126Y647245D01*
X292651D01*
X292913Y647507D01*
Y648557D01*
X292651Y648819D01*
X292126D01*
X291864Y648557D01*
X290290Y648819D02*
X291339D01*
X290290Y647769D01*
Y647507D01*
X290552Y647245D01*
X291077D01*
X291339Y647507D01*
X289765D02*
X289502Y647245D01*
X288978D01*
X288715Y647507D01*
Y648557D01*
X288978Y648819D01*
X289502D01*
X289765Y648557D01*
Y647507D01*
X288191Y648819D02*
Y648557D01*
X287928D01*
Y648819D01*
X288191D01*
X286879D02*
X286354D01*
X286616D01*
Y647245D01*
X286879Y647507D01*
X411974Y612861D02*
X412401Y613288D01*
Y614141D01*
X411974Y614567D01*
X410269D01*
X409842Y614141D01*
Y613288D01*
X410269Y612861D01*
X409842Y610303D02*
Y612009D01*
X411548Y610303D01*
X411974D01*
X412401Y610730D01*
Y611582D01*
X411974Y612009D01*
X409842Y609450D02*
Y608598D01*
Y609024D01*
X412401D01*
X411974Y609450D01*
X409842Y607319D02*
X410269D01*
Y606892D01*
X409842D01*
Y607319D01*
Y605187D02*
Y604334D01*
Y604760D01*
X412401D01*
X411974Y605187D01*
X431955Y590420D02*
X432283Y590748D01*
Y591404D01*
X431955Y591732D01*
X430643D01*
X430315Y591404D01*
Y590748D01*
X430643Y590420D01*
X430315Y589764D02*
Y589109D01*
Y589436D01*
X432283D01*
X431955Y589764D01*
X430643Y588125D02*
X430315Y587797D01*
Y587141D01*
X430643Y586813D01*
X431955D01*
X432283Y587141D01*
Y587797D01*
X431955Y588125D01*
X431627D01*
X431299Y587797D01*
Y586813D01*
X430315Y586157D02*
X430643D01*
Y585829D01*
X430315D01*
Y586157D01*
Y584517D02*
Y583861D01*
Y584189D01*
X432283D01*
X431955Y584517D01*
X446063Y479330D02*
Y477198D01*
X446489Y476772D01*
X447342D01*
X447768Y477198D01*
Y479330D01*
X448621Y478904D02*
X449048Y479330D01*
X449900D01*
X450327Y478904D01*
Y478477D01*
X449900Y478051D01*
X449474D01*
X449900D01*
X450327Y477625D01*
Y477198D01*
X449900Y476772D01*
X449048D01*
X448621Y477198D01*
X451180Y476772D02*
Y477198D01*
X451606D01*
Y476772D01*
X451180D01*
X453311D02*
X454164D01*
X453738D01*
Y479330D01*
X453311Y478904D01*
X277268Y648820D02*
Y646688D01*
X277694Y646262D01*
X278547D01*
X278974Y646688D01*
Y648820D01*
X281532Y646262D02*
X279826D01*
X281532Y647967D01*
Y648393D01*
X281105Y648820D01*
X280253D01*
X279826Y648393D01*
X282384Y646262D02*
Y646688D01*
X282811D01*
Y646262D01*
X282384D01*
X284516D02*
X285369D01*
X284943D01*
Y648820D01*
X284516Y648393D01*
X273622Y679528D02*
X271064D01*
Y680807D01*
X271490Y681233D01*
X272343D01*
X272769Y680807D01*
Y679528D01*
Y680380D02*
X273622Y681233D01*
Y683791D02*
Y682086D01*
X271917Y683791D01*
X271490D01*
X271064Y683365D01*
Y682512D01*
X271490Y682086D01*
X273622Y685923D02*
X271064D01*
X272343Y684644D01*
Y686350D01*
X273622Y687202D02*
X273196D01*
Y687629D01*
X273622D01*
Y687202D01*
Y689334D02*
Y690187D01*
Y689761D01*
X271064D01*
X271490Y689334D01*
X366929Y590158D02*
X368897D01*
Y589174D01*
X368569Y588846D01*
X367913D01*
X367585Y589174D01*
Y590158D01*
Y589501D02*
X366929Y588846D01*
Y586878D02*
Y588190D01*
X368241Y586878D01*
X368569D01*
X368897Y587206D01*
Y587862D01*
X368569Y588190D01*
Y586222D02*
X368897Y585894D01*
Y585238D01*
X368569Y584910D01*
X368241D01*
X367913Y585238D01*
Y585566D01*
Y585238D01*
X367585Y584910D01*
X367257D01*
X366929Y585238D01*
Y585894D01*
X367257Y586222D01*
X366929Y584254D02*
X367257D01*
Y583926D01*
X366929D01*
Y584254D01*
Y582614D02*
Y581958D01*
Y582286D01*
X368897D01*
X368569Y582614D01*
X308268Y571654D02*
X305710D01*
Y572933D01*
X306136Y573359D01*
X306989D01*
X307415Y572933D01*
Y571654D01*
Y572506D02*
X308268Y573359D01*
Y575917D02*
Y574212D01*
X306562Y575917D01*
X306136D01*
X305710Y575491D01*
Y574638D01*
X306136Y574212D01*
X308268Y576770D02*
Y577623D01*
Y577197D01*
X305710D01*
X306136Y576770D01*
X308268Y578902D02*
X307841D01*
Y579328D01*
X308268D01*
Y578902D01*
Y581034D02*
Y581887D01*
Y581460D01*
X305710D01*
X306136Y581034D01*
X360236Y609449D02*
X361810D01*
Y608662D01*
X361548Y608399D01*
X361023D01*
X360761Y608662D01*
Y609449D01*
Y608924D02*
X360236Y608399D01*
Y607874D02*
Y607350D01*
Y607612D01*
X361810D01*
X361548Y607874D01*
Y606563D02*
X361810Y606300D01*
Y605775D01*
X361548Y605513D01*
X361286D01*
X361023Y605775D01*
X360761Y605513D01*
X360499D01*
X360236Y605775D01*
Y606300D01*
X360499Y606563D01*
X360761D01*
X361023Y606300D01*
X361286Y606563D01*
X361548D01*
X361023Y606300D02*
Y605775D01*
X360236Y604988D02*
X360499D01*
Y604726D01*
X360236D01*
Y604988D01*
Y603676D02*
Y603152D01*
Y603414D01*
X361810D01*
X361548Y603676D01*
X303937Y647638D02*
Y649606D01*
X304921D01*
X305249Y649278D01*
Y648622D01*
X304921Y648294D01*
X303937D01*
X304593D02*
X305249Y647638D01*
X307217D02*
X305905D01*
X307217Y648950D01*
Y649278D01*
X306889Y649606D01*
X306233D01*
X305905Y649278D01*
X307873D02*
X308201Y649606D01*
X308857D01*
X309185Y649278D01*
Y647966D01*
X308857Y647638D01*
X308201D01*
X307873Y647966D01*
Y649278D01*
X309841Y647638D02*
Y647966D01*
X310169D01*
Y647638D01*
X309841D01*
X311480D02*
X312136D01*
X311808D01*
Y649606D01*
X311480Y649278D01*
X360236Y596063D02*
Y597244D01*
X360827D01*
X361023Y597047D01*
Y596653D01*
X360827Y596457D01*
X360236D01*
X360630D02*
X361023Y596063D01*
X361417D02*
X361810D01*
X361614D01*
Y597244D01*
X361417Y597047D01*
X363188Y597244D02*
X362794Y597047D01*
X362401Y596653D01*
Y596260D01*
X362598Y596063D01*
X362991D01*
X363188Y596260D01*
Y596457D01*
X362991Y596653D01*
X362401D01*
X363582Y596063D02*
Y596260D01*
X363778D01*
Y596063D01*
X363582D01*
X364565D02*
X364959D01*
X364762D01*
Y597244D01*
X364565Y597047D01*
X356693Y616535D02*
Y618503D01*
X357677D01*
X358005Y618175D01*
Y617519D01*
X357677Y617191D01*
X356693D01*
X357349D02*
X358005Y616535D01*
X358661D02*
X359317D01*
X358989D01*
Y618503D01*
X358661Y618175D01*
X360301Y618503D02*
X361613D01*
Y618175D01*
X360301Y616863D01*
Y616535D01*
X362268D02*
Y616863D01*
X362597D01*
Y616535D01*
X362268D01*
X363908D02*
X364564D01*
X364236D01*
Y618503D01*
X363908Y618175D01*
X269291Y554725D02*
X266733D01*
Y556004D01*
X267160Y556430D01*
X268012D01*
X268439Y556004D01*
Y554725D01*
Y555577D02*
X269291Y556430D01*
Y557283D02*
Y558136D01*
Y557709D01*
X266733D01*
X267160Y557283D01*
X269291Y560694D02*
X266733D01*
X268012Y559415D01*
Y561120D01*
X269291Y561973D02*
X268865D01*
Y562399D01*
X269291D01*
Y561973D01*
Y564105D02*
Y564958D01*
Y564531D01*
X266733D01*
X267160Y564105D01*
X356693Y625984D02*
Y624646D01*
X356024D01*
X355801Y624869D01*
Y625315D01*
X356024Y625538D01*
X356693D01*
X356247D02*
X355801Y625984D01*
X355355D02*
X354909D01*
X355132D01*
Y624646D01*
X355355Y624869D01*
X354240D02*
X354017Y624646D01*
X353571D01*
X353347Y624869D01*
Y625092D01*
X353571Y625315D01*
X353794D01*
X353571D01*
X353347Y625538D01*
Y625761D01*
X353571Y625984D01*
X354017D01*
X354240Y625761D01*
X352902Y625984D02*
Y625761D01*
X352678D01*
Y625984D01*
X352902D01*
X351786D02*
X351340D01*
X351563D01*
Y624646D01*
X351786Y624869D01*
X297244Y551575D02*
X299802D01*
Y550296D01*
X299376Y549869D01*
X298523D01*
X298097Y550296D01*
Y551575D01*
Y550722D02*
X297244Y549869D01*
Y547311D02*
Y549017D01*
X298950Y547311D01*
X299376D01*
X299802Y547738D01*
Y548590D01*
X299376Y549017D01*
X297244Y546458D02*
X297671D01*
Y546032D01*
X297244D01*
Y546458D01*
Y544327D02*
Y543474D01*
Y543900D01*
X299802D01*
X299376Y544327D01*
X297244Y532677D02*
X299802D01*
Y531398D01*
X299376Y530972D01*
X298523D01*
X298097Y531398D01*
Y532677D01*
Y531825D02*
X297244Y530972D01*
X299376Y530119D02*
X299802Y529693D01*
Y528840D01*
X299376Y528414D01*
X298950D01*
X298523Y528840D01*
Y529266D01*
Y528840D01*
X298097Y528414D01*
X297671D01*
X297244Y528840D01*
Y529693D01*
X297671Y530119D01*
X297244Y527561D02*
X297671D01*
Y527135D01*
X297244D01*
Y527561D01*
Y525429D02*
Y524576D01*
Y525003D01*
X299802D01*
X299376Y525429D01*
X351575Y622441D02*
Y624015D01*
X352362D01*
X352624Y623753D01*
Y623228D01*
X352362Y622966D01*
X351575D01*
X352100D02*
X352624Y622441D01*
X353149D02*
X353674D01*
X353412D01*
Y624015D01*
X353149Y623753D01*
X355510Y622441D02*
X354461D01*
X355510Y623490D01*
Y623753D01*
X355248Y624015D01*
X354723D01*
X354461Y623753D01*
X356035Y622441D02*
Y622703D01*
X356298D01*
Y622441D01*
X356035D01*
X357347D02*
X357872D01*
X357610D01*
Y624015D01*
X357347Y623753D01*
X268898Y584646D02*
X266339D01*
Y585925D01*
X266766Y586351D01*
X267618D01*
X268045Y585925D01*
Y584646D01*
Y585499D02*
X268898Y586351D01*
Y587204D02*
Y588057D01*
Y587630D01*
X266339D01*
X266766Y587204D01*
X268898Y589336D02*
Y590189D01*
Y589762D01*
X266339D01*
X266766Y589336D01*
X268898Y591468D02*
X268471D01*
Y591894D01*
X268898D01*
Y591468D01*
Y593600D02*
Y594452D01*
Y594026D01*
X266339D01*
X266766Y593600D01*
X297638Y514173D02*
X300196D01*
Y512894D01*
X299770Y512468D01*
X298917D01*
X298491Y512894D01*
Y514173D01*
Y513321D02*
X297638Y512468D01*
Y510336D02*
X300196D01*
X298917Y511615D01*
Y509910D01*
X297638Y509057D02*
X298064D01*
Y508631D01*
X297638D01*
Y509057D01*
Y506925D02*
Y506072D01*
Y506499D01*
X300196D01*
X299770Y506925D01*
X268685Y542606D02*
X266127D01*
Y543886D01*
X266553Y544312D01*
X267406D01*
X267832Y543886D01*
Y542606D01*
Y543459D02*
X268685Y544312D01*
X268259Y545165D02*
X268685Y545591D01*
Y546444D01*
X268259Y546870D01*
X266553D01*
X266127Y546444D01*
Y545591D01*
X266553Y545165D01*
X266980D01*
X267406Y545591D01*
Y546870D01*
X268685Y547723D02*
X268259D01*
Y548149D01*
X268685D01*
Y547723D01*
Y549855D02*
Y550707D01*
Y550281D01*
X266127D01*
X266553Y549855D01*
X268185Y523606D02*
X265627D01*
Y524886D01*
X266053Y525312D01*
X266906D01*
X267332Y524886D01*
Y523606D01*
Y524459D02*
X268185Y525312D01*
X266053Y526165D02*
X265627Y526591D01*
Y527444D01*
X266053Y527870D01*
X266480D01*
X266906Y527444D01*
X267332Y527870D01*
X267759D01*
X268185Y527444D01*
Y526591D01*
X267759Y526165D01*
X267332D01*
X266906Y526591D01*
X266480Y526165D01*
X266053D01*
X266906Y526591D02*
Y527444D01*
X268185Y528723D02*
X267759D01*
Y529149D01*
X268185D01*
Y528723D01*
Y530855D02*
Y531707D01*
Y531281D01*
X265627D01*
X266053Y530855D01*
X268185Y504606D02*
X265627D01*
Y505886D01*
X266053Y506312D01*
X266906D01*
X267332Y505886D01*
Y504606D01*
Y505459D02*
X268185Y506312D01*
X265627Y507165D02*
Y508870D01*
X266053D01*
X267759Y507165D01*
X268185D01*
Y509723D02*
X267759D01*
Y510149D01*
X268185D01*
Y509723D01*
Y511855D02*
Y512708D01*
Y512281D01*
X265627D01*
X266053Y511855D01*
X268110Y486614D02*
X265552D01*
Y487893D01*
X265978Y488320D01*
X266831D01*
X267257Y487893D01*
Y486614D01*
Y487467D02*
X268110Y488320D01*
X265552Y490878D02*
X265978Y490025D01*
X266831Y489173D01*
X267684D01*
X268110Y489599D01*
Y490452D01*
X267684Y490878D01*
X267257D01*
X266831Y490452D01*
Y489173D01*
X268110Y491731D02*
X267684D01*
Y492157D01*
X268110D01*
Y491731D01*
Y493863D02*
Y494715D01*
Y494289D01*
X265552D01*
X265978Y493863D01*
X315830Y637857D02*
Y640415D01*
X317109D01*
X317535Y639989D01*
Y639136D01*
X317109Y638710D01*
X315830D01*
X316683D02*
X317535Y637857D01*
X318388D02*
X319241D01*
X318814D01*
Y640415D01*
X318388Y639989D01*
X320520Y637857D02*
Y638283D01*
X320946D01*
Y637857D01*
X320520D01*
X322652D02*
X323505D01*
X323078D01*
Y640415D01*
X322652Y639989D01*
X297244Y494882D02*
X299802D01*
Y493603D01*
X299376Y493177D01*
X298523D01*
X298097Y493603D01*
Y494882D01*
Y494029D02*
X297244Y493177D01*
X299802Y490618D02*
Y492324D01*
X298523D01*
X298950Y491471D01*
Y491045D01*
X298523Y490618D01*
X297671D01*
X297244Y491045D01*
Y491897D01*
X297671Y492324D01*
X297244Y489766D02*
X297671D01*
Y489339D01*
X297244D01*
Y489766D01*
Y487634D02*
Y486781D01*
Y487207D01*
X299802D01*
X299376Y487634D01*
X335007Y637532D02*
X333301D01*
X332875Y637106D01*
Y636253D01*
X333301Y635827D01*
X335007D01*
X335433Y636253D01*
Y637106D01*
X334580Y636680D02*
X335433Y637532D01*
Y637106D02*
X335007Y637532D01*
X335433Y640091D02*
Y638385D01*
X333728Y640091D01*
X333301D01*
X332875Y639664D01*
Y638811D01*
X333301Y638385D01*
X335433Y640943D02*
X335007D01*
Y641370D01*
X335433D01*
Y640943D01*
Y643075D02*
Y643928D01*
Y643502D01*
X332875D01*
X333301Y643075D01*
X362335Y655545D02*
Y657250D01*
X361909Y657676D01*
X361056D01*
X360630Y657250D01*
Y655545D01*
X361056Y655118D01*
X361909D01*
X361483Y655971D02*
X362335Y655118D01*
X361909D02*
X362335Y655545D01*
X363188Y655118D02*
X364041D01*
X363615D01*
Y657676D01*
X363188Y657250D01*
X365320Y655118D02*
Y655545D01*
X365746D01*
Y655118D01*
X365320D01*
X367452D02*
X368305D01*
X367878D01*
Y657676D01*
X367452Y657250D01*
X328161Y707740D02*
Y710299D01*
X329440D01*
X329866Y709872D01*
Y709020D01*
X329440Y708593D01*
X328161D01*
X330719Y707740D02*
X331572D01*
X331145D01*
Y710299D01*
X330719Y709872D01*
X301827Y593922D02*
Y595890D01*
X300843D01*
X300515Y595562D01*
Y594250D01*
X300843Y593922D01*
X301827D01*
X299859Y595890D02*
X299203D01*
X299531D01*
Y593922D01*
X299859Y594250D01*
X298219Y595890D02*
Y595562D01*
X297891D01*
Y595890D01*
X298219D01*
X296579D02*
X295923D01*
X296251D01*
Y593922D01*
X296579Y594250D01*
X293953Y593922D02*
Y595890D01*
X292969D01*
X292641Y595562D01*
Y594250D01*
X292969Y593922D01*
X293953D01*
X291985Y594250D02*
X291657Y593922D01*
X291001D01*
X290673Y594250D01*
Y594578D01*
X291001Y594906D01*
X291329D01*
X291001D01*
X290673Y595234D01*
Y595562D01*
X291001Y595890D01*
X291657D01*
X291985Y595562D01*
X290017Y595890D02*
Y595562D01*
X289689D01*
Y595890D01*
X290017D01*
X288377D02*
X287721D01*
X288049D01*
Y593922D01*
X288377Y594250D01*
X360236Y625590D02*
Y623622D01*
X361220D01*
X361548Y623950D01*
Y625262D01*
X361220Y625590D01*
X360236D01*
X363516D02*
X362204D01*
Y624606D01*
X362860Y624934D01*
X363188D01*
X363516Y624606D01*
Y623950D01*
X363188Y623622D01*
X362532D01*
X362204Y623950D01*
X364172Y623622D02*
Y623950D01*
X364500D01*
Y623622D01*
X364172D01*
X365812D02*
X366468D01*
X366140D01*
Y625590D01*
X365812Y625262D01*
X314304Y696226D02*
X313878Y696653D01*
X313025D01*
X312598Y696226D01*
Y694521D01*
X313025Y694095D01*
X313878D01*
X314304Y694521D01*
X315157Y694095D02*
X316009D01*
X315583D01*
Y696653D01*
X315157Y696226D01*
X317288Y696653D02*
X318994D01*
Y696226D01*
X317288Y694521D01*
Y694095D01*
X319847D02*
Y694521D01*
X320273D01*
Y694095D01*
X319847D01*
X321979D02*
X322831D01*
X322405D01*
Y696653D01*
X321979Y696226D01*
X331726Y650918D02*
X331300Y650492D01*
Y649639D01*
X331726Y649213D01*
X333432D01*
X333858Y649639D01*
Y650492D01*
X333432Y650918D01*
X333858Y651771D02*
Y652624D01*
Y652197D01*
X331300D01*
X331726Y651771D01*
Y653903D02*
X331300Y654329D01*
Y655182D01*
X331726Y655608D01*
X332153D01*
X332579Y655182D01*
X333005Y655608D01*
X333432D01*
X333858Y655182D01*
Y654329D01*
X333432Y653903D01*
X333005D01*
X332579Y654329D01*
X332153Y653903D01*
X331726D01*
X332579Y654329D02*
Y655182D01*
X333858Y656461D02*
X333432D01*
Y656887D01*
X333858D01*
Y656461D01*
Y658593D02*
Y659445D01*
Y659019D01*
X331300D01*
X331726Y658593D01*
X411482Y593176D02*
X411810Y593504D01*
Y594160D01*
X411482Y594488D01*
X410171D01*
X409842Y594160D01*
Y593504D01*
X410171Y593176D01*
X409842Y592520D02*
Y591864D01*
Y592192D01*
X411810D01*
X411482Y592520D01*
X409842Y589569D02*
Y590880D01*
X411154Y589569D01*
X411482D01*
X411810Y589896D01*
Y590553D01*
X411482Y590880D01*
X409842Y588913D02*
X410171D01*
Y588585D01*
X409842D01*
Y588913D01*
Y587273D02*
Y586617D01*
Y586945D01*
X411810D01*
X411482Y587273D01*
X403806Y572671D02*
X404233Y572245D01*
X405085D01*
X405512Y572671D01*
Y574377D01*
X405085Y574803D01*
X404233D01*
X403806Y574377D01*
X402954Y574803D02*
X402101D01*
X402527D01*
Y572245D01*
X402954Y572671D01*
X400822Y574803D02*
X399969D01*
X400395D01*
Y572245D01*
X400822Y572671D01*
X398690Y574803D02*
Y574377D01*
X398264D01*
Y574803D01*
X398690D01*
X396558D02*
X395705D01*
X396132D01*
Y572245D01*
X396558Y572671D01*
X279265Y616305D02*
X278838Y616732D01*
X277985D01*
X277559Y616305D01*
Y614600D01*
X277985Y614173D01*
X278838D01*
X279265Y614600D01*
X280117Y614173D02*
X280970D01*
X280544D01*
Y616732D01*
X280117Y616305D01*
X283955Y616732D02*
X283102Y616305D01*
X282249Y615452D01*
Y614600D01*
X282676Y614173D01*
X283528D01*
X283955Y614600D01*
Y615026D01*
X283528Y615452D01*
X282249D01*
X284807Y614173D02*
Y614600D01*
X285234D01*
Y614173D01*
X284807D01*
X286939D02*
X287792D01*
X287366D01*
Y616732D01*
X286939Y616305D01*
X340027Y571589D02*
X340355Y571261D01*
X341011D01*
X341339Y571589D01*
Y572900D01*
X341011Y573229D01*
X340355D01*
X340027Y572900D01*
X339371Y573229D02*
X338715D01*
X339043D01*
Y571261D01*
X339371Y571589D01*
X336747Y573229D02*
Y571261D01*
X337731Y572245D01*
X336419D01*
X335763Y573229D02*
Y572900D01*
X335435D01*
Y573229D01*
X335763D01*
X334123D02*
X333467D01*
X333795D01*
Y571261D01*
X334123Y571589D01*
X333334Y584908D02*
X333071Y584645D01*
Y584121D01*
X333334Y583858D01*
X334383D01*
X334646Y584121D01*
Y584645D01*
X334383Y584908D01*
X334646Y585433D02*
Y585957D01*
Y585695D01*
X333071D01*
X333334Y585433D01*
Y586744D02*
X333071Y587007D01*
Y587532D01*
X333334Y587794D01*
X334383D01*
X334646Y587532D01*
Y587007D01*
X334383Y586744D01*
X333334D01*
X334646Y588319D02*
X334383D01*
Y588581D01*
X334646D01*
Y588319D01*
Y589631D02*
Y590155D01*
Y589893D01*
X333071D01*
X333334Y589631D01*
X306136Y584383D02*
X305710Y583956D01*
Y583104D01*
X306136Y582677D01*
X307841D01*
X308268Y583104D01*
Y583956D01*
X307841Y584383D01*
Y585236D02*
X308268Y585662D01*
Y586515D01*
X307841Y586941D01*
X306136D01*
X305710Y586515D01*
Y585662D01*
X306136Y585236D01*
X306562D01*
X306989Y585662D01*
Y586941D01*
X308268Y587794D02*
X307841D01*
Y588220D01*
X308268D01*
Y587794D01*
Y589926D02*
Y590778D01*
Y590352D01*
X305710D01*
X306136Y589926D01*
X297626Y628322D02*
X298053Y628749D01*
Y629601D01*
X297626Y630028D01*
X295921D01*
X295495Y629601D01*
Y628749D01*
X295921Y628322D01*
X297626Y627469D02*
X298053Y627043D01*
Y626190D01*
X297626Y625764D01*
X297200D01*
X296774Y626190D01*
X296347Y625764D01*
X295921D01*
X295495Y626190D01*
Y627043D01*
X295921Y627469D01*
X296347D01*
X296774Y627043D01*
X297200Y627469D01*
X297626D01*
X296774Y627043D02*
Y626190D01*
X295495Y624911D02*
X295921D01*
Y624485D01*
X295495D01*
Y624911D01*
Y622779D02*
Y621927D01*
Y622353D01*
X298053D01*
X297626Y622779D01*
X372835Y625198D02*
X373229Y624804D01*
X374016D01*
X374410Y625198D01*
Y626772D01*
X374016Y627165D01*
X373229D01*
X372835Y626772D01*
X372048Y624804D02*
X370474D01*
Y625198D01*
X372048Y626772D01*
Y627165D01*
X369687D02*
Y626772D01*
X369293D01*
Y627165D01*
X369687D01*
X367719D02*
X366932D01*
X367325D01*
Y624804D01*
X367719Y625198D01*
X270703Y567847D02*
X270276Y567421D01*
Y566568D01*
X270703Y566142D01*
X272408D01*
X272835Y566568D01*
Y567421D01*
X272408Y567847D01*
X270276Y570406D02*
X270703Y569553D01*
X271555Y568700D01*
X272408D01*
X272835Y569127D01*
Y569979D01*
X272408Y570406D01*
X271982D01*
X271555Y569979D01*
Y568700D01*
X272835Y571258D02*
X272408D01*
Y571685D01*
X272835D01*
Y571258D01*
Y573390D02*
Y574243D01*
Y573817D01*
X270276D01*
X270703Y573390D01*
X266595Y577347D02*
X266168Y576921D01*
Y576068D01*
X266595Y575642D01*
X268300D01*
X268727Y576068D01*
Y576921D01*
X268300Y577347D01*
X266168Y579906D02*
Y578200D01*
X267448D01*
X267021Y579053D01*
Y579479D01*
X267448Y579906D01*
X268300D01*
X268727Y579479D01*
Y578626D01*
X268300Y578200D01*
X268727Y580758D02*
X268300D01*
Y581185D01*
X268727D01*
Y580758D01*
Y582890D02*
Y583743D01*
Y583317D01*
X266168D01*
X266595Y582890D01*
X280315Y713386D02*
Y715944D01*
X281594D01*
X282020Y715518D01*
Y714665D01*
X281594Y714239D01*
X280315D01*
X281168D02*
X282020Y713386D01*
X282873Y715518D02*
X283300Y715944D01*
X284152D01*
X284579Y715518D01*
Y715092D01*
X284152Y714665D01*
X283726D01*
X284152D01*
X284579Y714239D01*
Y713812D01*
X284152Y713386D01*
X283300D01*
X282873Y713812D01*
X285431Y715944D02*
X287137D01*
Y715518D01*
X285431Y713812D01*
Y713386D01*
X460630Y102756D02*
Y100198D01*
X459351D01*
X458924Y100624D01*
Y101477D01*
X459351Y101903D01*
X460630D01*
X459777D02*
X458924Y102756D01*
X458072Y100624D02*
X457645Y100198D01*
X456793D01*
X456366Y100624D01*
Y101050D01*
X456793Y101477D01*
X457219D01*
X456793D01*
X456366Y101903D01*
Y102330D01*
X456793Y102756D01*
X457645D01*
X458072Y102330D01*
X453808Y100198D02*
X454661Y100624D01*
X455513Y101477D01*
Y102330D01*
X455087Y102756D01*
X454234D01*
X453808Y102330D01*
Y101903D01*
X454234Y101477D01*
X455513D01*
X403608Y616405D02*
X403936Y616733D01*
Y617389D01*
X403608Y617717D01*
X402296D01*
X401968Y617389D01*
Y616733D01*
X402296Y616405D01*
X401968Y615749D02*
Y615093D01*
Y615421D01*
X403936D01*
X403608Y615749D01*
Y614109D02*
X403936Y613781D01*
Y613125D01*
X403608Y612797D01*
X403280D01*
X402952Y613125D01*
Y613453D01*
Y613125D01*
X402624Y612797D01*
X402296D01*
X401968Y613125D01*
Y613781D01*
X402296Y614109D01*
X401968Y612141D02*
X402296D01*
Y611813D01*
X401968D01*
Y612141D01*
Y610501D02*
Y609845D01*
Y610173D01*
X403936D01*
X403608Y610501D01*
X611548Y512337D02*
X612204Y512993D01*
Y514305D01*
X611548Y514961D01*
X608924D01*
X608268Y514305D01*
Y512993D01*
X608924Y512337D01*
X608268Y508401D02*
Y511025D01*
X610891Y508401D01*
X611548D01*
X612204Y509057D01*
Y510369D01*
X611548Y511025D01*
X612204Y504465D02*
X611548Y505777D01*
X610236Y507089D01*
X608924D01*
X608268Y506433D01*
Y505121D01*
X608924Y504465D01*
X609580D01*
X610236Y505121D01*
Y507089D01*
X467553Y650524D02*
X467127Y650098D01*
Y649245D01*
X467553Y648819D01*
X469259D01*
X469685Y649245D01*
Y650098D01*
X469259Y650524D01*
X469685Y653083D02*
Y651377D01*
X467980Y653083D01*
X467553D01*
X467127Y652656D01*
Y651803D01*
X467553Y651377D01*
X467127Y653935D02*
Y655641D01*
X467553D01*
X469259Y653935D01*
X469685D01*
X610918Y284542D02*
X611574Y285197D01*
Y286509D01*
X610918Y287165D01*
X608294D01*
X607638Y286509D01*
Y285197D01*
X608294Y284542D01*
X607638Y280606D02*
Y283230D01*
X610262Y280606D01*
X610918D01*
X611574Y281262D01*
Y282574D01*
X610918Y283230D01*
Y279294D02*
X611574Y278638D01*
Y277326D01*
X610918Y276670D01*
X610262D01*
X609606Y277326D01*
X608950Y276670D01*
X608294D01*
X607638Y277326D01*
Y278638D01*
X608294Y279294D01*
X608950D01*
X609606Y278638D01*
X610262Y279294D01*
X610918D01*
X609606Y278638D02*
Y277326D01*
X393377Y448880D02*
X393804Y448454D01*
X394656D01*
X395083Y448880D01*
Y450586D01*
X394656Y451012D01*
X393804D01*
X393377Y450586D01*
X392525Y448880D02*
X392098Y448454D01*
X391245D01*
X390819Y448880D01*
Y449306D01*
X391245Y449733D01*
X391672D01*
X391245D01*
X390819Y450159D01*
Y450586D01*
X391245Y451012D01*
X392098D01*
X392525Y450586D01*
X389966Y448880D02*
X389540Y448454D01*
X388687D01*
X388261Y448880D01*
Y450586D01*
X388687Y451012D01*
X389540D01*
X389966Y450586D01*
Y448880D01*
X387408Y451012D02*
Y450586D01*
X386982D01*
Y451012D01*
X387408D01*
X385276D02*
X384423D01*
X384850D01*
Y448454D01*
X385276Y448880D01*
X320210Y460301D02*
X319882Y460629D01*
X319226D01*
X318898Y460301D01*
Y458989D01*
X319226Y458661D01*
X319882D01*
X320210Y458989D01*
X320866Y460301D02*
X321194Y460629D01*
X321849D01*
X322177Y460301D01*
Y459973D01*
X321849Y459645D01*
X321521D01*
X321849D01*
X322177Y459317D01*
Y458989D01*
X321849Y458661D01*
X321194D01*
X320866Y458989D01*
X322833Y458661D02*
X323489D01*
X323161D01*
Y460629D01*
X322833Y460301D01*
X324473Y458661D02*
Y458989D01*
X324801D01*
Y458661D01*
X324473D01*
X326113D02*
X326769D01*
X326441D01*
Y460629D01*
X326113Y460301D01*
X299030Y439389D02*
X298604Y439816D01*
X297751D01*
X297324Y439389D01*
Y437684D01*
X297751Y437257D01*
X298604D01*
X299030Y437684D01*
X300309Y438963D02*
X301162D01*
X301588Y438537D01*
Y437257D01*
X300309D01*
X299883Y437684D01*
X300309Y438110D01*
X301588D01*
X302441Y437257D02*
X303294D01*
X302867D01*
Y439816D01*
X302441Y439389D01*
X266733Y632677D02*
X269291D01*
Y633956D01*
X268865Y634383D01*
X267160D01*
X266733Y633956D01*
Y632677D01*
Y636941D02*
X267160Y636088D01*
X268012Y635236D01*
X268865D01*
X269291Y635662D01*
Y636515D01*
X268865Y636941D01*
X268439D01*
X268012Y636515D01*
Y635236D01*
X269291Y637794D02*
X268865D01*
Y638220D01*
X269291D01*
Y637794D01*
Y639926D02*
Y640778D01*
Y640352D01*
X266733D01*
X267160Y639926D01*
X361615Y459449D02*
X364173D01*
Y460728D01*
X363747Y461154D01*
X362041D01*
X361615Y460728D01*
Y459449D01*
X364173Y462007D02*
Y462860D01*
Y462433D01*
X361615D01*
X362041Y462007D01*
X364173Y465844D02*
Y464139D01*
X362468Y465844D01*
X362041D01*
X361615Y465418D01*
Y464565D01*
X362041Y464139D01*
X364173Y466697D02*
X363747D01*
Y467124D01*
X364173D01*
Y466697D01*
Y468829D02*
Y469682D01*
Y469255D01*
X361615D01*
X362041Y468829D01*
X281690Y461713D02*
X284248D01*
Y462992D01*
X283822Y463418D01*
X282116D01*
X281690Y462992D01*
Y461713D01*
X284248Y464271D02*
Y465124D01*
Y464697D01*
X281690D01*
X282116Y464271D01*
Y466403D02*
X281690Y466829D01*
Y467682D01*
X282116Y468108D01*
X282542D01*
X282969Y467682D01*
Y467256D01*
Y467682D01*
X283395Y468108D01*
X283822D01*
X284248Y467682D01*
Y466829D01*
X283822Y466403D01*
X284248Y468961D02*
X283822D01*
Y469387D01*
X284248D01*
Y468961D01*
Y471093D02*
Y471946D01*
Y471519D01*
X281690D01*
X282116Y471093D01*
X230619Y459260D02*
Y456702D01*
X231898D01*
X232324Y457128D01*
Y458833D01*
X231898Y459260D01*
X230619D01*
X234883Y458833D02*
X234456Y459260D01*
X233604D01*
X233177Y458833D01*
Y457128D01*
X233604Y456702D01*
X234456D01*
X234883Y457128D01*
X235735Y457981D02*
X237441D01*
X236588Y458833D02*
Y457128D01*
X238294Y457981D02*
X239999D01*
X239146Y458833D02*
Y457128D01*
X240852Y457981D02*
X242557D01*
X241705Y458833D02*
Y457128D01*
X230640Y409268D02*
Y406709D01*
X231919D01*
X232346Y407136D01*
Y408841D01*
X231919Y409268D01*
X230640D01*
X234904Y408841D02*
X234477Y409268D01*
X233625D01*
X233198Y408841D01*
Y407136D01*
X233625Y406709D01*
X234477D01*
X234904Y407136D01*
X235757Y407989D02*
X237462D01*
X238315D02*
X240020D01*
X240873D02*
X242579D01*
X449639Y490421D02*
X451344D01*
X451771Y490847D01*
Y491700D01*
X451344Y492126D01*
X449639D01*
X449213Y491700D01*
Y490847D01*
X450065Y491273D02*
X449213Y490421D01*
Y490847D02*
X449639Y490421D01*
X451771Y487862D02*
Y489568D01*
X450492D01*
X450918Y488715D01*
Y488289D01*
X450492Y487862D01*
X449639D01*
X449213Y488289D01*
Y489142D01*
X449639Y489568D01*
X365485Y572080D02*
Y573786D01*
X365059Y574212D01*
X364206D01*
X363779Y573786D01*
Y572080D01*
X364206Y571654D01*
X365059D01*
X364632Y572506D02*
X365485Y571654D01*
X365059D02*
X365485Y572080D01*
X368043Y574212D02*
X367191Y573786D01*
X366338Y572933D01*
Y572080D01*
X366764Y571654D01*
X367617D01*
X368043Y572080D01*
Y572506D01*
X367617Y572933D01*
X366338D01*
X342520Y661811D02*
Y664369D01*
X343799D01*
X344225Y663943D01*
Y663090D01*
X343799Y662664D01*
X342520D01*
X343372D02*
X344225Y661811D01*
X345078D02*
X345931D01*
X345504D01*
Y664369D01*
X345078Y663943D01*
X347210D02*
X347636Y664369D01*
X348489D01*
X348915Y663943D01*
Y662237D01*
X348489Y661811D01*
X347636D01*
X347210Y662237D01*
Y663943D01*
X349768Y661811D02*
Y662237D01*
X350194D01*
Y661811D01*
X349768D01*
X351900D02*
X352753D01*
X352326D01*
Y664369D01*
X351900Y663943D01*
X366142Y643307D02*
X364174D01*
Y644291D01*
X364502Y644619D01*
X365158D01*
X365486Y644291D01*
Y643307D01*
Y643963D02*
X366142Y644619D01*
Y645275D02*
Y645931D01*
Y645603D01*
X364174D01*
X364502Y645275D01*
X364174Y648227D02*
Y646915D01*
X365158D01*
X364830Y647571D01*
Y647899D01*
X365158Y648227D01*
X365814D01*
X366142Y647899D01*
Y647243D01*
X365814Y646915D01*
X366142Y648883D02*
X365814D01*
Y649211D01*
X366142D01*
Y648883D01*
Y650523D02*
Y651179D01*
Y650851D01*
X364174D01*
X364502Y650523D01*
X270472Y619291D02*
X267914D01*
Y620571D01*
X268341Y620997D01*
X269193D01*
X269620Y620571D01*
Y619291D01*
Y620144D02*
X270472Y620997D01*
Y621850D02*
Y622703D01*
Y622276D01*
X267914D01*
X268341Y621850D01*
X270046Y623982D02*
X270472Y624408D01*
Y625261D01*
X270046Y625687D01*
X268341D01*
X267914Y625261D01*
Y624408D01*
X268341Y623982D01*
X268767D01*
X269193Y624408D01*
Y625687D01*
X270472Y626540D02*
X270046D01*
Y626966D01*
X270472D01*
Y626540D01*
Y628672D02*
Y629524D01*
Y629098D01*
X267914D01*
X268341Y628672D01*
X273622Y657480D02*
Y660039D01*
X274901D01*
X275328Y659612D01*
Y658760D01*
X274901Y658333D01*
X273622D01*
X274475D02*
X275328Y657480D01*
X277886D02*
X276180D01*
X277886Y659186D01*
Y659612D01*
X277459Y660039D01*
X276607D01*
X276180Y659612D01*
X280444Y657480D02*
X278738D01*
X280444Y659186D01*
Y659612D01*
X280018Y660039D01*
X279165D01*
X278738Y659612D01*
X281297Y657480D02*
Y657907D01*
X281723D01*
Y657480D01*
X281297D01*
X283429D02*
X284281D01*
X283855D01*
Y660039D01*
X283429Y659612D01*
X605118Y234252D02*
X607676D01*
Y232973D01*
X607250Y232546D01*
X606397D01*
X605971Y232973D01*
Y234252D01*
Y233399D02*
X605118Y232546D01*
X607250Y231694D02*
X607676Y231267D01*
Y230415D01*
X607250Y229988D01*
X606824D01*
X606397Y230415D01*
Y230841D01*
Y230415D01*
X605971Y229988D01*
X605545D01*
X605118Y230415D01*
Y231267D01*
X605545Y231694D01*
X607676Y227430D02*
Y229135D01*
X606397D01*
X606824Y228283D01*
Y227856D01*
X606397Y227430D01*
X605545D01*
X605118Y227856D01*
Y228709D01*
X605545Y229135D01*
X372748Y480713D02*
Y483271D01*
X374027D01*
X374453Y482845D01*
Y481992D01*
X374027Y481566D01*
X372748D01*
X373601D02*
X374453Y480713D01*
X375306Y482845D02*
X375733Y483271D01*
X376585D01*
X377012Y482845D01*
Y482418D01*
X376585Y481992D01*
X376159D01*
X376585D01*
X377012Y481566D01*
Y481139D01*
X376585Y480713D01*
X375733D01*
X375306Y481139D01*
X377865Y482845D02*
X378291Y483271D01*
X379144D01*
X379570Y482845D01*
Y482418D01*
X379144Y481992D01*
X379570Y481566D01*
Y481139D01*
X379144Y480713D01*
X378291D01*
X377865Y481139D01*
Y481566D01*
X378291Y481992D01*
X377865Y482418D01*
Y482845D01*
X378291Y481992D02*
X379144D01*
X380423Y480713D02*
Y481139D01*
X380849D01*
Y480713D01*
X380423D01*
X382555D02*
X383407D01*
X382981D01*
Y483271D01*
X382555Y482845D01*
X375234Y549213D02*
X377792D01*
Y547934D01*
X377366Y547507D01*
X376513D01*
X376087Y547934D01*
Y549213D01*
Y548360D02*
X375234Y547507D01*
X377366Y546655D02*
X377792Y546228D01*
Y545375D01*
X377366Y544949D01*
X376939D01*
X376513Y545375D01*
Y545802D01*
Y545375D01*
X376087Y544949D01*
X375660D01*
X375234Y545375D01*
Y546228D01*
X375660Y546655D01*
Y544096D02*
X375234Y543670D01*
Y542817D01*
X375660Y542391D01*
X377366D01*
X377792Y542817D01*
Y543670D01*
X377366Y544096D01*
X376939D01*
X376513Y543670D01*
Y542391D01*
X375234Y541538D02*
X375660D01*
Y541112D01*
X375234D01*
Y541538D01*
Y539406D02*
Y538553D01*
Y538980D01*
X377792D01*
X377366Y539406D01*
X406299Y450394D02*
X408857D01*
Y449115D01*
X408431Y448688D01*
X407578D01*
X407152Y449115D01*
Y450394D01*
Y449541D02*
X406299Y448688D01*
Y446556D02*
X408857D01*
X407578Y447835D01*
Y446130D01*
X406299Y445277D02*
Y444424D01*
Y444851D01*
X408857D01*
X408431Y445277D01*
X406299Y443145D02*
X406726D01*
Y442719D01*
X406299D01*
Y443145D01*
Y441013D02*
Y440161D01*
Y440587D01*
X408857D01*
X408431Y441013D01*
X294748Y468213D02*
Y470771D01*
X296027D01*
X296453Y470345D01*
Y469492D01*
X296027Y469066D01*
X294748D01*
X295601D02*
X296453Y468213D01*
X298585D02*
Y470771D01*
X297306Y469492D01*
X299012D01*
X301570Y468213D02*
X299865D01*
X301570Y469918D01*
Y470345D01*
X301144Y470771D01*
X300291D01*
X299865Y470345D01*
X302423Y468213D02*
Y468639D01*
X302849D01*
Y468213D01*
X302423D01*
X304555D02*
X305407D01*
X304981D01*
Y470771D01*
X304555Y470345D01*
X300748Y450213D02*
Y447654D01*
X299469D01*
X299043Y448081D01*
Y448934D01*
X299469Y449360D01*
X300748D01*
X299895D02*
X299043Y450213D01*
X296911D02*
Y447654D01*
X298190Y448934D01*
X296484D01*
X295632Y448081D02*
X295205Y447654D01*
X294353D01*
X293926Y448081D01*
Y448507D01*
X294353Y448934D01*
X294779D01*
X294353D01*
X293926Y449360D01*
Y449786D01*
X294353Y450213D01*
X295205D01*
X295632Y449786D01*
X293073Y450213D02*
Y449786D01*
X292647D01*
Y450213D01*
X293073D01*
X290942D02*
X290089D01*
X290515D01*
Y447654D01*
X290942Y448081D01*
X324217Y441957D02*
Y439398D01*
X322937D01*
X322511Y439825D01*
Y440678D01*
X322937Y441104D01*
X324217D01*
X323364D02*
X322511Y441957D01*
X320379D02*
Y439398D01*
X321658Y440678D01*
X319953D01*
X317821Y441957D02*
Y439398D01*
X319100Y440678D01*
X317395D01*
X316542Y441957D02*
Y441530D01*
X316115D01*
Y441957D01*
X316542D01*
X314410D02*
X313557D01*
X313984D01*
Y439398D01*
X314410Y439825D01*
X378346Y525197D02*
X375788D01*
Y526476D01*
X376215Y526902D01*
X377067D01*
X377494Y526476D01*
Y525197D01*
Y526050D02*
X378346Y526902D01*
Y529034D02*
X375788D01*
X377067Y527755D01*
Y529461D01*
X375788Y532019D02*
Y530313D01*
X377067D01*
X376641Y531166D01*
Y531593D01*
X377067Y532019D01*
X377920D01*
X378346Y531593D01*
Y530740D01*
X377920Y530313D01*
X378346Y532872D02*
X377920D01*
Y533298D01*
X378346D01*
Y532872D01*
Y535004D02*
Y535856D01*
Y535430D01*
X375788D01*
X376215Y535004D01*
X380513Y613386D02*
X382645D01*
X383071Y613812D01*
Y614665D01*
X382645Y615091D01*
X380513D01*
X383071Y617223D02*
X380513D01*
X381792Y615944D01*
Y617650D01*
X383071Y618502D02*
X382645D01*
Y618929D01*
X383071D01*
Y618502D01*
Y620634D02*
Y621487D01*
Y621061D01*
X380513D01*
X380939Y620634D01*
X330117Y662992D02*
X327985D01*
X327559Y662566D01*
Y661713D01*
X327985Y661287D01*
X330117D01*
Y658728D02*
X329691Y659581D01*
X328838Y660434D01*
X327985D01*
X327559Y660007D01*
Y659155D01*
X327985Y658728D01*
X328412D01*
X328838Y659155D01*
Y660434D01*
X327559Y657876D02*
X327985D01*
Y657449D01*
X327559D01*
Y657876D01*
Y655744D02*
Y654891D01*
Y655317D01*
X330117D01*
X329691Y655744D01*
X275327Y356411D02*
Y358116D01*
X274901Y358542D01*
X274048D01*
X273622Y358116D01*
Y356411D01*
X274048Y355984D01*
X274901D01*
X274475Y356837D02*
X275327Y355984D01*
X274901D02*
X275327Y356411D01*
X276180Y358542D02*
X277886D01*
Y358116D01*
X276180Y356411D01*
Y355984D01*
X379265Y338911D02*
Y340223D01*
X378937Y340550D01*
X378281D01*
X377953Y340223D01*
Y338911D01*
X378281Y338583D01*
X378937D01*
X378609Y339239D02*
X379265Y338583D01*
X378937D02*
X379265Y338911D01*
X379921Y340223D02*
X380249Y340550D01*
X380905D01*
X381233Y340223D01*
Y339895D01*
X380905Y339567D01*
X381233Y339239D01*
Y338911D01*
X380905Y338583D01*
X380249D01*
X379921Y338911D01*
Y339239D01*
X380249Y339567D01*
X379921Y339895D01*
Y340223D01*
X380249Y339567D02*
X380905D01*
X373622Y521654D02*
X371064D01*
Y522933D01*
X371490Y523359D01*
X372343D01*
X372769Y522933D01*
Y521654D01*
Y522506D02*
X373622Y523359D01*
X373196Y524212D02*
X373622Y524638D01*
Y525491D01*
X373196Y525917D01*
X371490D01*
X371064Y525491D01*
Y524638D01*
X371490Y524212D01*
X371917D01*
X372343Y524638D01*
Y525917D01*
X373196Y526770D02*
X373622Y527197D01*
Y528049D01*
X373196Y528476D01*
X371490D01*
X371064Y528049D01*
Y527197D01*
X371490Y526770D01*
X371917D01*
X372343Y527197D01*
Y528476D01*
X373622Y529328D02*
X373196D01*
Y529755D01*
X373622D01*
Y529328D01*
Y531460D02*
Y532313D01*
Y531887D01*
X371064D01*
X371490Y531460D01*
X292126Y690158D02*
X294684D01*
Y688878D01*
X294258Y688452D01*
X293405D01*
X292979Y688878D01*
Y690158D01*
Y689305D02*
X292126Y688452D01*
Y685894D02*
Y687599D01*
X293831Y685894D01*
X294258D01*
X294684Y686320D01*
Y687173D01*
X294258Y687599D01*
X294684Y683336D02*
Y685041D01*
X293405D01*
X293831Y684188D01*
Y683762D01*
X293405Y683336D01*
X292552D01*
X292126Y683762D01*
Y684615D01*
X292552Y685041D01*
X292126Y682483D02*
X292552D01*
Y682057D01*
X292126D01*
Y682483D01*
Y680351D02*
Y679498D01*
Y679925D01*
X294684D01*
X294258Y680351D01*
X432191Y445335D02*
Y447894D01*
X433471D01*
X433897Y447467D01*
Y446615D01*
X433471Y446188D01*
X432191D01*
X434750Y445335D02*
X435602D01*
X435176D01*
Y447041D01*
X434750D01*
X436881Y445335D02*
Y447041D01*
X438161D01*
X438587Y446615D01*
Y445335D01*
X439440Y444909D02*
X441145D01*
X441998Y445335D02*
Y447041D01*
X442851Y447894D01*
X443704Y447041D01*
Y445335D01*
Y446615D01*
X441998D01*
X444556Y445335D02*
X445409D01*
X444983D01*
Y447894D01*
X444556Y447467D01*
X462862Y165222D02*
X462206Y164566D01*
Y163254D01*
X462862Y162598D01*
X465486D01*
X466142Y163254D01*
Y164566D01*
X465486Y165222D01*
X466142Y169158D02*
Y166534D01*
X463518Y169158D01*
X462862D01*
X462206Y168502D01*
Y167190D01*
X462862Y166534D01*
X465486Y170470D02*
X466142Y171126D01*
Y172438D01*
X465486Y173094D01*
X462862D01*
X462206Y172438D01*
Y171126D01*
X462862Y170470D01*
X463518D01*
X464174Y171126D01*
Y173094D01*
X318831Y177165D02*
X320963D01*
X321389Y177592D01*
Y178445D01*
X320963Y178871D01*
X318831D01*
X319257Y179724D02*
X318831Y180150D01*
Y181003D01*
X319257Y181429D01*
X319684D01*
X320110Y181003D01*
X320536Y181429D01*
X320963D01*
X321389Y181003D01*
Y180150D01*
X320963Y179724D01*
X320536D01*
X320110Y180150D01*
X319684Y179724D01*
X319257D01*
X320110Y180150D02*
Y181003D01*
X321389Y182282D02*
X320963D01*
Y182708D01*
X321389D01*
Y182282D01*
Y186119D02*
Y184414D01*
X319684Y186119D01*
X319257D01*
X318831Y185693D01*
Y184840D01*
X319257Y184414D01*
X351654Y364567D02*
Y367125D01*
X352933D01*
X353359Y366699D01*
Y365846D01*
X352933Y365420D01*
X351654D01*
X352506D02*
X353359Y364567D01*
X355491D02*
Y367125D01*
X354212Y365846D01*
X355917D01*
X356770Y366699D02*
X357196Y367125D01*
X358049D01*
X358475Y366699D01*
Y364993D01*
X358049Y364567D01*
X357196D01*
X356770Y364993D01*
Y366699D01*
X359328Y364567D02*
Y364993D01*
X359755D01*
Y364567D01*
X359328D01*
X363166D02*
X361460D01*
X363166Y366272D01*
Y366699D01*
X362739Y367125D01*
X361887D01*
X361460Y366699D01*
X376658Y449988D02*
Y447430D01*
X375378D01*
X374952Y447857D01*
Y448709D01*
X375378Y449136D01*
X376658D01*
X375805D02*
X374952Y449988D01*
X372820D02*
Y447430D01*
X374099Y448709D01*
X372394D01*
X371541Y447857D02*
X371115Y447430D01*
X370262D01*
X369835Y447857D01*
Y449562D01*
X370262Y449988D01*
X371115D01*
X371541Y449562D01*
Y447857D01*
X368983Y449988D02*
Y449562D01*
X368556D01*
Y449988D01*
X368983D01*
X366851D02*
X365998D01*
X366425D01*
Y447430D01*
X366851Y447857D01*
X406169Y335270D02*
X406595Y334843D01*
X407448D01*
X407874Y335270D01*
Y336975D01*
X407448Y337402D01*
X406595D01*
X406169Y336975D01*
Y336122D01*
X407021D01*
X383858Y334843D02*
Y337402D01*
X382579D01*
X382153Y336975D01*
Y335270D01*
X382579Y334843D01*
X383858D01*
X362468Y335270D02*
X362894Y334843D01*
X363747D01*
X364173Y335270D01*
Y335696D01*
X363747Y336122D01*
X362894D01*
X362468Y336549D01*
Y336975D01*
X362894Y337402D01*
X363747D01*
X364173Y336975D01*
X400099Y481644D02*
X399673Y482070D01*
X398820D01*
X398394Y481644D01*
Y479938D01*
X398820Y479512D01*
X399673D01*
X400099Y479938D01*
Y480791D01*
X399247D01*
X422409Y482070D02*
Y479512D01*
X423689D01*
X424115Y479938D01*
Y481644D01*
X423689Y482070D01*
X422409D01*
X443800Y481644D02*
X443374Y482070D01*
X442521D01*
X442095Y481644D01*
Y481217D01*
X442521Y480791D01*
X443374D01*
X443800Y480365D01*
Y479938D01*
X443374Y479512D01*
X442521D01*
X442095Y479938D01*
X321099Y481144D02*
X320673Y481570D01*
X319820D01*
X319394Y481144D01*
Y479438D01*
X319820Y479012D01*
X320673D01*
X321099Y479438D01*
Y480291D01*
X320247D01*
X343409Y481570D02*
Y479012D01*
X344689D01*
X345115Y479438D01*
Y481144D01*
X344689Y481570D01*
X343409D01*
X364800Y481144D02*
X364374Y481570D01*
X363521D01*
X363094Y481144D01*
Y480718D01*
X363521Y480291D01*
X364374D01*
X364800Y479865D01*
Y479438D01*
X364374Y479012D01*
X363521D01*
X363094Y479438D01*
X327428Y334876D02*
X327855Y334450D01*
X328708D01*
X329134Y334876D01*
Y336581D01*
X328708Y337008D01*
X327855D01*
X327428Y336581D01*
Y335729D01*
X328281D01*
X305118Y334450D02*
Y337008D01*
X303839D01*
X303413Y336581D01*
Y334876D01*
X303839Y334450D01*
X305118D01*
X283728Y334876D02*
X284154Y334450D01*
X285007D01*
X285433Y334876D01*
Y335302D01*
X285007Y335729D01*
X284154D01*
X283728Y336155D01*
Y336581D01*
X284154Y337008D01*
X285007D01*
X285433Y336581D01*
M02*
