M48
;Layer_Color=9474304
;FILE_FORMAT=2:3
INCH,LZ
;TYPE=PLATED
T1F00S00C0.016
T2F00S00C0.031
T3F00S00C0.035
T4F00S00C0.039
%
T01
X01022Y00204
X02099Y00303
X02358Y00308
Y00261
X03018Y00238
X03145Y00147
X03146Y00115
Y00084
X03967Y00064
X04539Y0031
X04538Y0037
X04373Y00536
X04287Y00536
X0419Y00471
X04036Y00456
X04006Y00483
X04017Y00527
X04008Y00427
X04035Y00373
X04036Y00322
X03915Y00876
Y00914
Y00951
Y00989
X03939Y01027
X03949Y01218
X04Y01249
X03964Y01287
X04068Y01222
X04119Y01182
X04011Y01165
X04055Y01117
X04385Y01107
Y01007
Y00962
X04347Y00806
X04315Y00807
Y00731
X04345
X0434Y01177
X04355Y01277
X04395Y01387
X04465Y01392
X0433Y01452
X04051Y01568
X03891Y0159
X03892Y01545
X03839Y01563
X03716Y01648
X03741Y01423
X03732Y01288
X03679Y01034
X0364
X036
X0362Y00994
X03659
X03701
X03679Y00955
X0364
X03601Y00954
X04581Y00995
Y01075
X04594Y01155
X048Y00977
X04835Y00922
Y00847
X0483Y00742
X04848Y00554
X04875Y01042
X04937Y01239
X05082Y01285
X0495Y01442
Y01502
X04939Y01642
Y01672
X0471Y01692
Y01617
X04605Y01732
X04605Y01792
X04555Y01841
X04179Y01758
X04094Y01759
X05125Y00922
X05128Y00848
X03561Y00955
X0358Y00994
X03561Y01034
X03446Y0143
X03457Y01653
X03337Y01568
X033Y01551
X03301Y01588
X03156Y01568
X03025Y01555
X02937Y01555
X02888Y01607
X03048Y01756
X03134Y01758
X02563Y01704
X0256Y01594
X02459Y01594
Y01672
X02281Y0161
Y01582
X02326Y0154
X02362Y01376
X02305Y01317
X02251Y01327
X02379Y01163
X02442Y01166
X02627Y01176
X02692Y01236
X02797
X02887Y01141
X02772Y00991
X02727Y01036
X02842Y00731
X02777Y00621
X02597Y00611
X02472Y00766
X02417Y00856
X02358Y00404
Y00356
X02097Y00354
X02071Y00407
X02098Y00437
X02069Y00464
X0208Y00508
X03002Y00391
X03062
X03354Y00427
X03356Y00483
X03345Y00527
X02552Y01301
X02089Y01571
X02114Y01603
X02117Y01649
X01998Y01492
X01872Y01539
X01907Y01754
X01582
X01614Y01544
X01452Y01592
X01418Y01569
Y01614
X01254Y01633
X01232Y01601
X01254Y01569
X01228Y01463
X01156Y01462
X01123Y01595
X01122Y01708
X01Y01698
X01001Y01758
X01053Y01775
X00904Y01795
X00903Y01698
X00818Y01649
Y01574
X01002Y01593
X00715Y01697
X00714Y01757
X00894Y01299
X00872Y01008
X00872Y00977
X01036Y00967
Y01012
Y01112
X01284Y01239
X01285Y01299
X01699Y0134
X01773Y01338
X01806Y0124
X0197Y01179
Y01141
Y01103
Y01065
Y01028
Y0099
Y00952
Y00914
Y00876
X01742Y00936
X01703
X01664Y00935
X01624Y00936
X01643Y00975
X01683
X01721
X01764
X01742Y01015
X01703
X01663
X01624
X01638Y01167
X01228Y00718
X0117Y00776
X00967Y00793
X00968Y00717
X01001Y00508
X0092Y00509
X01095Y00433
X01417Y00407
X01419Y00464
X01408Y00508
X00616Y00527
X00556Y00672
X00546Y0079
X00543Y00865
X00624Y0088
X00546Y01008
X00509Y0098
X00704Y01031
X00551Y01221
X00551Y01281
X00424Y01365
X00423Y01433
X00448Y01496
X00257Y01622
X0036Y01197
X00267Y0086
Y00785
X00593Y02209
X00625Y02209
X00874Y02246
X00924
X00973
X01023
X01072
X01123Y02269
X01173Y02356
Y02401
Y02446
Y02486
X01126
Y02446
Y02406
X01221Y02401
Y02356
Y02446
X01156Y02526
X01101
X01046
X00986
X00926
X00951Y02486
X01011
X01071
X00911Y02461
X00866
Y02411
X00911
Y02361
X00866
X00888Y02493
X00971Y02186
Y02136
X00967Y02091
X01053Y02092
X01051Y02136
Y02186
X0088Y02091
X01398Y0216
X01437Y02129
X01815Y02259
Y02298
Y02337
X0202Y02341
Y02302
Y02262
X02239Y02121
X02284Y02152
X02581Y02149
X02666
X02802Y01967
X02886Y01965
X03229Y01995
X03435Y02157
Y02197
Y02236
Y02276
X0364Y0228
Y0224
Y02201
Y02161
X04031Y01987
X04377Y01952
X04428
X0448
X04531
X04582
X04552Y02107
Y02157
X04472
Y02107
X04412Y02332
X04367
Y02382
X04412
Y02432
X04367
X0439Y02464
X04427Y02497
X04487
X04547
X04602
X04657
X04675Y02457
Y02417
Y02372
Y02327
Y02282
X04722
Y02327
Y02372
Y02417
X04627
Y02377
Y02457
X04572
X04512
X04452
X04332Y02262
T02
X01541Y00229
X01663Y00231
X01823
X01935Y0023
X03401Y00243
X03596Y00251
X03767Y00253
X03953Y00252
X03876Y00812
X03989Y00875
X02015Y00884
X01932Y00809
X00807Y01969
X00701Y01965
X00601Y01966
X04708Y01998
X04711Y02078
X04835Y02141
T03
X02507Y00471
Y00571
X02882Y00556
Y00456
X02942Y00991
X03042
X02517Y01071
X02417
T04
X00056Y00131
X00725
X01025
X01125
X01225
X01525
X01625
X01725
X01825
X0196Y00084
X02325Y00131
X02425
X02525
X02625
X02725
X02825
X02925
X03425
X03525
X03625
X03725
X04025
X04125
X04225
X04525
X05374
X01843Y02051
X01643
X02043
X02143
X03325Y02065
X03425
X03625
X03825
M30
