G04 Layer_Physical_Order=1*
G04 Layer_Color=255*
%FSLAX25Y25*%
%MOIN*%
G70*
G01*
G75*
%ADD10R,0.09409X0.23622*%
%ADD11R,0.12598X0.22047*%
%ADD12R,0.05500X0.06299*%
%ADD13R,0.06299X0.05500*%
%ADD14R,0.11811X0.06496*%
%ADD15R,0.04803X0.03583*%
G04:AMPARAMS|DCode=16|XSize=35.83mil|YSize=62.99mil|CornerRadius=8.96mil|HoleSize=0mil|Usage=FLASHONLY|Rotation=270.000|XOffset=0mil|YOffset=0mil|HoleType=Round|Shape=RoundedRectangle|*
%AMROUNDEDRECTD16*
21,1,0.03583,0.04508,0,0,270.0*
21,1,0.01791,0.06299,0,0,270.0*
1,1,0.01791,-0.02254,-0.00896*
1,1,0.01791,-0.02254,0.00896*
1,1,0.01791,0.02254,0.00896*
1,1,0.01791,0.02254,-0.00896*
%
%ADD16ROUNDEDRECTD16*%
%ADD17R,0.03583X0.04803*%
G04:AMPARAMS|DCode=18|XSize=35.83mil|YSize=62.99mil|CornerRadius=8.96mil|HoleSize=0mil|Usage=FLASHONLY|Rotation=180.000|XOffset=0mil|YOffset=0mil|HoleType=Round|Shape=RoundedRectangle|*
%AMROUNDEDRECTD18*
21,1,0.03583,0.04508,0,0,180.0*
21,1,0.01791,0.06299,0,0,180.0*
1,1,0.01791,-0.00896,0.02254*
1,1,0.01791,0.00896,0.02254*
1,1,0.01791,0.00896,-0.02254*
1,1,0.01791,-0.00896,-0.02254*
%
%ADD18ROUNDEDRECTD18*%
%ADD19R,0.02362X0.05906*%
%ADD20R,0.05906X0.02362*%
%ADD21R,0.06890X0.03150*%
%ADD22R,0.02362X0.07087*%
%ADD23R,0.03347X0.02362*%
%ADD24R,0.03150X0.06890*%
%ADD25R,0.12598X0.08268*%
%ADD26R,0.03543X0.08268*%
%ADD27O,0.11024X0.02756*%
%ADD28R,0.04724X0.06299*%
G04:AMPARAMS|DCode=29|XSize=39.37mil|YSize=15.75mil|CornerRadius=3.94mil|HoleSize=0mil|Usage=FLASHONLY|Rotation=180.000|XOffset=0mil|YOffset=0mil|HoleType=Round|Shape=RoundedRectangle|*
%AMROUNDEDRECTD29*
21,1,0.03937,0.00787,0,0,180.0*
21,1,0.03150,0.01575,0,0,180.0*
1,1,0.00787,-0.01575,0.00394*
1,1,0.00787,0.01575,0.00394*
1,1,0.00787,0.01575,-0.00394*
1,1,0.00787,-0.01575,-0.00394*
%
%ADD29ROUNDEDRECTD29*%
%ADD30C,0.13780*%
%ADD31C,0.11811*%
%ADD32C,0.01000*%
%ADD33C,0.01969*%
%ADD34C,0.03937*%
%ADD35C,0.02953*%
%ADD36C,0.19685*%
%ADD37C,0.02126*%
%ADD38C,0.01575*%
%ADD39C,0.01181*%
%ADD40C,0.01012*%
%ADD41C,0.02756*%
%ADD42C,0.19685*%
%ADD43C,0.09843*%
%ADD44R,0.09843X0.09843*%
%ADD45C,0.05906*%
%ADD46R,0.05906X0.05906*%
%ADD47C,0.15748*%
%ADD48R,0.15748X0.15748*%
%ADD49C,0.11811*%
%ADD50C,0.08000*%
%ADD51C,0.02756*%
%ADD52C,0.02362*%
G36*
X415388Y390551D02*
X464016Y390551D01*
X488579Y379997D01*
X492520Y383937D01*
X495590Y387008D01*
X501681Y393098D01*
X502677Y395504D01*
X502677Y398770D01*
X503714Y401273D01*
X504095Y401653D01*
X505996Y402441D01*
X511181D01*
X512441Y401181D01*
X533386Y380236D01*
X533386Y361102D01*
X533465Y361024D01*
Y155512D01*
X523622Y145669D01*
X475197D01*
X474803Y146063D01*
X467323Y153543D01*
Y233132D01*
X467792Y233305D01*
X468808Y232115D01*
X470577Y230605D01*
X472561Y229389D01*
X474710Y228499D01*
X476972Y227956D01*
X479291Y227773D01*
X481610Y227956D01*
X483873Y228499D01*
X486022Y229389D01*
X488005Y230605D01*
X489774Y232115D01*
X491285Y233884D01*
X492501Y235868D01*
X493391Y238017D01*
X493934Y240279D01*
X494117Y242598D01*
X493934Y244918D01*
X493391Y247180D01*
X492501Y249329D01*
X491285Y251312D01*
X489774Y253081D01*
X488005Y254592D01*
X486022Y255808D01*
X483873Y256698D01*
X481610Y257241D01*
X479291Y257424D01*
X476972Y257241D01*
X474710Y256698D01*
X472561Y255808D01*
X470577Y254592D01*
X468808Y253081D01*
X467792Y251891D01*
X467323Y252064D01*
Y332283D01*
X456606Y368490D01*
X449722Y373622D01*
X391880D01*
X377268Y365829D01*
X375590Y360236D01*
X375590Y354724D01*
X366535D01*
X366535Y367323D01*
X360236Y373622D01*
X318661D01*
X303580Y367338D01*
X299817Y363175D01*
X296850Y354724D01*
Y354724D01*
X287795Y354724D01*
X286221Y357874D01*
X282909Y362992D01*
X232283Y362992D01*
Y403150D01*
X293261D01*
X300394Y411811D01*
X300276Y412402D01*
X303883Y416009D01*
X310630Y416929D01*
X415388Y390551D01*
D02*
G37*
G36*
X374240Y243633D02*
X369364Y238756D01*
X368902Y238948D01*
Y240867D01*
X368755Y241607D01*
X368336Y242234D01*
X367708Y242653D01*
X366969Y242800D01*
X365177D01*
X364438Y242653D01*
X363811Y242234D01*
X363392Y241607D01*
X363245Y240867D01*
Y236360D01*
X363392Y235620D01*
X363811Y234993D01*
X364438Y234574D01*
X364544Y234553D01*
Y233345D01*
X360184D01*
Y231057D01*
X355752D01*
X352782Y234027D01*
Y242763D01*
X351828D01*
Y244094D01*
X374048D01*
X374240Y243633D01*
D02*
G37*
G36*
X348885Y233762D02*
X349217Y233266D01*
X354037Y228446D01*
X354533Y228115D01*
X355118Y227998D01*
X360184D01*
Y225845D01*
X367997D01*
X368039Y225632D01*
X368371Y225136D01*
X369148Y224358D01*
X368957Y223897D01*
X366877D01*
Y222463D01*
X366172D01*
X366048Y222648D01*
X365262Y223174D01*
X364334Y223358D01*
X363406Y223174D01*
X362619Y222648D01*
X362094Y221862D01*
X361909Y220934D01*
X362094Y220006D01*
X362619Y219219D01*
X363198Y218833D01*
Y216342D01*
X362619Y215955D01*
X362094Y215169D01*
X361977Y214583D01*
X361850Y214502D01*
X361431Y214397D01*
X360770Y214838D01*
X359842Y215023D01*
X358915Y214838D01*
X358128Y214313D01*
X357603Y213526D01*
X357418Y212598D01*
X357603Y211671D01*
X358128Y210884D01*
X358472Y210654D01*
Y210053D01*
X358260Y209911D01*
X357841Y209284D01*
X357711Y208630D01*
X357480Y208471D01*
X357193Y208374D01*
X357109Y208430D01*
X356565Y208538D01*
X353416D01*
X352872Y208430D01*
X352870Y208429D01*
X352370Y208696D01*
Y209173D01*
X352413Y209202D01*
X352895Y209923D01*
X353065Y210774D01*
X352895Y211625D01*
X352701Y211916D01*
X352782Y212417D01*
X352782D01*
X352782Y212417D01*
Y221306D01*
X342732D01*
Y233873D01*
X348863D01*
X348885Y233762D01*
D02*
G37*
G36*
X381104Y234433D02*
X386468D01*
X389304Y231596D01*
X389801Y231264D01*
X390386Y231148D01*
X392674D01*
X394266Y229555D01*
Y226157D01*
X395619D01*
Y224928D01*
X394345D01*
Y223471D01*
X393934Y223149D01*
X393546Y223255D01*
Y225689D01*
X393131D01*
X392979Y226189D01*
X393053Y226238D01*
X393579Y227025D01*
X393763Y227953D01*
X393579Y228881D01*
X393053Y229667D01*
X392266Y230193D01*
X391339Y230377D01*
X390411Y230193D01*
X389624Y229667D01*
X389546Y229550D01*
X387012D01*
Y231812D01*
X386865Y232552D01*
X386446Y233179D01*
X385819Y233598D01*
X385079Y233745D01*
X383288D01*
X382548Y233598D01*
X381921Y233179D01*
X381502Y232552D01*
X381355Y231812D01*
Y227304D01*
X381502Y226565D01*
X381921Y225938D01*
X382548Y225519D01*
X383288Y225372D01*
X385079D01*
X385546Y225464D01*
X386046Y225115D01*
Y217390D01*
X393546D01*
Y217504D01*
X393845Y217749D01*
X394345D01*
Y214779D01*
Y209779D01*
Y207345D01*
X392430D01*
X391845Y207229D01*
X391349Y206897D01*
X390992Y206540D01*
X390971D01*
X390386Y206424D01*
X389889Y206093D01*
X386779Y202982D01*
X385176D01*
Y207361D01*
X376877D01*
Y199861D01*
X385176D01*
Y199923D01*
X387413D01*
X387998Y200040D01*
X388494Y200371D01*
X391604Y203482D01*
X391625D01*
X392211Y203598D01*
X392707Y203930D01*
X393063Y204286D01*
X404409D01*
X408409Y200286D01*
X408366Y200068D01*
X408551Y199140D01*
X409076Y198353D01*
X409837Y197845D01*
X409843Y197808D01*
X409632Y197345D01*
X403235D01*
Y199928D01*
X394345D01*
Y199495D01*
X394285Y199019D01*
X385986D01*
Y192159D01*
X384285D01*
Y199019D01*
X375986D01*
Y195850D01*
X375486Y195698D01*
X375103Y196270D01*
X374317Y196796D01*
X373389Y196981D01*
X372461Y196796D01*
X371674Y196270D01*
X371149Y195484D01*
X370964Y194556D01*
X371149Y193628D01*
X371404Y193247D01*
X371183Y192676D01*
X371142Y192666D01*
X370258Y193550D01*
X370302Y193769D01*
X370117Y194696D01*
X369592Y195483D01*
X368805Y196009D01*
X367877Y196193D01*
X367823Y196182D01*
X367696Y196653D01*
X368192Y196985D01*
X371069Y199861D01*
X375176D01*
Y207361D01*
X372648D01*
Y208129D01*
X375964D01*
Y215629D01*
X367665D01*
Y208129D01*
X369589D01*
Y207361D01*
X366877D01*
Y199995D01*
X366477Y199595D01*
X363440D01*
X363288Y200096D01*
X363525Y200254D01*
X364050Y201040D01*
X364235Y201968D01*
X364050Y202896D01*
X363525Y203682D01*
X362738Y204208D01*
X362174Y204320D01*
X362223Y204820D01*
X364134D01*
X364874Y204967D01*
X365501Y205386D01*
X365920Y206013D01*
X366067Y206753D01*
Y208544D01*
X365920Y209284D01*
X365501Y209911D01*
X364874Y210330D01*
X364134Y210477D01*
X363360D01*
X363293Y210814D01*
X362962Y211310D01*
X362442Y211830D01*
X362427Y211896D01*
X362467Y212029D01*
X363052Y212238D01*
X363406Y212001D01*
X364334Y211816D01*
X365262Y212001D01*
X366048Y212527D01*
X366574Y213313D01*
X366758Y214241D01*
X366574Y215169D01*
X366257Y215643D01*
Y219405D01*
X366877D01*
Y216396D01*
X375176D01*
Y222629D01*
X375638Y222821D01*
X376877Y221582D01*
Y216396D01*
X379589D01*
Y215629D01*
X377664D01*
Y208129D01*
X385964D01*
Y215629D01*
X382647D01*
Y216396D01*
X385176D01*
Y223897D01*
X378888D01*
X377402Y225383D01*
X377593Y225845D01*
X378483D01*
Y231582D01*
X380029Y233127D01*
X380360Y233623D01*
X380477Y234209D01*
Y235212D01*
X381104D01*
Y234433D01*
D02*
G37*
G36*
X313973Y243433D02*
X313614Y243194D01*
X311459Y241039D01*
X309238D01*
X308499Y240892D01*
X307872Y240473D01*
X307712Y240233D01*
X305281D01*
Y240844D01*
X297781D01*
Y240233D01*
X295273D01*
X295113Y240473D01*
X294486Y240892D01*
X293746Y241039D01*
X289238D01*
X288498Y240892D01*
X287872Y240473D01*
X287453Y239845D01*
X287305Y239106D01*
Y237315D01*
X287453Y236575D01*
X287872Y235948D01*
X288498Y235529D01*
X289238Y235382D01*
X293746D01*
X294486Y235529D01*
X295113Y235948D01*
X295273Y236187D01*
X297781D01*
Y232545D01*
X305281D01*
Y236187D01*
X307712D01*
X307872Y235948D01*
X308499Y235529D01*
X309238Y235382D01*
X313746D01*
X314486Y235529D01*
X315113Y235948D01*
X315532Y236575D01*
X315679Y237315D01*
Y239106D01*
X315632Y239344D01*
X315979Y239740D01*
X327718D01*
Y232464D01*
X328874D01*
Y231770D01*
X327664D01*
Y224271D01*
X328874D01*
Y223503D01*
X327664D01*
Y216003D01*
X328874D01*
Y215235D01*
X327664D01*
Y207735D01*
X335816D01*
X336141Y207486D01*
X336863Y207187D01*
X337638Y207085D01*
X338413Y207187D01*
X339135Y207486D01*
X339755Y207962D01*
X339861Y208100D01*
X340361Y208084D01*
X340647Y207655D01*
X341434Y207130D01*
X342223Y206973D01*
X342628Y206568D01*
X342437Y206106D01*
X335592D01*
Y198606D01*
X343489D01*
X343638Y198425D01*
X343718Y198022D01*
X342859Y197163D01*
X342527Y196667D01*
X342411Y196081D01*
Y175803D01*
X342110D01*
Y165888D01*
X341956Y165734D01*
X329543D01*
Y175018D01*
X330884Y176359D01*
X331102Y176316D01*
X332030Y176500D01*
X332817Y177026D01*
X333342Y177812D01*
X333527Y178740D01*
X333342Y179668D01*
X332817Y180455D01*
X332030Y180980D01*
X331102Y181165D01*
X330174Y180980D01*
X329388Y180455D01*
X329168Y180125D01*
X328498Y180023D01*
X328401Y180102D01*
Y182212D01*
X328618Y182537D01*
X328802Y183465D01*
X328618Y184392D01*
X328092Y185179D01*
X327306Y185705D01*
X326378Y185889D01*
X325450Y185705D01*
X324663Y185179D01*
X324237Y184541D01*
X323737Y184693D01*
Y198658D01*
X323621Y199244D01*
X323289Y199740D01*
X311680Y211349D01*
X311184Y211681D01*
X310598Y211797D01*
X288863D01*
X286980Y213681D01*
X287171Y214142D01*
X292925D01*
Y222442D01*
X293382Y222545D01*
X294894D01*
Y228128D01*
X288090D01*
Y222545D01*
X287633Y222442D01*
X286201D01*
Y215113D01*
X285739Y214922D01*
X277643Y223018D01*
Y234335D01*
X279921Y236614D01*
X286470Y243933D01*
X313822D01*
X313973Y243433D01*
D02*
G37*
G36*
X297786Y606235D02*
X297497Y606177D01*
X296711Y605652D01*
X296185Y604865D01*
X296001Y603937D01*
X296185Y603009D01*
X296711Y602223D01*
X296896Y602099D01*
Y601473D01*
X295024D01*
Y595890D01*
X296896D01*
Y590158D01*
X297012Y589572D01*
X297344Y589076D01*
X300577Y585843D01*
Y583195D01*
X300471Y583174D01*
X299844Y582755D01*
X299425Y582128D01*
X299278Y581388D01*
Y576880D01*
X299425Y576140D01*
X299621Y575847D01*
X298576Y574803D01*
X292126D01*
X290158Y572835D01*
Y559449D01*
X287795Y557087D01*
X273622D01*
X273577Y557147D01*
Y569839D01*
X274008Y570270D01*
X274566Y569898D01*
X275305Y569750D01*
X279813D01*
X280553Y569898D01*
X281180Y570317D01*
X281599Y570944D01*
X281746Y571683D01*
Y573475D01*
X281599Y574214D01*
X281180Y574841D01*
X280553Y575260D01*
X279813Y575407D01*
X277491D01*
X277129Y575741D01*
Y583241D01*
X274455D01*
Y584083D01*
X277076D01*
Y591582D01*
X277495Y591778D01*
X285177D01*
X285762Y591894D01*
X286259Y592226D01*
X289923Y595890D01*
X293953D01*
Y601473D01*
X292081D01*
Y604485D01*
X294330Y606735D01*
X297737D01*
X297786Y606235D01*
D02*
G37*
G36*
X375498Y583363D02*
Y581906D01*
X374453D01*
Y573016D01*
X375498D01*
Y572441D01*
X355572D01*
X355381Y572903D01*
X357871Y575393D01*
X358333Y575202D01*
Y574912D01*
X358480Y574172D01*
X358899Y573545D01*
X359526Y573126D01*
X360266Y572979D01*
X362057D01*
X362797Y573126D01*
X363424Y573545D01*
X363843Y574172D01*
X363990Y574912D01*
Y577835D01*
X364314Y578320D01*
X364430Y578905D01*
Y582434D01*
X367050D01*
Y584654D01*
X374207D01*
X375498Y583363D01*
D02*
G37*
G36*
X453749Y257420D02*
Y247644D01*
X452100Y245995D01*
X451930Y246028D01*
X447422D01*
X446682Y245881D01*
X446055Y245462D01*
X445636Y244835D01*
X445489Y244096D01*
Y242304D01*
X445636Y241565D01*
X446055Y240938D01*
X446682Y240519D01*
X447422Y240371D01*
X449744D01*
X450105Y240038D01*
Y232538D01*
X452871D01*
Y231696D01*
X450159D01*
Y224196D01*
X451788D01*
X451979Y223734D01*
X450708Y222463D01*
X439044D01*
X438459Y222347D01*
X437963Y222015D01*
X435836Y219889D01*
X433282D01*
Y214306D01*
X435245D01*
Y209756D01*
X434893Y209403D01*
X430376D01*
X430225Y209903D01*
X430615Y210164D01*
X431141Y210951D01*
X431325Y211879D01*
X431141Y212807D01*
X430615Y213593D01*
X430430Y213717D01*
Y214306D01*
X432211D01*
Y219889D01*
X430430D01*
Y224083D01*
X430314Y224669D01*
X429982Y225165D01*
X426749Y228398D01*
Y232602D01*
X426764Y232605D01*
X427391Y233024D01*
X427810Y233651D01*
X427957Y234391D01*
Y238645D01*
X429863Y240551D01*
X435827D01*
X437795Y242519D01*
Y255905D01*
X440158Y258267D01*
X452902D01*
X453749Y257420D01*
D02*
G37*
G36*
X441732Y460143D02*
X444291Y458071D01*
X449606Y455905D01*
X462992Y453937D01*
X471260Y452756D01*
X483661Y449016D01*
X486221Y446457D01*
X487008Y444488D01*
X487008Y401575D01*
X432628D01*
X430527Y416660D01*
X427630Y421314D01*
X421691Y425337D01*
X414725Y427480D01*
X398229Y423599D01*
X391239Y417728D01*
X385929Y408504D01*
X356299Y415354D01*
X351181Y416852D01*
Y416852D01*
X341339Y419291D01*
X340945Y419685D01*
X339370Y422441D01*
X338583Y425984D01*
Y439370D01*
X339370Y442913D01*
X346850Y451575D01*
X351181Y455906D01*
Y484252D01*
X360670Y484252D01*
X361024Y483898D01*
X361024Y458318D01*
X360981Y458275D01*
X360981D01*
Y450775D01*
X361024D01*
Y448733D01*
X364875Y444882D01*
X399606Y444882D01*
X409452Y445144D01*
X417520Y448228D01*
X426197Y452685D01*
X426378Y452756D01*
X428346Y455905D01*
X430113Y461417D01*
Y485099D01*
X441732D01*
Y460143D01*
D02*
G37*
G36*
X273571Y146827D02*
Y146754D01*
X280922D01*
X281235Y146321D01*
X280900Y145821D01*
X280716Y144893D01*
X280900Y143965D01*
X281426Y143178D01*
X282212Y142653D01*
X282238Y142648D01*
Y142138D01*
X282212Y142133D01*
X281426Y141607D01*
X280900Y140821D01*
X280716Y139893D01*
X280900Y138965D01*
X281426Y138179D01*
X282212Y137653D01*
X283140Y137468D01*
X291408D01*
X292336Y137653D01*
X293122Y138179D01*
X293246Y138364D01*
X300593D01*
X300717Y138179D01*
X301504Y137653D01*
X302432Y137468D01*
X306827D01*
X307606Y136689D01*
X308102Y136358D01*
X308687Y136241D01*
X311258D01*
X312048Y135451D01*
Y134334D01*
X311258Y133544D01*
X304198D01*
X303612Y133428D01*
X303116Y133096D01*
X299533Y129513D01*
X289833D01*
X289248Y129396D01*
X288752Y129065D01*
X288420Y128569D01*
X288304Y127983D01*
Y126578D01*
X280710D01*
Y125182D01*
X275872D01*
Y128558D01*
X279613D01*
Y136464D01*
X278919D01*
X278844Y136839D01*
X278513Y137335D01*
X278017Y137666D01*
X277432Y137783D01*
X274601D01*
Y141496D01*
X274484Y142081D01*
X274153Y142577D01*
X271491Y145238D01*
X271656Y145781D01*
X271863Y145822D01*
X272650Y146348D01*
X273071Y146978D01*
X273571Y146827D01*
D02*
G37*
G36*
X308268Y188583D02*
Y186458D01*
X306201D01*
Y182375D01*
X304851Y181025D01*
X304325Y180238D01*
X304141Y179310D01*
Y172318D01*
X302432D01*
X301504Y172133D01*
X300717Y171607D01*
X300191Y170821D01*
X300007Y169893D01*
X300191Y168965D01*
X300717Y168178D01*
X301504Y167653D01*
X302432Y167468D01*
X308268D01*
Y162318D01*
X302432D01*
X301504Y162133D01*
X300717Y161607D01*
X300191Y160821D01*
X300007Y159893D01*
X300191Y158965D01*
X300717Y158178D01*
X301504Y157653D01*
X301529Y157648D01*
Y157138D01*
X301504Y157133D01*
X300717Y156607D01*
X300191Y155821D01*
X300007Y154893D01*
X300191Y153965D01*
X300717Y153179D01*
X301504Y152653D01*
X301529Y152648D01*
Y152138D01*
X301504Y152133D01*
X300717Y151607D01*
X300191Y150821D01*
X300007Y149893D01*
X300191Y148965D01*
X300717Y148179D01*
X301504Y147653D01*
X301529Y147648D01*
Y147138D01*
X301504Y147133D01*
X300717Y146607D01*
X300191Y145821D01*
X300007Y144893D01*
X300191Y143965D01*
X300717Y143178D01*
X301504Y142653D01*
X301529Y142648D01*
Y142138D01*
X301504Y142133D01*
X300717Y141607D01*
X300593Y141422D01*
X293246D01*
X293122Y141607D01*
X292336Y142133D01*
X292310Y142138D01*
Y142648D01*
X292336Y142653D01*
X293122Y143178D01*
X293648Y143965D01*
X293832Y144893D01*
X293648Y145821D01*
X293122Y146607D01*
X292336Y147133D01*
X292310Y147138D01*
Y147648D01*
X292336Y147653D01*
X293122Y148179D01*
X293648Y148965D01*
X293832Y149893D01*
X293648Y150821D01*
X293122Y151607D01*
X292336Y152133D01*
X292310Y152138D01*
Y152648D01*
X292336Y152653D01*
X293122Y153179D01*
X293648Y153965D01*
X293668Y154067D01*
X298437Y158835D01*
X298437Y158835D01*
X298832Y159427D01*
X298970Y160124D01*
Y172377D01*
X300852Y174258D01*
X300852Y174259D01*
X301247Y174850D01*
X301385Y175547D01*
Y178158D01*
X302925D01*
Y186458D01*
X298113D01*
X296333Y188238D01*
X295991Y188466D01*
X294838Y189620D01*
X294181Y190058D01*
X293407Y190212D01*
X285247D01*
X285212Y190239D01*
X285090Y190445D01*
X285374Y190945D01*
X305906D01*
X308268Y188583D01*
D02*
G37*
G36*
X276568Y190500D02*
X276568D01*
Y183000D01*
X284867D01*
Y186166D01*
X286201D01*
Y181443D01*
X285708Y181426D01*
Y181426D01*
X277409D01*
Y175699D01*
X275504Y173794D01*
X275028Y173174D01*
X274729Y172452D01*
X274726Y172426D01*
X272684D01*
Y164926D01*
X274233D01*
Y163426D01*
X273078D01*
Y158273D01*
X265917Y151112D01*
X265585Y150616D01*
X265469Y150031D01*
Y146816D01*
X265585Y146230D01*
X265917Y145734D01*
X268336Y143315D01*
X268832Y142984D01*
X269417Y142868D01*
X269537D01*
X271542Y140862D01*
Y137132D01*
X271658Y136547D01*
X271990Y136051D01*
X272868Y135172D01*
X273365Y134841D01*
X273950Y134724D01*
X275250D01*
Y128983D01*
X271510D01*
Y121078D01*
X275872D01*
Y122123D01*
X280710D01*
Y119078D01*
X288304D01*
Y117747D01*
X288420Y117162D01*
X288752Y116666D01*
X292751Y112666D01*
X292560Y112205D01*
X292126D01*
X264173D01*
X259842Y116535D01*
Y186614D01*
X264173Y190945D01*
X276433D01*
X276568Y190500D01*
D02*
G37*
G36*
X336061Y152522D02*
X342042Y146541D01*
X349275Y129046D01*
X338088Y114351D01*
X335039Y112205D01*
X331102Y112205D01*
X328839D01*
X328647Y112667D01*
X329051Y113070D01*
X334169D01*
Y120570D01*
X325870D01*
Y114215D01*
X325754Y114099D01*
X324169D01*
Y120570D01*
X321549D01*
Y121245D01*
X324169D01*
Y128745D01*
X318528D01*
Y129289D01*
X326531D01*
Y136789D01*
X321549D01*
Y137501D01*
X326531D01*
Y145001D01*
X319253D01*
Y145800D01*
X326523D01*
Y152870D01*
X326889Y153210D01*
X336061Y152522D01*
D02*
G37*
G36*
X436668Y182329D02*
Y176983D01*
X441030D01*
Y178460D01*
X444148D01*
Y176983D01*
X448510D01*
Y179916D01*
X449554Y180960D01*
X454098D01*
X454683Y181076D01*
X454921Y181235D01*
X457408D01*
Y181235D01*
X457874Y181154D01*
Y173851D01*
X457374Y173584D01*
X457000Y173834D01*
X456260Y173981D01*
X451752D01*
X451013Y173834D01*
X450386Y173415D01*
X449967Y172788D01*
X449820Y172048D01*
Y170257D01*
X449967Y169517D01*
X450386Y168890D01*
X451013Y168471D01*
X451752Y168324D01*
X452568D01*
Y166342D01*
X449372D01*
Y158842D01*
X456895D01*
X457087Y158380D01*
X456974Y158268D01*
Y157459D01*
X455139Y155624D01*
X433297D01*
X433090Y156124D01*
X435258Y158292D01*
X435589Y158788D01*
X435615Y158916D01*
X438326D01*
Y161137D01*
X439372D01*
Y158842D01*
X447671D01*
Y166342D01*
X439372D01*
Y164196D01*
X438326D01*
Y166416D01*
X430027D01*
Y158916D01*
X430903D01*
X431095Y158454D01*
X428107Y155466D01*
X418086D01*
X417501Y155350D01*
X417004Y155018D01*
X416543Y154557D01*
X412555D01*
Y162417D01*
X411510D01*
Y174547D01*
X411393Y175133D01*
X411062Y175629D01*
X410566Y175960D01*
X409980Y176077D01*
X409395Y175960D01*
X408899Y175629D01*
X407356Y174086D01*
X406949Y174125D01*
X406732Y174583D01*
X409327Y177178D01*
X409659Y177674D01*
X409775Y178259D01*
Y180496D01*
X412022D01*
X412465Y180217D01*
X412509Y180043D01*
X412660Y179282D01*
X413186Y178496D01*
X413972Y177970D01*
X414900Y177786D01*
X415828Y177970D01*
X416614Y178496D01*
X416738Y178681D01*
X417677D01*
Y177598D01*
X425177D01*
Y178681D01*
X426930D01*
Y177598D01*
X434430D01*
Y183914D01*
X434891Y184106D01*
X436668Y182329D01*
D02*
G37*
G36*
X457874Y205973D02*
X457374Y205506D01*
X450610D01*
X450492Y205625D01*
X449996Y205956D01*
X449410Y206073D01*
X448345D01*
Y210231D01*
X440844D01*
Y206577D01*
X440344Y206425D01*
X440304Y206486D01*
X439677Y206905D01*
X438937Y207052D01*
X437520D01*
X437329Y207514D01*
X437856Y208041D01*
X438188Y208538D01*
X438304Y209123D01*
Y214306D01*
X440085D01*
Y219405D01*
X451342D01*
X451927Y219521D01*
X452423Y219852D01*
X455481Y222911D01*
X455813Y223407D01*
X455929Y223992D01*
Y224196D01*
X457874D01*
X457874Y205973D01*
D02*
G37*
G36*
X414279Y239191D02*
Y234900D01*
X414279D01*
Y234526D01*
X414279D01*
Y227026D01*
X417348D01*
X417843Y226696D01*
X418428Y226579D01*
X418717Y226342D01*
Y224928D01*
X415802D01*
Y219779D01*
Y214856D01*
X415560Y214679D01*
X415356Y214594D01*
X411515Y218435D01*
X411019Y218766D01*
X410434Y218883D01*
X403235D01*
Y224928D01*
X398678D01*
Y226157D01*
X399849D01*
Y232960D01*
X395187D01*
X394389Y233759D01*
X393892Y234090D01*
X393307Y234207D01*
X391019D01*
X389403Y235823D01*
Y241933D01*
X389804Y242171D01*
X411298D01*
X414279Y239191D01*
D02*
G37*
G36*
X378203Y183873D02*
X385683D01*
Y180133D01*
X393589D01*
Y181178D01*
X394096D01*
Y180496D01*
X396808D01*
Y177647D01*
X396924Y177062D01*
X397255Y176566D01*
X398525Y175296D01*
X399021Y174965D01*
X399606Y174849D01*
X400192Y174965D01*
X400586Y175228D01*
X401040Y174925D01*
X401875Y174759D01*
X401997Y174558D01*
X402045Y174254D01*
X401946Y174188D01*
X399041Y171282D01*
X398709Y170786D01*
X398593Y170201D01*
Y162417D01*
X397406D01*
Y159529D01*
X396978Y159101D01*
X394264D01*
Y161721D01*
X386764D01*
Y159185D01*
X384171D01*
Y161805D01*
X376671D01*
Y157041D01*
X371148D01*
Y164385D01*
X374888D01*
Y164589D01*
X376671D01*
Y163506D01*
X384171D01*
Y168136D01*
X388526Y172490D01*
X388744Y172447D01*
X389672Y172632D01*
X390458Y173157D01*
X390984Y173944D01*
X391168Y174872D01*
X390984Y175799D01*
X390458Y176586D01*
X389672Y177112D01*
X388744Y177296D01*
X387816Y177112D01*
X387030Y176586D01*
X386504Y175799D01*
X386319Y174872D01*
X386363Y174653D01*
X383515Y171806D01*
X377893D01*
X377478Y172010D01*
Y180309D01*
X369978D01*
Y174125D01*
X367977Y172123D01*
X367908Y172020D01*
X367408Y172172D01*
Y172291D01*
X363046D01*
Y166690D01*
X360551Y164196D01*
X355519D01*
X353955Y165760D01*
Y176810D01*
X353838Y177395D01*
X353507Y177891D01*
X353498Y177900D01*
Y180382D01*
X360869D01*
Y183880D01*
X361637D01*
Y181957D01*
X369137D01*
Y184691D01*
X369978D01*
Y182010D01*
X377478D01*
Y184691D01*
X378203D01*
Y183873D01*
D02*
G37*
G36*
X450293Y201497D02*
Y197207D01*
X457793D01*
X457874Y196740D01*
Y186900D01*
X457374Y186818D01*
X450605D01*
Y184018D01*
X448920D01*
X448897Y184014D01*
X448510Y184331D01*
Y186070D01*
X444148D01*
Y181518D01*
X441030D01*
Y186070D01*
X437253D01*
X435829Y187494D01*
X436159Y187871D01*
X438191D01*
Y187189D01*
X446490D01*
Y194689D01*
X438191D01*
Y190930D01*
X435491D01*
X435278Y190888D01*
X434786Y191216D01*
X433858Y191401D01*
X432930Y191216D01*
X432144Y190691D01*
X431618Y189904D01*
X431434Y188976D01*
X431618Y188049D01*
X432144Y187262D01*
X432151Y187257D01*
X432212Y186950D01*
X432544Y186453D01*
X432638Y186360D01*
X432446Y185898D01*
X427350D01*
X427143Y186398D01*
X437856Y197111D01*
X438188Y197607D01*
X438304Y198192D01*
Y201395D01*
X438937D01*
X439677Y201542D01*
X440304Y201961D01*
X440344Y202022D01*
X440844Y201932D01*
Y201932D01*
X448345D01*
Y202850D01*
X448844Y202946D01*
X450293Y201497D01*
D02*
G37*
G36*
X314273Y597344D02*
X314769Y597012D01*
X315354Y596896D01*
X324000D01*
Y590851D01*
X328648D01*
Y589622D01*
X327386D01*
Y582819D01*
X331416D01*
X332639Y581596D01*
X333135Y581264D01*
X333720Y581148D01*
X335193D01*
X337831Y578510D01*
Y574089D01*
X317946D01*
X316893Y575142D01*
Y580878D01*
X316893D01*
Y581252D01*
X316893D01*
Y588753D01*
X313824D01*
X311433Y591143D01*
Y595851D01*
Y599531D01*
X311895Y599722D01*
X314273Y597344D01*
D02*
G37*
G36*
X462598Y677977D02*
Y632677D01*
X458268Y628347D01*
X454724D01*
X450667D01*
Y635141D01*
X442368D01*
Y631677D01*
X441889Y631199D01*
X441428Y631390D01*
Y636715D01*
X449039D01*
Y642442D01*
X450943Y644347D01*
X451419Y644967D01*
X451718Y645689D01*
X451721Y645715D01*
X453369D01*
Y653215D01*
X452214D01*
Y654715D01*
X453369D01*
Y659868D01*
X460530Y667029D01*
X460862Y667525D01*
X460978Y668110D01*
Y675591D01*
X460862Y676176D01*
X460530Y676672D01*
X459646Y677557D01*
X459811Y678098D01*
X460005Y678136D01*
X460096Y678075D01*
X461024Y677891D01*
X461951Y678075D01*
X462157Y678213D01*
X462598Y677977D01*
D02*
G37*
G36*
X299525Y661743D02*
X294645Y656863D01*
X288909D01*
Y653929D01*
X287863D01*
Y656937D01*
X279564D01*
Y649437D01*
X287863D01*
Y650870D01*
X288909D01*
Y649363D01*
X297208D01*
Y655099D01*
X301756Y659648D01*
X316673D01*
X316940Y659148D01*
X316835Y658991D01*
X316773Y658677D01*
X310673D01*
Y649788D01*
X311941D01*
X312167Y649450D01*
X325872Y635745D01*
X325680Y635283D01*
X324839D01*
Y627783D01*
X333139D01*
Y631935D01*
X333646D01*
Y631284D01*
X335570D01*
Y624260D01*
X332950D01*
X332890Y624735D01*
Y626000D01*
X324000D01*
Y624955D01*
X316185D01*
X313997Y627143D01*
X314188Y627605D01*
X316590D01*
X317175Y627721D01*
X317268Y627783D01*
X323139D01*
Y635283D01*
X314839D01*
X314839Y635283D01*
Y635283D01*
X314369Y635403D01*
X314140Y635745D01*
X313354Y636271D01*
X312426Y636455D01*
X311498Y636271D01*
X310712Y635745D01*
X310588Y635560D01*
X309557D01*
Y638180D01*
X302057D01*
Y635560D01*
X300305D01*
Y638180D01*
X292805D01*
Y630472D01*
X292305Y630265D01*
X290567Y632003D01*
Y638795D01*
X286205D01*
Y635781D01*
X283087D01*
Y638795D01*
X278724D01*
Y634234D01*
X277772Y633282D01*
X276630D01*
Y634544D01*
X270079D01*
Y641494D01*
X270579Y641876D01*
X270974Y641798D01*
X275482D01*
X276222Y641945D01*
X276849Y642364D01*
X277268Y642991D01*
X277415Y643730D01*
Y645522D01*
X277268Y646262D01*
X276849Y646888D01*
X276222Y647307D01*
X275482Y647455D01*
X274758D01*
Y649437D01*
X277863D01*
Y656937D01*
X271041D01*
X270979Y657087D01*
Y657895D01*
X272814Y659730D01*
X294882D01*
X295518Y659994D01*
X297729Y662205D01*
X299334D01*
X299525Y661743D01*
D02*
G37*
G36*
X286205Y629709D02*
X288535D01*
X289232Y629013D01*
X288947Y628590D01*
X280745D01*
Y621090D01*
X289044D01*
Y623311D01*
X291835D01*
X292420Y623427D01*
X292916Y623759D01*
X293431Y624273D01*
X293837Y624235D01*
X294054Y623776D01*
X289470Y619192D01*
X289138Y618696D01*
X289022Y618110D01*
Y614384D01*
X288297D01*
X287558Y614237D01*
X286931Y613818D01*
X286890Y613757D01*
X286390Y613847D01*
Y613847D01*
X278890D01*
Y611593D01*
X278390Y611386D01*
X276941Y612835D01*
Y618572D01*
X270079D01*
Y628961D01*
X276630D01*
Y630223D01*
X278405D01*
X278724Y629961D01*
Y629709D01*
X283087D01*
Y632723D01*
X286205D01*
Y629709D01*
D02*
G37*
G36*
X397622Y641124D02*
X397069Y640570D01*
X396850Y640614D01*
X395923Y640429D01*
X395136Y639903D01*
X394610Y639117D01*
X394426Y638189D01*
X394610Y637261D01*
X395136Y636475D01*
X395923Y635949D01*
X396850Y635765D01*
X397778Y635949D01*
X398364Y636341D01*
X398864Y636092D01*
Y620079D01*
X398981Y619494D01*
X399312Y618997D01*
X401227Y617083D01*
Y610476D01*
X398794Y608044D01*
X391271D01*
Y607026D01*
X391262Y601913D01*
X390790Y601912D01*
X389602D01*
Y603362D01*
X383557D01*
Y604587D01*
X383440Y605172D01*
X383291Y605396D01*
X383399Y605559D01*
X383508Y606103D01*
Y606199D01*
X383588Y606254D01*
X384267Y606123D01*
X384506Y605766D01*
X385293Y605240D01*
X386221Y605056D01*
X387148Y605240D01*
X387935Y605766D01*
X388460Y606553D01*
X388645Y607480D01*
X388460Y608408D01*
X387949Y609173D01*
X387992Y609384D01*
X388080Y609673D01*
X391642D01*
Y617173D01*
X385906D01*
X385147Y617932D01*
X385147Y617932D01*
X384600Y618478D01*
Y639945D01*
X385055D01*
Y649822D01*
X385279Y650046D01*
X397622D01*
Y641124D01*
D02*
G37*
G36*
X398501Y704995D02*
X397397Y703890D01*
X392278D01*
Y696390D01*
X400577D01*
Y702745D01*
X400693Y702861D01*
X402278D01*
Y696390D01*
X404898D01*
Y695715D01*
X402278D01*
Y688215D01*
X407919D01*
Y687671D01*
X399916D01*
Y680171D01*
X404898D01*
Y679459D01*
X399916D01*
Y671959D01*
X407194D01*
Y671160D01*
X399924D01*
Y663780D01*
X391339D01*
X379011Y676107D01*
X373165Y690246D01*
X384353Y704941D01*
X385140Y705495D01*
X398294D01*
X398501Y704995D01*
D02*
G37*
G36*
X450575Y689583D02*
X446835D01*
Y681677D01*
X451197D01*
X451197Y681677D01*
Y681677D01*
X451534Y681343D01*
X457919Y674957D01*
Y671656D01*
X457419Y671504D01*
X457226Y671793D01*
X456440Y672319D01*
X455512Y672503D01*
X454584Y672319D01*
X453797Y671793D01*
X453376Y671163D01*
X452876Y671314D01*
Y671388D01*
X445525D01*
X445213Y671820D01*
X445547Y672320D01*
X445732Y673248D01*
X445547Y674176D01*
X445021Y674963D01*
X444235Y675488D01*
X444209Y675493D01*
Y676003D01*
X444235Y676008D01*
X445021Y676534D01*
X445547Y677320D01*
X445732Y678248D01*
X445547Y679176D01*
X445021Y679963D01*
X444235Y680488D01*
X443307Y680673D01*
X435039D01*
X434111Y680488D01*
X433325Y679963D01*
X433201Y679778D01*
X429050D01*
X428859Y680239D01*
X437696Y689076D01*
X438027Y689572D01*
X438144Y690158D01*
Y691563D01*
X445737D01*
Y692959D01*
X450575D01*
Y689583D01*
D02*
G37*
G36*
X356087Y651394D02*
X352346D01*
Y649652D01*
X350563D01*
Y652273D01*
X343063D01*
Y646014D01*
X338800Y641751D01*
X338582Y641794D01*
X337654Y641609D01*
X336868Y641084D01*
X336342Y640297D01*
X336157Y639370D01*
X336342Y638442D01*
X336868Y637655D01*
X337654Y637130D01*
X338582Y636945D01*
X339510Y637130D01*
X340297Y637655D01*
X340822Y638442D01*
X341007Y639370D01*
X340963Y639588D01*
X345349Y643973D01*
X349735D01*
X350150Y643764D01*
X350150D01*
Y635469D01*
X357650D01*
Y641708D01*
X359349Y643407D01*
X359356Y643417D01*
X359827Y643488D01*
X359827Y643488D01*
X364189D01*
Y647459D01*
X366775Y650046D01*
X371808D01*
X373230Y648623D01*
Y635003D01*
X366759D01*
Y630361D01*
X365992D01*
Y633822D01*
X358492D01*
Y630361D01*
X357650D01*
Y633769D01*
X350150D01*
Y630361D01*
X349031D01*
Y631906D01*
X341551D01*
Y635646D01*
X333646D01*
Y634994D01*
X333139D01*
Y635283D01*
X330420D01*
X330402Y635376D01*
X330070Y635872D01*
X316617Y649326D01*
X316808Y649788D01*
X325823D01*
Y652703D01*
X331122D01*
X331707Y652819D01*
X332204Y653151D01*
X334014Y654962D01*
X334476Y654770D01*
Y654027D01*
X341976D01*
Y656594D01*
X343063D01*
Y653973D01*
X350563D01*
Y658313D01*
X356087D01*
Y651394D01*
D02*
G37*
G36*
X433325Y676534D02*
X434111Y676008D01*
X434137Y676003D01*
Y675493D01*
X434111Y675488D01*
X433325Y674963D01*
X432799Y674176D01*
X432615Y673248D01*
X432799Y672320D01*
X433325Y671534D01*
X434111Y671008D01*
X434137Y671003D01*
Y670493D01*
X434111Y670488D01*
X433325Y669963D01*
X432799Y669176D01*
X432615Y668248D01*
X432799Y667320D01*
X433325Y666534D01*
X434111Y666008D01*
X434137Y666003D01*
Y665493D01*
X434111Y665488D01*
X433325Y664963D01*
X432799Y664176D01*
X432662Y663487D01*
X427672Y658497D01*
X427233Y657840D01*
X427079Y657066D01*
Y644028D01*
Y637621D01*
X424703D01*
Y629321D01*
X428841D01*
X429354Y628808D01*
X429163Y628347D01*
X418110Y628347D01*
X417597Y628860D01*
X417789Y629321D01*
X421428D01*
Y630515D01*
X421999Y630954D01*
X422475Y631574D01*
X422774Y632296D01*
X422876Y633071D01*
Y645824D01*
X424016D01*
X424944Y646008D01*
X425730Y646534D01*
X426256Y647320D01*
X426440Y648248D01*
X426256Y649176D01*
X425730Y649963D01*
X424944Y650488D01*
X424016Y650673D01*
X415748D01*
X414820Y650488D01*
X414614Y650351D01*
X414173Y650586D01*
X414173Y655910D01*
X414614Y656146D01*
X414820Y656008D01*
X415748Y655824D01*
X424016D01*
X424944Y656008D01*
X425730Y656534D01*
X426256Y657320D01*
X426440Y658248D01*
X426256Y659176D01*
X425730Y659963D01*
X424944Y660488D01*
X424918Y660493D01*
Y661003D01*
X424944Y661008D01*
X425730Y661534D01*
X426256Y662320D01*
X426440Y663248D01*
X426256Y664176D01*
X425730Y664963D01*
X424944Y665488D01*
X424918Y665493D01*
Y666003D01*
X424944Y666008D01*
X425730Y666534D01*
X426256Y667320D01*
X426440Y668248D01*
X426256Y669176D01*
X425730Y669963D01*
X424944Y670488D01*
X424918Y670493D01*
Y671003D01*
X424944Y671008D01*
X425730Y671534D01*
X426256Y672320D01*
X426440Y673248D01*
X426256Y674176D01*
X425730Y674963D01*
X424944Y675488D01*
X424918Y675493D01*
Y676003D01*
X424944Y676008D01*
X425730Y676534D01*
X425854Y676719D01*
X433201D01*
X433325Y676534D01*
D02*
G37*
G36*
X427438Y693234D02*
Y691563D01*
X435085D01*
Y690791D01*
X424809Y680515D01*
X424016Y680673D01*
X415748D01*
X414820Y680488D01*
X414034Y679963D01*
X413508Y679176D01*
X413323Y678248D01*
X413508Y677320D01*
X414034Y676534D01*
X414820Y676008D01*
X414846Y676003D01*
Y675493D01*
X414820Y675488D01*
X414034Y674963D01*
X413508Y674176D01*
X413323Y673248D01*
X413508Y672320D01*
X414034Y671534D01*
X414820Y671008D01*
X414846Y671003D01*
Y670493D01*
X414820Y670488D01*
X414034Y669963D01*
X413538Y670121D01*
X412253Y671406D01*
Y675516D01*
X412137Y676101D01*
X411805Y676597D01*
X410978Y677424D01*
Y688943D01*
X410862Y689529D01*
X410590Y689935D01*
X410689Y690435D01*
X417110D01*
Y689158D01*
X421472D01*
Y696638D01*
X424034D01*
X427438Y693234D01*
D02*
G37*
G36*
X458144Y698915D02*
Y681345D01*
X457973Y681089D01*
X457819Y680315D01*
X457875Y680034D01*
X457414Y679788D01*
X451197Y686006D01*
Y689158D01*
X454937D01*
Y697063D01*
X450575D01*
Y696018D01*
X445737D01*
Y699063D01*
X438144D01*
Y700394D01*
X438027Y700979D01*
X437696Y701475D01*
X434138Y705033D01*
X434329Y705495D01*
X451564D01*
X458144Y698915D01*
D02*
G37*
G36*
X402584Y624708D02*
X409297Y617995D01*
Y614764D01*
X409414Y614179D01*
X409745Y613683D01*
X420531Y602897D01*
X421027Y602565D01*
X421613Y602449D01*
X449683D01*
Y580392D01*
X448032Y578740D01*
X441878Y572586D01*
X414275D01*
X414083Y573048D01*
X415775Y574740D01*
X417997D01*
X418736Y574887D01*
X419363Y575306D01*
X419523Y575546D01*
X421953D01*
Y574935D01*
X429453D01*
Y575546D01*
X431962D01*
X432122Y575306D01*
X432749Y574887D01*
X433489Y574740D01*
X437996D01*
X438736Y574887D01*
X439363Y575306D01*
X439782Y575933D01*
X439929Y576673D01*
Y578464D01*
X439782Y579204D01*
X439363Y579831D01*
X438736Y580250D01*
X437996Y580397D01*
X433489D01*
X432749Y580250D01*
X432122Y579831D01*
X431962Y579592D01*
X429453D01*
Y583234D01*
X421953D01*
Y579592D01*
X419523D01*
X419363Y579831D01*
X418736Y580250D01*
X417997Y580397D01*
X413489D01*
X412749Y580250D01*
X412122Y579831D01*
X411703Y579204D01*
X411556Y578464D01*
Y576673D01*
X411603Y576435D01*
X411256Y576039D01*
X399517D01*
Y583315D01*
X398361D01*
Y584008D01*
X399570D01*
Y591508D01*
X398361D01*
Y592276D01*
X399570D01*
Y599776D01*
X398361D01*
Y600544D01*
X399570D01*
Y604494D01*
X403837Y608761D01*
X404169Y609257D01*
X404285Y609843D01*
Y617717D01*
X404169Y618302D01*
X403837Y618798D01*
X401923Y620712D01*
Y624797D01*
X402423Y624949D01*
X402584Y624708D01*
D02*
G37*
G36*
X392290Y594868D02*
Y582559D01*
X392247D01*
X392269Y594890D01*
X392290Y594868D01*
D02*
G37*
G36*
X374870Y607426D02*
X375051Y607230D01*
X375010Y606703D01*
X374821Y606577D01*
X374339Y605856D01*
X374170Y605005D01*
X374339Y604153D01*
X374534Y603862D01*
X374453Y603362D01*
X374453D01*
X374453Y603362D01*
Y594473D01*
X384503D01*
Y581906D01*
X378557D01*
Y583996D01*
X378440Y584582D01*
X378109Y585078D01*
X375922Y587265D01*
X375426Y587597D01*
X374840Y587713D01*
X367050D01*
Y589934D01*
X359291D01*
X359287Y589956D01*
X358956Y590452D01*
X358025Y591382D01*
X358232Y591882D01*
X358869D01*
X359395Y591778D01*
X361154D01*
X361278Y591593D01*
X362064Y591067D01*
X362992Y590883D01*
X363920Y591067D01*
X364706Y591593D01*
X365232Y592379D01*
X365417Y593307D01*
X365232Y594235D01*
X364706Y595022D01*
X364128Y595408D01*
Y598556D01*
X364313Y598679D01*
X364838Y599466D01*
X364991Y600231D01*
X365047Y600405D01*
X365491Y600603D01*
X366063Y600489D01*
X366991Y600673D01*
X367777Y601199D01*
X368303Y601986D01*
X368488Y602913D01*
X368303Y603841D01*
X367777Y604628D01*
X367517Y604802D01*
X367587Y605185D01*
X367655Y605311D01*
X368348Y605449D01*
X368975Y605868D01*
X369394Y606495D01*
X369524Y607149D01*
X369755Y607307D01*
X370041Y607405D01*
X370126Y607349D01*
X370669Y607241D01*
X373819D01*
X374363Y607349D01*
X374612Y607515D01*
X374870Y607426D01*
D02*
G37*
G36*
X342950Y616760D02*
X351249D01*
Y618980D01*
X352062D01*
X352186Y618795D01*
X352972Y618270D01*
X353900Y618085D01*
X354828Y618270D01*
X355614Y618795D01*
X356140Y619582D01*
X356325Y620510D01*
X356271Y620781D01*
X356731Y621027D01*
X357068Y620691D01*
X357024Y620473D01*
X357209Y619545D01*
X357734Y618758D01*
X358521Y618233D01*
X359256Y618086D01*
X359456Y617578D01*
X357795Y615918D01*
X352058D01*
Y608418D01*
X354679D01*
Y607650D01*
X352058D01*
Y600150D01*
X359848D01*
X360002Y599826D01*
X359693Y599382D01*
X352058D01*
Y592081D01*
X351027D01*
X350358Y592751D01*
Y599382D01*
X347737D01*
Y600150D01*
X350358D01*
Y607650D01*
X342058D01*
Y600150D01*
X344678D01*
Y599382D01*
X342058D01*
Y598447D01*
X341582Y598389D01*
Y598389D01*
X335846D01*
X334728Y599507D01*
X334232Y599838D01*
X333646Y599955D01*
X332890D01*
Y605851D01*
Y607892D01*
X334368Y609371D01*
X335770D01*
X336355Y609487D01*
X336851Y609819D01*
X338884Y611852D01*
X340705D01*
X341471Y611086D01*
X341967Y610755D01*
X342058Y610737D01*
Y608418D01*
X350358D01*
Y615918D01*
X342058D01*
Y615260D01*
X341558Y614867D01*
X341339Y614911D01*
X338251D01*
X337666Y614794D01*
X337169Y614463D01*
X335136Y612430D01*
X333735D01*
X333150Y612313D01*
X332653Y611982D01*
X331672Y611000D01*
X324000D01*
Y609955D01*
X322917D01*
X318917Y613955D01*
X318960Y614173D01*
X318775Y615101D01*
X318250Y615888D01*
X317489Y616396D01*
X317483Y616433D01*
X317694Y616896D01*
X324000D01*
Y615851D01*
X332890D01*
Y616284D01*
X332950Y616760D01*
X341249D01*
Y622496D01*
X342026Y623274D01*
X342950D01*
Y616760D01*
D02*
G37*
G36*
X276834Y608616D02*
X277330Y608285D01*
X277916Y608168D01*
X278890D01*
Y605548D01*
X286390D01*
Y609202D01*
X286890Y609353D01*
X286931Y609293D01*
X287558Y608874D01*
X288297Y608727D01*
X291344D01*
X291535Y608265D01*
X289470Y606200D01*
X289138Y605703D01*
X289022Y605118D01*
Y601473D01*
X287150D01*
Y597443D01*
X284544Y594837D01*
X275984D01*
X275399Y594720D01*
X274903Y594389D01*
X272097Y591582D01*
X270079D01*
X270079Y610273D01*
X275178D01*
X276834Y608616D01*
D02*
G37*
G36*
X392290Y601912D02*
X392281D01*
X392290Y607024D01*
Y601912D01*
D02*
G37*
%LPC*%
G36*
X314894Y228128D02*
X308090D01*
Y222545D01*
X307633Y222442D01*
X306201D01*
Y214142D01*
X312925D01*
Y222442D01*
X313382Y222545D01*
X314894D01*
Y228128D01*
D02*
G37*
G36*
X283927Y132377D02*
X283000Y132192D01*
X282213Y131666D01*
X281688Y130880D01*
X281503Y129952D01*
X281688Y129024D01*
X282213Y128238D01*
X283000Y127712D01*
X283927Y127527D01*
X284855Y127712D01*
X285642Y128238D01*
X286168Y129024D01*
X286352Y129952D01*
X286168Y130880D01*
X285642Y131666D01*
X284855Y132192D01*
X283927Y132377D01*
D02*
G37*
G36*
X266605Y140251D02*
X265677Y140066D01*
X264890Y139540D01*
X264365Y138754D01*
X264280Y138329D01*
X263909Y137774D01*
X263755Y137000D01*
X263909Y136225D01*
X264348Y135569D01*
X265004Y135131D01*
X265778Y134976D01*
X266553Y135131D01*
X267108Y135502D01*
X267532Y135586D01*
X268319Y136112D01*
X268845Y136898D01*
X269029Y137826D01*
X268845Y138754D01*
X268319Y139540D01*
X267532Y140066D01*
X266605Y140251D01*
D02*
G37*
G36*
X441428Y601636D02*
X434703D01*
Y599205D01*
X434273Y598917D01*
X433834Y598261D01*
X433680Y597487D01*
Y593234D01*
X432341D01*
Y587651D01*
X439144D01*
Y593234D01*
X439601Y593337D01*
X441428D01*
Y601636D01*
D02*
G37*
G36*
X421428D02*
X414703D01*
Y599205D01*
X414273Y598917D01*
X413834Y598261D01*
X413680Y597487D01*
Y593234D01*
X412341D01*
Y587651D01*
X419144D01*
Y593234D01*
X419601Y593337D01*
X421428D01*
Y601636D01*
D02*
G37*
%LPD*%
D10*
X414016Y343701D02*
D03*
X371024D02*
D03*
X392252Y473213D02*
D03*
X435244D02*
D03*
X313252Y472713D02*
D03*
X356244D02*
D03*
X335276Y343307D02*
D03*
X292284D02*
D03*
D11*
X392520Y343701D02*
D03*
X413748Y473213D02*
D03*
X334748Y472713D02*
D03*
X313779Y343307D02*
D03*
D12*
X365387Y176106D02*
D03*
Y186106D02*
D03*
X421427Y181748D02*
D03*
Y171748D02*
D03*
X373728Y176160D02*
D03*
Y186160D02*
D03*
X451071Y263708D02*
D03*
Y273708D02*
D03*
Y282541D02*
D03*
Y292541D02*
D03*
Y301374D02*
D03*
Y311374D02*
D03*
Y320207D02*
D03*
Y330207D02*
D03*
X434213Y320207D02*
D03*
Y330207D02*
D03*
Y311374D02*
D03*
Y301374D02*
D03*
Y292541D02*
D03*
Y282541D02*
D03*
Y263708D02*
D03*
Y273708D02*
D03*
X351964Y252484D02*
D03*
Y262484D02*
D03*
X353843Y316039D02*
D03*
Y326039D02*
D03*
X442642Y263708D02*
D03*
Y273708D02*
D03*
Y282541D02*
D03*
Y292541D02*
D03*
Y301374D02*
D03*
Y311374D02*
D03*
Y320207D02*
D03*
Y330207D02*
D03*
X357119Y174531D02*
D03*
Y184531D02*
D03*
X430680Y171748D02*
D03*
Y181748D02*
D03*
X389796Y211539D02*
D03*
Y221539D02*
D03*
X444594Y216081D02*
D03*
Y206081D02*
D03*
X390514Y157572D02*
D03*
Y167572D02*
D03*
X301532Y226694D02*
D03*
Y236695D02*
D03*
X454043Y211357D02*
D03*
Y201357D02*
D03*
X277321Y140903D02*
D03*
Y150903D02*
D03*
X380421Y167656D02*
D03*
Y157656D02*
D03*
X448851Y121776D02*
D03*
Y131776D02*
D03*
X439796Y121382D02*
D03*
Y131382D02*
D03*
X329171Y378255D02*
D03*
Y368255D02*
D03*
X409880Y377074D02*
D03*
Y367074D02*
D03*
X353843Y298539D02*
D03*
Y308539D02*
D03*
X287439Y690066D02*
D03*
Y680066D02*
D03*
X346813Y648123D02*
D03*
Y658123D02*
D03*
X284593Y485572D02*
D03*
Y495572D02*
D03*
Y504405D02*
D03*
Y514405D02*
D03*
Y523238D02*
D03*
Y533238D02*
D03*
Y542071D02*
D03*
Y552071D02*
D03*
X449126Y677238D02*
D03*
Y667238D02*
D03*
X273191Y614422D02*
D03*
Y604422D02*
D03*
X425703Y579084D02*
D03*
Y589084D02*
D03*
X278383Y679673D02*
D03*
Y689673D02*
D03*
X305807Y644031D02*
D03*
Y634031D02*
D03*
X353900Y629619D02*
D03*
Y639619D02*
D03*
X293022Y542071D02*
D03*
Y552071D02*
D03*
Y533238D02*
D03*
Y523238D02*
D03*
Y514405D02*
D03*
Y504405D02*
D03*
X276164Y542071D02*
D03*
Y552071D02*
D03*
Y523238D02*
D03*
Y533238D02*
D03*
Y504405D02*
D03*
Y514405D02*
D03*
Y485572D02*
D03*
Y495572D02*
D03*
X293022Y485572D02*
D03*
Y495572D02*
D03*
X338226Y648176D02*
D03*
Y658177D02*
D03*
X282640Y609698D02*
D03*
Y599698D02*
D03*
X337832Y594240D02*
D03*
Y604240D02*
D03*
X296555Y634031D02*
D03*
Y644031D02*
D03*
X370510Y630854D02*
D03*
Y640854D02*
D03*
X375271Y563295D02*
D03*
Y553295D02*
D03*
X400750Y440249D02*
D03*
Y450249D02*
D03*
X373391Y499740D02*
D03*
Y489740D02*
D03*
Y517240D02*
D03*
Y507239D02*
D03*
X362242Y639673D02*
D03*
Y629673D02*
D03*
D13*
X398246Y184246D02*
D03*
X408246D02*
D03*
X374334Y229595D02*
D03*
X364334D02*
D03*
X418428Y238650D02*
D03*
X408428D02*
D03*
X381814Y211879D02*
D03*
X371814D02*
D03*
X381027Y203611D02*
D03*
X371027D02*
D03*
X381027Y220146D02*
D03*
X371027D02*
D03*
X441643Y254696D02*
D03*
X431643D02*
D03*
X444309Y227946D02*
D03*
X454309D02*
D03*
X444255Y236288D02*
D03*
X454255D02*
D03*
X441710Y246057D02*
D03*
X431710D02*
D03*
X408428Y230776D02*
D03*
X418428D02*
D03*
X331868Y236214D02*
D03*
X321868D02*
D03*
X321814Y228021D02*
D03*
X331814D02*
D03*
X339742Y202356D02*
D03*
X329742D02*
D03*
X395253Y238183D02*
D03*
X385254D02*
D03*
X321814Y219753D02*
D03*
X331814D02*
D03*
X404491Y124083D02*
D03*
X414491D02*
D03*
X424176Y162666D02*
D03*
X434176D02*
D03*
X321814Y211485D02*
D03*
X331814D02*
D03*
X320020Y116820D02*
D03*
X330020D02*
D03*
X277227Y159676D02*
D03*
X267228D02*
D03*
X332382Y141251D02*
D03*
X322382D02*
D03*
X342891Y360230D02*
D03*
X332891D02*
D03*
X270717Y186750D02*
D03*
X280717D02*
D03*
X452340Y190939D02*
D03*
X442340D02*
D03*
X453521Y162592D02*
D03*
X443521D02*
D03*
X320020Y124995D02*
D03*
X330020D02*
D03*
X322373Y149550D02*
D03*
X332373D02*
D03*
X276834Y168676D02*
D03*
X266834D02*
D03*
X281558Y177676D02*
D03*
X271558D02*
D03*
X322382Y133039D02*
D03*
X332382D02*
D03*
X294860Y122828D02*
D03*
X284860D02*
D03*
X446387Y360242D02*
D03*
X436387D02*
D03*
X427887D02*
D03*
X417887D02*
D03*
X390135Y195269D02*
D03*
X380135D02*
D03*
X273713Y653187D02*
D03*
X283713D02*
D03*
X274894Y624840D02*
D03*
X284894D02*
D03*
X288885Y708625D02*
D03*
X278885D02*
D03*
X439461Y102006D02*
D03*
X449461D02*
D03*
X347099Y620510D02*
D03*
X337099D02*
D03*
X272979Y579491D02*
D03*
X282979D02*
D03*
X272926Y587832D02*
D03*
X282926D02*
D03*
X395421Y596026D02*
D03*
X405420D02*
D03*
X449220Y658465D02*
D03*
X459220D02*
D03*
X431587Y695313D02*
D03*
X441587D02*
D03*
X404065Y683921D02*
D03*
X394065D02*
D03*
X444889Y640465D02*
D03*
X454889D02*
D03*
X449220Y649465D02*
D03*
X459220D02*
D03*
X404074Y667410D02*
D03*
X394074D02*
D03*
X406428Y691965D02*
D03*
X396428D02*
D03*
X456517Y631391D02*
D03*
X446517D02*
D03*
X394065Y675709D02*
D03*
X404065D02*
D03*
X406428Y700140D02*
D03*
X396428D02*
D03*
X293058Y653113D02*
D03*
X303058D02*
D03*
X395421Y604294D02*
D03*
X405420D02*
D03*
X362901Y586184D02*
D03*
X352901D02*
D03*
X322743Y577129D02*
D03*
X312743D02*
D03*
X356208Y603900D02*
D03*
X346208D02*
D03*
X356208Y595632D02*
D03*
X346208D02*
D03*
X356208Y612168D02*
D03*
X346208D02*
D03*
X295591Y561083D02*
D03*
X285591D02*
D03*
X318989Y631533D02*
D03*
X328989D02*
D03*
X312743Y689727D02*
D03*
X322743D02*
D03*
X395421Y587758D02*
D03*
X405420D02*
D03*
X405367Y579565D02*
D03*
X395367D02*
D03*
X341981Y577596D02*
D03*
X331981D02*
D03*
X312743Y585003D02*
D03*
X322743D02*
D03*
X295524Y569722D02*
D03*
X285524D02*
D03*
X387493Y613423D02*
D03*
X397493D02*
D03*
X383556Y455549D02*
D03*
X393556D02*
D03*
X307221Y454750D02*
D03*
X317221D02*
D03*
X288721D02*
D03*
X298721D02*
D03*
X322743Y446420D02*
D03*
X312743D02*
D03*
X361868Y360230D02*
D03*
X351868D02*
D03*
X365131Y454525D02*
D03*
X375131D02*
D03*
D14*
X597638Y257087D02*
D03*
Y245669D02*
D03*
X598032Y572835D02*
D03*
Y561417D02*
D03*
Y594882D02*
D03*
Y583465D02*
D03*
X597638Y236221D02*
D03*
Y224803D02*
D03*
X347987Y351066D02*
D03*
Y339649D02*
D03*
X426987Y351566D02*
D03*
Y340149D02*
D03*
X379248Y464713D02*
D03*
Y476130D02*
D03*
X300248Y464213D02*
D03*
Y475630D02*
D03*
D15*
X359518Y353712D02*
D03*
X367323Y461280D02*
D03*
X449676Y256074D02*
D03*
X436683Y217098D02*
D03*
X428809D02*
D03*
X361880Y194775D02*
D03*
X454006Y184027D02*
D03*
X291492Y225336D02*
D03*
X311492D02*
D03*
X438487Y353003D02*
D03*
X273228Y631752D02*
D03*
X277559Y559705D02*
D03*
X415742Y590443D02*
D03*
X435743D02*
D03*
X298425Y598681D02*
D03*
X290551D02*
D03*
X365354Y621004D02*
D03*
X288748Y462776D02*
D03*
D16*
X359518Y340838D02*
D03*
X367323Y474154D02*
D03*
X449676Y243200D02*
D03*
X436683Y204224D02*
D03*
X428809D02*
D03*
X361880Y207649D02*
D03*
X454006Y171153D02*
D03*
X291492Y238210D02*
D03*
X311492D02*
D03*
X438487Y340129D02*
D03*
X273228Y644626D02*
D03*
X277559Y572579D02*
D03*
X415742Y577569D02*
D03*
X435743D02*
D03*
X298425Y611555D02*
D03*
X290551D02*
D03*
X365354Y608130D02*
D03*
X288748Y475650D02*
D03*
D17*
X397058Y229558D02*
D03*
X378947Y238613D02*
D03*
X438002Y236645D02*
D03*
X348287Y577166D02*
D03*
X330177Y586221D02*
D03*
X289232Y579134D02*
D03*
D18*
X384183Y229558D02*
D03*
X366073Y238613D02*
D03*
X425128Y236645D02*
D03*
X361161Y577166D02*
D03*
X343051Y586221D02*
D03*
X302106Y579134D02*
D03*
D19*
X368967Y160857D02*
D03*
X365227Y168338D02*
D03*
X372707D02*
D03*
X307156Y125031D02*
D03*
X310896Y117550D02*
D03*
X303416D02*
D03*
X273691Y125031D02*
D03*
X269951Y132511D02*
D03*
X277432D02*
D03*
X358268Y654921D02*
D03*
X362008Y647441D02*
D03*
X354528D02*
D03*
X419291Y693110D02*
D03*
X415551Y700591D02*
D03*
X423032D02*
D03*
X452756Y693110D02*
D03*
X456496Y685630D02*
D03*
X449016D02*
D03*
D20*
X389636Y182314D02*
D03*
X382156Y178574D02*
D03*
Y186054D02*
D03*
X337598Y633465D02*
D03*
X345079Y637205D02*
D03*
Y629725D02*
D03*
D21*
X420246Y192353D02*
D03*
Y197353D02*
D03*
Y202354D02*
D03*
Y207353D02*
D03*
Y212353D02*
D03*
Y217354D02*
D03*
Y222354D02*
D03*
X398790Y192353D02*
D03*
Y197353D02*
D03*
Y202354D02*
D03*
Y207353D02*
D03*
Y212353D02*
D03*
Y217354D02*
D03*
Y222354D02*
D03*
X306988Y623425D02*
D03*
Y618425D02*
D03*
Y613425D02*
D03*
Y608425D02*
D03*
Y603425D02*
D03*
Y598425D02*
D03*
Y593425D02*
D03*
X328445Y623425D02*
D03*
Y618425D02*
D03*
Y613425D02*
D03*
Y608425D02*
D03*
Y603425D02*
D03*
Y598425D02*
D03*
Y593425D02*
D03*
D22*
X442589Y173653D02*
D03*
X438849Y181527D02*
D03*
X446329D02*
D03*
X284646Y642126D02*
D03*
X288386Y634252D02*
D03*
X280906D02*
D03*
D23*
X282254Y346487D02*
D03*
X273790Y342747D02*
D03*
Y350228D02*
D03*
X444980Y469291D02*
D03*
X453445Y473032D02*
D03*
Y465551D02*
D03*
D24*
X340207Y216861D02*
D03*
X345207D02*
D03*
X350207D02*
D03*
X355207D02*
D03*
X340207Y238318D02*
D03*
X345207D02*
D03*
X350207D02*
D03*
X355207D02*
D03*
X399980Y136516D02*
D03*
X404980D02*
D03*
X409980D02*
D03*
X414980D02*
D03*
X399980Y157972D02*
D03*
X404980D02*
D03*
X409980D02*
D03*
X414980D02*
D03*
X323248Y675689D02*
D03*
X318248D02*
D03*
X313248D02*
D03*
X308248D02*
D03*
X323248Y654232D02*
D03*
X318248D02*
D03*
X313248D02*
D03*
X308248D02*
D03*
X387028Y598917D02*
D03*
X382028D02*
D03*
X377028D02*
D03*
X372028D02*
D03*
X387028Y577461D02*
D03*
X382028D02*
D03*
X377028D02*
D03*
X372028D02*
D03*
D25*
X391339Y622638D02*
D03*
X335827Y193110D02*
D03*
D26*
X382283Y645079D02*
D03*
X391339D02*
D03*
X400394D02*
D03*
X326772Y170669D02*
D03*
X335827D02*
D03*
X344882D02*
D03*
D27*
X439173Y648248D02*
D03*
Y653248D02*
D03*
Y658248D02*
D03*
Y663248D02*
D03*
Y668248D02*
D03*
Y673248D02*
D03*
Y678248D02*
D03*
Y683248D02*
D03*
X419882Y648248D02*
D03*
Y653248D02*
D03*
Y658248D02*
D03*
Y663248D02*
D03*
Y668248D02*
D03*
Y673248D02*
D03*
Y678248D02*
D03*
Y683248D02*
D03*
X306565Y134893D02*
D03*
Y139893D02*
D03*
Y144893D02*
D03*
Y149893D02*
D03*
Y154893D02*
D03*
Y159893D02*
D03*
Y164893D02*
D03*
Y169893D02*
D03*
X287274Y134893D02*
D03*
Y139893D02*
D03*
Y144893D02*
D03*
Y149893D02*
D03*
Y154893D02*
D03*
Y159893D02*
D03*
Y164893D02*
D03*
Y169893D02*
D03*
D28*
X418065Y597487D02*
D03*
X428065D02*
D03*
X438065D02*
D03*
X418065Y633471D02*
D03*
X428065D02*
D03*
X438065D02*
D03*
X289563Y182308D02*
D03*
X299563D02*
D03*
X309563D02*
D03*
X289563Y218292D02*
D03*
X299563D02*
D03*
X309563D02*
D03*
D29*
X346723Y204165D02*
D03*
Y209283D02*
D03*
X354991Y209558D02*
D03*
Y206724D02*
D03*
Y203928D02*
D03*
X372244Y611851D02*
D03*
Y609055D02*
D03*
Y606221D02*
D03*
X380512Y606496D02*
D03*
Y611614D02*
D03*
D30*
X313780Y342913D02*
Y351181D01*
X413748Y464945D02*
Y473213D01*
X334748Y464445D02*
Y472713D01*
X392520Y343701D02*
Y351969D01*
D31*
X313779Y343307D02*
Y351575D01*
D32*
X338582Y639370D02*
X347336Y648123D01*
X346850Y639370D02*
Y641732D01*
X375234Y525554D02*
Y553295D01*
X378740Y478651D02*
X380255Y477137D01*
X367717Y474154D02*
Y478346D01*
X302232Y474101D02*
Y475630D01*
X300777Y472646D02*
X302232Y474101D01*
X297264Y472646D02*
Y475650D01*
Y472646D02*
X300777D01*
X295591Y569655D02*
X302106Y576170D01*
X448920Y182489D02*
X454098D01*
X435491Y189401D02*
X442431D01*
X446420Y179989D02*
X448920Y182489D01*
X438940Y179989D02*
X446420D01*
X438940D02*
Y182220D01*
X389796Y221539D02*
X393845D01*
X389402D02*
X389796D01*
X425002Y340149D02*
Y341678D01*
X346980Y338642D02*
X349213Y336409D01*
X379991Y166118D02*
X388744Y174872D01*
X431735Y244586D02*
Y259601D01*
X428901Y217098D02*
Y224083D01*
X428645Y217354D02*
X428901Y217098D01*
Y211879D02*
Y217098D01*
X425220Y227765D02*
Y238071D01*
X381118Y202073D02*
X381739Y201453D01*
X362598Y594095D02*
Y600394D01*
X356762Y239479D02*
Y294174D01*
X377012Y623382D02*
X377165Y623229D01*
X435526Y207874D02*
X436775Y209123D01*
X420966Y207874D02*
X435526D01*
X420246Y207154D02*
X420966Y207874D01*
X406436Y667410D02*
X406927D01*
X404074D02*
X406436D01*
Y666792D02*
Y667410D01*
X406927D02*
X416089Y658248D01*
X419882D01*
X405905Y626378D02*
X412827Y619457D01*
X403665Y625790D02*
X410827Y618628D01*
X412827Y616536D02*
Y619457D01*
X403512Y653575D02*
X405905Y651181D01*
Y626378D02*
Y651181D01*
X402683Y651575D02*
X403665Y650593D01*
Y625790D02*
Y650593D01*
X410964Y704390D02*
X415551Y699803D01*
X400060Y704390D02*
X410964D01*
X396428Y700758D02*
X400060Y704390D01*
X273790Y350228D02*
X278507Y345510D01*
X350841Y207522D02*
X351639Y206724D01*
X287668Y164893D02*
Y169893D01*
X413983Y343066D02*
Y345580D01*
X369058Y159320D02*
Y171042D01*
X294860Y124009D02*
X297744D01*
X418520Y230776D02*
Y237113D01*
X434304Y272170D02*
Y281003D01*
X318839Y126176D02*
X320020Y124995D01*
X316998Y128016D02*
X318839Y126176D01*
X307514D02*
X318839D01*
X434304Y291003D02*
Y299836D01*
X306565Y159893D02*
X312030D01*
X434304Y309836D02*
Y318669D01*
X362242Y628832D02*
X370456D01*
X345972D02*
X362242D01*
X272926Y575893D02*
Y587832D01*
X322743Y446420D02*
X354761D01*
X317221Y454750D02*
X322743Y449228D01*
X375234Y563295D02*
Y567360D01*
X377028Y577854D02*
Y583996D01*
Y577854D02*
X382028D01*
X377028Y569154D02*
Y577461D01*
X318248Y654232D02*
Y658406D01*
X439173Y648248D02*
X447609D01*
X449803Y658465D02*
X459449Y668110D01*
X438779Y648248D02*
X439173D01*
X362242Y624117D02*
X365354Y621004D01*
X272926Y587832D02*
Y590249D01*
X356208Y603900D02*
Y612168D01*
X398790Y212353D02*
Y217354D01*
X396865Y219279D02*
X398790Y217354D01*
X416383Y212353D02*
X420246D01*
X276164Y485572D02*
X284593D01*
X353843Y326039D02*
Y330183D01*
X417887Y360242D02*
Y375368D01*
X367717Y478346D02*
X368897Y479527D01*
X369429Y474016D02*
X377134D01*
X298425Y590158D02*
Y598681D01*
Y603544D01*
X295591Y554640D02*
Y561083D01*
X340982Y577596D02*
X349569Y586184D01*
X378947Y234209D02*
Y238613D01*
X397149Y222548D02*
Y228835D01*
X339742Y202356D02*
X341550Y204165D01*
X408246Y178259D02*
Y184246D01*
X312205Y446958D02*
Y471665D01*
X313248Y650532D02*
Y654232D01*
X306988Y618425D02*
X328445D01*
X277953Y699213D02*
Y707692D01*
X300532Y611555D02*
X302402Y613425D01*
X290551Y611555D02*
X298425D01*
X302402Y613425D02*
X306988D01*
X382028Y599311D02*
Y604587D01*
X346208Y595632D02*
Y603900D01*
Y594737D02*
Y595632D01*
X287668Y139893D02*
X306565D01*
X353843Y308539D02*
Y316039D01*
X381102Y177521D02*
X382156Y178574D01*
X420246Y222354D02*
Y228958D01*
X277227Y168676D02*
Y171677D01*
X278838Y169893D02*
X287274D01*
X366073Y231335D02*
Y238613D01*
X322284Y608425D02*
X328445D01*
X451162Y272170D02*
Y281003D01*
X400750Y450249D02*
X401538Y449461D01*
X409880Y349683D02*
Y367074D01*
Y349683D02*
X413983Y345580D01*
X304178Y654232D02*
X308248D01*
X438779Y668248D02*
Y678248D01*
X419488D02*
X419882D01*
X287439Y690066D02*
Y698699D01*
X398337Y177647D02*
Y182708D01*
X380421Y157656D02*
X390430D01*
X390514Y157572D01*
X320020Y116820D02*
Y124995D01*
X418428Y230776D02*
X420246Y228958D01*
X287274Y169893D02*
X287668D01*
X444686Y204543D02*
X449410D01*
X358955Y198066D02*
X367111D01*
X361810Y201432D02*
Y201968D01*
X358574Y198448D02*
X358955Y198066D01*
X361602Y201224D02*
X361810Y201432D01*
X351481Y201224D02*
X361602D01*
X367111Y198066D02*
X371118Y202073D01*
X355937Y192458D02*
X355998Y192519D01*
X356244Y465693D02*
Y472713D01*
X383752Y464713D02*
X388185Y469146D01*
X355937Y191316D02*
Y192458D01*
X403028Y173106D02*
X403093D01*
X399606Y176378D02*
X400393Y177165D01*
X401968D01*
X407086Y171653D02*
X409980Y174547D01*
X407086Y171653D02*
X407086D01*
X409980Y159941D02*
Y174547D01*
X337832Y604240D02*
X339764Y606171D01*
X333646Y598425D02*
X337832Y594240D01*
X328445Y598425D02*
X333646D01*
X338251Y613381D02*
X341339D01*
X342552Y612168D01*
X346208D01*
X335770Y610900D02*
X338251Y613381D01*
X333735Y610900D02*
X335770D01*
X331260Y608425D02*
X333735Y610900D01*
X328445Y613425D02*
X333111D01*
X335887Y619297D02*
X337099Y620510D01*
X332734Y619413D02*
X335770D01*
X331746Y618425D02*
X332734Y619413D01*
X328445Y618425D02*
X331746D01*
X328445Y608425D02*
X331260D01*
X397207Y604294D02*
X402756Y609843D01*
X374840Y586184D02*
X377028Y583996D01*
X390551Y623425D02*
Y631103D01*
X396457D01*
X444889Y640465D02*
Y642527D01*
X438779Y648248D02*
Y653248D01*
X449409Y685630D02*
X459449Y675591D01*
X356208Y595632D02*
X356639Y596063D01*
X362008Y647441D02*
Y658465D01*
X382283Y649213D02*
X384646Y651575D01*
X406428Y675709D02*
Y683921D01*
X337099Y620510D02*
Y633465D01*
X269330Y131890D02*
X269951Y132511D01*
X266998Y146816D02*
X269417Y144397D01*
X270170D01*
X273071Y141496D01*
Y137132D02*
Y141496D01*
Y137132D02*
X273950Y136253D01*
X277432D01*
X266998Y146816D02*
Y150031D01*
X277432Y132511D02*
Y136253D01*
X306565Y139893D02*
X308687Y137771D01*
X311891D01*
X313577Y136085D01*
X289833Y127983D02*
X300166D01*
X304198Y132015D01*
X311891D01*
X313577Y133701D01*
Y136085D01*
X393845Y219279D02*
X396865D01*
X393845D02*
Y221539D01*
X266998Y150031D02*
X276644Y159676D01*
X390227Y182708D02*
Y193731D01*
X310896Y117157D02*
X315483Y112570D01*
X326388D02*
X330020Y116202D01*
X454098Y161054D02*
Y169615D01*
X391625Y205011D02*
X392430Y205816D01*
X386359Y238224D02*
Y238224D01*
X434176Y162666D02*
X443447D01*
X420246Y217354D02*
X428645D01*
X322208Y181435D02*
Y198658D01*
X310598Y210268D02*
X322208Y198658D01*
X320208Y179161D02*
Y197830D01*
X309770Y208268D02*
X320208Y197830D01*
X322208Y181435D02*
X323389Y180254D01*
X320208Y179161D02*
X321389Y177980D01*
X326772Y170669D02*
Y174409D01*
X348288Y198031D02*
X351481Y201224D01*
X326772Y174409D02*
X331102Y178740D01*
X381102Y174409D02*
Y177521D01*
X390514Y157572D02*
X397611D01*
X436775Y202686D02*
Y203937D01*
X376471Y243701D02*
X411932D01*
X418428Y228109D02*
Y230776D01*
X369456Y236686D02*
X376471Y243701D01*
X323389Y165660D02*
Y180254D01*
X321389Y164831D02*
Y177980D01*
X338226Y658177D02*
X338280Y658123D01*
X346813D01*
X280224Y597281D02*
X282640Y599698D01*
X273191Y597281D02*
Y604422D01*
X281815Y639295D02*
X284646Y642126D01*
X279103Y639295D02*
X281815D01*
X277209Y637402D02*
X279103Y639295D01*
X273622Y637402D02*
X277209D01*
X271264Y635043D02*
X273622Y637402D01*
X270205Y635043D02*
X271264D01*
X273622Y626113D02*
X274894Y624840D01*
X269327Y634165D02*
X270205Y635043D01*
X269327Y629340D02*
Y634165D01*
X336113Y646063D02*
X338226Y648176D01*
X331890Y646063D02*
X336113D01*
X296555Y644031D02*
X305807D01*
Y634031D02*
X312426D01*
X301575Y629134D02*
X316590D01*
X311842Y627134D02*
X315551Y623425D01*
X302403Y627134D02*
X311842D01*
X316590Y629134D02*
X318989Y631533D01*
X305807Y644031D02*
X306137Y643701D01*
X313386D01*
X303058Y653113D02*
X304178Y654232D01*
X308248D02*
X310173Y652307D01*
Y650166D02*
Y652307D01*
Y650166D02*
X313386Y646954D01*
Y643701D02*
Y646954D01*
X284498Y611555D02*
X290551D01*
X282640Y609698D02*
X284498Y611555D01*
X285177Y593307D02*
X290551Y598681D01*
X275984Y593307D02*
X285177D01*
X390551Y623425D02*
X391339Y622638D01*
X390551Y631103D02*
X391339Y631890D01*
Y645079D01*
X362242Y639673D02*
X363423Y640854D01*
X370510D01*
X369291Y642072D02*
X370510Y640854D01*
X369291Y642072D02*
Y647244D01*
X452041Y605978D02*
X453445Y604574D01*
X423384Y605978D02*
X452041D01*
X412827Y616536D02*
X423384Y605978D01*
X421613Y603978D02*
X451213D01*
X410827Y614764D02*
X421613Y603978D01*
X369452Y233822D02*
X369456Y233825D01*
Y236686D01*
X364334Y220540D02*
X364727Y220146D01*
X370687Y218178D02*
X371118Y218609D01*
X364334Y220934D02*
X367931D01*
X431735Y259601D02*
X434304Y262170D01*
X369058Y171042D02*
X373426Y175409D01*
X451342Y220934D02*
X454400Y223992D01*
X451162Y262170D02*
X455279Y258053D01*
X451162Y291003D02*
Y299836D01*
Y309836D02*
Y318669D01*
X350207Y246625D02*
X352001Y248419D01*
X356817Y185356D02*
X356870Y185409D01*
X339833Y200497D02*
Y200818D01*
Y200497D02*
X340154D01*
X340556Y201541D02*
X341601Y201284D01*
X340063Y202035D02*
X340556Y201541D01*
X330020Y116202D02*
Y116820D01*
X276250Y159676D02*
X277227D01*
X317724Y143547D02*
X320020Y141251D01*
X361972Y193237D02*
X365084Y190124D01*
X347987Y339649D02*
X348388Y340050D01*
X361093Y354105D02*
Y359631D01*
X429971Y340129D02*
X438487D01*
Y353003D02*
X438513Y353030D01*
X372798Y166800D02*
X373480Y166118D01*
X379991D01*
X354885Y162666D02*
X361184D01*
X365318Y166800D01*
X297744Y124009D02*
X303416Y118338D01*
X289833Y117747D02*
Y127983D01*
X307156Y125818D02*
X307514Y126176D01*
X273691Y125031D02*
X275069Y123653D01*
X282928D01*
X373389Y193769D02*
X373426Y193731D01*
X433625Y187535D02*
X438940Y182220D01*
X315724Y141444D02*
X316998Y140169D01*
Y128016D02*
Y140169D01*
X281558Y175614D02*
Y177676D01*
X343483Y351066D02*
X347987D01*
X349033Y352113D01*
X328242Y356010D02*
Y366932D01*
Y356010D02*
X335276Y348976D01*
Y343307D02*
Y348976D01*
X427887Y360242D02*
Y363676D01*
X287274Y154893D02*
X287668D01*
X276113Y331211D02*
X278507Y333605D01*
Y345510D01*
X278113Y236682D02*
X280476Y234320D01*
X278113Y236682D02*
Y330383D01*
X282346Y334615D01*
X355298Y236387D02*
X355594Y236682D01*
X355502Y238220D02*
X356762Y239479D01*
X355594Y236682D02*
X360003D01*
X353935Y297002D02*
X356762Y294174D01*
X358510Y218141D02*
X358866Y217785D01*
X359610D01*
X371024Y343701D02*
Y350119D01*
X288721Y454750D02*
X294652Y448819D01*
X307221Y451316D02*
Y454750D01*
X373391Y499740D02*
Y507239D01*
Y485596D02*
Y489740D01*
X394737Y455549D02*
X395367D01*
X313252Y470199D02*
Y472713D01*
X428703Y694132D02*
X431587D01*
X273228Y644626D02*
Y653187D01*
X362901Y578905D02*
Y586184D01*
X361161Y577166D02*
X362901Y578905D01*
X377134Y474016D02*
X379248Y476130D01*
X368897Y479920D02*
Y480709D01*
X301575Y480709D02*
Y481890D01*
X300248Y479382D02*
X301575Y480709D01*
X300248Y475630D02*
Y479382D01*
X287439Y698699D02*
X287953Y699213D01*
X459449Y668110D02*
Y675591D01*
X331122Y654232D02*
X335066Y658177D01*
X338226D01*
X323248Y654232D02*
X331122D01*
X333651Y664826D02*
X343267D01*
X330002Y661177D02*
X333651Y664826D01*
X301123Y661177D02*
X330002D01*
X319020Y659177D02*
X330831D01*
X334479Y662826D02*
X342438D01*
X330831Y659177D02*
X334479Y662826D01*
X328989Y631533D02*
Y634791D01*
X400394Y620079D02*
Y641732D01*
Y645079D01*
X396850Y638189D02*
X400394Y641732D01*
X451378Y694488D02*
X452756Y693110D01*
X443519Y694488D02*
X451378D01*
X418933Y691965D02*
X419291Y692323D01*
X373695Y656299D02*
X378740D01*
X365221Y664773D02*
X373695Y656299D01*
X410827Y614764D02*
Y618628D01*
X347336Y648123D02*
X353846D01*
X379012Y649878D02*
X382709Y653575D01*
X379012Y640324D02*
Y649878D01*
X377012Y623382D02*
Y650154D01*
X364393Y662773D02*
X377012Y650154D01*
X379012Y640324D02*
X379134Y640202D01*
Y638189D02*
Y640202D01*
X382709Y653575D02*
X403512D01*
X402756Y609843D02*
Y617717D01*
X400394Y620079D02*
X402756Y617717D01*
X395421Y604294D02*
X397207D01*
X384646Y651575D02*
X402683D01*
X343267Y664773D02*
X365221D01*
X382283Y645079D02*
Y649213D01*
X379134Y638189D02*
X381071Y636252D01*
X383071Y617845D02*
Y644095D01*
X360630Y659843D02*
X362008Y658465D01*
X366142Y651575D02*
X372441D01*
X378202Y463666D02*
X379248Y464713D01*
X371654Y483858D02*
X373391Y485596D01*
X286469Y652399D02*
X289801D01*
X342438Y662773D02*
X364393D01*
X287953Y699213D02*
X288226Y698940D01*
X277953Y707692D02*
X278885Y708625D01*
X348533Y659843D02*
X360630D01*
X346813Y658123D02*
X348533Y659843D01*
X362008Y647441D02*
X366142Y651575D01*
X372441D02*
X374760Y649257D01*
Y626295D02*
Y649257D01*
X371389Y622925D02*
X374760Y626295D01*
X449213Y483858D02*
Y577559D01*
X446850Y579921D02*
X449213Y577559D01*
X310354Y603425D02*
X315354Y598425D01*
X290551Y618110D02*
X301575Y629134D01*
X298425Y623156D02*
X302403Y627134D01*
X298425Y617323D02*
Y623156D01*
X310354Y603425D02*
X312480D01*
X306988D02*
X310354D01*
X312480D02*
X314173Y605118D01*
X280906Y634252D02*
X288386D01*
X278405Y631752D02*
X280906Y634252D01*
X273228Y631752D02*
X278405D01*
X396428Y700140D02*
Y700758D01*
X423032Y699803D02*
X428703Y694132D01*
X406428Y691965D02*
X409449Y688943D01*
Y676791D02*
Y688943D01*
Y676791D02*
X410724Y675516D01*
Y670773D02*
Y675516D01*
Y670773D02*
X413248Y668248D01*
X406428Y675709D02*
X408724Y673413D01*
Y668442D02*
Y673413D01*
Y668442D02*
X413917Y663248D01*
X311772Y613425D02*
X320472Y604725D01*
Y603544D02*
Y604725D01*
X316535Y614173D02*
X322284Y608425D01*
X353846Y648123D02*
X354528Y647441D01*
X353900Y620510D02*
X353937Y620473D01*
X347099Y620510D02*
X353900D01*
X362242Y624117D02*
Y628832D01*
X370456D02*
X370510Y628885D01*
X344882Y637402D02*
X345079Y637205D01*
Y629725D02*
X345972Y628832D01*
X449016Y685630D02*
X449409D01*
X449220Y658465D02*
X450197D01*
X357870Y580416D02*
X357874Y580420D01*
X357870Y577555D02*
Y580416D01*
X352874Y572559D02*
X357870Y577555D01*
X317313Y572559D02*
X352874D01*
X340908Y577596D02*
X340982D01*
X335827Y582677D02*
X340908Y577596D01*
X333720Y582677D02*
X335827D01*
X330177Y586221D02*
X333720Y582677D01*
X330177Y586221D02*
Y591693D01*
X306988Y613425D02*
X311772D01*
X315354Y598425D02*
X328445D01*
X349569Y586184D02*
X352901D01*
X350394Y590551D02*
X356693D01*
X346208Y594737D02*
X350394Y590551D01*
X362901Y586184D02*
X374840D01*
X357874Y580420D02*
Y589370D01*
X356693Y590551D02*
X357874Y589370D01*
X312743Y577129D02*
X317313Y572559D01*
X451213Y483030D02*
Y603978D01*
X448819Y480636D02*
X451213Y483030D01*
X448819Y470177D02*
Y480636D01*
Y470177D02*
X453445Y465551D01*
X444980Y479626D02*
X449213Y483858D01*
X444980Y469291D02*
Y479626D01*
X315551Y623425D02*
X328445D01*
X295591Y561083D02*
Y569655D01*
X274153Y572579D02*
X276240D01*
X272926Y575893D02*
X276240Y572579D01*
X277559D01*
X272926Y590249D02*
X275984Y593307D01*
X304095Y608425D02*
X306988D01*
X306732Y598681D02*
X306988Y598425D01*
X328445D02*
Y603425D01*
X306988Y593425D02*
X312743Y587670D01*
X306988Y618425D02*
Y623425D01*
X272047Y570473D02*
X274153Y572579D01*
X272047Y556188D02*
Y570473D01*
Y556188D02*
X276164Y552071D01*
X293022D02*
X295591Y554640D01*
X284593Y552071D02*
X293022D01*
X276164Y533238D02*
Y542071D01*
X293022Y533238D02*
Y542071D01*
X284593Y533238D02*
X293022D01*
X284593D02*
Y542071D01*
X293022Y514405D02*
Y523238D01*
X284593Y514405D02*
X293022D01*
X284593D02*
Y523238D01*
X276164Y514405D02*
Y523238D01*
Y495572D02*
Y504405D01*
X284593Y495572D02*
Y504405D01*
Y495572D02*
X293022D01*
Y504405D01*
X288748Y475650D02*
X297264D01*
X294652Y448819D02*
X304724D01*
X307221Y451316D01*
X288721Y462749D02*
X288748Y462776D01*
X300248Y464213D02*
X304752D01*
X298721Y462686D02*
X300248Y464213D01*
X284593Y485572D02*
X293022D01*
X370472Y520158D02*
Y576299D01*
X375234Y525554D02*
X378740Y522047D01*
Y478651D02*
Y522047D01*
X375234Y567360D02*
X377028Y569154D01*
X380512Y606103D02*
X382028Y604587D01*
X405367Y604240D02*
X405420Y604294D01*
X435703Y590482D02*
X435743Y590443D01*
X384646Y609055D02*
X386221Y607480D01*
X273191Y614422D02*
X277916Y609698D01*
X282640D01*
X284894Y624840D02*
X291835D01*
X293701Y626706D01*
X288386Y632021D02*
X293701Y626706D01*
X288386Y632021D02*
Y634252D01*
X368460Y596456D02*
X368816Y596100D01*
X362598Y594095D02*
X362992Y593701D01*
X330921Y633465D02*
X337099D01*
X328989Y631533D02*
X330921Y633465D01*
X355118Y624803D02*
X359449Y620473D01*
X341393Y624803D02*
X355118D01*
X337099Y620510D02*
X341393Y624803D01*
X371388Y449607D02*
X379528D01*
X383556Y453635D01*
X419882Y678248D02*
X424705D01*
X406428Y691965D02*
X418933D01*
X298425Y590158D02*
X302106Y586477D01*
X298425Y598681D02*
X306732D01*
X340982Y577596D02*
X341981D01*
X328445Y593425D02*
X330177Y591693D01*
X312743Y577129D02*
Y585003D01*
X377028Y577461D02*
Y577854D01*
X298425Y611555D02*
X300532D01*
X435244Y466347D02*
Y473213D01*
X453445Y473032D02*
Y604574D01*
X313248Y650532D02*
X328989Y634791D01*
X302106Y576170D02*
Y579134D01*
X293058Y653113D02*
X301123Y661177D01*
X367390Y483858D02*
X371654D01*
X356244Y472713D02*
X367390Y483858D01*
X288721Y454750D02*
Y462749D01*
X298721Y454750D02*
Y462686D01*
X379248Y464713D02*
X383752D01*
X424705Y678248D02*
X438779D01*
X413248Y668248D02*
X419488D01*
X406428Y691965D02*
Y700140D01*
X413917Y663248D02*
X419488D01*
X436614Y690158D02*
Y700394D01*
X424705Y678248D02*
X436614Y690158D01*
X290551Y611555D02*
Y618110D01*
X296555Y634031D02*
X305807D01*
X318248Y658406D02*
X319020Y659177D01*
X438779Y663248D02*
X439173D01*
X370472Y520158D02*
X373391Y517240D01*
X290551Y598681D02*
Y605118D01*
X341981Y577596D02*
X347857D01*
X302106Y579134D02*
Y586477D01*
X312743Y585003D02*
Y587670D01*
X449461Y102006D02*
Y110609D01*
X312205Y446958D02*
X312743Y446420D01*
X312205Y471665D02*
X313252Y472713D01*
X304752Y464213D02*
X312205Y471665D01*
X354761Y446420D02*
X355118Y446063D01*
X322743Y446420D02*
Y449228D01*
X321389Y164831D02*
X324016Y162205D01*
X323389Y165660D02*
X324844Y164205D01*
X313611Y154893D02*
X317724Y150780D01*
Y143547D02*
Y150780D01*
X306565Y154893D02*
X313611D01*
X314280Y149893D02*
X315724Y148450D01*
Y141444D02*
Y148450D01*
X306565Y149893D02*
X314280D01*
X312030Y159893D02*
X322373Y149550D01*
X443447Y162666D02*
X443521Y162592D01*
X445433Y126378D02*
X445480Y126425D01*
X446110D01*
X448851Y129166D01*
X405020Y159941D02*
X405118Y159843D01*
X428740Y153937D02*
X434176Y159373D01*
Y162666D01*
X437591Y133587D02*
X439796Y131382D01*
X273881Y221788D02*
X287402Y208268D01*
X309770D01*
X276113Y222384D02*
Y331211D01*
Y222384D02*
X288230Y210268D01*
X310598D01*
X370798Y224871D02*
X375751D01*
X369452Y226217D02*
X370798Y224871D01*
X369452Y226217D02*
Y233822D01*
X405043Y205816D02*
X410790Y200068D01*
X365084Y186221D02*
Y190124D01*
X380543Y186221D02*
X381354Y185409D01*
X380314Y174709D02*
X380614Y174409D01*
X381102D01*
X410237Y192353D02*
X413976Y188614D01*
X424924Y200816D02*
X428046Y203937D01*
X438026D02*
X444079D01*
X444686Y204543D01*
X450508Y242240D02*
X454400Y238348D01*
X455279Y247011D02*
Y258053D01*
X429125Y351566D02*
X433858Y356299D01*
Y357713D01*
X436387Y360242D01*
X438487Y353003D02*
X443554D01*
X446387Y355836D01*
X365358Y332287D02*
X370990Y337920D01*
X353843Y330183D02*
X355948Y332287D01*
X365358D01*
X332891Y360230D02*
X334646Y361984D01*
Y374803D01*
X335039Y375197D01*
X394488Y442126D02*
X395669Y443307D01*
Y453829D01*
X393950Y455549D02*
X395669Y453829D01*
X345207Y210798D02*
X346723Y209283D01*
X398790Y217354D02*
X410434D01*
X415434Y212353D01*
X413153Y209123D02*
X416383Y212353D01*
X415434D02*
X416383D01*
X406693Y209677D02*
Y212205D01*
Y209677D02*
X415554Y200816D01*
X315483Y112570D02*
X326388D01*
X289833Y117747D02*
X294588Y112992D01*
X374334Y229595D02*
X378947Y234209D01*
Y238613D02*
X384823D01*
X385254Y238183D01*
X386418Y236645D02*
X390386Y232677D01*
X393307D01*
X350298Y234347D02*
Y236387D01*
Y234347D02*
X355118Y229528D01*
X364334Y229595D02*
X364425Y229687D01*
X366073Y231335D01*
X290551Y224395D02*
X291492Y225336D01*
X451071Y338079D02*
X452756Y339370D01*
X424803Y333858D02*
X426987Y336042D01*
Y340149D01*
X359518Y336545D02*
X359842Y336221D01*
X359518Y336545D02*
Y340050D01*
X342104Y362144D02*
X344527Y364567D01*
X355877D01*
X360214Y360230D01*
X427887Y363676D02*
X429172Y364961D01*
X441669D01*
X446387Y360242D01*
X269327Y629340D02*
X272553Y626113D01*
X273622D01*
X377021Y455549D02*
Y463666D01*
X294588Y112992D02*
X306731D01*
X310896Y117157D01*
X420791Y705044D02*
X431965D01*
X415551Y699803D02*
X420791Y705044D01*
X431965D02*
X436614Y700394D01*
X398790Y192353D02*
X410237D01*
X349213Y293013D02*
X352001Y290225D01*
X349213Y293013D02*
Y336409D01*
X359395Y593307D02*
X362992D01*
X367716Y596456D02*
X368460D01*
X365354Y608130D02*
X366672D01*
X370286Y611744D01*
X381102Y611811D02*
X385881D01*
X306988Y608264D02*
Y608425D01*
X290551Y605118D02*
X293697Y608264D01*
X303933D01*
X306988D01*
X303933D02*
X304095Y608425D01*
X356208Y612168D02*
X361757Y617717D01*
X362328D01*
X362331Y617713D01*
X365354Y613386D02*
X366106Y614138D01*
X387493Y613423D02*
Y613744D01*
X385881Y611811D02*
X387493Y613423D01*
X376641Y608137D02*
X377559Y609055D01*
X384646D01*
X409980Y132933D02*
X411811Y131102D01*
X439516D01*
X439796Y131382D01*
X404980Y133209D02*
X409087Y129102D01*
X432315D01*
X434252Y127165D01*
Y126378D02*
X445433D01*
X324844Y164205D02*
X342590D01*
X344951Y166566D01*
X354196Y189575D02*
X355937Y191316D01*
X345940Y192856D02*
X348087Y195004D01*
X349606Y191338D02*
X349969Y190975D01*
Y176438D02*
Y190975D01*
X343940Y170461D02*
X344255Y170147D01*
X345940Y177638D02*
Y192856D01*
X343940Y196081D02*
X345890Y198031D01*
X346156Y162205D02*
X348425Y164474D01*
Y175153D01*
X345940Y177638D02*
X348425Y175153D01*
X350425Y163976D02*
Y175981D01*
X352425Y165126D02*
X354885Y162666D01*
X352425Y165126D02*
Y176810D01*
X349969Y176438D02*
X350425Y175981D01*
X351969Y177266D02*
X352425Y176810D01*
X324016Y162205D02*
X346156D01*
X348087Y195004D02*
X352970D01*
X353354Y189575D02*
X354196D01*
X351969Y177266D02*
Y188189D01*
X353354Y189575D01*
X390135Y193640D02*
Y195269D01*
Y193640D02*
X390227Y193731D01*
X413976Y188614D02*
X423654D01*
X428901Y193861D01*
Y196918D01*
X412243Y186614D02*
X425197D01*
X436775Y198192D01*
Y202686D01*
Y209123D02*
Y218665D01*
X439044Y220934D01*
X451342D01*
X283331Y134893D02*
X287274D01*
X313248Y675689D02*
Y679665D01*
X311811Y681102D02*
X313248Y679665D01*
X288475Y681102D02*
X311811D01*
X287439Y680066D02*
X288475Y681102D01*
X318248Y675689D02*
Y679783D01*
X314929Y683102D02*
X318248Y679783D01*
X295244Y683102D02*
X314929D01*
X293307Y685039D02*
X295244Y683102D01*
X278383Y679673D02*
Y680746D01*
X282677Y685039D01*
X293307D01*
X405118Y155118D02*
Y156693D01*
X418086Y153937D02*
X428740D01*
X405856Y153028D02*
X417176D01*
X418086Y153937D01*
X365318Y157939D02*
Y166800D01*
Y157939D02*
X367746Y155512D01*
X379906D01*
X380513Y156118D01*
X348031Y158661D02*
X355906Y150787D01*
X403616D01*
X405856Y153028D01*
X350425Y163976D02*
X361614Y152787D01*
X402787D01*
X405118Y155118D01*
X398819Y452180D02*
X400750Y450249D01*
X393331Y465331D02*
X398819Y459842D01*
Y452180D02*
Y459842D01*
X353900Y638832D02*
Y640121D01*
X358268Y644488D01*
Y654921D01*
X373014Y619806D02*
X378861D01*
X381071Y622016D01*
Y636252D01*
X355998Y192519D02*
X356298D01*
X352970Y195004D02*
X356414Y198448D01*
X358574D01*
X348541Y204165D02*
X351481Y201224D01*
X349082Y206452D02*
X351606Y203928D01*
X350841Y207522D02*
Y210774D01*
X372244Y609055D02*
X374410D01*
X372244Y599528D02*
Y606221D01*
X392613Y202362D02*
X397335D01*
X391596Y201346D02*
X392613Y202362D01*
X390971Y205011D02*
X391625D01*
X387413Y201453D02*
X390971Y205011D01*
X381739Y201453D02*
X387413D01*
X392430Y205816D02*
X405043D01*
X414900Y180210D02*
X430771D01*
X387402Y205512D02*
Y208661D01*
X400122Y170201D02*
X403028Y173106D01*
X400122Y160083D02*
Y170201D01*
X359842Y212267D02*
Y212598D01*
Y212267D02*
X361880Y210229D01*
X320011Y149550D02*
Y150168D01*
X442733Y272170D02*
Y281003D01*
X426987Y351566D02*
X429125D01*
X273881Y221788D02*
Y342747D01*
X451071Y330207D02*
Y338079D01*
X320020Y133039D02*
Y141251D01*
X442733Y309836D02*
Y318669D01*
Y291003D02*
Y299836D01*
X318839Y126176D02*
X320020D01*
X350207Y237924D02*
Y246625D01*
X328242Y366932D02*
X329171Y367861D01*
X434304Y281003D02*
X442733D01*
X422483Y351566D02*
X426987D01*
X413983Y343066D02*
X422483Y351566D01*
X373426Y193731D02*
X380227D01*
X371118Y202073D02*
Y210341D01*
X448943Y111128D02*
X449461Y110609D01*
X454400Y223992D02*
Y238348D01*
X450508Y242240D02*
X455279Y247011D01*
X448851Y129166D02*
Y131776D01*
X404980Y133209D02*
Y136516D01*
X434304Y318669D02*
X442733D01*
X398337Y177647D02*
X399606Y176378D01*
X351639Y206724D02*
X354991D01*
X345207Y210798D02*
Y216861D01*
X433625Y187535D02*
X435491Y189401D01*
X434304Y299836D02*
X442733D01*
X359518Y340050D02*
Y340838D01*
X348388Y340050D02*
X359518D01*
X352001Y262484D02*
Y290225D01*
X287668Y139893D02*
Y149893D01*
X409980Y132933D02*
Y136516D01*
X403093Y173106D02*
X408246Y178259D01*
X346723Y204165D02*
X348541D01*
X341550D02*
X346723D01*
X386359Y238224D02*
X386418Y236645D01*
X393307Y232677D02*
X397149Y228835D01*
X386344Y238613D02*
X386359Y238224D01*
X411932Y243701D02*
X418520Y237113D01*
X381118Y210341D02*
Y219504D01*
X375751Y224871D02*
X381118Y219504D01*
X439887Y111212D02*
Y119844D01*
X446387Y355836D02*
Y360242D01*
X434304Y262170D02*
X442733D01*
X425220Y227765D02*
X428901Y224083D01*
X425220Y238071D02*
X431735Y244586D01*
X361880Y207649D02*
Y210229D01*
X351606Y203928D02*
X354991D01*
X352001Y248419D02*
Y252484D01*
X350298Y236387D02*
Y245087D01*
X364425Y229528D02*
Y229687D01*
X355118Y229528D02*
X364425D01*
X345298Y236387D02*
X350298D01*
X340923Y360230D02*
Y362144D01*
X342361Y209330D02*
Y209370D01*
X345240Y206452D02*
X349082D01*
X342361Y209330D02*
X343254Y208438D01*
X344697Y206995D02*
X345240Y206452D01*
X343254Y208105D02*
Y208438D01*
Y208105D02*
X344364Y206995D01*
X344697D01*
X404980Y159941D02*
X405020D01*
X335120Y614566D02*
X335197Y614488D01*
X335276D01*
X333111Y613425D02*
X334174Y614488D01*
X335197D01*
X365118Y607894D02*
X365354Y608130D01*
X365118Y603465D02*
Y607894D01*
Y603465D02*
X365669Y602913D01*
X366063D01*
X339606Y606328D02*
Y610472D01*
X367323Y456148D02*
Y461280D01*
Y461673D01*
X392252Y465331D02*
X393331D01*
X365446Y455549D02*
X371388Y449607D01*
X356870Y185409D02*
X365084D01*
Y186221D02*
X380543D01*
X387125Y190630D02*
X390135Y193640D01*
X367877Y193769D02*
X370836Y190809D01*
X377100D01*
X377279Y190630D01*
X387125D01*
X390227Y193731D02*
X392311Y195816D01*
X390227Y182708D02*
X398337D01*
X420338Y192353D02*
Y195816D01*
X392311D02*
X420338D01*
X344951Y166566D02*
Y170700D01*
X343940Y170461D02*
Y196081D01*
X339833Y200818D02*
X340556Y201541D01*
X340154Y200497D02*
X340617Y200749D01*
X340556Y201541D02*
X341445Y202430D01*
X345890Y198031D02*
X348288D01*
X340617Y200749D02*
X341601Y201284D01*
X389100Y156065D02*
X392260D01*
X397611Y157572D02*
X400122Y160083D01*
X408337Y182708D02*
X412243Y186614D01*
X415554Y200816D02*
X424924D01*
X449410Y204543D02*
X454135Y199819D01*
X364727Y213847D02*
Y220146D01*
X367931Y220934D02*
X370687Y218178D01*
X384275Y228021D02*
X391339D01*
X428046Y203937D02*
X436775D01*
Y202686D02*
X438026Y203937D01*
X334983Y342566D02*
Y343307D01*
Y342566D02*
X343483Y351066D01*
X350214Y352113D02*
Y360230D01*
X370921Y617713D02*
X373014Y619806D01*
X362331Y617713D02*
X370921D01*
X374410Y609055D02*
X376394Y611039D01*
X366106Y614138D02*
X370595D01*
X373543Y617087D01*
X376220Y611213D02*
X376394Y611039D01*
X376220Y611213D02*
Y613937D01*
X335770Y619413D02*
X335887Y619297D01*
X384066Y616850D02*
X387172Y613744D01*
X379921Y616850D02*
X384066D01*
X383071Y617845D02*
X384066Y616850D01*
X376394Y605005D02*
X376641Y605252D01*
Y608137D01*
X370286Y611744D02*
X372244D01*
X337795Y586221D02*
X343051D01*
X356639Y596063D02*
X359395Y593307D01*
X387172Y613744D02*
X387493D01*
X373543Y617087D02*
X379921D01*
X269330Y131890D02*
X270270D01*
X291990Y342566D02*
Y343307D01*
X370990Y337920D02*
Y343701D01*
X273191Y597281D02*
X280224D01*
X370472Y576299D02*
X372028Y577854D01*
X368816Y596100D02*
X372244Y599528D01*
X339606Y606328D02*
X339764Y606171D01*
X344882Y637402D02*
X346850Y639370D01*
X434304Y328669D02*
X451162D01*
X356693Y174893D02*
X356725Y174925D01*
X321905Y210192D02*
Y211539D01*
X282346Y334615D02*
Y346487D01*
X356219Y215850D02*
X358510Y218141D01*
X355594Y236682D02*
X356762Y237850D01*
Y239479D01*
D33*
X459842Y680315D02*
X460669Y681141D01*
X428065Y632958D02*
X429102Y633995D01*
X441111Y627559D02*
X444943Y631391D01*
X433465Y627559D02*
X441111D01*
X428065Y632958D02*
X433465Y627559D01*
X428065Y632958D02*
Y633471D01*
X227378Y93701D02*
X371260D01*
X211811Y109268D02*
X227378Y93701D01*
X310350Y218686D02*
Y225691D01*
X415703Y590482D02*
Y597487D01*
X435703Y590482D02*
Y597487D01*
X278383Y689673D02*
Y698782D01*
X297953Y699213D02*
Y708529D01*
X288885Y708625D02*
X298049D01*
X335827Y170669D02*
Y193110D01*
X405346Y233858D02*
X408428Y230776D01*
X403636Y233858D02*
X408428Y238650D01*
X441643Y254696D02*
X448298D01*
X438002Y230916D02*
Y236645D01*
X337795Y687402D02*
Y713386D01*
X311492Y238210D02*
X315045Y241763D01*
X329203D01*
X401575Y233858D02*
X403636D01*
X397250Y238183D02*
X401575Y233858D01*
X430680Y171748D02*
X440684D01*
X444594Y216081D02*
X453089D01*
X395367Y576681D02*
Y579565D01*
Y576681D02*
X398031Y574016D01*
X270935Y148062D02*
X273776Y150903D01*
X329742Y199195D02*
X335827Y193110D01*
X329203Y241763D02*
X331868Y239098D01*
X326378Y171063D02*
Y183465D01*
Y171063D02*
X326772Y170669D01*
X390514Y167572D02*
X393415Y170472D01*
X414961Y167323D02*
X417002D01*
X452340Y190939D02*
X454043Y192642D01*
Y196223D01*
X457615D02*
X458778Y197385D01*
Y205328D01*
X457615Y206490D02*
X458778Y205328D01*
X454043Y206490D02*
X457615D01*
X454043Y217035D02*
X455512Y218504D01*
X453089Y216081D02*
X454043Y217035D01*
X436614Y228346D02*
Y229528D01*
X438002Y230916D01*
X441643Y246124D02*
X441710Y246057D01*
X441643Y246124D02*
Y254696D01*
X444255Y236288D02*
X444309Y236235D01*
X436614Y228346D02*
X437014Y227946D01*
X403636Y233858D02*
X405346D01*
X395253Y238183D02*
X397250D01*
X440684Y171748D02*
X442589Y173653D01*
X421427Y171748D02*
X424176Y168999D01*
X421451Y159941D02*
X424176Y162666D01*
X329742Y199195D02*
Y202356D01*
X363812Y174925D02*
X364993Y176106D01*
X265778Y137000D02*
X266605Y137826D01*
X273776Y150903D02*
X277321D01*
X297953Y708529D02*
X298049Y708625D01*
X277953Y699213D02*
X278383Y698782D01*
X452671Y667238D02*
X455512Y670079D01*
X445136Y663248D02*
X449126Y667238D01*
X398031Y574016D02*
X412190D01*
X415742Y577569D01*
X439173Y663248D02*
X445136D01*
X449126Y667238D02*
X452671D01*
X327559Y723622D02*
X337795Y713386D01*
X211811Y712992D02*
X222441Y723622D01*
X211811Y109268D02*
Y712992D01*
X290551Y219272D02*
Y224395D01*
X277321Y150903D02*
X281311Y154893D01*
X287274D01*
X429102Y657066D02*
X435285Y663248D01*
X429102Y633995D02*
Y644028D01*
Y657066D01*
X322743Y676194D02*
Y689727D01*
Y676194D02*
X323248Y675689D01*
X322743Y689727D02*
X325068Y687402D01*
X337795D01*
X281102Y187402D02*
X281890Y188189D01*
X293407D01*
X294846Y186750D01*
X393415Y170472D02*
X397244D01*
X454043Y206490D02*
Y211357D01*
X399980Y128595D02*
X404491Y124083D01*
X371260Y93701D02*
X405035Y127476D01*
X399980Y128595D02*
Y136516D01*
X222441Y723622D02*
X327953D01*
X454043Y211357D02*
Y217035D01*
X421427Y171748D02*
X430680D01*
X448298Y254696D02*
X449676Y256074D01*
X444309Y227946D02*
Y236235D01*
X438002Y242349D02*
X441710Y246057D01*
X437014Y227946D02*
X444309D01*
X438002Y236645D02*
Y242349D01*
X454043Y196223D02*
X457615D01*
X417002Y167323D02*
X421427Y171748D01*
X424176Y162666D02*
Y168999D01*
X332087Y170669D02*
X335827D01*
X448943Y111128D02*
Y120238D01*
X331868Y236214D02*
Y239098D01*
X291492Y238210D02*
X311492D01*
X415742Y577569D02*
X435743D01*
X425703Y589084D02*
Y597487D01*
X356693Y167717D02*
Y174893D01*
X356725Y174925D02*
X363812D01*
X300350Y218292D02*
Y226694D01*
X414980Y159941D02*
X421451D01*
D34*
X331868Y236214D02*
X338103D01*
X331814Y211485D02*
X331868Y211539D01*
X388681Y598917D02*
X392476D01*
X395367Y596026D01*
X389131Y579565D02*
X395367D01*
X387657Y578091D02*
X389131Y579565D01*
X419882Y633071D02*
Y647244D01*
X560630Y509055D02*
X584252D01*
X556693D02*
X560630D01*
X444889Y642527D02*
X448826Y646464D01*
X449220Y649465D02*
Y658465D01*
X276772Y447244D02*
Y484964D01*
X277227Y159676D02*
Y168676D01*
X406154Y584252D02*
X412205D01*
X407087Y610630D02*
Y616929D01*
X412205Y584252D02*
X418504D01*
X405420Y607602D02*
X406224Y608406D01*
Y609768D01*
X598032Y594882D02*
Y658661D01*
X448826Y646464D02*
Y649465D01*
X271503Y177621D02*
X271558Y177676D01*
X271505Y177730D02*
X271558Y177676D01*
X277621Y171677D02*
X281558Y175614D01*
X330020Y124995D02*
X332382Y127357D01*
X332373Y141260D02*
Y149550D01*
Y141260D02*
X332382Y141251D01*
X321814Y210283D02*
X321905Y210192D01*
X321814Y210283D02*
Y211485D01*
X291339Y579134D02*
X294882Y582677D01*
X289232Y579134D02*
X291339D01*
X288876Y579491D02*
X289232Y579134D01*
X282979Y579491D02*
X288876D01*
X282926Y587832D02*
X284464Y589370D01*
X294488D01*
X294882Y588976D01*
Y582677D02*
Y588976D01*
X277559Y559705D02*
X277559Y559705D01*
X277559Y559705D02*
Y564961D01*
X277559Y559705D02*
X278937Y561083D01*
X285591D01*
X285524Y561150D02*
X285591Y561083D01*
X285524Y561150D02*
Y569722D01*
X322743Y579921D02*
Y585003D01*
X325068Y577596D02*
X331981D01*
X322743Y585003D02*
Y587887D01*
X319685Y590945D02*
X322743Y587887D01*
X405367Y583465D02*
X406154Y584252D01*
X406224Y609768D02*
X407087Y610630D01*
X405420Y604294D02*
Y607602D01*
X597638Y236221D02*
Y245669D01*
X598032Y572835D02*
Y583465D01*
X597638Y161417D02*
Y224803D01*
X578740Y142520D02*
X597638Y161417D01*
X542913Y142520D02*
X578740D01*
X560630Y312205D02*
X587795D01*
X597638Y302362D01*
Y257087D02*
Y302362D01*
X520472Y660236D02*
X538583Y678346D01*
X578346D01*
X598032Y658661D01*
X584252Y509055D02*
X598032Y522835D01*
Y561417D01*
X321905Y211539D02*
X321959Y211592D01*
X276164Y485572D02*
X276772Y484964D01*
X415748Y136516D02*
X418996D01*
X419685Y135827D01*
X433098Y101941D02*
X439397D01*
X429528Y105512D02*
X433098Y101941D01*
X414491Y124083D02*
X420405D01*
X421654Y122835D01*
X310812Y687795D02*
X312743Y689727D01*
X304331Y687795D02*
X310812D01*
X302657Y675689D02*
X306693D01*
X302362Y675984D02*
X302657Y675689D01*
X321905Y210192D02*
X329742Y202356D01*
X517323Y168110D02*
X542913Y142520D01*
X429528Y105512D02*
Y111811D01*
X332382Y133039D02*
Y141251D01*
Y127357D02*
Y133039D01*
X331814Y211485D02*
X336231D01*
X337638Y210079D01*
X331868Y211539D02*
Y219753D01*
Y236214D01*
X395367Y579565D02*
Y596026D01*
Y604240D01*
X322743Y579921D02*
X325068Y577596D01*
X405367Y583465D02*
Y604240D01*
X520079Y652362D02*
Y660236D01*
X321868Y219753D02*
Y236214D01*
X321959Y211592D02*
Y234676D01*
D35*
X331868Y219753D02*
X337316D01*
X331814D02*
X331868D01*
X337316D02*
X340207Y216861D01*
X387028Y578721D02*
Y597264D01*
X460669Y681141D02*
Y699961D01*
X375736Y708020D02*
X452610D01*
X357480Y689764D02*
X375736Y708020D01*
X452610D02*
X460669Y699961D01*
X338103Y236214D02*
X340207Y238318D01*
Y216861D02*
Y238318D01*
X387028Y597264D02*
X388681Y598917D01*
D36*
X560630Y649213D02*
X563779Y652362D01*
X560630Y312205D02*
Y509055D01*
Y168110D02*
Y312205D01*
Y509055D02*
Y649213D01*
D37*
X294846Y186750D02*
X299169Y182427D01*
D38*
X436884Y635833D02*
Y639888D01*
X289563Y176214D02*
Y182308D01*
Y176214D02*
X294573Y171204D01*
Y161191D02*
Y171204D01*
X293276Y159893D02*
X294573Y161191D01*
X287274Y159893D02*
X293276D01*
X291917Y154893D02*
X297148Y160124D01*
Y173132D01*
X299563Y175547D01*
Y182308D01*
X431874Y655496D02*
X434626Y658248D01*
X431874Y644898D02*
Y655496D01*
X434626Y658248D02*
X439173D01*
X431874Y644898D02*
X436884Y639888D01*
X435285Y663248D02*
X438779D01*
X428921Y644209D02*
X429102Y644028D01*
D39*
X306318Y134646D02*
X306565Y134893D01*
X287274D02*
X287521Y134646D01*
X297313Y153574D02*
Y155320D01*
X301183Y164893D02*
X306565D01*
X287668Y154893D02*
X291917D01*
X292195D01*
D40*
X354991Y216645D02*
X355207Y216861D01*
X354991Y209558D02*
Y216645D01*
D41*
X306565Y169893D02*
Y179310D01*
X309563Y182308D01*
D42*
X479291Y242598D02*
D03*
Y588583D02*
D03*
X240000Y314934D02*
D03*
X602205Y712205D02*
D03*
Y110158D02*
D03*
Y411181D02*
D03*
X240000Y124094D02*
D03*
Y505774D02*
D03*
Y696614D02*
D03*
D43*
X392520Y351969D02*
D03*
X413748Y464945D02*
D03*
X357480Y687402D02*
D03*
X377165D02*
D03*
X334748Y464445D02*
D03*
X313779Y351575D02*
D03*
D44*
X337795Y687402D02*
D03*
D45*
X449528Y111811D02*
D03*
X439528D02*
D03*
X277953Y699213D02*
D03*
X287953D02*
D03*
D46*
X429528Y111811D02*
D03*
X297953Y699213D02*
D03*
D47*
X517323Y168110D02*
D03*
X563779Y652362D02*
D03*
X556693Y509055D02*
D03*
X517323Y312205D02*
D03*
X413779Y409055D02*
D03*
X307480D02*
D03*
D48*
X560630Y168110D02*
D03*
X520472Y652362D02*
D03*
X513386Y509055D02*
D03*
X560630Y312205D02*
D03*
D49*
X478346Y407874D02*
D03*
X458661D02*
D03*
X438976D02*
D03*
X478346Y435433D02*
D03*
X458661D02*
D03*
X438976D02*
D03*
X276772Y369685D02*
D03*
X257087D02*
D03*
X237402D02*
D03*
X276772Y397244D02*
D03*
X257087D02*
D03*
X237402D02*
D03*
Y447244D02*
D03*
X257087D02*
D03*
X276772D02*
D03*
X237402Y419685D02*
D03*
X257087D02*
D03*
X276772D02*
D03*
D50*
X319291Y409055D02*
D03*
X401968D02*
D03*
X507402Y397716D02*
D03*
X566457D02*
D03*
X507087Y423463D02*
D03*
X566142D02*
D03*
D51*
X353900Y620510D02*
D03*
X346850Y641732D02*
D03*
X362598Y600394D02*
D03*
X377165Y623229D02*
D03*
X296063Y136614D02*
D03*
X361810Y201968D02*
D03*
X401968Y177165D02*
D03*
X407086Y171653D02*
D03*
X338583Y133071D02*
D03*
X270935Y148062D02*
D03*
X264173Y152756D02*
D03*
X303150Y222047D02*
D03*
X326378Y183465D02*
D03*
X367877Y193769D02*
D03*
X331102Y178740D02*
D03*
X414961Y167323D02*
D03*
X455512Y218504D02*
D03*
X436614Y228346D02*
D03*
X401575Y233858D02*
D03*
X332087Y170669D02*
D03*
X273622Y637402D02*
D03*
X312426Y634031D02*
D03*
X298425Y603937D02*
D03*
X414900Y180210D02*
D03*
X410790Y200068D02*
D03*
X364334Y214241D02*
D03*
Y220934D02*
D03*
X266605Y137826D02*
D03*
X373389Y194556D02*
D03*
X388744Y174872D02*
D03*
X413153Y209123D02*
D03*
X428901Y196918D02*
D03*
X428901Y211879D02*
D03*
X280476Y234320D02*
D03*
X360003Y236682D02*
D03*
X359610Y217785D02*
D03*
X297313Y153574D02*
D03*
X368897Y479527D02*
D03*
X301575Y481890D02*
D03*
X283927Y129952D02*
D03*
X278346Y118504D02*
D03*
X461024Y680315D02*
D03*
X455512Y670079D02*
D03*
X413386Y687402D02*
D03*
X442520Y688189D02*
D03*
X429134Y664567D02*
D03*
X378740Y656299D02*
D03*
X396850Y638189D02*
D03*
X331890Y646063D02*
D03*
X338582Y639370D02*
D03*
X369291Y647244D02*
D03*
X313386Y643701D02*
D03*
X386221Y607480D02*
D03*
X293701Y626706D02*
D03*
X314173Y605118D02*
D03*
X320472Y603544D02*
D03*
X316535Y614173D02*
D03*
X365354Y613386D02*
D03*
X337795Y586614D02*
D03*
X396457Y631103D02*
D03*
X390551D02*
D03*
X446850Y579921D02*
D03*
X298425Y617323D02*
D03*
X412205Y584252D02*
D03*
X407087Y616929D02*
D03*
Y610630D02*
D03*
X418504Y584252D02*
D03*
X273228Y597244D02*
D03*
X294488Y589370D02*
D03*
X319685Y590945D02*
D03*
X294882Y582677D02*
D03*
X277559Y564961D02*
D03*
X367323Y577559D02*
D03*
X359449Y620473D02*
D03*
X304331Y687795D02*
D03*
X391596Y201346D02*
D03*
X381102Y174409D02*
D03*
X391339Y227953D02*
D03*
X406693Y212205D02*
D03*
X452756Y339370D02*
D03*
X359842Y336221D02*
D03*
X424803Y333858D02*
D03*
X453937Y699606D02*
D03*
X454724Y675591D02*
D03*
X461024Y663386D02*
D03*
X462992Y632677D02*
D03*
X419685Y135827D02*
D03*
X421654Y122835D02*
D03*
X362992Y593307D02*
D03*
X367716Y596456D02*
D03*
X370921Y621783D02*
D03*
X356693Y167717D02*
D03*
X348031Y158661D02*
D03*
X349606Y191338D02*
D03*
X346062Y198425D02*
D03*
X433858Y188976D02*
D03*
X302362Y675984D02*
D03*
X356298Y192519D02*
D03*
X387402Y205512D02*
D03*
X397244Y170472D02*
D03*
X359842Y212598D02*
D03*
X337638Y210079D02*
D03*
X342361Y209370D02*
D03*
X335276Y614488D02*
D03*
X366063Y602913D02*
D03*
X339606Y610472D02*
D03*
X379921Y616850D02*
D03*
D52*
X350841Y210774D02*
D03*
X376220Y613937D02*
D03*
X376394Y605005D02*
D03*
M02*
