G04 Layer_Color=255*
%FSLAX25Y25*%
%MOIN*%
G70*
G01*
G75*
%ADD42C,0.19685*%
%ADD43C,0.09843*%
%ADD44R,0.09843X0.09843*%
%ADD45C,0.05906*%
%ADD46R,0.05906X0.05906*%
%ADD47C,0.15748*%
%ADD48R,0.15748X0.15748*%
%ADD49C,0.11811*%
%ADD50C,0.08000*%
D42*
X479291Y242598D02*
D03*
Y588583D02*
D03*
X240000Y314934D02*
D03*
X602205Y712205D02*
D03*
Y110158D02*
D03*
Y411181D02*
D03*
X240000Y124094D02*
D03*
Y505774D02*
D03*
Y696614D02*
D03*
D43*
X392520Y351969D02*
D03*
X413748Y464945D02*
D03*
X357480Y687402D02*
D03*
X377165D02*
D03*
X334748Y464445D02*
D03*
X313779Y351575D02*
D03*
D44*
X337795Y687402D02*
D03*
D45*
X449528Y111811D02*
D03*
X439528D02*
D03*
X277953Y699213D02*
D03*
X287953D02*
D03*
D46*
X429528Y111811D02*
D03*
X297953Y699213D02*
D03*
D47*
X517323Y168110D02*
D03*
X563779Y652362D02*
D03*
X556693Y509055D02*
D03*
X517323Y312205D02*
D03*
X413779Y409055D02*
D03*
X307480D02*
D03*
D48*
X560630Y168110D02*
D03*
X520472Y652362D02*
D03*
X513386Y509055D02*
D03*
X560630Y312205D02*
D03*
D49*
X478346Y407874D02*
D03*
X458661D02*
D03*
X438976D02*
D03*
X478346Y435433D02*
D03*
X458661D02*
D03*
X438976D02*
D03*
X276772Y369685D02*
D03*
X257087D02*
D03*
X237402D02*
D03*
X276772Y397244D02*
D03*
X257087D02*
D03*
X237402D02*
D03*
Y447244D02*
D03*
X257087D02*
D03*
X276772D02*
D03*
X237402Y419685D02*
D03*
X257087D02*
D03*
X276772D02*
D03*
D50*
X319291Y409055D02*
D03*
X401968D02*
D03*
X507402Y397716D02*
D03*
X566457D02*
D03*
X507087Y423463D02*
D03*
X566142D02*
D03*
M02*
