G04 Layer_Color=16711935*
%FSLAX25Y25*%
%MOIN*%
G70*
G01*
G75*
%ADD50C,0.00394*%
%ADD83C,0.00197*%
D50*
X1962815Y1160335D02*
G03*
X1962815Y1160335I-1969J0D01*
G01*
X2237559Y1249685D02*
G03*
X2237559Y1249685I-1969J0D01*
G01*
X2173642Y1161989D02*
G03*
X2173642Y1161989I-1969J0D01*
G01*
X2026487Y1247874D02*
G03*
X2026487Y1247874I-1969J0D01*
G01*
X1906063Y1202382D02*
G03*
X1906063Y1202382I-1969J0D01*
G01*
X2116890Y1204036D02*
G03*
X2116890Y1204036I-1969J0D01*
G01*
X1945492Y1163878D02*
X1964390D01*
X1945492Y1148130D02*
X1964390D01*
Y1163878D01*
X1945492Y1148130D02*
Y1163878D01*
X1960709Y1190669D02*
Y1202480D01*
X1966220Y1190669D02*
Y1202480D01*
X1960709D02*
X1966220D01*
X1960709Y1190669D02*
X1966220D01*
X1871221Y1244449D02*
X1876732D01*
X1871221Y1256260D02*
X1876732D01*
Y1244449D02*
Y1256260D01*
X1871221Y1244449D02*
Y1256260D01*
X2232047Y1213858D02*
X2247795D01*
X2232047Y1253228D02*
X2247795D01*
Y1213858D02*
Y1253228D01*
X2232047Y1213858D02*
Y1253228D01*
X2271390Y1260756D02*
Y1266268D01*
X2259579Y1260756D02*
Y1266268D01*
X2271390D01*
X2259579Y1260756D02*
X2271390D01*
X2224079Y1261736D02*
Y1267248D01*
X2235890Y1261736D02*
Y1267248D01*
X2224079Y1261736D02*
X2235890D01*
X2224079Y1267248D02*
X2235890D01*
X1973819Y1213031D02*
Y1224842D01*
X1968307Y1213031D02*
Y1224842D01*
Y1213031D02*
X1973819D01*
X1968307Y1224842D02*
X1973819D01*
X2184646Y1214686D02*
Y1226497D01*
X2179134Y1214686D02*
Y1226497D01*
Y1214686D02*
X2184646D01*
X2179134Y1226497D02*
X2184646D01*
X2171535Y1192324D02*
Y1204135D01*
X2177047Y1192324D02*
Y1204135D01*
X2171535D02*
X2177047D01*
X2171535Y1192324D02*
X2177047D01*
X2156319Y1165532D02*
X2175216D01*
X2156319Y1149784D02*
X2175216D01*
Y1165532D01*
X2156319Y1149784D02*
Y1165532D01*
X2082047Y1246103D02*
X2087559D01*
X2082047Y1257914D02*
X2087559D01*
Y1246103D02*
Y1257914D01*
X2082047Y1246103D02*
Y1257914D01*
X1969724Y1032480D02*
X1981536D01*
X1969724Y1026968D02*
X1981536D01*
Y1032480D01*
X1969724Y1026968D02*
Y1032480D01*
X2180551Y1034135D02*
X2192362D01*
X2180551Y1028623D02*
X2192362D01*
Y1034135D01*
X2180551Y1028623D02*
Y1034135D01*
X2048495Y1258236D02*
X2060305D01*
X2048495Y1263748D02*
X2060305D01*
X2048495Y1258236D02*
Y1263748D01*
X2060305Y1258236D02*
Y1263748D01*
X2020975Y1212047D02*
X2036723D01*
X2020975Y1251417D02*
X2036723D01*
Y1212047D02*
Y1251417D01*
X2020975Y1212047D02*
Y1251417D01*
X1874173Y1190177D02*
Y1205925D01*
X1907638Y1190177D02*
Y1205925D01*
X1874173Y1190177D02*
X1907638D01*
X1874173Y1205925D02*
X1907638D01*
X2085000Y1191831D02*
Y1207580D01*
X2118465Y1191831D02*
Y1207580D01*
X2085000Y1191831D02*
X2118465D01*
X2085000Y1207580D02*
X2118465D01*
X2012995Y1264728D02*
X2024805D01*
X2012995Y1259216D02*
X2024805D01*
Y1264728D01*
X2012995Y1259216D02*
Y1264728D01*
D83*
X1951474Y1182583D02*
G03*
X1951474Y1182583I-690J0D01*
G01*
X2162301Y1184237D02*
G03*
X2162301Y1184237I-690J0D01*
G01*
X1949410Y1175737D02*
Y1183956D01*
X1954283D01*
Y1175737D02*
Y1183956D01*
X1949410Y1175737D02*
X1954283D01*
X1949272Y1176697D02*
Y1177878D01*
Y1179256D02*
Y1180437D01*
Y1181815D02*
Y1182996D01*
X1949189Y1184177D02*
X1949410Y1183956D01*
X1949189Y1175516D02*
X1949410Y1175737D01*
X1949189Y1175516D02*
Y1184177D01*
X1954283Y1175737D02*
X1954504Y1175516D01*
X1949189D02*
X1954504D01*
X1949189Y1184177D02*
X1954504D01*
X1954283Y1183956D02*
X1954504Y1184177D01*
X1954421Y1181815D02*
Y1182996D01*
X1954504Y1175516D02*
Y1184177D01*
X1954421Y1176697D02*
Y1177878D01*
Y1182996D02*
X1956571D01*
X1954421Y1181815D02*
X1956571D01*
X1947122Y1179256D02*
X1949272D01*
X1947122Y1180437D02*
X1949272D01*
X1955488Y1181815D02*
Y1182996D01*
X1947122Y1176697D02*
X1949272D01*
X1947122Y1177878D02*
X1949272D01*
X1947122Y1181815D02*
X1949272D01*
X1947122Y1182996D02*
X1949272D01*
X1955488Y1176697D02*
Y1177878D01*
X1954421Y1176697D02*
X1956571D01*
X1954421Y1177878D02*
X1956571D01*
X1948205Y1181815D02*
Y1182996D01*
Y1179256D02*
Y1180437D01*
Y1176697D02*
Y1177878D01*
X1955536Y1181815D02*
Y1182996D01*
Y1176697D02*
Y1177878D01*
X1948158Y1179256D02*
Y1180437D01*
Y1181815D02*
Y1182996D01*
Y1176697D02*
Y1177878D01*
X1947798Y1181815D02*
X1947798Y1182996D01*
X1947798Y1179256D02*
Y1180437D01*
X1955895Y1182996D02*
X1955895Y1181815D01*
X1947798Y1176697D02*
Y1177878D01*
X1955895Y1176697D02*
Y1177878D01*
X1947122Y1181815D02*
Y1182996D01*
Y1179256D02*
Y1180437D01*
Y1176697D02*
Y1177878D01*
X1956571Y1176697D02*
Y1177878D01*
Y1181815D02*
Y1182996D01*
X2160237Y1177391D02*
Y1185610D01*
X2165109D01*
Y1177391D02*
Y1185610D01*
X2160237Y1177391D02*
X2165109D01*
X2160099Y1178351D02*
Y1179532D01*
Y1180910D02*
Y1182091D01*
Y1183469D02*
Y1184650D01*
X2160016Y1185832D02*
X2160237Y1185610D01*
X2160016Y1177170D02*
X2160237Y1177391D01*
X2160016Y1177170D02*
Y1185832D01*
X2165109Y1177391D02*
X2165331Y1177170D01*
X2160016D02*
X2165331D01*
X2160016Y1185832D02*
X2165331D01*
X2165109Y1185610D02*
X2165331Y1185832D01*
X2165248Y1183469D02*
Y1184650D01*
X2165331Y1177170D02*
Y1185832D01*
X2165248Y1178351D02*
Y1179532D01*
Y1184650D02*
X2167398D01*
X2165248Y1183469D02*
X2167398D01*
X2157949Y1180910D02*
X2160099D01*
X2157949Y1182091D02*
X2160099D01*
X2166314Y1183469D02*
Y1184650D01*
X2157949Y1178351D02*
X2160099D01*
X2157949Y1179532D02*
X2160099D01*
X2157949Y1183469D02*
X2160099D01*
X2157949Y1184650D02*
X2160099D01*
X2166314Y1178351D02*
Y1179532D01*
X2165248Y1178351D02*
X2167398D01*
X2165248Y1179532D02*
X2167398D01*
X2159032Y1183469D02*
Y1184650D01*
Y1180910D02*
Y1182091D01*
Y1178351D02*
Y1179532D01*
X2166362Y1183469D02*
Y1184650D01*
Y1178351D02*
Y1179532D01*
X2158984Y1180910D02*
Y1182091D01*
Y1183469D02*
Y1184650D01*
Y1178351D02*
Y1179532D01*
X2158625Y1183469D02*
X2158625Y1184650D01*
X2158625Y1180910D02*
Y1182091D01*
X2166721Y1184650D02*
X2166721Y1183469D01*
X2158625Y1178351D02*
Y1179532D01*
X2166721Y1178351D02*
Y1179532D01*
X2157949Y1183469D02*
Y1184650D01*
Y1180910D02*
Y1182091D01*
Y1178351D02*
Y1179532D01*
X2167398Y1178351D02*
Y1179532D01*
Y1183469D02*
Y1184650D01*
M02*
