G04 Layer_Color=16711935*
%FSLAX25Y25*%
%MOIN*%
G70*
G01*
G75*
%ADD51C,0.00394*%
D51*
X2918268Y2324409D02*
X3307362D01*
X3307480Y2324291D01*
Y1702402D02*
Y2324291D01*
Y1702402D02*
X3307480Y1702402D01*
X2918307D02*
X3307480D01*
X2918268Y1702441D02*
X2918307Y1702402D01*
X2918268Y1702441D02*
Y2324409D01*
X2970946Y1835906D02*
Y1850227D01*
Y1835906D02*
X2975512D01*
Y1849180D01*
X2978496Y1852164D01*
X2988505D01*
X2992559Y1848110D01*
Y1836299D02*
Y1848110D01*
Y1836299D02*
X2992677Y1836181D01*
X2997205D01*
X2997167Y1836219D02*
X2997205Y1836181D01*
X2997167Y1836219D02*
Y1849805D01*
X2990558Y1856414D02*
X2997167Y1849805D01*
X2976972Y1856414D02*
X2990558D01*
X2970904Y1850346D02*
X2976972Y1856414D01*
X3056904Y1850346D02*
X3062972Y1856414D01*
X3076558D01*
X3083167Y1849805D01*
Y1836219D02*
Y1849805D01*
X3078677Y1836181D02*
X3083205D01*
X3078559Y1836299D02*
Y1848110D01*
X3074505Y1852164D02*
X3078559Y1848110D01*
X3064496Y1852164D02*
X3074505D01*
X3061512Y1849180D02*
X3064496Y1852164D01*
X3061512Y1835906D02*
Y1849180D01*
X3056946Y1835906D02*
X3061512D01*
X3056946D02*
Y1850227D01*
M02*
