M48
;Layer_Color=9474304
;FILE_FORMAT=2:5
INCH,LZ
;TYPE=PLATED
T1F00S00C0.02362
T2F00S00C0.02800
T3F00S00C0.03150
T4F00S00C0.03543
T5F00S00C0.03937
T6F00S00C0.04016
T7F00S00C0.05118
T8F00S00C0.05512
T9F00S00C0.05906
T10F00S00C0.06417
T11F00S00C0.06496
T12F00S00C0.11811
T13F00S00C0.12205
T14F00S00C0.12598
%
T01
X32475Y1819
X32305
X32165
X32035
X31765Y1817
X31665Y1822
Y1831
X31295Y1829
X31275Y1816
Y18035
Y1791
Y1778
X3127Y17675
Y1755
Y17425
X3144843Y1737284
X3157402Y1736732
X317Y1737284
X31825
X32155
X3234
X32475
X324115Y1777
X323865
X32214Y17976
Y18016
X3117Y17975
X31166Y18114
X3011811Y1874803
X2992345Y187311
X3013015Y191149
X2993515Y194249
X3037Y19435
X30375Y1949
X3042478Y1954027
X3051575Y193937
X3075537Y1923027
X3100015Y191749
X3102015Y192899
X31195Y19435
X3121Y1910005
X3103378Y1877
X3079345Y187538
X3100015Y195949
Y202349
X3075537Y2029027
X3013015Y201749
X31475Y20255
X3188Y20145
X3193Y1994689
Y1986138
Y19755
X319285Y1966739
X3193Y1955588
X3192801Y1947037
X31925Y1936
Y1927037
X3223898Y192437
X3224305Y1917305
X3225039Y1931929
X3224528Y1938268
X3226102Y1954685
X3239037Y1961537
X32375Y197
X3247088Y1976912
X3257088Y1977088
X3267Y19725
X3270118Y1942126
X3269797Y193598
X3271772Y1923268
Y1917205
X3227463Y1987537
X3242088Y2013912
X32375Y203
X3219973Y2071
X31835Y2053
X31705Y2056
X3173543Y2092559
X31635Y2093
X31485Y20935
X31495Y2075
X3151969Y2131102
X31575Y2128
X31705Y21295
X31815Y21285
X31885Y2143
X3170591Y2161378
X31615Y21635
X3148Y21615
X3144Y2165
X31365Y2174
X3100015Y217149
X3102015Y214099
X3113386Y2138976
X3116929Y2135433
X3100015Y212949
X3075537Y2135027
X3051574Y2153027
X30375Y21555
X30365Y21605
X3042478Y2166027
X2993515Y215449
X3013015Y212349
X3042478Y2060027
X3039Y20545
X3037Y20495
X3051574Y2047027
X2993515Y204849
X3102015Y203499
X31175Y2032
X31185Y20455
X3100015Y206549
X31135Y20965
X3100015Y223549
X3102015Y224699
X3109449Y2245551
X3075537Y2241027
X3051574Y2259027
X3037Y22615
X3039Y2267
X3042478Y2272027
X2993515Y226049
X3013015Y222949
X3100015Y227749
X31475Y22715
X3158Y2272
X3166Y22725
X3175Y22715
X3169803Y2233819
X3161Y2235
X3149Y22345
X3143252Y22395
X3139Y2246
X3146Y2199
X31585Y21985
X31665Y21995
X3176Y21985
X31645Y2216788
T02
X3294Y17835
Y17775
Y17715
X32915Y1745
T03
X3252599Y217793
Y216793
X3242598Y217293
Y218293
X3242953Y2127618
Y2117618
Y2107618
Y2097618
X3252953Y2092618
Y2102618
Y2112618
Y2122618
X3252599Y218793
Y219793
X3242598Y220293
Y219293
X3242953Y2247199
Y2257199
Y2267199
Y2277199
X3252953Y2272199
Y2262199
Y2252199
Y2242199
T04
X29765Y2029
Y2019
X2977Y19565
Y19465
Y19365
Y19265
Y19165
X31525Y19405
Y19505
Y19605
Y19705
Y19805
X31625
Y19705
Y19605
Y19505
Y19405
X3287Y1946
Y1956
Y1966
Y1976
Y1986
Y1996
Y2006
X31785Y2066
X31685
X29765Y2059
Y2049
Y2039
Y20935
Y21035
Y21135
X2977Y2131575
Y2141575
Y2151575
Y2161575
Y2171575
X29775Y2231
Y2241
Y2251
Y2261
Y2271
T05
X329309Y2056216
Y20385
X32675
Y2056216
T06
X329689Y2168973
Y2158973
X3296535Y2137264
Y2127264
X3297244Y2093661
Y2083661
X3296181Y2202576
Y2212576
X3297244Y2233242
Y2243242
X3296535Y2276844
Y2286844
T07
X32825Y1839185
Y18195
Y1799815
T08
X3093244Y18365
X3069622Y1844374
X3046Y18365
X3007244
X2983622Y1844374
X3046Y1788469
X296
Y18365
T09
X3093244Y1788469
X3007244
T10
X3265591Y2154072
X3265945Y2141437
Y207876
X3265591Y2216749
X3265945Y2228341
Y2291018
T11
X3092557Y1742036
X3077596
X3062635
X3006557
X2991596
X2976635
T12
X29375Y1715
X3282811
X29375Y23075
X3282811Y2309322
T13
X3277953Y2132933
X3277599Y2208245
X3277953Y2282514
T14
X3277599Y2162576
X3277953Y2087264
Y2236844
M30
