G04 Layer_Color=16711935*
%FSLAX25Y25*%
%MOIN*%
G70*
G01*
G75*
%ADD74C,0.05236*%
%ADD75C,0.08674*%
%ADD76C,0.05524*%
%ADD77C,0.14579*%
%ADD78C,0.06706*%
%ADD79R,0.06706X0.06706*%
%ADD80C,0.11824*%
%ADD81C,0.14173*%
%ADD82R,0.06706X0.06706*%
%ADD83C,0.05918*%
%ADD84C,0.10642*%
%ADD86R,0.10236X0.10236*%
%ADD87C,0.10236*%
%ADD88C,0.04400*%
%ADD89C,0.03950*%
%ADD90C,0.05800*%
D74*
X3296535Y2286844D02*
D03*
Y2276844D02*
D03*
X3297244Y2243242D02*
D03*
Y2233242D02*
D03*
X3296890Y2158973D02*
D03*
Y2168973D02*
D03*
X3296181Y2202576D02*
D03*
Y2212576D02*
D03*
X3296535Y2137264D02*
D03*
Y2127264D02*
D03*
X3297244Y2093661D02*
D03*
Y2083661D02*
D03*
D75*
X3265945Y2291018D02*
D03*
Y2228341D02*
D03*
X3265591Y2154072D02*
D03*
Y2216749D02*
D03*
X3265945Y2141437D02*
D03*
Y2078760D02*
D03*
D76*
X3252953Y2242199D02*
D03*
X3242953Y2247199D02*
D03*
X3252953Y2252199D02*
D03*
X3242953Y2257199D02*
D03*
X3252953Y2262199D02*
D03*
X3242953Y2267199D02*
D03*
X3252953Y2272199D02*
D03*
X3242953Y2277199D02*
D03*
X3242598Y2202930D02*
D03*
X3252599Y2197930D02*
D03*
X3242598Y2192930D02*
D03*
X3252599Y2187930D02*
D03*
X3242598Y2182930D02*
D03*
X3252599Y2177930D02*
D03*
X3242598Y2172930D02*
D03*
X3252599Y2167930D02*
D03*
X3252953Y2092618D02*
D03*
X3242953Y2097618D02*
D03*
X3252953Y2102618D02*
D03*
X3242953Y2107618D02*
D03*
X3252953Y2112618D02*
D03*
X3242953Y2117618D02*
D03*
X3252953Y2122618D02*
D03*
X3242953Y2127618D02*
D03*
D77*
X3277953Y2236844D02*
D03*
Y2282514D02*
D03*
X3277599Y2208245D02*
D03*
Y2162576D02*
D03*
X3277953Y2087264D02*
D03*
Y2132933D02*
D03*
D78*
X3287000Y1986000D02*
D03*
Y1996000D02*
D03*
Y1976000D02*
D03*
Y1966000D02*
D03*
Y1956000D02*
D03*
Y1946000D02*
D03*
X3152500Y1980500D02*
D03*
X3162500D02*
D03*
X3152500Y1970500D02*
D03*
X3162500D02*
D03*
X3152500Y1960500D02*
D03*
X3162500D02*
D03*
X3152500Y1950500D02*
D03*
X3162500D02*
D03*
X3152500Y1940500D02*
D03*
X2977500Y2231000D02*
D03*
Y2241000D02*
D03*
Y2251000D02*
D03*
Y2261000D02*
D03*
X2977000Y2131575D02*
D03*
Y2141575D02*
D03*
Y2151575D02*
D03*
Y2161575D02*
D03*
X2976500Y2093500D02*
D03*
Y2103500D02*
D03*
Y2049000D02*
D03*
Y2039000D02*
D03*
Y2029000D02*
D03*
Y2019000D02*
D03*
X2977000Y1946500D02*
D03*
Y1936500D02*
D03*
Y1926500D02*
D03*
Y1916500D02*
D03*
X3168500Y2066000D02*
D03*
D79*
X3287000Y2006000D02*
D03*
X3162500Y1940500D02*
D03*
X2977500Y2271000D02*
D03*
X2977000Y2171575D02*
D03*
X2976500Y2113500D02*
D03*
Y2059000D02*
D03*
X2977000Y1956500D02*
D03*
D80*
X3093244Y1788469D02*
D03*
X3046000D02*
D03*
Y1836500D02*
D03*
X3069622Y1844374D02*
D03*
X3093244Y1836500D02*
D03*
X3007244Y1788469D02*
D03*
X2960000D02*
D03*
Y1836500D02*
D03*
X2983622Y1844374D02*
D03*
X3007244Y1836500D02*
D03*
D81*
X3282811Y1715000D02*
D03*
X2937500D02*
D03*
Y2307500D02*
D03*
X3282811Y2309322D02*
D03*
D82*
X3178500Y2066000D02*
D03*
D83*
X3267500Y2056216D02*
D03*
Y2038500D02*
D03*
X3293090Y2056216D02*
D03*
Y2038500D02*
D03*
D84*
X3092557Y1742036D02*
D03*
X3077596D02*
D03*
X3062635D02*
D03*
X3006557D02*
D03*
X2991596D02*
D03*
X2976635D02*
D03*
D86*
X3282500Y1839185D02*
D03*
D87*
Y1819500D02*
D03*
Y1799815D02*
D03*
D88*
X3129500Y1829000D02*
D03*
X3127500Y1816000D02*
D03*
X3221400Y1801600D02*
D03*
Y1797600D02*
D03*
X3116600Y1811400D02*
D03*
X3247500Y1819000D02*
D03*
X3230500D02*
D03*
X3216500D02*
D03*
X3203500D02*
D03*
X3117000Y1797500D02*
D03*
X3234000Y1737284D02*
D03*
X3215500D02*
D03*
X3247500D02*
D03*
X3182500D02*
D03*
X3170000D02*
D03*
X3157402Y1736732D02*
D03*
X3144843Y1737284D02*
D03*
X3127000Y1742500D02*
D03*
Y1755000D02*
D03*
Y1767500D02*
D03*
X3176500Y1817000D02*
D03*
X3166500Y1822000D02*
D03*
Y1831000D02*
D03*
X3127500Y1803500D02*
D03*
Y1791000D02*
D03*
Y1778000D02*
D03*
D89*
X3109449Y2245551D02*
D03*
X3116929Y2135433D02*
D03*
X3219973Y2071000D02*
D03*
X3121000Y1910005D02*
D03*
X3119500Y1943500D02*
D03*
X3183500Y2053000D02*
D03*
X3170500Y2056000D02*
D03*
X3118500Y2045500D02*
D03*
X3117500Y2032000D02*
D03*
X3113500Y2096500D02*
D03*
X3192500Y1927037D02*
D03*
X3188500Y2143000D02*
D03*
X3149500Y2075000D02*
D03*
X3237500Y2030000D02*
D03*
X3224305Y1917305D02*
D03*
X3267000Y1972500D02*
D03*
X3237500Y1970000D02*
D03*
X3147500Y2025500D02*
D03*
X3188000Y2014500D02*
D03*
X3242088Y2013912D02*
D03*
X3257088Y1977088D02*
D03*
X3247088Y1976912D02*
D03*
X3227463Y1987537D02*
D03*
X3239037Y1961537D02*
D03*
X3170500Y2129500D02*
D03*
X3157500Y2128000D02*
D03*
X3163500Y2093000D02*
D03*
X3148500Y2093500D02*
D03*
X3037500Y1949000D02*
D03*
X3039000Y2054500D02*
D03*
X3036500Y2160500D02*
D03*
X3039000Y2267000D02*
D03*
X3136500Y2174000D02*
D03*
X3164500Y2216788D02*
D03*
X3139000Y2246000D02*
D03*
X3192500Y1936000D02*
D03*
X3192801Y1947037D02*
D03*
X3193000Y1955588D02*
D03*
Y1986138D02*
D03*
Y1994689D02*
D03*
X3192850Y1966739D02*
D03*
X3193000Y1975500D02*
D03*
X3238650Y1777000D02*
D03*
X3241150D02*
D03*
X3103378Y1877000D02*
D03*
X3011811Y1874803D02*
D03*
X3079345Y1875380D02*
D03*
X2992345Y1873110D02*
D03*
X3113386Y2138976D02*
D03*
X3151969Y2131102D02*
D03*
X3224528Y1938268D02*
D03*
X3225039Y1931929D02*
D03*
X3226102Y1954685D02*
D03*
X3270118Y1942126D02*
D03*
X3223898Y1924370D02*
D03*
X3271772Y1917205D02*
D03*
Y1923268D02*
D03*
X3269797Y1935980D02*
D03*
X3173543Y2092559D02*
D03*
D90*
X3294000Y1771500D02*
D03*
Y1777500D02*
D03*
Y1783500D02*
D03*
X3291500Y1745000D02*
D03*
M02*
