G04 Layer_Physical_Order=2*
G04 Layer_Color=16711680*
%FSLAX25Y25*%
%MOIN*%
G70*
G01*
G75*
%ADD29C,0.01000*%
%ADD33C,0.09843*%
%ADD34C,0.04843*%
%ADD35C,0.07874*%
%ADD36C,0.04724*%
%ADD37C,0.13780*%
%ADD38C,0.05906*%
%ADD39R,0.05906X0.05906*%
%ADD40C,0.11024*%
%ADD41R,0.05906X0.05906*%
%ADD42C,0.05118*%
%ADD43C,0.09843*%
%ADD44C,0.03150*%
%ADD45R,0.09843X0.09843*%
%ADD46C,0.03600*%
%ADD47C,0.05000*%
G36*
X2984122Y1837880D02*
X2984899Y1837956D01*
X2986126Y1838329D01*
X2987257Y1838933D01*
X2987642Y1839249D01*
X2988094Y1839035D01*
X2988094Y1820612D01*
X2988094Y1820127D01*
X2987905Y1819176D01*
X2987533Y1818280D01*
X2986995Y1817474D01*
X2986652Y1817131D01*
X2986652Y1817131D01*
Y1817131D01*
X2976115Y1806594D01*
X2975772Y1806252D01*
X2974966Y1805713D01*
X2974070Y1805342D01*
X2973119Y1805153D01*
X2972634Y1805153D01*
X2955173D01*
X2948057Y1798036D01*
Y1766114D01*
X2967173Y1746998D01*
X2972560D01*
X2972738Y1746498D01*
X2972428Y1746243D01*
X2971688Y1745342D01*
X2971138Y1744313D01*
X2970800Y1743197D01*
X2970735Y1742536D01*
X2976636D01*
Y1741536D01*
X2970735D01*
X2970800Y1740875D01*
X2971138Y1739759D01*
X2971688Y1738731D01*
X2972428Y1737829D01*
X2972679Y1737623D01*
X2972510Y1737152D01*
X2965134D01*
X2964649Y1737152D01*
X2963698Y1737342D01*
X2962802Y1737713D01*
X2961996Y1738251D01*
X2961653Y1738594D01*
X2961653Y1738594D01*
X2939653Y1760594D01*
X2939310Y1760937D01*
X2938771Y1761744D01*
X2938400Y1762639D01*
X2938211Y1763590D01*
X2938211Y1764075D01*
Y1800075D01*
X2938211Y1800560D01*
X2938400Y1801511D01*
X2938771Y1802407D01*
X2939310Y1803213D01*
X2939653Y1803556D01*
X2939653D01*
X2949653Y1813556D01*
X2949996Y1813899D01*
X2950802Y1814438D01*
X2951698Y1814809D01*
X2952649Y1814998D01*
X2953134Y1814998D01*
Y1814998D01*
X2970595D01*
X2978248Y1822651D01*
Y1839915D01*
X2978719Y1840084D01*
X2978995Y1839747D01*
X2979987Y1838933D01*
X2981118Y1838329D01*
X2982346Y1837956D01*
X2983122Y1837880D01*
Y1844374D01*
X2984122D01*
Y1837880D01*
D02*
G37*
G36*
X2990194Y1850757D02*
X2990043Y1850394D01*
X2986140D01*
X2986120Y1850405D01*
X2984896Y1850776D01*
X2983622Y1850901D01*
X2982349Y1850776D01*
X2981124Y1850405D01*
X2981104Y1850394D01*
X2977240D01*
X2977090Y1850757D01*
X2978496Y1852164D01*
X2988787D01*
X2990194Y1850757D01*
D02*
G37*
G36*
X2969589Y1793202D02*
X2970485Y1792831D01*
X2971291Y1792292D01*
X2971634Y1791949D01*
X2995077Y1768506D01*
X2995420Y1768163D01*
X2995959Y1767357D01*
X2996330Y1766461D01*
X2996519Y1765510D01*
X2996519Y1765025D01*
X2996519D01*
Y1746114D01*
X2996048Y1745945D01*
X2995803Y1746243D01*
X2994902Y1746983D01*
X2993873Y1747533D01*
X2992757Y1747872D01*
X2992096Y1747937D01*
Y1742036D01*
X2991096D01*
Y1747937D01*
X2990435Y1747872D01*
X2989319Y1747533D01*
X2988290Y1746983D01*
X2987389Y1746243D01*
X2987144Y1745945D01*
X2986673Y1746114D01*
Y1762986D01*
X2966114Y1783546D01*
X2965031D01*
X2964794Y1784046D01*
X2965441Y1784833D01*
X2966045Y1785965D01*
X2966418Y1787192D01*
X2966494Y1787968D01*
X2960000D01*
Y1788968D01*
X2966494D01*
X2966418Y1789745D01*
X2966045Y1790973D01*
X2965441Y1792104D01*
X2964794Y1792891D01*
X2965031Y1793391D01*
X2968153D01*
X2968638Y1793391D01*
X2969589Y1793202D01*
D02*
G37*
G36*
X3065006Y1839758D02*
X3065996Y1838947D01*
X3067124Y1838343D01*
X3068349Y1837972D01*
X3069622Y1837847D01*
X3070896Y1837972D01*
X3072120Y1838343D01*
X3073248Y1838947D01*
X3073642Y1839269D01*
X3074094Y1839055D01*
X3074094Y1822112D01*
X3074094Y1821627D01*
X3073904Y1820676D01*
X3073533Y1819781D01*
X3072995Y1818974D01*
X3072652Y1818631D01*
X3072652Y1818631D01*
X3072652Y1818631D01*
X3062115Y1808094D01*
X3061772Y1807751D01*
X3060966Y1807213D01*
X3060070Y1806842D01*
X3059119Y1806652D01*
X3058634Y1806652D01*
X3041173D01*
X3034057Y1799536D01*
Y1767614D01*
X3053173Y1748498D01*
X3062457D01*
X3062500Y1748459D01*
X3062329Y1747940D01*
X3061478Y1747856D01*
X3060365Y1747519D01*
X3059339Y1746970D01*
X3058439Y1746232D01*
X3057701Y1745333D01*
X3057153Y1744307D01*
X3056815Y1743194D01*
X3056701Y1742036D01*
X3056815Y1740878D01*
X3057153Y1739765D01*
X3057701Y1738739D01*
X3058439Y1737840D01*
X3058817Y1737531D01*
X3058638Y1737031D01*
X3050717D01*
X3025653Y1762094D01*
X3025310Y1762437D01*
X3024771Y1763243D01*
X3024400Y1764139D01*
X3024211Y1765090D01*
Y1765575D01*
Y1801575D01*
X3024211Y1802060D01*
X3024400Y1803011D01*
X3024771Y1803907D01*
X3025310Y1804713D01*
X3025653Y1805056D01*
X3025653Y1805056D01*
X3035653Y1815056D01*
X3035996Y1815399D01*
X3036802Y1815938D01*
X3037698Y1816309D01*
X3038649Y1816498D01*
X3039134Y1816498D01*
X3039134Y1816498D01*
X3056595D01*
X3064248Y1824151D01*
Y1839940D01*
X3064719Y1840109D01*
X3065006Y1839758D01*
D02*
G37*
G36*
X3007744Y1781974D02*
X3008521Y1782051D01*
X3009748Y1782423D01*
X3010879Y1783028D01*
X3011667Y1783674D01*
X3012167Y1783438D01*
Y1745162D01*
X3011667Y1745037D01*
X3011504Y1745342D01*
X3010764Y1746243D01*
X3009862Y1746983D01*
X3008834Y1747533D01*
X3007718Y1747872D01*
X3007057Y1747937D01*
Y1742036D01*
X3006057D01*
Y1747937D01*
X3005396Y1747872D01*
X3004280Y1747533D01*
X3003251Y1746983D01*
X3002821Y1746631D01*
X3002321Y1746867D01*
Y1783438D01*
X3002821Y1783674D01*
X3003609Y1783028D01*
X3004740Y1782423D01*
X3005968Y1782051D01*
X3006744Y1781974D01*
Y1788468D01*
X3007744D01*
Y1781974D01*
D02*
G37*
G36*
X3093744D02*
X3094521Y1782051D01*
X3095748Y1782423D01*
X3096879Y1783028D01*
X3097667Y1783674D01*
X3098167Y1783438D01*
Y1745162D01*
X3097667Y1745037D01*
X3097504Y1745342D01*
X3096764Y1746243D01*
X3095862Y1746983D01*
X3094834Y1747533D01*
X3093718Y1747872D01*
X3093057Y1747937D01*
Y1742036D01*
X3092057D01*
Y1747937D01*
X3091396Y1747872D01*
X3090280Y1747533D01*
X3089251Y1746983D01*
X3088821Y1746631D01*
X3088321Y1746867D01*
Y1783438D01*
X3088821Y1783674D01*
X3089609Y1783028D01*
X3090740Y1782423D01*
X3091968Y1782051D01*
X3092744Y1781974D01*
Y1788468D01*
X3093744D01*
Y1781974D01*
D02*
G37*
G36*
X3055589Y1793202D02*
X3056484Y1792831D01*
X3057291Y1792292D01*
X3057634Y1791949D01*
X3081077Y1768506D01*
X3081420Y1768163D01*
X3081959Y1767357D01*
X3082330Y1766461D01*
X3082519Y1765510D01*
X3082519Y1765025D01*
X3082519D01*
Y1746089D01*
X3082048Y1745920D01*
X3081792Y1746232D01*
X3080893Y1746970D01*
X3079867Y1747519D01*
X3078754Y1747856D01*
X3077596Y1747970D01*
X3076438Y1747856D01*
X3075325Y1747519D01*
X3074299Y1746970D01*
X3073400Y1746232D01*
X3073144Y1745920D01*
X3072673Y1746089D01*
Y1762986D01*
X3052114Y1783546D01*
X3051010D01*
X3050774Y1784046D01*
X3051427Y1784842D01*
X3052031Y1785970D01*
X3052402Y1787195D01*
X3052527Y1788469D01*
X3052402Y1789742D01*
X3052031Y1790966D01*
X3051427Y1792095D01*
X3050774Y1792891D01*
X3051010Y1793391D01*
X3054153D01*
X3054638Y1793391D01*
X3055589Y1793202D01*
D02*
G37*
G36*
X3256894Y2306335D02*
Y2085000D01*
Y2084500D01*
X3257017Y2083886D01*
X3257365Y2083365D01*
X3257365Y2083365D01*
X3261096Y2079633D01*
X3260981Y2078760D01*
X3261150Y2077475D01*
X3261646Y2076278D01*
X3262435Y2075250D01*
X3263463Y2074461D01*
X3264660Y2073965D01*
X3265945Y2073796D01*
X3266818Y2073911D01*
X3267365Y2073365D01*
X3267886Y2073017D01*
X3268500Y2072894D01*
X3268500Y2072894D01*
X3285335D01*
X3295894Y2062335D01*
Y2058992D01*
X3295501Y2058834D01*
X3294878Y2059312D01*
X3294016Y2059669D01*
X3293090Y2059790D01*
X3292166Y2059669D01*
X3291304Y2059312D01*
X3290564Y2058744D01*
X3289996Y2058003D01*
X3289639Y2057141D01*
X3289517Y2056216D01*
X3289639Y2055292D01*
X3289996Y2054430D01*
X3290564Y2053689D01*
X3291304Y2053122D01*
X3292166Y2052764D01*
X3293090Y2052643D01*
X3294016Y2052764D01*
X3294878Y2053122D01*
X3295501Y2053600D01*
X3295894Y2053441D01*
X3295894Y2041275D01*
X3295501Y2041117D01*
X3294878Y2041595D01*
X3294016Y2041952D01*
X3293090Y2042074D01*
X3292166Y2041952D01*
X3291304Y2041595D01*
X3290564Y2041027D01*
X3289996Y2040287D01*
X3289639Y2039425D01*
X3289517Y2038500D01*
X3289639Y2037575D01*
X3289996Y2036713D01*
X3290564Y2035973D01*
X3291304Y2035405D01*
X3292166Y2035048D01*
X3293090Y2034926D01*
X3294016Y2035048D01*
X3294878Y2035405D01*
X3295501Y2035883D01*
X3295894Y2035725D01*
X3295894Y2012500D01*
Y1881500D01*
Y1880165D01*
X3274865Y1859135D01*
X3274865Y1859135D01*
X3271365Y1855635D01*
X3271017Y1855115D01*
X3270894Y1854500D01*
X3270894Y1854500D01*
Y1846500D01*
Y1835000D01*
X3271017Y1834385D01*
X3271365Y1833865D01*
X3271365Y1833865D01*
X3273865Y1831365D01*
X3273865Y1831365D01*
X3276365Y1828865D01*
X3276886Y1828517D01*
X3277500Y1828394D01*
X3277500Y1828394D01*
X3288835D01*
X3292865Y1824365D01*
X3292865Y1824365D01*
X3300895Y1816335D01*
Y1783000D01*
Y1737165D01*
X3292865Y1729135D01*
X3292865Y1729135D01*
X3290835Y1727106D01*
X3105906D01*
Y1850394D01*
X3082857D01*
X3082529Y1850552D01*
X3082528D01*
X3077220Y1855860D01*
X3077219Y1855861D01*
X3077218Y1855862D01*
X3077070Y1856011D01*
X3076925Y1856108D01*
X3076714Y1856249D01*
X3076319Y1856414D01*
X3075899Y1856498D01*
X3063384D01*
X3062964Y1856414D01*
X3062569Y1856249D01*
X3062214Y1856011D01*
X3062063Y1855859D01*
X3057542Y1851339D01*
X3057391Y1851188D01*
X3057152Y1850832D01*
X3056988Y1850437D01*
X3056979Y1850394D01*
X2996857D01*
X2996529Y1850552D01*
X2996528D01*
X2991220Y1855860D01*
X2991219Y1855861D01*
X2991218Y1855862D01*
X2991070Y1856011D01*
X2990925Y1856108D01*
X2990714Y1856249D01*
X2990319Y1856414D01*
X2989899Y1856498D01*
X2977384D01*
X2976965Y1856414D01*
X2976569Y1856249D01*
X2976214Y1856011D01*
X2976063Y1855859D01*
X2971542Y1851339D01*
X2971391Y1851188D01*
X2971152Y1850832D01*
X2970988Y1850437D01*
X2970979Y1850394D01*
X2919472D01*
Y2236008D01*
X2919641Y2292074D01*
X2920005Y2292224D01*
X2927365Y2284865D01*
X2927365Y2284865D01*
X2928365Y2283865D01*
X2928885Y2283517D01*
X2929500Y2283394D01*
X2929500Y2283394D01*
X2946000D01*
X2946000Y2283394D01*
X2946614Y2283517D01*
X2947135Y2283865D01*
X2947135Y2283865D01*
X2957135Y2293865D01*
X2960135Y2296865D01*
X2960483Y2297385D01*
X2960606Y2298000D01*
X2960606Y2298000D01*
Y2306835D01*
X2964135Y2310365D01*
X2964135Y2310365D01*
X2968165Y2314394D01*
X3248835Y2314394D01*
X3256894Y2306335D01*
D02*
G37*
G36*
X3306276Y1703606D02*
X2922500D01*
Y1709000D01*
Y1711000D01*
Y1720000D01*
X2923500Y1721000D01*
X2928000Y1725500D01*
X3291500D01*
X3294000Y1728000D01*
X3302500Y1736500D01*
Y1783000D01*
Y1817000D01*
X3294000Y1825500D01*
X3289500Y1830000D01*
X3277500D01*
X3275000Y1832500D01*
X3272500Y1835000D01*
Y1846500D01*
Y1854500D01*
X3276000Y1858000D01*
X3297500Y1879500D01*
Y1881500D01*
Y2012500D01*
X3297500Y2063000D01*
X3286000Y2074500D01*
X3268500D01*
X3267500Y2075500D01*
X3258500Y2084500D01*
Y2085000D01*
Y2307000D01*
X3249500Y2316000D01*
X2967500Y2316000D01*
X2963000Y2311500D01*
X2959000Y2307500D01*
Y2307000D01*
Y2298000D01*
X2956000Y2295000D01*
X2946000Y2285000D01*
X2929500D01*
X2928500Y2286000D01*
X2919472Y2295028D01*
Y2323205D01*
X3306276D01*
Y1703606D01*
D02*
G37*
%LPC*%
G36*
X3178519Y1815031D02*
X3178469D01*
Y1814981D01*
X3178497Y1815003D01*
X3178519Y1815031D01*
D02*
G37*
G36*
X3174532D02*
X3174481D01*
X3174503Y1815003D01*
X3174532Y1814981D01*
Y1815031D01*
D02*
G37*
G36*
X3280531Y1817531D02*
X3276910D01*
X3277003Y1817223D01*
X3277553Y1816194D01*
X3278293Y1815293D01*
X3279194Y1814553D01*
X3280223Y1814003D01*
X3280531Y1813910D01*
Y1817531D01*
D02*
G37*
G36*
X3125532Y1814031D02*
X3125481D01*
X3125503Y1814003D01*
X3125532Y1813981D01*
Y1814031D01*
D02*
G37*
G36*
X3129519D02*
X3129469D01*
Y1813981D01*
X3129497Y1814003D01*
X3129519Y1814031D01*
D02*
G37*
G36*
X3201532Y1817031D02*
X3201481D01*
X3201503Y1817003D01*
X3201532Y1816981D01*
Y1817031D01*
D02*
G37*
G36*
X3232519D02*
X3232468D01*
Y1816981D01*
X3232497Y1817003D01*
X3232519Y1817031D01*
D02*
G37*
G36*
X3245531D02*
X3245481D01*
X3245503Y1817003D01*
X3245531Y1816981D01*
Y1817031D01*
D02*
G37*
G36*
X3249519D02*
X3249469D01*
Y1816981D01*
X3249497Y1817003D01*
X3249519Y1817031D01*
D02*
G37*
G36*
X3228532D02*
X3228481D01*
X3228503Y1817003D01*
X3228532Y1816981D01*
Y1817031D01*
D02*
G37*
G36*
X3205519D02*
X3205468D01*
Y1816981D01*
X3205497Y1817003D01*
X3205519Y1817031D01*
D02*
G37*
G36*
X3214531D02*
X3214481D01*
X3214503Y1817003D01*
X3214531Y1816981D01*
Y1817031D01*
D02*
G37*
G36*
X3218519D02*
X3218468D01*
Y1816981D01*
X3218497Y1817003D01*
X3218519Y1817031D01*
D02*
G37*
G36*
X3219432Y1803619D02*
X3219403Y1803597D01*
X3219381Y1803568D01*
X3219432D01*
Y1803619D01*
D02*
G37*
G36*
X3223368D02*
Y1803568D01*
X3223419D01*
X3223397Y1803597D01*
X3223368Y1803619D01*
D02*
G37*
G36*
X3125532Y1805519D02*
X3125503Y1805497D01*
X3125481Y1805469D01*
X3125532D01*
Y1805519D01*
D02*
G37*
G36*
X3129519Y1801531D02*
X3129469D01*
Y1801481D01*
X3129497Y1801503D01*
X3129519Y1801531D01*
D02*
G37*
G36*
X3125532D02*
X3125481D01*
X3125503Y1801503D01*
X3125532Y1801481D01*
Y1801531D01*
D02*
G37*
G36*
X3223419Y1799632D02*
X3219381D01*
X3219403Y1799603D01*
Y1799597D01*
X3219381Y1799569D01*
X3223419D01*
X3223397Y1799597D01*
Y1799603D01*
X3223419Y1799632D01*
D02*
G37*
G36*
X3118969Y1799519D02*
Y1799468D01*
X3119019D01*
X3118997Y1799497D01*
X3118969Y1799519D01*
D02*
G37*
G36*
X3114631Y1813419D02*
X3114603Y1813397D01*
X3114581Y1813368D01*
X3114631D01*
Y1813419D01*
D02*
G37*
G36*
X3118568D02*
Y1813368D01*
X3118619D01*
X3118597Y1813397D01*
X3118568Y1813419D01*
D02*
G37*
G36*
X3288091Y1817531D02*
X3284468D01*
Y1813909D01*
X3284777Y1814003D01*
X3285806Y1814553D01*
X3286707Y1815293D01*
X3287447Y1816194D01*
X3287997Y1817223D01*
X3288091Y1817531D01*
D02*
G37*
G36*
X3118619Y1809431D02*
X3118568D01*
Y1809381D01*
X3118597Y1809403D01*
X3118619Y1809431D01*
D02*
G37*
G36*
X3129469Y1805519D02*
Y1805469D01*
X3129519D01*
X3129497Y1805497D01*
X3129469Y1805519D01*
D02*
G37*
G36*
X3114631Y1809431D02*
X3114581D01*
X3114603Y1809403D01*
X3114631Y1809381D01*
Y1809431D01*
D02*
G37*
G36*
X3115031Y1799519D02*
X3115003Y1799497D01*
X3114981Y1799468D01*
X3115031D01*
Y1799519D01*
D02*
G37*
G36*
X3168519Y1829032D02*
X3168468D01*
Y1828981D01*
X3168497Y1829003D01*
X3168519Y1829032D01*
D02*
G37*
G36*
X3164532D02*
X3164481D01*
X3164503Y1829003D01*
X3164532Y1828981D01*
Y1829032D01*
D02*
G37*
G36*
X3131469Y1831019D02*
Y1830968D01*
X3131519D01*
X3131497Y1830997D01*
X3131469Y1831019D01*
D02*
G37*
G36*
X3127531D02*
X3127503Y1830997D01*
X3127481Y1830968D01*
X3127531D01*
Y1831019D01*
D02*
G37*
G36*
X3168468Y1824019D02*
Y1823969D01*
X3168519D01*
X3168497Y1823997D01*
X3168468Y1824019D01*
D02*
G37*
G36*
X3164532D02*
X3164503Y1823997D01*
X3164481Y1823969D01*
X3164532D01*
Y1824019D01*
D02*
G37*
G36*
X3131519Y1827032D02*
X3131469D01*
Y1826981D01*
X3131497Y1827003D01*
X3131519Y1827032D01*
D02*
G37*
G36*
X3127531D02*
X3127481D01*
X3127503Y1827003D01*
X3127531Y1826981D01*
Y1827032D01*
D02*
G37*
G36*
X3042478Y1956608D02*
X3041810Y1956520D01*
X3041187Y1956262D01*
X3040653Y1955852D01*
X3040243Y1955317D01*
X3039985Y1954695D01*
X3039897Y1954027D01*
X3039985Y1953359D01*
X3040243Y1952736D01*
X3040653Y1952202D01*
X3041187Y1951791D01*
X3041810Y1951534D01*
X3042478Y1951446D01*
X3043146Y1951534D01*
X3043769Y1951791D01*
X3044303Y1952202D01*
X3044542Y1952513D01*
X3094351D01*
X3100502Y1946363D01*
Y1931054D01*
X3100190Y1930815D01*
X3099780Y1930280D01*
X3099522Y1929658D01*
X3099434Y1928990D01*
X3099522Y1928322D01*
X3099780Y1927699D01*
X3100190Y1927165D01*
X3100724Y1926754D01*
X3101347Y1926497D01*
X3102015Y1926409D01*
X3102683Y1926497D01*
X3103305Y1926754D01*
X3103840Y1927165D01*
X3104250Y1927699D01*
X3104508Y1928322D01*
X3104596Y1928990D01*
X3104508Y1929658D01*
X3104250Y1930280D01*
X3103840Y1930815D01*
X3103528Y1931054D01*
Y1946990D01*
X3103528Y1946990D01*
X3103413Y1947569D01*
X3103085Y1948060D01*
X3096048Y1955097D01*
X3095557Y1955425D01*
X3094978Y1955540D01*
X3094978Y1955540D01*
X3044542D01*
X3044303Y1955852D01*
X3043769Y1956262D01*
X3043146Y1956520D01*
X3042478Y1956608D01*
D02*
G37*
G36*
X2977000Y1930471D02*
X2975972Y1930336D01*
X2975014Y1929939D01*
X2974192Y1929308D01*
X2973561Y1928485D01*
X2973164Y1927528D01*
X2973029Y1926500D01*
X2973164Y1925472D01*
X2973561Y1924515D01*
X2974192Y1923692D01*
X2975014Y1923061D01*
X2975972Y1922664D01*
X2977000Y1922529D01*
X2978028Y1922664D01*
X2978985Y1923061D01*
X2979808Y1923692D01*
X2980439Y1924515D01*
X2980836Y1925472D01*
X2980971Y1926500D01*
X2980836Y1927528D01*
X2980439Y1928485D01*
X2979808Y1929308D01*
X2978985Y1929939D01*
X2978028Y1930336D01*
X2977000Y1930471D01*
D02*
G37*
G36*
X2980463Y1934532D02*
X2978968D01*
Y1933037D01*
X2978993Y1933047D01*
X2979819Y1933681D01*
X2980453Y1934507D01*
X2980463Y1934532D01*
D02*
G37*
G36*
X2975031D02*
X2973537D01*
X2973547Y1934507D01*
X2974181Y1933681D01*
X2975007Y1933047D01*
X2975031Y1933037D01*
Y1934532D01*
D02*
G37*
G36*
X3168468Y1833019D02*
Y1832969D01*
X3168519D01*
X3168497Y1832997D01*
X3168468Y1833019D01*
D02*
G37*
G36*
X3164532D02*
X3164503Y1832997D01*
X3164481Y1832969D01*
X3164532D01*
Y1833019D01*
D02*
G37*
G36*
X2977000Y1920471D02*
X2975972Y1920336D01*
X2975014Y1919939D01*
X2974192Y1919308D01*
X2973561Y1918485D01*
X2973164Y1917528D01*
X2973029Y1916500D01*
X2973164Y1915472D01*
X2973561Y1914515D01*
X2974192Y1913692D01*
X2975014Y1913061D01*
X2975972Y1912664D01*
X2977000Y1912529D01*
X2978028Y1912664D01*
X2978985Y1913061D01*
X2979808Y1913692D01*
X2980439Y1914515D01*
X2980836Y1915472D01*
X2980971Y1916500D01*
X2980836Y1917528D01*
X2980439Y1918485D01*
X2979808Y1919308D01*
X2978985Y1919939D01*
X2978028Y1920336D01*
X2977000Y1920471D01*
D02*
G37*
G36*
X3119500Y1946081D02*
X3118832Y1945993D01*
X3118209Y1945735D01*
X3117675Y1945325D01*
X3117265Y1944791D01*
X3117007Y1944168D01*
X3116919Y1943500D01*
X3117007Y1942832D01*
X3117265Y1942209D01*
X3117675Y1941675D01*
X3117987Y1941436D01*
Y1911505D01*
X3117987Y1911505D01*
X3118102Y1910926D01*
X3118430Y1910435D01*
X3118470Y1910394D01*
X3118419Y1910005D01*
X3118507Y1909337D01*
X3118765Y1908714D01*
X3119175Y1908180D01*
X3119709Y1907769D01*
X3120332Y1907512D01*
X3121000Y1907424D01*
X3121668Y1907512D01*
X3122291Y1907769D01*
X3122825Y1908180D01*
X3123235Y1908714D01*
X3123493Y1909337D01*
X3123581Y1910005D01*
X3123493Y1910673D01*
X3123235Y1911295D01*
X3122825Y1911830D01*
X3122291Y1912240D01*
X3121668Y1912498D01*
X3121013Y1912584D01*
Y1941436D01*
X3121325Y1941675D01*
X3121735Y1942209D01*
X3121993Y1942832D01*
X3122081Y1943500D01*
X3121993Y1944168D01*
X3121735Y1944791D01*
X3121325Y1945325D01*
X3120791Y1945735D01*
X3120168Y1945993D01*
X3119500Y1946081D01*
D02*
G37*
G36*
X3168519Y1820032D02*
X3168468D01*
Y1819981D01*
X3168497Y1820003D01*
X3168519Y1820032D01*
D02*
G37*
G36*
X3164532D02*
X3164481D01*
X3164503Y1820003D01*
X3164532Y1819981D01*
Y1820032D01*
D02*
G37*
G36*
X3205468Y1821019D02*
Y1820968D01*
X3205519D01*
X3205497Y1820997D01*
X3205468Y1821019D01*
D02*
G37*
G36*
X3201532D02*
X3201503Y1820997D01*
X3201481Y1820968D01*
X3201532D01*
Y1821019D01*
D02*
G37*
G36*
X3129469Y1818019D02*
Y1817969D01*
X3129519D01*
X3129497Y1817997D01*
X3129469Y1818019D01*
D02*
G37*
G36*
X3125532D02*
X3125503Y1817997D01*
X3125481Y1817969D01*
X3125532D01*
Y1818019D01*
D02*
G37*
G36*
X3178469Y1819019D02*
Y1818969D01*
X3178519D01*
X3178497Y1818997D01*
X3178469Y1819019D01*
D02*
G37*
G36*
X3174532D02*
X3174503Y1818997D01*
X3174481Y1818969D01*
X3174532D01*
Y1819019D01*
D02*
G37*
G36*
X3249469Y1821019D02*
Y1820968D01*
X3249519D01*
X3249497Y1820997D01*
X3249469Y1821019D01*
D02*
G37*
G36*
X3245531D02*
X3245503Y1820997D01*
X3245481Y1820968D01*
X3245531D01*
Y1821019D01*
D02*
G37*
G36*
X3284468Y1825091D02*
Y1821468D01*
X3288091D01*
X3287997Y1821777D01*
X3287447Y1822806D01*
X3286707Y1823707D01*
X3285806Y1824447D01*
X3284777Y1824997D01*
X3284468Y1825091D01*
D02*
G37*
G36*
X3280531Y1825090D02*
X3280223Y1824997D01*
X3279194Y1824447D01*
X3278293Y1823707D01*
X3277553Y1822806D01*
X3277003Y1821777D01*
X3276909Y1821468D01*
X3280531D01*
Y1825090D01*
D02*
G37*
G36*
X3218468Y1821019D02*
Y1820968D01*
X3218519D01*
X3218497Y1820997D01*
X3218468Y1821019D01*
D02*
G37*
G36*
X3214531D02*
X3214503Y1820997D01*
X3214481Y1820968D01*
X3214531D01*
Y1821019D01*
D02*
G37*
G36*
X3232468D02*
Y1820968D01*
X3232519D01*
X3232497Y1820997D01*
X3232468Y1821019D01*
D02*
G37*
G36*
X3228532D02*
X3228503Y1820997D01*
X3228481Y1820968D01*
X3228532D01*
Y1821019D01*
D02*
G37*
G36*
X3223419Y1795631D02*
X3223368D01*
Y1795581D01*
X3223397Y1795603D01*
X3223419Y1795631D01*
D02*
G37*
G36*
X3180532Y1739302D02*
X3180503Y1739280D01*
X3180481Y1739252D01*
X3180532D01*
Y1739302D01*
D02*
G37*
G36*
X3184468D02*
Y1739252D01*
X3184519D01*
X3184497Y1739280D01*
X3184468Y1739302D01*
D02*
G37*
G36*
X3213531D02*
X3213503Y1739280D01*
X3213481Y1739252D01*
X3213531D01*
Y1739302D01*
D02*
G37*
G36*
X3171968D02*
Y1739252D01*
X3172019D01*
X3171997Y1739280D01*
X3171968Y1739302D01*
D02*
G37*
G36*
X3142874D02*
X3142846Y1739280D01*
X3142824Y1739252D01*
X3142874D01*
Y1739302D01*
D02*
G37*
G36*
X3146811D02*
Y1739252D01*
X3146861D01*
X3146840Y1739280D01*
X3146811Y1739302D01*
D02*
G37*
G36*
X3168032D02*
X3168003Y1739280D01*
X3167981Y1739252D01*
X3168032D01*
Y1739302D01*
D02*
G37*
G36*
X3217469D02*
Y1739252D01*
X3217519D01*
X3217497Y1739280D01*
X3217469Y1739302D01*
D02*
G37*
G36*
X3125031Y1740532D02*
X3124981D01*
X3125003Y1740503D01*
X3125031Y1740481D01*
Y1740532D01*
D02*
G37*
G36*
X3129019D02*
X3128968D01*
Y1740481D01*
X3128997Y1740503D01*
X3129019Y1740532D01*
D02*
G37*
G36*
X3289531Y1743032D02*
X3288599D01*
X3289004Y1742504D01*
X3289531Y1742099D01*
Y1743032D01*
D02*
G37*
G36*
X3249469Y1739302D02*
Y1739252D01*
X3249519D01*
X3249497Y1739280D01*
X3249469Y1739302D01*
D02*
G37*
G36*
X3232032D02*
X3232003Y1739280D01*
X3231981Y1739252D01*
X3232032D01*
Y1739302D01*
D02*
G37*
G36*
X3235968D02*
Y1739252D01*
X3236019D01*
X3235997Y1739280D01*
X3235968Y1739302D01*
D02*
G37*
G36*
X3245531D02*
X3245503Y1739280D01*
X3245481Y1739252D01*
X3245531D01*
Y1739302D01*
D02*
G37*
G36*
X3159370Y1738751D02*
Y1738701D01*
X3159420D01*
X3159398Y1738729D01*
X3159370Y1738751D01*
D02*
G37*
G36*
X3168032Y1735315D02*
X3167981D01*
X3168003Y1735287D01*
X3168032Y1735265D01*
Y1735315D01*
D02*
G37*
G36*
X3172019D02*
X3171968D01*
Y1735265D01*
X3171997Y1735287D01*
X3172019Y1735315D01*
D02*
G37*
G36*
X3180532D02*
X3180481D01*
X3180503Y1735287D01*
X3180532Y1735265D01*
Y1735315D01*
D02*
G37*
G36*
X3146861D02*
X3146811D01*
Y1735265D01*
X3146840Y1735287D01*
X3146861Y1735315D01*
D02*
G37*
G36*
X3155433Y1734764D02*
X3155383D01*
X3155405Y1734735D01*
X3155433Y1734714D01*
Y1734764D01*
D02*
G37*
G36*
X3159420D02*
X3159370D01*
Y1734714D01*
X3159398Y1734735D01*
X3159420Y1734764D01*
D02*
G37*
G36*
X3142874Y1735315D02*
X3142824D01*
X3142846Y1735287D01*
X3142874Y1735265D01*
Y1735315D01*
D02*
G37*
G36*
X3184519D02*
X3184468D01*
Y1735265D01*
X3184497Y1735287D01*
X3184519Y1735315D01*
D02*
G37*
G36*
X3245531D02*
X3245481D01*
X3245503Y1735287D01*
X3245531Y1735265D01*
Y1735315D01*
D02*
G37*
G36*
X3249519D02*
X3249469D01*
Y1735265D01*
X3249497Y1735287D01*
X3249519Y1735315D01*
D02*
G37*
G36*
X3155433Y1738751D02*
X3155405Y1738729D01*
X3155383Y1738701D01*
X3155433D01*
Y1738751D01*
D02*
G37*
G36*
X3236019Y1735315D02*
X3235968D01*
Y1735265D01*
X3235997Y1735287D01*
X3236019Y1735315D01*
D02*
G37*
G36*
X3213531D02*
X3213481D01*
X3213503Y1735287D01*
X3213531Y1735265D01*
Y1735315D01*
D02*
G37*
G36*
X3217519D02*
X3217469D01*
Y1735265D01*
X3217497Y1735287D01*
X3217519Y1735315D01*
D02*
G37*
G36*
X3232032D02*
X3231981D01*
X3232003Y1735287D01*
X3232032Y1735265D01*
Y1735315D01*
D02*
G37*
G36*
X3129469Y1780019D02*
Y1779968D01*
X3129519D01*
X3129497Y1779997D01*
X3129469Y1780019D01*
D02*
G37*
G36*
X3292031Y1786401D02*
X3291504Y1785996D01*
X3291099Y1785468D01*
X3292031D01*
Y1786401D01*
D02*
G37*
G36*
X3295969D02*
Y1785468D01*
X3296901D01*
X3296496Y1785996D01*
X3295969Y1786401D01*
D02*
G37*
G36*
X3125532Y1780019D02*
X3125503Y1779997D01*
X3125481Y1779968D01*
X3125532D01*
Y1780019D01*
D02*
G37*
G36*
Y1776031D02*
X3125481D01*
X3125503Y1776003D01*
X3125532Y1775981D01*
Y1776031D01*
D02*
G37*
G36*
X3129519D02*
X3129469D01*
Y1775981D01*
X3129497Y1776003D01*
X3129519Y1776031D01*
D02*
G37*
G36*
X3296901Y1781532D02*
X3291099D01*
X3291504Y1781004D01*
X3291904Y1780697D01*
Y1780303D01*
X3291504Y1779996D01*
X3291099Y1779469D01*
X3296901D01*
X3296496Y1779996D01*
X3296096Y1780303D01*
Y1780697D01*
X3296496Y1781004D01*
X3296901Y1781532D01*
D02*
G37*
G36*
X3125532Y1789031D02*
X3125481D01*
X3125503Y1789003D01*
X3125532Y1788981D01*
Y1789031D01*
D02*
G37*
G36*
X3115031Y1795531D02*
X3114981D01*
X3115003Y1795503D01*
X3115031Y1795481D01*
Y1795531D01*
D02*
G37*
G36*
X3119019D02*
X3118969D01*
Y1795481D01*
X3118997Y1795503D01*
X3119019Y1795531D01*
D02*
G37*
G36*
X3219432Y1795631D02*
X3219381D01*
X3219403Y1795603D01*
X3219432Y1795581D01*
Y1795631D01*
D02*
G37*
G36*
X3282500Y1805749D02*
X3281342Y1805635D01*
X3280229Y1805297D01*
X3279203Y1804749D01*
X3278304Y1804011D01*
X3277566Y1803112D01*
X3277018Y1802086D01*
X3276680Y1800973D01*
X3276566Y1799815D01*
X3276680Y1798657D01*
X3277018Y1797544D01*
X3277566Y1796518D01*
X3278304Y1795619D01*
X3279203Y1794881D01*
X3280229Y1794333D01*
X3281342Y1793995D01*
X3282500Y1793881D01*
X3283658Y1793995D01*
X3284771Y1794333D01*
X3285797Y1794881D01*
X3286696Y1795619D01*
X3287434Y1796518D01*
X3287983Y1797544D01*
X3288320Y1798657D01*
X3288434Y1799815D01*
X3288320Y1800973D01*
X3287983Y1802086D01*
X3287434Y1803112D01*
X3286696Y1804011D01*
X3285797Y1804749D01*
X3284771Y1805297D01*
X3283658Y1805635D01*
X3282500Y1805749D01*
D02*
G37*
G36*
X3129519Y1789031D02*
X3129469D01*
Y1788981D01*
X3129497Y1789003D01*
X3129519Y1789031D01*
D02*
G37*
G36*
X3125532Y1793019D02*
X3125503Y1792997D01*
X3125481Y1792969D01*
X3125532D01*
Y1793019D01*
D02*
G37*
G36*
X3129469D02*
Y1792969D01*
X3129519D01*
X3129497Y1792997D01*
X3129469Y1793019D01*
D02*
G37*
G36*
X3296901Y1775532D02*
X3291099D01*
X3291504Y1775004D01*
X3291904Y1774697D01*
Y1774303D01*
X3291504Y1773996D01*
X3291099Y1773469D01*
X3296901D01*
X3296496Y1773996D01*
X3296096Y1774303D01*
Y1774697D01*
X3296496Y1775004D01*
X3296901Y1775532D01*
D02*
G37*
G36*
X3293468Y1747901D02*
Y1746968D01*
X3294401D01*
X3293996Y1747496D01*
X3293468Y1747901D01*
D02*
G37*
G36*
X3125031Y1753032D02*
X3124981D01*
X3125003Y1753003D01*
X3125031Y1752981D01*
Y1753032D01*
D02*
G37*
G36*
X3129019D02*
X3128968D01*
Y1752981D01*
X3128997Y1753003D01*
X3129019Y1753032D01*
D02*
G37*
G36*
X3289531Y1747901D02*
X3289004Y1747496D01*
X3288599Y1746968D01*
X3289531D01*
Y1747901D01*
D02*
G37*
G36*
X3294401Y1743032D02*
X3293468D01*
Y1742099D01*
X3293996Y1742504D01*
X3294401Y1743032D01*
D02*
G37*
G36*
X3125031Y1744519D02*
X3125003Y1744497D01*
X3124981Y1744468D01*
X3125031D01*
Y1744519D01*
D02*
G37*
G36*
X3128968D02*
Y1744468D01*
X3129019D01*
X3128997Y1744497D01*
X3128968Y1744519D01*
D02*
G37*
G36*
X3125031Y1757019D02*
X3125003Y1756997D01*
X3124981Y1756968D01*
X3125031D01*
Y1757019D01*
D02*
G37*
G36*
X3296901Y1769531D02*
X3295969D01*
Y1768599D01*
X3296496Y1769004D01*
X3296901Y1769531D01*
D02*
G37*
G36*
X3125031Y1769519D02*
X3125003Y1769497D01*
X3124981Y1769468D01*
X3125031D01*
Y1769519D01*
D02*
G37*
G36*
X3128968D02*
Y1769468D01*
X3129019D01*
X3128997Y1769497D01*
X3128968Y1769519D01*
D02*
G37*
G36*
X3292031Y1769531D02*
X3291099D01*
X3291504Y1769004D01*
X3292031Y1768599D01*
Y1769531D01*
D02*
G37*
G36*
X3128968Y1757019D02*
Y1756968D01*
X3129019D01*
X3128997Y1756997D01*
X3128968Y1757019D01*
D02*
G37*
G36*
X3125031Y1765532D02*
X3124981D01*
X3125003Y1765503D01*
X3125031Y1765481D01*
Y1765532D01*
D02*
G37*
G36*
X3129019D02*
X3128968D01*
Y1765481D01*
X3128997Y1765503D01*
X3129019Y1765532D01*
D02*
G37*
G36*
X3240630Y2190962D02*
X3239871D01*
X3240200Y2190532D01*
X3240630Y2190203D01*
Y2190962D01*
D02*
G37*
G36*
X3252599Y2201306D02*
X3251725Y2201191D01*
X3250911Y2200853D01*
X3250212Y2200317D01*
X3249675Y2199618D01*
X3249338Y2198804D01*
X3249223Y2197930D01*
X3249338Y2197057D01*
X3249675Y2196243D01*
X3250212Y2195543D01*
X3250911Y2195007D01*
X3251725Y2194670D01*
X3252599Y2194555D01*
X3253472Y2194670D01*
X3254286Y2195007D01*
X3254985Y2195543D01*
X3255521Y2196243D01*
X3255859Y2197057D01*
X3255974Y2197930D01*
X3255859Y2198804D01*
X3255521Y2199618D01*
X3254985Y2200317D01*
X3254286Y2200853D01*
X3253472Y2201191D01*
X3252599Y2201306D01*
D02*
G37*
G36*
X3240630Y2195658D02*
X3240200Y2195328D01*
X3239871Y2194899D01*
X3240630D01*
Y2195658D01*
D02*
G37*
G36*
X3245326Y2190962D02*
X3244567D01*
Y2190203D01*
X3244996Y2190532D01*
X3245326Y2190962D01*
D02*
G37*
G36*
X3252599Y2191306D02*
X3251725Y2191191D01*
X3250911Y2190853D01*
X3250212Y2190317D01*
X3249675Y2189618D01*
X3249338Y2188804D01*
X3249223Y2187930D01*
X3249338Y2187057D01*
X3249675Y2186242D01*
X3250212Y2185543D01*
X3250911Y2185007D01*
X3251725Y2184670D01*
X3252599Y2184555D01*
X3253472Y2184670D01*
X3254286Y2185007D01*
X3254985Y2185543D01*
X3255521Y2186242D01*
X3255859Y2187057D01*
X3255974Y2187930D01*
X3255859Y2188804D01*
X3255521Y2189618D01*
X3254985Y2190317D01*
X3254286Y2190853D01*
X3253472Y2191191D01*
X3252599Y2191306D01*
D02*
G37*
G36*
X3240630Y2185658D02*
X3240200Y2185328D01*
X3239871Y2184899D01*
X3240630D01*
Y2185658D01*
D02*
G37*
G36*
X3244567Y2185658D02*
Y2184899D01*
X3245326D01*
X3244996Y2185328D01*
X3244567Y2185658D01*
D02*
G37*
G36*
Y2195658D02*
Y2194899D01*
X3245326D01*
X3244996Y2195328D01*
X3244567Y2195658D01*
D02*
G37*
G36*
Y2205658D02*
Y2204899D01*
X3245326D01*
X3244996Y2205328D01*
X3244567Y2205658D01*
D02*
G37*
G36*
X2977500Y2234971D02*
X2976472Y2234836D01*
X2975514Y2234439D01*
X2974692Y2233808D01*
X2974061Y2232985D01*
X2973664Y2232028D01*
X2973529Y2231000D01*
X2973664Y2229972D01*
X2974061Y2229015D01*
X2974692Y2228192D01*
X2975514Y2227561D01*
X2976472Y2227164D01*
X2977500Y2227029D01*
X2978528Y2227164D01*
X2979486Y2227561D01*
X2980308Y2228192D01*
X2980939Y2229015D01*
X2981336Y2229972D01*
X2981471Y2231000D01*
X2981336Y2232028D01*
X2980939Y2232985D01*
X2980308Y2233808D01*
X2979486Y2234439D01*
X2978528Y2234836D01*
X2977500Y2234971D01*
D02*
G37*
G36*
X3240630Y2205658D02*
X3240200Y2205328D01*
X3239871Y2204899D01*
X3240630D01*
Y2205658D01*
D02*
G37*
G36*
X3245326Y2200962D02*
X3244567D01*
Y2200203D01*
X3244996Y2200532D01*
X3245326Y2200962D01*
D02*
G37*
G36*
X3240630D02*
X3239871D01*
X3240200Y2200532D01*
X3240630Y2200203D01*
Y2200962D01*
D02*
G37*
G36*
Y2180962D02*
X3239871D01*
X3240200Y2180532D01*
X3240630Y2180203D01*
Y2180962D01*
D02*
G37*
G36*
X2977000Y2165546D02*
X2975972Y2165410D01*
X2975014Y2165014D01*
X2974192Y2164383D01*
X2973561Y2163560D01*
X2973164Y2162603D01*
X2973029Y2161575D01*
X2973164Y2160547D01*
X2973561Y2159589D01*
X2974192Y2158767D01*
X2975014Y2158136D01*
X2975972Y2157739D01*
X2977000Y2157604D01*
X2978028Y2157739D01*
X2978985Y2158136D01*
X2979808Y2158767D01*
X2980439Y2159589D01*
X2980836Y2160547D01*
X2980971Y2161575D01*
X2980836Y2162603D01*
X2980439Y2163560D01*
X2979808Y2164383D01*
X2978985Y2165014D01*
X2978028Y2165410D01*
X2977000Y2165546D01*
D02*
G37*
G36*
X3252599Y2171305D02*
X3251725Y2171190D01*
X3250911Y2170853D01*
X3250212Y2170317D01*
X3249675Y2169618D01*
X3249338Y2168804D01*
X3249223Y2167930D01*
X3249338Y2167057D01*
X3249675Y2166242D01*
X3250212Y2165543D01*
X3250911Y2165007D01*
X3251725Y2164670D01*
X3252599Y2164555D01*
X3253472Y2164670D01*
X3254286Y2165007D01*
X3254985Y2165543D01*
X3255521Y2166242D01*
X3255859Y2167057D01*
X3255974Y2167930D01*
X3255859Y2168804D01*
X3255521Y2169618D01*
X3254985Y2170317D01*
X3254286Y2170853D01*
X3253472Y2171190D01*
X3252599Y2171305D01*
D02*
G37*
G36*
X2978969Y2155038D02*
Y2153543D01*
X2980463D01*
X2980453Y2153568D01*
X2979819Y2154394D01*
X2978993Y2155028D01*
X2978969Y2155038D01*
D02*
G37*
G36*
X2975032Y2149606D02*
X2973537D01*
X2973547Y2149581D01*
X2974181Y2148756D01*
X2975007Y2148122D01*
X2975032Y2148112D01*
Y2149606D01*
D02*
G37*
G36*
X2980463D02*
X2978969D01*
Y2148112D01*
X2978993Y2148122D01*
X2979819Y2148756D01*
X2980453Y2149581D01*
X2980463Y2149606D01*
D02*
G37*
G36*
X2975032Y2155038D02*
X2975007Y2155028D01*
X2974181Y2154394D01*
X2973547Y2153568D01*
X2973537Y2153543D01*
X2975032D01*
Y2155038D01*
D02*
G37*
G36*
X3240630Y2175658D02*
X3240200Y2175328D01*
X3239871Y2174899D01*
X3240630D01*
Y2175658D01*
D02*
G37*
G36*
X3244567Y2175658D02*
Y2174899D01*
X3245326D01*
X3244996Y2175328D01*
X3244567Y2175658D01*
D02*
G37*
G36*
X3245326Y2180962D02*
X3244567D01*
Y2180203D01*
X3244996Y2180532D01*
X3245326Y2180962D01*
D02*
G37*
G36*
X3252599Y2181306D02*
X3251725Y2181190D01*
X3250911Y2180853D01*
X3250212Y2180317D01*
X3249675Y2179618D01*
X3249338Y2178804D01*
X3249223Y2177930D01*
X3249338Y2177057D01*
X3249675Y2176242D01*
X3250212Y2175543D01*
X3250911Y2175007D01*
X3251725Y2174670D01*
X3252599Y2174555D01*
X3253472Y2174670D01*
X3254286Y2175007D01*
X3254985Y2175543D01*
X3255521Y2176242D01*
X3255859Y2177057D01*
X3255974Y2177930D01*
X3255859Y2178804D01*
X3255521Y2179618D01*
X3254985Y2180317D01*
X3254286Y2180853D01*
X3253472Y2181190D01*
X3252599Y2181306D01*
D02*
G37*
G36*
X2980937Y2175512D02*
X2973063D01*
Y2167638D01*
X2980937D01*
Y2175512D01*
D02*
G37*
G36*
X3245326Y2170962D02*
X3244567D01*
Y2170203D01*
X3244996Y2170532D01*
X3245326Y2170962D01*
D02*
G37*
G36*
X3240630D02*
X3239871D01*
X3240200Y2170532D01*
X3240630Y2170203D01*
Y2170962D01*
D02*
G37*
G36*
X2981437Y2274937D02*
X2973563D01*
Y2267063D01*
X2981437D01*
Y2274937D01*
D02*
G37*
G36*
X3252953Y2275574D02*
X3252079Y2275459D01*
X3251265Y2275122D01*
X3250566Y2274586D01*
X3250030Y2273886D01*
X3249693Y2273072D01*
X3249577Y2272199D01*
X3249693Y2271325D01*
X3250030Y2270511D01*
X3250566Y2269812D01*
X3251265Y2269276D01*
X3252079Y2268939D01*
X3252953Y2268823D01*
X3253827Y2268939D01*
X3254641Y2269276D01*
X3255339Y2269812D01*
X3255876Y2270511D01*
X3256213Y2271325D01*
X3256328Y2272199D01*
X3256213Y2273072D01*
X3255876Y2273886D01*
X3255339Y2274586D01*
X3254641Y2275122D01*
X3253827Y2275459D01*
X3252953Y2275574D01*
D02*
G37*
G36*
X3240984Y2269926D02*
X3240555Y2269597D01*
X3240225Y2269168D01*
X3240984D01*
Y2269926D01*
D02*
G37*
G36*
Y2265231D02*
X3240225D01*
X3240555Y2264801D01*
X3240984Y2264471D01*
Y2265231D01*
D02*
G37*
G36*
Y2259926D02*
X3240555Y2259597D01*
X3240225Y2259167D01*
X3240984D01*
Y2259926D01*
D02*
G37*
G36*
X3244921Y2259926D02*
Y2259167D01*
X3245680D01*
X3245351Y2259597D01*
X3244921Y2259926D01*
D02*
G37*
G36*
X3245680Y2265231D02*
X3244921D01*
Y2264471D01*
X3245351Y2264801D01*
X3245680Y2265231D01*
D02*
G37*
G36*
X3244921Y2269926D02*
Y2269168D01*
X3245680D01*
X3245351Y2269597D01*
X3244921Y2269926D01*
D02*
G37*
G36*
X3240984Y2279926D02*
X3240555Y2279597D01*
X3240225Y2279168D01*
X3240984D01*
Y2279926D01*
D02*
G37*
G36*
X3244921Y2279926D02*
Y2279168D01*
X3245680D01*
X3245351Y2279597D01*
X3244921Y2279926D01*
D02*
G37*
G36*
X3100015Y2280071D02*
X3099347Y2279983D01*
X3098724Y2279725D01*
X3098190Y2279315D01*
X3097951Y2279003D01*
X3027015D01*
X3027015Y2279003D01*
X3026436Y2278888D01*
X3025945Y2278560D01*
X3011945Y2264560D01*
X3011617Y2264069D01*
X3011502Y2263490D01*
X3011502Y2263490D01*
Y2231554D01*
X3011190Y2231315D01*
X3010780Y2230780D01*
X3010522Y2230158D01*
X3010434Y2229490D01*
X3010522Y2228822D01*
X3010780Y2228199D01*
X3011190Y2227665D01*
X3011724Y2227254D01*
X3012347Y2226997D01*
X3013015Y2226909D01*
X3013683Y2226997D01*
X3014305Y2227254D01*
X3014840Y2227665D01*
X3015250Y2228199D01*
X3015508Y2228822D01*
X3015596Y2229490D01*
X3015508Y2230158D01*
X3015250Y2230780D01*
X3014840Y2231315D01*
X3014528Y2231554D01*
Y2262863D01*
X3027642Y2275976D01*
X3097951D01*
X3098190Y2275665D01*
X3098724Y2275254D01*
X3099347Y2274997D01*
X3100015Y2274909D01*
X3100683Y2274997D01*
X3101306Y2275254D01*
X3101840Y2275665D01*
X3102087Y2275987D01*
X3119845D01*
X3119964Y2275593D01*
X3119930Y2275570D01*
X3119930Y2275570D01*
X3112316Y2267956D01*
X3111988Y2267465D01*
X3111872Y2266886D01*
X3111872Y2266886D01*
Y2247243D01*
X3111479Y2247109D01*
X3111274Y2247376D01*
X3110739Y2247787D01*
X3110117Y2248044D01*
X3109449Y2248132D01*
X3109050Y2248080D01*
X3108589Y2248388D01*
X3108010Y2248503D01*
X3108010Y2248503D01*
X3104079D01*
X3103840Y2248815D01*
X3103528Y2249054D01*
Y2264990D01*
X3103528Y2264990D01*
X3103413Y2265569D01*
X3103085Y2266060D01*
X3096048Y2273097D01*
X3095557Y2273425D01*
X3094978Y2273540D01*
X3094978Y2273540D01*
X3044542D01*
X3044303Y2273852D01*
X3043769Y2274262D01*
X3043146Y2274520D01*
X3042478Y2274608D01*
X3041810Y2274520D01*
X3041187Y2274262D01*
X3040653Y2273852D01*
X3040243Y2273317D01*
X3039985Y2272695D01*
X3039897Y2272027D01*
X3039985Y2271359D01*
X3040243Y2270736D01*
X3040653Y2270202D01*
X3041187Y2269791D01*
X3041810Y2269534D01*
X3042478Y2269446D01*
X3043146Y2269534D01*
X3043769Y2269791D01*
X3044303Y2270202D01*
X3044542Y2270513D01*
X3094351D01*
X3100502Y2264363D01*
Y2249054D01*
X3100190Y2248815D01*
X3099780Y2248280D01*
X3099522Y2247658D01*
X3099434Y2246990D01*
X3099522Y2246322D01*
X3099780Y2245699D01*
X3100190Y2245165D01*
X3100724Y2244754D01*
X3101347Y2244497D01*
X3102015Y2244409D01*
X3102683Y2244497D01*
X3103305Y2244754D01*
X3103840Y2245165D01*
X3104079Y2245476D01*
X3106878D01*
X3106956Y2244883D01*
X3107214Y2244261D01*
X3107624Y2243726D01*
X3108158Y2243316D01*
X3108315Y2243251D01*
X3108392Y2242865D01*
X3102530Y2237003D01*
X3102079D01*
X3101840Y2237315D01*
X3101306Y2237725D01*
X3100683Y2237983D01*
X3100015Y2238071D01*
X3099347Y2237983D01*
X3098724Y2237725D01*
X3098190Y2237315D01*
X3097780Y2236780D01*
X3097522Y2236158D01*
X3097507Y2236043D01*
X3095220Y2235040D01*
X3082164D01*
X3077640Y2239564D01*
X3077772Y2239736D01*
X3078030Y2240359D01*
X3078118Y2241027D01*
X3078030Y2241695D01*
X3077772Y2242317D01*
X3077362Y2242852D01*
X3077050Y2243091D01*
Y2258468D01*
X3077050Y2258468D01*
X3076935Y2259047D01*
X3076607Y2259538D01*
X3076607Y2259538D01*
X3067575Y2268570D01*
X3067084Y2268898D01*
X3066505Y2269013D01*
X3066505Y2269013D01*
X3046500D01*
X3045921Y2268898D01*
X3045430Y2268570D01*
X3045430Y2268570D01*
X3039873Y2263013D01*
X3039064D01*
X3038825Y2263325D01*
X3038291Y2263735D01*
X3037668Y2263993D01*
X3037000Y2264081D01*
X3036332Y2263993D01*
X3035709Y2263735D01*
X3035175Y2263325D01*
X3034765Y2262791D01*
X3034507Y2262168D01*
X3034419Y2261500D01*
X3034507Y2260832D01*
X3034765Y2260209D01*
X3035175Y2259675D01*
X3035709Y2259265D01*
X3036332Y2259007D01*
X3037000Y2258919D01*
X3037668Y2259007D01*
X3038291Y2259265D01*
X3038825Y2259675D01*
X3039064Y2259987D01*
X3040500D01*
X3040500Y2259987D01*
X3041079Y2260102D01*
X3041570Y2260430D01*
X3047127Y2265987D01*
X3065878D01*
X3074024Y2257841D01*
Y2243091D01*
X3073712Y2242852D01*
X3073302Y2242317D01*
X3073044Y2241695D01*
X3072956Y2241027D01*
X3073044Y2240359D01*
X3073302Y2239736D01*
X3073712Y2239202D01*
X3074240Y2238796D01*
X3074467Y2238457D01*
X3080467Y2232457D01*
X3080467Y2232457D01*
X3080958Y2232129D01*
X3081537Y2232013D01*
X3095537D01*
X3095552Y2232017D01*
X3095568Y2232014D01*
X3095841Y2232074D01*
X3096116Y2232129D01*
X3096129Y2232137D01*
X3096145Y2232141D01*
X3098710Y2233265D01*
X3098724Y2233254D01*
X3099347Y2232997D01*
X3100015Y2232909D01*
X3100683Y2232997D01*
X3101306Y2233254D01*
X3101840Y2233665D01*
X3102079Y2233976D01*
X3103157D01*
X3103157Y2233976D01*
X3103736Y2234092D01*
X3104227Y2234420D01*
X3114456Y2244649D01*
X3114456Y2244649D01*
X3114784Y2245140D01*
X3114899Y2245719D01*
X3114899Y2245719D01*
Y2266259D01*
X3121627Y2272987D01*
X3144946D01*
X3145183Y2272593D01*
X3145007Y2272168D01*
X3144919Y2271500D01*
X3145007Y2270832D01*
X3145265Y2270209D01*
X3145675Y2269675D01*
X3145987Y2269436D01*
Y2268013D01*
X3140500D01*
X3139921Y2267898D01*
X3139430Y2267570D01*
X3139430Y2267570D01*
X3133930Y2262070D01*
X3133602Y2261579D01*
X3133487Y2261000D01*
X3133487Y2261000D01*
Y2244500D01*
X3133487Y2244500D01*
X3133602Y2243921D01*
X3133930Y2243430D01*
X3135930Y2241430D01*
X3135930Y2241430D01*
X3136421Y2241102D01*
X3137000Y2240987D01*
X3137000Y2240987D01*
X3140698D01*
X3140935Y2240593D01*
X3140759Y2240168D01*
X3140671Y2239500D01*
X3140759Y2238832D01*
X3141017Y2238209D01*
X3141427Y2237675D01*
X3141961Y2237265D01*
X3142584Y2237007D01*
X3143252Y2236919D01*
X3143920Y2237007D01*
X3144543Y2237265D01*
X3145077Y2237675D01*
X3145316Y2237987D01*
X3159487D01*
Y2237064D01*
X3159175Y2236825D01*
X3158765Y2236291D01*
X3158507Y2235668D01*
X3158419Y2235000D01*
X3158507Y2234332D01*
X3158765Y2233709D01*
X3159175Y2233175D01*
X3159709Y2232765D01*
X3160332Y2232507D01*
X3161000Y2232419D01*
X3161668Y2232507D01*
X3162291Y2232765D01*
X3162825Y2233175D01*
X3163235Y2233709D01*
X3163493Y2234332D01*
X3163581Y2235000D01*
X3163493Y2235668D01*
X3163235Y2236291D01*
X3162825Y2236825D01*
X3162513Y2237064D01*
Y2237987D01*
X3171373D01*
X3172487Y2236873D01*
Y2235056D01*
X3172093Y2234978D01*
X3172038Y2235110D01*
X3171628Y2235644D01*
X3171094Y2236054D01*
X3170471Y2236312D01*
X3169803Y2236400D01*
X3169135Y2236312D01*
X3168513Y2236054D01*
X3167978Y2235644D01*
X3167568Y2235110D01*
X3167310Y2234487D01*
X3167222Y2233819D01*
X3167240Y2233683D01*
X3163962Y2231013D01*
X3162000D01*
X3162000Y2231013D01*
X3161421Y2230898D01*
X3160930Y2230570D01*
X3160930Y2230570D01*
X3150804Y2220444D01*
X3150441Y2220638D01*
X3150513Y2221000D01*
X3150513Y2221000D01*
Y2232436D01*
X3150825Y2232675D01*
X3151235Y2233209D01*
X3151493Y2233832D01*
X3151581Y2234500D01*
X3151493Y2235168D01*
X3151235Y2235791D01*
X3150825Y2236325D01*
X3150291Y2236735D01*
X3149668Y2236993D01*
X3149000Y2237081D01*
X3148332Y2236993D01*
X3147709Y2236735D01*
X3147175Y2236325D01*
X3146765Y2235791D01*
X3146507Y2235168D01*
X3146419Y2234500D01*
X3146507Y2233832D01*
X3146765Y2233209D01*
X3147175Y2232675D01*
X3147487Y2232436D01*
Y2221627D01*
X3099918Y2174058D01*
X3099347Y2173983D01*
X3098724Y2173725D01*
X3098190Y2173315D01*
X3097951Y2173003D01*
X3027015D01*
X3027015Y2173003D01*
X3026436Y2172888D01*
X3025945Y2172560D01*
X3011945Y2158560D01*
X3011617Y2158069D01*
X3011502Y2157490D01*
X3011502Y2157490D01*
Y2125554D01*
X3011190Y2125315D01*
X3010780Y2124780D01*
X3010522Y2124158D01*
X3010434Y2123490D01*
X3010522Y2122822D01*
X3010780Y2122199D01*
X3011190Y2121665D01*
X3011724Y2121254D01*
X3012347Y2120997D01*
X3013015Y2120909D01*
X3013683Y2120997D01*
X3014305Y2121254D01*
X3014840Y2121665D01*
X3015250Y2122199D01*
X3015508Y2122822D01*
X3015596Y2123490D01*
X3015508Y2124158D01*
X3015250Y2124780D01*
X3014840Y2125315D01*
X3014528Y2125554D01*
Y2156863D01*
X3027642Y2169976D01*
X3097951D01*
X3098190Y2169665D01*
X3098724Y2169254D01*
X3099347Y2168997D01*
X3100015Y2168909D01*
X3100683Y2168997D01*
X3101306Y2169254D01*
X3101840Y2169665D01*
X3102250Y2170199D01*
X3102508Y2170822D01*
X3102596Y2171490D01*
X3102508Y2172158D01*
X3102447Y2172306D01*
X3117790Y2187650D01*
X3118153Y2187456D01*
X3118081Y2187094D01*
X3118081Y2187094D01*
Y2138080D01*
X3117754Y2137861D01*
X3117597Y2137926D01*
X3116929Y2138014D01*
X3116261Y2137926D01*
X3116123Y2137869D01*
X3115822Y2138170D01*
X3115879Y2138308D01*
X3115967Y2138976D01*
X3115879Y2139644D01*
X3115621Y2140267D01*
X3115211Y2140801D01*
X3114676Y2141212D01*
X3114054Y2141470D01*
X3113386Y2141558D01*
X3112718Y2141470D01*
X3112662Y2141446D01*
X3112049Y2142060D01*
X3111558Y2142388D01*
X3110979Y2142503D01*
X3110979Y2142503D01*
X3104079D01*
X3103840Y2142815D01*
X3103528Y2143054D01*
Y2158990D01*
X3103528Y2158990D01*
X3103413Y2159569D01*
X3103085Y2160060D01*
X3096048Y2167097D01*
X3095557Y2167425D01*
X3094978Y2167540D01*
X3094978Y2167540D01*
X3044542D01*
X3044303Y2167852D01*
X3043769Y2168262D01*
X3043146Y2168520D01*
X3042478Y2168608D01*
X3041810Y2168520D01*
X3041187Y2168262D01*
X3040653Y2167852D01*
X3040243Y2167317D01*
X3039985Y2166695D01*
X3039897Y2166027D01*
X3039985Y2165359D01*
X3040172Y2164907D01*
X3039951Y2164513D01*
X3039000D01*
X3038421Y2164398D01*
X3037930Y2164070D01*
X3037930Y2164070D01*
X3036890Y2163030D01*
X3036500Y2163081D01*
X3035832Y2162993D01*
X3035209Y2162735D01*
X3034675Y2162325D01*
X3034436Y2162013D01*
X3029000D01*
X3029000Y2162013D01*
X3028421Y2161898D01*
X3027930Y2161570D01*
X3027930Y2161570D01*
X3024430Y2158070D01*
X3024102Y2157579D01*
X3023987Y2157000D01*
X3023987Y2157000D01*
Y2128627D01*
X3014373Y2119013D01*
X3008627D01*
X3007013Y2120627D01*
Y2171373D01*
X3063570Y2227930D01*
X3063570Y2227930D01*
X3063898Y2228421D01*
X3064013Y2229000D01*
Y2258000D01*
X3064013Y2258000D01*
X3063898Y2258579D01*
X3063570Y2259070D01*
X3063570Y2259070D01*
X3058570Y2264070D01*
X3058079Y2264398D01*
X3057500Y2264513D01*
X3057500Y2264513D01*
X3048500D01*
X3047921Y2264398D01*
X3047430Y2264070D01*
X3047430Y2264070D01*
X3040873Y2257513D01*
X3033627D01*
X3031513Y2259627D01*
Y2261873D01*
X3035127Y2265487D01*
X3036936D01*
X3037175Y2265175D01*
X3037709Y2264765D01*
X3038332Y2264507D01*
X3039000Y2264419D01*
X3039668Y2264507D01*
X3040291Y2264765D01*
X3040825Y2265175D01*
X3041235Y2265709D01*
X3041493Y2266332D01*
X3041581Y2267000D01*
X3041493Y2267668D01*
X3041235Y2268291D01*
X3040825Y2268825D01*
X3040291Y2269235D01*
X3039668Y2269493D01*
X3039000Y2269581D01*
X3038332Y2269493D01*
X3037709Y2269235D01*
X3037175Y2268825D01*
X3036936Y2268513D01*
X3034500D01*
X3034500Y2268513D01*
X3033921Y2268398D01*
X3033430Y2268070D01*
X3028930Y2263570D01*
X3028602Y2263079D01*
X3028487Y2262500D01*
X3028487Y2262500D01*
Y2259000D01*
X3028487Y2259000D01*
X3028602Y2258421D01*
X3028930Y2257930D01*
X3031930Y2254930D01*
X3032421Y2254602D01*
X3033000Y2254487D01*
X3033000Y2254487D01*
X3041500D01*
X3041500Y2254487D01*
X3042079Y2254602D01*
X3042570Y2254930D01*
X3049127Y2261487D01*
X3049903D01*
X3050037Y2261093D01*
X3049910Y2260995D01*
X3053238D01*
X3053111Y2261093D01*
X3053245Y2261487D01*
X3056873D01*
X3060987Y2257373D01*
Y2229627D01*
X3004430Y2173070D01*
X3004102Y2172579D01*
X3003987Y2172000D01*
X3003987Y2172000D01*
Y2120000D01*
X3003987Y2120000D01*
X3004102Y2119421D01*
X3004430Y2118930D01*
X3006930Y2116430D01*
X3006930Y2116430D01*
X3007421Y2116102D01*
X3008000Y2115987D01*
X3015000D01*
X3015000Y2115987D01*
X3015579Y2116102D01*
X3016070Y2116430D01*
X3026570Y2126930D01*
X3026570Y2126930D01*
X3026898Y2127421D01*
X3027013Y2128000D01*
Y2156373D01*
X3029627Y2158987D01*
X3034436D01*
X3034675Y2158675D01*
X3035209Y2158265D01*
X3035832Y2158007D01*
X3035904Y2157997D01*
X3036014Y2157586D01*
X3035675Y2157325D01*
X3035265Y2156791D01*
X3035007Y2156168D01*
X3034919Y2155500D01*
X3035007Y2154832D01*
X3035265Y2154209D01*
X3035675Y2153675D01*
X3036209Y2153265D01*
X3036832Y2153007D01*
X3037500Y2152919D01*
X3038168Y2153007D01*
X3038791Y2153265D01*
X3039325Y2153675D01*
X3039564Y2153987D01*
X3041515D01*
X3041515Y2153987D01*
X3042094Y2154102D01*
X3042585Y2154430D01*
X3046142Y2157987D01*
X3067878D01*
X3074024Y2151841D01*
Y2137091D01*
X3073712Y2136852D01*
X3073302Y2136317D01*
X3073044Y2135695D01*
X3072956Y2135027D01*
X3073044Y2134359D01*
X3073302Y2133736D01*
X3073712Y2133202D01*
X3074240Y2132796D01*
X3074467Y2132457D01*
X3080467Y2126457D01*
X3080467Y2126457D01*
X3080958Y2126129D01*
X3081537Y2126013D01*
X3095537D01*
X3095552Y2126016D01*
X3095568Y2126014D01*
X3095841Y2126074D01*
X3096116Y2126129D01*
X3096129Y2126137D01*
X3096145Y2126141D01*
X3098710Y2127265D01*
X3098724Y2127254D01*
X3099347Y2126997D01*
X3100015Y2126909D01*
X3100683Y2126997D01*
X3101306Y2127254D01*
X3101840Y2127665D01*
X3102079Y2127976D01*
X3116104D01*
X3116104Y2127976D01*
X3116683Y2128092D01*
X3117174Y2128420D01*
X3117623Y2128869D01*
X3117987Y2128718D01*
Y2085602D01*
X3100405Y2068020D01*
X3100015Y2068071D01*
X3099347Y2067983D01*
X3098724Y2067725D01*
X3098190Y2067315D01*
X3097951Y2067003D01*
X3027015D01*
X3027015Y2067003D01*
X3026436Y2066888D01*
X3025945Y2066560D01*
X3011945Y2052560D01*
X3011617Y2052069D01*
X3011502Y2051490D01*
X3011502Y2051490D01*
Y2019554D01*
X3011190Y2019315D01*
X3010780Y2018780D01*
X3010522Y2018158D01*
X3010434Y2017490D01*
X3010522Y2016822D01*
X3010780Y2016199D01*
X3011190Y2015665D01*
X3011724Y2015254D01*
X3012347Y2014997D01*
X3013015Y2014909D01*
X3013683Y2014997D01*
X3014305Y2015254D01*
X3014840Y2015665D01*
X3015250Y2016199D01*
X3015508Y2016822D01*
X3015596Y2017490D01*
X3015508Y2018158D01*
X3015250Y2018780D01*
X3014840Y2019315D01*
X3014528Y2019554D01*
Y2050863D01*
X3027642Y2063976D01*
X3097951D01*
X3098190Y2063665D01*
X3098724Y2063254D01*
X3099347Y2062997D01*
X3100015Y2062909D01*
X3100683Y2062997D01*
X3101306Y2063254D01*
X3101840Y2063665D01*
X3102250Y2064199D01*
X3102508Y2064822D01*
X3102596Y2065490D01*
X3102545Y2065879D01*
X3120123Y2083458D01*
X3120487Y2083307D01*
Y2047697D01*
X3120093Y2047503D01*
X3119791Y2047735D01*
X3119168Y2047993D01*
X3118500Y2048081D01*
X3117832Y2047993D01*
X3117209Y2047735D01*
X3116675Y2047325D01*
X3116265Y2046791D01*
X3116007Y2046168D01*
X3115919Y2045500D01*
X3116007Y2044832D01*
X3116265Y2044209D01*
X3116675Y2043675D01*
X3116987Y2043436D01*
Y2037500D01*
X3116987Y2037500D01*
X3117102Y2036921D01*
X3117430Y2036430D01*
X3118875Y2034985D01*
X3118852Y2034588D01*
X3118502Y2034355D01*
X3118168Y2034493D01*
X3117500Y2034581D01*
X3117110Y2034530D01*
X3115580Y2036060D01*
X3115089Y2036388D01*
X3114510Y2036503D01*
X3114510Y2036503D01*
X3104079D01*
X3103840Y2036815D01*
X3103528Y2037054D01*
Y2052990D01*
X3103528Y2052990D01*
X3103413Y2053569D01*
X3103085Y2054060D01*
X3096048Y2061097D01*
X3095557Y2061425D01*
X3094978Y2061540D01*
X3094978Y2061540D01*
X3044542D01*
X3044303Y2061852D01*
X3043769Y2062262D01*
X3043146Y2062520D01*
X3042478Y2062608D01*
X3041810Y2062520D01*
X3041187Y2062262D01*
X3040653Y2061852D01*
X3040243Y2061317D01*
X3039985Y2060695D01*
X3039897Y2060027D01*
X3039985Y2059359D01*
X3040243Y2058736D01*
X3040557Y2058327D01*
X3040443Y2057903D01*
X3040421Y2057898D01*
X3039930Y2057570D01*
X3039930Y2057570D01*
X3039390Y2057030D01*
X3039000Y2057081D01*
X3038332Y2056993D01*
X3037709Y2056735D01*
X3037175Y2056325D01*
X3036936Y2056013D01*
X3036000D01*
X3036000Y2056013D01*
X3035421Y2055898D01*
X3034930Y2055570D01*
X3034930Y2055570D01*
X3032930Y2053570D01*
X3032602Y2053079D01*
X3032487Y2052500D01*
X3032487Y2052500D01*
Y2047000D01*
X3032487Y2047000D01*
X3032602Y2046421D01*
X3032930Y2045930D01*
X3034930Y2043930D01*
X3034930Y2043930D01*
X3035421Y2043602D01*
X3036000Y2043487D01*
X3036000Y2043487D01*
X3044500D01*
X3044500Y2043487D01*
X3045079Y2043602D01*
X3045570Y2043930D01*
X3048590Y2046950D01*
X3049006Y2046809D01*
X3049066Y2046355D01*
X3049325Y2045728D01*
X3049606Y2045363D01*
Y2047027D01*
X3053543D01*
Y2045363D01*
X3053823Y2045728D01*
X3054083Y2046355D01*
X3054171Y2047027D01*
X3054083Y2047699D01*
X3053981Y2047944D01*
X3054211Y2048315D01*
X3054519Y2048341D01*
X3058987Y2043873D01*
Y2021127D01*
X3003930Y1966070D01*
X3003602Y1965579D01*
X3003487Y1965000D01*
X3003487Y1965000D01*
Y1911500D01*
X3003487Y1911500D01*
X3003602Y1910921D01*
X3003930Y1910430D01*
X3009930Y1904430D01*
X3009930Y1904430D01*
X3010421Y1904102D01*
X3011000Y1903987D01*
X3017500D01*
X3017500Y1903987D01*
X3018079Y1904102D01*
X3018570Y1904430D01*
X3026570Y1912430D01*
X3026570Y1912430D01*
X3026898Y1912921D01*
X3027013Y1913500D01*
X3027013Y1913500D01*
Y1943373D01*
X3031127Y1947487D01*
X3035436D01*
X3035675Y1947175D01*
X3036209Y1946765D01*
X3036832Y1946507D01*
X3037500Y1946419D01*
X3038168Y1946507D01*
X3038791Y1946765D01*
X3039325Y1947175D01*
X3039735Y1947709D01*
X3039993Y1948332D01*
X3040081Y1949000D01*
X3039993Y1949668D01*
X3039735Y1950291D01*
X3039325Y1950825D01*
X3038791Y1951235D01*
X3038168Y1951493D01*
X3037500Y1951581D01*
X3036832Y1951493D01*
X3036209Y1951235D01*
X3035675Y1950825D01*
X3035436Y1950513D01*
X3030500D01*
X3030500Y1950513D01*
X3029921Y1950398D01*
X3029430Y1950070D01*
X3029430Y1950070D01*
X3024430Y1945070D01*
X3024102Y1944579D01*
X3023987Y1944000D01*
X3023987Y1944000D01*
Y1914127D01*
X3016873Y1907013D01*
X3011627D01*
X3006513Y1912127D01*
Y1964373D01*
X3061570Y2019430D01*
X3061570Y2019430D01*
X3061898Y2019921D01*
X3062013Y2020500D01*
Y2044500D01*
X3061898Y2045079D01*
X3061570Y2045570D01*
X3061570Y2045570D01*
X3056070Y2051070D01*
X3055579Y2051398D01*
X3055000Y2051513D01*
X3055000Y2051513D01*
X3050098D01*
X3049887Y2051907D01*
X3049940Y2051987D01*
X3067878D01*
X3074024Y2045841D01*
Y2031091D01*
X3073712Y2030852D01*
X3073302Y2030317D01*
X3073044Y2029695D01*
X3072956Y2029027D01*
X3073044Y2028359D01*
X3073302Y2027736D01*
X3073712Y2027202D01*
X3074240Y2026797D01*
X3074467Y2026457D01*
X3080467Y2020457D01*
X3080467Y2020457D01*
X3080958Y2020129D01*
X3081537Y2020013D01*
X3095537D01*
X3095552Y2020016D01*
X3095568Y2020014D01*
X3095841Y2020074D01*
X3096116Y2020129D01*
X3096129Y2020137D01*
X3096145Y2020141D01*
X3098710Y2021265D01*
X3098724Y2021254D01*
X3099347Y2020997D01*
X3100015Y2020909D01*
X3100683Y2020997D01*
X3101306Y2021254D01*
X3101840Y2021665D01*
X3102079Y2021976D01*
X3118990D01*
X3118990Y2021976D01*
X3119569Y2022092D01*
X3120060Y2022420D01*
X3122623Y2024983D01*
X3122987Y2024832D01*
Y1984602D01*
X3100405Y1962020D01*
X3100015Y1962071D01*
X3099347Y1961983D01*
X3098724Y1961725D01*
X3098190Y1961315D01*
X3097951Y1961003D01*
X3027015D01*
X3027015Y1961003D01*
X3026436Y1960888D01*
X3025945Y1960560D01*
X3011945Y1946560D01*
X3011617Y1946069D01*
X3011502Y1945490D01*
X3011502Y1945490D01*
Y1913554D01*
X3011190Y1913315D01*
X3010780Y1912780D01*
X3010522Y1912158D01*
X3010434Y1911490D01*
X3010522Y1910822D01*
X3010780Y1910199D01*
X3011190Y1909665D01*
X3011724Y1909254D01*
X3012347Y1908997D01*
X3013015Y1908909D01*
X3013683Y1908997D01*
X3014305Y1909254D01*
X3014840Y1909665D01*
X3015250Y1910199D01*
X3015508Y1910822D01*
X3015596Y1911490D01*
X3015508Y1912158D01*
X3015250Y1912780D01*
X3014840Y1913315D01*
X3014528Y1913554D01*
Y1944863D01*
X3027642Y1957976D01*
X3097951D01*
X3098190Y1957665D01*
X3098724Y1957254D01*
X3099347Y1956997D01*
X3100015Y1956909D01*
X3100683Y1956997D01*
X3101306Y1957254D01*
X3101840Y1957665D01*
X3102250Y1958199D01*
X3102508Y1958822D01*
X3102596Y1959490D01*
X3102545Y1959879D01*
X3106190Y1963524D01*
X3106552Y1963330D01*
X3106487Y1963000D01*
X3106487Y1963000D01*
Y1926102D01*
X3100405Y1920020D01*
X3100015Y1920071D01*
X3099347Y1919983D01*
X3098724Y1919725D01*
X3098190Y1919315D01*
X3097780Y1918780D01*
X3097522Y1918158D01*
X3097507Y1918043D01*
X3095220Y1917040D01*
X3082164D01*
X3077640Y1921564D01*
X3077772Y1921736D01*
X3078030Y1922359D01*
X3078118Y1923027D01*
X3078030Y1923695D01*
X3077772Y1924317D01*
X3077362Y1924852D01*
X3077050Y1925091D01*
Y1940468D01*
X3077050Y1940468D01*
X3076935Y1941047D01*
X3076607Y1941538D01*
X3076607Y1941538D01*
X3073575Y1944570D01*
X3073084Y1944898D01*
X3072505Y1945013D01*
X3072505Y1945013D01*
X3039064D01*
X3038825Y1945325D01*
X3038291Y1945735D01*
X3037668Y1945993D01*
X3037000Y1946081D01*
X3036332Y1945993D01*
X3035709Y1945735D01*
X3035175Y1945325D01*
X3034765Y1944791D01*
X3034507Y1944168D01*
X3034419Y1943500D01*
X3034507Y1942832D01*
X3034765Y1942209D01*
X3035175Y1941675D01*
X3035709Y1941265D01*
X3036332Y1941007D01*
X3037000Y1940919D01*
X3037668Y1941007D01*
X3038291Y1941265D01*
X3038825Y1941675D01*
X3039064Y1941987D01*
X3049965D01*
X3050025Y1941911D01*
X3049961Y1941377D01*
X3049911Y1941339D01*
X3053239D01*
X3053188Y1941377D01*
X3053125Y1941911D01*
X3053184Y1941987D01*
X3071878D01*
X3074024Y1939841D01*
Y1925091D01*
X3073712Y1924852D01*
X3073302Y1924317D01*
X3073044Y1923695D01*
X3072956Y1923027D01*
X3073044Y1922359D01*
X3073302Y1921736D01*
X3073712Y1921202D01*
X3074240Y1920797D01*
X3074467Y1920457D01*
X3080467Y1914457D01*
X3080467Y1914457D01*
X3080958Y1914129D01*
X3081537Y1914013D01*
X3095537D01*
X3095552Y1914017D01*
X3095568Y1914014D01*
X3095841Y1914074D01*
X3096116Y1914129D01*
X3096129Y1914137D01*
X3096145Y1914141D01*
X3098710Y1915265D01*
X3098724Y1915254D01*
X3099347Y1914997D01*
X3100015Y1914909D01*
X3100683Y1914997D01*
X3101306Y1915254D01*
X3101840Y1915665D01*
X3102250Y1916199D01*
X3102508Y1916822D01*
X3102596Y1917490D01*
X3102545Y1917879D01*
X3109070Y1924405D01*
X3109070Y1924405D01*
X3109398Y1924896D01*
X3109513Y1925475D01*
Y1962373D01*
X3128070Y1980930D01*
X3128070Y1980930D01*
X3128398Y1981421D01*
X3128513Y1982000D01*
X3128513Y1982000D01*
Y2126873D01*
X3132123Y2130483D01*
X3132487Y2130332D01*
Y1960000D01*
X3132487Y1960000D01*
X3132602Y1959421D01*
X3132930Y1958930D01*
X3147430Y1944430D01*
X3147430Y1944430D01*
X3147921Y1944102D01*
X3148500Y1943987D01*
X3148500Y1943987D01*
X3149930D01*
X3150064Y1943593D01*
X3149692Y1943308D01*
X3149061Y1942485D01*
X3148664Y1941528D01*
X3148529Y1940500D01*
X3148664Y1939472D01*
X3149061Y1938515D01*
X3149692Y1937692D01*
X3150514Y1937061D01*
X3151472Y1936664D01*
X3152500Y1936529D01*
X3153528Y1936664D01*
X3154486Y1937061D01*
X3155308Y1937692D01*
X3155939Y1938515D01*
X3156336Y1939472D01*
X3156471Y1940500D01*
X3156336Y1941528D01*
X3155939Y1942485D01*
X3155308Y1943308D01*
X3154936Y1943593D01*
X3155070Y1943987D01*
X3156873D01*
X3158563Y1942297D01*
Y1936563D01*
X3166437D01*
Y1944437D01*
X3160703D01*
X3158570Y1946570D01*
X3158079Y1946898D01*
X3157500Y1947013D01*
X3157500Y1947013D01*
X3155070D01*
X3154936Y1947407D01*
X3155308Y1947692D01*
X3155939Y1948515D01*
X3156336Y1949472D01*
X3156471Y1950500D01*
X3156336Y1951528D01*
X3155939Y1952485D01*
X3155308Y1953308D01*
X3154936Y1953593D01*
X3155070Y1953987D01*
X3156873D01*
X3158860Y1952000D01*
X3158664Y1951528D01*
X3158529Y1950500D01*
X3158664Y1949472D01*
X3159061Y1948515D01*
X3159692Y1947692D01*
X3160514Y1947061D01*
X3161472Y1946664D01*
X3162500Y1946529D01*
X3163528Y1946664D01*
X3164486Y1947061D01*
X3165308Y1947692D01*
X3165939Y1948515D01*
X3166336Y1949472D01*
X3166471Y1950500D01*
X3166336Y1951528D01*
X3165939Y1952485D01*
X3165308Y1953308D01*
X3164486Y1953939D01*
X3163528Y1954336D01*
X3162500Y1954471D01*
X3161472Y1954336D01*
X3161000Y1954140D01*
X3158570Y1956570D01*
X3158079Y1956898D01*
X3157500Y1957013D01*
X3157500Y1957013D01*
X3155070D01*
X3154936Y1957407D01*
X3155308Y1957692D01*
X3155939Y1958515D01*
X3156336Y1959472D01*
X3156471Y1960500D01*
X3156336Y1961528D01*
X3155939Y1962486D01*
X3155308Y1963308D01*
X3154486Y1963939D01*
X3153528Y1964336D01*
X3152500Y1964471D01*
X3151472Y1964336D01*
X3150514Y1963939D01*
X3149692Y1963308D01*
X3149061Y1962486D01*
X3148664Y1961528D01*
X3148529Y1960500D01*
X3148664Y1959472D01*
X3149061Y1958515D01*
X3149692Y1957692D01*
X3149912Y1957523D01*
X3149803Y1957111D01*
X3149561Y1957079D01*
X3138513Y1968127D01*
Y2129803D01*
X3138593Y2129856D01*
X3138987Y2129646D01*
Y1980000D01*
X3138987Y1980000D01*
X3139102Y1979421D01*
X3139430Y1978930D01*
X3148631Y1969729D01*
X3148664Y1969472D01*
X3149061Y1968514D01*
X3149692Y1967692D01*
X3150514Y1967061D01*
X3151472Y1966664D01*
X3152500Y1966529D01*
X3153528Y1966664D01*
X3154486Y1967061D01*
X3155308Y1967692D01*
X3155939Y1968514D01*
X3156336Y1969472D01*
X3156471Y1970500D01*
X3156336Y1971528D01*
X3155939Y1972486D01*
X3155308Y1973308D01*
X3154486Y1973939D01*
X3153528Y1974336D01*
X3152500Y1974471D01*
X3151472Y1974336D01*
X3150514Y1973939D01*
X3149692Y1973308D01*
X3149354Y1973286D01*
X3142013Y1980627D01*
Y1988345D01*
X3142407Y1988464D01*
X3142430Y1988430D01*
X3148860Y1982000D01*
X3148664Y1981528D01*
X3148529Y1980500D01*
X3148664Y1979472D01*
X3149061Y1978514D01*
X3149692Y1977692D01*
X3150514Y1977061D01*
X3151472Y1976664D01*
X3152500Y1976529D01*
X3153528Y1976664D01*
X3154486Y1977061D01*
X3155308Y1977692D01*
X3155939Y1978514D01*
X3156336Y1979472D01*
X3156471Y1980500D01*
X3156336Y1981528D01*
X3155939Y1982486D01*
X3155308Y1983308D01*
X3154486Y1983939D01*
X3153528Y1984336D01*
X3152500Y1984471D01*
X3151472Y1984336D01*
X3151000Y1984140D01*
X3145013Y1990127D01*
Y2023864D01*
X3145407Y2023998D01*
X3145531Y2023836D01*
Y2025500D01*
Y2027164D01*
X3145407Y2027002D01*
X3145013Y2027136D01*
Y2129094D01*
X3155906Y2139987D01*
X3176500D01*
X3176500Y2139987D01*
X3177079Y2140102D01*
X3177570Y2140430D01*
X3187570Y2150430D01*
X3187570Y2150430D01*
X3187898Y2150921D01*
X3188013Y2151500D01*
X3188013Y2151500D01*
Y2167500D01*
X3187898Y2168079D01*
X3187570Y2168570D01*
X3187570Y2168570D01*
X3182070Y2174070D01*
X3181579Y2174398D01*
X3181000Y2174513D01*
X3181000Y2174513D01*
X3140500D01*
X3139921Y2174398D01*
X3139480Y2174104D01*
X3139286Y2174145D01*
X3139063Y2174260D01*
X3139009Y2174672D01*
X3138749Y2175299D01*
X3138336Y2175836D01*
X3137799Y2176249D01*
X3137172Y2176509D01*
X3136500Y2176597D01*
X3135828Y2176509D01*
X3135407Y2176334D01*
X3135013Y2176575D01*
Y2178873D01*
X3138127Y2181987D01*
X3178000D01*
X3178000Y2181987D01*
X3178579Y2182102D01*
X3179070Y2182430D01*
X3185570Y2188930D01*
X3185570Y2188930D01*
X3185898Y2189421D01*
X3186013Y2190000D01*
X3186013Y2190000D01*
Y2206500D01*
X3185898Y2207079D01*
X3185570Y2207570D01*
X3185570Y2207570D01*
X3179570Y2213570D01*
X3179079Y2213898D01*
X3178500Y2214013D01*
X3178500Y2214013D01*
X3165557D01*
X3165479Y2214407D01*
X3165799Y2214539D01*
X3166164Y2214820D01*
X3164500D01*
Y2218757D01*
X3166164D01*
X3165799Y2219037D01*
X3165172Y2219297D01*
X3164500Y2219386D01*
X3163828Y2219297D01*
X3163737Y2219259D01*
X3163311Y2219509D01*
X3163294Y2219654D01*
X3164627Y2220987D01*
X3171500D01*
X3171500Y2220987D01*
X3172079Y2221102D01*
X3172570Y2221430D01*
X3178570Y2227430D01*
X3178570Y2227430D01*
X3178898Y2227921D01*
X3179013Y2228500D01*
Y2239000D01*
X3178898Y2239579D01*
X3178570Y2240070D01*
X3178570Y2240070D01*
X3172570Y2246070D01*
X3172079Y2246398D01*
X3171500Y2246513D01*
X3171500Y2246513D01*
X3144500D01*
X3143921Y2246398D01*
X3143430Y2246070D01*
X3143430Y2246070D01*
X3141563Y2244203D01*
X3141384Y2244230D01*
X3141213Y2244655D01*
X3141249Y2244702D01*
X3141508Y2245328D01*
X3141597Y2246000D01*
X3141508Y2246672D01*
X3141249Y2247298D01*
X3140969Y2247664D01*
Y2246000D01*
X3137032D01*
Y2247664D01*
X3136907Y2247502D01*
X3136513Y2247636D01*
Y2260373D01*
X3141127Y2264987D01*
X3162500D01*
X3162500Y2264987D01*
X3163079Y2265102D01*
X3163570Y2265430D01*
X3167070Y2268930D01*
X3167070Y2268930D01*
X3167398Y2269421D01*
X3167513Y2270000D01*
X3167513Y2270000D01*
Y2270436D01*
X3167825Y2270675D01*
X3168235Y2271209D01*
X3168493Y2271832D01*
X3168581Y2272500D01*
X3168493Y2273168D01*
X3168235Y2273791D01*
X3167825Y2274325D01*
X3167291Y2274735D01*
X3166668Y2274993D01*
X3166000Y2275081D01*
X3165332Y2274993D01*
X3164709Y2274735D01*
X3164175Y2274325D01*
X3163765Y2273791D01*
X3163507Y2273168D01*
X3163419Y2272500D01*
X3163507Y2271832D01*
X3163765Y2271209D01*
X3164175Y2270675D01*
X3164197Y2270337D01*
X3161873Y2268013D01*
X3149013D01*
Y2269436D01*
X3149325Y2269675D01*
X3149735Y2270209D01*
X3149993Y2270832D01*
X3150081Y2271500D01*
X3149993Y2272168D01*
X3149817Y2272593D01*
X3150054Y2272987D01*
X3154873D01*
X3155470Y2272390D01*
X3155419Y2272000D01*
X3155507Y2271332D01*
X3155765Y2270709D01*
X3156175Y2270175D01*
X3156709Y2269765D01*
X3157332Y2269507D01*
X3158000Y2269419D01*
X3158668Y2269507D01*
X3159291Y2269765D01*
X3159825Y2270175D01*
X3160235Y2270709D01*
X3160493Y2271332D01*
X3160581Y2272000D01*
X3160493Y2272668D01*
X3160235Y2273291D01*
X3159825Y2273825D01*
X3159291Y2274235D01*
X3158668Y2274493D01*
X3158000Y2274581D01*
X3157610Y2274530D01*
X3156570Y2275570D01*
X3156536Y2275593D01*
X3156655Y2275987D01*
X3168373D01*
X3172470Y2271890D01*
X3172419Y2271500D01*
X3172507Y2270832D01*
X3172765Y2270209D01*
X3173175Y2269675D01*
X3173709Y2269265D01*
X3174332Y2269007D01*
X3175000Y2268919D01*
X3175668Y2269007D01*
X3176291Y2269265D01*
X3176825Y2269675D01*
X3177235Y2270209D01*
X3177493Y2270832D01*
X3177581Y2271500D01*
X3177493Y2272168D01*
X3177235Y2272791D01*
X3176825Y2273325D01*
X3176291Y2273735D01*
X3175668Y2273993D01*
X3175000Y2274081D01*
X3174610Y2274030D01*
X3170070Y2278570D01*
X3169579Y2278898D01*
X3169000Y2279013D01*
X3169000Y2279013D01*
X3102072D01*
X3101840Y2279315D01*
X3101306Y2279725D01*
X3100683Y2279983D01*
X3100015Y2280071D01*
D02*
G37*
G36*
X3245680Y2275230D02*
X3244921D01*
Y2274471D01*
X3245351Y2274801D01*
X3245680Y2275230D01*
D02*
G37*
G36*
X3240984D02*
X3240225D01*
X3240555Y2274801D01*
X3240984Y2274471D01*
Y2275230D01*
D02*
G37*
G36*
X3252953Y2265574D02*
X3252079Y2265459D01*
X3251265Y2265122D01*
X3250566Y2264586D01*
X3250030Y2263886D01*
X3249693Y2263073D01*
X3249577Y2262199D01*
X3249693Y2261325D01*
X3250030Y2260511D01*
X3250566Y2259812D01*
X3251265Y2259276D01*
X3252079Y2258939D01*
X3252953Y2258824D01*
X3253827Y2258939D01*
X3254641Y2259276D01*
X3255339Y2259812D01*
X3255876Y2260511D01*
X3256213Y2261325D01*
X3256328Y2262199D01*
X3256213Y2263073D01*
X3255876Y2263886D01*
X3255339Y2264586D01*
X3254641Y2265122D01*
X3253827Y2265459D01*
X3252953Y2265574D01*
D02*
G37*
G36*
X3240984Y2245230D02*
X3240225D01*
X3240555Y2244801D01*
X3240984Y2244472D01*
Y2245230D01*
D02*
G37*
G36*
X2975532Y2249032D02*
X2974037D01*
X2974047Y2249007D01*
X2974681Y2248181D01*
X2975507Y2247547D01*
X2975532Y2247537D01*
Y2249032D01*
D02*
G37*
G36*
X2980963D02*
X2979469D01*
Y2247537D01*
X2979493Y2247547D01*
X2980319Y2248181D01*
X2980953Y2249007D01*
X2980963Y2249032D01*
D02*
G37*
G36*
X3245680Y2245230D02*
X3244921D01*
Y2244471D01*
X3245351Y2244801D01*
X3245680Y2245230D01*
D02*
G37*
G36*
X2977500Y2244971D02*
X2976472Y2244836D01*
X2975514Y2244439D01*
X2974692Y2243808D01*
X2974061Y2242986D01*
X2973664Y2242028D01*
X2973529Y2241000D01*
X2973664Y2239972D01*
X2974061Y2239014D01*
X2974692Y2238192D01*
X2975514Y2237561D01*
X2976472Y2237164D01*
X2977500Y2237029D01*
X2978528Y2237164D01*
X2979486Y2237561D01*
X2980308Y2238192D01*
X2980939Y2239014D01*
X2981336Y2239972D01*
X2981471Y2241000D01*
X2981336Y2242028D01*
X2980939Y2242986D01*
X2980308Y2243808D01*
X2979486Y2244439D01*
X2978528Y2244836D01*
X2977500Y2244971D01*
D02*
G37*
G36*
X3252953Y2245574D02*
X3252079Y2245459D01*
X3251265Y2245122D01*
X3250566Y2244586D01*
X3250030Y2243887D01*
X3249693Y2243073D01*
X3249577Y2242199D01*
X3249693Y2241325D01*
X3250030Y2240511D01*
X3250566Y2239812D01*
X3251265Y2239276D01*
X3252079Y2238939D01*
X3252953Y2238824D01*
X3253827Y2238939D01*
X3254641Y2239276D01*
X3255339Y2239812D01*
X3255876Y2240511D01*
X3256213Y2241325D01*
X3256328Y2242199D01*
X3256213Y2243073D01*
X3255876Y2243887D01*
X3255339Y2244586D01*
X3254641Y2245122D01*
X3253827Y2245459D01*
X3252953Y2245574D01*
D02*
G37*
G36*
Y2255574D02*
X3252079Y2255459D01*
X3251265Y2255122D01*
X3250566Y2254586D01*
X3250030Y2253886D01*
X3249693Y2253073D01*
X3249577Y2252199D01*
X3249693Y2251325D01*
X3250030Y2250511D01*
X3250566Y2249812D01*
X3251265Y2249276D01*
X3252079Y2248939D01*
X3252953Y2248824D01*
X3253827Y2248939D01*
X3254641Y2249276D01*
X3255339Y2249812D01*
X3255876Y2250511D01*
X3256213Y2251325D01*
X3256328Y2252199D01*
X3256213Y2253073D01*
X3255876Y2253886D01*
X3255339Y2254586D01*
X3254641Y2255122D01*
X3253827Y2255459D01*
X3252953Y2255574D01*
D02*
G37*
G36*
X3245680Y2255231D02*
X3244921D01*
Y2254471D01*
X3245351Y2254801D01*
X3245680Y2255231D01*
D02*
G37*
G36*
X3240984D02*
X3240225D01*
X3240555Y2254801D01*
X3240984Y2254472D01*
Y2255231D01*
D02*
G37*
G36*
X2977500Y2264971D02*
X2976472Y2264836D01*
X2975514Y2264439D01*
X2974692Y2263808D01*
X2974061Y2262985D01*
X2973664Y2262028D01*
X2973529Y2261000D01*
X2973664Y2259972D01*
X2974061Y2259015D01*
X2974692Y2258192D01*
X2975514Y2257561D01*
X2976472Y2257164D01*
X2977500Y2257029D01*
X2978528Y2257164D01*
X2979486Y2257561D01*
X2980308Y2258192D01*
X2980939Y2259015D01*
X2981336Y2259972D01*
X2981471Y2261000D01*
X2981336Y2262028D01*
X2980939Y2262985D01*
X2980308Y2263808D01*
X2979486Y2264439D01*
X2978528Y2264836D01*
X2977500Y2264971D01*
D02*
G37*
G36*
X2979469Y2254463D02*
Y2252969D01*
X2980963D01*
X2980953Y2252993D01*
X2980319Y2253819D01*
X2979493Y2254453D01*
X2979469Y2254463D01*
D02*
G37*
G36*
X3240984Y2249926D02*
X3240555Y2249597D01*
X3240225Y2249167D01*
X3240984D01*
Y2249926D01*
D02*
G37*
G36*
X3244921Y2249926D02*
Y2249167D01*
X3245680D01*
X3245351Y2249597D01*
X3244921Y2249926D01*
D02*
G37*
G36*
X2975532Y2254463D02*
X2975507Y2254453D01*
X2974681Y2253819D01*
X2974047Y2252993D01*
X2974037Y2252969D01*
X2975532D01*
Y2254463D01*
D02*
G37*
G36*
X3288969Y1949463D02*
Y1947968D01*
X3290463D01*
X3290453Y1947993D01*
X3289819Y1948819D01*
X3288993Y1949453D01*
X3288969Y1949463D01*
D02*
G37*
G36*
X2976500Y2052971D02*
X2975472Y2052836D01*
X2974515Y2052439D01*
X2973692Y2051808D01*
X2973061Y2050986D01*
X2972664Y2050028D01*
X2972529Y2049000D01*
X2972664Y2047972D01*
X2973061Y2047014D01*
X2973692Y2046192D01*
X2974515Y2045561D01*
X2975472Y2045164D01*
X2976500Y2045029D01*
X2977528Y2045164D01*
X2978485Y2045561D01*
X2979308Y2046192D01*
X2979939Y2047014D01*
X2980336Y2047972D01*
X2980471Y2049000D01*
X2980336Y2050028D01*
X2979939Y2050986D01*
X2979308Y2051808D01*
X2978485Y2052439D01*
X2977528Y2052836D01*
X2976500Y2052971D01*
D02*
G37*
G36*
X3170500Y2058581D02*
X3169832Y2058493D01*
X3169209Y2058235D01*
X3168675Y2057825D01*
X3168265Y2057291D01*
X3168007Y2056668D01*
X3167919Y2056000D01*
X3168007Y2055332D01*
X3168265Y2054709D01*
X3168675Y2054175D01*
X3169209Y2053765D01*
X3169832Y2053507D01*
X3170500Y2053419D01*
X3171168Y2053507D01*
X3171791Y2053765D01*
X3172325Y2054175D01*
X3172564Y2054487D01*
X3179873D01*
X3180970Y2053390D01*
X3180919Y2053000D01*
X3181007Y2052332D01*
X3181265Y2051709D01*
X3181675Y2051175D01*
X3182209Y2050765D01*
X3182832Y2050507D01*
X3183500Y2050419D01*
X3184168Y2050507D01*
X3184791Y2050765D01*
X3185325Y2051175D01*
X3185735Y2051709D01*
X3185993Y2052332D01*
X3186081Y2053000D01*
X3185993Y2053668D01*
X3185735Y2054291D01*
X3185325Y2054825D01*
X3184791Y2055235D01*
X3184168Y2055493D01*
X3183500Y2055581D01*
X3183110Y2055530D01*
X3181570Y2057070D01*
X3181079Y2057398D01*
X3180500Y2057513D01*
X3180500Y2057513D01*
X3172564D01*
X3172325Y2057825D01*
X3171791Y2058235D01*
X3171168Y2058493D01*
X3170500Y2058581D01*
D02*
G37*
G36*
X2974531Y2037031D02*
X2973037D01*
X2973047Y2037007D01*
X2973681Y2036181D01*
X2974507Y2035547D01*
X2974531Y2035537D01*
Y2037031D01*
D02*
G37*
G36*
Y2042463D02*
X2974507Y2042453D01*
X2973681Y2041819D01*
X2973047Y2040993D01*
X2973037Y2040968D01*
X2974531D01*
Y2042463D01*
D02*
G37*
G36*
X2978468Y2042463D02*
Y2040968D01*
X2979963D01*
X2979953Y2040993D01*
X2979319Y2041819D01*
X2978493Y2042453D01*
X2978468Y2042463D01*
D02*
G37*
G36*
X3285032Y1949463D02*
X3285007Y1949453D01*
X3284181Y1948819D01*
X3283547Y1947993D01*
X3283537Y1947968D01*
X3285032D01*
Y1949463D01*
D02*
G37*
G36*
X2979963Y2091531D02*
X2978468D01*
Y2090037D01*
X2978493Y2090047D01*
X2979319Y2090681D01*
X2979953Y2091507D01*
X2979963Y2091531D01*
D02*
G37*
G36*
X2974531D02*
X2973037D01*
X2973047Y2091507D01*
X2973681Y2090681D01*
X2974507Y2090047D01*
X2974531Y2090037D01*
Y2091531D01*
D02*
G37*
G36*
X3290463Y1944032D02*
X3288969D01*
Y1942537D01*
X3288993Y1942547D01*
X3289819Y1943181D01*
X3290453Y1944007D01*
X3290463Y1944032D01*
D02*
G37*
G36*
X2980437Y2062937D02*
X2972563D01*
Y2055063D01*
X2980437D01*
Y2062937D01*
D02*
G37*
G36*
X3182437Y2069937D02*
X3174563D01*
Y2062063D01*
X3182437D01*
Y2069937D01*
D02*
G37*
G36*
X2979963Y2037031D02*
X2978468D01*
Y2035537D01*
X2978493Y2035547D01*
X2979319Y2036181D01*
X2979953Y2037007D01*
X2979963Y2037031D01*
D02*
G37*
G36*
X3288969Y1959463D02*
Y1957969D01*
X3290463D01*
X3290453Y1957993D01*
X3289819Y1958819D01*
X3288993Y1959453D01*
X3288969Y1959463D01*
D02*
G37*
G36*
X3287000Y1969971D02*
X3285972Y1969836D01*
X3285014Y1969439D01*
X3284192Y1968808D01*
X3283561Y1967986D01*
X3283164Y1967028D01*
X3283029Y1966000D01*
X3283164Y1964972D01*
X3283561Y1964014D01*
X3284192Y1963192D01*
X3285014Y1962561D01*
X3285972Y1962164D01*
X3287000Y1962029D01*
X3288028Y1962164D01*
X3288985Y1962561D01*
X3289808Y1963192D01*
X3290439Y1964014D01*
X3290836Y1964972D01*
X3290971Y1966000D01*
X3290836Y1967028D01*
X3290439Y1967986D01*
X3289808Y1968808D01*
X3288985Y1969439D01*
X3288028Y1969836D01*
X3287000Y1969971D01*
D02*
G37*
G36*
Y1979971D02*
X3285972Y1979836D01*
X3285014Y1979439D01*
X3284192Y1978808D01*
X3283561Y1977986D01*
X3283164Y1977028D01*
X3283029Y1976000D01*
X3283164Y1974972D01*
X3283561Y1974014D01*
X3284192Y1973192D01*
X3285014Y1972561D01*
X3285972Y1972164D01*
X3287000Y1972029D01*
X3288028Y1972164D01*
X3288985Y1972561D01*
X3289808Y1973192D01*
X3290439Y1974014D01*
X3290836Y1974972D01*
X3290971Y1976000D01*
X3290836Y1977028D01*
X3290439Y1977986D01*
X3289808Y1978808D01*
X3288985Y1979439D01*
X3288028Y1979836D01*
X3287000Y1979971D01*
D02*
G37*
G36*
X2980937Y1960437D02*
X2973063D01*
Y1952563D01*
X2980937D01*
Y1960437D01*
D02*
G37*
G36*
X3162500Y1984471D02*
X3161472Y1984336D01*
X3160514Y1983939D01*
X3159692Y1983308D01*
X3159061Y1982486D01*
X3158664Y1981528D01*
X3158529Y1980500D01*
X3158664Y1979472D01*
X3159061Y1978514D01*
X3159692Y1977692D01*
X3160514Y1977061D01*
X3160987Y1976866D01*
Y1974134D01*
X3160514Y1973939D01*
X3159692Y1973308D01*
X3159061Y1972486D01*
X3158664Y1971528D01*
X3158529Y1970500D01*
X3158664Y1969472D01*
X3159061Y1968514D01*
X3159692Y1967692D01*
X3160514Y1967061D01*
X3160987Y1966866D01*
Y1964134D01*
X3160514Y1963939D01*
X3159692Y1963308D01*
X3159061Y1962486D01*
X3158664Y1961528D01*
X3158529Y1960500D01*
X3158664Y1959472D01*
X3159061Y1958515D01*
X3159692Y1957692D01*
X3160514Y1957061D01*
X3161472Y1956664D01*
X3162500Y1956529D01*
X3163528Y1956664D01*
X3164486Y1957061D01*
X3165308Y1957692D01*
X3165939Y1958515D01*
X3166336Y1959472D01*
X3166471Y1960500D01*
X3166336Y1961528D01*
X3165939Y1962486D01*
X3165308Y1963308D01*
X3164486Y1963939D01*
X3164013Y1964134D01*
Y1966866D01*
X3164486Y1967061D01*
X3165308Y1967692D01*
X3165939Y1968514D01*
X3166336Y1969472D01*
X3166471Y1970500D01*
X3166336Y1971528D01*
X3165939Y1972486D01*
X3165308Y1973308D01*
X3164486Y1973939D01*
X3164013Y1974134D01*
Y1976866D01*
X3164486Y1977061D01*
X3165308Y1977692D01*
X3165939Y1978514D01*
X3166336Y1979472D01*
X3166471Y1980500D01*
X3166336Y1981528D01*
X3165939Y1982486D01*
X3165308Y1983308D01*
X3164486Y1983939D01*
X3163528Y1984336D01*
X3162500Y1984471D01*
D02*
G37*
G36*
X3285032Y1959463D02*
X3285007Y1959453D01*
X3284181Y1958819D01*
X3283547Y1957993D01*
X3283537Y1957969D01*
X3285032D01*
Y1959463D01*
D02*
G37*
G36*
X3287000Y1989971D02*
X3285972Y1989836D01*
X3285014Y1989439D01*
X3284192Y1988808D01*
X3283561Y1987985D01*
X3283164Y1987028D01*
X3283029Y1986000D01*
X3283164Y1984972D01*
X3283561Y1984015D01*
X3284192Y1983192D01*
X3285014Y1982561D01*
X3285972Y1982164D01*
X3287000Y1982029D01*
X3288028Y1982164D01*
X3288985Y1982561D01*
X3289808Y1983192D01*
X3290439Y1984015D01*
X3290836Y1984972D01*
X3290971Y1986000D01*
X3290836Y1987028D01*
X3290439Y1987985D01*
X3289808Y1988808D01*
X3288985Y1989439D01*
X3288028Y1989836D01*
X3287000Y1989971D01*
D02*
G37*
G36*
X3290463Y1954032D02*
X3288969D01*
Y1952537D01*
X3288993Y1952547D01*
X3289819Y1953181D01*
X3290453Y1954007D01*
X3290463Y1954032D01*
D02*
G37*
G36*
X2976500Y2032971D02*
X2975472Y2032836D01*
X2974515Y2032439D01*
X2973692Y2031808D01*
X2973061Y2030985D01*
X2972664Y2030028D01*
X2972529Y2029000D01*
X2972664Y2027972D01*
X2973061Y2027015D01*
X2973692Y2026192D01*
X2974515Y2025561D01*
X2975472Y2025164D01*
X2976500Y2025029D01*
X2977528Y2025164D01*
X2978485Y2025561D01*
X2979308Y2026192D01*
X2979939Y2027015D01*
X2980336Y2027972D01*
X2980471Y2029000D01*
X2980336Y2030028D01*
X2979939Y2030985D01*
X2979308Y2031808D01*
X2978485Y2032439D01*
X2977528Y2032836D01*
X2976500Y2032971D01*
D02*
G37*
G36*
X3285032Y1954032D02*
X3283537D01*
X3283547Y1954007D01*
X3284181Y1953181D01*
X3285007Y1952547D01*
X3285032Y1952537D01*
Y1954032D01*
D02*
G37*
G36*
X3287000Y1999971D02*
X3285972Y1999836D01*
X3285014Y1999439D01*
X3284192Y1998808D01*
X3283561Y1997985D01*
X3283164Y1997028D01*
X3283029Y1996000D01*
X3283164Y1994972D01*
X3283561Y1994015D01*
X3284192Y1993192D01*
X3285014Y1992561D01*
X3285972Y1992164D01*
X3287000Y1992029D01*
X3288028Y1992164D01*
X3288985Y1992561D01*
X3289808Y1993192D01*
X3290439Y1994015D01*
X3290836Y1994972D01*
X3290971Y1996000D01*
X3290836Y1997028D01*
X3290439Y1997985D01*
X3289808Y1998808D01*
X3288985Y1999439D01*
X3288028Y1999836D01*
X3287000Y1999971D01*
D02*
G37*
G36*
X3252953Y2095993D02*
X3252079Y2095878D01*
X3251265Y2095541D01*
X3250566Y2095005D01*
X3250030Y2094306D01*
X3249693Y2093492D01*
X3249577Y2092618D01*
X3249693Y2091744D01*
X3250030Y2090931D01*
X3250566Y2090231D01*
X3251265Y2089695D01*
X3251439Y2089623D01*
Y2082032D01*
X3251439Y2082031D01*
X3251554Y2081452D01*
X3251883Y2080961D01*
X3263914Y2068930D01*
X3264405Y2068602D01*
X3264984Y2068487D01*
X3264984Y2068487D01*
X3274373D01*
X3281987Y2060873D01*
Y2009500D01*
X3281987Y2009500D01*
X3282102Y2008921D01*
X3282430Y2008430D01*
X3283063Y2007797D01*
Y2002063D01*
X3290937D01*
Y2009937D01*
X3285203D01*
X3285013Y2010127D01*
Y2061500D01*
X3285013Y2061500D01*
X3284898Y2062079D01*
X3284570Y2062570D01*
X3284570Y2062570D01*
X3276070Y2071070D01*
X3275579Y2071398D01*
X3275000Y2071513D01*
X3275000Y2071513D01*
X3265611D01*
X3254466Y2082658D01*
Y2089623D01*
X3254641Y2089695D01*
X3255339Y2090231D01*
X3255876Y2090931D01*
X3256213Y2091744D01*
X3256328Y2092618D01*
X3256213Y2093492D01*
X3255876Y2094306D01*
X3255339Y2095005D01*
X3254641Y2095541D01*
X3253827Y2095878D01*
X3252953Y2095993D01*
D02*
G37*
G36*
X2976500Y2022971D02*
X2975472Y2022836D01*
X2974515Y2022439D01*
X2973692Y2021808D01*
X2973061Y2020985D01*
X2972664Y2020028D01*
X2972529Y2019000D01*
X2972664Y2017972D01*
X2973061Y2017015D01*
X2973692Y2016192D01*
X2974515Y2015561D01*
X2975472Y2015164D01*
X2976500Y2015029D01*
X2977528Y2015164D01*
X2978485Y2015561D01*
X2979308Y2016192D01*
X2979939Y2017015D01*
X2980336Y2017972D01*
X2980471Y2019000D01*
X2980336Y2020028D01*
X2979939Y2020985D01*
X2979308Y2021808D01*
X2978485Y2022439D01*
X2977528Y2022836D01*
X2976500Y2022971D01*
D02*
G37*
G36*
X2977000Y2135546D02*
X2975972Y2135410D01*
X2975014Y2135014D01*
X2974192Y2134383D01*
X2973561Y2133560D01*
X2973164Y2132603D01*
X2973029Y2131575D01*
X2973164Y2130547D01*
X2973561Y2129589D01*
X2974192Y2128767D01*
X2975014Y2128136D01*
X2975972Y2127739D01*
X2977000Y2127604D01*
X2978028Y2127739D01*
X2978985Y2128136D01*
X2979808Y2128767D01*
X2980439Y2129589D01*
X2980836Y2130547D01*
X2980971Y2131575D01*
X2980836Y2132603D01*
X2980439Y2133560D01*
X2979808Y2134383D01*
X2978985Y2135014D01*
X2978028Y2135410D01*
X2977000Y2135546D01*
D02*
G37*
G36*
X3240984Y2130346D02*
X3240555Y2130016D01*
X3240225Y2129587D01*
X3240984D01*
Y2130346D01*
D02*
G37*
G36*
X3244921Y2130346D02*
Y2129587D01*
X3245680D01*
X3245351Y2130016D01*
X3244921Y2130346D01*
D02*
G37*
G36*
X3245680Y2125650D02*
X3244921D01*
Y2124891D01*
X3245351Y2125220D01*
X3245680Y2125650D01*
D02*
G37*
G36*
X3240984D02*
X3240225D01*
X3240555Y2125220D01*
X3240984Y2124891D01*
Y2125650D01*
D02*
G37*
G36*
X3285032Y1944032D02*
X3283537D01*
X3283547Y1944007D01*
X3284181Y1943181D01*
X3285007Y1942547D01*
X3285032Y1942537D01*
Y1944032D01*
D02*
G37*
G36*
X3176929Y2134584D02*
X3176929Y2134584D01*
X3153543D01*
X3153543Y2134584D01*
X3152964Y2134469D01*
X3152473Y2134141D01*
X3152473Y2134141D01*
X3152010Y2133678D01*
X3151969Y2133684D01*
X3151300Y2133595D01*
X3150678Y2133338D01*
X3150143Y2132928D01*
X3149733Y2132393D01*
X3149475Y2131770D01*
X3149387Y2131102D01*
X3149393Y2131061D01*
X3147430Y2129098D01*
X3147102Y2128607D01*
X3146987Y2128028D01*
X3146987Y2128028D01*
Y2095564D01*
X3146675Y2095325D01*
X3146265Y2094791D01*
X3146007Y2094168D01*
X3145919Y2093500D01*
X3146007Y2092832D01*
X3146265Y2092209D01*
X3146675Y2091675D01*
X3147209Y2091265D01*
X3147832Y2091007D01*
X3148500Y2090919D01*
X3149168Y2091007D01*
X3149791Y2091265D01*
X3150325Y2091675D01*
X3150735Y2092209D01*
X3150993Y2092832D01*
X3151081Y2093500D01*
X3150993Y2094168D01*
X3150735Y2094791D01*
X3150325Y2095325D01*
X3150013Y2095564D01*
Y2127401D01*
X3151245Y2128632D01*
X3151300Y2128609D01*
X3151969Y2128521D01*
X3152637Y2128609D01*
X3153259Y2128867D01*
X3153794Y2129277D01*
X3154204Y2129812D01*
X3154462Y2130434D01*
X3154550Y2131102D01*
X3154529Y2131261D01*
X3154788Y2131557D01*
X3168357D01*
X3168551Y2131164D01*
X3168265Y2130791D01*
X3168007Y2130168D01*
X3167919Y2129500D01*
X3168007Y2128832D01*
X3168265Y2128209D01*
X3168675Y2127675D01*
X3168987Y2127436D01*
Y2091500D01*
X3168987Y2091500D01*
X3169102Y2090921D01*
X3169430Y2090430D01*
X3171430Y2088430D01*
X3171430Y2088430D01*
X3171921Y2088102D01*
X3172500Y2087987D01*
X3172500Y2087987D01*
X3184873D01*
X3211430Y2061430D01*
X3211430Y2061430D01*
X3211921Y2061102D01*
X3212500Y2060987D01*
X3212500Y2060987D01*
X3269373D01*
X3274117Y2056243D01*
Y1940782D01*
X3273753Y1940631D01*
X3272648Y1941736D01*
X3272699Y1942126D01*
X3272611Y1942794D01*
X3272353Y1943416D01*
X3271943Y1943951D01*
X3271631Y1944190D01*
Y1947500D01*
X3271632Y1947500D01*
X3271631Y1947500D01*
Y1948991D01*
X3272570Y1949930D01*
X3272570Y1949930D01*
X3272898Y1950421D01*
X3273013Y1951000D01*
X3273013Y1951000D01*
Y2052217D01*
X3272898Y2052796D01*
X3272570Y2053287D01*
X3272570Y2053287D01*
X3270839Y2055018D01*
X3270952Y2055292D01*
X3271074Y2056216D01*
X3270952Y2057141D01*
X3270595Y2058003D01*
X3270027Y2058744D01*
X3269287Y2059312D01*
X3268425Y2059669D01*
X3267500Y2059790D01*
X3266575Y2059669D01*
X3265713Y2059312D01*
X3264973Y2058744D01*
X3264405Y2058003D01*
X3264048Y2057141D01*
X3263926Y2056216D01*
X3264048Y2055292D01*
X3264405Y2054430D01*
X3264973Y2053689D01*
X3265713Y2053122D01*
X3266575Y2052764D01*
X3267500Y2052643D01*
X3268425Y2052764D01*
X3268699Y2052878D01*
X3269987Y2051590D01*
Y2041503D01*
X3269633Y2041329D01*
X3269287Y2041595D01*
X3268425Y2041952D01*
X3267500Y2042074D01*
X3266575Y2041952D01*
X3265713Y2041595D01*
X3264973Y2041027D01*
X3264405Y2040287D01*
X3264048Y2039425D01*
X3263926Y2038500D01*
X3264048Y2037575D01*
X3264405Y2036713D01*
X3264973Y2035973D01*
X3265713Y2035405D01*
X3266575Y2035048D01*
X3267500Y2034926D01*
X3268425Y2035048D01*
X3269287Y2035405D01*
X3269633Y2035671D01*
X3269987Y2035497D01*
Y1972557D01*
X3269593Y1972531D01*
X3269508Y1973172D01*
X3269249Y1973799D01*
X3268969Y1974164D01*
Y1972500D01*
Y1970836D01*
X3269249Y1971202D01*
X3269508Y1971828D01*
X3269593Y1972469D01*
X3269987Y1972443D01*
Y1951627D01*
X3269057Y1950697D01*
X3268579Y1951016D01*
X3268000Y1951131D01*
X3268000Y1951131D01*
X3231796D01*
X3228632Y1954295D01*
X3228683Y1954685D01*
X3228595Y1955353D01*
X3228338Y1955976D01*
X3227927Y1956510D01*
X3227393Y1956920D01*
X3226770Y1957178D01*
X3226102Y1957266D01*
X3225434Y1957178D01*
X3224812Y1956920D01*
X3224277Y1956510D01*
X3223867Y1955976D01*
X3223678Y1955519D01*
X3223245Y1955395D01*
X3222379Y1956262D01*
X3234603Y1968487D01*
X3235435D01*
X3235675Y1968175D01*
X3236209Y1967765D01*
X3236832Y1967507D01*
X3237500Y1967419D01*
X3238168Y1967507D01*
X3238791Y1967765D01*
X3239325Y1968175D01*
X3239735Y1968709D01*
X3239993Y1969332D01*
X3240081Y1970000D01*
X3239993Y1970668D01*
X3239735Y1971291D01*
X3239325Y1971825D01*
X3238791Y1972235D01*
X3238168Y1972493D01*
X3237500Y1972581D01*
X3236832Y1972493D01*
X3236209Y1972235D01*
X3235675Y1971825D01*
X3235435Y1971513D01*
X3233976D01*
X3233976Y1971513D01*
X3233397Y1971398D01*
X3232906Y1971070D01*
X3216349Y1954513D01*
X3210127D01*
X3207983Y1956658D01*
X3207492Y1956986D01*
X3206912Y1957101D01*
X3206912Y1957101D01*
X3195064D01*
X3194825Y1957413D01*
X3194291Y1957823D01*
X3193668Y1958081D01*
X3193000Y1958169D01*
X3192332Y1958081D01*
X3191709Y1957823D01*
X3191175Y1957413D01*
X3190765Y1956878D01*
X3190507Y1956256D01*
X3190419Y1955588D01*
X3190507Y1954920D01*
X3190765Y1954297D01*
X3191175Y1953762D01*
X3191638Y1953407D01*
X3191587Y1953116D01*
X3191534Y1953013D01*
X3189127D01*
X3187513Y1954627D01*
Y1970373D01*
X3190837Y1973697D01*
X3191175Y1973675D01*
X3191709Y1973265D01*
X3192332Y1973007D01*
X3193000Y1972919D01*
X3193668Y1973007D01*
X3194291Y1973265D01*
X3194825Y1973675D01*
X3195064Y1973987D01*
X3227500D01*
X3227500Y1973987D01*
X3228079Y1974102D01*
X3228570Y1974430D01*
X3233127Y1978987D01*
X3242873D01*
X3244559Y1977301D01*
X3244507Y1976912D01*
X3244595Y1976244D01*
X3244853Y1975621D01*
X3245263Y1975087D01*
X3245798Y1974676D01*
X3246420Y1974418D01*
X3247088Y1974331D01*
X3247757Y1974418D01*
X3248379Y1974676D01*
X3248914Y1975087D01*
X3249324Y1975621D01*
X3249582Y1976244D01*
X3249670Y1976912D01*
X3249582Y1977580D01*
X3249324Y1978202D01*
X3248914Y1978737D01*
X3248379Y1979147D01*
X3247757Y1979405D01*
X3247088Y1979493D01*
X3246699Y1979441D01*
X3244570Y1981570D01*
X3244079Y1981898D01*
X3243500Y1982013D01*
X3243500Y1982013D01*
X3232500D01*
X3232500Y1982013D01*
X3231921Y1981898D01*
X3231430Y1981570D01*
X3231430Y1981570D01*
X3226873Y1977013D01*
X3195064D01*
X3194825Y1977325D01*
X3194291Y1977735D01*
X3193668Y1977993D01*
X3193000Y1978081D01*
X3192332Y1977993D01*
X3191709Y1977735D01*
X3191175Y1977325D01*
X3190936Y1977013D01*
X3190500D01*
X3190500Y1977013D01*
X3189921Y1976898D01*
X3189430Y1976570D01*
X3184930Y1972070D01*
X3184602Y1971579D01*
X3184487Y1971000D01*
X3184487Y1971000D01*
Y1954000D01*
X3184487Y1954000D01*
X3184602Y1953421D01*
X3184930Y1952930D01*
X3187430Y1950430D01*
X3187430Y1950430D01*
X3187921Y1950102D01*
X3188500Y1949987D01*
X3192463D01*
X3192489Y1949593D01*
X3192128Y1949546D01*
X3191502Y1949286D01*
X3191136Y1949006D01*
X3194465D01*
X3194099Y1949286D01*
X3193473Y1949546D01*
X3193113Y1949593D01*
X3193138Y1949987D01*
X3196873D01*
X3203430Y1943430D01*
X3203430Y1943430D01*
X3203921Y1943102D01*
X3204500Y1942987D01*
X3221873D01*
X3223014Y1941846D01*
Y1940332D01*
X3222702Y1940093D01*
X3222292Y1939558D01*
X3222034Y1938936D01*
X3221946Y1938268D01*
X3222034Y1937600D01*
X3222292Y1936977D01*
X3222702Y1936443D01*
X3223237Y1936032D01*
X3223859Y1935774D01*
X3224528Y1935687D01*
X3225196Y1935774D01*
X3225818Y1936032D01*
X3226353Y1936443D01*
X3226763Y1936977D01*
X3227021Y1937600D01*
X3227109Y1938268D01*
X3227021Y1938936D01*
X3226763Y1939558D01*
X3226353Y1940093D01*
X3226041Y1940332D01*
Y1942472D01*
X3225926Y1943052D01*
X3225598Y1943542D01*
X3225598Y1943543D01*
X3223570Y1945570D01*
X3223079Y1945898D01*
X3222500Y1946013D01*
X3222500Y1946013D01*
X3205127D01*
X3198570Y1952570D01*
X3198079Y1952898D01*
X3197500Y1953013D01*
X3197500Y1953013D01*
X3194466D01*
X3194413Y1953116D01*
X3194362Y1953407D01*
X3194825Y1953762D01*
X3195064Y1954074D01*
X3206285D01*
X3208430Y1951930D01*
X3208430Y1951930D01*
X3208921Y1951602D01*
X3209500Y1951487D01*
X3216976D01*
X3216977Y1951487D01*
X3217556Y1951602D01*
X3218047Y1951930D01*
X3220238Y1954122D01*
X3231430Y1942930D01*
X3231921Y1942602D01*
X3232500Y1942487D01*
X3232500Y1942487D01*
X3257178D01*
X3264755Y1934910D01*
X3264755Y1934910D01*
X3265246Y1934582D01*
X3265825Y1934467D01*
X3265825Y1934467D01*
X3267732D01*
X3267971Y1934155D01*
X3268387Y1933836D01*
X3268254Y1933442D01*
X3227104D01*
X3226865Y1933754D01*
X3226330Y1934164D01*
X3225707Y1934422D01*
X3225039Y1934510D01*
X3224371Y1934422D01*
X3223749Y1934164D01*
X3223214Y1933754D01*
X3222804Y1933220D01*
X3222546Y1932597D01*
X3222458Y1931929D01*
X3222546Y1931261D01*
X3222804Y1930639D01*
X3223214Y1930104D01*
X3223471Y1929907D01*
X3223337Y1929513D01*
X3220627D01*
X3213070Y1937070D01*
X3212579Y1937398D01*
X3212000Y1937513D01*
X3212000Y1937513D01*
X3194564D01*
X3194325Y1937825D01*
X3193791Y1938235D01*
X3193168Y1938493D01*
X3192500Y1938581D01*
X3191832Y1938493D01*
X3191209Y1938235D01*
X3190675Y1937825D01*
X3190265Y1937291D01*
X3190007Y1936668D01*
X3189919Y1936000D01*
X3190007Y1935332D01*
X3190265Y1934709D01*
X3190675Y1934175D01*
X3191209Y1933765D01*
X3191832Y1933507D01*
X3192500Y1933419D01*
X3193168Y1933507D01*
X3193791Y1933765D01*
X3194325Y1934175D01*
X3194564Y1934487D01*
X3211373D01*
X3218930Y1926930D01*
X3218930Y1926930D01*
X3219421Y1926602D01*
X3220000Y1926487D01*
X3220000Y1926487D01*
X3221850D01*
X3221994Y1926093D01*
X3221662Y1925661D01*
X3221601Y1925513D01*
X3195038D01*
X3194819Y1925907D01*
X3195008Y1926365D01*
X3195097Y1927037D01*
X3195008Y1927709D01*
X3194749Y1928336D01*
X3194468Y1928701D01*
Y1927037D01*
X3190532D01*
Y1928701D01*
X3190251Y1928336D01*
X3189992Y1927709D01*
X3189903Y1927037D01*
X3189992Y1926365D01*
X3190181Y1925907D01*
X3189962Y1925513D01*
X3188127D01*
X3180013Y1933627D01*
Y1979873D01*
X3192335Y1992195D01*
X3193000Y1992108D01*
X3193390Y1992159D01*
X3202619Y1982930D01*
X3202619Y1982930D01*
X3203110Y1982602D01*
X3203689Y1982487D01*
X3203689Y1982487D01*
X3229000D01*
X3229000Y1982487D01*
X3229579Y1982602D01*
X3230070Y1982930D01*
X3231627Y1984487D01*
X3247550D01*
X3254559Y1977478D01*
X3254507Y1977088D01*
X3254595Y1976420D01*
X3254853Y1975798D01*
X3255263Y1975263D01*
X3255798Y1974853D01*
X3256420Y1974595D01*
X3257088Y1974507D01*
X3257756Y1974595D01*
X3258379Y1974853D01*
X3258913Y1975263D01*
X3259324Y1975798D01*
X3259582Y1976420D01*
X3259669Y1977088D01*
X3259582Y1977756D01*
X3259324Y1978379D01*
X3258913Y1978913D01*
X3258379Y1979324D01*
X3257756Y1979582D01*
X3257088Y1979670D01*
X3256699Y1979618D01*
X3249247Y1987070D01*
X3248756Y1987398D01*
X3248177Y1987513D01*
X3248177Y1987513D01*
X3231000D01*
X3231000Y1987513D01*
X3230421Y1987398D01*
X3230307Y1987442D01*
X3230049Y1987623D01*
X3229971Y1988209D01*
X3229712Y1988836D01*
X3229432Y1989201D01*
Y1987537D01*
X3227463D01*
Y1985568D01*
X3225301D01*
X3225274Y1985513D01*
X3204316D01*
X3195530Y1994299D01*
X3195581Y1994689D01*
X3195493Y1995357D01*
X3195235Y1995979D01*
X3194825Y1996514D01*
X3194291Y1996924D01*
X3193668Y1997182D01*
X3193000Y1997270D01*
X3192332Y1997182D01*
X3191709Y1996924D01*
X3191175Y1996514D01*
X3190765Y1995979D01*
X3190507Y1995357D01*
X3190419Y1994689D01*
X3190434Y1994574D01*
X3177430Y1981570D01*
X3177102Y1981079D01*
X3176987Y1980500D01*
X3176987Y1980500D01*
Y1933000D01*
X3176987Y1933000D01*
X3177102Y1932421D01*
X3177430Y1931930D01*
X3186430Y1922930D01*
X3186430Y1922930D01*
X3186464Y1922907D01*
X3186345Y1922513D01*
X3178127D01*
X3175513Y1925127D01*
Y1990373D01*
X3184127Y1998987D01*
X3237500D01*
X3237500Y1998987D01*
X3238079Y1999102D01*
X3238570Y1999430D01*
X3243158Y2004018D01*
X3243158Y2004018D01*
X3243486Y2004509D01*
X3243602Y2005088D01*
Y2011847D01*
X3243914Y2012086D01*
X3244324Y2012621D01*
X3244582Y2013244D01*
X3244669Y2013912D01*
X3244582Y2014580D01*
X3244324Y2015202D01*
X3243914Y2015737D01*
X3243379Y2016147D01*
X3242756Y2016405D01*
X3242088Y2016493D01*
X3241420Y2016405D01*
X3240798Y2016147D01*
X3240263Y2015737D01*
X3239853Y2015202D01*
X3239595Y2014580D01*
X3239507Y2013912D01*
X3239595Y2013244D01*
X3239853Y2012621D01*
X3240263Y2012086D01*
X3240575Y2011847D01*
Y2005715D01*
X3236873Y2002013D01*
X3183500D01*
X3183500Y2002013D01*
X3182921Y2001898D01*
X3182430Y2001570D01*
X3172930Y1992070D01*
X3172602Y1991579D01*
X3172487Y1991000D01*
X3172487Y1991000D01*
Y1924500D01*
X3172487Y1924500D01*
X3172602Y1923921D01*
X3172930Y1923430D01*
X3176430Y1919930D01*
X3176430Y1919930D01*
X3176921Y1919602D01*
X3177500Y1919487D01*
X3177500Y1919487D01*
X3222339D01*
X3222389Y1919274D01*
X3224305D01*
Y1917305D01*
X3226274D01*
Y1915641D01*
X3226554Y1916007D01*
X3226814Y1916633D01*
X3226855Y1916948D01*
X3227271Y1917089D01*
X3227430Y1916930D01*
X3227921Y1916602D01*
X3228500Y1916487D01*
X3228500Y1916487D01*
X3263873D01*
X3264225Y1916135D01*
X3264225Y1916135D01*
X3264716Y1915807D01*
X3265295Y1915691D01*
X3265295Y1915691D01*
X3269707D01*
X3269947Y1915380D01*
X3270481Y1914969D01*
X3270864Y1914811D01*
X3270958Y1914348D01*
X3239226Y1882616D01*
X3018110D01*
X3018110Y1882616D01*
X3017531Y1882500D01*
X3017040Y1882173D01*
X3017040Y1882172D01*
X3012201Y1877333D01*
X3011811Y1877384D01*
X3011143Y1877296D01*
X3010521Y1877039D01*
X3009986Y1876628D01*
X3009576Y1876094D01*
X3009318Y1875471D01*
X3009230Y1874803D01*
X3009318Y1874135D01*
X3009576Y1873513D01*
X3009986Y1872978D01*
X3010521Y1872568D01*
X3011143Y1872310D01*
X3011811Y1872222D01*
X3012479Y1872310D01*
X3013102Y1872568D01*
X3013636Y1872978D01*
X3014046Y1873513D01*
X3014304Y1874135D01*
X3014392Y1874803D01*
X3014341Y1875193D01*
X3018737Y1879589D01*
X3101927D01*
X3102019Y1879385D01*
X3102035Y1879195D01*
X3101553Y1878825D01*
X3101143Y1878291D01*
X3100885Y1877668D01*
X3100797Y1877000D01*
X3100885Y1876332D01*
X3101143Y1875709D01*
X3101553Y1875175D01*
X3102087Y1874765D01*
X3102710Y1874507D01*
X3103378Y1874419D01*
X3104046Y1874507D01*
X3104668Y1874765D01*
X3105203Y1875175D01*
X3105442Y1875487D01*
X3240500D01*
X3240500Y1875487D01*
X3241079Y1875602D01*
X3241570Y1875930D01*
X3278629Y1912989D01*
X3278629Y1912989D01*
X3278957Y1913480D01*
X3279073Y1914059D01*
X3279073Y1914059D01*
Y2060441D01*
X3278957Y2061020D01*
X3278629Y2061511D01*
X3273570Y2066570D01*
X3273079Y2066898D01*
X3272500Y2067013D01*
X3272500Y2067013D01*
X3214627D01*
X3188011Y2093629D01*
X3187520Y2093957D01*
X3186941Y2094072D01*
X3186941Y2094072D01*
X3175608D01*
X3175368Y2094384D01*
X3174834Y2094794D01*
X3174211Y2095052D01*
X3173543Y2095140D01*
X3172875Y2095052D01*
X3172407Y2094858D01*
X3172013Y2095069D01*
Y2127436D01*
X3172325Y2127675D01*
X3172735Y2128209D01*
X3172993Y2128832D01*
X3173081Y2129500D01*
X3172993Y2130168D01*
X3172735Y2130791D01*
X3172449Y2131164D01*
X3172643Y2131557D01*
X3176302D01*
X3178970Y2128890D01*
X3178919Y2128500D01*
X3179007Y2127832D01*
X3179265Y2127209D01*
X3179675Y2126675D01*
X3180209Y2126265D01*
X3180832Y2126007D01*
X3181500Y2125919D01*
X3182168Y2126007D01*
X3182791Y2126265D01*
X3183325Y2126675D01*
X3183735Y2127209D01*
X3183993Y2127832D01*
X3184081Y2128500D01*
X3183993Y2129168D01*
X3183735Y2129791D01*
X3183325Y2130325D01*
X3182791Y2130735D01*
X3182168Y2130993D01*
X3181500Y2131081D01*
X3181110Y2131030D01*
X3177999Y2134141D01*
X3177508Y2134469D01*
X3177412Y2134488D01*
X3176929Y2134584D01*
D02*
G37*
G36*
X2977000Y2145546D02*
X2975972Y2145411D01*
X2975014Y2145014D01*
X2974192Y2144383D01*
X2973561Y2143560D01*
X2973164Y2142603D01*
X2973029Y2141575D01*
X2973164Y2140547D01*
X2973561Y2139589D01*
X2974192Y2138767D01*
X2975014Y2138136D01*
X2975972Y2137739D01*
X2977000Y2137604D01*
X2978028Y2137739D01*
X2978985Y2138136D01*
X2979808Y2138767D01*
X2980439Y2139589D01*
X2980836Y2140547D01*
X2980971Y2141575D01*
X2980836Y2142603D01*
X2980439Y2143560D01*
X2979808Y2144383D01*
X2978985Y2145014D01*
X2978028Y2145411D01*
X2977000Y2145546D01*
D02*
G37*
G36*
Y1950471D02*
X2975972Y1950336D01*
X2975014Y1949939D01*
X2974192Y1949308D01*
X2973561Y1948486D01*
X2973164Y1947528D01*
X2973029Y1946500D01*
X2973164Y1945472D01*
X2973561Y1944514D01*
X2974192Y1943692D01*
X2975014Y1943061D01*
X2975972Y1942664D01*
X2977000Y1942529D01*
X2978028Y1942664D01*
X2978985Y1943061D01*
X2979808Y1943692D01*
X2980439Y1944514D01*
X2980836Y1945472D01*
X2980971Y1946500D01*
X2980836Y1947528D01*
X2980439Y1948486D01*
X2979808Y1949308D01*
X2978985Y1949939D01*
X2978028Y1950336D01*
X2977000Y1950471D01*
D02*
G37*
G36*
X2978968Y1939963D02*
Y1938469D01*
X2980463D01*
X2980453Y1938493D01*
X2979819Y1939319D01*
X2978993Y1939953D01*
X2978968Y1939963D01*
D02*
G37*
G36*
X2975031D02*
X2975007Y1939953D01*
X2974181Y1939319D01*
X2973547Y1938493D01*
X2973537Y1938469D01*
X2975031D01*
Y1939963D01*
D02*
G37*
G36*
X3252953Y2125994D02*
X3252079Y2125879D01*
X3251265Y2125541D01*
X3250566Y2125005D01*
X3250030Y2124306D01*
X3249693Y2123492D01*
X3249577Y2122618D01*
X3249693Y2121745D01*
X3250030Y2120930D01*
X3250566Y2120231D01*
X3251265Y2119695D01*
X3252079Y2119358D01*
X3252953Y2119243D01*
X3253827Y2119358D01*
X3254641Y2119695D01*
X3255339Y2120231D01*
X3255876Y2120930D01*
X3256213Y2121745D01*
X3256328Y2122618D01*
X3256213Y2123492D01*
X3255876Y2124306D01*
X3255339Y2125005D01*
X3254641Y2125541D01*
X3253827Y2125879D01*
X3252953Y2125994D01*
D02*
G37*
G36*
X2974531Y2096963D02*
X2974507Y2096953D01*
X2973681Y2096319D01*
X2973047Y2095493D01*
X2973037Y2095468D01*
X2974531D01*
Y2096963D01*
D02*
G37*
G36*
X2978468Y2096963D02*
Y2095468D01*
X2979963D01*
X2979953Y2095493D01*
X2979319Y2096319D01*
X2978493Y2096953D01*
X2978468Y2096963D01*
D02*
G37*
G36*
X3242953Y2100994D02*
X3242079Y2100879D01*
X3241265Y2100541D01*
X3240566Y2100005D01*
X3240030Y2099306D01*
X3239692Y2098492D01*
X3239577Y2097618D01*
X3239692Y2096745D01*
X3240030Y2095930D01*
X3240566Y2095231D01*
X3241265Y2094695D01*
X3242079Y2094358D01*
X3242953Y2094243D01*
X3243826Y2094358D01*
X3244640Y2094695D01*
X3245340Y2095231D01*
X3245876Y2095930D01*
X3246213Y2096745D01*
X3246328Y2097618D01*
X3246213Y2098492D01*
X3245876Y2099306D01*
X3245340Y2100005D01*
X3244640Y2100541D01*
X3243826Y2100879D01*
X3242953Y2100994D01*
D02*
G37*
G36*
X3157500Y2130581D02*
X3156832Y2130493D01*
X3156209Y2130235D01*
X3155675Y2129825D01*
X3155265Y2129291D01*
X3155007Y2128668D01*
X3154919Y2128000D01*
X3155007Y2127332D01*
X3155265Y2126709D01*
X3155675Y2126175D01*
X3155987Y2125936D01*
Y2099000D01*
X3155987Y2099000D01*
X3156102Y2098421D01*
X3156430Y2097930D01*
X3160970Y2093390D01*
X3160919Y2093000D01*
X3160970Y2092610D01*
X3159930Y2091570D01*
X3159602Y2091079D01*
X3159487Y2090500D01*
X3159487Y2090500D01*
Y2073500D01*
X3159487Y2073500D01*
X3159602Y2072921D01*
X3159930Y2072430D01*
X3164860Y2067500D01*
X3164664Y2067028D01*
X3164529Y2066000D01*
X3164664Y2064972D01*
X3165061Y2064014D01*
X3165692Y2063192D01*
X3166515Y2062561D01*
X3167472Y2062164D01*
X3168500Y2062029D01*
X3169528Y2062164D01*
X3170485Y2062561D01*
X3171308Y2063192D01*
X3171939Y2064014D01*
X3172336Y2064972D01*
X3172471Y2066000D01*
X3172336Y2067028D01*
X3171939Y2067986D01*
X3171308Y2068808D01*
X3170485Y2069439D01*
X3169528Y2069836D01*
X3168500Y2069971D01*
X3167472Y2069836D01*
X3167000Y2069640D01*
X3162513Y2074127D01*
Y2089873D01*
X3163110Y2090470D01*
X3163500Y2090419D01*
X3164168Y2090507D01*
X3164791Y2090765D01*
X3165325Y2091175D01*
X3165735Y2091709D01*
X3165993Y2092332D01*
X3166081Y2093000D01*
X3165993Y2093668D01*
X3165735Y2094291D01*
X3165325Y2094825D01*
X3164791Y2095235D01*
X3164168Y2095493D01*
X3163500Y2095581D01*
X3163110Y2095530D01*
X3159013Y2099627D01*
Y2125936D01*
X3159325Y2126175D01*
X3159735Y2126709D01*
X3159993Y2127332D01*
X3160081Y2128000D01*
X3159993Y2128668D01*
X3159735Y2129291D01*
X3159325Y2129825D01*
X3158791Y2130235D01*
X3158168Y2130493D01*
X3157500Y2130581D01*
D02*
G37*
G36*
X2976500Y2107471D02*
X2975472Y2107336D01*
X2974515Y2106939D01*
X2973692Y2106308D01*
X2973061Y2105486D01*
X2972664Y2104528D01*
X2972529Y2103500D01*
X2972664Y2102472D01*
X2973061Y2101514D01*
X2973692Y2100692D01*
X2974515Y2100061D01*
X2975472Y2099664D01*
X2976500Y2099529D01*
X2977528Y2099664D01*
X2978485Y2100061D01*
X2979308Y2100692D01*
X2979939Y2101514D01*
X2980135Y2101987D01*
X3105873D01*
X3110970Y2096890D01*
X3110919Y2096500D01*
X3111007Y2095832D01*
X3111265Y2095209D01*
X3111675Y2094675D01*
X3112209Y2094265D01*
X3112832Y2094007D01*
X3113500Y2093919D01*
X3114168Y2094007D01*
X3114791Y2094265D01*
X3115325Y2094675D01*
X3115735Y2095209D01*
X3115993Y2095832D01*
X3116081Y2096500D01*
X3115993Y2097168D01*
X3115735Y2097791D01*
X3115325Y2098325D01*
X3114791Y2098735D01*
X3114168Y2098993D01*
X3113500Y2099081D01*
X3113110Y2099030D01*
X3107570Y2104570D01*
X3107079Y2104898D01*
X3106500Y2105013D01*
X3106500Y2105013D01*
X2980135D01*
X2979939Y2105486D01*
X2979308Y2106308D01*
X2978485Y2106939D01*
X2977528Y2107336D01*
X2976500Y2107471D01*
D02*
G37*
G36*
X3252953Y2105993D02*
X3252079Y2105878D01*
X3251265Y2105541D01*
X3250566Y2105005D01*
X3250030Y2104306D01*
X3249693Y2103492D01*
X3249577Y2102618D01*
X3249693Y2101744D01*
X3250030Y2100930D01*
X3250566Y2100231D01*
X3251265Y2099695D01*
X3252079Y2099358D01*
X3252953Y2099243D01*
X3253827Y2099358D01*
X3254641Y2099695D01*
X3255339Y2100231D01*
X3255876Y2100930D01*
X3256213Y2101744D01*
X3256328Y2102618D01*
X3256213Y2103492D01*
X3255876Y2104306D01*
X3255339Y2105005D01*
X3254641Y2105541D01*
X3253827Y2105878D01*
X3252953Y2105993D01*
D02*
G37*
G36*
Y2115993D02*
X3252079Y2115878D01*
X3251265Y2115541D01*
X3250566Y2115005D01*
X3250030Y2114306D01*
X3249693Y2113492D01*
X3249577Y2112618D01*
X3249693Y2111744D01*
X3250030Y2110930D01*
X3250566Y2110231D01*
X3251265Y2109695D01*
X3252079Y2109358D01*
X3252953Y2109243D01*
X3253827Y2109358D01*
X3254641Y2109695D01*
X3255339Y2110231D01*
X3255876Y2110930D01*
X3256213Y2111744D01*
X3256328Y2112618D01*
X3256213Y2113492D01*
X3255876Y2114306D01*
X3255339Y2115005D01*
X3254641Y2115541D01*
X3253827Y2115878D01*
X3252953Y2115993D01*
D02*
G37*
G36*
X2980437Y2117437D02*
X2972563D01*
Y2113884D01*
X2972487Y2113500D01*
X2972563Y2113116D01*
Y2109563D01*
X2980437D01*
Y2117437D01*
D02*
G37*
G36*
X3242953Y2120993D02*
X3242079Y2120878D01*
X3241265Y2120541D01*
X3240566Y2120005D01*
X3240030Y2119306D01*
X3239692Y2118492D01*
X3239577Y2117618D01*
X3239692Y2116744D01*
X3240030Y2115931D01*
X3240566Y2115231D01*
X3241265Y2114695D01*
X3242079Y2114358D01*
X3242953Y2114243D01*
X3243826Y2114358D01*
X3244640Y2114695D01*
X3245340Y2115231D01*
X3245876Y2115931D01*
X3246213Y2116744D01*
X3246328Y2117618D01*
X3246213Y2118492D01*
X3245876Y2119306D01*
X3245340Y2120005D01*
X3244640Y2120541D01*
X3243826Y2120878D01*
X3242953Y2120993D01*
D02*
G37*
G36*
Y2110994D02*
X3242079Y2110879D01*
X3241265Y2110541D01*
X3240566Y2110005D01*
X3240030Y2109306D01*
X3239692Y2108492D01*
X3239577Y2107618D01*
X3239692Y2106745D01*
X3240030Y2105931D01*
X3240566Y2105231D01*
X3241265Y2104695D01*
X3242079Y2104358D01*
X3242953Y2104243D01*
X3243826Y2104358D01*
X3244640Y2104695D01*
X3245340Y2105231D01*
X3245876Y2105931D01*
X3246213Y2106745D01*
X3246328Y2107618D01*
X3246213Y2108492D01*
X3245876Y2109306D01*
X3245340Y2110005D01*
X3244640Y2110541D01*
X3243826Y2110879D01*
X3242953Y2110994D01*
D02*
G37*
%LPD*%
G36*
X3135930Y1966430D02*
X3147930Y1954430D01*
X3147930Y1954430D01*
X3148421Y1954102D01*
X3149000Y1953987D01*
X3149930D01*
X3150064Y1953593D01*
X3149692Y1953308D01*
X3149061Y1952485D01*
X3148664Y1951528D01*
X3148529Y1950500D01*
X3148664Y1949472D01*
X3149061Y1948515D01*
X3149692Y1947692D01*
X3150064Y1947407D01*
X3149930Y1947013D01*
X3149127D01*
X3135513Y1960627D01*
Y1966345D01*
X3135907Y1966464D01*
X3135930Y1966430D01*
D02*
G37*
G36*
X3168500Y2162857D02*
X3168355Y2162668D01*
X3168097Y2162046D01*
X3168014Y2161416D01*
X3166021Y2160013D01*
X3158000D01*
X3158000Y2160013D01*
X3157421Y2159898D01*
X3156930Y2159570D01*
X3149877Y2152517D01*
X3149513Y2152668D01*
Y2159436D01*
X3149825Y2159675D01*
X3150235Y2160209D01*
X3150493Y2160832D01*
X3150581Y2161500D01*
X3150493Y2162168D01*
X3150387Y2162424D01*
X3150650Y2162817D01*
X3159013D01*
X3159265Y2162209D01*
X3159675Y2161675D01*
X3160209Y2161265D01*
X3160832Y2161007D01*
X3161500Y2160919D01*
X3162168Y2161007D01*
X3162791Y2161265D01*
X3163325Y2161675D01*
X3163735Y2162209D01*
X3163993Y2162832D01*
X3164048Y2163250D01*
X3168306D01*
X3168500Y2162857D01*
D02*
G37*
G36*
X3176219Y2166641D02*
X3176068Y2166277D01*
X3162764D01*
X3162185Y2166162D01*
X3161971Y2166019D01*
X3161500Y2166081D01*
X3160832Y2165993D01*
X3160472Y2165844D01*
X3146420D01*
X3146235Y2166291D01*
X3146003Y2166593D01*
X3146197Y2166987D01*
X3175873D01*
X3176219Y2166641D01*
D02*
G37*
G36*
X3182987Y2191332D02*
Y2190627D01*
X3177373Y2185013D01*
X3137500D01*
X3137428Y2184999D01*
X3137199Y2185355D01*
X3137293Y2185487D01*
X3176000D01*
X3176000Y2185487D01*
X3176579Y2185602D01*
X3177070Y2185930D01*
X3182623Y2191483D01*
X3182987Y2191332D01*
D02*
G37*
G36*
X3177987Y2161373D02*
Y2156127D01*
X3172873Y2151013D01*
X3153168D01*
X3153017Y2151377D01*
X3158627Y2156987D01*
X3166500D01*
X3166664Y2157019D01*
X3166831Y2157023D01*
X3166951Y2157076D01*
X3167079Y2157102D01*
X3167218Y2157195D01*
X3167371Y2157262D01*
X3169768Y2158949D01*
X3169922Y2158885D01*
X3170591Y2158797D01*
X3171259Y2158885D01*
X3171881Y2159143D01*
X3172416Y2159553D01*
X3172826Y2160087D01*
X3173084Y2160710D01*
X3173172Y2161378D01*
X3173084Y2162046D01*
X3172826Y2162668D01*
X3172681Y2162857D01*
X3172876Y2163250D01*
X3176109D01*
X3177987Y2161373D01*
D02*
G37*
G36*
X3100502Y2158363D02*
Y2143054D01*
X3100190Y2142815D01*
X3099780Y2142280D01*
X3099522Y2141658D01*
X3099434Y2140990D01*
X3099522Y2140322D01*
X3099780Y2139699D01*
X3100190Y2139165D01*
X3100724Y2138754D01*
X3101347Y2138497D01*
X3102015Y2138409D01*
X3102683Y2138497D01*
X3103305Y2138754D01*
X3103840Y2139165D01*
X3104079Y2139476D01*
X3110352D01*
X3110810Y2139018D01*
X3110805Y2138976D01*
X3110893Y2138308D01*
X3111151Y2137686D01*
X3111416Y2137340D01*
X3111222Y2136946D01*
X3099194D01*
X3092013Y2144127D01*
Y2148000D01*
X3091898Y2148579D01*
X3091570Y2149070D01*
X3091570Y2149070D01*
X3076570Y2164070D01*
X3076496Y2164120D01*
X3076615Y2164513D01*
X3094351D01*
X3100502Y2158363D01*
D02*
G37*
G36*
X3125930Y2166930D02*
X3128930Y2163930D01*
X3129421Y2163602D01*
X3130000Y2163487D01*
X3130000Y2163487D01*
X3140000D01*
X3140000Y2163487D01*
X3140579Y2163602D01*
X3141070Y2163930D01*
X3141195Y2164055D01*
X3141660Y2163963D01*
X3141765Y2163709D01*
X3142175Y2163175D01*
X3142709Y2162765D01*
X3143332Y2162507D01*
X3144000Y2162419D01*
X3144668Y2162507D01*
X3145291Y2162765D01*
X3145406Y2162745D01*
X3145613Y2162424D01*
X3145507Y2162168D01*
X3145419Y2161500D01*
X3145507Y2160832D01*
X3145765Y2160209D01*
X3145982Y2159926D01*
X3146123Y2159705D01*
X3146272Y2159600D01*
X3146487Y2159436D01*
Y2152127D01*
X3125877Y2131517D01*
X3125513Y2131668D01*
Y2166845D01*
X3125907Y2166964D01*
X3125930Y2166930D01*
D02*
G37*
G36*
X3088987Y2147373D02*
Y2143500D01*
X3088987Y2143500D01*
X3089102Y2142921D01*
X3089430Y2142430D01*
X3097497Y2134363D01*
X3097497Y2134363D01*
X3097988Y2134035D01*
X3098567Y2133920D01*
X3114865D01*
X3115104Y2133608D01*
X3115639Y2133198D01*
X3116261Y2132940D01*
X3116788Y2132871D01*
X3116957Y2132483D01*
X3115477Y2131003D01*
X3102079D01*
X3101840Y2131315D01*
X3101306Y2131725D01*
X3100683Y2131983D01*
X3100015Y2132071D01*
X3099347Y2131983D01*
X3098724Y2131725D01*
X3098190Y2131315D01*
X3097780Y2130780D01*
X3097522Y2130158D01*
X3097507Y2130042D01*
X3095220Y2129040D01*
X3082164D01*
X3077640Y2133564D01*
X3077772Y2133736D01*
X3078030Y2134359D01*
X3078118Y2135027D01*
X3078030Y2135695D01*
X3077772Y2136317D01*
X3077362Y2136852D01*
X3077050Y2137091D01*
Y2152468D01*
X3077050Y2152468D01*
X3076935Y2153047D01*
X3076607Y2153538D01*
X3069575Y2160570D01*
X3069084Y2160898D01*
X3068505Y2161013D01*
X3068505Y2161013D01*
X3045515D01*
X3044936Y2160898D01*
X3044445Y2160570D01*
X3044445Y2160570D01*
X3040888Y2157013D01*
X3039564D01*
X3039325Y2157325D01*
X3038791Y2157735D01*
X3038168Y2157993D01*
X3038096Y2158003D01*
X3037986Y2158414D01*
X3038325Y2158675D01*
X3038735Y2159209D01*
X3038993Y2159832D01*
X3039081Y2160500D01*
X3039030Y2160890D01*
X3039627Y2161487D01*
X3074873D01*
X3088987Y2147373D01*
D02*
G37*
G36*
X3172487Y2232582D02*
Y2232127D01*
X3167373Y2227013D01*
X3162168D01*
X3162017Y2227377D01*
X3162627Y2227987D01*
X3164500D01*
X3164715Y2228029D01*
X3164934Y2228050D01*
X3165003Y2228087D01*
X3165079Y2228102D01*
X3165262Y2228224D01*
X3165456Y2228327D01*
X3169138Y2231325D01*
X3169803Y2231238D01*
X3170471Y2231326D01*
X3171094Y2231584D01*
X3171628Y2231994D01*
X3172038Y2232528D01*
X3172093Y2232660D01*
X3172487Y2232582D01*
D02*
G37*
G36*
X3100502Y2052363D02*
Y2037054D01*
X3100190Y2036815D01*
X3099780Y2036280D01*
X3099522Y2035658D01*
X3099434Y2034990D01*
X3099522Y2034322D01*
X3099780Y2033699D01*
X3100190Y2033165D01*
X3100724Y2032754D01*
X3101347Y2032497D01*
X3102015Y2032409D01*
X3102683Y2032497D01*
X3103305Y2032754D01*
X3103840Y2033165D01*
X3104079Y2033476D01*
X3113883D01*
X3114970Y2032390D01*
X3114919Y2032000D01*
X3115007Y2031332D01*
X3115265Y2030709D01*
X3115675Y2030175D01*
X3116209Y2029765D01*
X3116832Y2029507D01*
X3117500Y2029419D01*
X3118168Y2029507D01*
X3118502Y2029645D01*
X3118852Y2029412D01*
X3118875Y2029016D01*
X3118373Y2028513D01*
X3115627D01*
X3112570Y2031570D01*
X3112079Y2031898D01*
X3111500Y2032013D01*
X3111500Y2032013D01*
X3087127D01*
X3086013Y2033127D01*
Y2040500D01*
X3086013Y2040500D01*
X3085898Y2041079D01*
X3085570Y2041570D01*
X3085570Y2041570D01*
X3069570Y2057570D01*
X3069079Y2057898D01*
X3068500Y2058013D01*
X3068500Y2058013D01*
X3045000D01*
X3044781Y2058407D01*
X3044847Y2058513D01*
X3094351D01*
X3100502Y2052363D01*
D02*
G37*
G36*
X3082987Y2039873D02*
Y2032500D01*
X3082987Y2032500D01*
X3083102Y2031921D01*
X3083430Y2031430D01*
X3085430Y2029430D01*
X3085430Y2029430D01*
X3085921Y2029102D01*
X3086500Y2028987D01*
X3086500Y2028987D01*
X3110873D01*
X3113930Y2025930D01*
X3113930Y2025930D01*
X3114421Y2025602D01*
X3115000Y2025487D01*
X3115000Y2025487D01*
X3117958D01*
X3118167Y2025093D01*
X3118106Y2025003D01*
X3102079D01*
X3101840Y2025315D01*
X3101306Y2025725D01*
X3100683Y2025983D01*
X3100015Y2026071D01*
X3099347Y2025983D01*
X3098724Y2025725D01*
X3098190Y2025315D01*
X3097780Y2024780D01*
X3097522Y2024158D01*
X3097507Y2024043D01*
X3095220Y2023040D01*
X3082164D01*
X3077640Y2027564D01*
X3077772Y2027736D01*
X3078030Y2028359D01*
X3078118Y2029027D01*
X3078030Y2029695D01*
X3077772Y2030317D01*
X3077362Y2030852D01*
X3077050Y2031091D01*
Y2045295D01*
X3077414Y2045446D01*
X3082987Y2039873D01*
D02*
G37*
G36*
X3175987Y2238373D02*
Y2229127D01*
X3170873Y2224013D01*
X3169155D01*
X3169036Y2224407D01*
X3169070Y2224430D01*
X3175070Y2230430D01*
X3175070Y2230430D01*
X3175398Y2230921D01*
X3175513Y2231500D01*
Y2237500D01*
X3175513Y2237500D01*
X3175398Y2238079D01*
X3175070Y2238570D01*
X3175070Y2238570D01*
X3173070Y2240570D01*
X3172579Y2240898D01*
X3172000Y2241013D01*
X3172000Y2241013D01*
X3145316D01*
X3145077Y2241325D01*
X3144543Y2241735D01*
X3144111Y2241914D01*
X3143997Y2242357D01*
X3145127Y2243487D01*
X3170873D01*
X3175987Y2238373D01*
D02*
G37*
G36*
X3143647Y2200784D02*
X3143820Y2200363D01*
X3143765Y2200291D01*
X3143507Y2199668D01*
X3143419Y2199000D01*
X3143507Y2198332D01*
X3143765Y2197709D01*
X3144175Y2197175D01*
X3144487Y2196936D01*
Y2195513D01*
X3138668D01*
X3138517Y2195877D01*
X3143451Y2200810D01*
X3143647Y2200784D01*
D02*
G37*
G36*
X3157487Y2222332D02*
Y2212500D01*
X3157487Y2212500D01*
X3157602Y2211921D01*
X3157930Y2211430D01*
X3160930Y2208430D01*
X3160930Y2208430D01*
X3161421Y2208102D01*
X3162000Y2207987D01*
X3162000Y2207987D01*
X3174873D01*
X3180487Y2202373D01*
Y2193627D01*
X3175373Y2188513D01*
X3136500D01*
X3136500Y2188513D01*
X3135921Y2188398D01*
X3135430Y2188070D01*
X3135430Y2188070D01*
X3128930Y2181570D01*
X3128907Y2181536D01*
X3128513Y2181655D01*
Y2182873D01*
X3138127Y2192487D01*
X3161000D01*
X3161000Y2192487D01*
X3161579Y2192602D01*
X3162070Y2192930D01*
X3166110Y2196970D01*
X3166500Y2196919D01*
X3167168Y2197007D01*
X3167791Y2197265D01*
X3168325Y2197675D01*
X3168735Y2198209D01*
X3168993Y2198832D01*
X3169081Y2199500D01*
X3168993Y2200168D01*
X3168735Y2200791D01*
X3168325Y2201325D01*
X3167791Y2201735D01*
X3167168Y2201993D01*
X3166500Y2202081D01*
X3165832Y2201993D01*
X3165209Y2201735D01*
X3164675Y2201325D01*
X3164265Y2200791D01*
X3164007Y2200168D01*
X3163919Y2199500D01*
X3163970Y2199110D01*
X3160373Y2195513D01*
X3147513D01*
Y2196936D01*
X3147825Y2197175D01*
X3148235Y2197709D01*
X3148493Y2198332D01*
X3148581Y2199000D01*
X3148493Y2199668D01*
X3148235Y2200291D01*
X3148003Y2200593D01*
X3148197Y2200987D01*
X3153873D01*
X3155970Y2198890D01*
X3155919Y2198500D01*
X3156007Y2197832D01*
X3156265Y2197209D01*
X3156675Y2196675D01*
X3157209Y2196265D01*
X3157832Y2196007D01*
X3158500Y2195919D01*
X3159168Y2196007D01*
X3159791Y2196265D01*
X3160325Y2196675D01*
X3160735Y2197209D01*
X3160993Y2197832D01*
X3161081Y2198500D01*
X3160993Y2199168D01*
X3160735Y2199791D01*
X3160325Y2200325D01*
X3159791Y2200735D01*
X3159168Y2200993D01*
X3158500Y2201081D01*
X3158110Y2201030D01*
X3155570Y2203570D01*
X3155079Y2203898D01*
X3154500Y2204013D01*
X3154500Y2204013D01*
X3143598D01*
X3143387Y2204407D01*
X3143440Y2204487D01*
X3167873D01*
X3173470Y2198890D01*
X3173419Y2198500D01*
X3173507Y2197832D01*
X3173765Y2197209D01*
X3174175Y2196675D01*
X3174709Y2196265D01*
X3175332Y2196007D01*
X3176000Y2195919D01*
X3176668Y2196007D01*
X3177291Y2196265D01*
X3177825Y2196675D01*
X3178235Y2197209D01*
X3178493Y2197832D01*
X3178581Y2198500D01*
X3178493Y2199168D01*
X3178235Y2199791D01*
X3177825Y2200325D01*
X3177291Y2200735D01*
X3176668Y2200993D01*
X3176000Y2201081D01*
X3175610Y2201030D01*
X3169570Y2207070D01*
X3169079Y2207398D01*
X3168500Y2207513D01*
X3168500Y2207513D01*
X3142710D01*
X3142547Y2207907D01*
X3157123Y2222483D01*
X3157487Y2222332D01*
D02*
G37*
G36*
X3047964Y2054593D02*
X3047930Y2054570D01*
X3047930Y2054570D01*
X3044373Y2051013D01*
X3039064D01*
X3038825Y2051325D01*
X3038480Y2051590D01*
X3038636Y2051967D01*
X3039000Y2051919D01*
X3039668Y2052007D01*
X3040291Y2052265D01*
X3040825Y2052675D01*
X3041235Y2053209D01*
X3041493Y2053832D01*
X3041581Y2054500D01*
X3041566Y2054618D01*
X3041894Y2054987D01*
X3047845D01*
X3047964Y2054593D01*
D02*
G37*
G36*
X3231169Y1948105D02*
X3267373D01*
X3268605Y1946873D01*
Y1944190D01*
X3268293Y1943951D01*
X3267883Y1943416D01*
X3267625Y1942794D01*
X3267537Y1942126D01*
X3267625Y1941458D01*
X3267883Y1940835D01*
X3268293Y1940301D01*
X3268827Y1939891D01*
X3269450Y1939633D01*
X3270118Y1939545D01*
X3270508Y1939596D01*
X3271817Y1938287D01*
X3271802Y1938164D01*
X3271455Y1938000D01*
X3271359Y1938007D01*
X3271087Y1938216D01*
X3270465Y1938474D01*
X3269797Y1938561D01*
X3269128Y1938474D01*
X3268506Y1938216D01*
X3267971Y1937806D01*
X3267732Y1937494D01*
X3266452D01*
X3258875Y1945070D01*
X3258384Y1945398D01*
X3257805Y1945513D01*
X3257805Y1945513D01*
X3233127D01*
X3230879Y1947761D01*
X3231073Y1948124D01*
X3231169Y1948105D01*
D02*
G37*
G36*
X3240910Y1879550D02*
X3239873Y1878513D01*
X3105442D01*
X3105203Y1878825D01*
X3104721Y1879195D01*
X3104737Y1879385D01*
X3104829Y1879589D01*
X3239853D01*
X3239853Y1879589D01*
X3240432Y1879704D01*
X3240659Y1879856D01*
X3240910Y1879550D01*
D02*
G37*
G36*
X3271991Y1926041D02*
X3271772Y1925849D01*
X3271104Y1925761D01*
X3270481Y1925503D01*
X3269947Y1925093D01*
X3269536Y1924558D01*
X3269278Y1923936D01*
X3269191Y1923268D01*
X3269278Y1922600D01*
X3269536Y1921977D01*
X3269947Y1921443D01*
X3270481Y1921032D01*
X3271104Y1920774D01*
X3271772Y1920687D01*
X3272440Y1920774D01*
X3273062Y1921032D01*
X3273597Y1921443D01*
X3273723Y1921607D01*
X3274117Y1921473D01*
Y1918999D01*
X3273723Y1918866D01*
X3273597Y1919030D01*
X3273062Y1919440D01*
X3272440Y1919698D01*
X3271772Y1919786D01*
X3271104Y1919698D01*
X3270481Y1919440D01*
X3269947Y1919030D01*
X3269707Y1918718D01*
X3265922D01*
X3265570Y1919070D01*
X3265570Y1919070D01*
X3255570Y1929070D01*
X3255079Y1929398D01*
X3254500Y1929513D01*
X3254500Y1929513D01*
X3226741D01*
X3226608Y1929907D01*
X3226865Y1930104D01*
X3227104Y1930416D01*
X3271991D01*
Y1926041D01*
D02*
G37*
G36*
X3260483Y1919877D02*
X3260332Y1919513D01*
X3229127D01*
X3226570Y1922070D01*
X3226097Y1922386D01*
X3226075Y1922406D01*
X3225959Y1922643D01*
X3225940Y1922827D01*
X3226133Y1923079D01*
X3226391Y1923702D01*
X3226479Y1924370D01*
X3226391Y1925038D01*
X3226133Y1925661D01*
X3225801Y1926093D01*
X3225945Y1926487D01*
X3253873D01*
X3260483Y1919877D01*
D02*
G37*
%LPC*%
G36*
X3296181Y2216011D02*
X3295292Y2215894D01*
X3294464Y2215550D01*
X3293752Y2215005D01*
X3293206Y2214293D01*
X3292863Y2213465D01*
X3292746Y2212576D01*
X3292863Y2211687D01*
X3293206Y2210858D01*
X3293752Y2210147D01*
X3294464Y2209601D01*
X3295292Y2209258D01*
X3296181Y2209141D01*
X3297070Y2209258D01*
X3297898Y2209601D01*
X3298610Y2210147D01*
X3299156Y2210858D01*
X3299499Y2211687D01*
X3299616Y2212576D01*
X3299499Y2213465D01*
X3299156Y2214293D01*
X3298610Y2215005D01*
X3297898Y2215550D01*
X3297070Y2215894D01*
X3296181Y2216011D01*
D02*
G37*
G36*
Y2206011D02*
X3295292Y2205894D01*
X3294464Y2205551D01*
X3293752Y2205005D01*
X3293206Y2204293D01*
X3292863Y2203465D01*
X3292746Y2202576D01*
X3292863Y2201687D01*
X3293206Y2200858D01*
X3293752Y2200147D01*
X3294464Y2199601D01*
X3295292Y2199258D01*
X3296181Y2199141D01*
X3297070Y2199258D01*
X3297898Y2199601D01*
X3298610Y2200147D01*
X3299156Y2200858D01*
X3299499Y2201687D01*
X3299616Y2202576D01*
X3299499Y2203465D01*
X3299156Y2204293D01*
X3298610Y2205005D01*
X3297898Y2205551D01*
X3297070Y2205894D01*
X3296181Y2206011D01*
D02*
G37*
G36*
X3296890Y2162408D02*
X3296001Y2162291D01*
X3295172Y2161948D01*
X3294461Y2161402D01*
X3293915Y2160691D01*
X3293572Y2159863D01*
X3293455Y2158973D01*
X3293572Y2158084D01*
X3293915Y2157256D01*
X3294461Y2156545D01*
X3295172Y2155999D01*
X3296001Y2155656D01*
X3296890Y2155539D01*
X3297779Y2155656D01*
X3298607Y2155999D01*
X3299319Y2156545D01*
X3299865Y2157256D01*
X3300208Y2158084D01*
X3300325Y2158973D01*
X3300208Y2159863D01*
X3299865Y2160691D01*
X3299319Y2161402D01*
X3298607Y2161948D01*
X3297779Y2162291D01*
X3296890Y2162408D01*
D02*
G37*
G36*
Y2172408D02*
X3296001Y2172291D01*
X3295172Y2171948D01*
X3294461Y2171402D01*
X3293915Y2170691D01*
X3293572Y2169863D01*
X3293455Y2168973D01*
X3293572Y2168084D01*
X3293915Y2167256D01*
X3294461Y2166545D01*
X3295172Y2165999D01*
X3296001Y2165656D01*
X3296890Y2165538D01*
X3297779Y2165656D01*
X3298607Y2165999D01*
X3299319Y2166545D01*
X3299865Y2167256D01*
X3300208Y2168084D01*
X3300325Y2168973D01*
X3300208Y2169863D01*
X3299865Y2170691D01*
X3299319Y2171402D01*
X3298607Y2171948D01*
X3297779Y2172291D01*
X3296890Y2172408D01*
D02*
G37*
G36*
X3297244Y2236677D02*
X3296355Y2236560D01*
X3295527Y2236217D01*
X3294815Y2235671D01*
X3294270Y2234960D01*
X3293926Y2234131D01*
X3293809Y2233242D01*
X3293926Y2232353D01*
X3294270Y2231525D01*
X3294815Y2230813D01*
X3295527Y2230268D01*
X3296355Y2229924D01*
X3297244Y2229807D01*
X3298133Y2229924D01*
X3298962Y2230268D01*
X3299673Y2230813D01*
X3300219Y2231525D01*
X3300562Y2232353D01*
X3300679Y2233242D01*
X3300562Y2234131D01*
X3300219Y2234960D01*
X3299673Y2235671D01*
X3298962Y2236217D01*
X3298133Y2236560D01*
X3297244Y2236677D01*
D02*
G37*
G36*
X3296535Y2290279D02*
X3295646Y2290162D01*
X3294818Y2289819D01*
X3294107Y2289273D01*
X3293561Y2288562D01*
X3293217Y2287733D01*
X3293100Y2286844D01*
X3293217Y2285955D01*
X3293561Y2285127D01*
X3294107Y2284416D01*
X3294818Y2283870D01*
X3295646Y2283527D01*
X3296535Y2283410D01*
X3297424Y2283527D01*
X3298253Y2283870D01*
X3298964Y2284416D01*
X3299510Y2285127D01*
X3299853Y2285955D01*
X3299970Y2286844D01*
X3299853Y2287733D01*
X3299510Y2288562D01*
X3298964Y2289273D01*
X3298253Y2289819D01*
X3297424Y2290162D01*
X3296535Y2290279D01*
D02*
G37*
G36*
Y2280279D02*
X3295646Y2280162D01*
X3294818Y2279819D01*
X3294107Y2279273D01*
X3293561Y2278562D01*
X3293217Y2277733D01*
X3293100Y2276844D01*
X3293217Y2275956D01*
X3293561Y2275127D01*
X3294107Y2274416D01*
X3294818Y2273870D01*
X3295646Y2273527D01*
X3296535Y2273410D01*
X3297424Y2273527D01*
X3298253Y2273870D01*
X3298964Y2274416D01*
X3299510Y2275127D01*
X3299853Y2275956D01*
X3299970Y2276844D01*
X3299853Y2277733D01*
X3299510Y2278562D01*
X3298964Y2279273D01*
X3298253Y2279819D01*
X3297424Y2280162D01*
X3296535Y2280279D01*
D02*
G37*
G36*
X3297244Y2246677D02*
X3296355Y2246560D01*
X3295527Y2246217D01*
X3294815Y2245671D01*
X3294270Y2244960D01*
X3293926Y2244131D01*
X3293809Y2243242D01*
X3293926Y2242353D01*
X3294270Y2241525D01*
X3294815Y2240813D01*
X3295527Y2240268D01*
X3296355Y2239924D01*
X3297244Y2239807D01*
X3298133Y2239924D01*
X3298962Y2240268D01*
X3299673Y2240813D01*
X3300219Y2241525D01*
X3300562Y2242353D01*
X3300679Y2243242D01*
X3300562Y2244131D01*
X3300219Y2244960D01*
X3299673Y2245671D01*
X3298962Y2246217D01*
X3298133Y2246560D01*
X3297244Y2246677D01*
D02*
G37*
G36*
Y2087096D02*
X3296355Y2086979D01*
X3295527Y2086636D01*
X3294815Y2086090D01*
X3294270Y2085379D01*
X3293926Y2084550D01*
X3293809Y2083661D01*
X3293926Y2082772D01*
X3294270Y2081944D01*
X3294815Y2081233D01*
X3295527Y2080687D01*
X3296355Y2080344D01*
X3297244Y2080227D01*
X3298133Y2080344D01*
X3298962Y2080687D01*
X3299673Y2081233D01*
X3300219Y2081944D01*
X3300562Y2082772D01*
X3300679Y2083661D01*
X3300562Y2084550D01*
X3300219Y2085379D01*
X3299673Y2086090D01*
X3298962Y2086636D01*
X3298133Y2086979D01*
X3297244Y2087096D01*
D02*
G37*
G36*
Y2097096D02*
X3296355Y2096979D01*
X3295527Y2096636D01*
X3294815Y2096090D01*
X3294270Y2095379D01*
X3293926Y2094550D01*
X3293809Y2093661D01*
X3293926Y2092772D01*
X3294270Y2091944D01*
X3294815Y2091233D01*
X3295527Y2090687D01*
X3296355Y2090344D01*
X3297244Y2090227D01*
X3298133Y2090344D01*
X3298962Y2090687D01*
X3299673Y2091233D01*
X3300219Y2091944D01*
X3300562Y2092772D01*
X3300679Y2093661D01*
X3300562Y2094550D01*
X3300219Y2095379D01*
X3299673Y2096090D01*
X3298962Y2096636D01*
X3298133Y2096979D01*
X3297244Y2097096D01*
D02*
G37*
G36*
X3296535Y2130699D02*
X3295646Y2130582D01*
X3294818Y2130239D01*
X3294107Y2129693D01*
X3293561Y2128981D01*
X3293217Y2128153D01*
X3293100Y2127264D01*
X3293217Y2126375D01*
X3293561Y2125546D01*
X3294107Y2124835D01*
X3294818Y2124289D01*
X3295646Y2123946D01*
X3296535Y2123829D01*
X3297424Y2123946D01*
X3298253Y2124289D01*
X3298964Y2124835D01*
X3299510Y2125546D01*
X3299853Y2126375D01*
X3299970Y2127264D01*
X3299853Y2128153D01*
X3299510Y2128981D01*
X3298964Y2129693D01*
X3298253Y2130239D01*
X3297424Y2130582D01*
X3296535Y2130699D01*
D02*
G37*
G36*
Y2140699D02*
X3295646Y2140582D01*
X3294818Y2140239D01*
X3294107Y2139693D01*
X3293561Y2138981D01*
X3293217Y2138153D01*
X3293100Y2137264D01*
X3293217Y2136375D01*
X3293561Y2135546D01*
X3294107Y2134835D01*
X3294818Y2134289D01*
X3295646Y2133946D01*
X3296535Y2133829D01*
X3297424Y2133946D01*
X3298253Y2134289D01*
X3298964Y2134835D01*
X3299510Y2135546D01*
X3299853Y2136375D01*
X3299970Y2137264D01*
X3299853Y2138153D01*
X3299510Y2138981D01*
X3298964Y2139693D01*
X3298253Y2140239D01*
X3297424Y2140582D01*
X3296535Y2140699D01*
D02*
G37*
%LPD*%
D29*
X3110979Y2140990D02*
X3113386Y2138583D01*
X3252953Y2082031D02*
X3264984Y2070000D01*
X3252953Y2082031D02*
Y2092618D01*
X3231630Y2128354D02*
Y2143000D01*
X3099752Y2171752D02*
X3149000Y2221000D01*
X3148500Y2128028D02*
X3153543Y2133071D01*
X3100015Y2277500D02*
X3169000D01*
X3193000Y1955588D02*
X3206912D01*
X3209500Y1953000D01*
X2987525Y1936500D02*
X2993515Y1942490D01*
X3176929Y2133071D02*
X3181500Y2128500D01*
X3153543Y2133071D02*
X3176929D01*
X3113386Y2245719D02*
Y2266886D01*
X3100015Y2235490D02*
X3103157D01*
X3113386Y2245719D01*
Y2266886D02*
X3121000Y2274500D01*
X3119595Y2187094D02*
X3162000Y2229500D01*
X3119595Y2132980D02*
Y2187094D01*
X3116104Y2129490D02*
X3119595Y2132980D01*
X3098567Y2135433D02*
X3116929D01*
X3108409Y2246500D02*
Y2246591D01*
X3219973Y2071000D02*
Y2116698D01*
X2968000Y2142575D02*
X2977000Y2151575D01*
X2968000Y2096000D02*
Y2142575D01*
Y2096000D02*
X2970500Y2093500D01*
X2993515Y2048490D02*
Y2076485D01*
X2976500Y2093500D02*
X2993515Y2076485D01*
X2970500Y2093500D02*
X2976500D01*
X2993515Y1942490D02*
Y2017490D01*
Y2154490D02*
Y2229490D01*
X3119500Y1911505D02*
X3121000Y1910005D01*
X3119500Y1911505D02*
Y1943500D01*
X3180500Y2056000D02*
X3183500Y2053000D01*
X3170500Y2056000D02*
X3180500D01*
X3120409Y2028409D02*
Y2035591D01*
X3118500Y2037500D02*
X3120409Y2035591D01*
X3118500Y2037500D02*
Y2045500D01*
X3119000Y2027000D02*
X3120409Y2028409D01*
X3115000Y2027000D02*
X3119000D01*
X3111500Y2030500D02*
X3115000Y2027000D01*
X3122000Y2026500D02*
Y2129000D01*
X3118990Y2023490D02*
X3122000Y2026500D01*
X3100015Y2023490D02*
X3118990D01*
X3114510Y2034990D02*
X3117500Y2032000D01*
X3102015Y2034990D02*
X3114510D01*
X3106500Y2103500D02*
X3113500Y2096500D01*
X3108010Y2246990D02*
X3108409Y2246591D01*
X3102015Y2246990D02*
X3108010D01*
X3121000Y2274500D02*
X3155500D01*
X3094978Y2272027D02*
X3102015Y2264990D01*
Y2246990D02*
Y2264990D01*
X3100015Y2065490D02*
X3119500Y2084975D01*
X3127000Y1982000D02*
Y2127500D01*
X3108000Y1963000D02*
X3127000Y1982000D01*
X3108000Y1925475D02*
Y1963000D01*
X3100015Y1917490D02*
X3108000Y1925475D01*
X3100015Y1959490D02*
X3124500Y1983975D01*
X3188463Y1927037D02*
X3192500D01*
X3122000Y2129000D02*
X3124000Y2131000D01*
X2974000Y2113500D02*
X2976500D01*
Y2103500D02*
X3106500D01*
X3275000Y2070000D02*
X3283500Y2061500D01*
X3264984Y2070000D02*
X3275000D01*
X3283500Y2009500D02*
Y2061500D01*
Y2009500D02*
X3287000Y2006000D01*
X3188500Y2143000D02*
X3231630D01*
X3230841Y2216788D02*
X3231630Y2216000D01*
X3164500Y2216788D02*
X3230841D01*
X3267000Y1972500D02*
Y2000500D01*
X3237500Y2030000D02*
X3267000Y2000500D01*
X3219973Y2116698D02*
X3231630Y2128354D01*
X3229776Y2179000D02*
X3231630Y2180854D01*
X3141500Y2179000D02*
X3229776D01*
X3136500Y2174000D02*
X3141500Y2179000D01*
X3231630Y2180854D02*
Y2216000D01*
Y2143000D02*
Y2180854D01*
Y2253854D02*
Y2273854D01*
Y2216000D02*
Y2253854D01*
X3144354D02*
X3231630D01*
X3139000Y2248500D02*
X3144354Y2253854D01*
X3139000Y2246000D02*
Y2248500D01*
X3222000Y2014500D02*
X3237500Y2030000D01*
X3188000Y2014500D02*
X3222000D01*
X3158500D02*
X3188000D01*
X3147500Y2025500D02*
X3158500Y2014500D01*
X3147500Y2073000D02*
X3149500Y2075000D01*
X3147500Y2025500D02*
Y2073000D01*
X3267500Y2056216D02*
X3271500Y2052217D01*
Y1951000D02*
Y2052217D01*
X3212500Y2062500D02*
X3270000D01*
X3185500Y2089500D02*
X3212500Y2062500D01*
X3214000Y2065500D02*
X3272500D01*
X3162500Y1970500D02*
Y1980500D01*
Y1960500D02*
Y1970500D01*
X3086500Y2030500D02*
X3111500D01*
X3084500Y2032500D02*
X3086500Y2030500D01*
X3084500Y2032500D02*
Y2040500D01*
X3068500Y2056500D02*
X3084500Y2040500D01*
X3041000Y2056500D02*
X3068500D01*
X3039000Y2054500D02*
X3041000Y2056500D01*
X3090500Y2143500D02*
Y2148000D01*
X3075500Y2163000D02*
X3090500Y2148000D01*
X3039000Y2163000D02*
X3075500D01*
X3036500Y2160500D02*
X3039000Y2163000D01*
X3228500Y1918000D02*
X3264500D01*
X3254500Y1928000D02*
X3264500Y1918000D01*
X3178500Y1933000D02*
X3187500Y1924000D01*
X3220000Y1928000D02*
X3254500D01*
X3212000Y1936000D02*
X3220000Y1928000D01*
X3266000Y1973500D02*
X3267000Y1972500D01*
X3261500Y1973500D02*
X3266000D01*
X3261500D02*
Y1981500D01*
X3251000Y1973500D02*
X3261500D01*
X3250000Y1993000D02*
X3261500Y1981500D01*
X3232926Y1993000D02*
X3250000D01*
X3227463Y1987537D02*
X3232926Y1993000D01*
X3181362Y1948500D02*
Y1974500D01*
Y1934138D02*
Y1948500D01*
X3182825Y1947037D01*
X3192801D01*
X3181362Y1934138D02*
X3188463Y1927037D01*
X3181362Y1974500D02*
X3193000Y1986138D01*
X3178500Y1980500D02*
X3192689Y1994689D01*
X3178500Y1933000D02*
Y1980500D01*
X3247500Y1970000D02*
X3251000Y1973500D01*
X3239037Y1961537D02*
X3247500Y1970000D01*
X3243500Y1974000D02*
X3247500Y1970000D01*
X3231500Y1974000D02*
X3243500D01*
X3224239Y1966739D02*
X3231500Y1974000D01*
X3192850Y1966739D02*
X3224239D01*
X3251000Y1973500D02*
Y1977500D01*
X3245500Y1983000D02*
X3251000Y1977500D01*
X3232000Y1983000D02*
X3245500D01*
X3228500Y1979500D02*
X3232000Y1983000D01*
X3199638Y1979500D02*
X3228500D01*
X3193000Y1986138D02*
X3199638Y1979500D01*
X3232500Y1980500D02*
X3243500D01*
X3227500Y1975500D02*
X3232500Y1980500D01*
X3193000Y1975500D02*
X3227500D01*
X3231000Y1986000D02*
X3248177D01*
X3229000Y1984000D02*
X3231000Y1986000D01*
X3203689Y1984000D02*
X3229000D01*
X3248177Y1986000D02*
X3257088Y1977088D01*
X3197500Y1951500D02*
X3204500Y1944500D01*
X3188500Y1951500D02*
X3197500D01*
X3186000Y1954000D02*
X3188500Y1951500D01*
X3186000Y1954000D02*
Y1971000D01*
X3190500Y1975500D01*
X3243500Y1980500D02*
X3247088Y1976912D01*
X3193000Y1994689D02*
X3203689Y1984000D01*
X3174000Y1924500D02*
Y1991000D01*
X3183500Y2000500D01*
X3237500D01*
X3242088Y2005088D01*
Y2013912D01*
X3204500Y1944500D02*
X3222500D01*
X3172500Y2089500D02*
X3185500D01*
X3161000Y2073500D02*
X3168500Y2066000D01*
X3161000Y2073500D02*
Y2090500D01*
X3163500Y2093000D01*
X3143500Y1989500D02*
X3152500Y1980500D01*
X3150000Y1970500D02*
X3152500D01*
X3140500Y1980000D02*
X3150000Y1970500D01*
X3157500Y1955500D02*
X3162500Y1950500D01*
X3149000Y1955500D02*
X3157500D01*
X3137000Y1967500D02*
X3149000Y1955500D01*
X3157500Y1945500D02*
X3162500Y1940500D01*
X3148500Y1945500D02*
X3157500D01*
X3134000Y1960000D02*
X3148500Y1945500D01*
X3192500Y1936000D02*
X3212000D01*
X3192689Y1994689D02*
X3193000D01*
X3190500Y1975500D02*
X3193000D01*
X3103378Y1877000D02*
X3240500D01*
X3170500Y2091500D02*
X3172500Y2089500D01*
X3170500Y2091500D02*
Y2129500D01*
X3157500Y2099000D02*
X3163500Y2093000D01*
X3157500Y2099000D02*
Y2128000D01*
X3036000Y2054500D02*
X3039000D01*
X3034000Y2052500D02*
X3036000Y2054500D01*
X3034000Y2047000D02*
Y2052500D01*
X3034500Y2267000D02*
X3039000D01*
X3030000Y2262500D02*
X3034500Y2267000D01*
X3030000Y2259000D02*
Y2262500D01*
Y2259000D02*
X3033000Y2256000D01*
X3041500D01*
X3048500Y2263000D01*
X3057500D01*
X3062500Y2258000D01*
X3066505Y2267500D02*
X3075537Y2258468D01*
X3046500Y2267500D02*
X3066505D01*
X3040500Y2261500D02*
X3046500Y2267500D01*
X3062500Y2229000D02*
Y2258000D01*
X3005500Y2172000D02*
X3062500Y2229000D01*
X3005500Y2120000D02*
Y2172000D01*
Y2120000D02*
X3008000Y2117500D01*
X3015000D01*
X3025500Y2128000D01*
Y2157000D01*
X3029000Y2160500D01*
X3036500D01*
X3055000Y2050000D02*
X3060500Y2044500D01*
X3049500Y2050000D02*
X3055000D01*
X3044500Y2045000D02*
X3049500Y2050000D01*
X3060500Y2020500D02*
Y2044500D01*
X3036000Y2045000D02*
X3044500D01*
X3068505Y2053500D02*
X3075537Y2046468D01*
X3049000Y2053500D02*
X3068505D01*
X3045000Y2049500D02*
X3049000Y2053500D01*
X3034000Y2047000D02*
X3036000Y2045000D01*
X3037000Y2049500D02*
X3045000D01*
X3005000Y1965000D02*
X3060500Y2020500D01*
X3005000Y1911500D02*
Y1965000D01*
Y1911500D02*
X3011000Y1905500D01*
X3017500D01*
X3025500Y1913500D01*
Y1944000D01*
X3030500Y1949000D01*
X3037500D01*
X3045515Y2159500D02*
X3068505D01*
X3041515Y2155500D02*
X3045515Y2159500D01*
X3037500Y2155500D02*
X3041515D01*
X3068505Y2159500D02*
X3075537Y2152468D01*
X3037000Y2261500D02*
X3040500D01*
X3072505Y1943500D02*
X3075537Y1940468D01*
X3037000Y1943500D02*
X3072505D01*
X3119500Y2084975D02*
Y2130000D01*
X3094978Y2060027D02*
X3102015Y2052990D01*
X3042478Y2060027D02*
X3094978D01*
X3149000Y2221000D02*
Y2234500D01*
X3162000Y2229500D02*
X3164500D01*
X3124000Y2131000D02*
Y2183500D01*
X3148000Y2151500D02*
Y2161500D01*
X3124500Y2128000D02*
X3148000Y2151500D01*
X3124500Y1983975D02*
Y2128000D01*
X3158000Y2158500D02*
X3166500D01*
X3127000Y2127500D02*
X3158000Y2158500D01*
X3121500Y2185000D02*
X3142500Y2206000D01*
X3168500D01*
X3143000Y2202500D02*
X3154500D01*
X3124000Y2183500D02*
X3143000Y2202500D01*
X3146000Y2194000D02*
Y2199000D01*
X3176500Y2141500D02*
X3186500Y2151500D01*
Y2167500D01*
X3181000Y2173000D02*
X3186500Y2167500D01*
X3140500Y2173000D02*
X3181000D01*
X3138000Y2170500D02*
X3140500Y2173000D01*
X3135000Y2170500D02*
X3138000D01*
X3133500Y2172000D02*
X3135000Y2170500D01*
X3142500Y2171000D02*
X3179500D01*
X3139500Y2168000D02*
X3142500Y2171000D01*
X3133000Y2168000D02*
X3139500D01*
X3175500Y2144000D02*
X3184000Y2152500D01*
Y2166500D01*
X3179500Y2171000D02*
X3184000Y2166500D01*
X3130000Y2171000D02*
X3133000Y2168000D01*
X3143500Y2168500D02*
X3176500D01*
X3140000Y2165000D02*
X3143500Y2168500D01*
X3130000Y2165000D02*
X3140000D01*
X3176500Y2168500D02*
X3182000Y2163000D01*
X3127000Y2168000D02*
X3130000Y2165000D01*
X3127000Y2168000D02*
Y2183500D01*
X3130000Y2171000D02*
Y2180500D01*
X3136500Y2187000D01*
X3133500Y2172000D02*
Y2179500D01*
X3137500Y2183500D01*
X3127000D02*
X3137500Y2194000D01*
X3146000D01*
X3161000D02*
X3166500Y2199500D01*
X3146000Y2194000D02*
X3161000D01*
X3137500Y2183500D02*
X3178000D01*
X3184500Y2190000D01*
Y2206500D01*
X3178500Y2212500D02*
X3184500Y2206500D01*
X3163000Y2212500D02*
X3178500D01*
X3161500Y2214000D02*
X3163000Y2212500D01*
X3161500Y2214000D02*
Y2220000D01*
X3164000Y2222500D01*
X3171500D01*
X3177500Y2228500D01*
X3161500Y2225500D02*
X3168000D01*
X3159000Y2223000D02*
X3161500Y2225500D01*
X3159000Y2212500D02*
Y2223000D01*
X3162000Y2209500D02*
X3175500D01*
X3159000Y2212500D02*
X3162000Y2209500D01*
X3171500Y2245000D02*
X3177500Y2239000D01*
Y2228500D02*
Y2239000D01*
X3144500Y2245000D02*
X3171500D01*
X3168000Y2225500D02*
X3174000Y2231500D01*
Y2237500D01*
X3136500Y2187000D02*
X3176000D01*
X3182000Y2193000D01*
Y2203000D01*
X3175500Y2209500D02*
X3182000Y2203000D01*
X3172000Y2239500D02*
X3174000Y2237500D01*
X3161000Y2239500D02*
X3172000D01*
X3161000Y2235000D02*
Y2239500D01*
X3143252D02*
X3161000D01*
X3164500Y2229500D02*
X3169803Y2233819D01*
X3135000Y2261000D02*
X3140500Y2266500D01*
X3135000Y2244500D02*
Y2261000D01*
Y2244500D02*
X3137000Y2242500D01*
X3142000D02*
X3144500Y2245000D01*
X3137000Y2242500D02*
X3142000D01*
X3140500Y2266500D02*
X3147500D01*
X3162500D01*
X3147500D02*
Y2271500D01*
X3174500Y2147000D02*
X3182000Y2154500D01*
Y2163000D01*
X3173500Y2149500D02*
X3179500Y2155500D01*
Y2162000D01*
X3075537Y2241027D02*
Y2258468D01*
Y2239527D02*
Y2241027D01*
Y2135027D02*
Y2152468D01*
Y2133527D02*
Y2135027D01*
X3042478Y2166027D02*
X3094978D01*
X3027015Y2171490D02*
X3100015D01*
X3075537Y2133527D02*
X3081537Y2127527D01*
X3013015Y2157490D02*
X3027015Y2171490D01*
X3081537Y2127527D02*
X3095537D01*
X3013015Y2123490D02*
Y2157490D01*
X3095537Y2127527D02*
X3100015Y2129490D01*
X3051574Y2126549D02*
Y2153027D01*
X3036015Y2110990D02*
X3051574Y2126549D01*
X2993515Y2123490D02*
Y2154490D01*
X3006015Y2110990D02*
X3036015D01*
X2993515Y2123490D02*
X3006015Y2110990D01*
X3094978Y2166027D02*
X3102015Y2158990D01*
Y2140990D02*
Y2158990D01*
X3095537Y2233527D02*
X3100015Y2235490D01*
X3081537Y2233527D02*
X3095537D01*
X3075537Y2239527D02*
X3081537Y2233527D01*
X3027015Y2277490D02*
X3100015D01*
X3013015Y2229490D02*
Y2263490D01*
X3027015Y2277490D01*
X2993515Y2229490D02*
Y2260490D01*
X3051574Y2232549D02*
Y2259027D01*
X3036015Y2216990D02*
X3051574Y2232549D01*
X2993515Y2229490D02*
X3006015Y2216990D01*
X3036015D01*
X3042478Y2272027D02*
X3094978D01*
X3095537Y2021527D02*
X3100015Y2023490D01*
X3081537Y2021527D02*
X3095537D01*
X3075537Y2029027D02*
Y2046468D01*
Y2027527D02*
Y2029027D01*
Y2027527D02*
X3081537Y2021527D01*
X3027015Y2065490D02*
X3100015D01*
X3013015Y2051490D02*
X3027015Y2065490D01*
X3013015Y2017490D02*
Y2051490D01*
X2993515Y2017490D02*
Y2048490D01*
X3051574Y2020549D02*
Y2047027D01*
X3036015Y2004990D02*
X3051574Y2020549D01*
X3006015Y2004990D02*
X3036015D01*
X2993515Y2017490D02*
X3006015Y2004990D01*
X3102015Y2034990D02*
Y2052990D01*
X3027015Y1959490D02*
X3100015D01*
X3013015Y1945490D02*
X3027015Y1959490D01*
X3013015Y1911490D02*
Y1945490D01*
X3051574Y1914549D02*
X3051575Y1939370D01*
X3036015Y1898990D02*
X3051574Y1914549D01*
X3006015Y1898990D02*
X3036015D01*
X2993515Y1911490D02*
X3006015Y1898990D01*
X2993515Y1911490D02*
Y1942490D01*
X3075537Y1923027D02*
Y1940468D01*
X3102015Y1928990D02*
Y1946990D01*
X3094978Y1954027D02*
X3102015Y1946990D01*
X3042478Y1954027D02*
X3094978D01*
X3095537Y1915527D02*
X3100015Y1917490D01*
X3081537Y1915527D02*
X3095537D01*
X3075537Y1921527D02*
X3081537Y1915527D01*
X3075537Y1921527D02*
Y1923027D01*
X2977000Y1936500D02*
X2987525D01*
X2984525Y2039500D02*
X2993515Y2048490D01*
X2977000Y2151575D02*
X2990600D01*
X2993515Y2154490D01*
X2984025Y2251000D02*
X2993515Y2260490D01*
X2977000Y2039500D02*
X2984525D01*
X3147217Y2160751D02*
X3148000Y2161500D01*
X3166000Y2270000D02*
Y2272500D01*
X3162500Y2266500D02*
X3166000Y2270000D01*
X2977500Y2251000D02*
X2984025D01*
X3154500Y2202500D02*
X3158500Y2198500D01*
X3168500Y2206000D02*
X3176000Y2198500D01*
X3155500Y2274500D02*
X3158000Y2272000D01*
X3169000Y2277500D02*
X3175000Y2271500D01*
X3166500Y2158500D02*
X3170591Y2161378D01*
X3018110Y1881102D02*
X3239853D01*
X3011811Y1874803D02*
X3018110Y1881102D01*
X3100015Y2129490D02*
X3116104D01*
X3102015Y2140990D02*
X3110979D01*
X3113386Y2138583D02*
Y2138976D01*
X3119500Y2130000D02*
X3121500Y2132000D01*
Y2185000D01*
X3090500Y2143500D02*
X3098567Y2135433D01*
X3134000Y1960000D02*
Y2131638D01*
X3151862Y2149500D01*
X3173500D01*
X3137000Y1967500D02*
Y2130701D01*
X3153299Y2147000D01*
X3174500D01*
X3140500Y1980000D02*
Y2130658D01*
X3153843Y2144000D01*
X3175500D01*
X3143500Y1989500D02*
Y2129720D01*
X3155280Y2141500D01*
X3176500D01*
X3148500Y2093500D02*
Y2128028D01*
X3232500Y1944000D02*
X3257805D01*
X3220435Y1956065D02*
X3232500Y1944000D01*
X3222500Y1944500D02*
X3224528Y1942472D01*
Y1938268D02*
Y1942472D01*
X3209500Y1953000D02*
X3216977D01*
X3233976Y1970000D01*
X3237500D01*
X3270118Y1949618D02*
X3271500Y1951000D01*
X3268000Y1949618D02*
X3270118Y1947500D01*
Y1942126D02*
Y1947500D01*
Y1949618D01*
X3174000Y1924500D02*
X3177500Y1921000D01*
X3225500D01*
X3228500Y1918000D01*
X3187500Y1924000D02*
X3223528D01*
X3223898Y1924370D01*
X3264500Y1918000D02*
X3265295Y1917205D01*
X3270000Y2062500D02*
X3275630Y2056870D01*
X3265295Y1917205D02*
X3271772D01*
X3239853Y1881102D02*
X3275630Y1916879D01*
Y2056870D01*
X3240500Y1877000D02*
X3277559Y1914059D01*
Y2060441D01*
X3272500Y2065500D02*
X3277559Y2060441D01*
X3271772Y1922441D02*
Y1923268D01*
X3226102Y1954685D02*
X3231169Y1949618D01*
X3268000D01*
X3270118Y1942126D02*
X3273504Y1938740D01*
X3257805Y1944000D02*
X3265825Y1935980D01*
X3269797D01*
X3225039Y1931929D02*
X3272323D01*
X3273386Y1932992D01*
X3273504Y1925000D02*
Y1938740D01*
X3271772Y1923268D02*
X3273504Y1925000D01*
X3173543Y2092559D02*
X3186941D01*
X3214000Y2065500D01*
X3161500Y2163500D02*
X3162764Y2164764D01*
X3176736D01*
X3179500Y2162000D01*
X3144000Y2165000D02*
X3144669Y2164331D01*
X3160669D01*
X3161500Y2163500D01*
D33*
X2983622Y1830354D02*
Y1844374D01*
X3069622Y1832378D02*
Y1844374D01*
X3007244Y1778425D02*
Y1788469D01*
X2960000D02*
X2967083D01*
X3046000D02*
X3053618D01*
X3093244Y1776677D02*
Y1788469D01*
X3077596Y1742036D02*
Y1749879D01*
X3053909Y1742036D02*
X3062635D01*
X3092557D02*
Y1750357D01*
X2969438Y1742036D02*
X2976635D01*
X2992047Y1742487D02*
Y1751221D01*
X2991596Y1742036D02*
X2992047Y1742487D01*
X3006557Y1742036D02*
Y1752420D01*
D34*
X3296535Y2286844D02*
D03*
Y2276844D02*
D03*
X3297244Y2243242D02*
D03*
Y2233242D02*
D03*
X3296890Y2158973D02*
D03*
Y2168973D02*
D03*
X3296181Y2202576D02*
D03*
Y2212576D02*
D03*
X3296535Y2137264D02*
D03*
Y2127264D02*
D03*
X3297244Y2093661D02*
D03*
Y2083661D02*
D03*
D35*
X3265945Y2291018D02*
D03*
Y2228341D02*
D03*
X3265591Y2154072D02*
D03*
Y2216749D02*
D03*
X3265945Y2141437D02*
D03*
Y2078760D02*
D03*
D36*
X3252953Y2242199D02*
D03*
X3242953Y2247199D02*
D03*
X3252953Y2252199D02*
D03*
X3242953Y2257199D02*
D03*
X3252953Y2262199D02*
D03*
X3242953Y2267199D02*
D03*
X3252953Y2272199D02*
D03*
X3242953Y2277199D02*
D03*
X3242598Y2202930D02*
D03*
X3252599Y2197930D02*
D03*
X3242598Y2192930D02*
D03*
X3252599Y2187930D02*
D03*
X3242598Y2182930D02*
D03*
X3252599Y2177930D02*
D03*
X3242598Y2172930D02*
D03*
X3252599Y2167930D02*
D03*
X3252953Y2092618D02*
D03*
X3242953Y2097618D02*
D03*
X3252953Y2102618D02*
D03*
X3242953Y2107618D02*
D03*
X3252953Y2112618D02*
D03*
X3242953Y2117618D02*
D03*
X3252953Y2122618D02*
D03*
X3242953Y2127618D02*
D03*
D37*
X3277953Y2236844D02*
D03*
Y2282514D02*
D03*
X3277599Y2208245D02*
D03*
Y2162576D02*
D03*
X3277953Y2087264D02*
D03*
Y2132933D02*
D03*
X3282811Y1715000D02*
D03*
X2937500D02*
D03*
Y2307500D02*
D03*
X3282811Y2309322D02*
D03*
D38*
X3287000Y1986000D02*
D03*
Y1996000D02*
D03*
Y1976000D02*
D03*
Y1966000D02*
D03*
Y1956000D02*
D03*
Y1946000D02*
D03*
X3152500Y1980500D02*
D03*
X3162500D02*
D03*
X3152500Y1970500D02*
D03*
X3162500D02*
D03*
X3152500Y1960500D02*
D03*
X3162500D02*
D03*
X3152500Y1950500D02*
D03*
X3162500D02*
D03*
X3152500Y1940500D02*
D03*
X2977500Y2231000D02*
D03*
Y2241000D02*
D03*
Y2251000D02*
D03*
Y2261000D02*
D03*
X2977000Y2131575D02*
D03*
Y2141575D02*
D03*
Y2151575D02*
D03*
Y2161575D02*
D03*
X2976500Y2093500D02*
D03*
Y2103500D02*
D03*
Y2049000D02*
D03*
Y2039000D02*
D03*
Y2029000D02*
D03*
Y2019000D02*
D03*
X2977000Y1946500D02*
D03*
Y1936500D02*
D03*
Y1926500D02*
D03*
Y1916500D02*
D03*
X3168500Y2066000D02*
D03*
D39*
X3287000Y2006000D02*
D03*
X3162500Y1940500D02*
D03*
X2977500Y2271000D02*
D03*
X2977000Y2171575D02*
D03*
X2976500Y2113500D02*
D03*
Y2059000D02*
D03*
X2977000Y1956500D02*
D03*
D40*
X3093244Y1788469D02*
D03*
X3046000D02*
D03*
Y1836500D02*
D03*
X3069622Y1844374D02*
D03*
X3093244Y1836500D02*
D03*
X3007244Y1788469D02*
D03*
X2960000D02*
D03*
Y1836500D02*
D03*
X2983622Y1844374D02*
D03*
X3007244Y1836500D02*
D03*
D41*
X3178500Y2066000D02*
D03*
D42*
X3267500Y2056216D02*
D03*
Y2038500D02*
D03*
X3293090Y2056216D02*
D03*
Y2038500D02*
D03*
D43*
X3092557Y1742036D02*
D03*
X3077596D02*
D03*
X3062635D02*
D03*
X3006557D02*
D03*
X2991596D02*
D03*
X2976635D02*
D03*
X3282500Y1819500D02*
D03*
Y1799815D02*
D03*
D44*
X3149000Y2234500D02*
D03*
X3169803Y2233819D02*
D03*
X3175000Y2271500D02*
D03*
X3158000Y2272000D02*
D03*
X3158500Y2198500D02*
D03*
X3148000Y2161500D02*
D03*
X3170591Y2161378D02*
D03*
X3176000Y2198500D02*
D03*
X3075537Y2135027D02*
D03*
X3013015Y2123490D02*
D03*
X3051574Y2153027D02*
D03*
X2993515Y2154490D02*
D03*
X3100015Y2171490D02*
D03*
X3102015Y2140990D02*
D03*
X3100015Y2129490D02*
D03*
X3037500Y2155500D02*
D03*
X3042478Y2166027D02*
D03*
X3013015Y2229490D02*
D03*
X3075537Y2241027D02*
D03*
X2993515Y2260490D02*
D03*
X3100015Y2277490D02*
D03*
X3102015Y2246990D02*
D03*
X3037000Y2261500D02*
D03*
X3100015Y2235490D02*
D03*
X3051574Y2259027D02*
D03*
X3042478Y2272027D02*
D03*
X3013015Y2017490D02*
D03*
X3075537Y2029027D02*
D03*
X2993515Y2048490D02*
D03*
X3100015Y2065490D02*
D03*
X3102015Y2034990D02*
D03*
X3037000Y2049500D02*
D03*
X3100015Y2023490D02*
D03*
X3051574Y2047027D02*
D03*
X3042478Y2060027D02*
D03*
X3102015Y1928990D02*
D03*
X3042478Y1954027D02*
D03*
X3037000Y1943500D02*
D03*
X3100015Y1959490D02*
D03*
X3013015Y1911490D02*
D03*
X3100015Y1917490D02*
D03*
X3075537Y1923027D02*
D03*
X2993515Y1942490D02*
D03*
X3051575Y1939370D02*
D03*
X3144000Y2165000D02*
D03*
X3161500Y2163500D02*
D03*
X3146000Y2199000D02*
D03*
X3166500Y2199500D02*
D03*
X3166000Y2272500D02*
D03*
X3147500Y2271500D02*
D03*
X3143252Y2239500D02*
D03*
X3161000Y2235000D02*
D03*
X3181500Y2128500D02*
D03*
X3109449Y2245551D02*
D03*
X3116929Y2135433D02*
D03*
X3219973Y2071000D02*
D03*
X3121000Y1910005D02*
D03*
X3119500Y1943500D02*
D03*
X3183500Y2053000D02*
D03*
X3170500Y2056000D02*
D03*
X3118500Y2045500D02*
D03*
X3117500Y2032000D02*
D03*
X3113500Y2096500D02*
D03*
X3192500Y1927037D02*
D03*
X3188500Y2143000D02*
D03*
X3149500Y2075000D02*
D03*
X3237500Y2030000D02*
D03*
X3224305Y1917305D02*
D03*
X3267000Y1972500D02*
D03*
X3237500Y1970000D02*
D03*
X3147500Y2025500D02*
D03*
X3188000Y2014500D02*
D03*
X3242088Y2013912D02*
D03*
X3257088Y1977088D02*
D03*
X3247088Y1976912D02*
D03*
X3227463Y1987537D02*
D03*
X3239037Y1961537D02*
D03*
X3170500Y2129500D02*
D03*
X3157500Y2128000D02*
D03*
X3163500Y2093000D02*
D03*
X3148500Y2093500D02*
D03*
X3037500Y1949000D02*
D03*
X3039000Y2054500D02*
D03*
X3036500Y2160500D02*
D03*
X3039000Y2267000D02*
D03*
X3136500Y2174000D02*
D03*
X3164500Y2216788D02*
D03*
X3139000Y2246000D02*
D03*
X3192500Y1936000D02*
D03*
X3192801Y1947037D02*
D03*
X3193000Y1955588D02*
D03*
Y1986138D02*
D03*
Y1994689D02*
D03*
X3192850Y1966739D02*
D03*
X3193000Y1975500D02*
D03*
X3238650Y1777000D02*
D03*
X3241150D02*
D03*
X3103378Y1877000D02*
D03*
X3011811Y1874803D02*
D03*
X3079345Y1875380D02*
D03*
X2992345Y1873110D02*
D03*
X3113386Y2138976D02*
D03*
X3151969Y2131102D02*
D03*
X3224528Y1938268D02*
D03*
X3225039Y1931929D02*
D03*
X3226102Y1954685D02*
D03*
X3270118Y1942126D02*
D03*
X3223898Y1924370D02*
D03*
X3271772Y1917205D02*
D03*
Y1923268D02*
D03*
X3269797Y1935980D02*
D03*
X3173543Y2092559D02*
D03*
D45*
X3282500Y1839185D02*
D03*
D46*
X3129500Y1829000D02*
D03*
X3127500Y1816000D02*
D03*
X3221400Y1801600D02*
D03*
Y1797600D02*
D03*
X3116600Y1811400D02*
D03*
X3247500Y1819000D02*
D03*
X3230500D02*
D03*
X3216500D02*
D03*
X3203500D02*
D03*
X3117000Y1797500D02*
D03*
X3234000Y1737284D02*
D03*
X3215500D02*
D03*
X3247500D02*
D03*
X3182500D02*
D03*
X3170000D02*
D03*
X3157402Y1736732D02*
D03*
X3144843Y1737284D02*
D03*
X3127000Y1742500D02*
D03*
Y1755000D02*
D03*
Y1767500D02*
D03*
X3176500Y1817000D02*
D03*
X3166500Y1822000D02*
D03*
Y1831000D02*
D03*
X3127500Y1803500D02*
D03*
Y1791000D02*
D03*
Y1778000D02*
D03*
D47*
X3294000Y1771500D02*
D03*
Y1777500D02*
D03*
Y1783500D02*
D03*
X3291500Y1745000D02*
D03*
M02*
