G04 Layer_Color=65535*
%FSLAX25Y25*%
%MOIN*%
G70*
G01*
G75*
%ADD29C,0.01000*%
%ADD48C,0.00984*%
%ADD49C,0.02362*%
%ADD50C,0.00600*%
%ADD51C,0.00394*%
%ADD52C,0.00787*%
%ADD53C,0.00800*%
%ADD54C,0.00700*%
D29*
X7278387Y4256578D02*
G03*
X7278392Y4256451I-1371J-119D01*
G01*
X7198596Y4164031D02*
G03*
X7198596Y4164031I-303J0D01*
G01*
X7184701Y4160588D02*
G03*
X7184701Y4160588I-1605J0D01*
G01*
X7032423Y4042036D02*
G03*
X7032423Y4042036I-2362J0D01*
G01*
X7017462D02*
G03*
X7017462Y4042036I-2362J0D01*
G01*
X7047384D02*
G03*
X7047384Y4042036I-2362J0D01*
G01*
X7118423D02*
G03*
X7118423Y4042036I-2362J0D01*
G01*
X7103462D02*
G03*
X7103462Y4042036I-2362J0D01*
G01*
X7133383D02*
G03*
X7133383Y4042036I-2362J0D01*
G01*
X7324438Y4347358D02*
G03*
X7324438Y4347358I-5678J0D01*
G01*
X7211213Y4076500D02*
G03*
X7211213Y4076500I-15748J0D01*
G01*
X6990591Y4072720D02*
Y4151461D01*
X7053583Y4072720D02*
Y4151461D01*
X6990591Y4072720D02*
X7053583D01*
X6990591Y4151461D02*
X7053583D01*
X7225315Y4071851D02*
X7231614D01*
X7287815Y4334850D02*
Y4341150D01*
X7112879Y4315628D02*
Y4321927D01*
X7038352Y4593377D02*
Y4599677D01*
Y4487377D02*
Y4493676D01*
Y4381377D02*
Y4387676D01*
Y4581590D02*
Y4587889D01*
Y4369590D02*
Y4375889D01*
X6993378Y4156413D02*
Y4162712D01*
X7076591Y4072720D02*
Y4151461D01*
X7139583Y4072720D02*
Y4151461D01*
X7076591Y4072720D02*
X7139583D01*
X7076591Y4151461D02*
X7139583D01*
X7080378Y4156887D02*
Y4163186D01*
X7038352Y4263590D02*
Y4269889D01*
Y4275377D02*
Y4281676D01*
Y4475590D02*
Y4481889D01*
X7113379Y4581628D02*
Y4587927D01*
X7112879Y4527628D02*
Y4533927D01*
X7113379Y4475628D02*
Y4481927D01*
X7112874Y4422047D02*
Y4428347D01*
X7113379Y4369439D02*
Y4375739D01*
X7112879Y4209628D02*
Y4215927D01*
X7113379Y4263628D02*
Y4269927D01*
X7216815Y4291539D02*
Y4297839D01*
Y4232837D02*
Y4239136D01*
Y4252438D02*
Y4258737D01*
Y4272350D02*
Y4278650D01*
D48*
X7190016Y4326630D02*
G03*
X7190016Y4326630I-492J0D01*
G01*
X7183949Y4401382D02*
G03*
X7183949Y4401382I-492J0D01*
G01*
Y4471882D02*
G03*
X7183949Y4471882I-492J0D01*
G01*
X7183874Y4543244D02*
G03*
X7183874Y4543244I-492J0D01*
G01*
X7134109Y4252983D02*
G03*
X7134109Y4252983I-492J0D01*
G01*
X7272305Y4285043D02*
G03*
X7272305Y4285043I-492J0D01*
G01*
X7134109Y4570984D02*
G03*
X7134109Y4570984I-492J0D01*
G01*
Y4464983D02*
G03*
X7134109Y4464983I-492J0D01*
G01*
Y4358984D02*
G03*
X7134109Y4358984I-492J0D01*
G01*
X7042129Y4167603D02*
G03*
X7042129Y4167603I-492J0D01*
G01*
X7129128Y4169080D02*
G03*
X7129128Y4169080I-492J0D01*
G01*
X7072734Y4242484D02*
G03*
X7072734Y4242484I-492J0D01*
G01*
Y4348484D02*
G03*
X7072734Y4348484I-492J0D01*
G01*
Y4454483D02*
G03*
X7072734Y4454483I-492J0D01*
G01*
Y4560484D02*
G03*
X7072734Y4560484I-492J0D01*
G01*
X7263630Y4355500D02*
G03*
X7263630Y4355500I-492J0D01*
G01*
D49*
X7128854Y4244617D02*
G03*
X7128854Y4244617I-1181J0D01*
G01*
X7278939Y4293409D02*
G03*
X7278939Y4293409I-1181J0D01*
G01*
X7128854Y4562617D02*
G03*
X7128854Y4562617I-1181J0D01*
G01*
Y4456617D02*
G03*
X7128854Y4456617I-1181J0D01*
G01*
Y4350617D02*
G03*
X7128854Y4350617I-1181J0D01*
G01*
X7067478Y4234117D02*
G03*
X7067478Y4234117I-1181J0D01*
G01*
Y4340117D02*
G03*
X7067478Y4340117I-1181J0D01*
G01*
Y4446117D02*
G03*
X7067478Y4446117I-1181J0D01*
G01*
Y4552117D02*
G03*
X7067478Y4552117I-1181J0D01*
G01*
D50*
X7278315Y4070900D02*
G03*
X7277713Y4071940I-1200J0D01*
G01*
X7276516D02*
G03*
X7275915Y4070900I599J-1040D01*
G01*
X7271014Y4083100D02*
X7283215D01*
X7271014Y4070900D02*
X7283215D01*
D51*
X7338681Y4089972D02*
Y4091941D01*
X7303248Y4089972D02*
Y4091862D01*
Y4089972D02*
X7338681D01*
Y4091941D02*
Y4149028D01*
X7303248D02*
X7338681D01*
X7303248Y4091862D02*
Y4149028D01*
X7126260Y4492126D02*
X7128229Y4494094D01*
X7126260Y4492126D02*
Y4493701D01*
Y4492126D02*
Y4493701D01*
Y4492126D02*
X7127441D01*
X7128622Y4494488D02*
X7140827D01*
X7128229Y4494094D02*
X7128622Y4494488D01*
X7083740Y4523228D02*
Y4534646D01*
Y4523228D02*
X7085709Y4521260D01*
Y4522835D01*
X7084528Y4521260D02*
X7085709D01*
X7084921Y4414567D02*
X7086102D01*
Y4416142D01*
X7084134Y4416536D02*
X7086102Y4414567D01*
X7084134Y4416536D02*
Y4427953D01*
X7085709Y4381102D02*
X7086890D01*
Y4382677D01*
X7084921Y4383071D02*
X7086890Y4381102D01*
X7084921Y4383071D02*
Y4394488D01*
X7127441Y4283071D02*
X7140827D01*
X7127047Y4282677D02*
X7127441Y4283071D01*
X7127047Y4280709D02*
Y4282677D01*
X7125866Y4279528D02*
X7127047Y4280709D01*
X7125866Y4279528D02*
Y4281496D01*
Y4279528D02*
X7127834D01*
X7084921Y4309843D02*
X7086102D01*
Y4311417D01*
X7084134Y4311811D02*
X7086102Y4309843D01*
X7084134Y4311811D02*
Y4323228D01*
X7150381Y4136259D02*
Y4161463D01*
Y4136259D02*
X7150456Y4136335D01*
X7199133D01*
X7199058Y4136410D02*
X7199133Y4136335D01*
X7199058Y4136410D02*
Y4162364D01*
X7199055Y4162366D02*
X7199058Y4162364D01*
X7150456Y4162366D02*
X7199055D01*
X7150381Y4161463D02*
Y4162291D01*
X7150456Y4162366D01*
X7107925Y4302927D02*
X7124460D01*
Y4295053D02*
Y4302927D01*
X7107925Y4295053D02*
X7124460D01*
X7107925D02*
Y4302927D01*
X7305768Y4359169D02*
X7331752D01*
X7305768Y4335547D02*
X7332146D01*
X7331555Y4338500D02*
Y4356216D01*
X7305965Y4338500D02*
Y4356216D01*
X7056212Y4521053D02*
X7072747D01*
X7056212D02*
Y4528927D01*
X7072747D01*
Y4521053D02*
Y4528927D01*
X7056212Y4203053D02*
X7072747D01*
X7056212D02*
Y4210927D01*
X7072747D01*
Y4203053D02*
Y4210927D01*
X7108424Y4289927D02*
X7124960D01*
Y4282053D02*
Y4289927D01*
X7108424Y4282053D02*
X7124960D01*
X7108424D02*
Y4289927D01*
X7055234Y4568090D02*
X7071769D01*
X7055234D02*
Y4575964D01*
X7071769D01*
Y4568090D02*
Y4575964D01*
X7055234Y4462090D02*
X7071769D01*
X7055234D02*
Y4469964D01*
X7071769D01*
Y4462090D02*
Y4469964D01*
X7055234Y4356090D02*
X7071769D01*
X7055234D02*
Y4363964D01*
X7071769D01*
Y4356090D02*
Y4363964D01*
X7055234Y4250090D02*
X7071769D01*
X7055234D02*
Y4257964D01*
X7071769D01*
Y4250090D02*
Y4257964D01*
X7327181Y4621133D02*
X7327575D01*
X7333086Y4615621D01*
Y4609322D02*
Y4615621D01*
X7315370Y4621133D02*
X7327575D01*
X7309858Y4615621D02*
X7315370Y4621133D01*
X7309858Y4608141D02*
Y4615621D01*
X7327181Y4597511D02*
X7327575D01*
X7333086Y4603023D01*
Y4609322D01*
X7315370Y4597511D02*
X7327575D01*
X7309858Y4603023D02*
X7315370Y4597511D01*
X7309858Y4603023D02*
Y4608928D01*
Y4603023D02*
Y4608928D01*
Y4603023D02*
X7315370Y4597511D01*
X7327575D01*
X7333086Y4603023D02*
Y4609322D01*
X7327575Y4597511D02*
X7333086Y4603023D01*
X7327181Y4597511D02*
X7327575D01*
X6981870Y4595689D02*
X6982264D01*
X6987775Y4601201D01*
Y4607500D01*
X6970059Y4595689D02*
X6982264D01*
X6964547Y4601201D02*
X6970059Y4595689D01*
X6964547Y4601201D02*
Y4607106D01*
Y4601201D02*
Y4607106D01*
Y4601201D02*
X6970059Y4595689D01*
X6982264D01*
X6987775Y4601201D02*
Y4607500D01*
X6982264Y4595689D02*
X6987775Y4601201D01*
X6981870Y4595689D02*
X6982264D01*
X6964547Y4606319D02*
Y4613799D01*
X6970059Y4619311D01*
X6982264D01*
X6987775Y4607500D02*
Y4613799D01*
X6982264Y4619311D02*
X6987775Y4613799D01*
X6981870Y4619311D02*
X6982264D01*
X6981870Y4026811D02*
X6982264D01*
X6987775Y4021299D01*
Y4015000D02*
Y4021299D01*
X6970059Y4026811D02*
X6982264D01*
X6964547Y4021299D02*
X6970059Y4026811D01*
X6964547Y4013819D02*
Y4021299D01*
X6981870Y4003189D02*
X6982264D01*
X6987775Y4008701D01*
Y4015000D01*
X6970059Y4003189D02*
X6982264D01*
X6964547Y4008701D02*
X6970059Y4003189D01*
X6964547Y4008701D02*
Y4014606D01*
Y4008701D02*
Y4014606D01*
Y4008701D02*
X6970059Y4003189D01*
X6982264D01*
X6987775Y4008701D02*
Y4015000D01*
X6982264Y4003189D02*
X6987775Y4008701D01*
X6981870Y4003189D02*
X6982264D01*
X7309464Y4008701D02*
Y4009095D01*
Y4008701D02*
X7314977Y4003189D01*
X7321275D01*
X7309464Y4008701D02*
Y4020906D01*
X7314977Y4026417D01*
X7320882D01*
X7314977D02*
X7320882D01*
X7309464Y4020906D02*
X7314977Y4026417D01*
X7309464Y4008701D02*
Y4020906D01*
X7314977Y4003189D02*
X7321275D01*
X7309464Y4008701D02*
X7314977Y4003189D01*
X7309464Y4008701D02*
Y4009095D01*
X7320094Y4026417D02*
X7327575D01*
X7333086Y4020906D01*
Y4008701D02*
Y4020906D01*
X7321275Y4003189D02*
X7327575D01*
X7333086Y4008701D01*
Y4009095D01*
X7086649Y4196927D02*
X7103185D01*
Y4189053D02*
Y4196927D01*
X7086649Y4189053D02*
X7103185D01*
X7086649D02*
Y4196927D01*
X7107925D02*
X7124460D01*
Y4189053D02*
Y4196927D01*
X7107925Y4189053D02*
X7124460D01*
X7107925D02*
Y4196927D01*
X7056212Y4309053D02*
X7072747D01*
X7056212D02*
Y4316927D01*
X7072747D01*
Y4309053D02*
Y4316927D01*
X7056212Y4415053D02*
X7072747D01*
X7056212D02*
Y4422927D01*
X7072747D01*
Y4415053D02*
Y4422927D01*
X7087149Y4607927D02*
X7103684D01*
Y4600053D02*
Y4607927D01*
X7087149Y4600053D02*
X7103684D01*
X7087149D02*
Y4607927D01*
X7108424D02*
X7124960D01*
Y4600053D02*
Y4607927D01*
X7108424Y4600053D02*
X7124960D01*
X7108424D02*
Y4607927D01*
X7086649Y4514927D02*
X7103185D01*
Y4507053D02*
Y4514927D01*
X7086649Y4507053D02*
X7103185D01*
X7086649D02*
Y4514927D01*
X7087149Y4501927D02*
X7103684D01*
Y4494053D02*
Y4501927D01*
X7087149Y4494053D02*
X7103684D01*
X7087149D02*
Y4501927D01*
X7107925Y4514927D02*
X7124460D01*
Y4507053D02*
Y4514927D01*
X7107925Y4507053D02*
X7124460D01*
X7107925D02*
Y4514927D01*
X7108424Y4501927D02*
X7124960D01*
Y4494053D02*
Y4501927D01*
X7108424Y4494053D02*
X7124960D01*
X7108424D02*
Y4501927D01*
X7086649Y4408927D02*
X7103185D01*
Y4401053D02*
Y4408927D01*
X7086649Y4401053D02*
X7103185D01*
X7086649D02*
Y4408927D01*
X7087149Y4395927D02*
X7103684D01*
Y4388053D02*
Y4395927D01*
X7087149Y4388053D02*
X7103684D01*
X7087149D02*
Y4395927D01*
X7107925Y4408927D02*
X7124460D01*
Y4401053D02*
Y4408927D01*
X7107925Y4401053D02*
X7124460D01*
X7107925D02*
Y4408927D01*
X7108543Y4396457D02*
X7125079D01*
Y4388583D02*
Y4396457D01*
X7108543Y4388583D02*
X7125079D01*
X7108543D02*
Y4396457D01*
X7087149Y4289927D02*
X7103684D01*
Y4282053D02*
Y4289927D01*
X7087149Y4282053D02*
X7103684D01*
X7087149D02*
Y4289927D01*
X7086649Y4302927D02*
X7103185D01*
Y4295053D02*
Y4302927D01*
X7086649Y4295053D02*
X7103185D01*
X7086649D02*
Y4302927D01*
X7277500Y4435452D02*
X7297166D01*
Y4385430D02*
Y4435303D01*
X7277500Y4385369D02*
X7297166D01*
X7353091Y4378602D02*
Y4441594D01*
X7277500Y4373661D02*
Y4441594D01*
Y4373661D02*
X7326693D01*
X7277500Y4446535D02*
X7326693D01*
X7277500Y4441594D02*
Y4446535D01*
X7326693Y4373661D02*
X7353209D01*
X7353091Y4373780D02*
X7353209Y4373661D01*
X7353091Y4373780D02*
Y4378602D01*
X7326693Y4446535D02*
X7353248D01*
X7353091Y4446378D02*
X7353248Y4446535D01*
X7353091Y4441594D02*
Y4446378D01*
X7352736Y4516906D02*
Y4521690D01*
X7352894Y4521848D01*
X7326339D02*
X7352894D01*
X7352736Y4449092D02*
Y4453914D01*
Y4449092D02*
X7352854Y4448973D01*
X7326339D02*
X7352854D01*
X7277145Y4516906D02*
Y4521848D01*
X7326339D01*
X7277145Y4448973D02*
X7326339D01*
X7277145D02*
Y4516906D01*
X7352736Y4453914D02*
Y4516906D01*
X7277145Y4460681D02*
X7296811D01*
Y4460742D02*
Y4510615D01*
X7277145Y4510764D02*
X7296811D01*
X7277500Y4585033D02*
X7297166D01*
Y4535011D02*
Y4584883D01*
X7277500Y4534949D02*
X7297166D01*
X7353091Y4528183D02*
Y4591175D01*
X7277500Y4523242D02*
Y4591175D01*
Y4523242D02*
X7326693D01*
X7277500Y4596116D02*
X7326693D01*
X7277500Y4591175D02*
Y4596116D01*
X7326693Y4523242D02*
X7353209D01*
X7353091Y4523360D02*
X7353209Y4523242D01*
X7353091Y4523360D02*
Y4528183D01*
X7326693Y4596116D02*
X7353248D01*
X7353091Y4595959D02*
X7353248Y4596116D01*
X7353091Y4591175D02*
Y4595959D01*
X6990465Y4156762D02*
Y4154400D01*
Y4155187D01*
X6992039Y4156762D01*
X6990858Y4155581D01*
X6992039Y4154400D01*
X6994400D02*
X6992826D01*
X6994400Y4155974D01*
Y4156368D01*
X6994006Y4156762D01*
X6993220D01*
X6992826Y4156368D01*
X7305039Y4153568D02*
X7304646Y4153962D01*
X7303858D01*
X7303465Y4153568D01*
Y4153174D01*
X7303858Y4152781D01*
X7304646D01*
X7305039Y4152387D01*
Y4151994D01*
X7304646Y4151600D01*
X7303858D01*
X7303465Y4151994D01*
X7305826Y4153962D02*
Y4151994D01*
X7306219Y4151600D01*
X7307007D01*
X7307401Y4151994D01*
Y4153962D01*
X7308188Y4151600D02*
Y4153962D01*
X7309368D01*
X7309762Y4153568D01*
Y4152781D01*
X7309368Y4152387D01*
X7308188D01*
X7310549Y4151600D02*
Y4153962D01*
X7311729D01*
X7312123Y4153568D01*
Y4152781D01*
X7311729Y4152387D01*
X7310549D01*
X7312910Y4153962D02*
Y4151600D01*
X7314484D01*
X7315272Y4153962D02*
Y4153568D01*
X7316059Y4152781D01*
X7316846Y4153568D01*
Y4153962D01*
X7316059Y4152781D02*
Y4151600D01*
X7204465Y4458200D02*
Y4460955D01*
X7205842D01*
X7206301Y4460496D01*
Y4459578D01*
X7205842Y4459118D01*
X7204465D01*
X7205383D02*
X7206301Y4458200D01*
X7207220D02*
X7208138D01*
X7207679D01*
Y4460955D01*
X7207220Y4460496D01*
X7209515Y4458659D02*
X7209975Y4458200D01*
X7210893D01*
X7211352Y4458659D01*
Y4460496D01*
X7210893Y4460955D01*
X7209975D01*
X7209515Y4460496D01*
Y4460037D01*
X7209975Y4459578D01*
X7211352D01*
X7190827Y4457480D02*
Y4460235D01*
X7192204D01*
X7192664Y4459776D01*
Y4458858D01*
X7192204Y4458399D01*
X7190827D01*
X7191745D02*
X7192664Y4457480D01*
X7195419D02*
X7193582D01*
X7195419Y4459317D01*
Y4459776D01*
X7194959Y4460235D01*
X7194041D01*
X7193582Y4459776D01*
X7196337D02*
X7196796Y4460235D01*
X7197714D01*
X7198174Y4459776D01*
Y4457940D01*
X7197714Y4457480D01*
X7196796D01*
X7196337Y4457940D01*
Y4459776D01*
X7204465Y4513300D02*
Y4516055D01*
X7205842D01*
X7206301Y4515596D01*
Y4514677D01*
X7205842Y4514218D01*
X7204465D01*
X7205383D02*
X7206301Y4513300D01*
X7209056D02*
X7207220D01*
X7209056Y4515137D01*
Y4515596D01*
X7208597Y4516055D01*
X7207679D01*
X7207220Y4515596D01*
X7209975Y4513300D02*
X7210893D01*
X7210434D01*
Y4516055D01*
X7209975Y4515596D01*
X7185265Y4513400D02*
Y4516155D01*
X7186642D01*
X7187101Y4515696D01*
Y4514777D01*
X7186642Y4514318D01*
X7185265D01*
X7186183D02*
X7187101Y4513400D01*
X7189856D02*
X7188020D01*
X7189856Y4515237D01*
Y4515696D01*
X7189397Y4516155D01*
X7188479D01*
X7188020Y4515696D01*
X7192611Y4513400D02*
X7190775D01*
X7192611Y4515237D01*
Y4515696D01*
X7192152Y4516155D01*
X7191234D01*
X7190775Y4515696D01*
X7190827Y4531890D02*
Y4534645D01*
X7192204D01*
X7192664Y4534185D01*
Y4533267D01*
X7192204Y4532808D01*
X7190827D01*
X7191745D02*
X7192664Y4531890D01*
X7195419D02*
X7193582D01*
X7195419Y4533727D01*
Y4534185D01*
X7194959Y4534645D01*
X7194041D01*
X7193582Y4534185D01*
X7196337D02*
X7196796Y4534645D01*
X7197714D01*
X7198174Y4534185D01*
Y4533727D01*
X7197714Y4533267D01*
X7197255D01*
X7197714D01*
X7198174Y4532808D01*
Y4532349D01*
X7197714Y4531890D01*
X7196796D01*
X7196337Y4532349D01*
X7212086Y4531890D02*
Y4534645D01*
X7213464D01*
X7213924Y4534185D01*
Y4533267D01*
X7213464Y4532808D01*
X7212086D01*
X7213005D02*
X7213924Y4531890D01*
X7216679D02*
X7214841D01*
X7216679Y4533727D01*
Y4534185D01*
X7216219Y4534645D01*
X7215301D01*
X7214841Y4534185D01*
X7218974Y4531890D02*
Y4534645D01*
X7217596Y4533267D01*
X7219434D01*
X7211299Y4585433D02*
Y4588188D01*
X7212677D01*
X7213136Y4587729D01*
Y4586811D01*
X7212677Y4586351D01*
X7211299D01*
X7212218D02*
X7213136Y4585433D01*
X7215891D02*
X7214054D01*
X7215891Y4587270D01*
Y4587729D01*
X7215432Y4588188D01*
X7214513D01*
X7214054Y4587729D01*
X7218646Y4588188D02*
X7216809D01*
Y4586811D01*
X7217728Y4587270D01*
X7218187D01*
X7218646Y4586811D01*
Y4585892D01*
X7218187Y4585433D01*
X7217268D01*
X7216809Y4585892D01*
X7190827Y4585827D02*
Y4588582D01*
X7192204D01*
X7192664Y4588123D01*
Y4587204D01*
X7192204Y4586745D01*
X7190827D01*
X7191745D02*
X7192664Y4585827D01*
X7195419D02*
X7193582D01*
X7195419Y4587664D01*
Y4588123D01*
X7194959Y4588582D01*
X7194041D01*
X7193582Y4588123D01*
X7198174Y4588582D02*
X7197255Y4588123D01*
X7196337Y4587204D01*
Y4586286D01*
X7196796Y4585827D01*
X7197714D01*
X7198174Y4586286D01*
Y4586745D01*
X7197714Y4587204D01*
X7196337D01*
X7238464Y4373228D02*
Y4375983D01*
X7239842D01*
X7240302Y4375524D01*
Y4374606D01*
X7239842Y4374147D01*
X7238464D01*
X7239383D02*
X7240302Y4373228D01*
X7243056Y4375983D02*
X7241219D01*
Y4374606D01*
X7242138Y4375065D01*
X7242597D01*
X7243056Y4374606D01*
Y4373687D01*
X7242597Y4373228D01*
X7241679D01*
X7241219Y4373687D01*
X7203764Y4392800D02*
Y4395555D01*
X7205142D01*
X7205602Y4395096D01*
Y4394178D01*
X7205142Y4393718D01*
X7203764D01*
X7204683D02*
X7205602Y4392800D01*
X7206519D02*
X7207438D01*
X7206979D01*
Y4395555D01*
X7206519Y4395096D01*
X7210652Y4392800D02*
X7208816D01*
X7210652Y4394637D01*
Y4395096D01*
X7210193Y4395555D01*
X7209274D01*
X7208816Y4395096D01*
X7195945Y4436221D02*
X7193190D01*
Y4437598D01*
X7193649Y4438057D01*
X7194567D01*
X7195026Y4437598D01*
Y4436221D01*
Y4437139D02*
X7195945Y4438057D01*
Y4438976D02*
Y4439894D01*
Y4439435D01*
X7193190D01*
X7193649Y4438976D01*
Y4441271D02*
X7193190Y4441730D01*
Y4442649D01*
X7193649Y4443108D01*
X7194108D01*
X7194567Y4442649D01*
X7195026Y4443108D01*
X7195486D01*
X7195945Y4442649D01*
Y4441730D01*
X7195486Y4441271D01*
X7195026D01*
X7194567Y4441730D01*
X7194108Y4441271D01*
X7193649D01*
X7194567Y4441730D02*
Y4442649D01*
X7188960Y4355661D02*
Y4353694D01*
X7189353Y4353300D01*
X7190141D01*
X7190534Y4353694D01*
Y4355661D01*
X7191322Y4353300D02*
X7192108D01*
X7191715D01*
Y4355661D01*
X7191322Y4355268D01*
X7193289D02*
X7193683Y4355661D01*
X7194470D01*
X7194863Y4355268D01*
Y4353694D01*
X7194470Y4353300D01*
X7193683D01*
X7193289Y4353694D01*
Y4355268D01*
X7225165Y4088361D02*
Y4086000D01*
X7226345D01*
X7226739Y4086394D01*
Y4087968D01*
X7226345Y4088361D01*
X7225165D01*
X7227526Y4087968D02*
X7227920Y4088361D01*
X7228706D01*
X7229100Y4087968D01*
Y4087574D01*
X7228706Y4087181D01*
X7228313D01*
X7228706D01*
X7229100Y4086787D01*
Y4086394D01*
X7228706Y4086000D01*
X7227920D01*
X7227526Y4086394D01*
X7229887Y4087968D02*
X7230281Y4088361D01*
X7231068D01*
X7231461Y4087968D01*
Y4087574D01*
X7231068Y4087181D01*
X7230675D01*
X7231068D01*
X7231461Y4086787D01*
Y4086394D01*
X7231068Y4086000D01*
X7230281D01*
X7229887Y4086394D01*
X7270354Y4065749D02*
Y4067717D01*
X7269961Y4068110D01*
X7269173D01*
X7268780Y4067717D01*
Y4065749D01*
X7267993Y4068110D02*
X7267206D01*
X7267599D01*
Y4065749D01*
X7267993Y4066142D01*
X7298965Y4079400D02*
Y4081762D01*
X7300145D01*
X7300539Y4081368D01*
Y4080581D01*
X7300145Y4080187D01*
X7298965D01*
X7299752D02*
X7300539Y4079400D01*
X7301720Y4081368D02*
Y4080974D01*
X7301326D01*
X7302113D01*
X7301720D01*
Y4079794D01*
X7302113Y4079400D01*
X7303294D02*
X7304081D01*
X7303687D01*
Y4081762D01*
X7303294Y4081368D01*
X7243583Y4102362D02*
Y4104724D01*
X7244763D01*
X7245157Y4104330D01*
Y4103543D01*
X7244763Y4103149D01*
X7243583D01*
X7244370D02*
X7245157Y4102362D01*
X7245944D02*
X7247124D01*
X7247518Y4102756D01*
X7247124Y4103149D01*
X7246338D01*
X7245944Y4103543D01*
X7246338Y4103936D01*
X7247518D01*
X7248306Y4102362D02*
Y4103936D01*
X7249487D01*
X7249880Y4103543D01*
Y4102362D01*
X7250667D02*
X7251848D01*
X7252242Y4102756D01*
X7251848Y4103149D01*
X7251060D01*
X7250667Y4103543D01*
X7251060Y4103936D01*
X7252242D01*
X7253028Y4102362D02*
X7253815D01*
X7253422D01*
Y4104724D01*
X7253028Y4104330D01*
X7249764Y4159800D02*
Y4162162D01*
X7250945D01*
X7251339Y4161768D01*
Y4160981D01*
X7250945Y4160587D01*
X7249764D01*
X7250552D02*
X7251339Y4159800D01*
X7252126Y4162162D02*
X7253700D01*
Y4161768D01*
X7252126Y4160194D01*
Y4159800D01*
X7254488Y4161768D02*
X7254881Y4162162D01*
X7255668D01*
X7256062Y4161768D01*
Y4161374D01*
X7255668Y4160981D01*
X7255275D01*
X7255668D01*
X7256062Y4160587D01*
Y4160194D01*
X7255668Y4159800D01*
X7254881D01*
X7254488Y4160194D01*
X7292401Y4101574D02*
X7292007Y4101968D01*
X7291220D01*
X7290827Y4101574D01*
Y4100000D01*
X7291220Y4099606D01*
X7292007D01*
X7292401Y4100000D01*
X7293188Y4099606D02*
X7294369D01*
X7294762Y4100000D01*
X7294369Y4100394D01*
X7293582D01*
X7293188Y4100787D01*
X7293582Y4101181D01*
X7294762D01*
X7295550Y4099606D02*
X7296730D01*
X7297124Y4100000D01*
X7296730Y4100394D01*
X7295943D01*
X7295550Y4100787D01*
X7295943Y4101181D01*
X7297124D01*
X7297911Y4099606D02*
X7298698D01*
X7298305D01*
Y4101968D01*
X7297911Y4101574D01*
X7182558Y4087402D02*
X7182952Y4087796D01*
Y4088583D01*
X7182558Y4088976D01*
X7180984D01*
X7180591Y4088583D01*
Y4087796D01*
X7180984Y4087402D01*
X7180591Y4086221D02*
Y4085434D01*
X7180984Y4085041D01*
X7181771D01*
X7182165Y4085434D01*
Y4086221D01*
X7181771Y4086615D01*
X7180984D01*
X7180591Y4086221D01*
X7182165Y4084253D02*
X7180984D01*
X7180591Y4083860D01*
Y4082679D01*
X7182165D01*
X7182558Y4081498D02*
X7182165D01*
Y4081892D01*
Y4081105D01*
Y4081498D01*
X7180984D01*
X7180591Y4081105D01*
Y4079924D02*
Y4079137D01*
Y4079531D01*
X7182952D01*
X7182558Y4079924D01*
X7274684Y4059842D02*
X7274291Y4060236D01*
X7273504D01*
X7273110Y4059842D01*
Y4058268D01*
X7273504Y4057874D01*
X7274291D01*
X7274684Y4058268D01*
X7275471Y4057874D02*
X7276259D01*
X7275865D01*
Y4059448D01*
X7275471D01*
X7277440Y4057874D02*
Y4059448D01*
X7278620D01*
X7279014Y4059055D01*
Y4057874D01*
X7279801Y4059448D02*
X7281375Y4057874D01*
X7280588Y4058661D01*
X7281375Y4059448D01*
X7279801Y4057874D01*
X7282162D02*
X7282950D01*
X7282556D01*
Y4060236D01*
X7282162Y4059842D01*
X7318239Y4069368D02*
X7317845Y4069762D01*
X7317058D01*
X7316665Y4069368D01*
Y4067794D01*
X7317058Y4067400D01*
X7317845D01*
X7318239Y4067794D01*
X7319026Y4067400D02*
X7319814D01*
X7319420D01*
Y4068974D01*
X7319026D01*
X7320994Y4067400D02*
Y4068974D01*
X7322175D01*
X7322569Y4068581D01*
Y4067400D01*
X7323355Y4069368D02*
X7323749Y4069762D01*
X7324536D01*
X7324930Y4069368D01*
Y4068974D01*
X7324536Y4068581D01*
X7324142D01*
X7324536D01*
X7324930Y4068187D01*
Y4067794D01*
X7324536Y4067400D01*
X7323749D01*
X7323355Y4067794D01*
X7252812Y4065805D02*
X7252419Y4066198D01*
X7251631D01*
X7251237Y4065805D01*
Y4064231D01*
X7251631Y4063837D01*
X7252419D01*
X7252812Y4064231D01*
X7253600Y4066198D02*
Y4063837D01*
X7254780D01*
X7255173Y4064231D01*
Y4064624D01*
Y4065018D01*
X7254780Y4065411D01*
X7253600D01*
X7255961Y4063837D02*
X7257141D01*
X7257535Y4064231D01*
X7257141Y4064624D01*
X7256355D01*
X7255961Y4065018D01*
X7256355Y4065411D01*
X7257535D01*
X7258716Y4065805D02*
Y4065411D01*
X7258322D01*
X7259109D01*
X7258716D01*
Y4064231D01*
X7259109Y4063837D01*
X7260290D02*
X7261077D01*
X7260683D01*
Y4066198D01*
X7260290Y4065805D01*
X7207362Y4165747D02*
X7206968Y4166141D01*
X7206181D01*
X7205788Y4165747D01*
Y4164173D01*
X7206181Y4163779D01*
X7206968D01*
X7207362Y4164173D01*
X7209329Y4163779D02*
Y4166141D01*
X7208149Y4164960D01*
X7209723D01*
X7212085Y4163779D02*
X7210510D01*
X7212085Y4165354D01*
Y4165747D01*
X7211691Y4166141D01*
X7210904D01*
X7210510Y4165747D01*
X7182952Y4098032D02*
X7183346Y4098426D01*
Y4099213D01*
X7182952Y4099606D01*
X7181378D01*
X7180984Y4099213D01*
Y4098426D01*
X7181378Y4098032D01*
X7180984Y4097245D02*
Y4096458D01*
Y4096851D01*
X7183346D01*
X7182952Y4097245D01*
X7180984Y4093703D02*
Y4095277D01*
X7182558Y4093703D01*
X7182952D01*
X7183346Y4094096D01*
Y4094883D01*
X7182952Y4095277D01*
X7182165Y4109449D02*
X7182558Y4109843D01*
Y4110630D01*
X7182165Y4111024D01*
X7180590D01*
X7180197Y4110630D01*
Y4109843D01*
X7180590Y4109449D01*
X7180197Y4108662D02*
Y4107875D01*
Y4108269D01*
X7182558D01*
X7182165Y4108662D01*
X7180197Y4106694D02*
Y4105907D01*
Y4106301D01*
X7182558D01*
X7182165Y4106694D01*
X7182952Y4124016D02*
X7183346Y4124410D01*
Y4125197D01*
X7182952Y4125591D01*
X7181378D01*
X7180984Y4125197D01*
Y4124410D01*
X7181378Y4124016D01*
X7180984Y4123229D02*
Y4122442D01*
Y4122836D01*
X7183346D01*
X7182952Y4123229D01*
Y4121261D02*
X7183346Y4120868D01*
Y4120081D01*
X7182952Y4119687D01*
X7181378D01*
X7180984Y4120081D01*
Y4120868D01*
X7181378Y4121261D01*
X7182952D01*
X7003031Y4405118D02*
X7000670D01*
Y4406299D01*
X7001064Y4406693D01*
X7001851D01*
X7002245Y4406299D01*
Y4405118D01*
X7000670Y4407479D02*
Y4409054D01*
X7001064D01*
X7002638Y4407479D01*
X7003031D01*
X7031773Y4225591D02*
X7033740D01*
X7034134Y4225984D01*
Y4226771D01*
X7033740Y4227165D01*
X7031773D01*
X7032166Y4227952D02*
X7031773Y4228345D01*
Y4229133D01*
X7032166Y4229526D01*
X7032560D01*
X7032953Y4229133D01*
Y4228739D01*
Y4229133D01*
X7033347Y4229526D01*
X7033740D01*
X7034134Y4229133D01*
Y4228345D01*
X7033740Y4227952D01*
X7034134Y4230313D02*
X7033740D01*
Y4230707D01*
X7034134D01*
Y4230313D01*
X7031773Y4232281D02*
X7034134D01*
Y4233462D01*
X7033740Y4233855D01*
X7032166D01*
X7031773Y4233462D01*
Y4232281D01*
Y4234643D02*
Y4236217D01*
Y4235430D01*
X7034134D01*
Y4237004D02*
X7032560D01*
X7031773Y4237791D01*
X7032560Y4238578D01*
X7034134D01*
X7032953D01*
Y4237004D01*
X7135314Y4248819D02*
X7133347D01*
X7132953Y4248425D01*
Y4247638D01*
X7133347Y4247245D01*
X7135314D01*
X7132953Y4245277D02*
X7135314D01*
X7134133Y4246458D01*
Y4244883D01*
X7132953Y4244096D02*
X7133347D01*
Y4243702D01*
X7132953D01*
Y4244096D01*
X7135314Y4242128D02*
X7132953D01*
Y4240947D01*
X7133347Y4240554D01*
X7134921D01*
X7135314Y4240947D01*
Y4242128D01*
Y4239767D02*
Y4238192D01*
Y4238980D01*
X7132953D01*
Y4237405D02*
X7134527D01*
X7135314Y4236618D01*
X7134527Y4235831D01*
X7132953D01*
X7134133D01*
Y4237405D01*
X7150565Y4169561D02*
Y4167594D01*
X7150958Y4167200D01*
X7151746D01*
X7152139Y4167594D01*
Y4169561D01*
X7154501D02*
X7153713Y4169168D01*
X7152926Y4168381D01*
Y4167594D01*
X7153320Y4167200D01*
X7154107D01*
X7154501Y4167594D01*
Y4167987D01*
X7154107Y4168381D01*
X7152926D01*
X7006464Y4066100D02*
Y4068462D01*
X7007645D01*
X7008039Y4068068D01*
Y4067281D01*
X7007645Y4066887D01*
X7006464D01*
X7010007Y4066100D02*
Y4068462D01*
X7008826Y4067281D01*
X7010400D01*
X7092464Y4066100D02*
Y4068462D01*
X7093645D01*
X7094039Y4068068D01*
Y4067281D01*
X7093645Y4066887D01*
X7092464D01*
X7094826Y4068068D02*
X7095219Y4068462D01*
X7096007D01*
X7096400Y4068068D01*
Y4067674D01*
X7096007Y4067281D01*
X7095613D01*
X7096007D01*
X7096400Y4066887D01*
Y4066494D01*
X7096007Y4066100D01*
X7095219D01*
X7094826Y4066494D01*
X7009328Y4176752D02*
Y4179113D01*
X7010509D01*
X7010902Y4178720D01*
Y4177933D01*
X7010509Y4177539D01*
X7009328D01*
X7010116D02*
X7010902Y4176752D01*
X7011690Y4178720D02*
X7012083Y4179113D01*
X7012871D01*
X7013264Y4178720D01*
Y4178326D01*
X7012871Y4177933D01*
X7012477D01*
X7012871D01*
X7013264Y4177539D01*
Y4177145D01*
X7012871Y4176752D01*
X7012083D01*
X7011690Y4177145D01*
X7095464Y4176000D02*
Y4178362D01*
X7096645D01*
X7097039Y4177968D01*
Y4177181D01*
X7096645Y4176787D01*
X7095464D01*
X7096252D02*
X7097039Y4176000D01*
X7097826D02*
X7098613D01*
X7098219D01*
Y4178362D01*
X7097826Y4177968D01*
X7082560Y4505511D02*
Y4504724D01*
Y4505118D01*
X7084528D01*
X7084921Y4504724D01*
Y4504330D01*
X7084528Y4503937D01*
X7084921Y4506298D02*
X7082560D01*
Y4507479D01*
X7082954Y4507873D01*
X7083740D01*
X7084134Y4507479D01*
Y4506298D01*
X7082560Y4508660D02*
Y4510234D01*
X7082954D01*
X7084528Y4508660D01*
X7084921D01*
Y4511021D02*
X7084528D01*
Y4511415D01*
X7084921D01*
Y4511021D01*
X7082560Y4512989D02*
X7084921D01*
Y4514170D01*
X7084528Y4514563D01*
X7082954D01*
X7082560Y4514170D01*
Y4512989D01*
Y4515351D02*
Y4516925D01*
Y4516138D01*
X7084921D01*
X7082560Y4517712D02*
X7084921D01*
Y4518893D01*
X7084528Y4519286D01*
X7082954D01*
X7082560Y4518893D01*
Y4517712D01*
X7081379Y4398031D02*
Y4397244D01*
Y4397638D01*
X7083347D01*
X7083740Y4397244D01*
Y4396850D01*
X7083347Y4396457D01*
X7083740Y4398818D02*
X7081379D01*
Y4399999D01*
X7081773Y4400393D01*
X7082559D01*
X7082953Y4399999D01*
Y4398818D01*
X7081379Y4401180D02*
Y4402754D01*
X7081773D01*
X7083347Y4401180D01*
X7083740D01*
Y4403541D02*
X7083347D01*
Y4403934D01*
X7083740D01*
Y4403541D01*
X7081379Y4405509D02*
X7083740D01*
Y4406689D01*
X7083347Y4407083D01*
X7081773D01*
X7081379Y4406689D01*
Y4405509D01*
Y4407870D02*
Y4409444D01*
Y4408657D01*
X7083740D01*
X7081773Y4411806D02*
X7081379Y4411412D01*
Y4410625D01*
X7081773Y4410232D01*
X7083347D01*
X7083740Y4410625D01*
Y4411412D01*
X7083347Y4411806D01*
X7081379Y4293700D02*
Y4292913D01*
Y4293307D01*
X7083347D01*
X7083740Y4292913D01*
Y4292520D01*
X7083347Y4292126D01*
X7083740Y4294487D02*
X7081379D01*
Y4295668D01*
X7081773Y4296062D01*
X7082559D01*
X7082953Y4295668D01*
Y4294487D01*
X7081379Y4296849D02*
Y4298423D01*
X7081773D01*
X7083347Y4296849D01*
X7083740D01*
Y4299210D02*
X7083347D01*
Y4299604D01*
X7083740D01*
Y4299210D01*
X7081379Y4301178D02*
X7083740D01*
Y4302359D01*
X7083347Y4302753D01*
X7081773D01*
X7081379Y4302359D01*
Y4301178D01*
Y4303540D02*
Y4305114D01*
Y4304327D01*
X7083740D01*
X7081379Y4305901D02*
X7083740D01*
Y4307082D01*
X7083347Y4307475D01*
X7082953D01*
X7082559Y4307082D01*
Y4305901D01*
Y4307082D01*
X7082166Y4307475D01*
X7081773D01*
X7081379Y4307082D01*
Y4305901D01*
X7100276Y4183859D02*
X7101064D01*
X7100670D01*
Y4185827D01*
X7101064Y4186221D01*
X7101456D01*
X7101850Y4185827D01*
X7099489Y4186221D02*
Y4183859D01*
X7098309D01*
X7097915Y4184253D01*
Y4185040D01*
X7098309Y4185433D01*
X7099489D01*
X7097128Y4183859D02*
X7095553D01*
Y4184253D01*
X7097128Y4185827D01*
Y4186221D01*
X7094766D02*
Y4185827D01*
X7094373D01*
Y4186221D01*
X7094766D01*
X7092798Y4183859D02*
Y4186221D01*
X7091618D01*
X7091224Y4185827D01*
Y4184253D01*
X7091618Y4183859D01*
X7092798D01*
X7090437D02*
X7088863D01*
X7089650D01*
Y4186221D01*
X7088075D02*
Y4184646D01*
X7087288Y4183859D01*
X7086501Y4184646D01*
Y4186221D01*
Y4185040D01*
X7088075D01*
X7128622Y4515749D02*
Y4516536D01*
Y4516142D01*
X7126653D01*
X7126260Y4516536D01*
Y4516929D01*
X7126653Y4517323D01*
X7126260Y4514961D02*
X7128622D01*
Y4513781D01*
X7128228Y4513387D01*
X7127441D01*
X7127047Y4513781D01*
Y4514961D01*
X7128622Y4511026D02*
X7128228Y4511813D01*
X7127441Y4512600D01*
X7126653D01*
X7126260Y4512206D01*
Y4511419D01*
X7126653Y4511026D01*
X7127047D01*
X7127441Y4511419D01*
Y4512600D01*
X7126260Y4510239D02*
X7126653D01*
Y4509845D01*
X7126260D01*
Y4510239D01*
X7128622Y4508271D02*
X7126260D01*
Y4507090D01*
X7126653Y4506696D01*
X7128228D01*
X7128622Y4507090D01*
Y4508271D01*
Y4505909D02*
Y4504335D01*
Y4505122D01*
X7126260D01*
X7128622Y4503548D02*
X7126260D01*
Y4502367D01*
X7126653Y4501973D01*
X7128228D01*
X7128622Y4502367D01*
Y4503548D01*
X7127834Y4411024D02*
Y4411811D01*
Y4411418D01*
X7125866D01*
X7125472Y4411811D01*
Y4412205D01*
X7125866Y4412598D01*
X7125472Y4410237D02*
X7127834D01*
Y4409056D01*
X7127441Y4408663D01*
X7126653D01*
X7126260Y4409056D01*
Y4410237D01*
X7127834Y4406301D02*
X7127441Y4407088D01*
X7126653Y4407875D01*
X7125866D01*
X7125472Y4407482D01*
Y4406695D01*
X7125866Y4406301D01*
X7126260D01*
X7126653Y4406695D01*
Y4407875D01*
X7125472Y4405514D02*
X7125866D01*
Y4405120D01*
X7125472D01*
Y4405514D01*
X7127834Y4403546D02*
X7125472D01*
Y4402365D01*
X7125866Y4401972D01*
X7127441D01*
X7127834Y4402365D01*
Y4403546D01*
Y4401185D02*
Y4399611D01*
Y4400398D01*
X7125472D01*
X7127441Y4397249D02*
X7127834Y4397643D01*
Y4398430D01*
X7127441Y4398824D01*
X7125866D01*
X7125472Y4398430D01*
Y4397643D01*
X7125866Y4397249D01*
X7109739Y4307861D02*
X7108952D01*
X7109345D01*
Y4305894D01*
X7108952Y4305500D01*
X7108558D01*
X7108165Y4305894D01*
X7110526Y4305500D02*
Y4307861D01*
X7111707D01*
X7112100Y4307468D01*
Y4306681D01*
X7111707Y4306287D01*
X7110526D01*
X7114462Y4307861D02*
X7113675Y4307468D01*
X7112888Y4306681D01*
Y4305894D01*
X7113281Y4305500D01*
X7114068D01*
X7114462Y4305894D01*
Y4306287D01*
X7114068Y4306681D01*
X7112888D01*
X7115249Y4305500D02*
Y4305894D01*
X7115643D01*
Y4305500D01*
X7115249D01*
X7117216Y4307861D02*
Y4305500D01*
X7118398D01*
X7118791Y4305894D01*
Y4307468D01*
X7118398Y4307861D01*
X7117216D01*
X7119579D02*
X7121152D01*
X7120365D01*
Y4305500D01*
X7121940Y4307861D02*
Y4305500D01*
X7123120D01*
X7123514Y4305894D01*
Y4306287D01*
X7123120Y4306681D01*
X7121940D01*
X7123120D01*
X7123514Y4307074D01*
Y4307468D01*
X7123120Y4307861D01*
X7121940D01*
X7121930Y4183072D02*
X7122717D01*
X7122323D01*
Y4185040D01*
X7122717Y4185433D01*
X7123110D01*
X7123504Y4185040D01*
X7121143Y4185433D02*
Y4183072D01*
X7119962D01*
X7119568Y4183465D01*
Y4184253D01*
X7119962Y4184646D01*
X7121143D01*
X7117207Y4183072D02*
X7117994Y4183465D01*
X7118781Y4184253D01*
Y4185040D01*
X7118388Y4185433D01*
X7117600D01*
X7117207Y4185040D01*
Y4184646D01*
X7117600Y4184253D01*
X7118781D01*
X7116419Y4185433D02*
Y4185040D01*
X7116026D01*
Y4185433D01*
X7116419D01*
X7114452Y4183072D02*
Y4185433D01*
X7113271D01*
X7112878Y4185040D01*
Y4183465D01*
X7113271Y4183072D01*
X7114452D01*
X7112090D02*
X7110516D01*
X7111303D01*
Y4185433D01*
X7109729D02*
Y4183859D01*
X7108942Y4183072D01*
X7108154Y4183859D01*
Y4185433D01*
Y4184253D01*
X7109729D01*
X7218755Y4565075D02*
X7216787D01*
X7216394Y4564681D01*
Y4563894D01*
X7216787Y4563501D01*
X7218755D01*
X7216394Y4562713D02*
Y4561926D01*
Y4562320D01*
X7218755D01*
X7218362Y4562713D01*
X7218755Y4559171D02*
Y4560746D01*
X7217574D01*
X7217968Y4559958D01*
Y4559565D01*
X7217574Y4559171D01*
X7216787D01*
X7216394Y4559565D01*
Y4560352D01*
X7216787Y4560746D01*
X7219783Y4494500D02*
X7217815D01*
X7217421Y4494106D01*
Y4493319D01*
X7217815Y4492926D01*
X7219783D01*
X7217421Y4492139D02*
Y4491351D01*
Y4491745D01*
X7219783D01*
X7219389Y4492139D01*
X7217421Y4488990D02*
X7219783D01*
X7218602Y4490171D01*
Y4488596D01*
X7267599Y4258661D02*
Y4256693D01*
X7267992Y4256299D01*
X7268779D01*
X7269173Y4256693D01*
Y4258661D01*
X7269960Y4256299D02*
X7270747D01*
X7270354D01*
Y4258661D01*
X7269960Y4258267D01*
X7271928D02*
X7272321Y4258661D01*
X7273109D01*
X7273502Y4258267D01*
Y4257874D01*
X7273109Y4257480D01*
X7272715D01*
X7273109D01*
X7273502Y4257087D01*
Y4256693D01*
X7273109Y4256299D01*
X7272321D01*
X7271928Y4256693D01*
X7271265Y4315162D02*
Y4313194D01*
X7271658Y4312800D01*
X7272446D01*
X7272839Y4313194D01*
Y4315162D01*
X7273626Y4312800D02*
X7274413D01*
X7274020D01*
Y4315162D01*
X7273626Y4314768D01*
X7277168Y4312800D02*
X7275594D01*
X7277168Y4314374D01*
Y4314768D01*
X7276775Y4315162D01*
X7275987D01*
X7275594Y4314768D01*
X7182864Y4430462D02*
Y4428493D01*
X7183258Y4428100D01*
X7184045D01*
X7184439Y4428493D01*
Y4430462D01*
X7185226Y4428100D02*
X7186013D01*
X7185619D01*
Y4430462D01*
X7185226Y4430068D01*
X7187194Y4428100D02*
X7187981D01*
X7187588D01*
Y4430462D01*
X7187194Y4430068D01*
X7135314Y4561811D02*
X7133347D01*
X7132953Y4561417D01*
Y4560630D01*
X7133347Y4560237D01*
X7135314D01*
X7132953Y4558269D02*
X7135314D01*
X7134133Y4559450D01*
Y4557875D01*
X7132953Y4557088D02*
X7133347D01*
Y4556694D01*
X7132953D01*
Y4557088D01*
X7135314Y4555120D02*
X7132953D01*
Y4553939D01*
X7133347Y4553546D01*
X7134921D01*
X7135314Y4553939D01*
Y4555120D01*
Y4552759D02*
Y4551184D01*
Y4551972D01*
X7132953D01*
X7135314Y4550397D02*
X7132953D01*
Y4549217D01*
X7133347Y4548823D01*
X7134921D01*
X7135314Y4549217D01*
Y4550397D01*
X7123504Y4472047D02*
Y4470079D01*
X7123898Y4469685D01*
X7124685D01*
X7125078Y4470079D01*
Y4472047D01*
X7127046Y4469685D02*
Y4472047D01*
X7125865Y4470866D01*
X7127440D01*
X7128226Y4469685D02*
Y4470079D01*
X7128620D01*
Y4469685D01*
X7128226D01*
X7130195Y4472047D02*
Y4469685D01*
X7131375D01*
X7131769Y4470079D01*
Y4471653D01*
X7131375Y4472047D01*
X7130195D01*
X7132556D02*
X7134130D01*
X7133344D01*
Y4469685D01*
X7136492Y4471653D02*
X7136098Y4472047D01*
X7135311D01*
X7134917Y4471653D01*
Y4470079D01*
X7135311Y4469685D01*
X7136098D01*
X7136492Y4470079D01*
X7135708Y4354725D02*
X7133740D01*
X7133347Y4354331D01*
Y4353544D01*
X7133740Y4353150D01*
X7135708D01*
X7133347Y4351182D02*
X7135708D01*
X7134527Y4352363D01*
Y4350789D01*
X7133347Y4350002D02*
X7133740D01*
Y4349608D01*
X7133347D01*
Y4350002D01*
X7135708Y4348034D02*
X7133347D01*
Y4346853D01*
X7133740Y4346460D01*
X7135314D01*
X7135708Y4346853D01*
Y4348034D01*
Y4345672D02*
Y4344098D01*
Y4344885D01*
X7133347D01*
X7135708Y4343311D02*
X7133347D01*
Y4342130D01*
X7133740Y4341737D01*
X7134134D01*
X7134527Y4342130D01*
Y4343311D01*
Y4342130D01*
X7134921Y4341737D01*
X7135314D01*
X7135708Y4342130D01*
Y4343311D01*
X7031379Y4542520D02*
X7033347D01*
X7033740Y4542913D01*
Y4543700D01*
X7033347Y4544094D01*
X7031379D01*
X7031773Y4544881D02*
X7031379Y4545275D01*
Y4546062D01*
X7031773Y4546455D01*
X7032166D01*
X7032559Y4546062D01*
Y4545668D01*
Y4546062D01*
X7032953Y4546455D01*
X7033347D01*
X7033740Y4546062D01*
Y4545275D01*
X7033347Y4544881D01*
X7033740Y4547243D02*
X7033347D01*
Y4547636D01*
X7033740D01*
Y4547243D01*
X7031379Y4549210D02*
X7033740D01*
Y4550391D01*
X7033347Y4550785D01*
X7031773D01*
X7031379Y4550391D01*
Y4549210D01*
Y4551572D02*
Y4553146D01*
Y4552359D01*
X7033740D01*
X7031379Y4553933D02*
X7033740D01*
Y4555114D01*
X7033347Y4555508D01*
X7031773D01*
X7031379Y4555114D01*
Y4553933D01*
X7030592Y4435827D02*
X7032559D01*
X7032953Y4436221D01*
Y4437008D01*
X7032559Y4437401D01*
X7030592D01*
X7030985Y4438188D02*
X7030592Y4438582D01*
Y4439369D01*
X7030985Y4439762D01*
X7031378D01*
X7031772Y4439369D01*
Y4438976D01*
Y4439369D01*
X7032166Y4439762D01*
X7032559D01*
X7032953Y4439369D01*
Y4438582D01*
X7032559Y4438188D01*
X7032953Y4440550D02*
X7032559D01*
Y4440943D01*
X7032953D01*
Y4440550D01*
X7030592Y4442517D02*
X7032953D01*
Y4443698D01*
X7032559Y4444092D01*
X7030985D01*
X7030592Y4443698D01*
Y4442517D01*
Y4444879D02*
Y4446453D01*
Y4445666D01*
X7032953D01*
X7030985Y4448815D02*
X7030592Y4448421D01*
Y4447634D01*
X7030985Y4447240D01*
X7032559D01*
X7032953Y4447634D01*
Y4448421D01*
X7032559Y4448815D01*
X7030985Y4331496D02*
X7032953D01*
X7033347Y4331890D01*
Y4332677D01*
X7032953Y4333070D01*
X7030985D01*
X7031379Y4333857D02*
X7030985Y4334251D01*
Y4335038D01*
X7031379Y4335432D01*
X7031772D01*
X7032166Y4335038D01*
Y4334645D01*
Y4335038D01*
X7032559Y4335432D01*
X7032953D01*
X7033347Y4335038D01*
Y4334251D01*
X7032953Y4333857D01*
X7033347Y4336219D02*
X7032953D01*
Y4336612D01*
X7033347D01*
Y4336219D01*
X7030985Y4338187D02*
X7033347D01*
Y4339368D01*
X7032953Y4339761D01*
X7031379D01*
X7030985Y4339368D01*
Y4338187D01*
Y4340548D02*
Y4342123D01*
Y4341335D01*
X7033347D01*
X7030985Y4342910D02*
X7033347D01*
Y4344090D01*
X7032953Y4344484D01*
X7032559D01*
X7032166Y4344090D01*
Y4342910D01*
Y4344090D01*
X7031772Y4344484D01*
X7031379D01*
X7030985Y4344090D01*
Y4342910D01*
X7001457Y4330315D02*
X7001064Y4329921D01*
Y4329134D01*
X7001457Y4328740D01*
X7001851D01*
X7002245Y4329134D01*
Y4329921D01*
X7002638Y4330315D01*
X7003032D01*
X7003425Y4329921D01*
Y4329134D01*
X7003032Y4328740D01*
X7003425Y4331102D02*
Y4331889D01*
Y4331495D01*
X7001851D01*
Y4331102D01*
X7004212Y4333857D02*
Y4334250D01*
X7003819Y4334644D01*
X7001851D01*
Y4333463D01*
X7002245Y4333070D01*
X7003032D01*
X7003425Y4333463D01*
Y4334644D01*
Y4335431D02*
X7001851D01*
Y4336612D01*
X7002245Y4337005D01*
X7003425D01*
X7001851Y4338186D02*
Y4338973D01*
X7002245Y4339367D01*
X7003425D01*
Y4338186D01*
X7003032Y4337792D01*
X7002638Y4338186D01*
Y4339367D01*
X7003425Y4340154D02*
Y4340941D01*
Y4340548D01*
X7001064D01*
Y4340154D01*
X7003425Y4342122D02*
Y4343303D01*
X7003032Y4343696D01*
X7002638Y4343303D01*
Y4342515D01*
X7002245Y4342122D01*
X7001851Y4342515D01*
Y4343696D01*
X7003819Y4344483D02*
Y4346058D01*
X7003425Y4348419D02*
Y4346844D01*
X7001851Y4348419D01*
X7001457D01*
X7001064Y4348025D01*
Y4347238D01*
X7001457Y4346844D01*
X7000276Y4229527D02*
X6999883Y4229134D01*
Y4228346D01*
X7000276Y4227953D01*
X7000670D01*
X7001064Y4228346D01*
Y4229134D01*
X7001457Y4229527D01*
X7001850D01*
X7002244Y4229134D01*
Y4228346D01*
X7001850Y4227953D01*
X7002244Y4230314D02*
Y4231101D01*
Y4230708D01*
X7000670D01*
Y4230314D01*
X7003031Y4233069D02*
Y4233463D01*
X7002637Y4233857D01*
X7000670D01*
Y4232676D01*
X7001064Y4232282D01*
X7001850D01*
X7002244Y4232676D01*
Y4233857D01*
Y4234644D02*
X7000670D01*
Y4235824D01*
X7001064Y4236218D01*
X7002244D01*
X7000670Y4237399D02*
Y4238186D01*
X7001064Y4238579D01*
X7002244D01*
Y4237399D01*
X7001850Y4237005D01*
X7001457Y4237399D01*
Y4238579D01*
X7002244Y4239367D02*
Y4240154D01*
Y4239760D01*
X6999883D01*
Y4239367D01*
X7002244Y4241334D02*
Y4242515D01*
X7001850Y4242908D01*
X7001457Y4242515D01*
Y4241728D01*
X7001064Y4241334D01*
X7000670Y4241728D01*
Y4242908D01*
X7002637Y4243696D02*
Y4245270D01*
X7002244Y4246057D02*
Y4246844D01*
Y4246451D01*
X6999883D01*
X7000276Y4246057D01*
X7302760Y4363858D02*
Y4366220D01*
X7303547Y4365433D01*
X7304334Y4366220D01*
Y4363858D01*
X7305515Y4365433D02*
X7306302D01*
X7306696Y4365039D01*
Y4363858D01*
X7305515D01*
X7305122Y4364252D01*
X7305515Y4364645D01*
X7306696D01*
X7307483Y4363858D02*
Y4365433D01*
X7308663D01*
X7309057Y4365039D01*
Y4363858D01*
X7309844Y4365433D02*
Y4364252D01*
X7310238Y4363858D01*
X7311418D01*
Y4365433D01*
X7312599D02*
X7313387D01*
X7313780Y4365039D01*
Y4363858D01*
X7312599D01*
X7312206Y4364252D01*
X7312599Y4364645D01*
X7313780D01*
X7314567Y4363858D02*
X7315354D01*
X7314960D01*
Y4366220D01*
X7314567D01*
X7318896Y4363858D02*
Y4366220D01*
X7320077D01*
X7320470Y4365826D01*
Y4365039D01*
X7320077Y4364645D01*
X7318896D01*
X7319684D02*
X7320470Y4363858D01*
X7322439D02*
X7321651D01*
X7321258Y4364252D01*
Y4365039D01*
X7321651Y4365433D01*
X7322439D01*
X7322832Y4365039D01*
Y4364645D01*
X7321258D01*
X7323619Y4363858D02*
X7324800D01*
X7325194Y4364252D01*
X7324800Y4364645D01*
X7324013D01*
X7323619Y4365039D01*
X7324013Y4365433D01*
X7325194D01*
X7327161Y4363858D02*
X7326374D01*
X7325980Y4364252D01*
Y4365039D01*
X7326374Y4365433D01*
X7327161D01*
X7327555Y4365039D01*
Y4364645D01*
X7325980D01*
X7328735Y4365826D02*
Y4365433D01*
X7328342D01*
X7329129D01*
X7328735D01*
Y4364252D01*
X7329129Y4363858D01*
X7225864Y4566800D02*
Y4569162D01*
X7227045D01*
X7227439Y4568768D01*
Y4567981D01*
X7227045Y4567587D01*
X7225864D01*
X7226652D02*
X7227439Y4566800D01*
X7228226Y4568768D02*
X7228619Y4569162D01*
X7229407D01*
X7229800Y4568768D01*
Y4568374D01*
X7229407Y4567981D01*
X7229800Y4567587D01*
Y4567194D01*
X7229407Y4566800D01*
X7228619D01*
X7228226Y4567194D01*
Y4567587D01*
X7228619Y4567981D01*
X7228226Y4568374D01*
Y4568768D01*
X7228619Y4567981D02*
X7229407D01*
X7232162Y4566800D02*
X7230588D01*
X7232162Y4568374D01*
Y4568768D01*
X7231768Y4569162D01*
X7230981D01*
X7230588Y4568768D01*
X7225864Y4580800D02*
Y4583162D01*
X7227045D01*
X7227439Y4582768D01*
Y4581981D01*
X7227045Y4581587D01*
X7225864D01*
X7226652D02*
X7227439Y4580800D01*
X7228226Y4582768D02*
X7228619Y4583162D01*
X7229407D01*
X7229800Y4582768D01*
Y4582374D01*
X7229407Y4581981D01*
X7229800Y4581587D01*
Y4581194D01*
X7229407Y4580800D01*
X7228619D01*
X7228226Y4581194D01*
Y4581587D01*
X7228619Y4581981D01*
X7228226Y4582374D01*
Y4582768D01*
X7228619Y4581981D02*
X7229407D01*
X7230588Y4580800D02*
X7231374D01*
X7230981D01*
Y4583162D01*
X7230588Y4582768D01*
X7225864Y4552300D02*
Y4554662D01*
X7227045D01*
X7227439Y4554268D01*
Y4553481D01*
X7227045Y4553087D01*
X7225864D01*
X7226652D02*
X7227439Y4552300D01*
X7228226Y4554268D02*
X7228619Y4554662D01*
X7229407D01*
X7229800Y4554268D01*
Y4553874D01*
X7229407Y4553481D01*
X7229800Y4553087D01*
Y4552694D01*
X7229407Y4552300D01*
X7228619D01*
X7228226Y4552694D01*
Y4553087D01*
X7228619Y4553481D01*
X7228226Y4553874D01*
Y4554268D01*
X7228619Y4553481D02*
X7229407D01*
X7230588Y4554268D02*
X7230981Y4554662D01*
X7231768D01*
X7232162Y4554268D01*
Y4552694D01*
X7231768Y4552300D01*
X7230981D01*
X7230588Y4552694D01*
Y4554268D01*
X7225864Y4537800D02*
Y4540162D01*
X7227045D01*
X7227439Y4539768D01*
Y4538981D01*
X7227045Y4538587D01*
X7225864D01*
X7226652D02*
X7227439Y4537800D01*
X7228226Y4540162D02*
X7229800D01*
Y4539768D01*
X7228226Y4538194D01*
Y4537800D01*
X7230588Y4538194D02*
X7230981Y4537800D01*
X7231768D01*
X7232162Y4538194D01*
Y4539768D01*
X7231768Y4540162D01*
X7230981D01*
X7230588Y4539768D01*
Y4539374D01*
X7230981Y4538981D01*
X7232162D01*
X7225864Y4493800D02*
Y4496162D01*
X7227045D01*
X7227439Y4495768D01*
Y4494981D01*
X7227045Y4494587D01*
X7225864D01*
X7226652D02*
X7227439Y4493800D01*
X7228226Y4496162D02*
X7229800D01*
Y4495768D01*
X7228226Y4494194D01*
Y4493800D01*
X7230588Y4495768D02*
X7230981Y4496162D01*
X7231768D01*
X7232162Y4495768D01*
Y4495374D01*
X7231768Y4494981D01*
X7232162Y4494587D01*
Y4494194D01*
X7231768Y4493800D01*
X7230981D01*
X7230588Y4494194D01*
Y4494587D01*
X7230981Y4494981D01*
X7230588Y4495374D01*
Y4495768D01*
X7230981Y4494981D02*
X7231768D01*
X7225864Y4507800D02*
Y4510162D01*
X7227045D01*
X7227439Y4509768D01*
Y4508981D01*
X7227045Y4508587D01*
X7225864D01*
X7226652D02*
X7227439Y4507800D01*
X7228226Y4510162D02*
X7229800D01*
Y4509768D01*
X7228226Y4508194D01*
Y4507800D01*
X7230588Y4510162D02*
X7232162D01*
Y4509768D01*
X7230588Y4508194D01*
Y4507800D01*
X7225864Y4479300D02*
Y4481662D01*
X7227045D01*
X7227439Y4481268D01*
Y4480481D01*
X7227045Y4480087D01*
X7225864D01*
X7226652D02*
X7227439Y4479300D01*
X7228226Y4481662D02*
X7229800D01*
Y4481268D01*
X7228226Y4479694D01*
Y4479300D01*
X7232162Y4481662D02*
X7231374Y4481268D01*
X7230588Y4480481D01*
Y4479694D01*
X7230981Y4479300D01*
X7231768D01*
X7232162Y4479694D01*
Y4480087D01*
X7231768Y4480481D01*
X7230588D01*
X7225864Y4464800D02*
Y4467162D01*
X7227045D01*
X7227439Y4466768D01*
Y4465981D01*
X7227045Y4465587D01*
X7225864D01*
X7226652D02*
X7227439Y4464800D01*
X7228226Y4467162D02*
X7229800D01*
Y4466768D01*
X7228226Y4465194D01*
Y4464800D01*
X7232162Y4467162D02*
X7230588D01*
Y4465981D01*
X7231374Y4466374D01*
X7231768D01*
X7232162Y4465981D01*
Y4465194D01*
X7231768Y4464800D01*
X7230981D01*
X7230588Y4465194D01*
X7226365Y4421300D02*
Y4423661D01*
X7227545D01*
X7227939Y4423268D01*
Y4422481D01*
X7227545Y4422087D01*
X7226365D01*
X7227151D02*
X7227939Y4421300D01*
X7228726Y4423661D02*
X7230300D01*
Y4423268D01*
X7228726Y4421693D01*
Y4421300D01*
X7232269D02*
Y4423661D01*
X7231087Y4422481D01*
X7232661D01*
X7255865Y4343800D02*
Y4346162D01*
X7257045D01*
X7257439Y4345768D01*
Y4344981D01*
X7257045Y4344587D01*
X7255865D01*
X7256652D02*
X7257439Y4343800D01*
X7258226Y4346162D02*
X7259800D01*
Y4345768D01*
X7258226Y4344194D01*
Y4343800D01*
X7262162D02*
X7260587D01*
X7262162Y4345374D01*
Y4345768D01*
X7261768Y4346162D01*
X7260981D01*
X7260587Y4345768D01*
X7210512Y4283071D02*
X7208150D01*
Y4284252D01*
X7208544Y4284645D01*
X7209331D01*
X7209724Y4284252D01*
Y4283071D01*
Y4283858D02*
X7210512Y4284645D01*
X7208150Y4285432D02*
Y4287007D01*
X7208544D01*
X7210118Y4285432D01*
X7210512D01*
Y4287794D02*
Y4288581D01*
Y4288187D01*
X7208150D01*
X7208544Y4287794D01*
X7210512Y4263779D02*
X7208150D01*
Y4264960D01*
X7208544Y4265354D01*
X7209331D01*
X7209724Y4264960D01*
Y4263779D01*
Y4264567D02*
X7210512Y4265354D01*
X7208150Y4266141D02*
Y4267715D01*
X7208544D01*
X7210118Y4266141D01*
X7210512D01*
X7208544Y4268502D02*
X7208150Y4268896D01*
Y4269683D01*
X7208544Y4270077D01*
X7210118D01*
X7210512Y4269683D01*
Y4268896D01*
X7210118Y4268502D01*
X7208544D01*
X7210512Y4244488D02*
X7208150D01*
Y4245669D01*
X7208544Y4246062D01*
X7209331D01*
X7209724Y4245669D01*
Y4244488D01*
Y4245275D02*
X7210512Y4246062D01*
X7208150Y4248424D02*
X7208544Y4247637D01*
X7209331Y4246849D01*
X7210118D01*
X7210512Y4247243D01*
Y4248030D01*
X7210118Y4248424D01*
X7209724D01*
X7209331Y4248030D01*
Y4246849D01*
X7210118Y4249211D02*
X7210512Y4249604D01*
Y4250392D01*
X7210118Y4250785D01*
X7208544D01*
X7208150Y4250392D01*
Y4249604D01*
X7208544Y4249211D01*
X7208938D01*
X7209331Y4249604D01*
Y4250785D01*
X7210512Y4223228D02*
X7208150D01*
Y4224409D01*
X7208544Y4224803D01*
X7209331D01*
X7209724Y4224409D01*
Y4223228D01*
Y4224015D02*
X7210512Y4224803D01*
X7208150Y4227164D02*
X7208544Y4226377D01*
X7209331Y4225590D01*
X7210118D01*
X7210512Y4225983D01*
Y4226770D01*
X7210118Y4227164D01*
X7209724D01*
X7209331Y4226770D01*
Y4225590D01*
X7208544Y4227951D02*
X7208150Y4228345D01*
Y4229132D01*
X7208544Y4229525D01*
X7208938D01*
X7209331Y4229132D01*
X7209724Y4229525D01*
X7210118D01*
X7210512Y4229132D01*
Y4228345D01*
X7210118Y4227951D01*
X7209724D01*
X7209331Y4228345D01*
X7208938Y4227951D01*
X7208544D01*
X7209331Y4228345D02*
Y4229132D01*
X7251063Y4297244D02*
X7253424D01*
Y4296063D01*
X7253031Y4295670D01*
X7252244D01*
X7251850Y4296063D01*
Y4297244D01*
Y4296457D02*
X7251063Y4295670D01*
X7253424Y4293308D02*
X7253031Y4294096D01*
X7252244Y4294883D01*
X7251456D01*
X7251063Y4294489D01*
Y4293702D01*
X7251456Y4293308D01*
X7251850D01*
X7252244Y4293702D01*
Y4294883D01*
X7253424Y4292521D02*
Y4290947D01*
X7253031D01*
X7251456Y4292521D01*
X7251063D01*
Y4279134D02*
X7253424D01*
Y4277953D01*
X7253031Y4277560D01*
X7252244D01*
X7251850Y4277953D01*
Y4279134D01*
Y4278347D02*
X7251063Y4277560D01*
X7253424Y4275198D02*
X7253031Y4275985D01*
X7252244Y4276772D01*
X7251456D01*
X7251063Y4276379D01*
Y4275592D01*
X7251456Y4275198D01*
X7251850D01*
X7252244Y4275592D01*
Y4276772D01*
X7253424Y4272837D02*
X7253031Y4273624D01*
X7252244Y4274411D01*
X7251456D01*
X7251063Y4274017D01*
Y4273230D01*
X7251456Y4272837D01*
X7251850D01*
X7252244Y4273230D01*
Y4274411D01*
X7252244Y4258268D02*
X7254606D01*
Y4257087D01*
X7254212Y4256693D01*
X7253425D01*
X7253031Y4257087D01*
Y4258268D01*
Y4257481D02*
X7252244Y4256693D01*
X7254606Y4254332D02*
X7254212Y4255119D01*
X7253425Y4255906D01*
X7252637D01*
X7252244Y4255513D01*
Y4254726D01*
X7252637Y4254332D01*
X7253031D01*
X7253425Y4254726D01*
Y4255906D01*
X7254606Y4251971D02*
Y4253545D01*
X7253425D01*
X7253819Y4252758D01*
Y4252364D01*
X7253425Y4251971D01*
X7252637D01*
X7252244Y4252364D01*
Y4253151D01*
X7252637Y4253545D01*
X7252244Y4237795D02*
X7254606D01*
Y4236615D01*
X7254212Y4236221D01*
X7253425D01*
X7253031Y4236615D01*
Y4237795D01*
Y4237008D02*
X7252244Y4236221D01*
X7254606Y4233860D02*
X7254212Y4234647D01*
X7253425Y4235434D01*
X7252637D01*
X7252244Y4235040D01*
Y4234253D01*
X7252637Y4233860D01*
X7253031D01*
X7253425Y4234253D01*
Y4235434D01*
X7252244Y4231892D02*
X7254606D01*
X7253425Y4233072D01*
Y4231498D01*
X7246732Y4573228D02*
Y4575590D01*
X7247913D01*
X7248306Y4575196D01*
Y4574409D01*
X7247913Y4574015D01*
X7246732D01*
X7247520D02*
X7248306Y4573228D01*
X7250668Y4575590D02*
X7249881Y4575196D01*
X7249094Y4574409D01*
Y4573622D01*
X7249487Y4573228D01*
X7250275D01*
X7250668Y4573622D01*
Y4574015D01*
X7250275Y4574409D01*
X7249094D01*
X7251455Y4575196D02*
X7251849Y4575590D01*
X7252636D01*
X7253030Y4575196D01*
Y4574803D01*
X7252636Y4574409D01*
X7252242D01*
X7252636D01*
X7253030Y4574015D01*
Y4573622D01*
X7252636Y4573228D01*
X7251849D01*
X7251455Y4573622D01*
X7245765Y4587800D02*
Y4590162D01*
X7246945D01*
X7247339Y4589768D01*
Y4588981D01*
X7246945Y4588587D01*
X7245765D01*
X7246552D02*
X7247339Y4587800D01*
X7249700Y4590162D02*
X7248914Y4589768D01*
X7248126Y4588981D01*
Y4588194D01*
X7248520Y4587800D01*
X7249306D01*
X7249700Y4588194D01*
Y4588587D01*
X7249306Y4588981D01*
X7248126D01*
X7252061Y4587800D02*
X7250488D01*
X7252061Y4589374D01*
Y4589768D01*
X7251669Y4590162D01*
X7250881D01*
X7250488Y4589768D01*
X7245765Y4558800D02*
Y4561161D01*
X7246945D01*
X7247339Y4560768D01*
Y4559981D01*
X7246945Y4559587D01*
X7245765D01*
X7246552D02*
X7247339Y4558800D01*
X7249700Y4561161D02*
X7248914Y4560768D01*
X7248126Y4559981D01*
Y4559193D01*
X7248520Y4558800D01*
X7249306D01*
X7249700Y4559193D01*
Y4559587D01*
X7249306Y4559981D01*
X7248126D01*
X7250488Y4558800D02*
X7251275D01*
X7250881D01*
Y4561161D01*
X7250488Y4560768D01*
X7245765Y4544800D02*
Y4547161D01*
X7246945D01*
X7247339Y4546768D01*
Y4545981D01*
X7246945Y4545587D01*
X7245765D01*
X7246552D02*
X7247339Y4544800D01*
X7249700Y4547161D02*
X7248914Y4546768D01*
X7248126Y4545981D01*
Y4545193D01*
X7248520Y4544800D01*
X7249306D01*
X7249700Y4545193D01*
Y4545587D01*
X7249306Y4545981D01*
X7248126D01*
X7250488Y4546768D02*
X7250881Y4547161D01*
X7251669D01*
X7252061Y4546768D01*
Y4545193D01*
X7251669Y4544800D01*
X7250881D01*
X7250488Y4545193D01*
Y4546768D01*
X7245765Y4500800D02*
Y4503162D01*
X7246945D01*
X7247339Y4502768D01*
Y4501981D01*
X7246945Y4501587D01*
X7245765D01*
X7246552D02*
X7247339Y4500800D01*
X7249700Y4503162D02*
X7248126D01*
Y4501981D01*
X7248914Y4502374D01*
X7249306D01*
X7249700Y4501981D01*
Y4501194D01*
X7249306Y4500800D01*
X7248520D01*
X7248126Y4501194D01*
X7250488D02*
X7250881Y4500800D01*
X7251669D01*
X7252061Y4501194D01*
Y4502768D01*
X7251669Y4503162D01*
X7250881D01*
X7250488Y4502768D01*
Y4502374D01*
X7250881Y4501981D01*
X7252061D01*
X7245765Y4514800D02*
Y4517162D01*
X7246945D01*
X7247339Y4516768D01*
Y4515981D01*
X7246945Y4515587D01*
X7245765D01*
X7246552D02*
X7247339Y4514800D01*
X7249700Y4517162D02*
X7248126D01*
Y4515981D01*
X7248914Y4516374D01*
X7249306D01*
X7249700Y4515981D01*
Y4515194D01*
X7249306Y4514800D01*
X7248520D01*
X7248126Y4515194D01*
X7250488Y4516768D02*
X7250881Y4517162D01*
X7251669D01*
X7252061Y4516768D01*
Y4516374D01*
X7251669Y4515981D01*
X7252061Y4515587D01*
Y4515194D01*
X7251669Y4514800D01*
X7250881D01*
X7250488Y4515194D01*
Y4515587D01*
X7250881Y4515981D01*
X7250488Y4516374D01*
Y4516768D01*
X7250881Y4515981D02*
X7251669D01*
X7245765Y4486300D02*
Y4488662D01*
X7246945D01*
X7247339Y4488268D01*
Y4487481D01*
X7246945Y4487087D01*
X7245765D01*
X7246552D02*
X7247339Y4486300D01*
X7249700Y4488662D02*
X7248126D01*
Y4487481D01*
X7248914Y4487874D01*
X7249306D01*
X7249700Y4487481D01*
Y4486694D01*
X7249306Y4486300D01*
X7248520D01*
X7248126Y4486694D01*
X7250488Y4488662D02*
X7252061D01*
Y4488268D01*
X7250488Y4486694D01*
Y4486300D01*
X7245765Y4471800D02*
Y4474162D01*
X7246945D01*
X7247339Y4473768D01*
Y4472981D01*
X7246945Y4472587D01*
X7245765D01*
X7246552D02*
X7247339Y4471800D01*
X7249700Y4474162D02*
X7248126D01*
Y4472981D01*
X7248914Y4473374D01*
X7249306D01*
X7249700Y4472981D01*
Y4472194D01*
X7249306Y4471800D01*
X7248520D01*
X7248126Y4472194D01*
X7252061Y4474162D02*
X7251275Y4473768D01*
X7250488Y4472981D01*
Y4472194D01*
X7250881Y4471800D01*
X7251669D01*
X7252061Y4472194D01*
Y4472587D01*
X7251669Y4472981D01*
X7250488D01*
X7245264Y4428300D02*
Y4430661D01*
X7246445D01*
X7246839Y4430268D01*
Y4429481D01*
X7246445Y4429087D01*
X7245264D01*
X7246052D02*
X7246839Y4428300D01*
X7249200Y4430661D02*
X7247626D01*
Y4429481D01*
X7248413Y4429874D01*
X7248807D01*
X7249200Y4429481D01*
Y4428694D01*
X7248807Y4428300D01*
X7248019D01*
X7247626Y4428694D01*
X7251562Y4430661D02*
X7249988D01*
Y4429481D01*
X7250774Y4429874D01*
X7251168D01*
X7251562Y4429481D01*
Y4428694D01*
X7251168Y4428300D01*
X7250381D01*
X7249988Y4428694D01*
X7245264Y4390300D02*
Y4392662D01*
X7246445D01*
X7246839Y4392268D01*
Y4391481D01*
X7246445Y4391087D01*
X7245264D01*
X7246052D02*
X7246839Y4390300D01*
X7249200Y4392662D02*
X7247626D01*
Y4391481D01*
X7248413Y4391874D01*
X7248807D01*
X7249200Y4391481D01*
Y4390694D01*
X7248807Y4390300D01*
X7248019D01*
X7247626Y4390694D01*
X7251168Y4390300D02*
Y4392662D01*
X7249988Y4391481D01*
X7251562D01*
X7245264Y4404300D02*
Y4406662D01*
X7246445D01*
X7246839Y4406268D01*
Y4405481D01*
X7246445Y4405087D01*
X7245264D01*
X7246052D02*
X7246839Y4404300D01*
X7249200Y4406662D02*
X7247626D01*
Y4405481D01*
X7248413Y4405874D01*
X7248807D01*
X7249200Y4405481D01*
Y4404694D01*
X7248807Y4404300D01*
X7248019D01*
X7247626Y4404694D01*
X7249988Y4406268D02*
X7250381Y4406662D01*
X7251168D01*
X7251562Y4406268D01*
Y4405874D01*
X7251168Y4405481D01*
X7250774D01*
X7251168D01*
X7251562Y4405087D01*
Y4404694D01*
X7251168Y4404300D01*
X7250381D01*
X7249988Y4404694D01*
X7245264Y4443300D02*
Y4445662D01*
X7246445D01*
X7246839Y4445268D01*
Y4444481D01*
X7246445Y4444087D01*
X7245264D01*
X7246052D02*
X7246839Y4443300D01*
X7249200Y4445662D02*
X7247626D01*
Y4444481D01*
X7248413Y4444874D01*
X7248807D01*
X7249200Y4444481D01*
Y4443694D01*
X7248807Y4443300D01*
X7248019D01*
X7247626Y4443694D01*
X7251562Y4443300D02*
X7249988D01*
X7251562Y4444874D01*
Y4445268D01*
X7251168Y4445662D01*
X7250381D01*
X7249988Y4445268D01*
X7241221Y4360236D02*
Y4362598D01*
X7242401D01*
X7242795Y4362204D01*
Y4361417D01*
X7242401Y4361023D01*
X7241221D01*
X7242007D02*
X7242795Y4360236D01*
X7245156Y4362598D02*
X7243582D01*
Y4361417D01*
X7244369Y4361811D01*
X7244762D01*
X7245156Y4361417D01*
Y4360630D01*
X7244762Y4360236D01*
X7243976D01*
X7243582Y4360630D01*
X7245943Y4360236D02*
X7246731D01*
X7246337D01*
Y4362598D01*
X7245943Y4362204D01*
X7283865Y4362800D02*
Y4365162D01*
X7285046D01*
X7285439Y4364768D01*
Y4363981D01*
X7285046Y4363587D01*
X7283865D01*
X7284652D02*
X7285439Y4362800D01*
X7287801Y4365162D02*
X7286226D01*
Y4363981D01*
X7287013Y4364374D01*
X7287407D01*
X7287801Y4363981D01*
Y4363194D01*
X7287407Y4362800D01*
X7286620D01*
X7286226Y4363194D01*
X7288587Y4364768D02*
X7288981Y4365162D01*
X7289768D01*
X7290162Y4364768D01*
Y4363194D01*
X7289768Y4362800D01*
X7288981D01*
X7288587Y4363194D01*
Y4364768D01*
X7179765Y4372300D02*
Y4374662D01*
X7180946D01*
X7181339Y4374268D01*
Y4373481D01*
X7180946Y4373087D01*
X7179765D01*
X7180552D02*
X7181339Y4372300D01*
X7183307D02*
Y4374662D01*
X7182126Y4373481D01*
X7183701D01*
X7184487Y4372694D02*
X7184881Y4372300D01*
X7185668D01*
X7186062Y4372694D01*
Y4374268D01*
X7185668Y4374662D01*
X7184881D01*
X7184487Y4374268D01*
Y4373874D01*
X7184881Y4373481D01*
X7186062D01*
X7255765Y4326300D02*
Y4328661D01*
X7256945D01*
X7257339Y4328268D01*
Y4327481D01*
X7256945Y4327087D01*
X7255765D01*
X7256551D02*
X7257339Y4326300D01*
X7259306D02*
Y4328661D01*
X7258126Y4327481D01*
X7259700D01*
X7260487Y4328268D02*
X7260881Y4328661D01*
X7261668D01*
X7262062Y4328268D01*
Y4327874D01*
X7261668Y4327481D01*
X7262062Y4327087D01*
Y4326694D01*
X7261668Y4326300D01*
X7260881D01*
X7260487Y4326694D01*
Y4327087D01*
X7260881Y4327481D01*
X7260487Y4327874D01*
Y4328268D01*
X7260881Y4327481D02*
X7261668D01*
X7225864Y4397300D02*
Y4399662D01*
X7227045D01*
X7227439Y4399268D01*
Y4398481D01*
X7227045Y4398087D01*
X7225864D01*
X7226652D02*
X7227439Y4397300D01*
X7228226Y4399268D02*
X7228619Y4399662D01*
X7229407D01*
X7229800Y4399268D01*
Y4398874D01*
X7229407Y4398481D01*
X7229013D01*
X7229407D01*
X7229800Y4398087D01*
Y4397694D01*
X7229407Y4397300D01*
X7228619D01*
X7228226Y4397694D01*
X7230588D02*
X7230981Y4397300D01*
X7231768D01*
X7232162Y4397694D01*
Y4399268D01*
X7231768Y4399662D01*
X7230981D01*
X7230588Y4399268D01*
Y4398874D01*
X7230981Y4398481D01*
X7232162D01*
X7225864Y4411300D02*
Y4413662D01*
X7227045D01*
X7227439Y4413268D01*
Y4412481D01*
X7227045Y4412087D01*
X7225864D01*
X7226652D02*
X7227439Y4411300D01*
X7228226Y4413268D02*
X7228619Y4413662D01*
X7229407D01*
X7229800Y4413268D01*
Y4412874D01*
X7229407Y4412481D01*
X7229013D01*
X7229407D01*
X7229800Y4412087D01*
Y4411694D01*
X7229407Y4411300D01*
X7228619D01*
X7228226Y4411694D01*
X7230588Y4413268D02*
X7230981Y4413662D01*
X7231768D01*
X7232162Y4413268D01*
Y4412874D01*
X7231768Y4412481D01*
X7232162Y4412087D01*
Y4411694D01*
X7231768Y4411300D01*
X7230981D01*
X7230588Y4411694D01*
Y4412087D01*
X7230981Y4412481D01*
X7230588Y4412874D01*
Y4413268D01*
X7230981Y4412481D02*
X7231768D01*
X7226365Y4435800D02*
Y4438161D01*
X7227545D01*
X7227939Y4437768D01*
Y4436981D01*
X7227545Y4436587D01*
X7226365D01*
X7227151D02*
X7227939Y4435800D01*
X7228726Y4437768D02*
X7229120Y4438161D01*
X7229906D01*
X7230300Y4437768D01*
Y4437374D01*
X7229906Y4436981D01*
X7229514D01*
X7229906D01*
X7230300Y4436587D01*
Y4436193D01*
X7229906Y4435800D01*
X7229120D01*
X7228726Y4436193D01*
X7232661Y4438161D02*
X7231875Y4437768D01*
X7231087Y4436981D01*
Y4436193D01*
X7231481Y4435800D01*
X7232269D01*
X7232661Y4436193D01*
Y4436587D01*
X7232269Y4436981D01*
X7231087D01*
X7082559Y4520079D02*
X7080198D01*
Y4521260D01*
X7080591Y4521653D01*
X7081378D01*
X7081772Y4521260D01*
Y4520079D01*
Y4520866D02*
X7082559Y4521653D01*
Y4522440D02*
Y4523227D01*
Y4522834D01*
X7080198D01*
X7080591Y4522440D01*
X7080198Y4524408D02*
Y4525982D01*
X7080591D01*
X7082166Y4524408D01*
X7082559D01*
Y4526770D02*
X7082166D01*
Y4527163D01*
X7082559D01*
Y4526770D01*
X7080198Y4528737D02*
X7082559D01*
Y4529918D01*
X7082166Y4530312D01*
X7080591D01*
X7080198Y4529918D01*
Y4528737D01*
Y4531099D02*
Y4532673D01*
Y4531886D01*
X7082559D01*
X7080198Y4533460D02*
X7082559D01*
Y4534641D01*
X7082166Y4535035D01*
X7080591D01*
X7080198Y4534641D01*
Y4533460D01*
X7083347Y4413779D02*
X7080985D01*
Y4414960D01*
X7081379Y4415354D01*
X7082166D01*
X7082559Y4414960D01*
Y4413779D01*
Y4414567D02*
X7083347Y4415354D01*
Y4416141D02*
Y4416928D01*
Y4416534D01*
X7080985D01*
X7081379Y4416141D01*
X7080985Y4418109D02*
Y4419683D01*
X7081379D01*
X7082953Y4418109D01*
X7083347D01*
Y4420470D02*
X7082953D01*
Y4420864D01*
X7083347D01*
Y4420470D01*
X7080985Y4422438D02*
X7083347D01*
Y4423619D01*
X7082953Y4424012D01*
X7081379D01*
X7080985Y4423619D01*
Y4422438D01*
Y4424800D02*
Y4426374D01*
Y4425587D01*
X7083347D01*
X7081379Y4428735D02*
X7080985Y4428342D01*
Y4427555D01*
X7081379Y4427161D01*
X7082953D01*
X7083347Y4427555D01*
Y4428342D01*
X7082953Y4428735D01*
X7083347Y4310236D02*
X7080985D01*
Y4311417D01*
X7081379Y4311811D01*
X7082166D01*
X7082559Y4311417D01*
Y4310236D01*
Y4311023D02*
X7083347Y4311811D01*
Y4312598D02*
Y4313385D01*
Y4312991D01*
X7080985D01*
X7081379Y4312598D01*
X7080985Y4314566D02*
Y4316140D01*
X7081379D01*
X7082953Y4314566D01*
X7083347D01*
Y4316927D02*
X7082953D01*
Y4317321D01*
X7083347D01*
Y4316927D01*
X7080985Y4318895D02*
X7083347D01*
Y4320076D01*
X7082953Y4320469D01*
X7081379D01*
X7080985Y4320076D01*
Y4318895D01*
Y4321256D02*
Y4322831D01*
Y4322043D01*
X7083347D01*
X7080985Y4323618D02*
X7083347D01*
Y4324799D01*
X7082953Y4325192D01*
X7082559D01*
X7082166Y4324799D01*
Y4323618D01*
Y4324799D01*
X7081772Y4325192D01*
X7081379D01*
X7080985Y4324799D01*
Y4323618D01*
X7084134Y4196457D02*
X7081773D01*
Y4197638D01*
X7082166Y4198031D01*
X7082953D01*
X7083347Y4197638D01*
Y4196457D01*
Y4197244D02*
X7084134Y4198031D01*
Y4198818D02*
Y4199605D01*
Y4199212D01*
X7081773D01*
X7082166Y4198818D01*
X7081773Y4200786D02*
Y4202360D01*
X7082166D01*
X7083740Y4200786D01*
X7084134D01*
Y4203148D02*
X7083740D01*
Y4203541D01*
X7084134D01*
Y4203148D01*
X7081773Y4205115D02*
X7084134D01*
Y4206296D01*
X7083740Y4206689D01*
X7082166D01*
X7081773Y4206296D01*
Y4205115D01*
Y4207477D02*
Y4209051D01*
Y4208264D01*
X7084134D01*
Y4209838D02*
X7082560D01*
X7081773Y4210625D01*
X7082560Y4211412D01*
X7084134D01*
X7082953D01*
Y4209838D01*
X7108543Y4525591D02*
Y4527952D01*
X7109724D01*
X7110117Y4527559D01*
Y4526771D01*
X7109724Y4526378D01*
X7108543D01*
X7109331D02*
X7110117Y4525591D01*
X7110905D02*
X7111692D01*
X7111298D01*
Y4527952D01*
X7110905Y4527559D01*
X7114447Y4527952D02*
X7113660Y4527559D01*
X7112872Y4526771D01*
Y4525984D01*
X7113266Y4525591D01*
X7114053D01*
X7114447Y4525984D01*
Y4526378D01*
X7114053Y4526771D01*
X7112872D01*
X7115234Y4525591D02*
Y4525984D01*
X7115627D01*
Y4525591D01*
X7115234D01*
X7117202Y4527952D02*
Y4525591D01*
X7118382D01*
X7118776Y4525984D01*
Y4527559D01*
X7118382Y4527952D01*
X7117202D01*
X7119563D02*
X7121137D01*
X7120351D01*
Y4525591D01*
X7121925Y4527952D02*
Y4525591D01*
X7123106D01*
X7123499Y4525984D01*
Y4527559D01*
X7123106Y4527952D01*
X7121925D01*
X7109220Y4420050D02*
Y4422411D01*
X7110401D01*
X7110795Y4422018D01*
Y4421230D01*
X7110401Y4420837D01*
X7109220D01*
X7110007D02*
X7110795Y4420050D01*
X7111582D02*
X7112369D01*
X7111976D01*
Y4422411D01*
X7111582Y4422018D01*
X7115124Y4422411D02*
X7114337Y4422018D01*
X7113550Y4421230D01*
Y4420443D01*
X7113943Y4420050D01*
X7114731D01*
X7115124Y4420443D01*
Y4420837D01*
X7114731Y4421230D01*
X7113550D01*
X7115911Y4420050D02*
Y4420443D01*
X7116305D01*
Y4420050D01*
X7115911D01*
X7117879Y4422411D02*
Y4420050D01*
X7119060D01*
X7119453Y4420443D01*
Y4422018D01*
X7119060Y4422411D01*
X7117879D01*
X7120241D02*
X7121815D01*
X7121027D01*
Y4420050D01*
X7124176Y4422018D02*
X7123782Y4422411D01*
X7122996D01*
X7122602Y4422018D01*
Y4420443D01*
X7122996Y4420050D01*
X7123782D01*
X7124176Y4420443D01*
X7109331Y4313386D02*
Y4315747D01*
X7110512D01*
X7110905Y4315354D01*
Y4314566D01*
X7110512Y4314173D01*
X7109331D01*
X7110118D02*
X7110905Y4313386D01*
X7111692D02*
X7112479D01*
X7112086D01*
Y4315747D01*
X7111692Y4315354D01*
X7115234Y4315747D02*
X7114447Y4315354D01*
X7113660Y4314566D01*
Y4313779D01*
X7114053Y4313386D01*
X7114841D01*
X7115234Y4313779D01*
Y4314173D01*
X7114841Y4314566D01*
X7113660D01*
X7116022Y4313386D02*
Y4313779D01*
X7116415D01*
Y4313386D01*
X7116022D01*
X7117989Y4315747D02*
Y4313386D01*
X7119170D01*
X7119563Y4313779D01*
Y4315354D01*
X7119170Y4315747D01*
X7117989D01*
X7120351D02*
X7121925D01*
X7121138D01*
Y4313386D01*
X7122712Y4315747D02*
Y4313386D01*
X7123893D01*
X7124287Y4313779D01*
Y4314173D01*
X7123893Y4314566D01*
X7122712D01*
X7123893D01*
X7124287Y4314960D01*
Y4315354D01*
X7123893Y4315747D01*
X7122712D01*
X7108543Y4207087D02*
Y4209448D01*
X7109724D01*
X7110117Y4209055D01*
Y4208267D01*
X7109724Y4207874D01*
X7108543D01*
X7109331D02*
X7110117Y4207087D01*
X7110905D02*
X7111692D01*
X7111298D01*
Y4209448D01*
X7110905Y4209055D01*
X7114447Y4209448D02*
X7113660Y4209055D01*
X7112872Y4208267D01*
Y4207480D01*
X7113266Y4207087D01*
X7114053D01*
X7114447Y4207480D01*
Y4207874D01*
X7114053Y4208267D01*
X7112872D01*
X7115234Y4207087D02*
Y4207480D01*
X7115627D01*
Y4207087D01*
X7115234D01*
X7117202Y4209448D02*
Y4207087D01*
X7118382D01*
X7118776Y4207480D01*
Y4209055D01*
X7118382Y4209448D01*
X7117202D01*
X7119563D02*
X7121137D01*
X7120351D01*
Y4207087D01*
X7121925D02*
Y4208661D01*
X7122712Y4209448D01*
X7123499Y4208661D01*
Y4207087D01*
Y4208267D01*
X7121925D01*
X7137677Y4532677D02*
X7140038D01*
Y4531496D01*
X7139645Y4531103D01*
X7138858D01*
X7138464Y4531496D01*
Y4532677D01*
Y4531890D02*
X7137677Y4531103D01*
Y4530316D02*
Y4529528D01*
Y4529922D01*
X7140038D01*
X7139645Y4530316D01*
X7140038Y4526773D02*
Y4528348D01*
X7138858D01*
X7139252Y4527561D01*
Y4527167D01*
X7138858Y4526773D01*
X7138071D01*
X7137677Y4527167D01*
Y4527954D01*
X7138071Y4528348D01*
X7137677Y4525986D02*
X7138071D01*
Y4525593D01*
X7137677D01*
Y4525986D01*
X7140038Y4524018D02*
X7137677D01*
Y4522838D01*
X7138071Y4522444D01*
X7139645D01*
X7140038Y4522838D01*
Y4524018D01*
Y4521657D02*
Y4520083D01*
Y4520870D01*
X7137677D01*
X7140038Y4519296D02*
X7137677D01*
Y4518115D01*
X7138071Y4517722D01*
X7139645D01*
X7140038Y4518115D01*
Y4519296D01*
X7139252Y4425591D02*
X7141614D01*
Y4424410D01*
X7141220Y4424016D01*
X7140433D01*
X7140039Y4424410D01*
Y4425591D01*
Y4424804D02*
X7139252Y4424016D01*
Y4423229D02*
Y4422442D01*
Y4422836D01*
X7141614D01*
X7141220Y4423229D01*
X7141614Y4419687D02*
Y4421261D01*
X7140433D01*
X7140826Y4420474D01*
Y4420081D01*
X7140433Y4419687D01*
X7139645D01*
X7139252Y4420081D01*
Y4420868D01*
X7139645Y4421261D01*
X7139252Y4418900D02*
X7139645D01*
Y4418506D01*
X7139252D01*
Y4418900D01*
X7141614Y4416932D02*
X7139252D01*
Y4415751D01*
X7139645Y4415358D01*
X7141220D01*
X7141614Y4415751D01*
Y4416932D01*
Y4414571D02*
Y4412996D01*
Y4413783D01*
X7139252D01*
X7141220Y4410635D02*
X7141614Y4411028D01*
Y4411816D01*
X7141220Y4412209D01*
X7139645D01*
X7139252Y4411816D01*
Y4411028D01*
X7139645Y4410635D01*
X7138858Y4316929D02*
X7141219D01*
Y4315748D01*
X7140826Y4315355D01*
X7140039D01*
X7139645Y4315748D01*
Y4316929D01*
Y4316142D02*
X7138858Y4315355D01*
Y4314568D02*
Y4313781D01*
Y4314174D01*
X7141219D01*
X7140826Y4314568D01*
X7141219Y4311026D02*
Y4312600D01*
X7140039D01*
X7140433Y4311813D01*
Y4311419D01*
X7140039Y4311026D01*
X7139252D01*
X7138858Y4311419D01*
Y4312206D01*
X7139252Y4312600D01*
X7138858Y4310238D02*
X7139252D01*
Y4309845D01*
X7138858D01*
Y4310238D01*
X7141219Y4308271D02*
X7138858D01*
Y4307090D01*
X7139252Y4306696D01*
X7140826D01*
X7141219Y4307090D01*
Y4308271D01*
Y4305909D02*
Y4304335D01*
Y4305122D01*
X7138858D01*
X7141219Y4303548D02*
X7138858D01*
Y4302367D01*
X7139252Y4301973D01*
X7139645D01*
X7140039Y4302367D01*
Y4303548D01*
Y4302367D01*
X7140433Y4301973D01*
X7140826D01*
X7141219Y4302367D01*
Y4303548D01*
X7139252Y4213386D02*
X7141614D01*
Y4212205D01*
X7141220Y4211811D01*
X7140433D01*
X7140039Y4212205D01*
Y4213386D01*
Y4212599D02*
X7139252Y4211811D01*
Y4211024D02*
Y4210237D01*
Y4210631D01*
X7141614D01*
X7141220Y4211024D01*
X7141614Y4207482D02*
Y4209056D01*
X7140433D01*
X7140826Y4208270D01*
Y4207876D01*
X7140433Y4207482D01*
X7139645D01*
X7139252Y4207876D01*
Y4208663D01*
X7139645Y4209056D01*
X7139252Y4206695D02*
X7139645D01*
Y4206301D01*
X7139252D01*
Y4206695D01*
X7141614Y4204727D02*
X7139252D01*
Y4203547D01*
X7139645Y4203153D01*
X7141220D01*
X7141614Y4203547D01*
Y4204727D01*
Y4202366D02*
Y4200792D01*
Y4201579D01*
X7139252D01*
Y4200005D02*
X7140826D01*
X7141614Y4199217D01*
X7140826Y4198430D01*
X7139252D01*
X7140433D01*
Y4200005D01*
X7092796Y4535433D02*
Y4537794D01*
X7093976D01*
X7094370Y4537401D01*
Y4536614D01*
X7093976Y4536220D01*
X7092796D01*
X7093582D02*
X7094370Y4535433D01*
X7095157D02*
X7095944D01*
X7095551D01*
Y4537794D01*
X7095157Y4537401D01*
X7098306Y4535433D02*
Y4537794D01*
X7097124Y4536614D01*
X7098699D01*
X7099486Y4535433D02*
Y4535826D01*
X7099879D01*
Y4535433D01*
X7099486D01*
X7101454Y4537794D02*
Y4535433D01*
X7102634D01*
X7103028Y4535826D01*
Y4537401D01*
X7102634Y4537794D01*
X7101454D01*
X7103815D02*
X7105389D01*
X7104603D01*
Y4535433D01*
X7106177Y4537794D02*
Y4535433D01*
X7107358D01*
X7107751Y4535826D01*
Y4537401D01*
X7107358Y4537794D01*
X7106177D01*
X7090827Y4429134D02*
Y4431495D01*
X7092007D01*
X7092401Y4431102D01*
Y4430315D01*
X7092007Y4429921D01*
X7090827D01*
X7091614D02*
X7092401Y4429134D01*
X7093188D02*
X7093975D01*
X7093582D01*
Y4431495D01*
X7093188Y4431102D01*
X7096337Y4429134D02*
Y4431495D01*
X7095156Y4430315D01*
X7096730D01*
X7097517Y4429134D02*
Y4429527D01*
X7097911D01*
Y4429134D01*
X7097517D01*
X7099486Y4431495D02*
Y4429134D01*
X7100666D01*
X7101060Y4429527D01*
Y4431102D01*
X7100666Y4431495D01*
X7099486D01*
X7101847D02*
X7103421D01*
X7102634D01*
Y4429134D01*
X7105782Y4431102D02*
X7105389Y4431495D01*
X7104602D01*
X7104208Y4431102D01*
Y4429527D01*
X7104602Y4429134D01*
X7105389D01*
X7105782Y4429527D01*
X7089645Y4322835D02*
Y4325196D01*
X7090826D01*
X7091220Y4324802D01*
Y4324015D01*
X7090826Y4323622D01*
X7089645D01*
X7090433D02*
X7091220Y4322835D01*
X7092007D02*
X7092794D01*
X7092400D01*
Y4325196D01*
X7092007Y4324802D01*
X7095155Y4322835D02*
Y4325196D01*
X7093975Y4324015D01*
X7095549D01*
X7096336Y4322835D02*
Y4323228D01*
X7096730D01*
Y4322835D01*
X7096336D01*
X7098304Y4325196D02*
Y4322835D01*
X7099485D01*
X7099879Y4323228D01*
Y4324802D01*
X7099485Y4325196D01*
X7098304D01*
X7100666D02*
X7102240D01*
X7101453D01*
Y4322835D01*
X7103027Y4325196D02*
Y4322835D01*
X7104208D01*
X7104601Y4323228D01*
Y4323622D01*
X7104208Y4324015D01*
X7103027D01*
X7104208D01*
X7104601Y4324409D01*
Y4324802D01*
X7104208Y4325196D01*
X7103027D01*
X7088464Y4217323D02*
Y4219684D01*
X7089645D01*
X7090039Y4219291D01*
Y4218504D01*
X7089645Y4218110D01*
X7088464D01*
X7089252D02*
X7090039Y4217323D01*
X7090826D02*
X7091613D01*
X7091219D01*
Y4219684D01*
X7090826Y4219291D01*
X7093974Y4217323D02*
Y4219684D01*
X7092794Y4218504D01*
X7094368D01*
X7095155Y4217323D02*
Y4217716D01*
X7095549D01*
Y4217323D01*
X7095155D01*
X7097123Y4219684D02*
Y4217323D01*
X7098304D01*
X7098698Y4217716D01*
Y4219291D01*
X7098304Y4219684D01*
X7097123D01*
X7099484D02*
X7101059D01*
X7100272D01*
Y4217323D01*
X7101846D02*
Y4218897D01*
X7102633Y4219684D01*
X7103420Y4218897D01*
Y4217323D01*
Y4218504D01*
X7101846D01*
X7057265Y4517800D02*
Y4520161D01*
X7058445D01*
X7058839Y4519768D01*
Y4518981D01*
X7058445Y4518587D01*
X7057265D01*
X7058052D02*
X7058839Y4517800D01*
X7059626D02*
X7060413D01*
X7060020D01*
Y4520161D01*
X7059626Y4519768D01*
X7061594D02*
X7061987Y4520161D01*
X7062775D01*
X7063168Y4519768D01*
Y4519374D01*
X7062775Y4518981D01*
X7062381D01*
X7062775D01*
X7063168Y4518587D01*
Y4518193D01*
X7062775Y4517800D01*
X7061987D01*
X7061594Y4518193D01*
X7063955Y4517800D02*
Y4518193D01*
X7064349D01*
Y4517800D01*
X7063955D01*
X7065923Y4520161D02*
Y4517800D01*
X7067104D01*
X7067497Y4518193D01*
Y4519768D01*
X7067104Y4520161D01*
X7065923D01*
X7068285D02*
X7069859D01*
X7069072D01*
Y4517800D01*
X7070646Y4520161D02*
Y4517800D01*
X7071827D01*
X7072221Y4518193D01*
Y4519768D01*
X7071827Y4520161D01*
X7070646D01*
X7057362Y4411417D02*
Y4413779D01*
X7058543D01*
X7058936Y4413385D01*
Y4412598D01*
X7058543Y4412204D01*
X7057362D01*
X7058150D02*
X7058936Y4411417D01*
X7059724D02*
X7060511D01*
X7060117D01*
Y4413779D01*
X7059724Y4413385D01*
X7061691D02*
X7062085Y4413779D01*
X7062872D01*
X7063266Y4413385D01*
Y4412992D01*
X7062872Y4412598D01*
X7062479D01*
X7062872D01*
X7063266Y4412204D01*
Y4411811D01*
X7062872Y4411417D01*
X7062085D01*
X7061691Y4411811D01*
X7064053Y4411417D02*
Y4411811D01*
X7064446D01*
Y4411417D01*
X7064053D01*
X7066021Y4413779D02*
Y4411417D01*
X7067201D01*
X7067595Y4411811D01*
Y4413385D01*
X7067201Y4413779D01*
X7066021D01*
X7068382D02*
X7069956D01*
X7069170D01*
Y4411417D01*
X7072318Y4413385D02*
X7071925Y4413779D01*
X7071137D01*
X7070744Y4413385D01*
Y4411811D01*
X7071137Y4411417D01*
X7071925D01*
X7072318Y4411811D01*
X7057265Y4305800D02*
Y4308162D01*
X7058445D01*
X7058839Y4307768D01*
Y4306981D01*
X7058445Y4306587D01*
X7057265D01*
X7058052D02*
X7058839Y4305800D01*
X7059626D02*
X7060413D01*
X7060020D01*
Y4308162D01*
X7059626Y4307768D01*
X7061594D02*
X7061987Y4308162D01*
X7062775D01*
X7063168Y4307768D01*
Y4307374D01*
X7062775Y4306981D01*
X7062381D01*
X7062775D01*
X7063168Y4306587D01*
Y4306194D01*
X7062775Y4305800D01*
X7061987D01*
X7061594Y4306194D01*
X7063955Y4305800D02*
Y4306194D01*
X7064349D01*
Y4305800D01*
X7063955D01*
X7065923Y4308162D02*
Y4305800D01*
X7067104D01*
X7067497Y4306194D01*
Y4307768D01*
X7067104Y4308162D01*
X7065923D01*
X7068285D02*
X7069859D01*
X7069072D01*
Y4305800D01*
X7070646Y4308162D02*
Y4305800D01*
X7071827D01*
X7072221Y4306194D01*
Y4306587D01*
X7071827Y4306981D01*
X7070646D01*
X7071827D01*
X7072221Y4307374D01*
Y4307768D01*
X7071827Y4308162D01*
X7070646D01*
X7057265Y4199800D02*
Y4202161D01*
X7058445D01*
X7058839Y4201768D01*
Y4200981D01*
X7058445Y4200587D01*
X7057265D01*
X7058052D02*
X7058839Y4199800D01*
X7059626D02*
X7060413D01*
X7060020D01*
Y4202161D01*
X7059626Y4201768D01*
X7061594D02*
X7061987Y4202161D01*
X7062775D01*
X7063168Y4201768D01*
Y4201374D01*
X7062775Y4200981D01*
X7062381D01*
X7062775D01*
X7063168Y4200587D01*
Y4200194D01*
X7062775Y4199800D01*
X7061987D01*
X7061594Y4200194D01*
X7063955Y4199800D02*
Y4200194D01*
X7064349D01*
Y4199800D01*
X7063955D01*
X7065923Y4202161D02*
Y4199800D01*
X7067104D01*
X7067497Y4200194D01*
Y4201768D01*
X7067104Y4202161D01*
X7065923D01*
X7068285D02*
X7069859D01*
X7069072D01*
Y4199800D01*
X7070646D02*
Y4201374D01*
X7071433Y4202161D01*
X7072221Y4201374D01*
Y4199800D01*
Y4200981D01*
X7070646D01*
X7056181Y4592126D02*
Y4594487D01*
X7057362D01*
X7057755Y4594094D01*
Y4593307D01*
X7057362Y4592913D01*
X7056181D01*
X7056968D02*
X7057755Y4592126D01*
X7058543D02*
X7059330D01*
X7058936D01*
Y4594487D01*
X7058543Y4594094D01*
X7060510Y4592126D02*
X7061298D01*
X7060904D01*
Y4594487D01*
X7060510Y4594094D01*
X7062479Y4592126D02*
Y4592520D01*
X7062872D01*
Y4592126D01*
X7062479D01*
X7064446Y4594487D02*
Y4592126D01*
X7065627D01*
X7066020Y4592520D01*
Y4594094D01*
X7065627Y4594487D01*
X7064446D01*
X7066808D02*
X7068382D01*
X7067595D01*
Y4592126D01*
X7069169Y4594487D02*
Y4592126D01*
X7070350D01*
X7070744Y4592520D01*
Y4594094D01*
X7070350Y4594487D01*
X7069169D01*
X7056969Y4486614D02*
Y4488976D01*
X7058149D01*
X7058543Y4488582D01*
Y4487795D01*
X7058149Y4487401D01*
X7056969D01*
X7057756D02*
X7058543Y4486614D01*
X7059330D02*
X7060117D01*
X7059724D01*
Y4488976D01*
X7059330Y4488582D01*
X7061298Y4486614D02*
X7062085D01*
X7061691D01*
Y4488976D01*
X7061298Y4488582D01*
X7063266Y4486614D02*
Y4487008D01*
X7063659D01*
Y4486614D01*
X7063266D01*
X7065234Y4488976D02*
Y4486614D01*
X7066415D01*
X7066808Y4487008D01*
Y4488582D01*
X7066415Y4488976D01*
X7065234D01*
X7067595D02*
X7069170D01*
X7068382D01*
Y4486614D01*
X7071531Y4488582D02*
X7071137Y4488976D01*
X7070350D01*
X7069956Y4488582D01*
Y4487008D01*
X7070350Y4486614D01*
X7071137D01*
X7071531Y4487008D01*
X7056969Y4380315D02*
Y4382676D01*
X7058149D01*
X7058543Y4382283D01*
Y4381496D01*
X7058149Y4381102D01*
X7056969D01*
X7057756D02*
X7058543Y4380315D01*
X7059330D02*
X7060117D01*
X7059724D01*
Y4382676D01*
X7059330Y4382283D01*
X7061298Y4380315D02*
X7062085D01*
X7061691D01*
Y4382676D01*
X7061298Y4382283D01*
X7063266Y4380315D02*
Y4380708D01*
X7063659D01*
Y4380315D01*
X7063266D01*
X7065234Y4382676D02*
Y4380315D01*
X7066415D01*
X7066808Y4380708D01*
Y4382283D01*
X7066415Y4382676D01*
X7065234D01*
X7067595D02*
X7069170D01*
X7068382D01*
Y4380315D01*
X7069956Y4382676D02*
Y4380315D01*
X7071137D01*
X7071531Y4380708D01*
Y4381102D01*
X7071137Y4381496D01*
X7069956D01*
X7071137D01*
X7071531Y4381889D01*
Y4382283D01*
X7071137Y4382676D01*
X7069956D01*
X7056969Y4274409D02*
Y4276771D01*
X7058149D01*
X7058543Y4276377D01*
Y4275590D01*
X7058149Y4275196D01*
X7056969D01*
X7057756D02*
X7058543Y4274409D01*
X7059330D02*
X7060117D01*
X7059724D01*
Y4276771D01*
X7059330Y4276377D01*
X7061298Y4274409D02*
X7062085D01*
X7061691D01*
Y4276771D01*
X7061298Y4276377D01*
X7063266Y4274409D02*
Y4274803D01*
X7063659D01*
Y4274409D01*
X7063266D01*
X7065234Y4276771D02*
Y4274409D01*
X7066415D01*
X7066808Y4274803D01*
Y4276377D01*
X7066415Y4276771D01*
X7065234D01*
X7067595D02*
X7069170D01*
X7068382D01*
Y4274409D01*
X7069956D02*
Y4275984D01*
X7070744Y4276771D01*
X7071531Y4275984D01*
Y4274409D01*
Y4275590D01*
X7069956D01*
X7084921Y4589370D02*
X7082560D01*
Y4590551D01*
X7082954Y4590944D01*
X7083740D01*
X7084134Y4590551D01*
Y4589370D01*
Y4590157D02*
X7084921Y4590944D01*
Y4591732D02*
Y4592519D01*
Y4592125D01*
X7082560D01*
X7082954Y4591732D01*
Y4593699D02*
X7082560Y4594093D01*
Y4594880D01*
X7082954Y4595274D01*
X7084528D01*
X7084921Y4594880D01*
Y4594093D01*
X7084528Y4593699D01*
X7082954D01*
X7084921Y4596061D02*
X7084528D01*
Y4596454D01*
X7084921D01*
Y4596061D01*
X7082560Y4598029D02*
X7084921D01*
Y4599209D01*
X7084528Y4599603D01*
X7082954D01*
X7082560Y4599209D01*
Y4598029D01*
Y4600390D02*
Y4601965D01*
Y4601177D01*
X7084921D01*
X7082560Y4602752D02*
X7084921D01*
Y4603932D01*
X7084528Y4604326D01*
X7082954D01*
X7082560Y4603932D01*
Y4602752D01*
X7084528Y4487008D02*
X7082166D01*
Y4488189D01*
X7082560Y4488582D01*
X7083347D01*
X7083740Y4488189D01*
Y4487008D01*
Y4487795D02*
X7084528Y4488582D01*
Y4489369D02*
Y4490157D01*
Y4489763D01*
X7082166D01*
X7082560Y4489369D01*
Y4491337D02*
X7082166Y4491731D01*
Y4492518D01*
X7082560Y4492912D01*
X7084134D01*
X7084528Y4492518D01*
Y4491731D01*
X7084134Y4491337D01*
X7082560D01*
X7084528Y4493699D02*
X7084134D01*
Y4494092D01*
X7084528D01*
Y4493699D01*
X7082166Y4495667D02*
X7084528D01*
Y4496847D01*
X7084134Y4497241D01*
X7082560D01*
X7082166Y4496847D01*
Y4495667D01*
Y4498028D02*
Y4499602D01*
Y4498815D01*
X7084528D01*
X7082560Y4501964D02*
X7082166Y4501570D01*
Y4500783D01*
X7082560Y4500389D01*
X7084134D01*
X7084528Y4500783D01*
Y4501570D01*
X7084134Y4501964D01*
X7083740Y4379528D02*
X7081379D01*
Y4380708D01*
X7081773Y4381102D01*
X7082559D01*
X7082953Y4380708D01*
Y4379528D01*
Y4380315D02*
X7083740Y4381102D01*
Y4381889D02*
Y4382676D01*
Y4382283D01*
X7081379D01*
X7081773Y4381889D01*
Y4383857D02*
X7081379Y4384250D01*
Y4385038D01*
X7081773Y4385431D01*
X7083347D01*
X7083740Y4385038D01*
Y4384250D01*
X7083347Y4383857D01*
X7081773D01*
X7083740Y4386218D02*
X7083347D01*
Y4386612D01*
X7083740D01*
Y4386218D01*
X7081379Y4388186D02*
X7083740D01*
Y4389367D01*
X7083347Y4389761D01*
X7081773D01*
X7081379Y4389367D01*
Y4388186D01*
Y4390548D02*
Y4392122D01*
Y4391335D01*
X7083740D01*
X7081379Y4392909D02*
X7083740D01*
Y4394090D01*
X7083347Y4394483D01*
X7082953D01*
X7082559Y4394090D01*
Y4392909D01*
Y4394090D01*
X7082166Y4394483D01*
X7081773D01*
X7081379Y4394090D01*
Y4392909D01*
X7084921Y4270472D02*
X7082560D01*
Y4271653D01*
X7082954Y4272047D01*
X7083740D01*
X7084134Y4271653D01*
Y4270472D01*
Y4271260D02*
X7084921Y4272047D01*
Y4272834D02*
Y4273621D01*
Y4273227D01*
X7082560D01*
X7082954Y4272834D01*
Y4274802D02*
X7082560Y4275195D01*
Y4275983D01*
X7082954Y4276376D01*
X7084528D01*
X7084921Y4275983D01*
Y4275195D01*
X7084528Y4274802D01*
X7082954D01*
X7084921Y4277163D02*
X7084528D01*
Y4277557D01*
X7084921D01*
Y4277163D01*
X7082560Y4279131D02*
X7084921D01*
Y4280312D01*
X7084528Y4280705D01*
X7082954D01*
X7082560Y4280312D01*
Y4279131D01*
Y4281493D02*
Y4283067D01*
Y4282280D01*
X7084921D01*
Y4283854D02*
X7083347D01*
X7082560Y4284641D01*
X7083347Y4285428D01*
X7084921D01*
X7083740D01*
Y4283854D01*
X7108937Y4611811D02*
Y4614172D01*
X7110117D01*
X7110511Y4613779D01*
Y4612992D01*
X7110117Y4612598D01*
X7108937D01*
X7109724D02*
X7110511Y4611811D01*
X7111298Y4612205D02*
X7111692Y4611811D01*
X7112479D01*
X7112873Y4612205D01*
Y4613779D01*
X7112479Y4614172D01*
X7111692D01*
X7111298Y4613779D01*
Y4613385D01*
X7111692Y4612992D01*
X7112873D01*
X7113660Y4611811D02*
Y4612205D01*
X7114053D01*
Y4611811D01*
X7113660D01*
X7115628Y4614172D02*
Y4611811D01*
X7116808D01*
X7117202Y4612205D01*
Y4613779D01*
X7116808Y4614172D01*
X7115628D01*
X7117989D02*
X7119563D01*
X7118776D01*
Y4611811D01*
X7120351Y4614172D02*
Y4611811D01*
X7121532D01*
X7121925Y4612205D01*
Y4613779D01*
X7121532Y4614172D01*
X7120351D01*
X7128229Y4495669D02*
Y4498031D01*
X7129409D01*
X7129803Y4497637D01*
Y4496850D01*
X7129409Y4496457D01*
X7128229D01*
X7129015D02*
X7129803Y4495669D01*
X7130590Y4496063D02*
X7130984Y4495669D01*
X7131770D01*
X7132164Y4496063D01*
Y4497637D01*
X7131770Y4498031D01*
X7130984D01*
X7130590Y4497637D01*
Y4497243D01*
X7130984Y4496850D01*
X7132164D01*
X7132951Y4495669D02*
Y4496063D01*
X7133345D01*
Y4495669D01*
X7132951D01*
X7134919Y4498031D02*
Y4495669D01*
X7136100D01*
X7136494Y4496063D01*
Y4497637D01*
X7136100Y4498031D01*
X7134919D01*
X7137280D02*
X7138855D01*
X7138068D01*
Y4495669D01*
X7141216Y4497637D02*
X7140823Y4498031D01*
X7140035D01*
X7139642Y4497637D01*
Y4496063D01*
X7140035Y4495669D01*
X7140823D01*
X7141216Y4496063D01*
X7110295Y4384940D02*
Y4387301D01*
X7111476D01*
X7111870Y4386907D01*
Y4386120D01*
X7111476Y4385727D01*
X7110295D01*
X7111082D02*
X7111870Y4384940D01*
X7112656Y4385333D02*
X7113050Y4384940D01*
X7113837D01*
X7114231Y4385333D01*
Y4386907D01*
X7113837Y4387301D01*
X7113050D01*
X7112656Y4386907D01*
Y4386514D01*
X7113050Y4386120D01*
X7114231D01*
X7115018Y4384940D02*
Y4385333D01*
X7115411D01*
Y4384940D01*
X7115018D01*
X7116986Y4387301D02*
Y4384940D01*
X7118166D01*
X7118560Y4385333D01*
Y4386907D01*
X7118166Y4387301D01*
X7116986D01*
X7119347D02*
X7120921D01*
X7120135D01*
Y4384940D01*
X7121709Y4387301D02*
Y4384940D01*
X7122890D01*
X7123283Y4385333D01*
Y4385727D01*
X7122890Y4386120D01*
X7121709D01*
X7122890D01*
X7123283Y4386514D01*
Y4386907D01*
X7122890Y4387301D01*
X7121709D01*
X7128622Y4284252D02*
Y4286613D01*
X7129803D01*
X7130196Y4286220D01*
Y4285433D01*
X7129803Y4285039D01*
X7128622D01*
X7129409D02*
X7130196Y4284252D01*
X7130984Y4284645D02*
X7131377Y4284252D01*
X7132164D01*
X7132558Y4284645D01*
Y4286220D01*
X7132164Y4286613D01*
X7131377D01*
X7130984Y4286220D01*
Y4285826D01*
X7131377Y4285433D01*
X7132558D01*
X7133345Y4284252D02*
Y4284645D01*
X7133739D01*
Y4284252D01*
X7133345D01*
X7135313Y4286613D02*
Y4284252D01*
X7136494D01*
X7136887Y4284645D01*
Y4286220D01*
X7136494Y4286613D01*
X7135313D01*
X7137674D02*
X7139249D01*
X7138461D01*
Y4284252D01*
X7140036D02*
Y4285826D01*
X7140823Y4286613D01*
X7141610Y4285826D01*
Y4284252D01*
Y4285433D01*
X7140036D01*
X7138858Y4595275D02*
X7141219D01*
Y4594095D01*
X7140826Y4593701D01*
X7140039D01*
X7139645Y4594095D01*
Y4595275D01*
Y4594489D02*
X7138858Y4593701D01*
X7140826Y4592914D02*
X7141219Y4592521D01*
Y4591734D01*
X7140826Y4591340D01*
X7140433D01*
X7140039Y4591734D01*
X7139645Y4591340D01*
X7139252D01*
X7138858Y4591734D01*
Y4592521D01*
X7139252Y4592914D01*
X7139645D01*
X7140039Y4592521D01*
X7140433Y4592914D01*
X7140826D01*
X7140039Y4592521D02*
Y4591734D01*
X7138858Y4590553D02*
X7139252D01*
Y4590159D01*
X7138858D01*
Y4590553D01*
X7141219Y4588585D02*
X7138858D01*
Y4587404D01*
X7139252Y4587011D01*
X7140826D01*
X7141219Y4587404D01*
Y4588585D01*
Y4586223D02*
Y4584649D01*
Y4585436D01*
X7138858D01*
X7141219Y4583862D02*
X7138858D01*
Y4582681D01*
X7139252Y4582288D01*
X7140826D01*
X7141219Y4582681D01*
Y4583862D01*
X7138464Y4489764D02*
X7140826D01*
Y4488583D01*
X7140433Y4488189D01*
X7139645D01*
X7139252Y4488583D01*
Y4489764D01*
Y4488977D02*
X7138464Y4488189D01*
X7140433Y4487402D02*
X7140826Y4487009D01*
Y4486222D01*
X7140433Y4485828D01*
X7140039D01*
X7139645Y4486222D01*
X7139252Y4485828D01*
X7138858D01*
X7138464Y4486222D01*
Y4487009D01*
X7138858Y4487402D01*
X7139252D01*
X7139645Y4487009D01*
X7140039Y4487402D01*
X7140433D01*
X7139645Y4487009D02*
Y4486222D01*
X7138464Y4485041D02*
X7138858D01*
Y4484647D01*
X7138464D01*
Y4485041D01*
X7140826Y4483073D02*
X7138464D01*
Y4481892D01*
X7138858Y4481499D01*
X7140433D01*
X7140826Y4481892D01*
Y4483073D01*
Y4480712D02*
Y4479137D01*
Y4479924D01*
X7138464D01*
X7140433Y4476776D02*
X7140826Y4477169D01*
Y4477957D01*
X7140433Y4478350D01*
X7138858D01*
X7138464Y4477957D01*
Y4477169D01*
X7138858Y4476776D01*
X7138464Y4385433D02*
X7140826D01*
Y4384253D01*
X7140433Y4383859D01*
X7139645D01*
X7139252Y4384253D01*
Y4385433D01*
Y4384646D02*
X7138464Y4383859D01*
X7140433Y4383072D02*
X7140826Y4382678D01*
Y4381891D01*
X7140433Y4381498D01*
X7140039D01*
X7139645Y4381891D01*
X7139252Y4381498D01*
X7138858D01*
X7138464Y4381891D01*
Y4382678D01*
X7138858Y4383072D01*
X7139252D01*
X7139645Y4382678D01*
X7140039Y4383072D01*
X7140433D01*
X7139645Y4382678D02*
Y4381891D01*
X7138464Y4380710D02*
X7138858D01*
Y4380317D01*
X7138464D01*
Y4380710D01*
X7140826Y4378742D02*
X7138464D01*
Y4377562D01*
X7138858Y4377168D01*
X7140433D01*
X7140826Y4377562D01*
Y4378742D01*
Y4376381D02*
Y4374807D01*
Y4375594D01*
X7138464D01*
X7140826Y4374020D02*
X7138464D01*
Y4372839D01*
X7138858Y4372445D01*
X7139252D01*
X7139645Y4372839D01*
Y4374020D01*
Y4372839D01*
X7140039Y4372445D01*
X7140433D01*
X7140826Y4372839D01*
Y4374020D01*
X7138071Y4277559D02*
X7140432D01*
Y4276378D01*
X7140039Y4275985D01*
X7139252D01*
X7138858Y4276378D01*
Y4277559D01*
Y4276772D02*
X7138071Y4275985D01*
X7140039Y4275198D02*
X7140432Y4274804D01*
Y4274017D01*
X7140039Y4273623D01*
X7139645D01*
X7139252Y4274017D01*
X7138858Y4273623D01*
X7138464D01*
X7138071Y4274017D01*
Y4274804D01*
X7138464Y4275198D01*
X7138858D01*
X7139252Y4274804D01*
X7139645Y4275198D01*
X7140039D01*
X7139252Y4274804D02*
Y4274017D01*
X7138071Y4272836D02*
X7138464D01*
Y4272443D01*
X7138071D01*
Y4272836D01*
X7140432Y4270868D02*
X7138071D01*
Y4269688D01*
X7138464Y4269294D01*
X7140039D01*
X7140432Y4269688D01*
Y4270868D01*
Y4268507D02*
Y4266933D01*
Y4267720D01*
X7138071D01*
Y4266145D02*
X7139645D01*
X7140432Y4265358D01*
X7139645Y4264571D01*
X7138071D01*
X7139252D01*
Y4266145D01*
X7105788Y4579528D02*
Y4577166D01*
X7104607D01*
X7104213Y4577560D01*
Y4578347D01*
X7104607Y4578740D01*
X7105788D01*
X7105000D02*
X7104213Y4579528D01*
X7103426Y4577166D02*
X7101852D01*
Y4577560D01*
X7103426Y4579134D01*
Y4579528D01*
X7101064D02*
Y4579134D01*
X7100671D01*
Y4579528D01*
X7101064D01*
X7099097Y4577166D02*
Y4579528D01*
X7097916D01*
X7097523Y4579134D01*
Y4577560D01*
X7097916Y4577166D01*
X7099097D01*
X7096735D02*
X7095161D01*
X7095948D01*
Y4579528D01*
X7094374Y4577166D02*
Y4579528D01*
X7093193D01*
X7092799Y4579134D01*
Y4577560D01*
X7093193Y4577166D01*
X7094374D01*
X7106969Y4472441D02*
Y4470079D01*
X7105788D01*
X7105394Y4470473D01*
Y4471260D01*
X7105788Y4471654D01*
X7106969D01*
X7106181D02*
X7105394Y4472441D01*
X7104607Y4470079D02*
X7103033D01*
Y4470473D01*
X7104607Y4472047D01*
Y4472441D01*
X7102245D02*
Y4472047D01*
X7101852D01*
Y4472441D01*
X7102245D01*
X7100278Y4470079D02*
Y4472441D01*
X7099097D01*
X7098704Y4472047D01*
Y4470473D01*
X7099097Y4470079D01*
X7100278D01*
X7097916D02*
X7096342D01*
X7097129D01*
Y4472441D01*
X7093980Y4470473D02*
X7094374Y4470079D01*
X7095161D01*
X7095555Y4470473D01*
Y4472047D01*
X7095161Y4472441D01*
X7094374D01*
X7093980Y4472047D01*
X7107362Y4368110D02*
Y4365749D01*
X7106181D01*
X7105788Y4366142D01*
Y4366930D01*
X7106181Y4367323D01*
X7107362D01*
X7106575D02*
X7105788Y4368110D01*
X7105001Y4365749D02*
X7103426D01*
Y4366142D01*
X7105001Y4367717D01*
Y4368110D01*
X7102639D02*
Y4367717D01*
X7102246D01*
Y4368110D01*
X7102639D01*
X7100671Y4365749D02*
Y4368110D01*
X7099491D01*
X7099097Y4367717D01*
Y4366142D01*
X7099491Y4365749D01*
X7100671D01*
X7098310D02*
X7096735D01*
X7097523D01*
Y4368110D01*
X7095949Y4365749D02*
Y4368110D01*
X7094768D01*
X7094374Y4367717D01*
Y4367323D01*
X7094768Y4366930D01*
X7095949D01*
X7094768D01*
X7094374Y4366536D01*
Y4366142D01*
X7094768Y4365749D01*
X7095949D01*
X7108543Y4261024D02*
Y4258662D01*
X7107362D01*
X7106969Y4259056D01*
Y4259843D01*
X7107362Y4260236D01*
X7108543D01*
X7107756D02*
X7106969Y4261024D01*
X7106182Y4258662D02*
X7104607D01*
Y4259056D01*
X7106182Y4260630D01*
Y4261024D01*
X7103820D02*
Y4260630D01*
X7103427D01*
Y4261024D01*
X7103820D01*
X7101852Y4258662D02*
Y4261024D01*
X7100672D01*
X7100278Y4260630D01*
Y4259056D01*
X7100672Y4258662D01*
X7101852D01*
X7099491D02*
X7097917D01*
X7098704D01*
Y4261024D01*
X7097130D02*
Y4259449D01*
X7096342Y4258662D01*
X7095555Y4259449D01*
Y4261024D01*
Y4259843D01*
X7097130D01*
X7056264Y4605500D02*
Y4607861D01*
X7057446D01*
X7057839Y4607468D01*
Y4606681D01*
X7057446Y4606287D01*
X7056264D01*
X7057052D02*
X7057839Y4605500D01*
X7060201Y4607861D02*
X7059413Y4607468D01*
X7058626Y4606681D01*
Y4605894D01*
X7059019Y4605500D01*
X7059807D01*
X7060201Y4605894D01*
Y4606287D01*
X7059807Y4606681D01*
X7058626D01*
X7060988Y4605500D02*
Y4605894D01*
X7061381D01*
Y4605500D01*
X7060988D01*
X7062955Y4607861D02*
Y4605500D01*
X7064136D01*
X7064529Y4605894D01*
Y4607468D01*
X7064136Y4607861D01*
X7062955D01*
X7065317D02*
X7066891D01*
X7066104D01*
Y4605500D01*
X7067678Y4607861D02*
Y4605500D01*
X7068859D01*
X7069253Y4605894D01*
Y4607468D01*
X7068859Y4607861D01*
X7067678D01*
X7056264Y4500000D02*
Y4502362D01*
X7057446D01*
X7057839Y4501968D01*
Y4501181D01*
X7057446Y4500787D01*
X7056264D01*
X7057052D02*
X7057839Y4500000D01*
X7060201Y4502362D02*
X7059413Y4501968D01*
X7058626Y4501181D01*
Y4500394D01*
X7059019Y4500000D01*
X7059807D01*
X7060201Y4500394D01*
Y4500787D01*
X7059807Y4501181D01*
X7058626D01*
X7060988Y4500000D02*
Y4500394D01*
X7061381D01*
Y4500000D01*
X7060988D01*
X7062955Y4502362D02*
Y4500000D01*
X7064136D01*
X7064529Y4500394D01*
Y4501968D01*
X7064136Y4502362D01*
X7062955D01*
X7065317D02*
X7066891D01*
X7066104D01*
Y4500000D01*
X7069253Y4501968D02*
X7068859Y4502362D01*
X7068072D01*
X7067678Y4501968D01*
Y4500394D01*
X7068072Y4500000D01*
X7068859D01*
X7069253Y4500394D01*
X7056264Y4393700D02*
Y4396061D01*
X7057446D01*
X7057839Y4395668D01*
Y4394881D01*
X7057446Y4394487D01*
X7056264D01*
X7057052D02*
X7057839Y4393700D01*
X7060201Y4396061D02*
X7059413Y4395668D01*
X7058626Y4394881D01*
Y4394094D01*
X7059019Y4393700D01*
X7059807D01*
X7060201Y4394094D01*
Y4394487D01*
X7059807Y4394881D01*
X7058626D01*
X7060988Y4393700D02*
Y4394094D01*
X7061381D01*
Y4393700D01*
X7060988D01*
X7062955Y4396061D02*
Y4393700D01*
X7064136D01*
X7064529Y4394094D01*
Y4395668D01*
X7064136Y4396061D01*
X7062955D01*
X7065317D02*
X7066891D01*
X7066104D01*
Y4393700D01*
X7067678Y4396061D02*
Y4393700D01*
X7068859D01*
X7069253Y4394094D01*
Y4394487D01*
X7068859Y4394881D01*
X7067678D01*
X7068859D01*
X7069253Y4395274D01*
Y4395668D01*
X7068859Y4396061D01*
X7067678D01*
X7056969Y4287008D02*
Y4289369D01*
X7058149D01*
X7058543Y4288976D01*
Y4288189D01*
X7058149Y4287795D01*
X7056969D01*
X7057756D02*
X7058543Y4287008D01*
X7060904Y4289369D02*
X7060117Y4288976D01*
X7059330Y4288189D01*
Y4287402D01*
X7059724Y4287008D01*
X7060511D01*
X7060904Y4287402D01*
Y4287795D01*
X7060511Y4288189D01*
X7059330D01*
X7061691Y4287008D02*
Y4287402D01*
X7062085D01*
Y4287008D01*
X7061691D01*
X7063659Y4289369D02*
Y4287008D01*
X7064840D01*
X7065234Y4287402D01*
Y4288976D01*
X7064840Y4289369D01*
X7063659D01*
X7066021D02*
X7067595D01*
X7066808D01*
Y4287008D01*
X7068382D02*
Y4288582D01*
X7069170Y4289369D01*
X7069956Y4288582D01*
Y4287008D01*
Y4288189D01*
X7068382D01*
X7042008Y4173622D02*
Y4175983D01*
X7043188D01*
X7043582Y4175590D01*
Y4174803D01*
X7043188Y4174409D01*
X7042008D01*
X7042795D02*
X7043582Y4173622D01*
X7045550D02*
Y4175983D01*
X7044370Y4174803D01*
X7045943D01*
X7131564Y4176500D02*
Y4178862D01*
X7132745D01*
X7133139Y4178468D01*
Y4177681D01*
X7132745Y4177287D01*
X7131564D01*
X7132352D02*
X7133139Y4176500D01*
X7135500D02*
X7133926D01*
X7135500Y4178074D01*
Y4178468D01*
X7135107Y4178862D01*
X7134319D01*
X7133926Y4178468D01*
X7264449Y4365748D02*
Y4367322D01*
X7264055Y4367716D01*
X7263268D01*
X7262874Y4367322D01*
Y4365748D01*
X7263268Y4365354D01*
X7264055D01*
X7263661Y4366142D02*
X7264449Y4365354D01*
X7264055D02*
X7264449Y4365748D01*
X7265235Y4367716D02*
X7266810D01*
Y4367322D01*
X7265235Y4365748D01*
Y4365354D01*
X7036102Y4175118D02*
Y4176692D01*
X7035709Y4177086D01*
X7034921D01*
X7034528Y4176692D01*
Y4175118D01*
X7034921Y4174725D01*
X7035709D01*
X7035315Y4175512D02*
X7036102Y4174725D01*
X7035709D02*
X7036102Y4175118D01*
X7038464Y4174725D02*
X7036889D01*
X7038464Y4176299D01*
Y4176692D01*
X7038070Y4177086D01*
X7037283D01*
X7036889Y4176692D01*
X7123897Y4176378D02*
Y4177952D01*
X7123504Y4178346D01*
X7122717D01*
X7122323Y4177952D01*
Y4176378D01*
X7122717Y4175984D01*
X7123504D01*
X7123110Y4176772D02*
X7123897Y4175984D01*
X7123504D02*
X7123897Y4176378D01*
X7124684Y4175984D02*
X7125471D01*
X7125078D01*
Y4178346D01*
X7124684Y4177952D01*
X7265463Y4619379D02*
Y4621741D01*
X7266644D01*
X7267037Y4621347D01*
Y4620560D01*
X7266644Y4620166D01*
X7265463D01*
X7267825Y4621741D02*
Y4619379D01*
X7268612Y4620166D01*
X7269398Y4619379D01*
Y4621741D01*
X7270186Y4619379D02*
Y4621741D01*
X7270973Y4620953D01*
X7271761Y4621741D01*
Y4619379D01*
X7272547Y4618986D02*
X7274122D01*
X7276483Y4621347D02*
X7276089Y4621741D01*
X7275302D01*
X7274908Y4621347D01*
Y4619773D01*
X7275302Y4619379D01*
X7276089D01*
X7276483Y4619773D01*
X7277271Y4619379D02*
Y4621741D01*
X7278844Y4619379D01*
Y4621741D01*
X7265108Y4545110D02*
Y4547472D01*
X7266290D01*
X7266683Y4547078D01*
Y4546291D01*
X7266290Y4545898D01*
X7265108D01*
X7267470Y4547472D02*
Y4545110D01*
X7268257Y4545898D01*
X7269044Y4545110D01*
Y4547472D01*
X7269832Y4545110D02*
Y4547472D01*
X7270618Y4546685D01*
X7271406Y4547472D01*
Y4545110D01*
X7272193Y4544717D02*
X7273767D01*
X7274554Y4545110D02*
Y4546685D01*
X7275342Y4547472D01*
X7276128Y4546685D01*
Y4545110D01*
Y4546291D01*
X7274554D01*
X7276916Y4547472D02*
Y4545110D01*
X7278097D01*
X7278490Y4545504D01*
Y4545898D01*
X7278097Y4546291D01*
X7276916D01*
X7278097D01*
X7278490Y4546685D01*
Y4547078D01*
X7278097Y4547472D01*
X7276916D01*
X7070354Y4155117D02*
Y4152756D01*
Y4153543D01*
X7071928Y4155117D01*
X7070748Y4153937D01*
X7071928Y4152756D01*
X7072716D02*
X7073503D01*
X7073109D01*
Y4155117D01*
X7072716Y4154724D01*
X7203539Y4376162D02*
X7202752D01*
X7203146D01*
Y4374194D01*
X7202752Y4373800D01*
X7202358D01*
X7201965Y4374194D01*
X7204326Y4373800D02*
Y4376162D01*
X7205507D01*
X7205901Y4375768D01*
Y4374981D01*
X7205507Y4374587D01*
X7204326D01*
X7208262Y4376162D02*
X7206687D01*
Y4374981D01*
X7207475Y4375374D01*
X7207868D01*
X7208262Y4374981D01*
Y4374194D01*
X7207868Y4373800D01*
X7207081D01*
X7206687Y4374194D01*
X7057939Y4533862D02*
X7057152D01*
X7057545D01*
Y4531894D01*
X7057152Y4531500D01*
X7056758D01*
X7056364Y4531894D01*
X7058726Y4531500D02*
Y4533862D01*
X7059907D01*
X7060300Y4533468D01*
Y4532681D01*
X7059907Y4532287D01*
X7058726D01*
X7062268Y4531500D02*
Y4533862D01*
X7061088Y4532681D01*
X7062662D01*
X7063449Y4531500D02*
Y4531894D01*
X7063843D01*
Y4531500D01*
X7063449D01*
X7065417Y4533862D02*
Y4531500D01*
X7066598D01*
X7066991Y4531894D01*
Y4533468D01*
X7066598Y4533862D01*
X7065417D01*
X7067778D02*
X7069353D01*
X7068565D01*
Y4531500D01*
X7070139Y4533862D02*
Y4531500D01*
X7071320D01*
X7071714Y4531894D01*
Y4533468D01*
X7071320Y4533862D01*
X7070139D01*
X7058149Y4427164D02*
X7057362D01*
X7057755D01*
Y4425197D01*
X7057362Y4424803D01*
X7056969D01*
X7056575Y4425197D01*
X7058936Y4424803D02*
Y4427164D01*
X7060117D01*
X7060510Y4426771D01*
Y4425984D01*
X7060117Y4425590D01*
X7058936D01*
X7062479Y4424803D02*
Y4427164D01*
X7061298Y4425984D01*
X7062872D01*
X7063659Y4424803D02*
Y4425197D01*
X7064053D01*
Y4424803D01*
X7063659D01*
X7065627Y4427164D02*
Y4424803D01*
X7066808D01*
X7067201Y4425197D01*
Y4426771D01*
X7066808Y4427164D01*
X7065627D01*
X7067989D02*
X7069563D01*
X7068776D01*
Y4424803D01*
X7071924Y4426771D02*
X7071531Y4427164D01*
X7070744D01*
X7070350Y4426771D01*
Y4425197D01*
X7070744Y4424803D01*
X7071531D01*
X7071924Y4425197D01*
X7058149Y4320865D02*
X7057362D01*
X7057755D01*
Y4318898D01*
X7057362Y4318504D01*
X7056969D01*
X7056575Y4318898D01*
X7058936Y4318504D02*
Y4320865D01*
X7060117D01*
X7060510Y4320472D01*
Y4319685D01*
X7060117Y4319291D01*
X7058936D01*
X7062479Y4318504D02*
Y4320865D01*
X7061298Y4319685D01*
X7062872D01*
X7063659Y4318504D02*
Y4318898D01*
X7064053D01*
Y4318504D01*
X7063659D01*
X7065627Y4320865D02*
Y4318504D01*
X7066808D01*
X7067201Y4318898D01*
Y4320472D01*
X7066808Y4320865D01*
X7065627D01*
X7067989D02*
X7069563D01*
X7068776D01*
Y4318504D01*
X7070350Y4320865D02*
Y4318504D01*
X7071531D01*
X7071924Y4318898D01*
Y4319291D01*
X7071531Y4319685D01*
X7070350D01*
X7071531D01*
X7071924Y4320078D01*
Y4320472D01*
X7071531Y4320865D01*
X7070350D01*
X7057939Y4215862D02*
X7057152D01*
X7057545D01*
Y4213894D01*
X7057152Y4213500D01*
X7056758D01*
X7056364Y4213894D01*
X7058726Y4213500D02*
Y4215862D01*
X7059907D01*
X7060300Y4215468D01*
Y4214681D01*
X7059907Y4214287D01*
X7058726D01*
X7062268Y4213500D02*
Y4215862D01*
X7061088Y4214681D01*
X7062662D01*
X7063449Y4213500D02*
Y4213894D01*
X7063843D01*
Y4213500D01*
X7063449D01*
X7065417Y4215862D02*
Y4213500D01*
X7066598D01*
X7066991Y4213894D01*
Y4215468D01*
X7066598Y4215862D01*
X7065417D01*
X7067778D02*
X7069353D01*
X7068565D01*
Y4213500D01*
X7070139D02*
Y4215074D01*
X7070927Y4215862D01*
X7071714Y4215074D01*
Y4213500D01*
Y4214681D01*
X7070139D01*
X7088939Y4612862D02*
X7088152D01*
X7088545D01*
Y4610894D01*
X7088152Y4610500D01*
X7087758D01*
X7087365Y4610894D01*
X7089726Y4610500D02*
Y4612862D01*
X7090907D01*
X7091300Y4612468D01*
Y4611681D01*
X7090907Y4611287D01*
X7089726D01*
X7092088Y4612468D02*
X7092481Y4612862D01*
X7093268D01*
X7093661Y4612468D01*
Y4612074D01*
X7093268Y4611681D01*
X7092875D01*
X7093268D01*
X7093661Y4611287D01*
Y4610894D01*
X7093268Y4610500D01*
X7092481D01*
X7092088Y4610894D01*
X7094449Y4610500D02*
Y4610894D01*
X7094843D01*
Y4610500D01*
X7094449D01*
X7096416Y4612862D02*
Y4610500D01*
X7097598D01*
X7097991Y4610894D01*
Y4612468D01*
X7097598Y4612862D01*
X7096416D01*
X7098779D02*
X7100352D01*
X7099565D01*
Y4610500D01*
X7101140Y4612862D02*
Y4610500D01*
X7102320D01*
X7102714Y4610894D01*
Y4612468D01*
X7102320Y4612862D01*
X7101140D01*
X7089645Y4505905D02*
X7088858D01*
X7089252D01*
Y4503937D01*
X7088858Y4503543D01*
X7088464D01*
X7088071Y4503937D01*
X7090432Y4503543D02*
Y4505905D01*
X7091613D01*
X7092007Y4505511D01*
Y4504724D01*
X7091613Y4504330D01*
X7090432D01*
X7092794Y4505511D02*
X7093187Y4505905D01*
X7093974D01*
X7094368Y4505511D01*
Y4505117D01*
X7093974Y4504724D01*
X7093581D01*
X7093974D01*
X7094368Y4504330D01*
Y4503937D01*
X7093974Y4503543D01*
X7093187D01*
X7092794Y4503937D01*
X7095155Y4503543D02*
Y4503937D01*
X7095549D01*
Y4503543D01*
X7095155D01*
X7097123Y4505905D02*
Y4503543D01*
X7098304D01*
X7098698Y4503937D01*
Y4505511D01*
X7098304Y4505905D01*
X7097123D01*
X7099484D02*
X7101059D01*
X7100272D01*
Y4503543D01*
X7103420Y4505511D02*
X7103027Y4505905D01*
X7102239D01*
X7101846Y4505511D01*
Y4503937D01*
X7102239Y4503543D01*
X7103027D01*
X7103420Y4503937D01*
X7088858Y4399606D02*
X7088071D01*
X7088464D01*
Y4397638D01*
X7088071Y4397244D01*
X7087677D01*
X7087283Y4397638D01*
X7089645Y4397244D02*
Y4399606D01*
X7090826D01*
X7091219Y4399212D01*
Y4398425D01*
X7090826Y4398031D01*
X7089645D01*
X7092007Y4399212D02*
X7092400Y4399606D01*
X7093187D01*
X7093581Y4399212D01*
Y4398819D01*
X7093187Y4398425D01*
X7092793D01*
X7093187D01*
X7093581Y4398031D01*
Y4397638D01*
X7093187Y4397244D01*
X7092400D01*
X7092007Y4397638D01*
X7094368Y4397244D02*
Y4397638D01*
X7094762D01*
Y4397244D01*
X7094368D01*
X7096336Y4399606D02*
Y4397244D01*
X7097517D01*
X7097910Y4397638D01*
Y4399212D01*
X7097517Y4399606D01*
X7096336D01*
X7098697D02*
X7100272D01*
X7099484D01*
Y4397244D01*
X7101058Y4399606D02*
Y4397244D01*
X7102239D01*
X7102633Y4397638D01*
Y4398031D01*
X7102239Y4398425D01*
X7101058D01*
X7102239D01*
X7102633Y4398819D01*
Y4399212D01*
X7102239Y4399606D01*
X7101058D01*
X7088858Y4294094D02*
X7088071D01*
X7088464D01*
Y4292126D01*
X7088071Y4291732D01*
X7087677D01*
X7087283Y4292126D01*
X7089645Y4291732D02*
Y4294094D01*
X7090826D01*
X7091219Y4293700D01*
Y4292913D01*
X7090826Y4292519D01*
X7089645D01*
X7092007Y4293700D02*
X7092400Y4294094D01*
X7093187D01*
X7093581Y4293700D01*
Y4293307D01*
X7093187Y4292913D01*
X7092793D01*
X7093187D01*
X7093581Y4292519D01*
Y4292126D01*
X7093187Y4291732D01*
X7092400D01*
X7092007Y4292126D01*
X7094368Y4291732D02*
Y4292126D01*
X7094762D01*
Y4291732D01*
X7094368D01*
X7096336Y4294094D02*
Y4291732D01*
X7097517D01*
X7097910Y4292126D01*
Y4293700D01*
X7097517Y4294094D01*
X7096336D01*
X7098697D02*
X7100272D01*
X7099484D01*
Y4291732D01*
X7101058D02*
Y4293307D01*
X7101846Y4294094D01*
X7102633Y4293307D01*
Y4291732D01*
Y4292913D01*
X7101058D01*
X7109724Y4618503D02*
X7108937D01*
X7109330D01*
Y4616535D01*
X7108937Y4616142D01*
X7108543D01*
X7108150Y4616535D01*
X7110511Y4616142D02*
Y4618503D01*
X7111692D01*
X7112085Y4618110D01*
Y4617323D01*
X7111692Y4616929D01*
X7110511D01*
X7114447Y4616142D02*
X7112872D01*
X7114447Y4617716D01*
Y4618110D01*
X7114053Y4618503D01*
X7113266D01*
X7112872Y4618110D01*
X7115234Y4616142D02*
Y4616535D01*
X7115627D01*
Y4616142D01*
X7115234D01*
X7117202Y4618503D02*
Y4616142D01*
X7118382D01*
X7118776Y4616535D01*
Y4618110D01*
X7118382Y4618503D01*
X7117202D01*
X7119563D02*
X7121137D01*
X7120351D01*
Y4616142D01*
X7121925Y4618503D02*
Y4616142D01*
X7123106D01*
X7123499Y4616535D01*
Y4618110D01*
X7123106Y4618503D01*
X7121925D01*
X7110117Y4505905D02*
X7109331D01*
X7109724D01*
Y4503937D01*
X7109331Y4503543D01*
X7108937D01*
X7108543Y4503937D01*
X7110905Y4503543D02*
Y4505905D01*
X7112086D01*
X7112479Y4505511D01*
Y4504724D01*
X7112086Y4504330D01*
X7110905D01*
X7114841Y4503543D02*
X7113266D01*
X7114841Y4505117D01*
Y4505511D01*
X7114447Y4505905D01*
X7113660D01*
X7113266Y4505511D01*
X7115627Y4503543D02*
Y4503937D01*
X7116021D01*
Y4503543D01*
X7115627D01*
X7117596Y4505905D02*
Y4503543D01*
X7118776D01*
X7119170Y4503937D01*
Y4505511D01*
X7118776Y4505905D01*
X7117596D01*
X7119957D02*
X7121531D01*
X7120744D01*
Y4503543D01*
X7123893Y4505511D02*
X7123499Y4505905D01*
X7122712D01*
X7122318Y4505511D01*
Y4503937D01*
X7122712Y4503543D01*
X7123499D01*
X7123893Y4503937D01*
X7110630Y4400529D02*
X7109843D01*
X7110236D01*
Y4398561D01*
X7109843Y4398168D01*
X7109450D01*
X7109056Y4398561D01*
X7111417Y4398168D02*
Y4400529D01*
X7112598D01*
X7112991Y4400135D01*
Y4399348D01*
X7112598Y4398955D01*
X7111417D01*
X7115353Y4398168D02*
X7113779D01*
X7115353Y4399742D01*
Y4400135D01*
X7114960Y4400529D01*
X7114172D01*
X7113779Y4400135D01*
X7116140Y4398168D02*
Y4398561D01*
X7116534D01*
Y4398168D01*
X7116140D01*
X7118108Y4400529D02*
Y4398168D01*
X7119289D01*
X7119682Y4398561D01*
Y4400135D01*
X7119289Y4400529D01*
X7118108D01*
X7120470D02*
X7122044D01*
X7121257D01*
Y4398168D01*
X7122831Y4400529D02*
Y4398168D01*
X7124012D01*
X7124406Y4398561D01*
Y4398955D01*
X7124012Y4399348D01*
X7122831D01*
X7124012D01*
X7124406Y4399742D01*
Y4400135D01*
X7124012Y4400529D01*
X7122831D01*
X7110239Y4294862D02*
X7109452D01*
X7109845D01*
Y4292894D01*
X7109452Y4292500D01*
X7109058D01*
X7108665Y4292894D01*
X7111026Y4292500D02*
Y4294862D01*
X7112207D01*
X7112600Y4294468D01*
Y4293681D01*
X7112207Y4293287D01*
X7111026D01*
X7114962Y4292500D02*
X7113387D01*
X7114962Y4294074D01*
Y4294468D01*
X7114568Y4294862D01*
X7113781D01*
X7113387Y4294468D01*
X7115749Y4292500D02*
Y4292894D01*
X7116142D01*
Y4292500D01*
X7115749D01*
X7117717Y4294862D02*
Y4292500D01*
X7118897D01*
X7119291Y4292894D01*
Y4294468D01*
X7118897Y4294862D01*
X7117717D01*
X7120078D02*
X7121652D01*
X7120866D01*
Y4292500D01*
X7122440D02*
Y4294074D01*
X7123227Y4294862D01*
X7124014Y4294074D01*
Y4292500D01*
Y4293681D01*
X7122440D01*
X7057039Y4580962D02*
X7056252D01*
X7056645D01*
Y4578994D01*
X7056252Y4578600D01*
X7055858D01*
X7055465Y4578994D01*
X7057826Y4578600D02*
Y4580962D01*
X7059007D01*
X7059400Y4580568D01*
Y4579781D01*
X7059007Y4579387D01*
X7057826D01*
X7060188Y4578600D02*
X7060975D01*
X7060581D01*
Y4580962D01*
X7060188Y4580568D01*
X7062155Y4578600D02*
Y4578994D01*
X7062549D01*
Y4578600D01*
X7062155D01*
X7064124Y4580962D02*
Y4578600D01*
X7065304D01*
X7065697Y4578994D01*
Y4580568D01*
X7065304Y4580962D01*
X7064124D01*
X7066485D02*
X7068059D01*
X7067271D01*
Y4578600D01*
X7068846Y4580962D02*
Y4578600D01*
X7070027D01*
X7070420Y4578994D01*
Y4580568D01*
X7070027Y4580962D01*
X7068846D01*
X7057039Y4474961D02*
X7056252D01*
X7056645D01*
Y4472993D01*
X7056252Y4472600D01*
X7055858D01*
X7055465Y4472993D01*
X7057826Y4472600D02*
Y4474961D01*
X7059007D01*
X7059400Y4474568D01*
Y4473781D01*
X7059007Y4473387D01*
X7057826D01*
X7060188Y4472600D02*
X7060975D01*
X7060581D01*
Y4474961D01*
X7060188Y4474568D01*
X7062155Y4472600D02*
Y4472993D01*
X7062549D01*
Y4472600D01*
X7062155D01*
X7064124Y4474961D02*
Y4472600D01*
X7065304D01*
X7065697Y4472993D01*
Y4474568D01*
X7065304Y4474961D01*
X7064124D01*
X7066485D02*
X7068059D01*
X7067271D01*
Y4472600D01*
X7070420Y4474568D02*
X7070027Y4474961D01*
X7069240D01*
X7068846Y4474568D01*
Y4472993D01*
X7069240Y4472600D01*
X7070027D01*
X7070420Y4472993D01*
X7057039Y4368961D02*
X7056252D01*
X7056645D01*
Y4366994D01*
X7056252Y4366600D01*
X7055858D01*
X7055465Y4366994D01*
X7057826Y4366600D02*
Y4368961D01*
X7059007D01*
X7059400Y4368568D01*
Y4367781D01*
X7059007Y4367387D01*
X7057826D01*
X7060188Y4366600D02*
X7060975D01*
X7060581D01*
Y4368961D01*
X7060188Y4368568D01*
X7062155Y4366600D02*
Y4366994D01*
X7062549D01*
Y4366600D01*
X7062155D01*
X7064124Y4368961D02*
Y4366600D01*
X7065304D01*
X7065697Y4366994D01*
Y4368568D01*
X7065304Y4368961D01*
X7064124D01*
X7066485D02*
X7068059D01*
X7067271D01*
Y4366600D01*
X7068846Y4368961D02*
Y4366600D01*
X7070027D01*
X7070420Y4366994D01*
Y4367387D01*
X7070027Y4367781D01*
X7068846D01*
X7070027D01*
X7070420Y4368174D01*
Y4368568D01*
X7070027Y4368961D01*
X7068846D01*
X7057039Y4262962D02*
X7056252D01*
X7056645D01*
Y4260994D01*
X7056252Y4260600D01*
X7055858D01*
X7055465Y4260994D01*
X7057826Y4260600D02*
Y4262962D01*
X7059007D01*
X7059400Y4262568D01*
Y4261781D01*
X7059007Y4261387D01*
X7057826D01*
X7060188Y4260600D02*
X7060975D01*
X7060581D01*
Y4262962D01*
X7060188Y4262568D01*
X7062155Y4260600D02*
Y4260994D01*
X7062549D01*
Y4260600D01*
X7062155D01*
X7064124Y4262962D02*
Y4260600D01*
X7065304D01*
X7065697Y4260994D01*
Y4262568D01*
X7065304Y4262962D01*
X7064124D01*
X7066485D02*
X7068059D01*
X7067271D01*
Y4260600D01*
X7068846D02*
Y4262174D01*
X7069633Y4262962D01*
X7070420Y4262174D01*
Y4260600D01*
Y4261781D01*
X7068846D01*
X7336495Y4284646D02*
Y4286221D01*
X7335315D01*
Y4285433D01*
Y4286221D01*
X7334134D01*
X7335708Y4283466D02*
Y4282678D01*
X7335315Y4282285D01*
X7334134D01*
Y4283466D01*
X7334528Y4283859D01*
X7334921Y4283466D01*
Y4282285D01*
X7335708Y4281498D02*
X7334528D01*
X7334134Y4281104D01*
Y4279923D01*
X7335708D01*
X7334134Y4279136D02*
Y4278349D01*
Y4278743D01*
X7336495D01*
Y4279136D01*
X7336102Y4276775D02*
X7335708D01*
Y4277168D01*
Y4276381D01*
Y4276775D01*
X7334528D01*
X7334134Y4276381D01*
Y4275200D02*
Y4274020D01*
X7334528Y4273626D01*
X7334921Y4274020D01*
Y4274807D01*
X7335315Y4275200D01*
X7335708Y4274807D01*
Y4273626D01*
X7254211Y4288976D02*
X7251850D01*
Y4287796D01*
X7252244Y4287402D01*
X7253819D01*
X7254211Y4287796D01*
Y4288976D01*
X7251850Y4285041D02*
Y4286615D01*
X7253425Y4285041D01*
X7253819D01*
X7254211Y4285434D01*
Y4286221D01*
X7253819Y4286615D01*
X7252244Y4284253D02*
X7251850Y4283860D01*
Y4283073D01*
X7252244Y4282679D01*
X7253819D01*
X7254211Y4283073D01*
Y4283860D01*
X7253819Y4284253D01*
X7253425D01*
X7253031Y4283860D01*
Y4282679D01*
X7253818Y4269685D02*
X7251456D01*
Y4268504D01*
X7251850Y4268111D01*
X7253425D01*
X7253818Y4268504D01*
Y4269685D01*
X7251456Y4265749D02*
Y4267324D01*
X7253031Y4265749D01*
X7253425D01*
X7253818Y4266143D01*
Y4266930D01*
X7253425Y4267324D01*
Y4264962D02*
X7253818Y4264569D01*
Y4263781D01*
X7253425Y4263388D01*
X7253031D01*
X7252637Y4263781D01*
X7252244Y4263388D01*
X7251850D01*
X7251456Y4263781D01*
Y4264569D01*
X7251850Y4264962D01*
X7252244D01*
X7252637Y4264569D01*
X7253031Y4264962D01*
X7253425D01*
X7252637Y4264569D02*
Y4263781D01*
X7254211Y4248819D02*
X7251850D01*
Y4247638D01*
X7252244Y4247245D01*
X7253819D01*
X7254211Y4247638D01*
Y4248819D01*
X7251850Y4244883D02*
Y4246458D01*
X7253425Y4244883D01*
X7253819D01*
X7254211Y4245277D01*
Y4246064D01*
X7253819Y4246458D01*
X7254211Y4244096D02*
Y4242522D01*
X7253819D01*
X7252244Y4244096D01*
X7251850D01*
X7255000Y4228740D02*
X7252637D01*
Y4227559D01*
X7253031Y4227166D01*
X7254606D01*
X7255000Y4227559D01*
Y4228740D01*
X7252637Y4224804D02*
Y4226379D01*
X7254212Y4224804D01*
X7254606D01*
X7255000Y4225198D01*
Y4225985D01*
X7254606Y4226379D01*
X7255000Y4222443D02*
X7254606Y4223230D01*
X7253819Y4224017D01*
X7253031D01*
X7252637Y4223624D01*
Y4222837D01*
X7253031Y4222443D01*
X7253425D01*
X7253819Y4222837D01*
Y4224017D01*
X7208150Y4291732D02*
X7210512D01*
Y4292913D01*
X7210118Y4293307D01*
X7208544D01*
X7208150Y4292913D01*
Y4291732D01*
X7210512Y4295668D02*
Y4294094D01*
X7208938Y4295668D01*
X7208544D01*
X7208150Y4295274D01*
Y4294487D01*
X7208544Y4294094D01*
X7208150Y4298029D02*
Y4296455D01*
X7209331D01*
X7208938Y4297242D01*
Y4297636D01*
X7209331Y4298029D01*
X7210118D01*
X7210512Y4297636D01*
Y4296849D01*
X7210118Y4296455D01*
X7207757Y4272441D02*
X7210118D01*
Y4273622D01*
X7209724Y4274015D01*
X7208150D01*
X7207757Y4273622D01*
Y4272441D01*
X7210118Y4276377D02*
Y4274802D01*
X7208544Y4276377D01*
X7208150D01*
X7207757Y4275983D01*
Y4275196D01*
X7208150Y4274802D01*
X7210118Y4278345D02*
X7207757D01*
X7208937Y4277164D01*
Y4278738D01*
X7207757Y4252756D02*
X7210118D01*
Y4253937D01*
X7209724Y4254330D01*
X7208150D01*
X7207757Y4253937D01*
Y4252756D01*
X7210118Y4256692D02*
Y4255117D01*
X7208544Y4256692D01*
X7208150D01*
X7207757Y4256298D01*
Y4255511D01*
X7208150Y4255117D01*
Y4257479D02*
X7207757Y4257872D01*
Y4258659D01*
X7208150Y4259053D01*
X7208544D01*
X7208937Y4258659D01*
Y4258266D01*
Y4258659D01*
X7209331Y4259053D01*
X7209724D01*
X7210118Y4258659D01*
Y4257872D01*
X7209724Y4257479D01*
X7207757Y4233071D02*
X7210118D01*
Y4234252D01*
X7209724Y4234645D01*
X7208150D01*
X7207757Y4234252D01*
Y4233071D01*
X7210118Y4237007D02*
Y4235432D01*
X7208544Y4237007D01*
X7208150D01*
X7207757Y4236613D01*
Y4235826D01*
X7208150Y4235432D01*
X7210118Y4239368D02*
Y4237794D01*
X7208544Y4239368D01*
X7208150D01*
X7207757Y4238974D01*
Y4238187D01*
X7208150Y4237794D01*
X7282764Y4346362D02*
Y4344000D01*
X7283945D01*
X7284339Y4344394D01*
Y4345968D01*
X7283945Y4346362D01*
X7282764D01*
X7286700Y4344000D02*
X7285126D01*
X7286700Y4345574D01*
Y4345968D01*
X7286307Y4346362D01*
X7285519D01*
X7285126Y4345968D01*
X7287488Y4344000D02*
X7288274D01*
X7287881D01*
Y4346362D01*
X7287488Y4345968D01*
X7111299Y4537794D02*
Y4535433D01*
X7112480D01*
X7112874Y4535826D01*
Y4537401D01*
X7112480Y4537794D01*
X7111299D01*
X7113660Y4537401D02*
X7114054Y4537794D01*
X7114841D01*
X7115235Y4537401D01*
Y4537008D01*
X7114841Y4536614D01*
X7115235Y4536220D01*
Y4535826D01*
X7114841Y4535433D01*
X7114054D01*
X7113660Y4535826D01*
Y4536220D01*
X7114054Y4536614D01*
X7113660Y4537008D01*
Y4537401D01*
X7114054Y4536614D02*
X7114841D01*
X7116022Y4535433D02*
Y4535826D01*
X7116415D01*
Y4535433D01*
X7116022D01*
X7117990Y4537794D02*
Y4535433D01*
X7119170D01*
X7119564Y4535826D01*
Y4537401D01*
X7119170Y4537794D01*
X7117990D01*
X7120351D02*
X7121925D01*
X7121139D01*
Y4535433D01*
X7122713Y4537794D02*
Y4535433D01*
X7123894D01*
X7124287Y4535826D01*
Y4537401D01*
X7123894Y4537794D01*
X7122713D01*
X7109720Y4432702D02*
Y4430341D01*
X7110900D01*
X7111294Y4430735D01*
Y4432309D01*
X7110900Y4432702D01*
X7109720D01*
X7112081Y4432309D02*
X7112475Y4432702D01*
X7113262D01*
X7113655Y4432309D01*
Y4431915D01*
X7113262Y4431522D01*
X7113655Y4431128D01*
Y4430735D01*
X7113262Y4430341D01*
X7112475D01*
X7112081Y4430735D01*
Y4431128D01*
X7112475Y4431522D01*
X7112081Y4431915D01*
Y4432309D01*
X7112475Y4431522D02*
X7113262D01*
X7114442Y4430341D02*
Y4430735D01*
X7114836D01*
Y4430341D01*
X7114442D01*
X7116410Y4432702D02*
Y4430341D01*
X7117591D01*
X7117985Y4430735D01*
Y4432309D01*
X7117591Y4432702D01*
X7116410D01*
X7118772D02*
X7120346D01*
X7119559D01*
Y4430341D01*
X7122707Y4432309D02*
X7122314Y4432702D01*
X7121527D01*
X7121133Y4432309D01*
Y4430735D01*
X7121527Y4430341D01*
X7122314D01*
X7122707Y4430735D01*
X7107764Y4327161D02*
Y4324800D01*
X7108945D01*
X7109339Y4325194D01*
Y4326768D01*
X7108945Y4327161D01*
X7107764D01*
X7110126Y4326768D02*
X7110519Y4327161D01*
X7111307D01*
X7111700Y4326768D01*
Y4326374D01*
X7111307Y4325981D01*
X7111700Y4325587D01*
Y4325194D01*
X7111307Y4324800D01*
X7110519D01*
X7110126Y4325194D01*
Y4325587D01*
X7110519Y4325981D01*
X7110126Y4326374D01*
Y4326768D01*
X7110519Y4325981D02*
X7111307D01*
X7112488Y4324800D02*
Y4325194D01*
X7112881D01*
Y4324800D01*
X7112488D01*
X7114455Y4327161D02*
Y4324800D01*
X7115636D01*
X7116029Y4325194D01*
Y4326768D01*
X7115636Y4327161D01*
X7114455D01*
X7116817D02*
X7118391D01*
X7117604D01*
Y4324800D01*
X7119178Y4327161D02*
Y4324800D01*
X7120359D01*
X7120753Y4325194D01*
Y4325587D01*
X7120359Y4325981D01*
X7119178D01*
X7120359D01*
X7120753Y4326374D01*
Y4326768D01*
X7120359Y4327161D01*
X7119178D01*
X7109724Y4220078D02*
Y4217717D01*
X7110905D01*
X7111298Y4218110D01*
Y4219684D01*
X7110905Y4220078D01*
X7109724D01*
X7112086Y4219684D02*
X7112479Y4220078D01*
X7113267D01*
X7113660Y4219684D01*
Y4219291D01*
X7113267Y4218897D01*
X7113660Y4218504D01*
Y4218110D01*
X7113267Y4217717D01*
X7112479D01*
X7112086Y4218110D01*
Y4218504D01*
X7112479Y4218897D01*
X7112086Y4219291D01*
Y4219684D01*
X7112479Y4218897D02*
X7113267D01*
X7114447Y4217717D02*
Y4218110D01*
X7114841D01*
Y4217717D01*
X7114447D01*
X7116415Y4220078D02*
Y4217717D01*
X7117596D01*
X7117989Y4218110D01*
Y4219684D01*
X7117596Y4220078D01*
X7116415D01*
X7118777D02*
X7120351D01*
X7119564D01*
Y4217717D01*
X7121138D02*
Y4219291D01*
X7121925Y4220078D01*
X7122712Y4219291D01*
Y4217717D01*
Y4218897D01*
X7121138D01*
X7033265Y4604961D02*
Y4602600D01*
X7034445D01*
X7034839Y4602994D01*
Y4604568D01*
X7034445Y4604961D01*
X7033265D01*
X7035626D02*
X7037200D01*
Y4604568D01*
X7035626Y4602994D01*
Y4602600D01*
X7037988D02*
Y4602994D01*
X7038381D01*
Y4602600D01*
X7037988D01*
X7039955Y4604961D02*
Y4602600D01*
X7041136D01*
X7041530Y4602994D01*
Y4604568D01*
X7041136Y4604961D01*
X7039955D01*
X7042316D02*
X7043891D01*
X7043104D01*
Y4602600D01*
X7044678Y4604961D02*
Y4602600D01*
X7045859D01*
X7046252Y4602994D01*
Y4604568D01*
X7045859Y4604961D01*
X7044678D01*
X7033265Y4498962D02*
Y4496600D01*
X7034445D01*
X7034839Y4496994D01*
Y4498568D01*
X7034445Y4498962D01*
X7033265D01*
X7035626D02*
X7037200D01*
Y4498568D01*
X7035626Y4496994D01*
Y4496600D01*
X7037988D02*
Y4496994D01*
X7038381D01*
Y4496600D01*
X7037988D01*
X7039955Y4498962D02*
Y4496600D01*
X7041136D01*
X7041530Y4496994D01*
Y4498568D01*
X7041136Y4498962D01*
X7039955D01*
X7042316D02*
X7043891D01*
X7043104D01*
Y4496600D01*
X7046252Y4498568D02*
X7045859Y4498962D01*
X7045072D01*
X7044678Y4498568D01*
Y4496994D01*
X7045072Y4496600D01*
X7045859D01*
X7046252Y4496994D01*
X7033265Y4392962D02*
Y4390600D01*
X7034445D01*
X7034839Y4390993D01*
Y4392568D01*
X7034445Y4392962D01*
X7033265D01*
X7035626D02*
X7037200D01*
Y4392568D01*
X7035626Y4390993D01*
Y4390600D01*
X7037988D02*
Y4390993D01*
X7038381D01*
Y4390600D01*
X7037988D01*
X7039955Y4392962D02*
Y4390600D01*
X7041136D01*
X7041530Y4390993D01*
Y4392568D01*
X7041136Y4392962D01*
X7039955D01*
X7042316D02*
X7043891D01*
X7043104D01*
Y4390600D01*
X7044678Y4392962D02*
Y4390600D01*
X7045859D01*
X7046252Y4390993D01*
Y4391387D01*
X7045859Y4391781D01*
X7044678D01*
X7045859D01*
X7046252Y4392174D01*
Y4392568D01*
X7045859Y4392962D01*
X7044678D01*
X7035315Y4285826D02*
Y4283464D01*
X7036496D01*
X7036890Y4283858D01*
Y4285432D01*
X7036496Y4285826D01*
X7035315D01*
X7037676D02*
X7039251D01*
Y4285432D01*
X7037676Y4283858D01*
Y4283464D01*
X7040038D02*
Y4283858D01*
X7040431D01*
Y4283464D01*
X7040038D01*
X7042006Y4285826D02*
Y4283464D01*
X7043186D01*
X7043580Y4283858D01*
Y4285432D01*
X7043186Y4285826D01*
X7042006D01*
X7044367D02*
X7045941D01*
X7045155D01*
Y4283464D01*
X7046729D02*
Y4285039D01*
X7047516Y4285826D01*
X7048303Y4285039D01*
Y4283464D01*
Y4284645D01*
X7046729D01*
X7033265Y4593161D02*
Y4590800D01*
X7034445D01*
X7034839Y4591194D01*
Y4592768D01*
X7034445Y4593161D01*
X7033265D01*
X7037200D02*
X7036414Y4592768D01*
X7035626Y4591981D01*
Y4591194D01*
X7036020Y4590800D01*
X7036806D01*
X7037200Y4591194D01*
Y4591587D01*
X7036806Y4591981D01*
X7035626D01*
X7037988Y4590800D02*
Y4591194D01*
X7038381D01*
Y4590800D01*
X7037988D01*
X7039955Y4593161D02*
Y4590800D01*
X7041136D01*
X7041530Y4591194D01*
Y4592768D01*
X7041136Y4593161D01*
X7039955D01*
X7042316D02*
X7043891D01*
X7043104D01*
Y4590800D01*
X7044678Y4593161D02*
Y4590800D01*
X7045859D01*
X7046252Y4591194D01*
Y4592768D01*
X7045859Y4593161D01*
X7044678D01*
X7033347Y4486220D02*
Y4483858D01*
X7034527D01*
X7034921Y4484252D01*
Y4485826D01*
X7034527Y4486220D01*
X7033347D01*
X7037283D02*
X7036495Y4485826D01*
X7035708Y4485039D01*
Y4484252D01*
X7036102Y4483858D01*
X7036889D01*
X7037283Y4484252D01*
Y4484645D01*
X7036889Y4485039D01*
X7035708D01*
X7038069Y4483858D02*
Y4484252D01*
X7038463D01*
Y4483858D01*
X7038069D01*
X7040038Y4486220D02*
Y4483858D01*
X7041218D01*
X7041611Y4484252D01*
Y4485826D01*
X7041218Y4486220D01*
X7040038D01*
X7042399D02*
X7043973D01*
X7043185D01*
Y4483858D01*
X7046334Y4485826D02*
X7045941Y4486220D01*
X7045154D01*
X7044760Y4485826D01*
Y4484252D01*
X7045154Y4483858D01*
X7045941D01*
X7046334Y4484252D01*
X7033265Y4381161D02*
Y4378800D01*
X7034445D01*
X7034839Y4379193D01*
Y4380768D01*
X7034445Y4381161D01*
X7033265D01*
X7037200D02*
X7036414Y4380768D01*
X7035626Y4379981D01*
Y4379193D01*
X7036020Y4378800D01*
X7036806D01*
X7037200Y4379193D01*
Y4379587D01*
X7036806Y4379981D01*
X7035626D01*
X7037988Y4378800D02*
Y4379193D01*
X7038381D01*
Y4378800D01*
X7037988D01*
X7039955Y4381161D02*
Y4378800D01*
X7041136D01*
X7041530Y4379193D01*
Y4380768D01*
X7041136Y4381161D01*
X7039955D01*
X7042316D02*
X7043891D01*
X7043104D01*
Y4378800D01*
X7044678Y4381161D02*
Y4378800D01*
X7045859D01*
X7046252Y4379193D01*
Y4379587D01*
X7045859Y4379981D01*
X7044678D01*
X7045859D01*
X7046252Y4380374D01*
Y4380768D01*
X7045859Y4381161D01*
X7044678D01*
X7035709Y4274015D02*
Y4271653D01*
X7036890D01*
X7037283Y4272047D01*
Y4273621D01*
X7036890Y4274015D01*
X7035709D01*
X7039645D02*
X7038857Y4273621D01*
X7038070Y4272834D01*
Y4272047D01*
X7038464Y4271653D01*
X7039251D01*
X7039645Y4272047D01*
Y4272441D01*
X7039251Y4272834D01*
X7038070D01*
X7040431Y4271653D02*
Y4272047D01*
X7040825D01*
Y4271653D01*
X7040431D01*
X7042400Y4274015D02*
Y4271653D01*
X7043580D01*
X7043974Y4272047D01*
Y4273621D01*
X7043580Y4274015D01*
X7042400D01*
X7044761D02*
X7046335D01*
X7045548D01*
Y4271653D01*
X7047122D02*
Y4273228D01*
X7047910Y4274015D01*
X7048697Y4273228D01*
Y4271653D01*
Y4272834D01*
X7047122D01*
X7123898Y4577560D02*
Y4579921D01*
X7122717D01*
X7122324Y4579528D01*
Y4577953D01*
X7122717Y4577560D01*
X7123898D01*
X7119962D02*
X7121536D01*
Y4578741D01*
X7120749Y4578347D01*
X7120355D01*
X7119962Y4578741D01*
Y4579528D01*
X7120355Y4579921D01*
X7121143D01*
X7121536Y4579528D01*
X7119175Y4579921D02*
Y4579528D01*
X7118781D01*
Y4579921D01*
X7119175D01*
X7117207Y4577560D02*
Y4579921D01*
X7116026D01*
X7115633Y4579528D01*
Y4577953D01*
X7116026Y4577560D01*
X7117207D01*
X7114845D02*
X7113271D01*
X7114058D01*
Y4579921D01*
X7112484Y4577560D02*
Y4579921D01*
X7111303D01*
X7110910Y4579528D01*
Y4577953D01*
X7111303Y4577560D01*
X7112484D01*
X7122323Y4471654D02*
Y4474016D01*
X7121142D01*
X7120748Y4473622D01*
Y4472048D01*
X7121142Y4471654D01*
X7122323D01*
X7118387D02*
X7119962D01*
Y4472835D01*
X7119174Y4472441D01*
X7118781D01*
X7118387Y4472835D01*
Y4473622D01*
X7118781Y4474016D01*
X7119568D01*
X7119962Y4473622D01*
X7117600Y4474016D02*
Y4473622D01*
X7117207D01*
Y4474016D01*
X7117600D01*
X7115632Y4471654D02*
Y4474016D01*
X7114452D01*
X7114058Y4473622D01*
Y4472048D01*
X7114452Y4471654D01*
X7115632D01*
X7113271D02*
X7111697D01*
X7112483D01*
Y4474016D01*
X7109335Y4472048D02*
X7109728Y4471654D01*
X7110516D01*
X7110909Y4472048D01*
Y4473622D01*
X7110516Y4474016D01*
X7109728D01*
X7109335Y4473622D01*
X7122717Y4365561D02*
Y4367922D01*
X7121535D01*
X7121143Y4367528D01*
Y4365954D01*
X7121535Y4365561D01*
X7122717D01*
X7118781D02*
X7120355D01*
Y4366741D01*
X7119568Y4366348D01*
X7119174D01*
X7118781Y4366741D01*
Y4367528D01*
X7119174Y4367922D01*
X7119962D01*
X7120355Y4367528D01*
X7117994Y4367922D02*
Y4367528D01*
X7117600D01*
Y4367922D01*
X7117994D01*
X7116026Y4365561D02*
Y4367922D01*
X7114845D01*
X7114452Y4367528D01*
Y4365954D01*
X7114845Y4365561D01*
X7116026D01*
X7113664D02*
X7112090D01*
X7112877D01*
Y4367922D01*
X7111303Y4365561D02*
Y4367922D01*
X7110122D01*
X7109728Y4367528D01*
Y4367135D01*
X7110122Y4366741D01*
X7111303D01*
X7110122D01*
X7109728Y4366348D01*
Y4365954D01*
X7110122Y4365561D01*
X7111303D01*
X7123504Y4259056D02*
Y4261417D01*
X7122323D01*
X7121930Y4261024D01*
Y4259449D01*
X7122323Y4259056D01*
X7123504D01*
X7119568D02*
X7121143D01*
Y4260237D01*
X7120355Y4259843D01*
X7119962D01*
X7119568Y4260237D01*
Y4261024D01*
X7119962Y4261417D01*
X7120749D01*
X7121143Y4261024D01*
X7118781Y4261417D02*
Y4261024D01*
X7118388D01*
Y4261417D01*
X7118781D01*
X7116813Y4259056D02*
Y4261417D01*
X7115633D01*
X7115239Y4261024D01*
Y4259449D01*
X7115633Y4259056D01*
X7116813D01*
X7114452D02*
X7112878D01*
X7113664D01*
Y4261417D01*
X7112090D02*
Y4259843D01*
X7111303Y4259056D01*
X7110516Y4259843D01*
Y4261417D01*
Y4260237D01*
X7112090D01*
X6988264Y4167962D02*
Y4165600D01*
X6989445D01*
X6989839Y4165993D01*
Y4167568D01*
X6989445Y4167962D01*
X6988264D01*
X6991807Y4165600D02*
Y4167962D01*
X6990626Y4166781D01*
X6992200D01*
X6989645Y4179133D02*
Y4176772D01*
X6990826D01*
X6991220Y4177165D01*
Y4178740D01*
X6990826Y4179133D01*
X6989645D01*
X6992007Y4178740D02*
X6992400Y4179133D01*
X6993188D01*
X6993581Y4178740D01*
Y4178346D01*
X6993188Y4177953D01*
X6992794D01*
X6993188D01*
X6993581Y4177559D01*
Y4177165D01*
X6993188Y4176772D01*
X6992400D01*
X6992007Y4177165D01*
X7082166Y4167322D02*
Y4164960D01*
X7083346D01*
X7083739Y4165354D01*
Y4166928D01*
X7083346Y4167322D01*
X7082166D01*
X7086101Y4164960D02*
X7084527D01*
X7086101Y4166535D01*
Y4166928D01*
X7085708Y4167322D01*
X7084921D01*
X7084527Y4166928D01*
X7082559Y4179921D02*
Y4177559D01*
X7083739D01*
X7084133Y4177953D01*
Y4179527D01*
X7083739Y4179921D01*
X7082559D01*
X7084921Y4177559D02*
X7085708D01*
X7085314D01*
Y4179921D01*
X7084921Y4179527D01*
X7169174Y4557086D02*
X7168781Y4556693D01*
Y4555906D01*
X7169174Y4555512D01*
X7170748D01*
X7171142Y4555906D01*
Y4556693D01*
X7170748Y4557086D01*
X7171142Y4559054D02*
X7168781D01*
X7169961Y4557873D01*
Y4559447D01*
X7169174Y4560235D02*
X7168781Y4560628D01*
Y4561415D01*
X7169174Y4561809D01*
X7170748D01*
X7171142Y4561415D01*
Y4560628D01*
X7170748Y4560235D01*
X7169174D01*
X7286890Y4268897D02*
X7286496Y4269291D01*
X7285709D01*
X7285315Y4268897D01*
Y4267323D01*
X7285709Y4266929D01*
X7286496D01*
X7286890Y4267323D01*
X7287676Y4268897D02*
X7288070Y4269291D01*
X7288857D01*
X7289251Y4268897D01*
Y4268504D01*
X7288857Y4268110D01*
X7288464D01*
X7288857D01*
X7289251Y4267716D01*
Y4267323D01*
X7288857Y4266929D01*
X7288070D01*
X7287676Y4267323D01*
X7290038D02*
X7290431Y4266929D01*
X7291219D01*
X7291612Y4267323D01*
Y4268897D01*
X7291219Y4269291D01*
X7290431D01*
X7290038Y4268897D01*
Y4268504D01*
X7290431Y4268110D01*
X7291612D01*
X7170355Y4482283D02*
X7169962Y4481889D01*
Y4481102D01*
X7170355Y4480709D01*
X7171929D01*
X7172323Y4481102D01*
Y4481889D01*
X7171929Y4482283D01*
X7170355Y4483070D02*
X7169962Y4483464D01*
Y4484251D01*
X7170355Y4484644D01*
X7170748D01*
X7171142Y4484251D01*
Y4483857D01*
Y4484251D01*
X7171535Y4484644D01*
X7171929D01*
X7172323Y4484251D01*
Y4483464D01*
X7171929Y4483070D01*
X7170355Y4485432D02*
X7169962Y4485825D01*
Y4486612D01*
X7170355Y4487006D01*
X7170748D01*
X7171142Y4486612D01*
X7171535Y4487006D01*
X7171929D01*
X7172323Y4486612D01*
Y4485825D01*
X7171929Y4485432D01*
X7171535D01*
X7171142Y4485825D01*
X7170748Y4485432D01*
X7170355D01*
X7171142Y4485825D02*
Y4486612D01*
X7264039Y4314368D02*
X7263645Y4314761D01*
X7262858D01*
X7262465Y4314368D01*
Y4312794D01*
X7262858Y4312400D01*
X7263645D01*
X7264039Y4312794D01*
X7264826Y4314368D02*
X7265220Y4314761D01*
X7266006D01*
X7266400Y4314368D01*
Y4313974D01*
X7266006Y4313581D01*
X7265614D01*
X7266006D01*
X7266400Y4313187D01*
Y4312794D01*
X7266006Y4312400D01*
X7265220D01*
X7264826Y4312794D01*
X7267188Y4314761D02*
X7268761D01*
Y4314368D01*
X7267188Y4312794D01*
Y4312400D01*
X7175539Y4427868D02*
X7175145Y4428262D01*
X7174358D01*
X7173965Y4427868D01*
Y4426294D01*
X7174358Y4425900D01*
X7175145D01*
X7175539Y4426294D01*
X7176326Y4427868D02*
X7176720Y4428262D01*
X7177507D01*
X7177900Y4427868D01*
Y4427474D01*
X7177507Y4427081D01*
X7177113D01*
X7177507D01*
X7177900Y4426687D01*
Y4426294D01*
X7177507Y4425900D01*
X7176720D01*
X7176326Y4426294D01*
X7180262Y4428262D02*
X7179475Y4427868D01*
X7178687Y4427081D01*
Y4426294D01*
X7179081Y4425900D01*
X7179868D01*
X7180262Y4426294D01*
Y4426687D01*
X7179868Y4427081D01*
X7178687D01*
X7181750Y4353368D02*
X7181356Y4353762D01*
X7180569D01*
X7180176Y4353368D01*
Y4351794D01*
X7180569Y4351400D01*
X7181356D01*
X7181750Y4351794D01*
X7182537Y4353368D02*
X7182931Y4353762D01*
X7183717D01*
X7184111Y4353368D01*
Y4352974D01*
X7183717Y4352581D01*
X7183324D01*
X7183717D01*
X7184111Y4352187D01*
Y4351794D01*
X7183717Y4351400D01*
X7182931D01*
X7182537Y4351794D01*
X7186472Y4353762D02*
X7184898D01*
Y4352581D01*
X7185686Y4352974D01*
X7186079D01*
X7186472Y4352581D01*
Y4351794D01*
X7186079Y4351400D01*
X7185292D01*
X7184898Y4351794D01*
X7097125Y4551575D02*
X7097519Y4551969D01*
Y4552756D01*
X7097125Y4553149D01*
X7095551D01*
X7095158Y4552756D01*
Y4551969D01*
X7095551Y4551575D01*
X7097519Y4550788D02*
Y4549214D01*
X7097125D01*
X7095551Y4550788D01*
X7095158D01*
Y4548427D02*
X7095551D01*
Y4548033D01*
X7095158D01*
Y4548427D01*
X7097519Y4546459D02*
X7095158D01*
Y4545278D01*
X7095551Y4544884D01*
X7097125D01*
X7097519Y4545278D01*
Y4546459D01*
Y4544098D02*
Y4542523D01*
Y4543310D01*
X7095158D01*
X7097519Y4541736D02*
X7095158D01*
Y4540555D01*
X7095551Y4540162D01*
X7097125D01*
X7097519Y4540555D01*
Y4541736D01*
X7096732Y4447245D02*
X7097125Y4447638D01*
Y4448425D01*
X7096732Y4448819D01*
X7095158D01*
X7094764Y4448425D01*
Y4447638D01*
X7095158Y4447245D01*
X7097125Y4446458D02*
Y4444883D01*
X7096732D01*
X7095158Y4446458D01*
X7094764D01*
Y4444096D02*
X7095158D01*
Y4443702D01*
X7094764D01*
Y4444096D01*
X7097125Y4442128D02*
X7094764D01*
Y4440947D01*
X7095158Y4440554D01*
X7096732D01*
X7097125Y4440947D01*
Y4442128D01*
Y4439767D02*
Y4438192D01*
Y4438980D01*
X7094764D01*
X7096732Y4435831D02*
X7097125Y4436225D01*
Y4437012D01*
X7096732Y4437405D01*
X7095158D01*
X7094764Y4437012D01*
Y4436225D01*
X7095158Y4435831D01*
X7097125Y4339764D02*
X7097519Y4340158D01*
Y4340945D01*
X7097125Y4341339D01*
X7095551D01*
X7095158Y4340945D01*
Y4340158D01*
X7095551Y4339764D01*
X7097519Y4338977D02*
Y4337403D01*
X7097125D01*
X7095551Y4338977D01*
X7095158D01*
Y4336616D02*
X7095551D01*
Y4336222D01*
X7095158D01*
Y4336616D01*
X7097519Y4334648D02*
X7095158D01*
Y4333467D01*
X7095551Y4333073D01*
X7097125D01*
X7097519Y4333467D01*
Y4334648D01*
Y4332286D02*
Y4330712D01*
Y4331499D01*
X7095158D01*
X7097519Y4329925D02*
X7095158D01*
Y4328744D01*
X7095551Y4328351D01*
X7095945D01*
X7096338Y4328744D01*
Y4329925D01*
Y4328744D01*
X7096732Y4328351D01*
X7097125D01*
X7097519Y4328744D01*
Y4329925D01*
X7096338Y4233859D02*
X7096732Y4234253D01*
Y4235040D01*
X7096338Y4235433D01*
X7094764D01*
X7094370Y4235040D01*
Y4234253D01*
X7094764Y4233859D01*
X7096732Y4233072D02*
Y4231498D01*
X7096338D01*
X7094764Y4233072D01*
X7094370D01*
Y4230710D02*
X7094764D01*
Y4230317D01*
X7094370D01*
Y4230710D01*
X7096732Y4228742D02*
X7094370D01*
Y4227562D01*
X7094764Y4227168D01*
X7096338D01*
X7096732Y4227562D01*
Y4228742D01*
Y4226381D02*
Y4224807D01*
Y4225594D01*
X7094370D01*
Y4224020D02*
X7095944D01*
X7096732Y4223232D01*
X7095944Y4222445D01*
X7094370D01*
X7095551D01*
Y4224020D01*
X7036339Y4580268D02*
X7035945Y4580661D01*
X7035158D01*
X7034765Y4580268D01*
Y4578694D01*
X7035158Y4578300D01*
X7035945D01*
X7036339Y4578694D01*
X7038700Y4580661D02*
X7037914Y4580268D01*
X7037126Y4579481D01*
Y4578694D01*
X7037520Y4578300D01*
X7038306D01*
X7038700Y4578694D01*
Y4579087D01*
X7038306Y4579481D01*
X7037126D01*
X7039487Y4578300D02*
Y4578694D01*
X7039881D01*
Y4578300D01*
X7039487D01*
X7041455Y4580661D02*
Y4578300D01*
X7042636D01*
X7043030Y4578694D01*
Y4580268D01*
X7042636Y4580661D01*
X7041455D01*
X7043816D02*
X7045391D01*
X7044604D01*
Y4578300D01*
X7046178Y4580661D02*
Y4578300D01*
X7047359D01*
X7047752Y4578694D01*
Y4580268D01*
X7047359Y4580661D01*
X7046178D01*
X7036339Y4474268D02*
X7035945Y4474662D01*
X7035158D01*
X7034765Y4474268D01*
Y4472694D01*
X7035158Y4472300D01*
X7035945D01*
X7036339Y4472694D01*
X7038700Y4474662D02*
X7037914Y4474268D01*
X7037126Y4473481D01*
Y4472694D01*
X7037520Y4472300D01*
X7038306D01*
X7038700Y4472694D01*
Y4473087D01*
X7038306Y4473481D01*
X7037126D01*
X7039487Y4472300D02*
Y4472694D01*
X7039881D01*
Y4472300D01*
X7039487D01*
X7041455Y4474662D02*
Y4472300D01*
X7042636D01*
X7043030Y4472694D01*
Y4474268D01*
X7042636Y4474662D01*
X7041455D01*
X7043816D02*
X7045391D01*
X7044604D01*
Y4472300D01*
X7047752Y4474268D02*
X7047359Y4474662D01*
X7046572D01*
X7046178Y4474268D01*
Y4472694D01*
X7046572Y4472300D01*
X7047359D01*
X7047752Y4472694D01*
X7036339Y4368268D02*
X7035945Y4368661D01*
X7035158D01*
X7034765Y4368268D01*
Y4366693D01*
X7035158Y4366300D01*
X7035945D01*
X7036339Y4366693D01*
X7038700Y4368661D02*
X7037914Y4368268D01*
X7037126Y4367481D01*
Y4366693D01*
X7037520Y4366300D01*
X7038306D01*
X7038700Y4366693D01*
Y4367087D01*
X7038306Y4367481D01*
X7037126D01*
X7039487Y4366300D02*
Y4366693D01*
X7039881D01*
Y4366300D01*
X7039487D01*
X7041455Y4368661D02*
Y4366300D01*
X7042636D01*
X7043030Y4366693D01*
Y4368268D01*
X7042636Y4368661D01*
X7041455D01*
X7043816D02*
X7045391D01*
X7044604D01*
Y4366300D01*
X7046178Y4368661D02*
Y4366300D01*
X7047359D01*
X7047752Y4366693D01*
Y4367087D01*
X7047359Y4367481D01*
X7046178D01*
X7047359D01*
X7047752Y4367874D01*
Y4368268D01*
X7047359Y4368661D01*
X7046178D01*
X7037283Y4261023D02*
X7036890Y4261417D01*
X7036102D01*
X7035709Y4261023D01*
Y4259449D01*
X7036102Y4259055D01*
X7036890D01*
X7037283Y4259449D01*
X7039645Y4261417D02*
X7038857Y4261023D01*
X7038070Y4260236D01*
Y4259449D01*
X7038464Y4259055D01*
X7039251D01*
X7039645Y4259449D01*
Y4259842D01*
X7039251Y4260236D01*
X7038070D01*
X7040431Y4259055D02*
Y4259449D01*
X7040825D01*
Y4259055D01*
X7040431D01*
X7042400Y4261417D02*
Y4259055D01*
X7043580D01*
X7043974Y4259449D01*
Y4261023D01*
X7043580Y4261417D01*
X7042400D01*
X7044761D02*
X7046335D01*
X7045548D01*
Y4259055D01*
X7047122D02*
Y4260629D01*
X7047910Y4261417D01*
X7048697Y4260629D01*
Y4259055D01*
Y4260236D01*
X7047122D01*
X7083347Y4566141D02*
X7082954Y4565748D01*
Y4564960D01*
X7083347Y4564567D01*
X7084921D01*
X7085315Y4564960D01*
Y4565748D01*
X7084921Y4566141D01*
X7082954Y4568503D02*
Y4566928D01*
X7084134D01*
X7083741Y4567715D01*
Y4568109D01*
X7084134Y4568503D01*
X7084921D01*
X7085315Y4568109D01*
Y4567322D01*
X7084921Y4566928D01*
X7085315Y4569290D02*
X7084921D01*
Y4569683D01*
X7085315D01*
Y4569290D01*
X7082954Y4571258D02*
X7085315D01*
Y4572438D01*
X7084921Y4572832D01*
X7083347D01*
X7082954Y4572438D01*
Y4571258D01*
Y4573619D02*
Y4575193D01*
Y4574406D01*
X7085315D01*
X7082954Y4575981D02*
X7085315D01*
Y4577161D01*
X7084921Y4577555D01*
X7083347D01*
X7082954Y4577161D01*
Y4575981D01*
X7083347Y4461023D02*
X7082954Y4460630D01*
Y4459842D01*
X7083347Y4459449D01*
X7084921D01*
X7085315Y4459842D01*
Y4460630D01*
X7084921Y4461023D01*
X7082954Y4463385D02*
Y4461810D01*
X7084134D01*
X7083741Y4462597D01*
Y4462991D01*
X7084134Y4463385D01*
X7084921D01*
X7085315Y4462991D01*
Y4462204D01*
X7084921Y4461810D01*
X7085315Y4464172D02*
X7084921D01*
Y4464565D01*
X7085315D01*
Y4464172D01*
X7082954Y4466140D02*
X7085315D01*
Y4467320D01*
X7084921Y4467714D01*
X7083347D01*
X7082954Y4467320D01*
Y4466140D01*
Y4468501D02*
Y4470075D01*
Y4469288D01*
X7085315D01*
X7083347Y4472437D02*
X7082954Y4472043D01*
Y4471256D01*
X7083347Y4470863D01*
X7084921D01*
X7085315Y4471256D01*
Y4472043D01*
X7084921Y4472437D01*
X7083347Y4355117D02*
X7082954Y4354724D01*
Y4353937D01*
X7083347Y4353543D01*
X7084921D01*
X7085315Y4353937D01*
Y4354724D01*
X7084921Y4355117D01*
X7082954Y4357479D02*
Y4355905D01*
X7084134D01*
X7083741Y4356692D01*
Y4357085D01*
X7084134Y4357479D01*
X7084921D01*
X7085315Y4357085D01*
Y4356298D01*
X7084921Y4355905D01*
X7085315Y4358266D02*
X7084921D01*
Y4358660D01*
X7085315D01*
Y4358266D01*
X7082954Y4360234D02*
X7085315D01*
Y4361415D01*
X7084921Y4361808D01*
X7083347D01*
X7082954Y4361415D01*
Y4360234D01*
Y4362595D02*
Y4364170D01*
Y4363383D01*
X7085315D01*
X7082954Y4364957D02*
X7085315D01*
Y4366138D01*
X7084921Y4366531D01*
X7084528D01*
X7084134Y4366138D01*
Y4364957D01*
Y4366138D01*
X7083741Y4366531D01*
X7083347D01*
X7082954Y4366138D01*
Y4364957D01*
X7083347Y4249212D02*
X7082954Y4248819D01*
Y4248031D01*
X7083347Y4247638D01*
X7084921D01*
X7085315Y4248031D01*
Y4248819D01*
X7084921Y4249212D01*
X7082954Y4251574D02*
Y4249999D01*
X7084134D01*
X7083741Y4250787D01*
Y4251180D01*
X7084134Y4251574D01*
X7084921D01*
X7085315Y4251180D01*
Y4250393D01*
X7084921Y4249999D01*
X7085315Y4252361D02*
X7084921D01*
Y4252754D01*
X7085315D01*
Y4252361D01*
X7082954Y4254329D02*
X7085315D01*
Y4255509D01*
X7084921Y4255903D01*
X7083347D01*
X7082954Y4255509D01*
Y4254329D01*
Y4256690D02*
Y4258264D01*
Y4257477D01*
X7085315D01*
Y4259052D02*
X7083741D01*
X7082954Y4259838D01*
X7083741Y4260626D01*
X7085315D01*
X7084134D01*
Y4259052D01*
X7148473Y4565995D02*
X7148866Y4566389D01*
Y4567176D01*
X7148473Y4567569D01*
X7146899D01*
X7146505Y4567176D01*
Y4566389D01*
X7146899Y4565995D01*
X7146505Y4564027D02*
X7148866D01*
X7147685Y4565208D01*
Y4563634D01*
X7146505Y4562846D02*
X7146899D01*
Y4562453D01*
X7146505D01*
Y4562846D01*
X7148866Y4560879D02*
X7146505D01*
Y4559698D01*
X7146899Y4559304D01*
X7148473D01*
X7148866Y4559698D01*
Y4560879D01*
Y4558517D02*
Y4556943D01*
Y4557730D01*
X7146505D01*
X7148866Y4556156D02*
X7146505D01*
Y4554975D01*
X7146899Y4554581D01*
X7148473D01*
X7148866Y4554975D01*
Y4556156D01*
X7147125Y4458662D02*
X7147519Y4459055D01*
Y4459843D01*
X7147125Y4460236D01*
X7145551D01*
X7145158Y4459843D01*
Y4459055D01*
X7145551Y4458662D01*
X7145158Y4456694D02*
X7147519D01*
X7146338Y4457875D01*
Y4456300D01*
X7145158Y4455513D02*
X7145551D01*
Y4455120D01*
X7145158D01*
Y4455513D01*
X7147519Y4453545D02*
X7145158D01*
Y4452365D01*
X7145551Y4451971D01*
X7147125D01*
X7147519Y4452365D01*
Y4453545D01*
Y4451184D02*
Y4449610D01*
Y4450397D01*
X7145158D01*
X7147125Y4447248D02*
X7147519Y4447642D01*
Y4448429D01*
X7147125Y4448823D01*
X7145551D01*
X7145158Y4448429D01*
Y4447642D01*
X7145551Y4447248D01*
X7146338Y4352757D02*
X7146732Y4353150D01*
Y4353937D01*
X7146338Y4354331D01*
X7144764D01*
X7144370Y4353937D01*
Y4353150D01*
X7144764Y4352757D01*
X7144370Y4350788D02*
X7146732D01*
X7145551Y4351969D01*
Y4350395D01*
X7144370Y4349608D02*
X7144764D01*
Y4349214D01*
X7144370D01*
Y4349608D01*
X7146732Y4347640D02*
X7144370D01*
Y4346459D01*
X7144764Y4346066D01*
X7146338D01*
X7146732Y4346459D01*
Y4347640D01*
Y4345279D02*
Y4343704D01*
Y4344492D01*
X7144370D01*
X7146732Y4342917D02*
X7144370D01*
Y4341736D01*
X7144764Y4341343D01*
X7145157D01*
X7145551Y4341736D01*
Y4342917D01*
Y4341736D01*
X7145944Y4341343D01*
X7146338D01*
X7146732Y4341736D01*
Y4342917D01*
X7147125Y4247245D02*
X7147519Y4247638D01*
Y4248425D01*
X7147125Y4248819D01*
X7145551D01*
X7145158Y4248425D01*
Y4247638D01*
X7145551Y4247245D01*
X7145158Y4245277D02*
X7147519D01*
X7146338Y4246458D01*
Y4244883D01*
X7145158Y4244096D02*
X7145551D01*
Y4243702D01*
X7145158D01*
Y4244096D01*
X7147519Y4242128D02*
X7145158D01*
Y4240947D01*
X7145551Y4240554D01*
X7147125D01*
X7147519Y4240947D01*
Y4242128D01*
Y4239767D02*
Y4238192D01*
Y4238980D01*
X7145158D01*
Y4237405D02*
X7146732D01*
X7147519Y4236618D01*
X7146732Y4235831D01*
X7145158D01*
X7146338D01*
Y4237405D01*
X7084921Y4549607D02*
X7085314Y4550000D01*
Y4550787D01*
X7084921Y4551181D01*
X7083347D01*
X7082953Y4550787D01*
Y4550000D01*
X7083347Y4549607D01*
X7084921Y4548820D02*
X7085314Y4548426D01*
Y4547639D01*
X7084921Y4547245D01*
X7084527D01*
X7084133Y4547639D01*
Y4548032D01*
Y4547639D01*
X7083740Y4547245D01*
X7083347D01*
X7082953Y4547639D01*
Y4548426D01*
X7083347Y4548820D01*
X7082953Y4546458D02*
X7083347D01*
Y4546065D01*
X7082953D01*
Y4546458D01*
X7085314Y4544490D02*
X7082953D01*
Y4543310D01*
X7083347Y4542916D01*
X7084921D01*
X7085314Y4543310D01*
Y4544490D01*
Y4542129D02*
Y4540554D01*
Y4541342D01*
X7082953D01*
X7085314Y4539767D02*
X7082953D01*
Y4538587D01*
X7083347Y4538193D01*
X7084921D01*
X7085314Y4538587D01*
Y4539767D01*
X7074290Y4449606D02*
X7073898Y4449999D01*
X7073110D01*
X7072717Y4449606D01*
Y4448031D01*
X7073110Y4447638D01*
X7073898D01*
X7074290Y4448031D01*
X7075078Y4449606D02*
X7075471Y4449999D01*
X7076259D01*
X7076653Y4449606D01*
Y4449212D01*
X7076259Y4448819D01*
X7075865D01*
X7076259D01*
X7076653Y4448425D01*
Y4448031D01*
X7076259Y4447638D01*
X7075471D01*
X7075078Y4448031D01*
X7077439Y4447638D02*
Y4448031D01*
X7077833D01*
Y4447638D01*
X7077439D01*
X7079408Y4449999D02*
Y4447638D01*
X7080588D01*
X7080981Y4448031D01*
Y4449606D01*
X7080588Y4449999D01*
X7079408D01*
X7081769D02*
X7083343D01*
X7082556D01*
Y4447638D01*
X7085705Y4449606D02*
X7085311Y4449999D01*
X7084524D01*
X7084130Y4449606D01*
Y4448031D01*
X7084524Y4447638D01*
X7085311D01*
X7085705Y4448031D01*
X7084921Y4337796D02*
X7085314Y4338189D01*
Y4338977D01*
X7084921Y4339370D01*
X7083347D01*
X7082953Y4338977D01*
Y4338189D01*
X7083347Y4337796D01*
X7084921Y4337009D02*
X7085314Y4336615D01*
Y4335828D01*
X7084921Y4335434D01*
X7084527D01*
X7084133Y4335828D01*
Y4336221D01*
Y4335828D01*
X7083740Y4335434D01*
X7083347D01*
X7082953Y4335828D01*
Y4336615D01*
X7083347Y4337009D01*
X7082953Y4334647D02*
X7083347D01*
Y4334254D01*
X7082953D01*
Y4334647D01*
X7085314Y4332679D02*
X7082953D01*
Y4331499D01*
X7083347Y4331105D01*
X7084921D01*
X7085314Y4331499D01*
Y4332679D01*
Y4330318D02*
Y4328744D01*
Y4329531D01*
X7082953D01*
X7085314Y4327956D02*
X7082953D01*
Y4326776D01*
X7083347Y4326382D01*
X7083740D01*
X7084133Y4326776D01*
Y4327956D01*
Y4326776D01*
X7084527Y4326382D01*
X7084921D01*
X7085314Y4326776D01*
Y4327956D01*
X7084921Y4232678D02*
X7085314Y4233071D01*
Y4233858D01*
X7084921Y4234252D01*
X7083347D01*
X7082953Y4233858D01*
Y4233071D01*
X7083347Y4232678D01*
X7084921Y4231890D02*
X7085314Y4231497D01*
Y4230710D01*
X7084921Y4230316D01*
X7084527D01*
X7084133Y4230710D01*
Y4231104D01*
Y4230710D01*
X7083740Y4230316D01*
X7083347D01*
X7082953Y4230710D01*
Y4231497D01*
X7083347Y4231890D01*
X7082953Y4229529D02*
X7083347D01*
Y4229136D01*
X7082953D01*
Y4229529D01*
X7085314Y4227561D02*
X7082953D01*
Y4226381D01*
X7083347Y4225987D01*
X7084921D01*
X7085314Y4226381D01*
Y4227561D01*
Y4225200D02*
Y4223626D01*
Y4224413D01*
X7082953D01*
Y4222838D02*
X7084527D01*
X7085314Y4222051D01*
X7084527Y4221264D01*
X7082953D01*
X7084133D01*
Y4222838D01*
X7022320Y4176948D02*
X7021926Y4177342D01*
X7021140D01*
X7020746Y4176948D01*
Y4175374D01*
X7021140Y4174980D01*
X7021926D01*
X7022320Y4175374D01*
X7024681Y4174980D02*
X7023107D01*
X7024681Y4176554D01*
Y4176948D01*
X7024288Y4177342D01*
X7023501D01*
X7023107Y4176948D01*
X7107039Y4178468D02*
X7106645Y4178862D01*
X7105858D01*
X7105465Y4178468D01*
Y4176894D01*
X7105858Y4176500D01*
X7106645D01*
X7107039Y4176894D01*
X7107826Y4176500D02*
X7108613D01*
X7108220D01*
Y4178862D01*
X7107826Y4178468D01*
X6999489Y4542913D02*
X6999095Y4542519D01*
Y4541732D01*
X6999489Y4541339D01*
X6999883D01*
X7000276Y4541732D01*
Y4542519D01*
X7000670Y4542913D01*
X7001063D01*
X7001456Y4542519D01*
Y4541732D01*
X7001063Y4541339D01*
X7001456Y4543700D02*
Y4544487D01*
Y4544094D01*
X6999883D01*
Y4543700D01*
X7002244Y4546455D02*
Y4546849D01*
X7001850Y4547242D01*
X6999883D01*
Y4546061D01*
X7000276Y4545668D01*
X7001063D01*
X7001456Y4546061D01*
Y4547242D01*
Y4548029D02*
X6999883D01*
Y4549210D01*
X7000276Y4549604D01*
X7001456D01*
X6999883Y4550784D02*
Y4551572D01*
X7000276Y4551965D01*
X7001456D01*
Y4550784D01*
X7001063Y4550391D01*
X7000670Y4550784D01*
Y4551965D01*
X7001456Y4552752D02*
Y4553539D01*
Y4553146D01*
X6999095D01*
Y4552752D01*
X7001456Y4554720D02*
Y4555901D01*
X7001063Y4556294D01*
X7000670Y4555901D01*
Y4555114D01*
X7000276Y4554720D01*
X6999883Y4555114D01*
Y4556294D01*
X7001850Y4557082D02*
Y4558656D01*
X7001456Y4560624D02*
X6999095D01*
X7000276Y4559443D01*
Y4561017D01*
X6999883Y4445669D02*
X6999489Y4445275D01*
Y4444488D01*
X6999883Y4444094D01*
X7000276D01*
X7000670Y4444488D01*
Y4445275D01*
X7001064Y4445669D01*
X7001456D01*
X7001850Y4445275D01*
Y4444488D01*
X7001456Y4444094D01*
X7001850Y4446456D02*
Y4447243D01*
Y4446849D01*
X7000276D01*
Y4446456D01*
X7002637Y4449211D02*
Y4449604D01*
X7002244Y4449998D01*
X7000276D01*
Y4448817D01*
X7000670Y4448424D01*
X7001456D01*
X7001850Y4448817D01*
Y4449998D01*
Y4450785D02*
X7000276D01*
Y4451966D01*
X7000670Y4452359D01*
X7001850D01*
X7000276Y4453540D02*
Y4454327D01*
X7000670Y4454721D01*
X7001850D01*
Y4453540D01*
X7001456Y4453147D01*
X7001064Y4453540D01*
Y4454721D01*
X7001850Y4455508D02*
Y4456295D01*
Y4455902D01*
X6999489D01*
Y4455508D01*
X7001850Y4457476D02*
Y4458657D01*
X7001456Y4459050D01*
X7001064Y4458657D01*
Y4457870D01*
X7000670Y4457476D01*
X7000276Y4457870D01*
Y4459050D01*
X7002244Y4459837D02*
Y4461412D01*
X6999883Y4462199D02*
X6999489Y4462592D01*
Y4463380D01*
X6999883Y4463773D01*
X7000276D01*
X7000670Y4463380D01*
Y4462986D01*
Y4463380D01*
X7001064Y4463773D01*
X7001456D01*
X7001850Y4463380D01*
Y4462592D01*
X7001456Y4462199D01*
X7265463Y4472160D02*
X7266250D01*
X7265857D01*
Y4469798D01*
X7265463D01*
X7266250D01*
X7267431D02*
Y4472160D01*
X7269005Y4469798D01*
Y4472160D01*
X7269792D02*
Y4470586D01*
X7270580Y4469798D01*
X7271367Y4470586D01*
Y4472160D01*
X7272153Y4469405D02*
X7273728D01*
X7276089Y4471766D02*
X7275696Y4472160D01*
X7274908D01*
X7274516Y4471766D01*
Y4470192D01*
X7274908Y4469798D01*
X7275696D01*
X7276089Y4470192D01*
X7278057Y4472160D02*
X7277271D01*
X7276877Y4471766D01*
Y4470192D01*
X7277271Y4469798D01*
X7278057D01*
X7278451Y4470192D01*
Y4471766D01*
X7278057Y4472160D01*
X7279238Y4469798D02*
Y4472160D01*
X7280812Y4469798D01*
Y4472160D01*
X7281599D02*
X7283174D01*
X7282387D01*
Y4469798D01*
X7283961D02*
Y4472160D01*
X7285142D01*
X7285535Y4471766D01*
Y4470979D01*
X7285142Y4470586D01*
X7283961D01*
X7284748D02*
X7285535Y4469798D01*
X7287503Y4472160D02*
X7286716D01*
X7286322Y4471766D01*
Y4470192D01*
X7286716Y4469798D01*
X7287503D01*
X7287897Y4470192D01*
Y4471766D01*
X7287503Y4472160D01*
X7288684D02*
Y4469798D01*
X7290258D01*
X7268386Y4096063D02*
Y4098425D01*
X7269566D01*
X7269960Y4098031D01*
Y4097244D01*
X7269566Y4096850D01*
X7268386D01*
X7269173D02*
X7269960Y4096063D01*
X7271141D02*
Y4098031D01*
Y4097244D01*
X7270747D01*
X7271535D01*
X7271141D01*
Y4098031D01*
X7271535Y4098425D01*
X7272715D02*
Y4096063D01*
X7273896D01*
X7274290Y4096457D01*
Y4096850D01*
Y4097244D01*
X7273896Y4097637D01*
X7272715D01*
X7276651Y4096063D02*
X7275076D01*
X7276651Y4097637D01*
Y4098031D01*
X7276257Y4098425D01*
X7275470D01*
X7275076Y4098031D01*
X7269173Y4107874D02*
Y4110236D01*
X7270354D01*
X7270747Y4109842D01*
Y4109055D01*
X7270354Y4108661D01*
X7269173D01*
X7269960D02*
X7270747Y4107874D01*
X7271928D02*
Y4109842D01*
Y4109055D01*
X7271535D01*
X7272322D01*
X7271928D01*
Y4109842D01*
X7272322Y4110236D01*
X7273502D02*
Y4107874D01*
X7274683D01*
X7275077Y4108268D01*
Y4108661D01*
Y4109055D01*
X7274683Y4109448D01*
X7273502D01*
X7275864Y4107874D02*
X7276651D01*
X7276257D01*
Y4110236D01*
X7275864Y4109842D01*
X7214826Y4078700D02*
X7212465D01*
Y4077126D01*
Y4076339D02*
Y4075551D01*
Y4075945D01*
X7214826D01*
X7214433Y4076339D01*
X7224664Y4161761D02*
Y4159400D01*
X7225845D01*
X7226239Y4159793D01*
Y4161368D01*
X7225845Y4161761D01*
X7224664D01*
X7227026Y4161368D02*
X7227419Y4161761D01*
X7228207D01*
X7228600Y4161368D01*
Y4160974D01*
X7228207Y4160581D01*
X7227813D01*
X7228207D01*
X7228600Y4160187D01*
Y4159793D01*
X7228207Y4159400D01*
X7227419D01*
X7227026Y4159793D01*
X7230962Y4159400D02*
X7229388D01*
X7230962Y4160974D01*
Y4161368D01*
X7230568Y4161761D01*
X7229781D01*
X7229388Y4161368D01*
X7180197Y4249213D02*
X7177442D01*
Y4250590D01*
X7177901Y4251049D01*
X7178819D01*
X7179279Y4250590D01*
Y4249213D01*
X7177901Y4251968D02*
X7177442Y4252427D01*
Y4253345D01*
X7177901Y4253804D01*
X7178360D01*
X7178819Y4253345D01*
Y4252886D01*
Y4253345D01*
X7179279Y4253804D01*
X7179738D01*
X7180197Y4253345D01*
Y4252427D01*
X7179738Y4251968D01*
X7177901Y4254723D02*
X7177442Y4255182D01*
Y4256100D01*
X7177901Y4256559D01*
X7179738D01*
X7180197Y4256100D01*
Y4255182D01*
X7179738Y4254723D01*
X7177901D01*
Y4257478D02*
X7177442Y4257937D01*
Y4258855D01*
X7177901Y4259314D01*
X7179738D01*
X7180197Y4258855D01*
Y4257937D01*
X7179738Y4257478D01*
X7177901D01*
Y4260233D02*
X7177442Y4260692D01*
Y4261610D01*
X7177901Y4262069D01*
X7179738D01*
X7180197Y4261610D01*
Y4260692D01*
X7179738Y4260233D01*
X7177901D01*
X7234164Y4328655D02*
Y4325900D01*
X7235542D01*
X7236001Y4326359D01*
Y4328196D01*
X7235542Y4328655D01*
X7234164D01*
X7238297Y4325900D02*
Y4328655D01*
X7236919Y4327277D01*
X7238757D01*
X7241052Y4325900D02*
Y4328655D01*
X7239674Y4327277D01*
X7241512D01*
X7244267Y4328655D02*
X7242429D01*
Y4327277D01*
X7243348Y4327737D01*
X7243807D01*
X7244267Y4327277D01*
Y4326359D01*
X7243807Y4325900D01*
X7242889D01*
X7242429Y4326359D01*
X7233665Y4346155D02*
Y4343400D01*
X7235042D01*
X7235501Y4343859D01*
Y4345696D01*
X7235042Y4346155D01*
X7233665D01*
X7236420Y4343859D02*
X7236879Y4343400D01*
X7237797D01*
X7238256Y4343859D01*
Y4345696D01*
X7237797Y4346155D01*
X7236879D01*
X7236420Y4345696D01*
Y4345237D01*
X7236879Y4344778D01*
X7238256D01*
D52*
X7225193Y4331945D02*
Y4339819D01*
X7190547Y4331945D02*
Y4339819D01*
X7225193D01*
X7190547Y4331945D02*
X7225193D01*
X7219126Y4406697D02*
Y4414571D01*
X7184480Y4406697D02*
Y4414571D01*
X7219126D01*
X7184480Y4406697D02*
X7219126D01*
Y4477197D02*
Y4485071D01*
X7184480Y4477197D02*
Y4485071D01*
X7219126D01*
X7184480Y4477197D02*
X7219126D01*
X7219051Y4548559D02*
Y4556433D01*
X7184406Y4548559D02*
Y4556433D01*
X7219051D01*
X7184406Y4548559D02*
X7219051D01*
X7283315Y4215120D02*
X7289614D01*
X7283315Y4254490D02*
X7289614D01*
Y4215120D02*
Y4254490D01*
X7283315Y4215120D02*
Y4254490D01*
X7098145Y4235956D02*
Y4248554D01*
X7131609Y4235956D02*
Y4248554D01*
X7098145Y4235956D02*
X7131609D01*
X7098145Y4248554D02*
X7131609D01*
X7307285Y4289473D02*
Y4302071D01*
X7273820Y4289473D02*
Y4302071D01*
X7307285D01*
X7273820Y4289473D02*
X7307285D01*
X7098145Y4553956D02*
Y4566554D01*
X7131609Y4553956D02*
Y4566554D01*
X7098145Y4553956D02*
X7131609D01*
X7098145Y4566554D02*
X7131609D01*
X7098145Y4447956D02*
Y4460554D01*
X7131609Y4447956D02*
Y4460554D01*
X7098145Y4447956D02*
X7131609D01*
X7098145Y4460554D02*
X7131609D01*
X7098145Y4341956D02*
Y4354554D01*
X7131609Y4341956D02*
Y4354554D01*
X7098145Y4341956D02*
X7131609D01*
X7098145Y4354554D02*
X7131609D01*
X7201965Y4361000D02*
X7221964D01*
Y4371000D01*
X7201965D02*
X7221964D01*
X7201965Y4361000D02*
Y4371000D01*
X7028644Y4161303D02*
X7031794D01*
X7028644D02*
Y4163665D01*
X7037305Y4161303D02*
X7040455D01*
Y4163665D01*
X7115644Y4162780D02*
X7118793D01*
X7115644D02*
Y4165142D01*
X7124306Y4162780D02*
X7127455D01*
Y4165142D01*
X7010464Y4261500D02*
X7020464D01*
Y4211500D02*
Y4261500D01*
X7010464Y4211500D02*
Y4261500D01*
Y4211500D02*
X7020464D01*
X7009965Y4364000D02*
X7019965D01*
Y4314000D02*
Y4364000D01*
X7009965Y4314000D02*
Y4364000D01*
Y4314000D02*
X7019965D01*
X7009965Y4388500D02*
Y4418500D01*
Y4388500D02*
X7019965D01*
Y4418500D01*
X7009965D02*
X7019965D01*
X7010464Y4426575D02*
X7020464D01*
X7010464D02*
Y4476575D01*
X7020464Y4426575D02*
Y4476575D01*
X7010464D02*
X7020464D01*
X7010965Y4526000D02*
X7020965D01*
X7010965D02*
Y4576000D01*
X7020965Y4526000D02*
Y4576000D01*
X7010965D02*
X7020965D01*
X7036769Y4225456D02*
Y4238054D01*
X7070234Y4225456D02*
Y4238054D01*
X7036769Y4225456D02*
X7070234D01*
X7036769Y4238054D02*
X7070234D01*
X7036769Y4331456D02*
Y4344054D01*
X7070234Y4331456D02*
Y4344054D01*
X7036769Y4331456D02*
X7070234D01*
X7036769Y4344054D02*
X7070234D01*
X7036769Y4437456D02*
Y4450054D01*
X7070234Y4437456D02*
Y4450054D01*
X7036769Y4437456D02*
X7070234D01*
X7036769Y4450054D02*
X7070234D01*
X7036769Y4543456D02*
Y4556054D01*
X7070234Y4543456D02*
Y4556054D01*
X7036769Y4543456D02*
X7070234D01*
X7036769Y4556054D02*
X7070234D01*
X7185965Y4285500D02*
X7205965D01*
X7185965Y4235500D02*
X7205965D01*
X7185965D02*
Y4285500D01*
X7205965Y4235500D02*
Y4285500D01*
X7330465Y4241000D02*
Y4311000D01*
X7320464D02*
X7330465D01*
X7320464Y4241000D02*
Y4311000D01*
Y4241000D02*
X7330465D01*
X7264319Y4360028D02*
Y4361996D01*
X7267468D01*
X7276130Y4360028D02*
Y4361996D01*
X7272980D02*
X7276130D01*
D53*
X7207645Y4455389D02*
X7217645D01*
X7207645Y4448389D02*
X7217645D01*
X7207645Y4510463D02*
X7217645D01*
X7207645Y4503463D02*
X7217645D01*
X7188438Y4503611D02*
X7198438D01*
X7188438Y4510611D02*
X7198438D01*
X7206938Y4383037D02*
X7216938D01*
X7206938Y4390037D02*
X7216938D01*
X7298965Y4063500D02*
Y4073500D01*
X7305965Y4063500D02*
Y4073500D01*
X7247002Y4087527D02*
Y4097527D01*
X7254002Y4087527D02*
Y4097527D01*
X7252938Y4150037D02*
X7262938D01*
X7252938Y4157037D02*
X7262938D01*
X7287938Y4089037D02*
X7297938D01*
X7287938Y4096037D02*
X7297938D01*
X7316715Y4051482D02*
X7334687D01*
X7316715Y4064618D02*
X7334687D01*
X7253438Y4054537D02*
X7263438D01*
X7253438Y4061537D02*
X7263438D01*
X7205428Y4148473D02*
Y4158473D01*
X7212428Y4148473D02*
Y4158473D01*
X7165938Y4093537D02*
X7175938D01*
X7165938Y4100537D02*
X7175938D01*
X7165938Y4106037D02*
X7175938D01*
X7165938Y4113037D02*
X7175938D01*
X7165938Y4118537D02*
X7175938D01*
X7165938Y4125537D02*
X7175938D01*
X7006438Y4034949D02*
X7053683D01*
X7006438Y4023532D02*
X7053683D01*
X7006438D02*
Y4063296D01*
X7053683D01*
Y4023532D02*
Y4063296D01*
X7092439Y4034949D02*
X7139683D01*
X7092439Y4023532D02*
X7139683D01*
X7092439D02*
Y4063296D01*
X7139683D01*
Y4023532D02*
Y4063296D01*
X7102512Y4160009D02*
Y4170010D01*
X7095512Y4160009D02*
Y4170010D01*
X7228991Y4563963D02*
X7238992D01*
X7228991Y4556963D02*
X7238992D01*
X7229038Y4577963D02*
X7239038D01*
X7229038Y4570963D02*
X7239038D01*
X7228991Y4549463D02*
X7238992D01*
X7228991Y4542463D02*
X7238992D01*
X7228991Y4534963D02*
X7238992D01*
X7228991Y4527963D02*
X7238992D01*
X7228991Y4490963D02*
X7238992D01*
X7228991Y4483963D02*
X7238992D01*
X7228991Y4504963D02*
X7238992D01*
X7228991Y4497963D02*
X7238992D01*
X7228991Y4476463D02*
X7238992D01*
X7228991Y4469463D02*
X7238992D01*
X7228991Y4461963D02*
X7238992D01*
X7228991Y4454963D02*
X7238992D01*
X7229491Y4418463D02*
X7239491D01*
X7229491Y4411463D02*
X7239491D01*
X7258991Y4340963D02*
X7268991D01*
X7258991Y4333963D02*
X7268991D01*
X7248938Y4578037D02*
X7258938D01*
X7248938Y4585037D02*
X7258938D01*
X7248938Y4549037D02*
X7258938D01*
X7248938Y4556037D02*
X7258938D01*
X7248938Y4535037D02*
X7258938D01*
X7248938Y4542037D02*
X7258938D01*
X7248938Y4491037D02*
X7258938D01*
X7248938Y4498037D02*
X7258938D01*
X7248938Y4505037D02*
X7258938D01*
X7248938Y4512037D02*
X7258938D01*
X7248938Y4476537D02*
X7258938D01*
X7248938Y4483537D02*
X7258938D01*
X7248938Y4462037D02*
X7258938D01*
X7248938Y4469037D02*
X7258938D01*
X7248438Y4418537D02*
X7258438D01*
X7248438Y4425537D02*
X7258438D01*
X7248438Y4380537D02*
X7258438D01*
X7248438Y4387537D02*
X7258438D01*
X7248438Y4394537D02*
X7258438D01*
X7248438Y4401537D02*
X7258438D01*
X7248438Y4433537D02*
X7258438D01*
X7248438Y4440537D02*
X7258438D01*
X7286991Y4359963D02*
X7296991D01*
X7286991Y4352963D02*
X7296991D01*
X7182938Y4362537D02*
X7192937D01*
X7182938Y4369537D02*
X7192937D01*
X7258938Y4316537D02*
X7268938D01*
X7258938Y4323537D02*
X7268938D01*
X7228991Y4394463D02*
X7238992D01*
X7228991Y4387463D02*
X7238992D01*
X7228991Y4408463D02*
X7238992D01*
X7228991Y4401463D02*
X7238992D01*
X7229491Y4432963D02*
X7239491D01*
X7229491Y4425963D02*
X7239491D01*
X7060453Y4508027D02*
X7070453D01*
X7060453Y4515027D02*
X7070453D01*
X7060453Y4296027D02*
X7070453D01*
X7060453Y4303027D02*
X7070453D01*
X7060453Y4190027D02*
X7070453D01*
X7060453Y4197027D02*
X7070453D01*
X7059422Y4595750D02*
X7069422D01*
X7059422Y4602750D02*
X7069422D01*
X7059422Y4490238D02*
X7069422D01*
X7059422Y4497238D02*
X7069422D01*
X7059422Y4383939D02*
X7069422D01*
X7059422Y4390939D02*
X7069422D01*
X7138550Y4160536D02*
Y4170536D01*
X7131550Y4160536D02*
Y4170536D01*
X6995368Y4170068D02*
X6997731Y4172430D01*
X6995368Y4169674D02*
Y4170068D01*
X6996095Y4171643D02*
X6996156D01*
X6996944Y4172430D01*
Y4171249D02*
Y4172430D01*
X6996095Y4170401D02*
X6996944Y4171249D01*
X6996095Y4170401D02*
Y4174066D01*
X6995368Y4174792D02*
X6996095Y4174066D01*
X6995368Y4174005D02*
Y4174792D01*
Y4174005D02*
X6996944Y4172430D01*
X6997731D01*
X6995368Y4174792D02*
X6997731Y4172430D01*
X6995368Y4169674D02*
Y4174792D01*
Y4169674D02*
X6997731Y4172036D01*
Y4168887D02*
Y4175186D01*
X7082368Y4171068D02*
X7084731Y4173430D01*
X7082368Y4170674D02*
Y4171068D01*
X7083095Y4172643D02*
X7083156D01*
X7083943Y4173430D01*
Y4172249D02*
Y4173430D01*
X7083095Y4171400D02*
X7083943Y4172249D01*
X7083095Y4171400D02*
Y4175066D01*
X7082368Y4175792D02*
X7083095Y4175066D01*
X7082368Y4175005D02*
Y4175792D01*
Y4175005D02*
X7083943Y4173430D01*
X7084731D01*
X7082368Y4175792D02*
X7084731Y4173430D01*
X7082368Y4170674D02*
Y4175792D01*
Y4170674D02*
X7084731Y4173036D01*
Y4169887D02*
Y4176186D01*
X7269427Y4296473D02*
Y4306473D01*
X7262428Y4296473D02*
Y4306473D01*
X7180927Y4409973D02*
Y4419973D01*
X7173927Y4409973D02*
Y4419973D01*
X7187138Y4335473D02*
Y4345473D01*
X7180138Y4335473D02*
Y4345473D01*
X7037952Y4568527D02*
X7047953D01*
X7037952Y4575527D02*
X7047953D01*
X7037952Y4462527D02*
X7047953D01*
X7037952Y4469527D02*
X7047953D01*
X7037952Y4356527D02*
X7047953D01*
X7037952Y4363527D02*
X7047953D01*
X7112513Y4160509D02*
Y4170509D01*
X7105512Y4160509D02*
Y4170509D01*
X7231783Y4151532D02*
X7234145Y4153894D01*
X7231783Y4151138D02*
Y4151532D01*
X7232510Y4153106D02*
X7232571D01*
X7233358Y4153894D01*
Y4152713D02*
Y4153894D01*
X7232510Y4151864D02*
X7233358Y4152713D01*
X7232510Y4151864D02*
Y4155529D01*
X7231783Y4156256D02*
X7232510Y4155529D01*
X7231783Y4155468D02*
Y4156256D01*
Y4155468D02*
X7233358Y4153894D01*
X7234145D01*
X7231783Y4156256D02*
X7234145Y4153894D01*
X7231783Y4151138D02*
Y4156256D01*
Y4151138D02*
X7234145Y4153500D01*
Y4150351D02*
Y4156650D01*
X7241283Y4318031D02*
X7243645Y4320394D01*
X7241283Y4317638D02*
Y4318031D01*
X7242010Y4319606D02*
X7242071D01*
X7242858Y4320394D01*
Y4319213D02*
Y4320394D01*
X7242010Y4318364D02*
X7242858Y4319213D01*
X7242010Y4318364D02*
Y4322029D01*
X7241283Y4322756D02*
X7242010Y4322029D01*
X7241283Y4321968D02*
Y4322756D01*
Y4321968D02*
X7242858Y4320394D01*
X7243645D01*
X7241283Y4322756D02*
X7243645Y4320394D01*
X7241283Y4317638D02*
Y4322756D01*
Y4317638D02*
X7243645Y4320000D01*
Y4316850D02*
Y4323149D01*
X7240784Y4335532D02*
X7243146Y4337894D01*
X7240784Y4335138D02*
Y4335532D01*
X7241510Y4337106D02*
X7241571D01*
X7242358Y4337894D01*
Y4336713D02*
Y4337894D01*
X7241510Y4335864D02*
X7242358Y4336713D01*
X7241510Y4335864D02*
Y4339529D01*
X7240784Y4340256D02*
X7241510Y4339529D01*
X7240784Y4339468D02*
Y4340256D01*
Y4339468D02*
X7242358Y4337894D01*
X7243146D01*
X7240784Y4340256D02*
X7243146Y4337894D01*
X7240784Y4335138D02*
Y4340256D01*
Y4335138D02*
X7243146Y4337500D01*
Y4334351D02*
Y4340649D01*
X7015511Y4160485D02*
Y4170485D01*
X7008510Y4160485D02*
Y4170485D01*
X7025510Y4160682D02*
Y4170682D01*
X7018510Y4160682D02*
Y4170682D01*
X7051550Y4158536D02*
Y4168536D01*
X7044550Y4158536D02*
Y4168536D01*
X7165938Y4081037D02*
X7175938D01*
X7165938Y4088037D02*
X7175938D01*
X7267992Y4094236D02*
X7277991D01*
X7267992Y4087236D02*
X7277991D01*
X7269438Y4099037D02*
X7279438D01*
X7269438Y4106037D02*
X7279438D01*
X7276438Y4048037D02*
X7286438D01*
X7276438Y4055037D02*
X7286438D01*
X7090002Y4199527D02*
X7100002D01*
X7090002Y4206527D02*
X7100002D01*
X7090002Y4209027D02*
X7100002D01*
X7090002Y4216027D02*
X7100002D01*
X7037952Y4250527D02*
X7047953D01*
X7037952Y4257527D02*
X7047953D01*
X7059528Y4272490D02*
X7069528D01*
X7059528Y4265490D02*
X7069528D01*
X7059422Y4278033D02*
X7069422D01*
X7059422Y4285033D02*
X7069422D01*
X7059528Y4378490D02*
X7069528D01*
X7059528Y4371490D02*
X7069528D01*
X7060453Y4402027D02*
X7070453D01*
X7060453Y4409027D02*
X7070453D01*
X7059528Y4484490D02*
X7069528D01*
X7059528Y4477490D02*
X7069528D01*
X7059528Y4590490D02*
X7069528D01*
X7059528Y4583490D02*
X7069528D01*
X7090501Y4590527D02*
X7100501D01*
X7090501Y4597527D02*
X7100501D01*
X7090501Y4581451D02*
X7100501D01*
X7090501Y4588451D02*
X7100501D01*
X7093465Y4566500D02*
Y4576500D01*
X7086465Y4566500D02*
Y4576500D01*
X7111607Y4590527D02*
X7121607D01*
X7111607Y4597527D02*
X7121607D01*
X7128964Y4584554D02*
Y4594553D01*
X7135965Y4584554D02*
Y4594553D01*
X7136970Y4554869D02*
Y4564869D01*
X7143970Y4554869D02*
Y4564869D01*
X7135965Y4521000D02*
Y4531000D01*
X7128964Y4521000D02*
Y4531000D01*
X7086539Y4540554D02*
Y4550554D01*
X7093539Y4540554D02*
Y4550554D01*
X7075039Y4539053D02*
Y4549054D01*
X7082039Y4539053D02*
Y4549054D01*
X7090002Y4527027D02*
X7100002D01*
X7090002Y4534027D02*
X7100002D01*
X7111107Y4517527D02*
X7121107D01*
X7111107Y4524527D02*
X7121107D01*
X7090002Y4517527D02*
X7100002D01*
X7090002Y4524527D02*
X7100002D01*
X7111607Y4484527D02*
X7121607D01*
X7111607Y4491527D02*
X7121607D01*
X7128964Y4478553D02*
Y4488554D01*
X7135965Y4478553D02*
Y4488554D01*
X7090501Y4484527D02*
X7100501D01*
X7090501Y4491527D02*
X7100501D01*
X7093465Y4460500D02*
Y4470500D01*
X7086465Y4460500D02*
Y4470500D01*
X7090501Y4475451D02*
X7100501D01*
X7090501Y4482450D02*
X7100501D01*
X7075039Y4433054D02*
Y4443053D01*
X7082039Y4433054D02*
Y4443053D01*
X7086539Y4434554D02*
Y4444553D01*
X7093539Y4434554D02*
Y4444553D01*
X7090002Y4421027D02*
X7100002D01*
X7090002Y4428027D02*
X7100002D01*
X7135965Y4415000D02*
Y4425000D01*
X7128964Y4415000D02*
Y4425000D01*
X7136017Y4449017D02*
Y4459016D01*
X7143017Y4449017D02*
Y4459016D01*
X7110997Y4412285D02*
X7120997D01*
X7110997Y4419285D02*
X7120997D01*
X7090002Y4411527D02*
X7100002D01*
X7090002Y4418527D02*
X7100002D01*
X7090501Y4378527D02*
X7100501D01*
X7090501Y4385527D02*
X7100501D01*
X7090501Y4369451D02*
X7100501D01*
X7090501Y4376451D02*
X7100501D01*
X7093465Y4354500D02*
Y4364500D01*
X7086465Y4354500D02*
Y4364500D01*
X7136017Y4343016D02*
Y4353017D01*
X7143017Y4343016D02*
Y4353017D01*
X7128964Y4372554D02*
Y4382553D01*
X7135965Y4372554D02*
Y4382553D01*
X7111784Y4377639D02*
X7121784D01*
X7111784Y4384639D02*
X7121784D01*
X7135965Y4309000D02*
Y4319000D01*
X7128964Y4309000D02*
Y4319000D01*
X7111107Y4305527D02*
X7121107D01*
X7111107Y4312527D02*
X7121107D01*
X7090002Y4315027D02*
X7100002D01*
X7090002Y4322027D02*
X7100002D01*
X7075039Y4327053D02*
Y4337054D01*
X7082039Y4327053D02*
Y4337054D01*
X7075039Y4221053D02*
Y4231054D01*
X7082039Y4221053D02*
Y4231054D01*
X7111107Y4199527D02*
X7121107D01*
X7111107Y4206527D02*
X7121107D01*
X7135965Y4203000D02*
Y4213000D01*
X7128964Y4203000D02*
Y4213000D01*
X7136017Y4237017D02*
Y4247017D01*
X7143017Y4237017D02*
Y4247017D01*
X7086539Y4222554D02*
Y4232553D01*
X7093539Y4222554D02*
Y4232553D01*
X7093465Y4248500D02*
Y4258500D01*
X7086465Y4248500D02*
Y4258500D01*
X7090501Y4263451D02*
X7100501D01*
X7090501Y4270451D02*
X7100501D01*
X7128964Y4266553D02*
Y4276553D01*
X7135965Y4266553D02*
Y4276553D01*
X7090501Y4272527D02*
X7100501D01*
X7090501Y4279527D02*
X7100501D01*
X7111607Y4272527D02*
X7121607D01*
X7111607Y4279527D02*
X7121607D01*
X7090002Y4305527D02*
X7100002D01*
X7090002Y4312527D02*
X7100002D01*
X7086539Y4328553D02*
Y4338554D01*
X7093539Y4328553D02*
Y4338554D01*
X7240656Y4223449D02*
Y4229749D01*
Y4226599D02*
X7243018Y4228961D01*
Y4223843D02*
Y4228961D01*
X7240656Y4226205D02*
X7243018Y4223843D01*
X7240656Y4226205D02*
X7241444D01*
X7243018Y4224630D01*
Y4223843D02*
Y4224630D01*
X7242292Y4224569D02*
X7243018Y4223843D01*
X7242292Y4224569D02*
Y4228234D01*
X7241444Y4227386D02*
X7242292Y4228234D01*
X7241444Y4226205D02*
Y4227386D01*
Y4226205D02*
X7242231Y4226992D01*
X7242292D01*
X7243018Y4228567D02*
Y4228961D01*
X7240656Y4226205D02*
X7243018Y4228567D01*
X7236938Y4231549D02*
X7246938D01*
X7236938Y4238549D02*
X7246938D01*
X7240784Y4243350D02*
Y4249649D01*
Y4246500D02*
X7243146Y4248862D01*
Y4243744D02*
Y4248862D01*
X7240784Y4246106D02*
X7243146Y4243744D01*
X7240784Y4246106D02*
X7241571D01*
X7243146Y4244532D01*
Y4243744D02*
Y4244532D01*
X7242419Y4244471D02*
X7243146Y4243744D01*
X7242419Y4244471D02*
Y4248136D01*
X7241571Y4247287D02*
X7242419Y4248136D01*
X7241571Y4246106D02*
Y4247287D01*
Y4246106D02*
X7242358Y4246894D01*
X7242419D01*
X7243146Y4248468D02*
Y4248862D01*
X7240784Y4246106D02*
X7243146Y4248468D01*
X7236981Y4252049D02*
X7246981D01*
X7236981Y4259049D02*
X7246981D01*
X7240656Y4263338D02*
Y4269637D01*
Y4266488D02*
X7243018Y4268850D01*
Y4263732D02*
Y4268850D01*
X7240656Y4266094D02*
X7243018Y4263732D01*
X7240656Y4266094D02*
X7241444D01*
X7243018Y4264519D01*
Y4263732D02*
Y4264519D01*
X7242292Y4264458D02*
X7243018Y4263732D01*
X7242292Y4264458D02*
Y4268123D01*
X7241444Y4267275D02*
X7242292Y4268123D01*
X7241444Y4266094D02*
Y4267275D01*
Y4266094D02*
X7242231Y4266881D01*
X7242292D01*
X7243018Y4268456D02*
Y4268850D01*
X7240656Y4266094D02*
X7243018Y4268456D01*
X7236938Y4272250D02*
X7246938D01*
X7236938Y4279250D02*
X7246938D01*
X7215044Y4282638D02*
X7225043D01*
X7215044Y4289638D02*
X7225043D01*
X7215044Y4223537D02*
X7225043D01*
X7215044Y4230537D02*
X7225043D01*
X7215044Y4243537D02*
X7225043D01*
X7215044Y4250537D02*
X7225043D01*
X7215044Y4263240D02*
X7225043D01*
X7215044Y4270240D02*
X7225043D01*
X7240656Y4282638D02*
Y4288937D01*
Y4285788D02*
X7243018Y4288150D01*
Y4283032D02*
Y4288150D01*
X7240656Y4285394D02*
X7243018Y4283032D01*
X7240656Y4285394D02*
X7241444D01*
X7243018Y4283820D01*
Y4283032D02*
Y4283820D01*
X7242292Y4283759D02*
X7243018Y4283032D01*
X7242292Y4283759D02*
Y4287423D01*
X7241444Y4286575D02*
X7242292Y4287423D01*
X7241444Y4285394D02*
Y4286575D01*
Y4285394D02*
X7242231Y4286182D01*
X7242292D01*
X7243018Y4287756D02*
Y4288150D01*
X7240656Y4285394D02*
X7243018Y4287756D01*
X7236938Y4291037D02*
X7246938D01*
X7236938Y4298037D02*
X7246938D01*
X7285938Y4258037D02*
X7295938D01*
X7285938Y4265037D02*
X7295938D01*
X7205428Y4429473D02*
Y4439473D01*
X7198428Y4429473D02*
Y4439473D01*
X7188438Y4448537D02*
X7198438D01*
X7188438Y4455537D02*
X7198438D01*
X7180927Y4480473D02*
Y4490473D01*
X7173927Y4480473D02*
Y4490473D01*
X7188438Y4523111D02*
X7198438D01*
X7188438Y4530111D02*
X7198438D01*
X7207645Y4529963D02*
X7217645D01*
X7207645Y4522963D02*
X7217645D01*
X7180927Y4553473D02*
Y4563473D01*
X7173927Y4553473D02*
Y4563473D01*
X7188438Y4576537D02*
X7198438D01*
X7188438Y4583537D02*
X7198438D01*
X7207645Y4583389D02*
X7217645D01*
X7207645Y4576389D02*
X7217645D01*
X7248938Y4564037D02*
X7258938D01*
X7248938Y4571037D02*
X7258938D01*
X7238992Y4358963D02*
X7248991D01*
X7238992Y4351963D02*
X7248991D01*
X7238938Y4364037D02*
X7248938D01*
X7238938Y4371037D02*
X7248938D01*
X7192965Y4233832D02*
Y4230500D01*
X7189632Y4233832D01*
X7188799D01*
X7187966Y4232999D01*
Y4231333D01*
X7188799Y4230500D01*
X7202965Y4232500D02*
Y4234166D01*
Y4233333D01*
X7197966D01*
X7198799Y4232500D01*
X7202132Y4286500D02*
X7202965Y4287333D01*
Y4288999D01*
X7202132Y4289832D01*
X7198799D01*
X7197966Y4288999D01*
Y4287333D01*
X7198799Y4286500D01*
X7199632D01*
X7200465Y4287333D01*
Y4289832D01*
X7192965Y4286500D02*
Y4288166D01*
Y4287333D01*
X7187966D01*
X7188799Y4286500D01*
Y4290665D02*
X7187966Y4291499D01*
Y4293164D01*
X7188799Y4293998D01*
X7192132D01*
X7192965Y4293164D01*
Y4291499D01*
X7192132Y4290665D01*
X7188799D01*
D54*
X7012509Y4043809D02*
X7012891Y4043999D01*
X7013461Y4044571D01*
Y4040572D01*
X7098509Y4043809D02*
X7098890Y4043999D01*
X7099461Y4044571D01*
Y4040572D01*
M02*
