G04 Layer_Color=255*
%FSLAX25Y25*%
%MOIN*%
G70*
G01*
G75*
%ADD10R,0.25984X0.11221*%
%ADD11R,0.02362X0.05906*%
%ADD12R,0.06299X0.05500*%
%ADD13R,0.05500X0.06299*%
%ADD14R,0.06500X0.05500*%
%ADD15R,0.03583X0.04803*%
G04:AMPARAMS|DCode=16|XSize=35.83mil|YSize=62.99mil|CornerRadius=8.96mil|HoleSize=0mil|Usage=FLASHONLY|Rotation=180.000|XOffset=0mil|YOffset=0mil|HoleType=Round|Shape=RoundedRectangle|*
%AMROUNDEDRECTD16*
21,1,0.03583,0.04508,0,0,180.0*
21,1,0.01791,0.06299,0,0,180.0*
1,1,0.01791,-0.00896,0.02254*
1,1,0.01791,0.00896,0.02254*
1,1,0.01791,0.00896,-0.02254*
1,1,0.01791,-0.00896,-0.02254*
%
%ADD16ROUNDEDRECTD16*%
%ADD17R,0.03150X0.06890*%
%ADD18R,0.02362X0.04724*%
%ADD19R,0.06800X0.07500*%
%ADD20R,0.05400X0.01300*%
%ADD21R,0.07874X0.03937*%
%ADD22R,0.11811X0.06299*%
%ADD23R,0.24410X0.22835*%
%ADD24R,0.06496X0.11811*%
%ADD25R,0.04803X0.03583*%
G04:AMPARAMS|DCode=26|XSize=35.83mil|YSize=62.99mil|CornerRadius=8.96mil|HoleSize=0mil|Usage=FLASHONLY|Rotation=270.000|XOffset=0mil|YOffset=0mil|HoleType=Round|Shape=RoundedRectangle|*
%AMROUNDEDRECTD26*
21,1,0.03583,0.04508,0,0,270.0*
21,1,0.01791,0.06299,0,0,270.0*
1,1,0.01791,-0.02254,-0.00896*
1,1,0.01791,-0.02254,0.00896*
1,1,0.01791,0.02254,0.00896*
1,1,0.01791,0.02254,-0.00896*
%
%ADD26ROUNDEDRECTD26*%
%ADD27O,0.11024X0.02756*%
%ADD28O,0.02362X0.08268*%
%ADD34C,0.04843*%
%ADD35C,0.07874*%
%ADD36C,0.04724*%
%ADD37C,0.13780*%
%ADD38C,0.05906*%
%ADD39R,0.05906X0.05906*%
%ADD40C,0.11024*%
%ADD41R,0.05906X0.05906*%
%ADD42C,0.05118*%
%ADD43C,0.09843*%
%ADD44C,0.03150*%
%ADD45R,0.09843X0.09843*%
D10*
X3157000Y1787622D02*
D03*
Y1765378D02*
D03*
D11*
X3231760Y2062980D02*
D03*
X3235500Y2055500D02*
D03*
X3228020D02*
D03*
D12*
X3200473Y2067537D02*
D03*
X3210473D02*
D03*
X3210527Y2055463D02*
D03*
X3200527D02*
D03*
X3210473Y2267537D02*
D03*
X3220473D02*
D03*
X3179181Y2279889D02*
D03*
X3169180D02*
D03*
X3149973Y2280037D02*
D03*
X3159973D02*
D03*
X3179181Y2226463D02*
D03*
X3169180D02*
D03*
X3149973Y2226611D02*
D03*
X3159973D02*
D03*
X3149973Y2152037D02*
D03*
X3159973D02*
D03*
X3247473Y1961537D02*
D03*
X3257473D02*
D03*
X3198473Y1994537D02*
D03*
X3208473D02*
D03*
X3176579Y1966739D02*
D03*
X3186579D02*
D03*
X3176579Y1947037D02*
D03*
X3186579D02*
D03*
X3176579Y1927037D02*
D03*
X3186579D02*
D03*
X3176579Y1986138D02*
D03*
X3186579D02*
D03*
X3198473Y1975750D02*
D03*
X3208473D02*
D03*
X3198516Y1955549D02*
D03*
X3208516D02*
D03*
X3198473Y1935049D02*
D03*
X3208473D02*
D03*
X3052515Y1998990D02*
D03*
X3060389D02*
D03*
X3051537Y2009027D02*
D03*
X3061537D02*
D03*
X3053015Y1985990D02*
D03*
X3060889D02*
D03*
X3073142Y1976027D02*
D03*
X3083142D02*
D03*
X3052037D02*
D03*
X3062037D02*
D03*
X3052037Y1966951D02*
D03*
X3062037D02*
D03*
X3072643Y1903027D02*
D03*
X3082643D02*
D03*
X3051537Y2018527D02*
D03*
X3061537D02*
D03*
X3072643Y2009027D02*
D03*
X3082643D02*
D03*
X3073320Y2081139D02*
D03*
X3083320D02*
D03*
X3052037Y2072951D02*
D03*
X3062037D02*
D03*
X3052037Y2082027D02*
D03*
X3062037D02*
D03*
X3074409Y2092520D02*
D03*
X3082284D02*
D03*
X3073791Y2104990D02*
D03*
X3081665D02*
D03*
X3053015Y2091990D02*
D03*
X3060889D02*
D03*
X3052515Y2104990D02*
D03*
X3060389D02*
D03*
X3051537Y2115027D02*
D03*
X3061537D02*
D03*
X3072532Y2115785D02*
D03*
X3082532D02*
D03*
X3051537Y2124527D02*
D03*
X3061537D02*
D03*
X3052037Y2178951D02*
D03*
X3062037D02*
D03*
X3052037Y2188027D02*
D03*
X3062037D02*
D03*
X3073142D02*
D03*
X3083142D02*
D03*
X3074291Y2197990D02*
D03*
X3082165D02*
D03*
X3073791Y2210990D02*
D03*
X3081665D02*
D03*
X3053015Y2197990D02*
D03*
X3060889D02*
D03*
X3052515Y2210990D02*
D03*
X3060389D02*
D03*
X3051537Y2221027D02*
D03*
X3061537D02*
D03*
X3072643D02*
D03*
X3082643D02*
D03*
X3051537Y2230527D02*
D03*
X3061537D02*
D03*
X3073142Y2294027D02*
D03*
X3083142D02*
D03*
X3074291Y2303990D02*
D03*
X3082165D02*
D03*
X3053015D02*
D03*
X3060889D02*
D03*
X3052037Y2284951D02*
D03*
X3062037D02*
D03*
X3052037Y2294027D02*
D03*
X3062037D02*
D03*
X3031064Y2286990D02*
D03*
X3021064D02*
D03*
X3031064Y2180990D02*
D03*
X3021064D02*
D03*
X3029952Y2118990D02*
D03*
X3022078D02*
D03*
X3021988Y2105527D02*
D03*
X3031988D02*
D03*
X3031064Y2074990D02*
D03*
X3021064D02*
D03*
X3029952Y2012990D02*
D03*
X3022078D02*
D03*
X3020958Y1981533D02*
D03*
X3030957D02*
D03*
X3031064Y1968990D02*
D03*
X3021064D02*
D03*
X2999488Y1954027D02*
D03*
X3009488D02*
D03*
X3051537Y1912527D02*
D03*
X3061537D02*
D03*
X3051537Y1903027D02*
D03*
X3061537D02*
D03*
X3073791Y1892990D02*
D03*
X3081665D02*
D03*
X3052515D02*
D03*
X3060389D02*
D03*
X3237973Y1751537D02*
D03*
X3247973D02*
D03*
X3230973Y1802537D02*
D03*
X3240973D02*
D03*
X3239527Y1790736D02*
D03*
X3229527D02*
D03*
X3127473Y1784537D02*
D03*
X3137473D02*
D03*
X2999488Y2060027D02*
D03*
X3009488D02*
D03*
X2999488Y2166027D02*
D03*
X3009488D02*
D03*
X2999488Y2272027D02*
D03*
X3009488D02*
D03*
X3028974Y1954027D02*
D03*
X3021100D02*
D03*
X3028974Y2060027D02*
D03*
X3021100D02*
D03*
X3028974Y2166027D02*
D03*
X3021100D02*
D03*
X3028974Y2272027D02*
D03*
X3021100D02*
D03*
X3074291Y1985990D02*
D03*
X3082165D02*
D03*
X3029952Y1906990D02*
D03*
X3022078D02*
D03*
X3029952Y2224990D02*
D03*
X3022078D02*
D03*
X3020958Y2087439D02*
D03*
X3030957D02*
D03*
X3020958Y2193738D02*
D03*
X3030957D02*
D03*
X3020958Y2299250D02*
D03*
X3030957D02*
D03*
X3021988Y1893527D02*
D03*
X3031988D02*
D03*
X3021988Y1999527D02*
D03*
X3031988D02*
D03*
X3021988Y2211527D02*
D03*
X3031988D02*
D03*
X3201027Y2129463D02*
D03*
X3191027D02*
D03*
X3200527Y2104963D02*
D03*
X3190527D02*
D03*
X3200527Y2090963D02*
D03*
X3190527D02*
D03*
X3220473Y2020037D02*
D03*
X3230473D02*
D03*
X3144473Y2066037D02*
D03*
X3154473D02*
D03*
X3258527Y2056463D02*
D03*
X3248527D02*
D03*
X3209973Y2137037D02*
D03*
X3219973D02*
D03*
X3209973Y2098037D02*
D03*
X3219973D02*
D03*
X3209973Y2084037D02*
D03*
X3219973D02*
D03*
X3209973Y2122037D02*
D03*
X3219973D02*
D03*
X3210473Y2165537D02*
D03*
X3220473D02*
D03*
X3210473Y2180037D02*
D03*
X3220473D02*
D03*
X3210473Y2208537D02*
D03*
X3220473D02*
D03*
X3210473Y2194537D02*
D03*
X3220473D02*
D03*
X3210473Y2238537D02*
D03*
X3220473D02*
D03*
X3210473Y2252537D02*
D03*
X3220473D02*
D03*
X3210473Y2281537D02*
D03*
X3220473D02*
D03*
X3230527Y2037463D02*
D03*
X3220527D02*
D03*
X3201027Y2114963D02*
D03*
X3191027D02*
D03*
X3200527Y2158463D02*
D03*
X3190527D02*
D03*
X3200527Y2172963D02*
D03*
X3190527D02*
D03*
X3200527Y2201463D02*
D03*
X3190527D02*
D03*
X3200527Y2187463D02*
D03*
X3190527D02*
D03*
X3200527Y2231463D02*
D03*
X3190527D02*
D03*
X3200527Y2245963D02*
D03*
X3190527D02*
D03*
X3200573Y2274463D02*
D03*
X3190573D02*
D03*
X3200527Y2260463D02*
D03*
X3190527D02*
D03*
X3073791Y1998990D02*
D03*
X3081665D02*
D03*
X3127473Y1822037D02*
D03*
X3137473D02*
D03*
X3127473Y1809537D02*
D03*
X3137473D02*
D03*
X3127473Y1797037D02*
D03*
X3137473D02*
D03*
X3214973Y1758037D02*
D03*
X3224973D02*
D03*
X3249473Y1792537D02*
D03*
X3259473D02*
D03*
X3214473Y1853537D02*
D03*
X3224473D02*
D03*
X3168473Y2086537D02*
D03*
X3178473D02*
D03*
X3149973Y2207111D02*
D03*
X3159973D02*
D03*
X3179181Y2206963D02*
D03*
X3169180D02*
D03*
X3179181Y2151889D02*
D03*
X3169180D02*
D03*
D13*
X3138963Y2253473D02*
D03*
Y2263473D02*
D03*
Y2180473D02*
D03*
Y2190473D02*
D03*
X3163463Y2129473D02*
D03*
Y2139473D02*
D03*
X3051574Y2038553D02*
D03*
Y2028554D02*
D03*
X3094000Y1976554D02*
D03*
Y1966553D02*
D03*
X3051500Y1948500D02*
D03*
Y1958500D02*
D03*
X3051574Y1932553D02*
D03*
Y1922553D02*
D03*
X3101052Y1947017D02*
D03*
Y1937016D02*
D03*
X3094000Y1903000D02*
D03*
Y1913000D02*
D03*
X3040074Y1931054D02*
D03*
Y1921054D02*
D03*
Y2037053D02*
D03*
Y2027053D02*
D03*
X3094000Y2009000D02*
D03*
Y2019000D02*
D03*
Y2082553D02*
D03*
Y2072553D02*
D03*
X3101052Y2053016D02*
D03*
Y2043016D02*
D03*
X3051500Y2054500D02*
D03*
Y2064500D02*
D03*
X3101052Y2159016D02*
D03*
Y2149017D02*
D03*
X3094000Y2115000D02*
D03*
Y2125000D02*
D03*
X3051574Y2144554D02*
D03*
Y2134554D02*
D03*
X3040074Y2143053D02*
D03*
Y2133054D02*
D03*
X3051500Y2160500D02*
D03*
Y2170500D02*
D03*
X3094000Y2188553D02*
D03*
Y2178554D02*
D03*
X3040074Y2249054D02*
D03*
Y2239054D02*
D03*
X3051574Y2250554D02*
D03*
Y2240553D02*
D03*
X3094000Y2221000D02*
D03*
Y2231000D02*
D03*
X3102006Y2264869D02*
D03*
Y2254869D02*
D03*
X3094000Y2294554D02*
D03*
Y2284554D02*
D03*
X3051500Y2266500D02*
D03*
Y2276500D02*
D03*
X3009585Y1858536D02*
D03*
Y1868536D02*
D03*
X2983546Y1860682D02*
D03*
Y1870682D02*
D03*
X2973546Y1860485D02*
D03*
Y1870485D02*
D03*
X3070548Y1860509D02*
D03*
Y1870509D02*
D03*
X3145174Y2035473D02*
D03*
Y2045473D02*
D03*
X3138963Y2109973D02*
D03*
Y2119973D02*
D03*
X3227463Y1996473D02*
D03*
Y2006473D02*
D03*
X3096585Y1860536D02*
D03*
Y1870536D02*
D03*
X3060548Y1860009D02*
D03*
Y1870009D02*
D03*
X3170463Y1858473D02*
D03*
Y1848473D02*
D03*
X3212037Y1797527D02*
D03*
Y1787527D02*
D03*
X3264000Y1773500D02*
D03*
Y1763500D02*
D03*
D14*
X3198373Y1985788D02*
D03*
X3208373D02*
D03*
X3198373Y1966488D02*
D03*
X3208373D02*
D03*
X3198500Y1946500D02*
D03*
X3208500D02*
D03*
X3198373Y1926599D02*
D03*
X3208373D02*
D03*
X3198500Y2037500D02*
D03*
X3208500D02*
D03*
X3199000Y2020000D02*
D03*
X3209000D02*
D03*
X3189500Y1853500D02*
D03*
X3199500D02*
D03*
X3040085Y1873036D02*
D03*
X3050085D02*
D03*
X2953085Y1872036D02*
D03*
X2963085D02*
D03*
D15*
X3187937Y1975500D02*
D03*
Y1955588D02*
D03*
Y1935986D02*
D03*
Y1994689D02*
D03*
X3084501Y1966777D02*
D03*
X3084001Y1912777D02*
D03*
X3084501Y2072589D02*
D03*
X3083996Y2125197D02*
D03*
X3084501Y2178777D02*
D03*
X3084001Y2230777D02*
D03*
X3084501Y2284777D02*
D03*
X3009474Y2178739D02*
D03*
Y1978527D02*
D03*
Y1966739D02*
D03*
X3051500Y1860036D02*
D03*
X2964500Y1859563D02*
D03*
X3009474Y2072739D02*
D03*
Y2284739D02*
D03*
Y2084527D02*
D03*
Y2190527D02*
D03*
Y2296527D02*
D03*
X3084001Y2018777D02*
D03*
X3258937Y2038000D02*
D03*
D16*
X3175063Y1975500D02*
D03*
Y1955588D02*
D03*
Y1935986D02*
D03*
Y1994689D02*
D03*
X3071627Y1966777D02*
D03*
X3071127Y1912777D02*
D03*
X3071627Y2072589D02*
D03*
X3071122Y2125197D02*
D03*
X3071627Y2178777D02*
D03*
X3071127Y2230777D02*
D03*
X3071627Y2284777D02*
D03*
X2996600Y2178739D02*
D03*
Y1978527D02*
D03*
Y1966739D02*
D03*
X3038626Y1860036D02*
D03*
X2951626Y1859563D02*
D03*
X2996600Y2072739D02*
D03*
Y2284739D02*
D03*
Y2084527D02*
D03*
Y2190527D02*
D03*
Y2296527D02*
D03*
X3071127Y2018777D02*
D03*
X3246063Y2038000D02*
D03*
D17*
X3030037Y2260484D02*
D03*
X3025037D02*
D03*
X3020037D02*
D03*
X3015037D02*
D03*
X3010037D02*
D03*
X3005037D02*
D03*
X3000037D02*
D03*
X3030037Y2239027D02*
D03*
X3025037D02*
D03*
X3020037D02*
D03*
X3015037D02*
D03*
X3010037D02*
D03*
X3005037D02*
D03*
X3000037D02*
D03*
X3030037Y2154483D02*
D03*
X3025037D02*
D03*
X3020037D02*
D03*
X3015037D02*
D03*
X3010037D02*
D03*
X3005037D02*
D03*
X3000037D02*
D03*
X3030037Y2133027D02*
D03*
X3025037D02*
D03*
X3020037D02*
D03*
X3015037D02*
D03*
X3010037D02*
D03*
X3005037D02*
D03*
X3000037D02*
D03*
X3030037Y2048483D02*
D03*
X3025037D02*
D03*
X3020037D02*
D03*
X3015037D02*
D03*
X3010037D02*
D03*
X3005037D02*
D03*
X3000037D02*
D03*
X3030037Y2027027D02*
D03*
X3025037D02*
D03*
X3020037D02*
D03*
X3015037D02*
D03*
X3010037D02*
D03*
X3005037D02*
D03*
X3000037D02*
D03*
X3030037Y1942484D02*
D03*
X3025037D02*
D03*
X3020037D02*
D03*
X3015037D02*
D03*
X3010037D02*
D03*
X3005037D02*
D03*
X3000037D02*
D03*
X3030037Y1921027D02*
D03*
X3025037D02*
D03*
X3020037D02*
D03*
X3015037D02*
D03*
X3010037D02*
D03*
X3005037D02*
D03*
X3000037D02*
D03*
X3091413Y2058983D02*
D03*
X3086413D02*
D03*
X3081413D02*
D03*
X3076413D02*
D03*
X3071413D02*
D03*
X3066413D02*
D03*
X3061413D02*
D03*
X3091413Y2037527D02*
D03*
X3086413D02*
D03*
X3081413D02*
D03*
X3076413D02*
D03*
X3071413D02*
D03*
X3066413D02*
D03*
X3061413D02*
D03*
X3091413Y2164984D02*
D03*
X3086413D02*
D03*
X3081413D02*
D03*
X3076413D02*
D03*
X3071413D02*
D03*
X3066413D02*
D03*
X3061413D02*
D03*
X3091413Y2143527D02*
D03*
X3086413D02*
D03*
X3081413D02*
D03*
X3076413D02*
D03*
X3071413D02*
D03*
X3066413D02*
D03*
X3061413D02*
D03*
X3091413Y2270984D02*
D03*
X3086413D02*
D03*
X3081413D02*
D03*
X3076413D02*
D03*
X3071413D02*
D03*
X3066413D02*
D03*
X3061413D02*
D03*
X3091413Y2249527D02*
D03*
X3086413D02*
D03*
X3081413D02*
D03*
X3076413D02*
D03*
X3071413D02*
D03*
X3066413D02*
D03*
X3061413D02*
D03*
X3237088Y1985043D02*
D03*
X3242088D02*
D03*
X3247088D02*
D03*
X3252089D02*
D03*
X3257088D02*
D03*
X3262088D02*
D03*
X3267088D02*
D03*
X3237088Y2006500D02*
D03*
X3242088D02*
D03*
X3247088D02*
D03*
X3252089D02*
D03*
X3257088D02*
D03*
X3262088D02*
D03*
X3267088D02*
D03*
X3091413Y1952983D02*
D03*
X3086413D02*
D03*
X3081413D02*
D03*
X3076413D02*
D03*
X3071413D02*
D03*
X3066413D02*
D03*
X3061413D02*
D03*
X3091413Y1931527D02*
D03*
X3086413D02*
D03*
X3081413D02*
D03*
X3076413D02*
D03*
X3071413D02*
D03*
X3066413D02*
D03*
X3061413D02*
D03*
D18*
X3086825Y1869080D02*
D03*
X3079345D02*
D03*
X3083085Y1861993D02*
D03*
X2999825Y1867602D02*
D03*
X2992345D02*
D03*
X2996085Y1860516D02*
D03*
D19*
X3238650Y1777000D02*
D03*
D20*
X3230000Y1773060D02*
D03*
Y1775030D02*
D03*
Y1777000D02*
D03*
Y1778970D02*
D03*
Y1780940D02*
D03*
X3247300D02*
D03*
Y1778970D02*
D03*
Y1777000D02*
D03*
Y1775030D02*
D03*
Y1773060D02*
D03*
D21*
X3153113Y1849607D02*
D03*
D22*
X3153173Y1840445D02*
D03*
Y1858555D02*
D03*
D23*
X3124827Y1849500D02*
D03*
D24*
X3281500Y1758000D02*
D03*
X3292917D02*
D03*
D25*
X3190000Y1781437D02*
D03*
D26*
Y1768563D02*
D03*
D27*
X3234024Y1952305D02*
D03*
Y1947305D02*
D03*
Y1942305D02*
D03*
Y1937305D02*
D03*
Y1932305D02*
D03*
Y1927305D02*
D03*
Y1922305D02*
D03*
Y1917305D02*
D03*
X3261976Y1952305D02*
D03*
Y1947305D02*
D03*
Y1942305D02*
D03*
Y1937305D02*
D03*
Y1932305D02*
D03*
Y1927305D02*
D03*
Y1922305D02*
D03*
Y1917305D02*
D03*
D28*
X3148264Y2241669D02*
D03*
X3153264D02*
D03*
X3158264D02*
D03*
X3163264D02*
D03*
X3168264D02*
D03*
X3173264D02*
D03*
X3178264D02*
D03*
X3148307Y2262992D02*
D03*
X3153307D02*
D03*
X3158307D02*
D03*
X3163307D02*
D03*
X3168307D02*
D03*
X3173307D02*
D03*
X3178307D02*
D03*
X3148339Y2170307D02*
D03*
X3153339D02*
D03*
X3158339D02*
D03*
X3163339D02*
D03*
X3168339D02*
D03*
X3173339D02*
D03*
X3178339D02*
D03*
X3148382Y2191630D02*
D03*
X3153382D02*
D03*
X3158382D02*
D03*
X3163382D02*
D03*
X3168382D02*
D03*
X3173382D02*
D03*
X3178382D02*
D03*
X3148339Y2099807D02*
D03*
X3153339D02*
D03*
X3158339D02*
D03*
X3163339D02*
D03*
X3168339D02*
D03*
X3173339D02*
D03*
X3178339D02*
D03*
X3148382Y2121130D02*
D03*
X3153382D02*
D03*
X3158382D02*
D03*
X3163382D02*
D03*
X3168382D02*
D03*
X3173382D02*
D03*
X3178382D02*
D03*
X3154406Y2025055D02*
D03*
X3159406D02*
D03*
X3164405D02*
D03*
X3169406D02*
D03*
X3174405D02*
D03*
X3179406D02*
D03*
X3184406D02*
D03*
X3154449Y2046378D02*
D03*
X3159449D02*
D03*
X3164449D02*
D03*
X3169449D02*
D03*
X3174449D02*
D03*
X3179449D02*
D03*
X3184449D02*
D03*
D34*
X3296535Y2286844D02*
D03*
Y2276844D02*
D03*
X3297244Y2243242D02*
D03*
Y2233242D02*
D03*
X3296890Y2158973D02*
D03*
Y2168973D02*
D03*
X3296181Y2202576D02*
D03*
Y2212576D02*
D03*
X3296535Y2137264D02*
D03*
Y2127264D02*
D03*
X3297244Y2093661D02*
D03*
Y2083661D02*
D03*
D35*
X3265945Y2291018D02*
D03*
Y2228341D02*
D03*
X3265591Y2154072D02*
D03*
Y2216749D02*
D03*
X3265945Y2141437D02*
D03*
Y2078760D02*
D03*
D36*
X3252953Y2242199D02*
D03*
X3242953Y2247199D02*
D03*
X3252953Y2252199D02*
D03*
X3242953Y2257199D02*
D03*
X3252953Y2262199D02*
D03*
X3242953Y2267199D02*
D03*
X3252953Y2272199D02*
D03*
X3242953Y2277199D02*
D03*
X3242598Y2202930D02*
D03*
X3252599Y2197930D02*
D03*
X3242598Y2192930D02*
D03*
X3252599Y2187930D02*
D03*
X3242598Y2182930D02*
D03*
X3252599Y2177930D02*
D03*
X3242598Y2172930D02*
D03*
X3252599Y2167930D02*
D03*
X3252953Y2092618D02*
D03*
X3242953Y2097618D02*
D03*
X3252953Y2102618D02*
D03*
X3242953Y2107618D02*
D03*
X3252953Y2112618D02*
D03*
X3242953Y2117618D02*
D03*
X3252953Y2122618D02*
D03*
X3242953Y2127618D02*
D03*
D37*
X3277953Y2236844D02*
D03*
Y2282514D02*
D03*
X3277599Y2208245D02*
D03*
Y2162576D02*
D03*
X3277953Y2087264D02*
D03*
Y2132933D02*
D03*
X3282811Y1715000D02*
D03*
X2937500D02*
D03*
Y2307500D02*
D03*
X3282811Y2309322D02*
D03*
D38*
X3287000Y1986000D02*
D03*
Y1996000D02*
D03*
Y1976000D02*
D03*
Y1966000D02*
D03*
Y1956000D02*
D03*
Y1946000D02*
D03*
X3152500Y1980500D02*
D03*
X3162500D02*
D03*
X3152500Y1970500D02*
D03*
X3162500D02*
D03*
X3152500Y1960500D02*
D03*
X3162500D02*
D03*
X3152500Y1950500D02*
D03*
X3162500D02*
D03*
X3152500Y1940500D02*
D03*
X2977500Y2231000D02*
D03*
Y2241000D02*
D03*
Y2251000D02*
D03*
Y2261000D02*
D03*
X2977000Y2131575D02*
D03*
Y2141575D02*
D03*
Y2151575D02*
D03*
Y2161575D02*
D03*
X2976500Y2093500D02*
D03*
Y2103500D02*
D03*
Y2049000D02*
D03*
Y2039000D02*
D03*
Y2029000D02*
D03*
Y2019000D02*
D03*
X2977000Y1946500D02*
D03*
Y1936500D02*
D03*
Y1926500D02*
D03*
Y1916500D02*
D03*
X3168500Y2066000D02*
D03*
D39*
X3287000Y2006000D02*
D03*
X3162500Y1940500D02*
D03*
X2977500Y2271000D02*
D03*
X2977000Y2171575D02*
D03*
X2976500Y2113500D02*
D03*
Y2059000D02*
D03*
X2977000Y1956500D02*
D03*
D40*
X3093244Y1788469D02*
D03*
X3046000D02*
D03*
Y1836500D02*
D03*
X3069622Y1844374D02*
D03*
X3093244Y1836500D02*
D03*
X3007244Y1788469D02*
D03*
X2960000D02*
D03*
Y1836500D02*
D03*
X2983622Y1844374D02*
D03*
X3007244Y1836500D02*
D03*
D41*
X3178500Y2066000D02*
D03*
D42*
X3267500Y2056216D02*
D03*
Y2038500D02*
D03*
X3293090Y2056216D02*
D03*
Y2038500D02*
D03*
D43*
X3092557Y1742036D02*
D03*
X3077596D02*
D03*
X3062635D02*
D03*
X3006557D02*
D03*
X2991596D02*
D03*
X2976635D02*
D03*
X3282500Y1819500D02*
D03*
Y1799815D02*
D03*
D44*
X3149000Y2234500D02*
D03*
X3169803Y2233819D02*
D03*
X3175000Y2271500D02*
D03*
X3158000Y2272000D02*
D03*
X3158500Y2198500D02*
D03*
X3148000Y2161500D02*
D03*
X3170591Y2161378D02*
D03*
X3176000Y2198500D02*
D03*
X3075537Y2135027D02*
D03*
X3013015Y2123490D02*
D03*
X3051574Y2153027D02*
D03*
X2993515Y2154490D02*
D03*
X3100015Y2171490D02*
D03*
X3102015Y2140990D02*
D03*
X3100015Y2129490D02*
D03*
X3037500Y2155500D02*
D03*
X3042478Y2166027D02*
D03*
X3013015Y2229490D02*
D03*
X3075537Y2241027D02*
D03*
X2993515Y2260490D02*
D03*
X3100015Y2277490D02*
D03*
X3102015Y2246990D02*
D03*
X3037000Y2261500D02*
D03*
X3100015Y2235490D02*
D03*
X3051574Y2259027D02*
D03*
X3042478Y2272027D02*
D03*
X3013015Y2017490D02*
D03*
X3075537Y2029027D02*
D03*
X2993515Y2048490D02*
D03*
X3100015Y2065490D02*
D03*
X3102015Y2034990D02*
D03*
X3037000Y2049500D02*
D03*
X3100015Y2023490D02*
D03*
X3051574Y2047027D02*
D03*
X3042478Y2060027D02*
D03*
X3102015Y1928990D02*
D03*
X3042478Y1954027D02*
D03*
X3037000Y1943500D02*
D03*
X3100015Y1959490D02*
D03*
X3013015Y1911490D02*
D03*
X3100015Y1917490D02*
D03*
X3075537Y1923027D02*
D03*
X2993515Y1942490D02*
D03*
X3051575Y1939370D02*
D03*
X3144000Y2165000D02*
D03*
X3161500Y2163500D02*
D03*
X3146000Y2199000D02*
D03*
X3166500Y2199500D02*
D03*
X3166000Y2272500D02*
D03*
X3147500Y2271500D02*
D03*
X3143252Y2239500D02*
D03*
X3161000Y2235000D02*
D03*
X3181500Y2128500D02*
D03*
D45*
X3282500Y1839185D02*
D03*
M02*
