M48
;Layer_Color=9474304
;FILE_FORMAT=2:5
INCH,LZ
;TYPE=PLATED
T1F00S00C0.02362
T2F00S00C0.02800
T3F00S00C0.03150
T4F00S00C0.03543
T5F00S00C0.03937
T6F00S00C0.04016
T7F00S00C0.05118
T8F00S00C0.05512
T9F00S00C0.05906
T10F00S00C0.06417
T11F00S00C0.06496
T12F00S00C0.11811
T13F00S00C0.12205
T14F00S00C0.12598
%
T01
X7285965Y4037283
X7272465
X7253964
X7220965
X7208465
X7195866Y4036732
X7183307Y4037283
X7165465Y40425
Y4055
X703081Y417311
X7050275Y4174803
X7051479Y421149
X713848Y421749
X7159464Y4210005
X7141843Y4177
X7117809Y417538
X7167965Y4129
X7165965Y4116
Y41035
Y4091
Y4078
X7165465Y40675
X7155465Y40975
X7155064Y41114
X7204964Y4122
Y4131
X7214964Y4117
X7241965Y4119
X7254964
X7268964
X7285965
X7259865Y41016
Y40976
X7277115Y4077
X7279614
X726277Y4217305
X7310236Y4217205
Y4223268
X7308261Y423598
X7308583Y4242126
X7305465Y42725
X7295553Y4277089
X7285553Y4276912
X7275964Y427
X7277502Y4261537
X7264567Y4254685
X7262992Y4238268
X7263504Y4231929
X7262362Y422437
X7230965Y4227037
Y4236
X7231265Y4247037
X7231464Y4255588
X7231314Y426674
X7231464Y42755
Y4286138
Y4294689
X7226465Y43145
X7221964Y4353
X7208965Y4356
X7258438Y4371
X7275964Y433
X7280553Y4313911
X7265928Y4287537
X7185965Y43255
X7155965Y4332
X7156965Y43455
X7140479Y433499
X713848Y432349
X7114001Y4329027
X7090038Y4347027
X7075465Y43495
X7077464Y43545
X7080943Y4360027
X7031979Y434849
X7051479Y431749
X7080943Y4254027
X7075964Y4249
X7075465Y42435
X7090039Y423937
X7114001Y4223027
X7140479Y422899
X7157964Y42435
X713848Y425949
Y436549
X7031979Y424249
X7051479Y442349
X7031979Y445449
X7075964Y44555
X7074965Y44605
X7080943Y4466027
X7090038Y4453027
X7114001Y4435027
X713848Y442949
X7140479Y444099
X715185Y4438976
X7155394Y4435433
X7151965Y43965
X7186964Y43935
X7186465Y44615
X7182465Y4465
X7174965Y4474
X7184464Y4499
X713848Y447149
X7051479Y452949
X7202965Y4516788
X7204964Y44995
X7196964Y44985
X7214465
X7209055Y4461378
X7199965Y44635
X7195965Y4428
X7190433Y4431102
X7208965Y44295
X7219965Y44285
X7226965Y4443
X7212008Y4392559
X7201965Y4393
X7187965Y4375
X7187465Y45345
X7199464Y4535
X7208268Y4533819
X7204465Y45725
X7196465Y4572
X7213464Y45715
X7185965
X7177464Y4546
X7181716Y45395
X7147913Y4545551
X7140479Y454699
X713848Y453549
X7114001Y4541027
X7090038Y4559027
X7075465Y45615
X7077464Y4567
X7080943Y4572027
X7031979Y456049
X713848Y457749
T02
X7329964Y4045
X7332465Y40715
Y40775
Y40835
T03
X7291063Y449793
Y448793
Y447793
Y446793
X7281063Y447293
Y448293
Y449293
Y450293
X7281417Y4427618
Y4417618
Y4407618
Y4397618
X7291417Y4402618
Y4412618
Y4422618
Y4392618
Y4542199
Y4552199
Y4562199
Y4572199
X7281417Y4577199
Y4567199
Y4557199
Y4547199
T04
X7015465Y42165
X7190965Y42405
X7200964
Y42505
X7190965
Y42605
X7200964
Y42705
X7190965
Y42805
X7200964
X7206965Y4366
X7216965
X7325465Y4306
Y4296
Y4286
Y4276
Y4266
Y4256
Y4246
X7015465Y42465
Y42365
Y42265
Y42565
X7014964Y4319
Y4329
Y4339
Y4349
Y4359
Y43935
Y44035
Y44135
X7015465Y4431575
Y4441575
Y4451575
Y4461575
Y4471575
X7015965Y4531
Y4541
Y4551
Y4561
Y4571
T05
X7331555Y4356216
Y43385
X7305965
Y4356216
T06
X7334646Y4512576
Y4502576
X7335355Y4468974
Y4458973
X7335Y4437264
Y4427264
X7335709Y4393661
Y4383661
Y4533242
Y4543242
X7335Y4576844
Y4586845
T07
X7320965Y4139185
Y41195
Y4099815
T08
X7022086Y4144374
X6998465Y41365
Y4088469
X7084464
Y41365
X7108086Y4144374
X7131709Y41365
X7045708
T09
X7131709Y4088469
X7045708
T10
X730441Y4528341
X7304055Y4516749
Y4454072
X730441Y4441437
Y437876
Y4591018
T11
X7131021Y4042036
X7116061
X71011
X7045021
X7030061
X70151
T12
X7321275Y4015
X6975964
X7321275Y4609322
X6975964Y46075
T13
X7316063Y4508245
X7316417Y4432933
Y4582514
T14
X7316063Y4462576
X7316417Y4387264
Y4536845
M30
