G04 Layer_Color=16711935*
%FSLAX25Y25*%
%MOIN*%
G70*
G01*
G75*
%ADD74C,0.11824*%
%ADD75C,0.10236*%
%ADD76R,0.10236X0.10236*%
%ADD78C,0.10642*%
%ADD79C,0.05918*%
%ADD80C,0.06706*%
%ADD81R,0.06706X0.06706*%
%ADD82C,0.14173*%
%ADD83R,0.06706X0.06706*%
%ADD84C,0.08674*%
%ADD85C,0.14579*%
%ADD86C,0.05524*%
%ADD87C,0.05236*%
%ADD88C,0.03950*%
%ADD89C,0.05800*%
%ADD90C,0.04400*%
D74*
X7045708Y4136500D02*
D03*
X7022086Y4144374D02*
D03*
X6998465Y4136500D02*
D03*
Y4088469D02*
D03*
X7045708D02*
D03*
X7131709Y4136500D02*
D03*
X7108086Y4144374D02*
D03*
X7084464Y4136500D02*
D03*
Y4088469D02*
D03*
X7131709D02*
D03*
D75*
X7320965Y4099815D02*
D03*
Y4119500D02*
D03*
D76*
Y4139185D02*
D03*
D78*
X7015100Y4042036D02*
D03*
X7030061D02*
D03*
X7045021D02*
D03*
X7101100D02*
D03*
X7116061D02*
D03*
X7131021D02*
D03*
D79*
X7331555Y4338500D02*
D03*
Y4356216D02*
D03*
X7305965Y4338500D02*
D03*
Y4356216D02*
D03*
D80*
X7206965Y4366000D02*
D03*
X7015465Y4216500D02*
D03*
Y4226500D02*
D03*
Y4236500D02*
D03*
Y4246500D02*
D03*
X7014964Y4319000D02*
D03*
Y4329000D02*
D03*
Y4339000D02*
D03*
Y4349000D02*
D03*
Y4403500D02*
D03*
Y4393500D02*
D03*
X7015465Y4461575D02*
D03*
Y4451575D02*
D03*
Y4441575D02*
D03*
Y4431575D02*
D03*
X7015965Y4561000D02*
D03*
Y4551000D02*
D03*
Y4541000D02*
D03*
Y4531000D02*
D03*
X7190965Y4240500D02*
D03*
X7200964Y4250500D02*
D03*
X7190965D02*
D03*
X7200964Y4260500D02*
D03*
X7190965D02*
D03*
X7200964Y4270500D02*
D03*
X7190965D02*
D03*
X7200964Y4280500D02*
D03*
X7190965D02*
D03*
X7325465Y4246000D02*
D03*
Y4256000D02*
D03*
Y4266000D02*
D03*
Y4276000D02*
D03*
Y4296000D02*
D03*
Y4286000D02*
D03*
D81*
X7216965Y4366000D02*
D03*
D82*
X7321275Y4609322D02*
D03*
X6975964Y4607500D02*
D03*
Y4015000D02*
D03*
X7321275D02*
D03*
D83*
X7015465Y4256500D02*
D03*
X7014964Y4359000D02*
D03*
Y4413500D02*
D03*
X7015465Y4471575D02*
D03*
X7015965Y4571000D02*
D03*
X7200964Y4240500D02*
D03*
X7325465Y4306000D02*
D03*
D84*
X7304410Y4378760D02*
D03*
Y4441437D02*
D03*
X7304055Y4516749D02*
D03*
Y4454072D02*
D03*
X7304410Y4528341D02*
D03*
Y4591018D02*
D03*
D85*
X7316417Y4432933D02*
D03*
Y4387264D02*
D03*
X7316063Y4462576D02*
D03*
Y4508245D02*
D03*
X7316417Y4582514D02*
D03*
Y4536845D02*
D03*
D86*
X7281417Y4427618D02*
D03*
X7291417Y4422618D02*
D03*
X7281417Y4417618D02*
D03*
X7291417Y4412618D02*
D03*
X7281417Y4407618D02*
D03*
X7291417Y4402618D02*
D03*
X7281417Y4397618D02*
D03*
X7291417Y4392618D02*
D03*
X7291063Y4467930D02*
D03*
X7281063Y4472930D02*
D03*
X7291063Y4477930D02*
D03*
X7281063Y4482930D02*
D03*
X7291063Y4487930D02*
D03*
X7281063Y4492930D02*
D03*
X7291063Y4497930D02*
D03*
X7281063Y4502930D02*
D03*
X7281417Y4577199D02*
D03*
X7291417Y4572199D02*
D03*
X7281417Y4567199D02*
D03*
X7291417Y4562199D02*
D03*
X7281417Y4557199D02*
D03*
X7291417Y4552199D02*
D03*
X7281417Y4547199D02*
D03*
X7291417Y4542199D02*
D03*
D87*
X7335709Y4383661D02*
D03*
Y4393661D02*
D03*
X7335000Y4427264D02*
D03*
Y4437264D02*
D03*
X7334646Y4512576D02*
D03*
Y4502576D02*
D03*
X7335355Y4468974D02*
D03*
Y4458973D02*
D03*
X7335709Y4533242D02*
D03*
Y4543242D02*
D03*
X7335000Y4576844D02*
D03*
Y4586845D02*
D03*
D88*
X7212008Y4392559D02*
D03*
X7308261Y4235980D02*
D03*
X7310236Y4223268D02*
D03*
Y4217205D02*
D03*
X7262362Y4224370D02*
D03*
X7308583Y4242126D02*
D03*
X7264567Y4254685D02*
D03*
X7263504Y4231929D02*
D03*
X7262992Y4238268D02*
D03*
X7190433Y4431102D02*
D03*
X7151850Y4438976D02*
D03*
X7030810Y4173110D02*
D03*
X7117809Y4175380D02*
D03*
X7050275Y4174803D02*
D03*
X7141843Y4177000D02*
D03*
X7279614Y4077000D02*
D03*
X7277115D02*
D03*
X7231464Y4275500D02*
D03*
X7231314Y4266740D02*
D03*
X7231464Y4294689D02*
D03*
Y4286138D02*
D03*
Y4255588D02*
D03*
X7231265Y4247037D02*
D03*
X7230965Y4236000D02*
D03*
X7177464Y4546000D02*
D03*
X7202965Y4516788D02*
D03*
X7174965Y4474000D02*
D03*
X7077464Y4567000D02*
D03*
X7074965Y4460500D02*
D03*
X7077464Y4354500D02*
D03*
X7075964Y4249000D02*
D03*
X7186964Y4393500D02*
D03*
X7201965Y4393000D02*
D03*
X7195965Y4428000D02*
D03*
X7208965Y4429500D02*
D03*
X7277502Y4261537D02*
D03*
X7265928Y4287537D02*
D03*
X7285553Y4276912D02*
D03*
X7295553Y4277089D02*
D03*
X7280553Y4313911D02*
D03*
X7226465Y4314500D02*
D03*
X7185965Y4325500D02*
D03*
X7275964Y4270000D02*
D03*
X7305465Y4272500D02*
D03*
X7262770Y4217305D02*
D03*
X7275964Y4330000D02*
D03*
X7187965Y4375000D02*
D03*
X7226965Y4443000D02*
D03*
X7230965Y4227037D02*
D03*
X7151965Y4396500D02*
D03*
X7155965Y4332000D02*
D03*
X7156965Y4345500D02*
D03*
X7208965Y4356000D02*
D03*
X7221964Y4353000D02*
D03*
X7157964Y4243500D02*
D03*
X7159464Y4210005D02*
D03*
X7258438Y4371000D02*
D03*
X7155394Y4435433D02*
D03*
X7147913Y4545551D02*
D03*
D89*
X7329964Y4045000D02*
D03*
X7332465Y4083500D02*
D03*
Y4077500D02*
D03*
Y4071500D02*
D03*
D90*
X7165965Y4078000D02*
D03*
Y4091000D02*
D03*
Y4103500D02*
D03*
X7204964Y4131000D02*
D03*
Y4122000D02*
D03*
X7214964Y4117000D02*
D03*
X7165465Y4067500D02*
D03*
Y4055000D02*
D03*
Y4042500D02*
D03*
X7183307Y4037283D02*
D03*
X7195866Y4036732D02*
D03*
X7208465Y4037283D02*
D03*
X7220965D02*
D03*
X7285965D02*
D03*
X7253964D02*
D03*
X7272465D02*
D03*
X7155465Y4097500D02*
D03*
X7241965Y4119000D02*
D03*
X7254964D02*
D03*
X7268964D02*
D03*
X7285965D02*
D03*
X7155064Y4111400D02*
D03*
X7259865Y4097600D02*
D03*
Y4101600D02*
D03*
X7165965Y4116000D02*
D03*
X7167965Y4129000D02*
D03*
M02*
