G04 Layer_Color=65535*
%FSLAX25Y25*%
%MOIN*%
G70*
G01*
G75*
%ADD29C,0.01000*%
%ADD48C,0.00984*%
%ADD49C,0.02362*%
%ADD50C,0.00600*%
%ADD51C,0.00394*%
%ADD52C,0.00787*%
%ADD53C,0.00800*%
%ADD54C,0.00700*%
D29*
X3172748Y1776500D02*
G03*
X3172748Y1776500I-15748J0D01*
G01*
X3285973Y2047358D02*
G03*
X3285973Y2047358I-5678J0D01*
G01*
X3094919Y1742036D02*
G03*
X3094919Y1742036I-2362J0D01*
G01*
X3064998D02*
G03*
X3064998Y1742036I-2362J0D01*
G01*
X3079958D02*
G03*
X3079958Y1742036I-2362J0D01*
G01*
X3008919D02*
G03*
X3008919Y1742036I-2362J0D01*
G01*
X2978998D02*
G03*
X2978998Y1742036I-2362J0D01*
G01*
X2993958D02*
G03*
X2993958Y1742036I-2362J0D01*
G01*
X3146236Y1860588D02*
G03*
X3146236Y1860588I-1605J0D01*
G01*
X3160132Y1864031D02*
G03*
X3160132Y1864031I-303J0D01*
G01*
X3239922Y1956577D02*
G03*
X3239927Y1956451I-1371J-119D01*
G01*
X3178350Y1972350D02*
Y1978650D01*
Y1952438D02*
Y1958737D01*
Y1932837D02*
Y1939136D01*
Y1991539D02*
Y1997839D01*
X3074914Y1963627D02*
Y1969927D01*
X3074414Y1909628D02*
Y1915927D01*
X3074914Y2069439D02*
Y2075738D01*
X3074409Y2122047D02*
Y2128346D01*
X3074914Y2175628D02*
Y2181927D01*
X3074414Y2227628D02*
Y2233927D01*
X3074914Y2281627D02*
Y2287927D01*
X2999887Y2175590D02*
Y2181889D01*
Y1975377D02*
Y1981676D01*
Y1963590D02*
Y1969889D01*
X3041914Y1856887D02*
Y1863186D01*
X3038126Y1851461D02*
X3101118D01*
X3038126Y1772721D02*
X3101118D01*
Y1851461D01*
X3038126Y1772721D02*
Y1851461D01*
X2954914Y1856413D02*
Y1862713D01*
X2999887Y2069590D02*
Y2075889D01*
Y2281590D02*
Y2287889D01*
Y2081377D02*
Y2087676D01*
Y2187377D02*
Y2193676D01*
Y2293377D02*
Y2299676D01*
X3074414Y2015627D02*
Y2021927D01*
X3249350Y2034850D02*
Y2041150D01*
X3186850Y1771850D02*
X3193150D01*
X2952126Y1851461D02*
X3015118D01*
X2952126Y1772721D02*
X3015118D01*
Y1851461D01*
X2952126Y1772721D02*
Y1851461D01*
D48*
X3225166Y2055500D02*
G03*
X3225166Y2055500I-492J0D01*
G01*
X3034269Y2260484D02*
G03*
X3034269Y2260484I-492J0D01*
G01*
Y2154483D02*
G03*
X3034269Y2154483I-492J0D01*
G01*
Y2048483D02*
G03*
X3034269Y2048483I-492J0D01*
G01*
Y1942484D02*
G03*
X3034269Y1942484I-492J0D01*
G01*
X3090664Y1869080D02*
G03*
X3090664Y1869080I-492J0D01*
G01*
X3003664Y1867602D02*
G03*
X3003664Y1867602I-492J0D01*
G01*
X3095645Y2058983D02*
G03*
X3095645Y2058983I-492J0D01*
G01*
Y2164984D02*
G03*
X3095645Y2164984I-492J0D01*
G01*
Y2270984D02*
G03*
X3095645Y2270984I-492J0D01*
G01*
X3233841Y1985043D02*
G03*
X3233841Y1985043I-492J0D01*
G01*
X3095645Y1952983D02*
G03*
X3095645Y1952983I-492J0D01*
G01*
X3145409Y2243244D02*
G03*
X3145409Y2243244I-492J0D01*
G01*
X3145484Y2171882D02*
G03*
X3145484Y2171882I-492J0D01*
G01*
Y2101382D02*
G03*
X3145484Y2101382I-492J0D01*
G01*
X3151551Y2026630D02*
G03*
X3151551Y2026630I-492J0D01*
G01*
D49*
X3029013Y2252117D02*
G03*
X3029013Y2252117I-1181J0D01*
G01*
Y2146117D02*
G03*
X3029013Y2146117I-1181J0D01*
G01*
Y2040117D02*
G03*
X3029013Y2040117I-1181J0D01*
G01*
Y1934117D02*
G03*
X3029013Y1934117I-1181J0D01*
G01*
X3090389Y2050617D02*
G03*
X3090389Y2050617I-1181J0D01*
G01*
Y2156617D02*
G03*
X3090389Y2156617I-1181J0D01*
G01*
Y2262617D02*
G03*
X3090389Y2262617I-1181J0D01*
G01*
X3240474Y1993409D02*
G03*
X3240474Y1993409I-1181J0D01*
G01*
X3090389Y1944617D02*
G03*
X3090389Y1944617I-1181J0D01*
G01*
D50*
X3238051Y1771940D02*
G03*
X3237450Y1770900I599J-1040D01*
G01*
X3239850D02*
G03*
X3239249Y1771940I-1200J0D01*
G01*
X3232550Y1770900D02*
X3244750D01*
X3232550Y1783100D02*
X3244750D01*
D51*
X3314626Y2291175D02*
Y2295959D01*
X3314783Y2296116D01*
X3288228D02*
X3314783D01*
X3314626Y2223360D02*
Y2228183D01*
Y2223360D02*
X3314744Y2223242D01*
X3288228D02*
X3314744D01*
X3239035Y2291175D02*
Y2296116D01*
X3288228D01*
X3239035Y2223242D02*
X3288228D01*
X3239035D02*
Y2291175D01*
X3314626Y2228183D02*
Y2291175D01*
X3239035Y2234950D02*
X3258701D01*
Y2235010D02*
Y2284883D01*
X3239035Y2285033D02*
X3258701D01*
X3238681Y2210764D02*
X3258347D01*
Y2160742D02*
Y2210615D01*
X3238681Y2160681D02*
X3258347D01*
X3314272Y2153914D02*
Y2216907D01*
X3238681Y2148973D02*
Y2216907D01*
Y2148973D02*
X3287874D01*
X3238681Y2221848D02*
X3287874D01*
X3238681Y2216907D02*
Y2221848D01*
X3287874Y2148973D02*
X3314390D01*
X3314272Y2149092D02*
X3314390Y2148973D01*
X3314272Y2149092D02*
Y2153914D01*
X3287874Y2221848D02*
X3314429D01*
X3314272Y2221690D02*
X3314429Y2221848D01*
X3314272Y2216907D02*
Y2221690D01*
X3314626Y2141595D02*
Y2146378D01*
X3314783Y2146535D01*
X3288228D02*
X3314783D01*
X3314626Y2073779D02*
Y2078602D01*
Y2073779D02*
X3314744Y2073661D01*
X3288228D02*
X3314744D01*
X3239035Y2141595D02*
Y2146535D01*
X3288228D01*
X3239035Y2073661D02*
X3288228D01*
X3239035D02*
Y2141595D01*
X3314626Y2078602D02*
Y2141595D01*
X3239035Y2085369D02*
X3258701D01*
Y2085430D02*
Y2135303D01*
X3239035Y2135452D02*
X3258701D01*
X3048184Y1995053D02*
Y2002927D01*
Y1995053D02*
X3064720D01*
Y2002927D01*
X3048184D02*
X3064720D01*
X3048684Y1982053D02*
Y1989927D01*
Y1982053D02*
X3065220D01*
Y1989927D01*
X3048684D02*
X3065220D01*
X3070079Y2088583D02*
Y2096457D01*
Y2088583D02*
X3086614D01*
Y2096457D01*
X3070079D02*
X3086614D01*
X3069460Y2101053D02*
Y2108927D01*
Y2101053D02*
X3085995D01*
Y2108927D01*
X3069460D02*
X3085995D01*
X3048684Y2088053D02*
Y2095927D01*
Y2088053D02*
X3065220D01*
Y2095927D01*
X3048684D02*
X3065220D01*
X3048184Y2101053D02*
Y2108927D01*
Y2101053D02*
X3064720D01*
Y2108927D01*
X3048184D02*
X3064720D01*
X3069960Y2194053D02*
Y2201927D01*
Y2194053D02*
X3086495D01*
Y2201927D01*
X3069960D02*
X3086495D01*
X3069460Y2207053D02*
Y2214927D01*
Y2207053D02*
X3085995D01*
Y2214927D01*
X3069460D02*
X3085995D01*
X3048684Y2194053D02*
Y2201927D01*
Y2194053D02*
X3065220D01*
Y2201927D01*
X3048684D02*
X3065220D01*
X3048184Y2207053D02*
Y2214927D01*
Y2207053D02*
X3064720D01*
Y2214927D01*
X3048184D02*
X3064720D01*
X3069960Y2300053D02*
Y2307927D01*
Y2300053D02*
X3086495D01*
Y2307927D01*
X3069960D02*
X3086495D01*
X3048684Y2300053D02*
Y2307927D01*
Y2300053D02*
X3065220D01*
Y2307927D01*
X3048684D02*
X3065220D01*
X3034283Y2115053D02*
Y2122927D01*
X3017747D02*
X3034283D01*
X3017747Y2115053D02*
Y2122927D01*
Y2115053D02*
X3034283D01*
Y2009053D02*
Y2016927D01*
X3017747D02*
X3034283D01*
X3017747Y2009053D02*
Y2016927D01*
Y2009053D02*
X3034283D01*
X3069460Y1889053D02*
Y1896927D01*
Y1889053D02*
X3085995D01*
Y1896927D01*
X3069460D02*
X3085995D01*
X3048184Y1889053D02*
Y1896927D01*
Y1889053D02*
X3064720D01*
Y1896927D01*
X3048184D02*
X3064720D01*
X3294622Y1708701D02*
Y1709094D01*
X3289110Y1703189D02*
X3294622Y1708701D01*
X3282811Y1703189D02*
X3289110D01*
X3294622Y1708701D02*
Y1720905D01*
X3289110Y1726417D02*
X3294622Y1720905D01*
X3281630Y1726417D02*
X3289110D01*
X3271000Y1708701D02*
Y1709094D01*
Y1708701D02*
X3276512Y1703189D01*
X3282811D01*
X3271000Y1708701D02*
Y1720905D01*
X3276512Y1726417D01*
X3282417D01*
X3276512D02*
X3282417D01*
X3271000Y1720905D02*
X3276512Y1726417D01*
X3271000Y1708701D02*
Y1720905D01*
X3276512Y1703189D02*
X3282811D01*
X3271000Y1708701D02*
X3276512Y1703189D01*
X3271000Y1708701D02*
Y1709094D01*
X2943406Y1703189D02*
X2943799D01*
X2949311Y1708701D01*
Y1715000D01*
X2931594Y1703189D02*
X2943799D01*
X2926083Y1708701D02*
X2931594Y1703189D01*
X2926083Y1708701D02*
Y1714606D01*
Y1708701D02*
Y1714606D01*
Y1708701D02*
X2931594Y1703189D01*
X2943799D01*
X2949311Y1708701D02*
Y1715000D01*
X2943799Y1703189D02*
X2949311Y1708701D01*
X2943406Y1703189D02*
X2943799D01*
X2926083Y1713819D02*
Y1721299D01*
X2931594Y1726811D01*
X2943799D01*
X2949311Y1715000D02*
Y1721299D01*
X2943799Y1726811D02*
X2949311Y1721299D01*
X2943406Y1726811D02*
X2943799D01*
X2943406Y2319311D02*
X2943799D01*
X2949311Y2313799D01*
Y2307500D02*
Y2313799D01*
X2931594Y2319311D02*
X2943799D01*
X2926083Y2313799D02*
X2931594Y2319311D01*
X2926083Y2306319D02*
Y2313799D01*
X2943406Y2295689D02*
X2943799D01*
X2949311Y2301201D01*
Y2307500D01*
X2931594Y2295689D02*
X2943799D01*
X2926083Y2301201D02*
X2931594Y2295689D01*
X2926083Y2301201D02*
Y2307106D01*
Y2301201D02*
Y2307106D01*
Y2301201D02*
X2931594Y2295689D01*
X2943799D01*
X2949311Y2301201D02*
Y2307500D01*
X2943799Y2295689D02*
X2949311Y2301201D01*
X2943406Y2295689D02*
X2943799D01*
X3288717Y2297511D02*
X3289110D01*
X3294622Y2303023D01*
Y2309322D01*
X3276905Y2297511D02*
X3289110D01*
X3271394Y2303023D02*
X3276905Y2297511D01*
X3271394Y2303023D02*
Y2308928D01*
Y2303023D02*
Y2308928D01*
Y2303023D02*
X3276905Y2297511D01*
X3289110D01*
X3294622Y2303023D02*
Y2309322D01*
X3289110Y2297511D02*
X3294622Y2303023D01*
X3288717Y2297511D02*
X3289110D01*
X3271394Y2308141D02*
Y2315621D01*
X3276905Y2321133D01*
X3289110D01*
X3294622Y2309322D02*
Y2315621D01*
X3289110Y2321133D02*
X3294622Y2315621D01*
X3288717Y2321133D02*
X3289110D01*
X3033305Y1950090D02*
Y1957964D01*
X3016769D02*
X3033305D01*
X3016769Y1950090D02*
Y1957964D01*
Y1950090D02*
X3033305D01*
Y2056090D02*
Y2063964D01*
X3016769D02*
X3033305D01*
X3016769Y2056090D02*
Y2063964D01*
Y2056090D02*
X3033305D01*
Y2162090D02*
Y2169964D01*
X3016769D02*
X3033305D01*
X3016769Y2162090D02*
Y2169964D01*
Y2162090D02*
X3033305D01*
Y2268090D02*
Y2275964D01*
X3016769D02*
X3033305D01*
X3016769Y2268090D02*
Y2275964D01*
Y2268090D02*
X3033305D01*
X3069960Y1982053D02*
Y1989927D01*
Y1982053D02*
X3086495D01*
Y1989927D01*
X3069960D02*
X3086495D01*
X3034283Y1903053D02*
Y1910927D01*
X3017747D02*
X3034283D01*
X3017747Y1903053D02*
Y1910927D01*
Y1903053D02*
X3034283D01*
Y2221053D02*
Y2228927D01*
X3017747D02*
X3034283D01*
X3017747Y2221053D02*
Y2228927D01*
Y2221053D02*
X3034283D01*
X3267500Y2038500D02*
Y2056216D01*
X3293090Y2038500D02*
Y2056216D01*
X3267303Y2035547D02*
X3293681D01*
X3267303Y2059169D02*
X3293287D01*
X3069460Y1995053D02*
Y2002927D01*
Y1995053D02*
X3085995D01*
Y2002927D01*
X3069460D02*
X3085995D01*
X3111916Y1862290D02*
X3111991Y1862366D01*
X3111916Y1861463D02*
Y1862290D01*
X3111991Y1862366D02*
X3160591D01*
X3160593Y1862364D01*
Y1836410D02*
Y1862364D01*
Y1836410D02*
X3160668Y1836334D01*
X3111991D02*
X3160668D01*
X3111916Y1836259D02*
X3111991Y1836334D01*
X3111916Y1836259D02*
Y1861463D01*
X3045669Y2011811D02*
Y2023228D01*
Y2011811D02*
X3047638Y2009842D01*
Y2011417D01*
X3046457Y2009842D02*
X3047638D01*
X3087402Y1979528D02*
X3089370D01*
X3087402D02*
Y1981496D01*
Y1979528D02*
X3088583Y1980709D01*
Y1982677D01*
X3088976Y1983071D01*
X3102362D01*
X3046457Y2083071D02*
Y2094488D01*
Y2083071D02*
X3048425Y2081102D01*
Y2082677D01*
X3047244Y2081102D02*
X3048425D01*
X3045669Y2116535D02*
Y2127953D01*
Y2116535D02*
X3047638Y2114567D01*
Y2116142D01*
X3046457Y2114567D02*
X3047638D01*
X3046063Y2221260D02*
X3047244D01*
Y2222835D01*
X3045276Y2223228D02*
X3047244Y2221260D01*
X3045276Y2223228D02*
Y2234646D01*
X3089764Y2194094D02*
X3090158Y2194488D01*
X3102362D01*
X3087795Y2192126D02*
X3088976D01*
X3087795D02*
Y2193701D01*
Y2192126D02*
Y2193701D01*
Y2192126D02*
X3089764Y2194094D01*
X3264783Y1791862D02*
Y1849028D01*
X3300217D01*
Y1791941D02*
Y1849028D01*
X3264783Y1789972D02*
X3300217D01*
X3264783D02*
Y1791862D01*
X3300217Y1789972D02*
Y1791941D01*
X3195200Y2046155D02*
Y2043400D01*
X3196577D01*
X3197037Y2043859D01*
Y2045696D01*
X3196577Y2046155D01*
X3195200D01*
X3197955Y2043859D02*
X3198414Y2043400D01*
X3199332D01*
X3199792Y2043859D01*
Y2045696D01*
X3199332Y2046155D01*
X3198414D01*
X3197955Y2045696D01*
Y2045237D01*
X3198414Y2044777D01*
X3199792D01*
X3195700Y2028655D02*
Y2025900D01*
X3197078D01*
X3197537Y2026359D01*
Y2028196D01*
X3197078Y2028655D01*
X3195700D01*
X3199833Y2025900D02*
Y2028655D01*
X3198455Y2027278D01*
X3200292D01*
X3202588Y2025900D02*
Y2028655D01*
X3201210Y2027278D01*
X3203047D01*
X3205802Y2028655D02*
X3203965D01*
Y2027278D01*
X3204884Y2027737D01*
X3205342D01*
X3205802Y2027278D01*
Y2026359D01*
X3205342Y2025900D01*
X3204424D01*
X3203965Y2026359D01*
X3141732Y1949213D02*
X3138977D01*
Y1950590D01*
X3139436Y1951049D01*
X3140355D01*
X3140814Y1950590D01*
Y1949213D01*
X3139436Y1951968D02*
X3138977Y1952427D01*
Y1953345D01*
X3139436Y1953804D01*
X3139896D01*
X3140355Y1953345D01*
Y1952886D01*
Y1953345D01*
X3140814Y1953804D01*
X3141273D01*
X3141732Y1953345D01*
Y1952427D01*
X3141273Y1951968D01*
X3139436Y1954723D02*
X3138977Y1955182D01*
Y1956100D01*
X3139436Y1956559D01*
X3141273D01*
X3141732Y1956100D01*
Y1955182D01*
X3141273Y1954723D01*
X3139436D01*
Y1957478D02*
X3138977Y1957937D01*
Y1958855D01*
X3139436Y1959314D01*
X3141273D01*
X3141732Y1958855D01*
Y1957937D01*
X3141273Y1957478D01*
X3139436D01*
Y1960233D02*
X3138977Y1960692D01*
Y1961610D01*
X3139436Y1962069D01*
X3141273D01*
X3141732Y1961610D01*
Y1960692D01*
X3141273Y1960233D01*
X3139436D01*
X3186200Y1861761D02*
Y1859400D01*
X3187381D01*
X3187774Y1859794D01*
Y1861368D01*
X3187381Y1861761D01*
X3186200D01*
X3188561Y1861368D02*
X3188955Y1861761D01*
X3189742D01*
X3190136Y1861368D01*
Y1860974D01*
X3189742Y1860581D01*
X3189349D01*
X3189742D01*
X3190136Y1860187D01*
Y1859794D01*
X3189742Y1859400D01*
X3188955D01*
X3188561Y1859794D01*
X3192497Y1859400D02*
X3190923D01*
X3192497Y1860974D01*
Y1861368D01*
X3192104Y1861761D01*
X3191316D01*
X3190923Y1861368D01*
X3176361Y1778700D02*
X3174000D01*
Y1777126D01*
Y1776339D02*
Y1775551D01*
Y1775945D01*
X3176361D01*
X3175968Y1776339D01*
X3230709Y1807874D02*
Y1810235D01*
X3231889D01*
X3232283Y1809842D01*
Y1809055D01*
X3231889Y1808661D01*
X3230709D01*
X3231496D02*
X3232283Y1807874D01*
X3233464D02*
Y1809842D01*
Y1809055D01*
X3233070D01*
X3233857D01*
X3233464D01*
Y1809842D01*
X3233857Y1810235D01*
X3235038D02*
Y1807874D01*
X3236219D01*
X3236612Y1808268D01*
Y1808661D01*
Y1809055D01*
X3236219Y1809448D01*
X3235038D01*
X3237399Y1807874D02*
X3238187D01*
X3237793D01*
Y1810235D01*
X3237399Y1809842D01*
X3229921Y1796063D02*
Y1798424D01*
X3231102D01*
X3231496Y1798031D01*
Y1797244D01*
X3231102Y1796850D01*
X3229921D01*
X3230708D02*
X3231496Y1796063D01*
X3232676D02*
Y1798031D01*
Y1797244D01*
X3232283D01*
X3233070D01*
X3232676D01*
Y1798031D01*
X3233070Y1798424D01*
X3234251D02*
Y1796063D01*
X3235431D01*
X3235825Y1796457D01*
Y1796850D01*
Y1797244D01*
X3235431Y1797637D01*
X3234251D01*
X3238186Y1796063D02*
X3236612D01*
X3238186Y1797637D01*
Y1798031D01*
X3237793Y1798424D01*
X3237006D01*
X3236612Y1798031D01*
X3226999Y2172160D02*
X3227785D01*
X3227392D01*
Y2169798D01*
X3226999D01*
X3227785D01*
X3228966D02*
Y2172160D01*
X3230540Y2169798D01*
Y2172160D01*
X3231328D02*
Y2170586D01*
X3232115Y2169798D01*
X3232902Y2170586D01*
Y2172160D01*
X3233689Y2169405D02*
X3235263D01*
X3237625Y2171766D02*
X3237231Y2172160D01*
X3236444D01*
X3236050Y2171766D01*
Y2170192D01*
X3236444Y2169798D01*
X3237231D01*
X3237625Y2170192D01*
X3239593Y2172160D02*
X3238806D01*
X3238412Y2171766D01*
Y2170192D01*
X3238806Y2169798D01*
X3239593D01*
X3239986Y2170192D01*
Y2171766D01*
X3239593Y2172160D01*
X3240773Y2169798D02*
Y2172160D01*
X3242348Y2169798D01*
Y2172160D01*
X3243135D02*
X3244709D01*
X3243922D01*
Y2169798D01*
X3245496D02*
Y2172160D01*
X3246677D01*
X3247071Y2171766D01*
Y2170979D01*
X3246677Y2170586D01*
X3245496D01*
X3246283D02*
X3247071Y2169798D01*
X3249038Y2172160D02*
X3248251D01*
X3247858Y2171766D01*
Y2170192D01*
X3248251Y2169798D01*
X3249038D01*
X3249432Y2170192D01*
Y2171766D01*
X3249038Y2172160D01*
X3250219D02*
Y2169798D01*
X3251794D01*
X2961418Y2145669D02*
X2961024Y2145275D01*
Y2144488D01*
X2961418Y2144094D01*
X2961811D01*
X2962205Y2144488D01*
Y2145275D01*
X2962599Y2145669D01*
X2962992D01*
X2963386Y2145275D01*
Y2144488D01*
X2962992Y2144094D01*
X2963386Y2146456D02*
Y2147243D01*
Y2146849D01*
X2961811D01*
Y2146456D01*
X2964173Y2149211D02*
Y2149604D01*
X2963779Y2149998D01*
X2961811D01*
Y2148817D01*
X2962205Y2148424D01*
X2962992D01*
X2963386Y2148817D01*
Y2149998D01*
Y2150785D02*
X2961811D01*
Y2151966D01*
X2962205Y2152360D01*
X2963386D01*
X2961811Y2153540D02*
Y2154327D01*
X2962205Y2154721D01*
X2963386D01*
Y2153540D01*
X2962992Y2153147D01*
X2962599Y2153540D01*
Y2154721D01*
X2963386Y2155508D02*
Y2156295D01*
Y2155902D01*
X2961024D01*
Y2155508D01*
X2963386Y2157476D02*
Y2158657D01*
X2962992Y2159050D01*
X2962599Y2158657D01*
Y2157870D01*
X2962205Y2157476D01*
X2961811Y2157870D01*
Y2159050D01*
X2963779Y2159837D02*
Y2161412D01*
X2961418Y2162199D02*
X2961024Y2162592D01*
Y2163380D01*
X2961418Y2163773D01*
X2961811D01*
X2962205Y2163380D01*
Y2162986D01*
Y2163380D01*
X2962599Y2163773D01*
X2962992D01*
X2963386Y2163380D01*
Y2162592D01*
X2962992Y2162199D01*
X2961024Y2242913D02*
X2960631Y2242519D01*
Y2241732D01*
X2961024Y2241339D01*
X2961418D01*
X2961811Y2241732D01*
Y2242519D01*
X2962205Y2242913D01*
X2962599D01*
X2962992Y2242519D01*
Y2241732D01*
X2962599Y2241339D01*
X2962992Y2243700D02*
Y2244487D01*
Y2244094D01*
X2961418D01*
Y2243700D01*
X2963779Y2246455D02*
Y2246849D01*
X2963386Y2247242D01*
X2961418D01*
Y2246061D01*
X2961811Y2245668D01*
X2962599D01*
X2962992Y2246061D01*
Y2247242D01*
Y2248029D02*
X2961418D01*
Y2249210D01*
X2961811Y2249604D01*
X2962992D01*
X2961418Y2250784D02*
Y2251571D01*
X2961811Y2251965D01*
X2962992D01*
Y2250784D01*
X2962599Y2250391D01*
X2962205Y2250784D01*
Y2251965D01*
X2962992Y2252752D02*
Y2253539D01*
Y2253146D01*
X2960631D01*
Y2252752D01*
X2962992Y2254720D02*
Y2255901D01*
X2962599Y2256294D01*
X2962205Y2255901D01*
Y2255114D01*
X2961811Y2254720D01*
X2961418Y2255114D01*
Y2256294D01*
X2963386Y2257081D02*
Y2258656D01*
X2962992Y2260624D02*
X2960631D01*
X2961811Y2259443D01*
Y2261017D01*
X3068574Y1878468D02*
X3068181Y1878861D01*
X3067394D01*
X3067000Y1878468D01*
Y1876894D01*
X3067394Y1876500D01*
X3068181D01*
X3068574Y1876894D01*
X3069361Y1876500D02*
X3070149D01*
X3069755D01*
Y1878861D01*
X3069361Y1878468D01*
X2983855Y1876948D02*
X2983462Y1877342D01*
X2982675D01*
X2982281Y1876948D01*
Y1875374D01*
X2982675Y1874980D01*
X2983462D01*
X2983855Y1875374D01*
X2986217Y1874980D02*
X2984643D01*
X2986217Y1876555D01*
Y1876948D01*
X2985823Y1877342D01*
X2985036D01*
X2984643Y1876948D01*
X3046456Y1932678D02*
X3046850Y1933071D01*
Y1933858D01*
X3046456Y1934252D01*
X3044882D01*
X3044488Y1933858D01*
Y1933071D01*
X3044882Y1932678D01*
X3046456Y1931890D02*
X3046850Y1931497D01*
Y1930710D01*
X3046456Y1930316D01*
X3046062D01*
X3045669Y1930710D01*
Y1931103D01*
Y1930710D01*
X3045275Y1930316D01*
X3044882D01*
X3044488Y1930710D01*
Y1931497D01*
X3044882Y1931890D01*
X3044488Y1929529D02*
X3044882D01*
Y1929136D01*
X3044488D01*
Y1929529D01*
X3046850Y1927561D02*
X3044488D01*
Y1926381D01*
X3044882Y1925987D01*
X3046456D01*
X3046850Y1926381D01*
Y1927561D01*
Y1925200D02*
Y1923626D01*
Y1924413D01*
X3044488D01*
Y1922838D02*
X3046062D01*
X3046850Y1922051D01*
X3046062Y1921264D01*
X3044488D01*
X3045669D01*
Y1922838D01*
X3046456Y2037796D02*
X3046850Y2038189D01*
Y2038976D01*
X3046456Y2039370D01*
X3044882D01*
X3044488Y2038976D01*
Y2038189D01*
X3044882Y2037796D01*
X3046456Y2037009D02*
X3046850Y2036615D01*
Y2035828D01*
X3046456Y2035434D01*
X3046062D01*
X3045669Y2035828D01*
Y2036222D01*
Y2035828D01*
X3045275Y2035434D01*
X3044882D01*
X3044488Y2035828D01*
Y2036615D01*
X3044882Y2037009D01*
X3044488Y2034647D02*
X3044882D01*
Y2034254D01*
X3044488D01*
Y2034647D01*
X3046850Y2032679D02*
X3044488D01*
Y2031499D01*
X3044882Y2031105D01*
X3046456D01*
X3046850Y2031499D01*
Y2032679D01*
Y2030318D02*
Y2028744D01*
Y2029531D01*
X3044488D01*
X3046850Y2027957D02*
X3044488D01*
Y2026776D01*
X3044882Y2026382D01*
X3045275D01*
X3045669Y2026776D01*
Y2027957D01*
Y2026776D01*
X3046062Y2026382D01*
X3046456D01*
X3046850Y2026776D01*
Y2027957D01*
X3035826Y2149606D02*
X3035433Y2149999D01*
X3034645D01*
X3034252Y2149606D01*
Y2148031D01*
X3034645Y2147638D01*
X3035433D01*
X3035826Y2148031D01*
X3036613Y2149606D02*
X3037007Y2149999D01*
X3037794D01*
X3038188Y2149606D01*
Y2149212D01*
X3037794Y2148819D01*
X3037401D01*
X3037794D01*
X3038188Y2148425D01*
Y2148031D01*
X3037794Y2147638D01*
X3037007D01*
X3036613Y2148031D01*
X3038975Y2147638D02*
Y2148031D01*
X3039368D01*
Y2147638D01*
X3038975D01*
X3040943Y2149999D02*
Y2147638D01*
X3042123D01*
X3042517Y2148031D01*
Y2149606D01*
X3042123Y2149999D01*
X3040943D01*
X3043304D02*
X3044878D01*
X3044091D01*
Y2147638D01*
X3047240Y2149606D02*
X3046846Y2149999D01*
X3046059D01*
X3045666Y2149606D01*
Y2148031D01*
X3046059Y2147638D01*
X3046846D01*
X3047240Y2148031D01*
X3046456Y2249607D02*
X3046850Y2250000D01*
Y2250788D01*
X3046456Y2251181D01*
X3044882D01*
X3044488Y2250788D01*
Y2250000D01*
X3044882Y2249607D01*
X3046456Y2248820D02*
X3046850Y2248426D01*
Y2247639D01*
X3046456Y2247245D01*
X3046062D01*
X3045669Y2247639D01*
Y2248033D01*
Y2247639D01*
X3045275Y2247245D01*
X3044882D01*
X3044488Y2247639D01*
Y2248426D01*
X3044882Y2248820D01*
X3044488Y2246458D02*
X3044882D01*
Y2246065D01*
X3044488D01*
Y2246458D01*
X3046850Y2244490D02*
X3044488D01*
Y2243310D01*
X3044882Y2242916D01*
X3046456D01*
X3046850Y2243310D01*
Y2244490D01*
Y2242129D02*
Y2240555D01*
Y2241342D01*
X3044488D01*
X3046850Y2239767D02*
X3044488D01*
Y2238587D01*
X3044882Y2238193D01*
X3046456D01*
X3046850Y2238587D01*
Y2239767D01*
X3108661Y1947245D02*
X3109054Y1947638D01*
Y1948425D01*
X3108661Y1948819D01*
X3107087D01*
X3106693Y1948425D01*
Y1947638D01*
X3107087Y1947245D01*
X3106693Y1945277D02*
X3109054D01*
X3107874Y1946457D01*
Y1944883D01*
X3106693Y1944096D02*
X3107087D01*
Y1943702D01*
X3106693D01*
Y1944096D01*
X3109054Y1942128D02*
X3106693D01*
Y1940947D01*
X3107087Y1940554D01*
X3108661D01*
X3109054Y1940947D01*
Y1942128D01*
Y1939767D02*
Y1938192D01*
Y1938980D01*
X3106693D01*
Y1937405D02*
X3108267D01*
X3109054Y1936618D01*
X3108267Y1935831D01*
X3106693D01*
X3107874D01*
Y1937405D01*
X3107873Y2052756D02*
X3108267Y2053150D01*
Y2053937D01*
X3107873Y2054331D01*
X3106299D01*
X3105906Y2053937D01*
Y2053150D01*
X3106299Y2052756D01*
X3105906Y2050789D02*
X3108267D01*
X3107086Y2051969D01*
Y2050395D01*
X3105906Y2049608D02*
X3106299D01*
Y2049214D01*
X3105906D01*
Y2049608D01*
X3108267Y2047640D02*
X3105906D01*
Y2046459D01*
X3106299Y2046066D01*
X3107873D01*
X3108267Y2046459D01*
Y2047640D01*
Y2045279D02*
Y2043704D01*
Y2044491D01*
X3105906D01*
X3108267Y2042917D02*
X3105906D01*
Y2041736D01*
X3106299Y2041343D01*
X3106693D01*
X3107086Y2041736D01*
Y2042917D01*
Y2041736D01*
X3107480Y2041343D01*
X3107873D01*
X3108267Y2041736D01*
Y2042917D01*
X3108661Y2158662D02*
X3109054Y2159056D01*
Y2159843D01*
X3108661Y2160236D01*
X3107087D01*
X3106693Y2159843D01*
Y2159056D01*
X3107087Y2158662D01*
X3106693Y2156694D02*
X3109054D01*
X3107874Y2157875D01*
Y2156301D01*
X3106693Y2155513D02*
X3107087D01*
Y2155120D01*
X3106693D01*
Y2155513D01*
X3109054Y2153546D02*
X3106693D01*
Y2152365D01*
X3107087Y2151971D01*
X3108661D01*
X3109054Y2152365D01*
Y2153546D01*
Y2151184D02*
Y2149610D01*
Y2150397D01*
X3106693D01*
X3108661Y2147248D02*
X3109054Y2147642D01*
Y2148429D01*
X3108661Y2148823D01*
X3107087D01*
X3106693Y2148429D01*
Y2147642D01*
X3107087Y2147248D01*
X3110008Y2265995D02*
X3110402Y2266389D01*
Y2267176D01*
X3110008Y2267569D01*
X3108434D01*
X3108040Y2267176D01*
Y2266389D01*
X3108434Y2265995D01*
X3108040Y2264027D02*
X3110402D01*
X3109221Y2265208D01*
Y2263634D01*
X3108040Y2262846D02*
X3108434D01*
Y2262453D01*
X3108040D01*
Y2262846D01*
X3110402Y2260879D02*
X3108040D01*
Y2259698D01*
X3108434Y2259304D01*
X3110008D01*
X3110402Y2259698D01*
Y2260879D01*
Y2258517D02*
Y2256943D01*
Y2257730D01*
X3108040D01*
X3110402Y2256156D02*
X3108040D01*
Y2254975D01*
X3108434Y2254581D01*
X3110008D01*
X3110402Y2254975D01*
Y2256156D01*
X3044883Y1949212D02*
X3044489Y1948819D01*
Y1948031D01*
X3044883Y1947638D01*
X3046457D01*
X3046850Y1948031D01*
Y1948819D01*
X3046457Y1949212D01*
X3044489Y1951574D02*
Y1949999D01*
X3045670D01*
X3045276Y1950786D01*
Y1951180D01*
X3045670Y1951574D01*
X3046457D01*
X3046850Y1951180D01*
Y1950393D01*
X3046457Y1949999D01*
X3046850Y1952361D02*
X3046457D01*
Y1952754D01*
X3046850D01*
Y1952361D01*
X3044489Y1954329D02*
X3046850D01*
Y1955509D01*
X3046457Y1955903D01*
X3044883D01*
X3044489Y1955509D01*
Y1954329D01*
Y1956690D02*
Y1958264D01*
Y1957477D01*
X3046850D01*
Y1959051D02*
X3045276D01*
X3044489Y1959839D01*
X3045276Y1960626D01*
X3046850D01*
X3045670D01*
Y1959051D01*
X3044883Y2055118D02*
X3044489Y2054724D01*
Y2053937D01*
X3044883Y2053543D01*
X3046457D01*
X3046850Y2053937D01*
Y2054724D01*
X3046457Y2055118D01*
X3044489Y2057479D02*
Y2055905D01*
X3045670D01*
X3045276Y2056692D01*
Y2057085D01*
X3045670Y2057479D01*
X3046457D01*
X3046850Y2057085D01*
Y2056298D01*
X3046457Y2055905D01*
X3046850Y2058266D02*
X3046457D01*
Y2058660D01*
X3046850D01*
Y2058266D01*
X3044489Y2060234D02*
X3046850D01*
Y2061415D01*
X3046457Y2061808D01*
X3044883D01*
X3044489Y2061415D01*
Y2060234D01*
Y2062596D02*
Y2064170D01*
Y2063383D01*
X3046850D01*
X3044489Y2064957D02*
X3046850D01*
Y2066138D01*
X3046457Y2066531D01*
X3046063D01*
X3045670Y2066138D01*
Y2064957D01*
Y2066138D01*
X3045276Y2066531D01*
X3044883D01*
X3044489Y2066138D01*
Y2064957D01*
X3044883Y2161023D02*
X3044489Y2160629D01*
Y2159842D01*
X3044883Y2159449D01*
X3046457D01*
X3046850Y2159842D01*
Y2160629D01*
X3046457Y2161023D01*
X3044489Y2163384D02*
Y2161810D01*
X3045670D01*
X3045276Y2162597D01*
Y2162991D01*
X3045670Y2163384D01*
X3046457D01*
X3046850Y2162991D01*
Y2162204D01*
X3046457Y2161810D01*
X3046850Y2164172D02*
X3046457D01*
Y2164565D01*
X3046850D01*
Y2164172D01*
X3044489Y2166140D02*
X3046850D01*
Y2167320D01*
X3046457Y2167714D01*
X3044883D01*
X3044489Y2167320D01*
Y2166140D01*
Y2168501D02*
Y2170075D01*
Y2169288D01*
X3046850D01*
X3044883Y2172437D02*
X3044489Y2172043D01*
Y2171256D01*
X3044883Y2170862D01*
X3046457D01*
X3046850Y2171256D01*
Y2172043D01*
X3046457Y2172437D01*
X3044883Y2266141D02*
X3044489Y2265748D01*
Y2264960D01*
X3044883Y2264567D01*
X3046457D01*
X3046850Y2264960D01*
Y2265748D01*
X3046457Y2266141D01*
X3044489Y2268503D02*
Y2266928D01*
X3045670D01*
X3045276Y2267715D01*
Y2268109D01*
X3045670Y2268503D01*
X3046457D01*
X3046850Y2268109D01*
Y2267322D01*
X3046457Y2266928D01*
X3046850Y2269290D02*
X3046457D01*
Y2269683D01*
X3046850D01*
Y2269290D01*
X3044489Y2271258D02*
X3046850D01*
Y2272438D01*
X3046457Y2272832D01*
X3044883D01*
X3044489Y2272438D01*
Y2271258D01*
Y2273619D02*
Y2275193D01*
Y2274406D01*
X3046850D01*
X3044489Y2275981D02*
X3046850D01*
Y2277161D01*
X3046457Y2277555D01*
X3044883D01*
X3044489Y2277161D01*
Y2275981D01*
X2998818Y1961023D02*
X2998425Y1961417D01*
X2997638D01*
X2997244Y1961023D01*
Y1959449D01*
X2997638Y1959055D01*
X2998425D01*
X2998818Y1959449D01*
X3001180Y1961417D02*
X3000393Y1961023D01*
X2999606Y1960236D01*
Y1959449D01*
X2999999Y1959055D01*
X3000786D01*
X3001180Y1959449D01*
Y1959842D01*
X3000786Y1960236D01*
X2999606D01*
X3001967Y1959055D02*
Y1959449D01*
X3002361D01*
Y1959055D01*
X3001967D01*
X3003935Y1961417D02*
Y1959055D01*
X3005116D01*
X3005509Y1959449D01*
Y1961023D01*
X3005116Y1961417D01*
X3003935D01*
X3006296D02*
X3007871D01*
X3007083D01*
Y1959055D01*
X3008658D02*
Y1960629D01*
X3009445Y1961417D01*
X3010232Y1960629D01*
Y1959055D01*
Y1960236D01*
X3008658D01*
X2997874Y2068268D02*
X2997481Y2068661D01*
X2996694D01*
X2996300Y2068268D01*
Y2066694D01*
X2996694Y2066300D01*
X2997481D01*
X2997874Y2066694D01*
X3000236Y2068661D02*
X2999449Y2068268D01*
X2998661Y2067481D01*
Y2066694D01*
X2999055Y2066300D01*
X2999842D01*
X3000236Y2066694D01*
Y2067087D01*
X2999842Y2067481D01*
X2998661D01*
X3001023Y2066300D02*
Y2066694D01*
X3001416D01*
Y2066300D01*
X3001023D01*
X3002991Y2068661D02*
Y2066300D01*
X3004172D01*
X3004565Y2066694D01*
Y2068268D01*
X3004172Y2068661D01*
X3002991D01*
X3005352D02*
X3006927D01*
X3006139D01*
Y2066300D01*
X3007714Y2068661D02*
Y2066300D01*
X3008894D01*
X3009288Y2066694D01*
Y2067087D01*
X3008894Y2067481D01*
X3007714D01*
X3008894D01*
X3009288Y2067874D01*
Y2068268D01*
X3008894Y2068661D01*
X3007714D01*
X2997874Y2174268D02*
X2997481Y2174661D01*
X2996694D01*
X2996300Y2174268D01*
Y2172694D01*
X2996694Y2172300D01*
X2997481D01*
X2997874Y2172694D01*
X3000236Y2174661D02*
X2999449Y2174268D01*
X2998661Y2173481D01*
Y2172694D01*
X2999055Y2172300D01*
X2999842D01*
X3000236Y2172694D01*
Y2173087D01*
X2999842Y2173481D01*
X2998661D01*
X3001023Y2172300D02*
Y2172694D01*
X3001416D01*
Y2172300D01*
X3001023D01*
X3002991Y2174661D02*
Y2172300D01*
X3004172D01*
X3004565Y2172694D01*
Y2174268D01*
X3004172Y2174661D01*
X3002991D01*
X3005352D02*
X3006927D01*
X3006139D01*
Y2172300D01*
X3009288Y2174268D02*
X3008894Y2174661D01*
X3008107D01*
X3007714Y2174268D01*
Y2172694D01*
X3008107Y2172300D01*
X3008894D01*
X3009288Y2172694D01*
X2997874Y2280268D02*
X2997481Y2280661D01*
X2996694D01*
X2996300Y2280268D01*
Y2278694D01*
X2996694Y2278300D01*
X2997481D01*
X2997874Y2278694D01*
X3000236Y2280661D02*
X2999449Y2280268D01*
X2998661Y2279481D01*
Y2278694D01*
X2999055Y2278300D01*
X2999842D01*
X3000236Y2278694D01*
Y2279087D01*
X2999842Y2279481D01*
X2998661D01*
X3001023Y2278300D02*
Y2278694D01*
X3001416D01*
Y2278300D01*
X3001023D01*
X3002991Y2280661D02*
Y2278300D01*
X3004172D01*
X3004565Y2278694D01*
Y2280268D01*
X3004172Y2280661D01*
X3002991D01*
X3005352D02*
X3006927D01*
X3006139D01*
Y2278300D01*
X3007714Y2280661D02*
Y2278300D01*
X3008894D01*
X3009288Y2278694D01*
Y2280268D01*
X3008894Y2280661D01*
X3007714D01*
X3057873Y1933859D02*
X3058267Y1934252D01*
Y1935040D01*
X3057873Y1935433D01*
X3056299D01*
X3055906Y1935040D01*
Y1934252D01*
X3056299Y1933859D01*
X3058267Y1933072D02*
Y1931497D01*
X3057873D01*
X3056299Y1933072D01*
X3055906D01*
Y1930710D02*
X3056299D01*
Y1930317D01*
X3055906D01*
Y1930710D01*
X3058267Y1928742D02*
X3055906D01*
Y1927562D01*
X3056299Y1927168D01*
X3057873D01*
X3058267Y1927562D01*
Y1928742D01*
Y1926381D02*
Y1924807D01*
Y1925594D01*
X3055906D01*
Y1924019D02*
X3057480D01*
X3058267Y1923232D01*
X3057480Y1922445D01*
X3055906D01*
X3057086D01*
Y1924019D01*
X3058661Y2039764D02*
X3059054Y2040158D01*
Y2040945D01*
X3058661Y2041339D01*
X3057087D01*
X3056693Y2040945D01*
Y2040158D01*
X3057087Y2039764D01*
X3059054Y2038977D02*
Y2037403D01*
X3058661D01*
X3057087Y2038977D01*
X3056693D01*
Y2036616D02*
X3057087D01*
Y2036222D01*
X3056693D01*
Y2036616D01*
X3059054Y2034648D02*
X3056693D01*
Y2033467D01*
X3057087Y2033073D01*
X3058661D01*
X3059054Y2033467D01*
Y2034648D01*
Y2032286D02*
Y2030712D01*
Y2031499D01*
X3056693D01*
X3059054Y2029925D02*
X3056693D01*
Y2028744D01*
X3057087Y2028351D01*
X3057480D01*
X3057874Y2028744D01*
Y2029925D01*
Y2028744D01*
X3058267Y2028351D01*
X3058661D01*
X3059054Y2028744D01*
Y2029925D01*
X3058267Y2147245D02*
X3058661Y2147638D01*
Y2148425D01*
X3058267Y2148819D01*
X3056693D01*
X3056299Y2148425D01*
Y2147638D01*
X3056693Y2147245D01*
X3058661Y2146457D02*
Y2144883D01*
X3058267D01*
X3056693Y2146457D01*
X3056299D01*
Y2144096D02*
X3056693D01*
Y2143702D01*
X3056299D01*
Y2144096D01*
X3058661Y2142128D02*
X3056299D01*
Y2140947D01*
X3056693Y2140554D01*
X3058267D01*
X3058661Y2140947D01*
Y2142128D01*
Y2139767D02*
Y2138192D01*
Y2138980D01*
X3056299D01*
X3058267Y2135831D02*
X3058661Y2136225D01*
Y2137012D01*
X3058267Y2137405D01*
X3056693D01*
X3056299Y2137012D01*
Y2136225D01*
X3056693Y2135831D01*
X3058661Y2251575D02*
X3059054Y2251969D01*
Y2252756D01*
X3058661Y2253150D01*
X3057087D01*
X3056693Y2252756D01*
Y2251969D01*
X3057087Y2251575D01*
X3059054Y2250788D02*
Y2249214D01*
X3058661D01*
X3057087Y2250788D01*
X3056693D01*
Y2248427D02*
X3057087D01*
Y2248033D01*
X3056693D01*
Y2248427D01*
X3059054Y2246459D02*
X3056693D01*
Y2245278D01*
X3057087Y2244885D01*
X3058661D01*
X3059054Y2245278D01*
Y2246459D01*
Y2244097D02*
Y2242523D01*
Y2243310D01*
X3056693D01*
X3059054Y2241736D02*
X3056693D01*
Y2240555D01*
X3057087Y2240162D01*
X3058661D01*
X3059054Y2240555D01*
Y2241736D01*
X3143285Y2053368D02*
X3142892Y2053761D01*
X3142104D01*
X3141711Y2053368D01*
Y2051794D01*
X3142104Y2051400D01*
X3142892D01*
X3143285Y2051794D01*
X3144072Y2053368D02*
X3144466Y2053761D01*
X3145253D01*
X3145646Y2053368D01*
Y2052974D01*
X3145253Y2052581D01*
X3144859D01*
X3145253D01*
X3145646Y2052187D01*
Y2051794D01*
X3145253Y2051400D01*
X3144466D01*
X3144072Y2051794D01*
X3148008Y2053761D02*
X3146434D01*
Y2052581D01*
X3147221Y2052974D01*
X3147614D01*
X3148008Y2052581D01*
Y2051794D01*
X3147614Y2051400D01*
X3146827D01*
X3146434Y2051794D01*
X3137074Y2127868D02*
X3136681Y2128261D01*
X3135894D01*
X3135500Y2127868D01*
Y2126294D01*
X3135894Y2125900D01*
X3136681D01*
X3137074Y2126294D01*
X3137861Y2127868D02*
X3138255Y2128261D01*
X3139042D01*
X3139436Y2127868D01*
Y2127474D01*
X3139042Y2127081D01*
X3138649D01*
X3139042D01*
X3139436Y2126687D01*
Y2126294D01*
X3139042Y2125900D01*
X3138255D01*
X3137861Y2126294D01*
X3141797Y2128261D02*
X3141010Y2127868D01*
X3140223Y2127081D01*
Y2126294D01*
X3140616Y2125900D01*
X3141404D01*
X3141797Y2126294D01*
Y2126687D01*
X3141404Y2127081D01*
X3140223D01*
X3225574Y2014368D02*
X3225181Y2014761D01*
X3224393D01*
X3224000Y2014368D01*
Y2012794D01*
X3224393Y2012400D01*
X3225181D01*
X3225574Y2012794D01*
X3226361Y2014368D02*
X3226755Y2014761D01*
X3227542D01*
X3227936Y2014368D01*
Y2013974D01*
X3227542Y2013581D01*
X3227148D01*
X3227542D01*
X3227936Y2013187D01*
Y2012794D01*
X3227542Y2012400D01*
X3226755D01*
X3226361Y2012794D01*
X3228723Y2014761D02*
X3230297D01*
Y2014368D01*
X3228723Y2012794D01*
Y2012400D01*
X3131890Y2182283D02*
X3131497Y2181889D01*
Y2181102D01*
X3131890Y2180709D01*
X3133465D01*
X3133858Y2181102D01*
Y2181889D01*
X3133465Y2182283D01*
X3131890Y2183070D02*
X3131497Y2183464D01*
Y2184251D01*
X3131890Y2184644D01*
X3132284D01*
X3132677Y2184251D01*
Y2183857D01*
Y2184251D01*
X3133071Y2184644D01*
X3133465D01*
X3133858Y2184251D01*
Y2183464D01*
X3133465Y2183070D01*
X3131890Y2185431D02*
X3131497Y2185825D01*
Y2186612D01*
X3131890Y2187006D01*
X3132284D01*
X3132677Y2186612D01*
X3133071Y2187006D01*
X3133465D01*
X3133858Y2186612D01*
Y2185825D01*
X3133465Y2185431D01*
X3133071D01*
X3132677Y2185825D01*
X3132284Y2185431D01*
X3131890D01*
X3132677Y2185825D02*
Y2186612D01*
X3248425Y1968897D02*
X3248031Y1969291D01*
X3247244D01*
X3246851Y1968897D01*
Y1967323D01*
X3247244Y1966929D01*
X3248031D01*
X3248425Y1967323D01*
X3249212Y1968897D02*
X3249606Y1969291D01*
X3250393D01*
X3250786Y1968897D01*
Y1968503D01*
X3250393Y1968110D01*
X3249999D01*
X3250393D01*
X3250786Y1967716D01*
Y1967323D01*
X3250393Y1966929D01*
X3249606D01*
X3249212Y1967323D01*
X3251573D02*
X3251967Y1966929D01*
X3252754D01*
X3253148Y1967323D01*
Y1968897D01*
X3252754Y1969291D01*
X3251967D01*
X3251573Y1968897D01*
Y1968503D01*
X3251967Y1968110D01*
X3253148D01*
X3130709Y2257086D02*
X3130316Y2256693D01*
Y2255905D01*
X3130709Y2255512D01*
X3132284D01*
X3132677Y2255905D01*
Y2256693D01*
X3132284Y2257086D01*
X3132677Y2259054D02*
X3130316D01*
X3131496Y2257873D01*
Y2259447D01*
X3130709Y2260235D02*
X3130316Y2260628D01*
Y2261415D01*
X3130709Y2261809D01*
X3132284D01*
X3132677Y2261415D01*
Y2260628D01*
X3132284Y2260235D01*
X3130709D01*
X3044094Y1879921D02*
Y1877559D01*
X3045275D01*
X3045669Y1877953D01*
Y1879527D01*
X3045275Y1879921D01*
X3044094D01*
X3046456Y1877559D02*
X3047243D01*
X3046849D01*
Y1879921D01*
X3046456Y1879527D01*
X3043701Y1867322D02*
Y1864961D01*
X3044881D01*
X3045275Y1865354D01*
Y1866928D01*
X3044881Y1867322D01*
X3043701D01*
X3047636Y1864961D02*
X3046062D01*
X3047636Y1866535D01*
Y1866928D01*
X3047243Y1867322D01*
X3046456D01*
X3046062Y1866928D01*
X2951181Y1879133D02*
Y1876772D01*
X2952362D01*
X2952755Y1877165D01*
Y1878740D01*
X2952362Y1879133D01*
X2951181D01*
X2953543Y1878740D02*
X2953936Y1879133D01*
X2954723D01*
X2955117Y1878740D01*
Y1878346D01*
X2954723Y1877952D01*
X2954330D01*
X2954723D01*
X2955117Y1877559D01*
Y1877165D01*
X2954723Y1876772D01*
X2953936D01*
X2953543Y1877165D01*
X2949800Y1867961D02*
Y1865600D01*
X2950981D01*
X2951374Y1865994D01*
Y1867568D01*
X2950981Y1867961D01*
X2949800D01*
X2953342Y1865600D02*
Y1867961D01*
X2952161Y1866781D01*
X2953736D01*
X3085039Y1959056D02*
Y1961417D01*
X3083859D01*
X3083465Y1961024D01*
Y1959450D01*
X3083859Y1959056D01*
X3085039D01*
X3081104D02*
X3082678D01*
Y1960237D01*
X3081891Y1959843D01*
X3081497D01*
X3081104Y1960237D01*
Y1961024D01*
X3081497Y1961417D01*
X3082284D01*
X3082678Y1961024D01*
X3080317Y1961417D02*
Y1961024D01*
X3079923D01*
Y1961417D01*
X3080317D01*
X3078349Y1959056D02*
Y1961417D01*
X3077168D01*
X3076774Y1961024D01*
Y1959450D01*
X3077168Y1959056D01*
X3078349D01*
X3075987D02*
X3074413D01*
X3075200D01*
Y1961417D01*
X3073626D02*
Y1959843D01*
X3072839Y1959056D01*
X3072051Y1959843D01*
Y1961417D01*
Y1960237D01*
X3073626D01*
X3084252Y2065560D02*
Y2067922D01*
X3083071D01*
X3082678Y2067528D01*
Y2065954D01*
X3083071Y2065560D01*
X3084252D01*
X3080316D02*
X3081890D01*
Y2066741D01*
X3081103Y2066348D01*
X3080710D01*
X3080316Y2066741D01*
Y2067528D01*
X3080710Y2067922D01*
X3081497D01*
X3081890Y2067528D01*
X3079529Y2067922D02*
Y2067528D01*
X3079136D01*
Y2067922D01*
X3079529D01*
X3077561Y2065560D02*
Y2067922D01*
X3076381D01*
X3075987Y2067528D01*
Y2065954D01*
X3076381Y2065560D01*
X3077561D01*
X3075200D02*
X3073626D01*
X3074413D01*
Y2067922D01*
X3072838Y2065560D02*
Y2067922D01*
X3071658D01*
X3071264Y2067528D01*
Y2067135D01*
X3071658Y2066741D01*
X3072838D01*
X3071658D01*
X3071264Y2066348D01*
Y2065954D01*
X3071658Y2065560D01*
X3072838D01*
X3083858Y2171654D02*
Y2174016D01*
X3082677D01*
X3082284Y2173622D01*
Y2172048D01*
X3082677Y2171654D01*
X3083858D01*
X3079922D02*
X3081497D01*
Y2172835D01*
X3080710Y2172441D01*
X3080316D01*
X3079922Y2172835D01*
Y2173622D01*
X3080316Y2174016D01*
X3081103D01*
X3081497Y2173622D01*
X3079135Y2174016D02*
Y2173622D01*
X3078742D01*
Y2174016D01*
X3079135D01*
X3077168Y2171654D02*
Y2174016D01*
X3075987D01*
X3075593Y2173622D01*
Y2172048D01*
X3075987Y2171654D01*
X3077168D01*
X3074806D02*
X3073232D01*
X3074019D01*
Y2174016D01*
X3070870Y2172048D02*
X3071264Y2171654D01*
X3072051D01*
X3072445Y2172048D01*
Y2173622D01*
X3072051Y2174016D01*
X3071264D01*
X3070870Y2173622D01*
X3085433Y2277560D02*
Y2279921D01*
X3084252D01*
X3083859Y2279528D01*
Y2277953D01*
X3084252Y2277560D01*
X3085433D01*
X3081497D02*
X3083072D01*
Y2278741D01*
X3082285Y2278347D01*
X3081891D01*
X3081497Y2278741D01*
Y2279528D01*
X3081891Y2279921D01*
X3082678D01*
X3083072Y2279528D01*
X3080710Y2279921D02*
Y2279528D01*
X3080317D01*
Y2279921D01*
X3080710D01*
X3078742Y2277560D02*
Y2279921D01*
X3077562D01*
X3077168Y2279528D01*
Y2277953D01*
X3077562Y2277560D01*
X3078742D01*
X3076381D02*
X3074807D01*
X3075594D01*
Y2279921D01*
X3074019Y2277560D02*
Y2279921D01*
X3072839D01*
X3072445Y2279528D01*
Y2277953D01*
X3072839Y2277560D01*
X3074019D01*
X2997244Y1974015D02*
Y1971654D01*
X2998425D01*
X2998818Y1972047D01*
Y1973621D01*
X2998425Y1974015D01*
X2997244D01*
X3001180D02*
X3000393Y1973621D01*
X2999606Y1972834D01*
Y1972047D01*
X2999999Y1971654D01*
X3000786D01*
X3001180Y1972047D01*
Y1972441D01*
X3000786Y1972834D01*
X2999606D01*
X3001967Y1971654D02*
Y1972047D01*
X3002361D01*
Y1971654D01*
X3001967D01*
X3003935Y1974015D02*
Y1971654D01*
X3005116D01*
X3005509Y1972047D01*
Y1973621D01*
X3005116Y1974015D01*
X3003935D01*
X3006296D02*
X3007871D01*
X3007083D01*
Y1971654D01*
X3008658D02*
Y1973228D01*
X3009445Y1974015D01*
X3010232Y1973228D01*
Y1971654D01*
Y1972834D01*
X3008658D01*
X2994800Y2081161D02*
Y2078800D01*
X2995981D01*
X2996374Y2079194D01*
Y2080768D01*
X2995981Y2081161D01*
X2994800D01*
X2998736D02*
X2997949Y2080768D01*
X2997161Y2079981D01*
Y2079194D01*
X2997555Y2078800D01*
X2998342D01*
X2998736Y2079194D01*
Y2079587D01*
X2998342Y2079981D01*
X2997161D01*
X2999523Y2078800D02*
Y2079194D01*
X2999916D01*
Y2078800D01*
X2999523D01*
X3001491Y2081161D02*
Y2078800D01*
X3002671D01*
X3003065Y2079194D01*
Y2080768D01*
X3002671Y2081161D01*
X3001491D01*
X3003852D02*
X3005426D01*
X3004639D01*
Y2078800D01*
X3006214Y2081161D02*
Y2078800D01*
X3007394D01*
X3007788Y2079194D01*
Y2079587D01*
X3007394Y2079981D01*
X3006214D01*
X3007394D01*
X3007788Y2080374D01*
Y2080768D01*
X3007394Y2081161D01*
X3006214D01*
X2994882Y2186220D02*
Y2183858D01*
X2996063D01*
X2996456Y2184252D01*
Y2185826D01*
X2996063Y2186220D01*
X2994882D01*
X2998818D02*
X2998030Y2185826D01*
X2997243Y2185039D01*
Y2184252D01*
X2997637Y2183858D01*
X2998424D01*
X2998818Y2184252D01*
Y2184645D01*
X2998424Y2185039D01*
X2997243D01*
X2999605Y2183858D02*
Y2184252D01*
X2999998D01*
Y2183858D01*
X2999605D01*
X3001573Y2186220D02*
Y2183858D01*
X3002753D01*
X3003147Y2184252D01*
Y2185826D01*
X3002753Y2186220D01*
X3001573D01*
X3003934D02*
X3005508D01*
X3004721D01*
Y2183858D01*
X3007870Y2185826D02*
X3007476Y2186220D01*
X3006689D01*
X3006296Y2185826D01*
Y2184252D01*
X3006689Y2183858D01*
X3007476D01*
X3007870Y2184252D01*
X2994800Y2293161D02*
Y2290800D01*
X2995981D01*
X2996374Y2291194D01*
Y2292768D01*
X2995981Y2293161D01*
X2994800D01*
X2998736D02*
X2997949Y2292768D01*
X2997161Y2291981D01*
Y2291194D01*
X2997555Y2290800D01*
X2998342D01*
X2998736Y2291194D01*
Y2291587D01*
X2998342Y2291981D01*
X2997161D01*
X2999523Y2290800D02*
Y2291194D01*
X2999916D01*
Y2290800D01*
X2999523D01*
X3001491Y2293161D02*
Y2290800D01*
X3002671D01*
X3003065Y2291194D01*
Y2292768D01*
X3002671Y2293161D01*
X3001491D01*
X3003852D02*
X3005426D01*
X3004639D01*
Y2290800D01*
X3006214Y2293161D02*
Y2290800D01*
X3007394D01*
X3007788Y2291194D01*
Y2292768D01*
X3007394Y2293161D01*
X3006214D01*
X2996850Y1985826D02*
Y1983465D01*
X2998031D01*
X2998425Y1983858D01*
Y1985432D01*
X2998031Y1985826D01*
X2996850D01*
X2999212D02*
X3000786D01*
Y1985432D01*
X2999212Y1983858D01*
Y1983465D01*
X3001573D02*
Y1983858D01*
X3001967D01*
Y1983465D01*
X3001573D01*
X3003541Y1985826D02*
Y1983465D01*
X3004722D01*
X3005115Y1983858D01*
Y1985432D01*
X3004722Y1985826D01*
X3003541D01*
X3005903D02*
X3007477D01*
X3006690D01*
Y1983465D01*
X3008264D02*
Y1985039D01*
X3009051Y1985826D01*
X3009838Y1985039D01*
Y1983465D01*
Y1984645D01*
X3008264D01*
X2994800Y2092961D02*
Y2090600D01*
X2995981D01*
X2996374Y2090994D01*
Y2092568D01*
X2995981Y2092961D01*
X2994800D01*
X2997161D02*
X2998736D01*
Y2092568D01*
X2997161Y2090994D01*
Y2090600D01*
X2999523D02*
Y2090994D01*
X2999916D01*
Y2090600D01*
X2999523D01*
X3001491Y2092961D02*
Y2090600D01*
X3002671D01*
X3003065Y2090994D01*
Y2092568D01*
X3002671Y2092961D01*
X3001491D01*
X3003852D02*
X3005426D01*
X3004639D01*
Y2090600D01*
X3006214Y2092961D02*
Y2090600D01*
X3007394D01*
X3007788Y2090994D01*
Y2091387D01*
X3007394Y2091781D01*
X3006214D01*
X3007394D01*
X3007788Y2092174D01*
Y2092568D01*
X3007394Y2092961D01*
X3006214D01*
X2994800Y2198961D02*
Y2196600D01*
X2995981D01*
X2996374Y2196994D01*
Y2198568D01*
X2995981Y2198961D01*
X2994800D01*
X2997161D02*
X2998736D01*
Y2198568D01*
X2997161Y2196994D01*
Y2196600D01*
X2999523D02*
Y2196994D01*
X2999916D01*
Y2196600D01*
X2999523D01*
X3001491Y2198961D02*
Y2196600D01*
X3002671D01*
X3003065Y2196994D01*
Y2198568D01*
X3002671Y2198961D01*
X3001491D01*
X3003852D02*
X3005426D01*
X3004639D01*
Y2196600D01*
X3007788Y2198568D02*
X3007394Y2198961D01*
X3006607D01*
X3006214Y2198568D01*
Y2196994D01*
X3006607Y2196600D01*
X3007394D01*
X3007788Y2196994D01*
X2994800Y2304961D02*
Y2302600D01*
X2995981D01*
X2996374Y2302994D01*
Y2304568D01*
X2995981Y2304961D01*
X2994800D01*
X2997161D02*
X2998736D01*
Y2304568D01*
X2997161Y2302994D01*
Y2302600D01*
X2999523D02*
Y2302994D01*
X2999916D01*
Y2302600D01*
X2999523D01*
X3001491Y2304961D02*
Y2302600D01*
X3002671D01*
X3003065Y2302994D01*
Y2304568D01*
X3002671Y2304961D01*
X3001491D01*
X3003852D02*
X3005426D01*
X3004639D01*
Y2302600D01*
X3006214Y2304961D02*
Y2302600D01*
X3007394D01*
X3007788Y2302994D01*
Y2304568D01*
X3007394Y2304961D01*
X3006214D01*
X3071260Y1920078D02*
Y1917716D01*
X3072441D01*
X3072834Y1918110D01*
Y1919684D01*
X3072441Y1920078D01*
X3071260D01*
X3073621Y1919684D02*
X3074015Y1920078D01*
X3074802D01*
X3075196Y1919684D01*
Y1919291D01*
X3074802Y1918897D01*
X3075196Y1918504D01*
Y1918110D01*
X3074802Y1917716D01*
X3074015D01*
X3073621Y1918110D01*
Y1918504D01*
X3074015Y1918897D01*
X3073621Y1919291D01*
Y1919684D01*
X3074015Y1918897D02*
X3074802D01*
X3075983Y1917716D02*
Y1918110D01*
X3076376D01*
Y1917716D01*
X3075983D01*
X3077951Y1920078D02*
Y1917716D01*
X3079131D01*
X3079525Y1918110D01*
Y1919684D01*
X3079131Y1920078D01*
X3077951D01*
X3080312D02*
X3081886D01*
X3081099D01*
Y1917716D01*
X3082673D02*
Y1919291D01*
X3083461Y1920078D01*
X3084248Y1919291D01*
Y1917716D01*
Y1918897D01*
X3082673D01*
X3069300Y2027161D02*
Y2024800D01*
X3070481D01*
X3070874Y2025194D01*
Y2026768D01*
X3070481Y2027161D01*
X3069300D01*
X3071661Y2026768D02*
X3072055Y2027161D01*
X3072842D01*
X3073236Y2026768D01*
Y2026374D01*
X3072842Y2025981D01*
X3073236Y2025587D01*
Y2025194D01*
X3072842Y2024800D01*
X3072055D01*
X3071661Y2025194D01*
Y2025587D01*
X3072055Y2025981D01*
X3071661Y2026374D01*
Y2026768D01*
X3072055Y2025981D02*
X3072842D01*
X3074023Y2024800D02*
Y2025194D01*
X3074416D01*
Y2024800D01*
X3074023D01*
X3075991Y2027161D02*
Y2024800D01*
X3077172D01*
X3077565Y2025194D01*
Y2026768D01*
X3077172Y2027161D01*
X3075991D01*
X3078352D02*
X3079926D01*
X3079139D01*
Y2024800D01*
X3080714Y2027161D02*
Y2024800D01*
X3081894D01*
X3082288Y2025194D01*
Y2025587D01*
X3081894Y2025981D01*
X3080714D01*
X3081894D01*
X3082288Y2026374D01*
Y2026768D01*
X3081894Y2027161D01*
X3080714D01*
X3071255Y2132702D02*
Y2130341D01*
X3072436D01*
X3072829Y2130734D01*
Y2132309D01*
X3072436Y2132702D01*
X3071255D01*
X3073616Y2132309D02*
X3074010Y2132702D01*
X3074797D01*
X3075191Y2132309D01*
Y2131915D01*
X3074797Y2131522D01*
X3075191Y2131128D01*
Y2130734D01*
X3074797Y2130341D01*
X3074010D01*
X3073616Y2130734D01*
Y2131128D01*
X3074010Y2131522D01*
X3073616Y2131915D01*
Y2132309D01*
X3074010Y2131522D02*
X3074797D01*
X3075978Y2130341D02*
Y2130734D01*
X3076372D01*
Y2130341D01*
X3075978D01*
X3077946Y2132702D02*
Y2130341D01*
X3079127D01*
X3079520Y2130734D01*
Y2132309D01*
X3079127Y2132702D01*
X3077946D01*
X3080307D02*
X3081882D01*
X3081094D01*
Y2130341D01*
X3084243Y2132309D02*
X3083850Y2132702D01*
X3083062D01*
X3082669Y2132309D01*
Y2130734D01*
X3083062Y2130341D01*
X3083850D01*
X3084243Y2130734D01*
X3072835Y2237794D02*
Y2235433D01*
X3074015D01*
X3074409Y2235827D01*
Y2237401D01*
X3074015Y2237794D01*
X3072835D01*
X3075196Y2237401D02*
X3075590Y2237794D01*
X3076377D01*
X3076770Y2237401D01*
Y2237007D01*
X3076377Y2236614D01*
X3076770Y2236220D01*
Y2235827D01*
X3076377Y2235433D01*
X3075590D01*
X3075196Y2235827D01*
Y2236220D01*
X3075590Y2236614D01*
X3075196Y2237007D01*
Y2237401D01*
X3075590Y2236614D02*
X3076377D01*
X3077558Y2235433D02*
Y2235827D01*
X3077951D01*
Y2235433D01*
X3077558D01*
X3079525Y2237794D02*
Y2235433D01*
X3080706D01*
X3081100Y2235827D01*
Y2237401D01*
X3080706Y2237794D01*
X3079525D01*
X3081887D02*
X3083461D01*
X3082674D01*
Y2235433D01*
X3084248Y2237794D02*
Y2235433D01*
X3085429D01*
X3085823Y2235827D01*
Y2237401D01*
X3085429Y2237794D01*
X3084248D01*
X3244300Y2046361D02*
Y2044000D01*
X3245481D01*
X3245874Y2044394D01*
Y2045968D01*
X3245481Y2046361D01*
X3244300D01*
X3248236Y2044000D02*
X3246661D01*
X3248236Y2045574D01*
Y2045968D01*
X3247842Y2046361D01*
X3247055D01*
X3246661Y2045968D01*
X3249023Y2044000D02*
X3249810D01*
X3249416D01*
Y2046361D01*
X3249023Y2045968D01*
X3169292Y1933071D02*
X3171654D01*
Y1934252D01*
X3171260Y1934645D01*
X3169686D01*
X3169292Y1934252D01*
Y1933071D01*
X3171654Y1937007D02*
Y1935432D01*
X3170079Y1937007D01*
X3169686D01*
X3169292Y1936613D01*
Y1935826D01*
X3169686Y1935432D01*
X3171654Y1939368D02*
Y1937794D01*
X3170079Y1939368D01*
X3169686D01*
X3169292Y1938975D01*
Y1938187D01*
X3169686Y1937794D01*
X3169292Y1952756D02*
X3171654D01*
Y1953937D01*
X3171260Y1954330D01*
X3169686D01*
X3169292Y1953937D01*
Y1952756D01*
X3171654Y1956692D02*
Y1955117D01*
X3170079Y1956692D01*
X3169686D01*
X3169292Y1956298D01*
Y1955511D01*
X3169686Y1955117D01*
Y1957479D02*
X3169292Y1957872D01*
Y1958660D01*
X3169686Y1959053D01*
X3170079D01*
X3170473Y1958660D01*
Y1958266D01*
Y1958660D01*
X3170866Y1959053D01*
X3171260D01*
X3171654Y1958660D01*
Y1957872D01*
X3171260Y1957479D01*
X3169292Y1972441D02*
X3171654D01*
Y1973622D01*
X3171260Y1974015D01*
X3169686D01*
X3169292Y1973622D01*
Y1972441D01*
X3171654Y1976377D02*
Y1974802D01*
X3170079Y1976377D01*
X3169686D01*
X3169292Y1975983D01*
Y1975196D01*
X3169686Y1974802D01*
X3171654Y1978345D02*
X3169292D01*
X3170473Y1977164D01*
Y1978738D01*
X3169686Y1991732D02*
X3172047D01*
Y1992913D01*
X3171654Y1993307D01*
X3170079D01*
X3169686Y1992913D01*
Y1991732D01*
X3172047Y1995668D02*
Y1994094D01*
X3170473Y1995668D01*
X3170079D01*
X3169686Y1995274D01*
Y1994487D01*
X3170079Y1994094D01*
X3169686Y1998029D02*
Y1996455D01*
X3170867D01*
X3170473Y1997242D01*
Y1997636D01*
X3170867Y1998029D01*
X3171654D01*
X3172047Y1997636D01*
Y1996849D01*
X3171654Y1996455D01*
X3216535Y1928740D02*
X3214173D01*
Y1927559D01*
X3214567Y1927166D01*
X3216141D01*
X3216535Y1927559D01*
Y1928740D01*
X3214173Y1924804D02*
Y1926379D01*
X3215747Y1924804D01*
X3216141D01*
X3216535Y1925198D01*
Y1925985D01*
X3216141Y1926379D01*
X3216535Y1922443D02*
X3216141Y1923230D01*
X3215354Y1924017D01*
X3214567D01*
X3214173Y1923624D01*
Y1922837D01*
X3214567Y1922443D01*
X3214960D01*
X3215354Y1922837D01*
Y1924017D01*
X3215747Y1948819D02*
X3213386D01*
Y1947638D01*
X3213779Y1947245D01*
X3215354D01*
X3215747Y1947638D01*
Y1948819D01*
X3213386Y1944883D02*
Y1946457D01*
X3214960Y1944883D01*
X3215354D01*
X3215747Y1945277D01*
Y1946064D01*
X3215354Y1946457D01*
X3215747Y1944096D02*
Y1942522D01*
X3215354D01*
X3213779Y1944096D01*
X3213386D01*
X3215354Y1969685D02*
X3212992D01*
Y1968504D01*
X3213386Y1968111D01*
X3214960D01*
X3215354Y1968504D01*
Y1969685D01*
X3212992Y1965749D02*
Y1967324D01*
X3214566Y1965749D01*
X3214960D01*
X3215354Y1966143D01*
Y1966930D01*
X3214960Y1967324D01*
Y1964962D02*
X3215354Y1964569D01*
Y1963781D01*
X3214960Y1963388D01*
X3214566D01*
X3214173Y1963781D01*
X3213779Y1963388D01*
X3213386D01*
X3212992Y1963781D01*
Y1964569D01*
X3213386Y1964962D01*
X3213779D01*
X3214173Y1964569D01*
X3214566Y1964962D01*
X3214960D01*
X3214173Y1964569D02*
Y1963781D01*
X3215747Y1988976D02*
X3213386D01*
Y1987796D01*
X3213779Y1987402D01*
X3215354D01*
X3215747Y1987796D01*
Y1988976D01*
X3213386Y1985041D02*
Y1986615D01*
X3214960Y1985041D01*
X3215354D01*
X3215747Y1985434D01*
Y1986221D01*
X3215354Y1986615D01*
X3213779Y1984254D02*
X3213386Y1983860D01*
Y1983073D01*
X3213779Y1982679D01*
X3215354D01*
X3215747Y1983073D01*
Y1983860D01*
X3215354Y1984254D01*
X3214960D01*
X3214566Y1983860D01*
Y1982679D01*
X3298031Y1984646D02*
Y1986221D01*
X3296850D01*
Y1985433D01*
Y1986221D01*
X3295669D01*
X3297243Y1983466D02*
Y1982678D01*
X3296850Y1982285D01*
X3295669D01*
Y1983466D01*
X3296063Y1983859D01*
X3296457Y1983466D01*
Y1982285D01*
X3297243Y1981498D02*
X3296063D01*
X3295669Y1981104D01*
Y1979923D01*
X3297243D01*
X3295669Y1979136D02*
Y1978349D01*
Y1978743D01*
X3298031D01*
Y1979136D01*
X3297637Y1976775D02*
X3297243D01*
Y1977168D01*
Y1976381D01*
Y1976775D01*
X3296063D01*
X3295669Y1976381D01*
Y1975200D02*
Y1974020D01*
X3296063Y1973626D01*
X3296457Y1974020D01*
Y1974807D01*
X3296850Y1975200D01*
X3297243Y1974807D01*
Y1973626D01*
X3018574Y1962961D02*
X3017787D01*
X3018181D01*
Y1960994D01*
X3017787Y1960600D01*
X3017394D01*
X3017000Y1960994D01*
X3019361Y1960600D02*
Y1962961D01*
X3020542D01*
X3020936Y1962568D01*
Y1961781D01*
X3020542Y1961387D01*
X3019361D01*
X3021723Y1960600D02*
X3022510D01*
X3022116D01*
Y1962961D01*
X3021723Y1962568D01*
X3023691Y1960600D02*
Y1960994D01*
X3024084D01*
Y1960600D01*
X3023691D01*
X3025659Y1962961D02*
Y1960600D01*
X3026839D01*
X3027233Y1960994D01*
Y1962568D01*
X3026839Y1962961D01*
X3025659D01*
X3028020D02*
X3029594D01*
X3028807D01*
Y1960600D01*
X3030382D02*
Y1962174D01*
X3031169Y1962961D01*
X3031956Y1962174D01*
Y1960600D01*
Y1961781D01*
X3030382D01*
X3018574Y2068961D02*
X3017787D01*
X3018181D01*
Y2066994D01*
X3017787Y2066600D01*
X3017394D01*
X3017000Y2066994D01*
X3019361Y2066600D02*
Y2068961D01*
X3020542D01*
X3020936Y2068568D01*
Y2067781D01*
X3020542Y2067387D01*
X3019361D01*
X3021723Y2066600D02*
X3022510D01*
X3022116D01*
Y2068961D01*
X3021723Y2068568D01*
X3023691Y2066600D02*
Y2066994D01*
X3024084D01*
Y2066600D01*
X3023691D01*
X3025659Y2068961D02*
Y2066600D01*
X3026839D01*
X3027233Y2066994D01*
Y2068568D01*
X3026839Y2068961D01*
X3025659D01*
X3028020D02*
X3029594D01*
X3028807D01*
Y2066600D01*
X3030382Y2068961D02*
Y2066600D01*
X3031562D01*
X3031956Y2066994D01*
Y2067387D01*
X3031562Y2067781D01*
X3030382D01*
X3031562D01*
X3031956Y2068174D01*
Y2068568D01*
X3031562Y2068961D01*
X3030382D01*
X3018574Y2174961D02*
X3017787D01*
X3018181D01*
Y2172994D01*
X3017787Y2172600D01*
X3017394D01*
X3017000Y2172994D01*
X3019361Y2172600D02*
Y2174961D01*
X3020542D01*
X3020936Y2174568D01*
Y2173781D01*
X3020542Y2173387D01*
X3019361D01*
X3021723Y2172600D02*
X3022510D01*
X3022116D01*
Y2174961D01*
X3021723Y2174568D01*
X3023691Y2172600D02*
Y2172994D01*
X3024084D01*
Y2172600D01*
X3023691D01*
X3025659Y2174961D02*
Y2172600D01*
X3026839D01*
X3027233Y2172994D01*
Y2174568D01*
X3026839Y2174961D01*
X3025659D01*
X3028020D02*
X3029594D01*
X3028807D01*
Y2172600D01*
X3031956Y2174568D02*
X3031562Y2174961D01*
X3030775D01*
X3030382Y2174568D01*
Y2172994D01*
X3030775Y2172600D01*
X3031562D01*
X3031956Y2172994D01*
X3018574Y2280961D02*
X3017787D01*
X3018181D01*
Y2278994D01*
X3017787Y2278600D01*
X3017394D01*
X3017000Y2278994D01*
X3019361Y2278600D02*
Y2280961D01*
X3020542D01*
X3020936Y2280568D01*
Y2279781D01*
X3020542Y2279387D01*
X3019361D01*
X3021723Y2278600D02*
X3022510D01*
X3022116D01*
Y2280961D01*
X3021723Y2280568D01*
X3023691Y2278600D02*
Y2278994D01*
X3024084D01*
Y2278600D01*
X3023691D01*
X3025659Y2280961D02*
Y2278600D01*
X3026839D01*
X3027233Y2278994D01*
Y2280568D01*
X3026839Y2280961D01*
X3025659D01*
X3028020D02*
X3029594D01*
X3028807D01*
Y2278600D01*
X3030382Y2280961D02*
Y2278600D01*
X3031562D01*
X3031956Y2278994D01*
Y2280568D01*
X3031562Y2280961D01*
X3030382D01*
X3071774Y1994861D02*
X3070987D01*
X3071381D01*
Y1992894D01*
X3070987Y1992500D01*
X3070594D01*
X3070200Y1992894D01*
X3072561Y1992500D02*
Y1994861D01*
X3073742D01*
X3074136Y1994468D01*
Y1993681D01*
X3073742Y1993287D01*
X3072561D01*
X3076497Y1992500D02*
X3074923D01*
X3076497Y1994074D01*
Y1994468D01*
X3076104Y1994861D01*
X3075316D01*
X3074923Y1994468D01*
X3077284Y1992500D02*
Y1992894D01*
X3077678D01*
Y1992500D01*
X3077284D01*
X3079252Y1994861D02*
Y1992500D01*
X3080433D01*
X3080827Y1992894D01*
Y1994468D01*
X3080433Y1994861D01*
X3079252D01*
X3081614D02*
X3083188D01*
X3082401D01*
Y1992500D01*
X3083975D02*
Y1994074D01*
X3084762Y1994861D01*
X3085549Y1994074D01*
Y1992500D01*
Y1993681D01*
X3083975D01*
X3072166Y2100529D02*
X3071379D01*
X3071772D01*
Y2098561D01*
X3071379Y2098168D01*
X3070985D01*
X3070591Y2098561D01*
X3072953Y2098168D02*
Y2100529D01*
X3074133D01*
X3074527Y2100136D01*
Y2099348D01*
X3074133Y2098955D01*
X3072953D01*
X3076888Y2098168D02*
X3075314D01*
X3076888Y2099742D01*
Y2100136D01*
X3076495Y2100529D01*
X3075708D01*
X3075314Y2100136D01*
X3077676Y2098168D02*
Y2098561D01*
X3078069D01*
Y2098168D01*
X3077676D01*
X3079643Y2100529D02*
Y2098168D01*
X3080824D01*
X3081218Y2098561D01*
Y2100136D01*
X3080824Y2100529D01*
X3079643D01*
X3082005D02*
X3083579D01*
X3082792D01*
Y2098168D01*
X3084366Y2100529D02*
Y2098168D01*
X3085547D01*
X3085941Y2098561D01*
Y2098955D01*
X3085547Y2099348D01*
X3084366D01*
X3085547D01*
X3085941Y2099742D01*
Y2100136D01*
X3085547Y2100529D01*
X3084366D01*
X3071653Y2205905D02*
X3070866D01*
X3071259D01*
Y2203937D01*
X3070866Y2203543D01*
X3070472D01*
X3070079Y2203937D01*
X3072440Y2203543D02*
Y2205905D01*
X3073621D01*
X3074014Y2205511D01*
Y2204724D01*
X3073621Y2204330D01*
X3072440D01*
X3076376Y2203543D02*
X3074802D01*
X3076376Y2205118D01*
Y2205511D01*
X3075982Y2205905D01*
X3075195D01*
X3074802Y2205511D01*
X3077163Y2203543D02*
Y2203937D01*
X3077557D01*
Y2203543D01*
X3077163D01*
X3079131Y2205905D02*
Y2203543D01*
X3080312D01*
X3080705Y2203937D01*
Y2205511D01*
X3080312Y2205905D01*
X3079131D01*
X3081492D02*
X3083067D01*
X3082280D01*
Y2203543D01*
X3085428Y2205511D02*
X3085035Y2205905D01*
X3084247D01*
X3083854Y2205511D01*
Y2203937D01*
X3084247Y2203543D01*
X3085035D01*
X3085428Y2203937D01*
X3071259Y2318503D02*
X3070472D01*
X3070866D01*
Y2316535D01*
X3070472Y2316142D01*
X3070079D01*
X3069685Y2316535D01*
X3072046Y2316142D02*
Y2318503D01*
X3073227D01*
X3073621Y2318110D01*
Y2317323D01*
X3073227Y2316929D01*
X3072046D01*
X3075982Y2316142D02*
X3074408D01*
X3075982Y2317716D01*
Y2318110D01*
X3075589Y2318503D01*
X3074801D01*
X3074408Y2318110D01*
X3076769Y2316142D02*
Y2316535D01*
X3077163D01*
Y2316142D01*
X3076769D01*
X3078737Y2318503D02*
Y2316142D01*
X3079918D01*
X3080312Y2316535D01*
Y2318110D01*
X3079918Y2318503D01*
X3078737D01*
X3081099D02*
X3082673D01*
X3081886D01*
Y2316142D01*
X3083460Y2318503D02*
Y2316142D01*
X3084641D01*
X3085034Y2316535D01*
Y2318110D01*
X3084641Y2318503D01*
X3083460D01*
X3050393Y1994094D02*
X3049606D01*
X3050000D01*
Y1992126D01*
X3049606Y1991732D01*
X3049212D01*
X3048819Y1992126D01*
X3051180Y1991732D02*
Y1994094D01*
X3052361D01*
X3052755Y1993700D01*
Y1992913D01*
X3052361Y1992519D01*
X3051180D01*
X3053542Y1993700D02*
X3053935Y1994094D01*
X3054723D01*
X3055116Y1993700D01*
Y1993307D01*
X3054723Y1992913D01*
X3054329D01*
X3054723D01*
X3055116Y1992519D01*
Y1992126D01*
X3054723Y1991732D01*
X3053935D01*
X3053542Y1992126D01*
X3055903Y1991732D02*
Y1992126D01*
X3056297D01*
Y1991732D01*
X3055903D01*
X3057871Y1994094D02*
Y1991732D01*
X3059052D01*
X3059445Y1992126D01*
Y1993700D01*
X3059052Y1994094D01*
X3057871D01*
X3060233D02*
X3061807D01*
X3061020D01*
Y1991732D01*
X3062594D02*
Y1993307D01*
X3063381Y1994094D01*
X3064168Y1993307D01*
Y1991732D01*
Y1992913D01*
X3062594D01*
X3050393Y2099606D02*
X3049606D01*
X3050000D01*
Y2097638D01*
X3049606Y2097244D01*
X3049212D01*
X3048819Y2097638D01*
X3051180Y2097244D02*
Y2099606D01*
X3052361D01*
X3052755Y2099212D01*
Y2098425D01*
X3052361Y2098031D01*
X3051180D01*
X3053542Y2099212D02*
X3053935Y2099606D01*
X3054723D01*
X3055116Y2099212D01*
Y2098818D01*
X3054723Y2098425D01*
X3054329D01*
X3054723D01*
X3055116Y2098031D01*
Y2097638D01*
X3054723Y2097244D01*
X3053935D01*
X3053542Y2097638D01*
X3055903Y2097244D02*
Y2097638D01*
X3056297D01*
Y2097244D01*
X3055903D01*
X3057871Y2099606D02*
Y2097244D01*
X3059052D01*
X3059445Y2097638D01*
Y2099212D01*
X3059052Y2099606D01*
X3057871D01*
X3060233D02*
X3061807D01*
X3061020D01*
Y2097244D01*
X3062594Y2099606D02*
Y2097244D01*
X3063775D01*
X3064168Y2097638D01*
Y2098031D01*
X3063775Y2098425D01*
X3062594D01*
X3063775D01*
X3064168Y2098818D01*
Y2099212D01*
X3063775Y2099606D01*
X3062594D01*
X3051181Y2205905D02*
X3050393D01*
X3050787D01*
Y2203937D01*
X3050393Y2203543D01*
X3050000D01*
X3049606Y2203937D01*
X3051968Y2203543D02*
Y2205905D01*
X3053148D01*
X3053542Y2205511D01*
Y2204724D01*
X3053148Y2204330D01*
X3051968D01*
X3054329Y2205511D02*
X3054723Y2205905D01*
X3055510D01*
X3055903Y2205511D01*
Y2205118D01*
X3055510Y2204724D01*
X3055116D01*
X3055510D01*
X3055903Y2204330D01*
Y2203937D01*
X3055510Y2203543D01*
X3054723D01*
X3054329Y2203937D01*
X3056691Y2203543D02*
Y2203937D01*
X3057084D01*
Y2203543D01*
X3056691D01*
X3058658Y2205905D02*
Y2203543D01*
X3059839D01*
X3060233Y2203937D01*
Y2205511D01*
X3059839Y2205905D01*
X3058658D01*
X3061020D02*
X3062594D01*
X3061807D01*
Y2203543D01*
X3064956Y2205511D02*
X3064562Y2205905D01*
X3063775D01*
X3063381Y2205511D01*
Y2203937D01*
X3063775Y2203543D01*
X3064562D01*
X3064956Y2203937D01*
X3050474Y2312861D02*
X3049687D01*
X3050081D01*
Y2310894D01*
X3049687Y2310500D01*
X3049294D01*
X3048900Y2310894D01*
X3051261Y2310500D02*
Y2312861D01*
X3052442D01*
X3052836Y2312468D01*
Y2311681D01*
X3052442Y2311287D01*
X3051261D01*
X3053623Y2312468D02*
X3054016Y2312861D01*
X3054804D01*
X3055197Y2312468D01*
Y2312074D01*
X3054804Y2311681D01*
X3054410D01*
X3054804D01*
X3055197Y2311287D01*
Y2310894D01*
X3054804Y2310500D01*
X3054016D01*
X3053623Y2310894D01*
X3055984Y2310500D02*
Y2310894D01*
X3056378D01*
Y2310500D01*
X3055984D01*
X3057952Y2312861D02*
Y2310500D01*
X3059133D01*
X3059526Y2310894D01*
Y2312468D01*
X3059133Y2312861D01*
X3057952D01*
X3060314D02*
X3061888D01*
X3061101D01*
Y2310500D01*
X3062675Y2312861D02*
Y2310500D01*
X3063856D01*
X3064249Y2310894D01*
Y2312468D01*
X3063856Y2312861D01*
X3062675D01*
X3019474Y1915861D02*
X3018687D01*
X3019081D01*
Y1913894D01*
X3018687Y1913500D01*
X3018294D01*
X3017900Y1913894D01*
X3020261Y1913500D02*
Y1915861D01*
X3021442D01*
X3021836Y1915468D01*
Y1914681D01*
X3021442Y1914287D01*
X3020261D01*
X3023804Y1913500D02*
Y1915861D01*
X3022623Y1914681D01*
X3024197D01*
X3024984Y1913500D02*
Y1913894D01*
X3025378D01*
Y1913500D01*
X3024984D01*
X3026952Y1915861D02*
Y1913500D01*
X3028133D01*
X3028526Y1913894D01*
Y1915468D01*
X3028133Y1915861D01*
X3026952D01*
X3029314D02*
X3030888D01*
X3030101D01*
Y1913500D01*
X3031675D02*
Y1915074D01*
X3032462Y1915861D01*
X3033249Y1915074D01*
Y1913500D01*
Y1914681D01*
X3031675D01*
X3019684Y2020865D02*
X3018897D01*
X3019291D01*
Y2018897D01*
X3018897Y2018504D01*
X3018504D01*
X3018110Y2018897D01*
X3020472Y2018504D02*
Y2020865D01*
X3021652D01*
X3022046Y2020472D01*
Y2019685D01*
X3021652Y2019291D01*
X3020472D01*
X3024014Y2018504D02*
Y2020865D01*
X3022833Y2019685D01*
X3024407D01*
X3025195Y2018504D02*
Y2018897D01*
X3025588D01*
Y2018504D01*
X3025195D01*
X3027162Y2020865D02*
Y2018504D01*
X3028343D01*
X3028737Y2018897D01*
Y2020472D01*
X3028343Y2020865D01*
X3027162D01*
X3029524D02*
X3031098D01*
X3030311D01*
Y2018504D01*
X3031885Y2020865D02*
Y2018504D01*
X3033066D01*
X3033460Y2018897D01*
Y2019291D01*
X3033066Y2019685D01*
X3031885D01*
X3033066D01*
X3033460Y2020078D01*
Y2020472D01*
X3033066Y2020865D01*
X3031885D01*
X3019684Y2127165D02*
X3018897D01*
X3019291D01*
Y2125197D01*
X3018897Y2124803D01*
X3018504D01*
X3018110Y2125197D01*
X3020472Y2124803D02*
Y2127165D01*
X3021652D01*
X3022046Y2126771D01*
Y2125984D01*
X3021652Y2125590D01*
X3020472D01*
X3024014Y2124803D02*
Y2127165D01*
X3022833Y2125984D01*
X3024407D01*
X3025195Y2124803D02*
Y2125197D01*
X3025588D01*
Y2124803D01*
X3025195D01*
X3027162Y2127165D02*
Y2124803D01*
X3028343D01*
X3028737Y2125197D01*
Y2126771D01*
X3028343Y2127165D01*
X3027162D01*
X3029524D02*
X3031098D01*
X3030311D01*
Y2124803D01*
X3033460Y2126771D02*
X3033066Y2127165D01*
X3032279D01*
X3031885Y2126771D01*
Y2125197D01*
X3032279Y2124803D01*
X3033066D01*
X3033460Y2125197D01*
X3019474Y2233861D02*
X3018687D01*
X3019081D01*
Y2231894D01*
X3018687Y2231500D01*
X3018294D01*
X3017900Y2231894D01*
X3020261Y2231500D02*
Y2233861D01*
X3021442D01*
X3021836Y2233468D01*
Y2232681D01*
X3021442Y2232287D01*
X3020261D01*
X3023804Y2231500D02*
Y2233861D01*
X3022623Y2232681D01*
X3024197D01*
X3024984Y2231500D02*
Y2231894D01*
X3025378D01*
Y2231500D01*
X3024984D01*
X3026952Y2233861D02*
Y2231500D01*
X3028133D01*
X3028526Y2231894D01*
Y2233468D01*
X3028133Y2233861D01*
X3026952D01*
X3029314D02*
X3030888D01*
X3030101D01*
Y2231500D01*
X3031675Y2233861D02*
Y2231500D01*
X3032856D01*
X3033249Y2231894D01*
Y2233468D01*
X3032856Y2233861D01*
X3031675D01*
X3165074Y2076161D02*
X3164287D01*
X3164681D01*
Y2074194D01*
X3164287Y2073800D01*
X3163894D01*
X3163500Y2074194D01*
X3165861Y2073800D02*
Y2076161D01*
X3167042D01*
X3167436Y2075768D01*
Y2074981D01*
X3167042Y2074587D01*
X3165861D01*
X3169797Y2076161D02*
X3168223D01*
Y2074981D01*
X3169010Y2075374D01*
X3169404D01*
X3169797Y2074981D01*
Y2074194D01*
X3169404Y2073800D01*
X3168616D01*
X3168223Y2074194D01*
X3031890Y1855117D02*
Y1852756D01*
Y1853543D01*
X3033464Y1855117D01*
X3032283Y1853937D01*
X3033464Y1852756D01*
X3034251D02*
X3035038D01*
X3034645D01*
Y1855117D01*
X3034251Y1854724D01*
X3226644Y2245111D02*
Y2247472D01*
X3227825D01*
X3228218Y2247078D01*
Y2246291D01*
X3227825Y2245898D01*
X3226644D01*
X3229005Y2247472D02*
Y2245111D01*
X3229793Y2245898D01*
X3230580Y2245111D01*
Y2247472D01*
X3231367Y2245111D02*
Y2247472D01*
X3232154Y2246685D01*
X3232941Y2247472D01*
Y2245111D01*
X3233728Y2244717D02*
X3235303D01*
X3236090Y2245111D02*
Y2246685D01*
X3236877Y2247472D01*
X3237664Y2246685D01*
Y2245111D01*
Y2246291D01*
X3236090D01*
X3238451Y2247472D02*
Y2245111D01*
X3239632D01*
X3240026Y2245504D01*
Y2245898D01*
X3239632Y2246291D01*
X3238451D01*
X3239632D01*
X3240026Y2246685D01*
Y2247078D01*
X3239632Y2247472D01*
X3238451D01*
X3226999Y2319379D02*
Y2321741D01*
X3228179D01*
X3228573Y2321347D01*
Y2320560D01*
X3228179Y2320166D01*
X3226999D01*
X3229360Y2321741D02*
Y2319379D01*
X3230147Y2320166D01*
X3230934Y2319379D01*
Y2321741D01*
X3231721Y2319379D02*
Y2321741D01*
X3232508Y2320954D01*
X3233295Y2321741D01*
Y2319379D01*
X3234083Y2318986D02*
X3235657D01*
X3238018Y2321347D02*
X3237625Y2321741D01*
X3236838D01*
X3236444Y2321347D01*
Y2319773D01*
X3236838Y2319379D01*
X3237625D01*
X3238018Y2319773D01*
X3238806Y2319379D02*
Y2321741D01*
X3240380Y2319379D01*
Y2321741D01*
X3085433Y1876378D02*
Y1877952D01*
X3085039Y1878346D01*
X3084252D01*
X3083858Y1877952D01*
Y1876378D01*
X3084252Y1875984D01*
X3085039D01*
X3084645Y1876771D02*
X3085433Y1875984D01*
X3085039D02*
X3085433Y1876378D01*
X3086220Y1875984D02*
X3087007D01*
X3086613D01*
Y1878346D01*
X3086220Y1877952D01*
X2997637Y1875118D02*
Y1876692D01*
X2997244Y1877086D01*
X2996457D01*
X2996063Y1876692D01*
Y1875118D01*
X2996457Y1874724D01*
X2997244D01*
X2996850Y1875512D02*
X2997637Y1874724D01*
X2997244D02*
X2997637Y1875118D01*
X2999999Y1874724D02*
X2998424D01*
X2999999Y1876299D01*
Y1876692D01*
X2999605Y1877086D01*
X2998818D01*
X2998424Y1876692D01*
X3225984Y2065748D02*
Y2067322D01*
X3225590Y2067716D01*
X3224803D01*
X3224409Y2067322D01*
Y2065748D01*
X3224803Y2065354D01*
X3225590D01*
X3225196Y2066142D02*
X3225984Y2065354D01*
X3225590D02*
X3225984Y2065748D01*
X3226771Y2067716D02*
X3228345D01*
Y2067322D01*
X3226771Y2065748D01*
Y2065354D01*
X3093100Y1876500D02*
Y1878861D01*
X3094281D01*
X3094674Y1878468D01*
Y1877681D01*
X3094281Y1877287D01*
X3093100D01*
X3093887D02*
X3094674Y1876500D01*
X3097036D02*
X3095461D01*
X3097036Y1878074D01*
Y1878468D01*
X3096642Y1878861D01*
X3095855D01*
X3095461Y1878468D01*
X3003543Y1873622D02*
Y1875983D01*
X3004724D01*
X3005118Y1875590D01*
Y1874803D01*
X3004724Y1874409D01*
X3003543D01*
X3004330D02*
X3005118Y1873622D01*
X3007085D02*
Y1875983D01*
X3005905Y1874803D01*
X3007479D01*
X3018504Y1987008D02*
Y1989369D01*
X3019685D01*
X3020078Y1988976D01*
Y1988189D01*
X3019685Y1987795D01*
X3018504D01*
X3019291D02*
X3020078Y1987008D01*
X3022440Y1989369D02*
X3021652Y1988976D01*
X3020865Y1988189D01*
Y1987401D01*
X3021259Y1987008D01*
X3022046D01*
X3022440Y1987401D01*
Y1987795D01*
X3022046Y1988189D01*
X3020865D01*
X3023227Y1987008D02*
Y1987401D01*
X3023620D01*
Y1987008D01*
X3023227D01*
X3025195Y1989369D02*
Y1987008D01*
X3026375D01*
X3026769Y1987401D01*
Y1988976D01*
X3026375Y1989369D01*
X3025195D01*
X3027556D02*
X3029130D01*
X3028343D01*
Y1987008D01*
X3029918D02*
Y1988582D01*
X3030705Y1989369D01*
X3031492Y1988582D01*
Y1987008D01*
Y1988189D01*
X3029918D01*
X3017800Y2093700D02*
Y2096061D01*
X3018981D01*
X3019374Y2095668D01*
Y2094881D01*
X3018981Y2094487D01*
X3017800D01*
X3018587D02*
X3019374Y2093700D01*
X3021736Y2096061D02*
X3020949Y2095668D01*
X3020161Y2094881D01*
Y2094094D01*
X3020555Y2093700D01*
X3021342D01*
X3021736Y2094094D01*
Y2094487D01*
X3021342Y2094881D01*
X3020161D01*
X3022523Y2093700D02*
Y2094094D01*
X3022916D01*
Y2093700D01*
X3022523D01*
X3024491Y2096061D02*
Y2093700D01*
X3025672D01*
X3026065Y2094094D01*
Y2095668D01*
X3025672Y2096061D01*
X3024491D01*
X3026852D02*
X3028427D01*
X3027639D01*
Y2093700D01*
X3029214Y2096061D02*
Y2093700D01*
X3030394D01*
X3030788Y2094094D01*
Y2094487D01*
X3030394Y2094881D01*
X3029214D01*
X3030394D01*
X3030788Y2095274D01*
Y2095668D01*
X3030394Y2096061D01*
X3029214D01*
X3017800Y2200000D02*
Y2202361D01*
X3018981D01*
X3019374Y2201968D01*
Y2201181D01*
X3018981Y2200787D01*
X3017800D01*
X3018587D02*
X3019374Y2200000D01*
X3021736Y2202361D02*
X3020949Y2201968D01*
X3020161Y2201181D01*
Y2200394D01*
X3020555Y2200000D01*
X3021342D01*
X3021736Y2200394D01*
Y2200787D01*
X3021342Y2201181D01*
X3020161D01*
X3022523Y2200000D02*
Y2200394D01*
X3022916D01*
Y2200000D01*
X3022523D01*
X3024491Y2202361D02*
Y2200000D01*
X3025672D01*
X3026065Y2200394D01*
Y2201968D01*
X3025672Y2202361D01*
X3024491D01*
X3026852D02*
X3028427D01*
X3027639D01*
Y2200000D01*
X3030788Y2201968D02*
X3030394Y2202361D01*
X3029607D01*
X3029214Y2201968D01*
Y2200394D01*
X3029607Y2200000D01*
X3030394D01*
X3030788Y2200394D01*
X3017800Y2305500D02*
Y2307861D01*
X3018981D01*
X3019374Y2307468D01*
Y2306681D01*
X3018981Y2306287D01*
X3017800D01*
X3018587D02*
X3019374Y2305500D01*
X3021736Y2307861D02*
X3020949Y2307468D01*
X3020161Y2306681D01*
Y2305894D01*
X3020555Y2305500D01*
X3021342D01*
X3021736Y2305894D01*
Y2306287D01*
X3021342Y2306681D01*
X3020161D01*
X3022523Y2305500D02*
Y2305894D01*
X3022916D01*
Y2305500D01*
X3022523D01*
X3024491Y2307861D02*
Y2305500D01*
X3025672D01*
X3026065Y2305894D01*
Y2307468D01*
X3025672Y2307861D01*
X3024491D01*
X3026852D02*
X3028427D01*
X3027639D01*
Y2305500D01*
X3029214Y2307861D02*
Y2305500D01*
X3030394D01*
X3030788Y2305894D01*
Y2307468D01*
X3030394Y2307861D01*
X3029214D01*
X3070079Y1961024D02*
Y1958662D01*
X3068898D01*
X3068504Y1959056D01*
Y1959843D01*
X3068898Y1960237D01*
X3070079D01*
X3069292D02*
X3068504Y1961024D01*
X3067717Y1958662D02*
X3066143D01*
Y1959056D01*
X3067717Y1960630D01*
Y1961024D01*
X3065356D02*
Y1960630D01*
X3064962D01*
Y1961024D01*
X3065356D01*
X3063388Y1958662D02*
Y1961024D01*
X3062207D01*
X3061814Y1960630D01*
Y1959056D01*
X3062207Y1958662D01*
X3063388D01*
X3061027D02*
X3059452D01*
X3060239D01*
Y1961024D01*
X3058665D02*
Y1959449D01*
X3057878Y1958662D01*
X3057091Y1959449D01*
Y1961024D01*
Y1959843D01*
X3058665D01*
X3068898Y2068110D02*
Y2065749D01*
X3067717D01*
X3067323Y2066142D01*
Y2066929D01*
X3067717Y2067323D01*
X3068898D01*
X3068110D02*
X3067323Y2068110D01*
X3066536Y2065749D02*
X3064962D01*
Y2066142D01*
X3066536Y2067717D01*
Y2068110D01*
X3064175D02*
Y2067717D01*
X3063781D01*
Y2068110D01*
X3064175D01*
X3062207Y2065749D02*
Y2068110D01*
X3061026D01*
X3060633Y2067717D01*
Y2066142D01*
X3061026Y2065749D01*
X3062207D01*
X3059846D02*
X3058271D01*
X3059058D01*
Y2068110D01*
X3057484Y2065749D02*
Y2068110D01*
X3056303D01*
X3055910Y2067717D01*
Y2067323D01*
X3056303Y2066929D01*
X3057484D01*
X3056303D01*
X3055910Y2066536D01*
Y2066142D01*
X3056303Y2065749D01*
X3057484D01*
X3068504Y2172441D02*
Y2170079D01*
X3067323D01*
X3066930Y2170473D01*
Y2171260D01*
X3067323Y2171654D01*
X3068504D01*
X3067717D02*
X3066930Y2172441D01*
X3066142Y2170079D02*
X3064568D01*
Y2170473D01*
X3066142Y2172047D01*
Y2172441D01*
X3063781D02*
Y2172047D01*
X3063387D01*
Y2172441D01*
X3063781D01*
X3061813Y2170079D02*
Y2172441D01*
X3060633D01*
X3060239Y2172047D01*
Y2170473D01*
X3060633Y2170079D01*
X3061813D01*
X3059452D02*
X3057878D01*
X3058665D01*
Y2172441D01*
X3055516Y2170473D02*
X3055910Y2170079D01*
X3056697D01*
X3057090Y2170473D01*
Y2172047D01*
X3056697Y2172441D01*
X3055910D01*
X3055516Y2172047D01*
X3067323Y2279528D02*
Y2277166D01*
X3066142D01*
X3065748Y2277560D01*
Y2278347D01*
X3066142Y2278740D01*
X3067323D01*
X3066536D02*
X3065748Y2279528D01*
X3064961Y2277166D02*
X3063387D01*
Y2277560D01*
X3064961Y2279134D01*
Y2279528D01*
X3062600D02*
Y2279134D01*
X3062206D01*
Y2279528D01*
X3062600D01*
X3060632Y2277166D02*
Y2279528D01*
X3059451D01*
X3059058Y2279134D01*
Y2277560D01*
X3059451Y2277166D01*
X3060632D01*
X3058271D02*
X3056696D01*
X3057483D01*
Y2279528D01*
X3055909Y2277166D02*
Y2279528D01*
X3054729D01*
X3054335Y2279134D01*
Y2277560D01*
X3054729Y2277166D01*
X3055909D01*
X3099606Y1977559D02*
X3101968D01*
Y1976378D01*
X3101574Y1975985D01*
X3100787D01*
X3100393Y1976378D01*
Y1977559D01*
Y1976772D02*
X3099606Y1975985D01*
X3101574Y1975198D02*
X3101968Y1974804D01*
Y1974017D01*
X3101574Y1973623D01*
X3101181D01*
X3100787Y1974017D01*
X3100393Y1973623D01*
X3100000D01*
X3099606Y1974017D01*
Y1974804D01*
X3100000Y1975198D01*
X3100393D01*
X3100787Y1974804D01*
X3101181Y1975198D01*
X3101574D01*
X3100787Y1974804D02*
Y1974017D01*
X3099606Y1972836D02*
X3100000D01*
Y1972443D01*
X3099606D01*
Y1972836D01*
X3101968Y1970868D02*
X3099606D01*
Y1969688D01*
X3100000Y1969294D01*
X3101574D01*
X3101968Y1969688D01*
Y1970868D01*
Y1968507D02*
Y1966933D01*
Y1967720D01*
X3099606D01*
Y1966145D02*
X3101181D01*
X3101968Y1965358D01*
X3101181Y1964571D01*
X3099606D01*
X3100787D01*
Y1966145D01*
X3100000Y2085433D02*
X3102361D01*
Y2084252D01*
X3101968Y2083859D01*
X3101181D01*
X3100787Y2084252D01*
Y2085433D01*
Y2084646D02*
X3100000Y2083859D01*
X3101968Y2083072D02*
X3102361Y2082678D01*
Y2081891D01*
X3101968Y2081497D01*
X3101574D01*
X3101181Y2081891D01*
X3100787Y2081497D01*
X3100394D01*
X3100000Y2081891D01*
Y2082678D01*
X3100394Y2083072D01*
X3100787D01*
X3101181Y2082678D01*
X3101574Y2083072D01*
X3101968D01*
X3101181Y2082678D02*
Y2081891D01*
X3100000Y2080710D02*
X3100394D01*
Y2080317D01*
X3100000D01*
Y2080710D01*
X3102361Y2078742D02*
X3100000D01*
Y2077562D01*
X3100394Y2077168D01*
X3101968D01*
X3102361Y2077562D01*
Y2078742D01*
Y2076381D02*
Y2074807D01*
Y2075594D01*
X3100000D01*
X3102361Y2074019D02*
X3100000D01*
Y2072839D01*
X3100394Y2072445D01*
X3100787D01*
X3101181Y2072839D01*
Y2074019D01*
Y2072839D01*
X3101574Y2072445D01*
X3101968D01*
X3102361Y2072839D01*
Y2074019D01*
X3100000Y2189764D02*
X3102361D01*
Y2188583D01*
X3101968Y2188190D01*
X3101181D01*
X3100787Y2188583D01*
Y2189764D01*
Y2188977D02*
X3100000Y2188190D01*
X3101968Y2187402D02*
X3102361Y2187009D01*
Y2186222D01*
X3101968Y2185828D01*
X3101574D01*
X3101181Y2186222D01*
X3100787Y2185828D01*
X3100394D01*
X3100000Y2186222D01*
Y2187009D01*
X3100394Y2187402D01*
X3100787D01*
X3101181Y2187009D01*
X3101574Y2187402D01*
X3101968D01*
X3101181Y2187009D02*
Y2186222D01*
X3100000Y2185041D02*
X3100394D01*
Y2184647D01*
X3100000D01*
Y2185041D01*
X3102361Y2183073D02*
X3100000D01*
Y2181892D01*
X3100394Y2181499D01*
X3101968D01*
X3102361Y2181892D01*
Y2183073D01*
Y2180712D02*
Y2179137D01*
Y2179925D01*
X3100000D01*
X3101968Y2176776D02*
X3102361Y2177169D01*
Y2177957D01*
X3101968Y2178350D01*
X3100394D01*
X3100000Y2177957D01*
Y2177169D01*
X3100394Y2176776D01*
X3100394Y2295276D02*
X3102755D01*
Y2294095D01*
X3102362Y2293701D01*
X3101574D01*
X3101181Y2294095D01*
Y2295276D01*
Y2294488D02*
X3100394Y2293701D01*
X3102362Y2292914D02*
X3102755Y2292521D01*
Y2291733D01*
X3102362Y2291340D01*
X3101968D01*
X3101574Y2291733D01*
X3101181Y2291340D01*
X3100787D01*
X3100394Y2291733D01*
Y2292521D01*
X3100787Y2292914D01*
X3101181D01*
X3101574Y2292521D01*
X3101968Y2292914D01*
X3102362D01*
X3101574Y2292521D02*
Y2291733D01*
X3100394Y2290553D02*
X3100787D01*
Y2290159D01*
X3100394D01*
Y2290553D01*
X3102755Y2288585D02*
X3100394D01*
Y2287404D01*
X3100787Y2287011D01*
X3102362D01*
X3102755Y2287404D01*
Y2288585D01*
Y2286223D02*
Y2284649D01*
Y2285436D01*
X3100394D01*
X3102755Y2283862D02*
X3100394D01*
Y2282681D01*
X3100787Y2282288D01*
X3102362D01*
X3102755Y2282681D01*
Y2283862D01*
X3090158Y1984252D02*
Y1986613D01*
X3091338D01*
X3091732Y1986220D01*
Y1985433D01*
X3091338Y1985039D01*
X3090158D01*
X3090945D02*
X3091732Y1984252D01*
X3092519Y1984645D02*
X3092912Y1984252D01*
X3093700D01*
X3094093Y1984645D01*
Y1986220D01*
X3093700Y1986613D01*
X3092912D01*
X3092519Y1986220D01*
Y1985826D01*
X3092912Y1985433D01*
X3094093D01*
X3094880Y1984252D02*
Y1984645D01*
X3095274D01*
Y1984252D01*
X3094880D01*
X3096848Y1986613D02*
Y1984252D01*
X3098029D01*
X3098422Y1984645D01*
Y1986220D01*
X3098029Y1986613D01*
X3096848D01*
X3099210D02*
X3100784D01*
X3099997D01*
Y1984252D01*
X3101571D02*
Y1985826D01*
X3102358Y1986613D01*
X3103145Y1985826D01*
Y1984252D01*
Y1985433D01*
X3101571D01*
X3071831Y2084939D02*
Y2087301D01*
X3073011D01*
X3073405Y2086907D01*
Y2086120D01*
X3073011Y2085727D01*
X3071831D01*
X3072618D02*
X3073405Y2084939D01*
X3074192Y2085333D02*
X3074586Y2084939D01*
X3075373D01*
X3075766Y2085333D01*
Y2086907D01*
X3075373Y2087301D01*
X3074586D01*
X3074192Y2086907D01*
Y2086514D01*
X3074586Y2086120D01*
X3075766D01*
X3076554Y2084939D02*
Y2085333D01*
X3076947D01*
Y2084939D01*
X3076554D01*
X3078521Y2087301D02*
Y2084939D01*
X3079702D01*
X3080096Y2085333D01*
Y2086907D01*
X3079702Y2087301D01*
X3078521D01*
X3080883D02*
X3082457D01*
X3081670D01*
Y2084939D01*
X3083244Y2087301D02*
Y2084939D01*
X3084425D01*
X3084819Y2085333D01*
Y2085727D01*
X3084425Y2086120D01*
X3083244D01*
X3084425D01*
X3084819Y2086514D01*
Y2086907D01*
X3084425Y2087301D01*
X3083244D01*
X3089764Y2195669D02*
Y2198031D01*
X3090944D01*
X3091338Y2197637D01*
Y2196850D01*
X3090944Y2196456D01*
X3089764D01*
X3090551D02*
X3091338Y2195669D01*
X3092125Y2196063D02*
X3092519Y2195669D01*
X3093306D01*
X3093699Y2196063D01*
Y2197637D01*
X3093306Y2198031D01*
X3092519D01*
X3092125Y2197637D01*
Y2197244D01*
X3092519Y2196850D01*
X3093699D01*
X3094487Y2195669D02*
Y2196063D01*
X3094880D01*
Y2195669D01*
X3094487D01*
X3096454Y2198031D02*
Y2195669D01*
X3097635D01*
X3098029Y2196063D01*
Y2197637D01*
X3097635Y2198031D01*
X3096454D01*
X3098816D02*
X3100390D01*
X3099603D01*
Y2195669D01*
X3102752Y2197637D02*
X3102358Y2198031D01*
X3101571D01*
X3101177Y2197637D01*
Y2196063D01*
X3101571Y2195669D01*
X3102358D01*
X3102752Y2196063D01*
X3070472Y2311811D02*
Y2314173D01*
X3071653D01*
X3072047Y2313779D01*
Y2312992D01*
X3071653Y2312598D01*
X3070472D01*
X3071260D02*
X3072047Y2311811D01*
X3072834Y2312205D02*
X3073227Y2311811D01*
X3074015D01*
X3074408Y2312205D01*
Y2313779D01*
X3074015Y2314173D01*
X3073227D01*
X3072834Y2313779D01*
Y2313385D01*
X3073227Y2312992D01*
X3074408D01*
X3075195Y2311811D02*
Y2312205D01*
X3075589D01*
Y2311811D01*
X3075195D01*
X3077163Y2314173D02*
Y2311811D01*
X3078344D01*
X3078737Y2312205D01*
Y2313779D01*
X3078344Y2314173D01*
X3077163D01*
X3079525D02*
X3081099D01*
X3080312D01*
Y2311811D01*
X3081886Y2314173D02*
Y2311811D01*
X3083067D01*
X3083460Y2312205D01*
Y2313779D01*
X3083067Y2314173D01*
X3081886D01*
X3046457Y1970472D02*
X3044095D01*
Y1971653D01*
X3044489Y1972047D01*
X3045276D01*
X3045670Y1971653D01*
Y1970472D01*
Y1971260D02*
X3046457Y1972047D01*
Y1972834D02*
Y1973621D01*
Y1973227D01*
X3044095D01*
X3044489Y1972834D01*
Y1974802D02*
X3044095Y1975195D01*
Y1975982D01*
X3044489Y1976376D01*
X3046063D01*
X3046457Y1975982D01*
Y1975195D01*
X3046063Y1974802D01*
X3044489D01*
X3046457Y1977163D02*
X3046063D01*
Y1977557D01*
X3046457D01*
Y1977163D01*
X3044095Y1979131D02*
X3046457D01*
Y1980312D01*
X3046063Y1980705D01*
X3044489D01*
X3044095Y1980312D01*
Y1979131D01*
Y1981492D02*
Y1983067D01*
Y1982280D01*
X3046457D01*
Y1983854D02*
X3044882D01*
X3044095Y1984641D01*
X3044882Y1985428D01*
X3046457D01*
X3045276D01*
Y1983854D01*
X3045276Y2079528D02*
X3042914D01*
Y2080708D01*
X3043308Y2081102D01*
X3044095D01*
X3044488Y2080708D01*
Y2079528D01*
Y2080315D02*
X3045276Y2081102D01*
Y2081889D02*
Y2082676D01*
Y2082283D01*
X3042914D01*
X3043308Y2081889D01*
Y2083857D02*
X3042914Y2084250D01*
Y2085038D01*
X3043308Y2085431D01*
X3044882D01*
X3045276Y2085038D01*
Y2084250D01*
X3044882Y2083857D01*
X3043308D01*
X3045276Y2086218D02*
X3044882D01*
Y2086612D01*
X3045276D01*
Y2086218D01*
X3042914Y2088186D02*
X3045276D01*
Y2089367D01*
X3044882Y2089761D01*
X3043308D01*
X3042914Y2089367D01*
Y2088186D01*
Y2090548D02*
Y2092122D01*
Y2091335D01*
X3045276D01*
X3042914Y2092909D02*
X3045276D01*
Y2094090D01*
X3044882Y2094483D01*
X3044488D01*
X3044095Y2094090D01*
Y2092909D01*
Y2094090D01*
X3043701Y2094483D01*
X3043308D01*
X3042914Y2094090D01*
Y2092909D01*
X3046063Y2187008D02*
X3043702D01*
Y2188189D01*
X3044095Y2188582D01*
X3044882D01*
X3045276Y2188189D01*
Y2187008D01*
Y2187795D02*
X3046063Y2188582D01*
Y2189369D02*
Y2190157D01*
Y2189763D01*
X3043702D01*
X3044095Y2189369D01*
Y2191337D02*
X3043702Y2191731D01*
Y2192518D01*
X3044095Y2192912D01*
X3045669D01*
X3046063Y2192518D01*
Y2191731D01*
X3045669Y2191337D01*
X3044095D01*
X3046063Y2193699D02*
X3045669D01*
Y2194092D01*
X3046063D01*
Y2193699D01*
X3043702Y2195667D02*
X3046063D01*
Y2196847D01*
X3045669Y2197241D01*
X3044095D01*
X3043702Y2196847D01*
Y2195667D01*
Y2198028D02*
Y2199602D01*
Y2198815D01*
X3046063D01*
X3044095Y2201964D02*
X3043702Y2201570D01*
Y2200783D01*
X3044095Y2200389D01*
X3045669D01*
X3046063Y2200783D01*
Y2201570D01*
X3045669Y2201964D01*
X3046457Y2289370D02*
X3044095D01*
Y2290551D01*
X3044489Y2290944D01*
X3045276D01*
X3045670Y2290551D01*
Y2289370D01*
Y2290157D02*
X3046457Y2290944D01*
Y2291731D02*
Y2292519D01*
Y2292125D01*
X3044095D01*
X3044489Y2291731D01*
Y2293699D02*
X3044095Y2294093D01*
Y2294880D01*
X3044489Y2295274D01*
X3046063D01*
X3046457Y2294880D01*
Y2294093D01*
X3046063Y2293699D01*
X3044489D01*
X3046457Y2296061D02*
X3046063D01*
Y2296454D01*
X3046457D01*
Y2296061D01*
X3044095Y2298029D02*
X3046457D01*
Y2299209D01*
X3046063Y2299603D01*
X3044489D01*
X3044095Y2299209D01*
Y2298029D01*
Y2300390D02*
Y2301964D01*
Y2301177D01*
X3046457D01*
X3044095Y2302752D02*
X3046457D01*
Y2303932D01*
X3046063Y2304326D01*
X3044489D01*
X3044095Y2303932D01*
Y2302752D01*
X3018504Y1974409D02*
Y1976771D01*
X3019685D01*
X3020078Y1976377D01*
Y1975590D01*
X3019685Y1975197D01*
X3018504D01*
X3019291D02*
X3020078Y1974409D01*
X3020865D02*
X3021652D01*
X3021259D01*
Y1976771D01*
X3020865Y1976377D01*
X3022833Y1974409D02*
X3023620D01*
X3023227D01*
Y1976771D01*
X3022833Y1976377D01*
X3024801Y1974409D02*
Y1974803D01*
X3025195D01*
Y1974409D01*
X3024801D01*
X3026769Y1976771D02*
Y1974409D01*
X3027950D01*
X3028343Y1974803D01*
Y1976377D01*
X3027950Y1976771D01*
X3026769D01*
X3029130D02*
X3030705D01*
X3029918D01*
Y1974409D01*
X3031492D02*
Y1975984D01*
X3032279Y1976771D01*
X3033066Y1975984D01*
Y1974409D01*
Y1975590D01*
X3031492D01*
X3018504Y2080315D02*
Y2082676D01*
X3019685D01*
X3020078Y2082283D01*
Y2081496D01*
X3019685Y2081102D01*
X3018504D01*
X3019291D02*
X3020078Y2080315D01*
X3020865D02*
X3021652D01*
X3021259D01*
Y2082676D01*
X3020865Y2082283D01*
X3022833Y2080315D02*
X3023620D01*
X3023227D01*
Y2082676D01*
X3022833Y2082283D01*
X3024801Y2080315D02*
Y2080709D01*
X3025195D01*
Y2080315D01*
X3024801D01*
X3026769Y2082676D02*
Y2080315D01*
X3027950D01*
X3028343Y2080709D01*
Y2082283D01*
X3027950Y2082676D01*
X3026769D01*
X3029130D02*
X3030705D01*
X3029918D01*
Y2080315D01*
X3031492Y2082676D02*
Y2080315D01*
X3032673D01*
X3033066Y2080709D01*
Y2081102D01*
X3032673Y2081496D01*
X3031492D01*
X3032673D01*
X3033066Y2081889D01*
Y2082283D01*
X3032673Y2082676D01*
X3031492D01*
X3018504Y2186614D02*
Y2188976D01*
X3019685D01*
X3020078Y2188582D01*
Y2187795D01*
X3019685Y2187401D01*
X3018504D01*
X3019291D02*
X3020078Y2186614D01*
X3020865D02*
X3021652D01*
X3021259D01*
Y2188976D01*
X3020865Y2188582D01*
X3022833Y2186614D02*
X3023620D01*
X3023227D01*
Y2188976D01*
X3022833Y2188582D01*
X3024801Y2186614D02*
Y2187008D01*
X3025195D01*
Y2186614D01*
X3024801D01*
X3026769Y2188976D02*
Y2186614D01*
X3027950D01*
X3028343Y2187008D01*
Y2188582D01*
X3027950Y2188976D01*
X3026769D01*
X3029130D02*
X3030705D01*
X3029918D01*
Y2186614D01*
X3033066Y2188582D02*
X3032673Y2188976D01*
X3031885D01*
X3031492Y2188582D01*
Y2187008D01*
X3031885Y2186614D01*
X3032673D01*
X3033066Y2187008D01*
X3017716Y2292126D02*
Y2294487D01*
X3018897D01*
X3019291Y2294094D01*
Y2293307D01*
X3018897Y2292913D01*
X3017716D01*
X3018504D02*
X3019291Y2292126D01*
X3020078D02*
X3020865D01*
X3020472D01*
Y2294487D01*
X3020078Y2294094D01*
X3022046Y2292126D02*
X3022833D01*
X3022439D01*
Y2294487D01*
X3022046Y2294094D01*
X3024014Y2292126D02*
Y2292520D01*
X3024407D01*
Y2292126D01*
X3024014D01*
X3025982Y2294487D02*
Y2292126D01*
X3027162D01*
X3027556Y2292520D01*
Y2294094D01*
X3027162Y2294487D01*
X3025982D01*
X3028343D02*
X3029917D01*
X3029130D01*
Y2292126D01*
X3030704Y2294487D02*
Y2292126D01*
X3031885D01*
X3032279Y2292520D01*
Y2294094D01*
X3031885Y2294487D01*
X3030704D01*
X3018800Y1899800D02*
Y1902161D01*
X3019981D01*
X3020374Y1901768D01*
Y1900981D01*
X3019981Y1900587D01*
X3018800D01*
X3019587D02*
X3020374Y1899800D01*
X3021161D02*
X3021949D01*
X3021555D01*
Y1902161D01*
X3021161Y1901768D01*
X3023129D02*
X3023523Y1902161D01*
X3024310D01*
X3024704Y1901768D01*
Y1901374D01*
X3024310Y1900981D01*
X3023916D01*
X3024310D01*
X3024704Y1900587D01*
Y1900194D01*
X3024310Y1899800D01*
X3023523D01*
X3023129Y1900194D01*
X3025491Y1899800D02*
Y1900194D01*
X3025884D01*
Y1899800D01*
X3025491D01*
X3027459Y1902161D02*
Y1899800D01*
X3028639D01*
X3029033Y1900194D01*
Y1901768D01*
X3028639Y1902161D01*
X3027459D01*
X3029820D02*
X3031394D01*
X3030607D01*
Y1899800D01*
X3032182D02*
Y1901374D01*
X3032969Y1902161D01*
X3033756Y1901374D01*
Y1899800D01*
Y1900981D01*
X3032182D01*
X3018800Y2005800D02*
Y2008161D01*
X3019981D01*
X3020374Y2007768D01*
Y2006981D01*
X3019981Y2006587D01*
X3018800D01*
X3019587D02*
X3020374Y2005800D01*
X3021161D02*
X3021949D01*
X3021555D01*
Y2008161D01*
X3021161Y2007768D01*
X3023129D02*
X3023523Y2008161D01*
X3024310D01*
X3024704Y2007768D01*
Y2007374D01*
X3024310Y2006981D01*
X3023916D01*
X3024310D01*
X3024704Y2006587D01*
Y2006194D01*
X3024310Y2005800D01*
X3023523D01*
X3023129Y2006194D01*
X3025491Y2005800D02*
Y2006194D01*
X3025884D01*
Y2005800D01*
X3025491D01*
X3027459Y2008161D02*
Y2005800D01*
X3028639D01*
X3029033Y2006194D01*
Y2007768D01*
X3028639Y2008161D01*
X3027459D01*
X3029820D02*
X3031394D01*
X3030607D01*
Y2005800D01*
X3032182Y2008161D02*
Y2005800D01*
X3033362D01*
X3033756Y2006194D01*
Y2006587D01*
X3033362Y2006981D01*
X3032182D01*
X3033362D01*
X3033756Y2007374D01*
Y2007768D01*
X3033362Y2008161D01*
X3032182D01*
X3018898Y2111417D02*
Y2113779D01*
X3020078D01*
X3020472Y2113385D01*
Y2112598D01*
X3020078Y2112205D01*
X3018898D01*
X3019685D02*
X3020472Y2111417D01*
X3021259D02*
X3022046D01*
X3021653D01*
Y2113779D01*
X3021259Y2113385D01*
X3023227D02*
X3023620Y2113779D01*
X3024408D01*
X3024801Y2113385D01*
Y2112992D01*
X3024408Y2112598D01*
X3024014D01*
X3024408D01*
X3024801Y2112205D01*
Y2111811D01*
X3024408Y2111417D01*
X3023620D01*
X3023227Y2111811D01*
X3025588Y2111417D02*
Y2111811D01*
X3025982D01*
Y2111417D01*
X3025588D01*
X3027556Y2113779D02*
Y2111417D01*
X3028737D01*
X3029131Y2111811D01*
Y2113385D01*
X3028737Y2113779D01*
X3027556D01*
X3029918D02*
X3031492D01*
X3030705D01*
Y2111417D01*
X3033853Y2113385D02*
X3033460Y2113779D01*
X3032673D01*
X3032279Y2113385D01*
Y2111811D01*
X3032673Y2111417D01*
X3033460D01*
X3033853Y2111811D01*
X3018800Y2217800D02*
Y2220161D01*
X3019981D01*
X3020374Y2219768D01*
Y2218981D01*
X3019981Y2218587D01*
X3018800D01*
X3019587D02*
X3020374Y2217800D01*
X3021161D02*
X3021949D01*
X3021555D01*
Y2220161D01*
X3021161Y2219768D01*
X3023129D02*
X3023523Y2220161D01*
X3024310D01*
X3024704Y2219768D01*
Y2219374D01*
X3024310Y2218981D01*
X3023916D01*
X3024310D01*
X3024704Y2218587D01*
Y2218194D01*
X3024310Y2217800D01*
X3023523D01*
X3023129Y2218194D01*
X3025491Y2217800D02*
Y2218194D01*
X3025884D01*
Y2217800D01*
X3025491D01*
X3027459Y2220161D02*
Y2217800D01*
X3028639D01*
X3029033Y2218194D01*
Y2219768D01*
X3028639Y2220161D01*
X3027459D01*
X3029820D02*
X3031394D01*
X3030607D01*
Y2217800D01*
X3032182Y2220161D02*
Y2217800D01*
X3033362D01*
X3033756Y2218194D01*
Y2219768D01*
X3033362Y2220161D01*
X3032182D01*
X3050000Y1917323D02*
Y1919684D01*
X3051181D01*
X3051574Y1919291D01*
Y1918504D01*
X3051181Y1918110D01*
X3050000D01*
X3050787D02*
X3051574Y1917323D01*
X3052361D02*
X3053149D01*
X3052755D01*
Y1919684D01*
X3052361Y1919291D01*
X3055510Y1917323D02*
Y1919684D01*
X3054329Y1918504D01*
X3055904D01*
X3056691Y1917323D02*
Y1917716D01*
X3057084D01*
Y1917323D01*
X3056691D01*
X3058659Y1919684D02*
Y1917323D01*
X3059839D01*
X3060233Y1917716D01*
Y1919291D01*
X3059839Y1919684D01*
X3058659D01*
X3061020D02*
X3062594D01*
X3061807D01*
Y1917323D01*
X3063382D02*
Y1918897D01*
X3064169Y1919684D01*
X3064956Y1918897D01*
Y1917323D01*
Y1918504D01*
X3063382D01*
X3051181Y2022835D02*
Y2025196D01*
X3052362D01*
X3052755Y2024803D01*
Y2024015D01*
X3052362Y2023622D01*
X3051181D01*
X3051968D02*
X3052755Y2022835D01*
X3053543D02*
X3054330D01*
X3053936D01*
Y2025196D01*
X3053543Y2024803D01*
X3056691Y2022835D02*
Y2025196D01*
X3055510Y2024015D01*
X3057085D01*
X3057872Y2022835D02*
Y2023228D01*
X3058265D01*
Y2022835D01*
X3057872D01*
X3059840Y2025196D02*
Y2022835D01*
X3061020D01*
X3061414Y2023228D01*
Y2024803D01*
X3061020Y2025196D01*
X3059840D01*
X3062201D02*
X3063775D01*
X3062988D01*
Y2022835D01*
X3064563Y2025196D02*
Y2022835D01*
X3065743D01*
X3066137Y2023228D01*
Y2023622D01*
X3065743Y2024015D01*
X3064563D01*
X3065743D01*
X3066137Y2024409D01*
Y2024803D01*
X3065743Y2025196D01*
X3064563D01*
X3052362Y2129134D02*
Y2131495D01*
X3053543D01*
X3053937Y2131102D01*
Y2130315D01*
X3053543Y2129921D01*
X3052362D01*
X3053149D02*
X3053937Y2129134D01*
X3054724D02*
X3055511D01*
X3055117D01*
Y2131495D01*
X3054724Y2131102D01*
X3057872Y2129134D02*
Y2131495D01*
X3056692Y2130315D01*
X3058266D01*
X3059053Y2129134D02*
Y2129527D01*
X3059447D01*
Y2129134D01*
X3059053D01*
X3061021Y2131495D02*
Y2129134D01*
X3062201D01*
X3062595Y2129527D01*
Y2131102D01*
X3062201Y2131495D01*
X3061021D01*
X3063382D02*
X3064956D01*
X3064169D01*
Y2129134D01*
X3067318Y2131102D02*
X3066924Y2131495D01*
X3066137D01*
X3065744Y2131102D01*
Y2129527D01*
X3066137Y2129134D01*
X3066924D01*
X3067318Y2129527D01*
X3054331Y2235433D02*
Y2237794D01*
X3055511D01*
X3055905Y2237401D01*
Y2236614D01*
X3055511Y2236220D01*
X3054331D01*
X3055118D02*
X3055905Y2235433D01*
X3056692D02*
X3057479D01*
X3057086D01*
Y2237794D01*
X3056692Y2237401D01*
X3059841Y2235433D02*
Y2237794D01*
X3058660Y2236614D01*
X3060234D01*
X3061021Y2235433D02*
Y2235827D01*
X3061415D01*
Y2235433D01*
X3061021D01*
X3062989Y2237794D02*
Y2235433D01*
X3064170D01*
X3064564Y2235827D01*
Y2237401D01*
X3064170Y2237794D01*
X3062989D01*
X3065351D02*
X3066925D01*
X3066138D01*
Y2235433D01*
X3067712Y2237794D02*
Y2235433D01*
X3068893D01*
X3069287Y2235827D01*
Y2237401D01*
X3068893Y2237794D01*
X3067712D01*
X3100787Y1913386D02*
X3103149D01*
Y1912205D01*
X3102755Y1911811D01*
X3101968D01*
X3101575Y1912205D01*
Y1913386D01*
Y1912599D02*
X3100787Y1911811D01*
Y1911024D02*
Y1910237D01*
Y1910631D01*
X3103149D01*
X3102755Y1911024D01*
X3103149Y1907482D02*
Y1909056D01*
X3101968D01*
X3102362Y1908269D01*
Y1907876D01*
X3101968Y1907482D01*
X3101181D01*
X3100787Y1907876D01*
Y1908663D01*
X3101181Y1909056D01*
X3100787Y1906695D02*
X3101181D01*
Y1906301D01*
X3100787D01*
Y1906695D01*
X3103149Y1904727D02*
X3100787D01*
Y1903547D01*
X3101181Y1903153D01*
X3102755D01*
X3103149Y1903547D01*
Y1904727D01*
Y1902366D02*
Y1900792D01*
Y1901579D01*
X3100787D01*
Y1900004D02*
X3102362D01*
X3103149Y1899217D01*
X3102362Y1898430D01*
X3100787D01*
X3101968D01*
Y1900004D01*
X3100394Y2016929D02*
X3102755D01*
Y2015748D01*
X3102362Y2015355D01*
X3101574D01*
X3101181Y2015748D01*
Y2016929D01*
Y2016142D02*
X3100394Y2015355D01*
Y2014568D02*
Y2013781D01*
Y2014174D01*
X3102755D01*
X3102362Y2014568D01*
X3102755Y2011025D02*
Y2012600D01*
X3101574D01*
X3101968Y2011813D01*
Y2011419D01*
X3101574Y2011025D01*
X3100787D01*
X3100394Y2011419D01*
Y2012206D01*
X3100787Y2012600D01*
X3100394Y2010238D02*
X3100787D01*
Y2009845D01*
X3100394D01*
Y2010238D01*
X3102755Y2008270D02*
X3100394D01*
Y2007090D01*
X3100787Y2006696D01*
X3102362D01*
X3102755Y2007090D01*
Y2008270D01*
Y2005909D02*
Y2004335D01*
Y2005122D01*
X3100394D01*
X3102755Y2003548D02*
X3100394D01*
Y2002367D01*
X3100787Y2001973D01*
X3101181D01*
X3101574Y2002367D01*
Y2003548D01*
Y2002367D01*
X3101968Y2001973D01*
X3102362D01*
X3102755Y2002367D01*
Y2003548D01*
X3100787Y2125591D02*
X3103149D01*
Y2124410D01*
X3102755Y2124016D01*
X3101968D01*
X3101575Y2124410D01*
Y2125591D01*
Y2124803D02*
X3100787Y2124016D01*
Y2123229D02*
Y2122442D01*
Y2122836D01*
X3103149D01*
X3102755Y2123229D01*
X3103149Y2119687D02*
Y2121261D01*
X3101968D01*
X3102362Y2120474D01*
Y2120081D01*
X3101968Y2119687D01*
X3101181D01*
X3100787Y2120081D01*
Y2120868D01*
X3101181Y2121261D01*
X3100787Y2118900D02*
X3101181D01*
Y2118506D01*
X3100787D01*
Y2118900D01*
X3103149Y2116932D02*
X3100787D01*
Y2115751D01*
X3101181Y2115358D01*
X3102755D01*
X3103149Y2115751D01*
Y2116932D01*
Y2114570D02*
Y2112996D01*
Y2113783D01*
X3100787D01*
X3102755Y2110635D02*
X3103149Y2111028D01*
Y2111815D01*
X3102755Y2112209D01*
X3101181D01*
X3100787Y2111815D01*
Y2111028D01*
X3101181Y2110635D01*
X3099213Y2232677D02*
X3101574D01*
Y2231496D01*
X3101180Y2231103D01*
X3100393D01*
X3100000Y2231496D01*
Y2232677D01*
Y2231890D02*
X3099213Y2231103D01*
Y2230316D02*
Y2229529D01*
Y2229922D01*
X3101574D01*
X3101180Y2230316D01*
X3101574Y2226774D02*
Y2228348D01*
X3100393D01*
X3100787Y2227561D01*
Y2227167D01*
X3100393Y2226774D01*
X3099606D01*
X3099213Y2227167D01*
Y2227954D01*
X3099606Y2228348D01*
X3099213Y2225986D02*
X3099606D01*
Y2225593D01*
X3099213D01*
Y2225986D01*
X3101574Y2224019D02*
X3099213D01*
Y2222838D01*
X3099606Y2222444D01*
X3101180D01*
X3101574Y2222838D01*
Y2224019D01*
Y2221657D02*
Y2220083D01*
Y2220870D01*
X3099213D01*
X3101574Y2219296D02*
X3099213D01*
Y2218115D01*
X3099606Y2217721D01*
X3101180D01*
X3101574Y2218115D01*
Y2219296D01*
X3070079Y1907087D02*
Y1909448D01*
X3071259D01*
X3071653Y1909055D01*
Y1908267D01*
X3071259Y1907874D01*
X3070079D01*
X3070866D02*
X3071653Y1907087D01*
X3072440D02*
X3073227D01*
X3072834D01*
Y1909448D01*
X3072440Y1909055D01*
X3075982Y1909448D02*
X3075195Y1909055D01*
X3074408Y1908267D01*
Y1907480D01*
X3074802Y1907087D01*
X3075589D01*
X3075982Y1907480D01*
Y1907874D01*
X3075589Y1908267D01*
X3074408D01*
X3076769Y1907087D02*
Y1907480D01*
X3077163D01*
Y1907087D01*
X3076769D01*
X3078737Y1909448D02*
Y1907087D01*
X3079918D01*
X3080312Y1907480D01*
Y1909055D01*
X3079918Y1909448D01*
X3078737D01*
X3081099D02*
X3082673D01*
X3081886D01*
Y1907087D01*
X3083460D02*
Y1908661D01*
X3084247Y1909448D01*
X3085035Y1908661D01*
Y1907087D01*
Y1908267D01*
X3083460D01*
X3070866Y2013386D02*
Y2015747D01*
X3072047D01*
X3072440Y2015354D01*
Y2014566D01*
X3072047Y2014173D01*
X3070866D01*
X3071653D02*
X3072440Y2013386D01*
X3073228D02*
X3074015D01*
X3073621D01*
Y2015747D01*
X3073228Y2015354D01*
X3076770Y2015747D02*
X3075983Y2015354D01*
X3075195Y2014566D01*
Y2013779D01*
X3075589Y2013386D01*
X3076376D01*
X3076770Y2013779D01*
Y2014173D01*
X3076376Y2014566D01*
X3075195D01*
X3077557Y2013386D02*
Y2013779D01*
X3077950D01*
Y2013386D01*
X3077557D01*
X3079525Y2015747D02*
Y2013386D01*
X3080705D01*
X3081099Y2013779D01*
Y2015354D01*
X3080705Y2015747D01*
X3079525D01*
X3081886D02*
X3083460D01*
X3082673D01*
Y2013386D01*
X3084248Y2015747D02*
Y2013386D01*
X3085428D01*
X3085822Y2013779D01*
Y2014173D01*
X3085428Y2014566D01*
X3084248D01*
X3085428D01*
X3085822Y2014960D01*
Y2015354D01*
X3085428Y2015747D01*
X3084248D01*
X3070756Y2120050D02*
Y2122411D01*
X3071937D01*
X3072330Y2122017D01*
Y2121230D01*
X3071937Y2120837D01*
X3070756D01*
X3071543D02*
X3072330Y2120050D01*
X3073117D02*
X3073904D01*
X3073511D01*
Y2122411D01*
X3073117Y2122017D01*
X3076660Y2122411D02*
X3075872Y2122017D01*
X3075085Y2121230D01*
Y2120443D01*
X3075479Y2120050D01*
X3076266D01*
X3076660Y2120443D01*
Y2120837D01*
X3076266Y2121230D01*
X3075085D01*
X3077447Y2120050D02*
Y2120443D01*
X3077840D01*
Y2120050D01*
X3077447D01*
X3079415Y2122411D02*
Y2120050D01*
X3080595D01*
X3080989Y2120443D01*
Y2122017D01*
X3080595Y2122411D01*
X3079415D01*
X3081776D02*
X3083350D01*
X3082563D01*
Y2120050D01*
X3085712Y2122017D02*
X3085318Y2122411D01*
X3084531D01*
X3084137Y2122017D01*
Y2120443D01*
X3084531Y2120050D01*
X3085318D01*
X3085712Y2120443D01*
X3070079Y2225591D02*
Y2227952D01*
X3071259D01*
X3071653Y2227558D01*
Y2226771D01*
X3071259Y2226378D01*
X3070079D01*
X3070866D02*
X3071653Y2225591D01*
X3072440D02*
X3073227D01*
X3072834D01*
Y2227952D01*
X3072440Y2227558D01*
X3075982Y2227952D02*
X3075195Y2227558D01*
X3074408Y2226771D01*
Y2225984D01*
X3074802Y2225591D01*
X3075589D01*
X3075982Y2225984D01*
Y2226378D01*
X3075589Y2226771D01*
X3074408D01*
X3076769Y2225591D02*
Y2225984D01*
X3077163D01*
Y2225591D01*
X3076769D01*
X3078737Y2227952D02*
Y2225591D01*
X3079918D01*
X3080312Y2225984D01*
Y2227558D01*
X3079918Y2227952D01*
X3078737D01*
X3081099D02*
X3082673D01*
X3081886D01*
Y2225591D01*
X3083460Y2227952D02*
Y2225591D01*
X3084641D01*
X3085035Y2225984D01*
Y2227558D01*
X3084641Y2227952D01*
X3083460D01*
X3045669Y1896457D02*
X3043308D01*
Y1897637D01*
X3043701Y1898031D01*
X3044489D01*
X3044882Y1897637D01*
Y1896457D01*
Y1897244D02*
X3045669Y1898031D01*
Y1898818D02*
Y1899605D01*
Y1899212D01*
X3043308D01*
X3043701Y1898818D01*
X3043308Y1900786D02*
Y1902360D01*
X3043701D01*
X3045276Y1900786D01*
X3045669D01*
Y1903147D02*
X3045276D01*
Y1903541D01*
X3045669D01*
Y1903147D01*
X3043308Y1905115D02*
X3045669D01*
Y1906296D01*
X3045276Y1906690D01*
X3043701D01*
X3043308Y1906296D01*
Y1905115D01*
Y1907477D02*
Y1909051D01*
Y1908264D01*
X3045669D01*
Y1909838D02*
X3044095D01*
X3043308Y1910625D01*
X3044095Y1911412D01*
X3045669D01*
X3044489D01*
Y1909838D01*
X3044882Y2010236D02*
X3042520D01*
Y2011417D01*
X3042914Y2011810D01*
X3043701D01*
X3044095Y2011417D01*
Y2010236D01*
Y2011023D02*
X3044882Y2011810D01*
Y2012598D02*
Y2013385D01*
Y2012991D01*
X3042520D01*
X3042914Y2012598D01*
X3042520Y2014565D02*
Y2016140D01*
X3042914D01*
X3044488Y2014565D01*
X3044882D01*
Y2016927D02*
X3044488D01*
Y2017320D01*
X3044882D01*
Y2016927D01*
X3042520Y2018895D02*
X3044882D01*
Y2020075D01*
X3044488Y2020469D01*
X3042914D01*
X3042520Y2020075D01*
Y2018895D01*
Y2021256D02*
Y2022831D01*
Y2022043D01*
X3044882D01*
X3042520Y2023618D02*
X3044882D01*
Y2024798D01*
X3044488Y2025192D01*
X3044095D01*
X3043701Y2024798D01*
Y2023618D01*
Y2024798D01*
X3043308Y2025192D01*
X3042914D01*
X3042520Y2024798D01*
Y2023618D01*
X3044882Y2113779D02*
X3042520D01*
Y2114960D01*
X3042914Y2115354D01*
X3043701D01*
X3044095Y2114960D01*
Y2113779D01*
Y2114567D02*
X3044882Y2115354D01*
Y2116141D02*
Y2116928D01*
Y2116534D01*
X3042520D01*
X3042914Y2116141D01*
X3042520Y2118109D02*
Y2119683D01*
X3042914D01*
X3044488Y2118109D01*
X3044882D01*
Y2120470D02*
X3044488D01*
Y2120864D01*
X3044882D01*
Y2120470D01*
X3042520Y2122438D02*
X3044882D01*
Y2123619D01*
X3044488Y2124012D01*
X3042914D01*
X3042520Y2123619D01*
Y2122438D01*
Y2124800D02*
Y2126374D01*
Y2125587D01*
X3044882D01*
X3042914Y2128735D02*
X3042520Y2128342D01*
Y2127555D01*
X3042914Y2127161D01*
X3044488D01*
X3044882Y2127555D01*
Y2128342D01*
X3044488Y2128735D01*
X3044094Y2220079D02*
X3041733D01*
Y2221259D01*
X3042127Y2221653D01*
X3042914D01*
X3043307Y2221259D01*
Y2220079D01*
Y2220866D02*
X3044094Y2221653D01*
Y2222440D02*
Y2223227D01*
Y2222834D01*
X3041733D01*
X3042127Y2222440D01*
X3041733Y2224408D02*
Y2225982D01*
X3042127D01*
X3043701Y2224408D01*
X3044094D01*
Y2226769D02*
X3043701D01*
Y2227163D01*
X3044094D01*
Y2226769D01*
X3041733Y2228737D02*
X3044094D01*
Y2229918D01*
X3043701Y2230312D01*
X3042127D01*
X3041733Y2229918D01*
Y2228737D01*
Y2231099D02*
Y2232673D01*
Y2231886D01*
X3044094D01*
X3041733Y2233460D02*
X3044094D01*
Y2234641D01*
X3043701Y2235035D01*
X3042127D01*
X3041733Y2234641D01*
Y2233460D01*
X3187900Y2135800D02*
Y2138161D01*
X3189081D01*
X3189474Y2137768D01*
Y2136981D01*
X3189081Y2136587D01*
X3187900D01*
X3188687D02*
X3189474Y2135800D01*
X3190261Y2137768D02*
X3190655Y2138161D01*
X3191442D01*
X3191836Y2137768D01*
Y2137374D01*
X3191442Y2136981D01*
X3191049D01*
X3191442D01*
X3191836Y2136587D01*
Y2136194D01*
X3191442Y2135800D01*
X3190655D01*
X3190261Y2136194D01*
X3194197Y2138161D02*
X3193410Y2137768D01*
X3192623Y2136981D01*
Y2136194D01*
X3193016Y2135800D01*
X3193804D01*
X3194197Y2136194D01*
Y2136587D01*
X3193804Y2136981D01*
X3192623D01*
X3187400Y2111300D02*
Y2113661D01*
X3188581D01*
X3188974Y2113268D01*
Y2112481D01*
X3188581Y2112087D01*
X3187400D01*
X3188187D02*
X3188974Y2111300D01*
X3189761Y2113268D02*
X3190155Y2113661D01*
X3190942D01*
X3191336Y2113268D01*
Y2112874D01*
X3190942Y2112481D01*
X3190549D01*
X3190942D01*
X3191336Y2112087D01*
Y2111694D01*
X3190942Y2111300D01*
X3190155D01*
X3189761Y2111694D01*
X3192123Y2113268D02*
X3192516Y2113661D01*
X3193304D01*
X3193697Y2113268D01*
Y2112874D01*
X3193304Y2112481D01*
X3193697Y2112087D01*
Y2111694D01*
X3193304Y2111300D01*
X3192516D01*
X3192123Y2111694D01*
Y2112087D01*
X3192516Y2112481D01*
X3192123Y2112874D01*
Y2113268D01*
X3192516Y2112481D02*
X3193304D01*
X3187400Y2097300D02*
Y2099661D01*
X3188581D01*
X3188974Y2099268D01*
Y2098481D01*
X3188581Y2098087D01*
X3187400D01*
X3188187D02*
X3188974Y2097300D01*
X3189761Y2099268D02*
X3190155Y2099661D01*
X3190942D01*
X3191336Y2099268D01*
Y2098874D01*
X3190942Y2098481D01*
X3190549D01*
X3190942D01*
X3191336Y2098087D01*
Y2097694D01*
X3190942Y2097300D01*
X3190155D01*
X3189761Y2097694D01*
X3192123D02*
X3192516Y2097300D01*
X3193304D01*
X3193697Y2097694D01*
Y2099268D01*
X3193304Y2099661D01*
X3192516D01*
X3192123Y2099268D01*
Y2098874D01*
X3192516Y2098481D01*
X3193697D01*
X3217300Y2026300D02*
Y2028661D01*
X3218481D01*
X3218874Y2028268D01*
Y2027481D01*
X3218481Y2027087D01*
X3217300D01*
X3218087D02*
X3218874Y2026300D01*
X3220842D02*
Y2028661D01*
X3219661Y2027481D01*
X3221236D01*
X3222023Y2028268D02*
X3222416Y2028661D01*
X3223204D01*
X3223597Y2028268D01*
Y2027874D01*
X3223204Y2027481D01*
X3223597Y2027087D01*
Y2026694D01*
X3223204Y2026300D01*
X3222416D01*
X3222023Y2026694D01*
Y2027087D01*
X3222416Y2027481D01*
X3222023Y2027874D01*
Y2028268D01*
X3222416Y2027481D02*
X3223204D01*
X3141300Y2072300D02*
Y2074661D01*
X3142481D01*
X3142874Y2074268D01*
Y2073481D01*
X3142481Y2073087D01*
X3141300D01*
X3142087D02*
X3142874Y2072300D01*
X3144842D02*
Y2074661D01*
X3143661Y2073481D01*
X3145236D01*
X3146023Y2072694D02*
X3146416Y2072300D01*
X3147204D01*
X3147597Y2072694D01*
Y2074268D01*
X3147204Y2074661D01*
X3146416D01*
X3146023Y2074268D01*
Y2073874D01*
X3146416Y2073481D01*
X3147597D01*
X3245400Y2062800D02*
Y2065161D01*
X3246581D01*
X3246974Y2064768D01*
Y2063981D01*
X3246581Y2063587D01*
X3245400D01*
X3246187D02*
X3246974Y2062800D01*
X3249336Y2065161D02*
X3247762D01*
Y2063981D01*
X3248549Y2064374D01*
X3248942D01*
X3249336Y2063981D01*
Y2063194D01*
X3248942Y2062800D01*
X3248155D01*
X3247762Y2063194D01*
X3250123Y2064768D02*
X3250517Y2065161D01*
X3251303D01*
X3251697Y2064768D01*
Y2063194D01*
X3251303Y2062800D01*
X3250517D01*
X3250123Y2063194D01*
Y2064768D01*
X3202756Y2060236D02*
Y2062598D01*
X3203937D01*
X3204330Y2062204D01*
Y2061417D01*
X3203937Y2061023D01*
X3202756D01*
X3203543D02*
X3204330Y2060236D01*
X3206692Y2062598D02*
X3205117D01*
Y2061417D01*
X3205904Y2061810D01*
X3206298D01*
X3206692Y2061417D01*
Y2060630D01*
X3206298Y2060236D01*
X3205511D01*
X3205117Y2060630D01*
X3207479Y2060236D02*
X3208266D01*
X3207872D01*
Y2062598D01*
X3207479Y2062204D01*
X3206800Y2143300D02*
Y2145661D01*
X3207981D01*
X3208374Y2145268D01*
Y2144481D01*
X3207981Y2144087D01*
X3206800D01*
X3207587D02*
X3208374Y2143300D01*
X3210736Y2145661D02*
X3209161D01*
Y2144481D01*
X3209949Y2144874D01*
X3210342D01*
X3210736Y2144481D01*
Y2143694D01*
X3210342Y2143300D01*
X3209555D01*
X3209161Y2143694D01*
X3213097Y2143300D02*
X3211523D01*
X3213097Y2144874D01*
Y2145268D01*
X3212704Y2145661D01*
X3211916D01*
X3211523Y2145268D01*
X3206800Y2104300D02*
Y2106661D01*
X3207981D01*
X3208374Y2106268D01*
Y2105481D01*
X3207981Y2105087D01*
X3206800D01*
X3207587D02*
X3208374Y2104300D01*
X3210736Y2106661D02*
X3209161D01*
Y2105481D01*
X3209949Y2105874D01*
X3210342D01*
X3210736Y2105481D01*
Y2104694D01*
X3210342Y2104300D01*
X3209555D01*
X3209161Y2104694D01*
X3211523Y2106268D02*
X3211916Y2106661D01*
X3212704D01*
X3213097Y2106268D01*
Y2105874D01*
X3212704Y2105481D01*
X3212310D01*
X3212704D01*
X3213097Y2105087D01*
Y2104694D01*
X3212704Y2104300D01*
X3211916D01*
X3211523Y2104694D01*
X3206800Y2090300D02*
Y2092661D01*
X3207981D01*
X3208374Y2092268D01*
Y2091481D01*
X3207981Y2091087D01*
X3206800D01*
X3207587D02*
X3208374Y2090300D01*
X3210736Y2092661D02*
X3209161D01*
Y2091481D01*
X3209949Y2091874D01*
X3210342D01*
X3210736Y2091481D01*
Y2090694D01*
X3210342Y2090300D01*
X3209555D01*
X3209161Y2090694D01*
X3212704Y2090300D02*
Y2092661D01*
X3211523Y2091481D01*
X3213097D01*
X3206800Y2128300D02*
Y2130661D01*
X3207981D01*
X3208374Y2130268D01*
Y2129481D01*
X3207981Y2129087D01*
X3206800D01*
X3207587D02*
X3208374Y2128300D01*
X3210736Y2130661D02*
X3209161D01*
Y2129481D01*
X3209949Y2129874D01*
X3210342D01*
X3210736Y2129481D01*
Y2128694D01*
X3210342Y2128300D01*
X3209555D01*
X3209161Y2128694D01*
X3213097Y2130661D02*
X3211523D01*
Y2129481D01*
X3212310Y2129874D01*
X3212704D01*
X3213097Y2129481D01*
Y2128694D01*
X3212704Y2128300D01*
X3211916D01*
X3211523Y2128694D01*
X3207300Y2171800D02*
Y2174161D01*
X3208481D01*
X3208874Y2173768D01*
Y2172981D01*
X3208481Y2172587D01*
X3207300D01*
X3208087D02*
X3208874Y2171800D01*
X3211236Y2174161D02*
X3209661D01*
Y2172981D01*
X3210448Y2173374D01*
X3210842D01*
X3211236Y2172981D01*
Y2172194D01*
X3210842Y2171800D01*
X3210055D01*
X3209661Y2172194D01*
X3213597Y2174161D02*
X3212810Y2173768D01*
X3212023Y2172981D01*
Y2172194D01*
X3212416Y2171800D01*
X3213203D01*
X3213597Y2172194D01*
Y2172587D01*
X3213203Y2172981D01*
X3212023D01*
X3207300Y2186300D02*
Y2188661D01*
X3208481D01*
X3208874Y2188268D01*
Y2187481D01*
X3208481Y2187087D01*
X3207300D01*
X3208087D02*
X3208874Y2186300D01*
X3211236Y2188661D02*
X3209661D01*
Y2187481D01*
X3210448Y2187874D01*
X3210842D01*
X3211236Y2187481D01*
Y2186694D01*
X3210842Y2186300D01*
X3210055D01*
X3209661Y2186694D01*
X3212023Y2188661D02*
X3213597D01*
Y2188268D01*
X3212023Y2186694D01*
Y2186300D01*
X3207300Y2214800D02*
Y2217161D01*
X3208481D01*
X3208874Y2216768D01*
Y2215981D01*
X3208481Y2215587D01*
X3207300D01*
X3208087D02*
X3208874Y2214800D01*
X3211236Y2217161D02*
X3209661D01*
Y2215981D01*
X3210448Y2216374D01*
X3210842D01*
X3211236Y2215981D01*
Y2215194D01*
X3210842Y2214800D01*
X3210055D01*
X3209661Y2215194D01*
X3212023Y2216768D02*
X3212416Y2217161D01*
X3213203D01*
X3213597Y2216768D01*
Y2216374D01*
X3213203Y2215981D01*
X3213597Y2215587D01*
Y2215194D01*
X3213203Y2214800D01*
X3212416D01*
X3212023Y2215194D01*
Y2215587D01*
X3212416Y2215981D01*
X3212023Y2216374D01*
Y2216768D01*
X3212416Y2215981D02*
X3213203D01*
X3207300Y2200800D02*
Y2203161D01*
X3208481D01*
X3208874Y2202768D01*
Y2201981D01*
X3208481Y2201587D01*
X3207300D01*
X3208087D02*
X3208874Y2200800D01*
X3211236Y2203161D02*
X3209661D01*
Y2201981D01*
X3210448Y2202374D01*
X3210842D01*
X3211236Y2201981D01*
Y2201194D01*
X3210842Y2200800D01*
X3210055D01*
X3209661Y2201194D01*
X3212023D02*
X3212416Y2200800D01*
X3213203D01*
X3213597Y2201194D01*
Y2202768D01*
X3213203Y2203161D01*
X3212416D01*
X3212023Y2202768D01*
Y2202374D01*
X3212416Y2201981D01*
X3213597D01*
X3207300Y2244800D02*
Y2247161D01*
X3208481D01*
X3208874Y2246768D01*
Y2245981D01*
X3208481Y2245587D01*
X3207300D01*
X3208087D02*
X3208874Y2244800D01*
X3211236Y2247161D02*
X3210448Y2246768D01*
X3209661Y2245981D01*
Y2245194D01*
X3210055Y2244800D01*
X3210842D01*
X3211236Y2245194D01*
Y2245587D01*
X3210842Y2245981D01*
X3209661D01*
X3212023Y2246768D02*
X3212416Y2247161D01*
X3213203D01*
X3213597Y2246768D01*
Y2245194D01*
X3213203Y2244800D01*
X3212416D01*
X3212023Y2245194D01*
Y2246768D01*
X3207300Y2258800D02*
Y2261161D01*
X3208481D01*
X3208874Y2260768D01*
Y2259981D01*
X3208481Y2259587D01*
X3207300D01*
X3208087D02*
X3208874Y2258800D01*
X3211236Y2261161D02*
X3210448Y2260768D01*
X3209661Y2259981D01*
Y2259194D01*
X3210055Y2258800D01*
X3210842D01*
X3211236Y2259194D01*
Y2259587D01*
X3210842Y2259981D01*
X3209661D01*
X3212023Y2258800D02*
X3212810D01*
X3212416D01*
Y2261161D01*
X3212023Y2260768D01*
X3207300Y2287800D02*
Y2290161D01*
X3208481D01*
X3208874Y2289768D01*
Y2288981D01*
X3208481Y2288587D01*
X3207300D01*
X3208087D02*
X3208874Y2287800D01*
X3211236Y2290161D02*
X3210448Y2289768D01*
X3209661Y2288981D01*
Y2288194D01*
X3210055Y2287800D01*
X3210842D01*
X3211236Y2288194D01*
Y2288587D01*
X3210842Y2288981D01*
X3209661D01*
X3213597Y2287800D02*
X3212023D01*
X3213597Y2289374D01*
Y2289768D01*
X3213203Y2290161D01*
X3212416D01*
X3212023Y2289768D01*
X3208268Y2273228D02*
Y2275590D01*
X3209448D01*
X3209842Y2275196D01*
Y2274409D01*
X3209448Y2274015D01*
X3208268D01*
X3209055D02*
X3209842Y2273228D01*
X3212204Y2275590D02*
X3211416Y2275196D01*
X3210629Y2274409D01*
Y2273622D01*
X3211023Y2273228D01*
X3211810D01*
X3212204Y2273622D01*
Y2274015D01*
X3211810Y2274409D01*
X3210629D01*
X3212991Y2275196D02*
X3213384Y2275590D01*
X3214171D01*
X3214565Y2275196D01*
Y2274803D01*
X3214171Y2274409D01*
X3213778D01*
X3214171D01*
X3214565Y2274015D01*
Y2273622D01*
X3214171Y2273228D01*
X3213384D01*
X3212991Y2273622D01*
X3213779Y1937795D02*
X3216141D01*
Y1936615D01*
X3215747Y1936221D01*
X3214960D01*
X3214567Y1936615D01*
Y1937795D01*
Y1937008D02*
X3213779Y1936221D01*
X3216141Y1933859D02*
X3215747Y1934647D01*
X3214960Y1935434D01*
X3214173D01*
X3213779Y1935040D01*
Y1934253D01*
X3214173Y1933859D01*
X3214567D01*
X3214960Y1934253D01*
Y1935434D01*
X3213779Y1931892D02*
X3216141D01*
X3214960Y1933072D01*
Y1931498D01*
X3213779Y1958268D02*
X3216141D01*
Y1957087D01*
X3215747Y1956693D01*
X3214960D01*
X3214567Y1957087D01*
Y1958268D01*
Y1957481D02*
X3213779Y1956693D01*
X3216141Y1954332D02*
X3215747Y1955119D01*
X3214960Y1955906D01*
X3214173D01*
X3213779Y1955513D01*
Y1954726D01*
X3214173Y1954332D01*
X3214567D01*
X3214960Y1954726D01*
Y1955906D01*
X3216141Y1951971D02*
Y1953545D01*
X3214960D01*
X3215354Y1952758D01*
Y1952364D01*
X3214960Y1951971D01*
X3214173D01*
X3213779Y1952364D01*
Y1953151D01*
X3214173Y1953545D01*
X3212598Y1979134D02*
X3214960D01*
Y1977953D01*
X3214566Y1977560D01*
X3213779D01*
X3213386Y1977953D01*
Y1979134D01*
Y1978347D02*
X3212598Y1977560D01*
X3214960Y1975198D02*
X3214566Y1975985D01*
X3213779Y1976772D01*
X3212992D01*
X3212598Y1976379D01*
Y1975592D01*
X3212992Y1975198D01*
X3213386D01*
X3213779Y1975592D01*
Y1976772D01*
X3214960Y1972837D02*
X3214566Y1973624D01*
X3213779Y1974411D01*
X3212992D01*
X3212598Y1974017D01*
Y1973230D01*
X3212992Y1972837D01*
X3213386D01*
X3213779Y1973230D01*
Y1974411D01*
X3212598Y1997244D02*
X3214960D01*
Y1996063D01*
X3214566Y1995670D01*
X3213779D01*
X3213386Y1996063D01*
Y1997244D01*
Y1996457D02*
X3212598Y1995670D01*
X3214960Y1993308D02*
X3214566Y1994095D01*
X3213779Y1994883D01*
X3212992D01*
X3212598Y1994489D01*
Y1993702D01*
X3212992Y1993308D01*
X3213386D01*
X3213779Y1993702D01*
Y1994883D01*
X3214960Y1992521D02*
Y1990947D01*
X3214566D01*
X3212992Y1992521D01*
X3212598D01*
X3172047Y1923228D02*
X3169686D01*
Y1924409D01*
X3170079Y1924803D01*
X3170867D01*
X3171260Y1924409D01*
Y1923228D01*
Y1924015D02*
X3172047Y1924803D01*
X3169686Y1927164D02*
X3170079Y1926377D01*
X3170867Y1925590D01*
X3171654D01*
X3172047Y1925983D01*
Y1926771D01*
X3171654Y1927164D01*
X3171260D01*
X3170867Y1926771D01*
Y1925590D01*
X3170079Y1927951D02*
X3169686Y1928345D01*
Y1929132D01*
X3170079Y1929526D01*
X3170473D01*
X3170867Y1929132D01*
X3171260Y1929526D01*
X3171654D01*
X3172047Y1929132D01*
Y1928345D01*
X3171654Y1927951D01*
X3171260D01*
X3170867Y1928345D01*
X3170473Y1927951D01*
X3170079D01*
X3170867Y1928345D02*
Y1929132D01*
X3172047Y1944488D02*
X3169686D01*
Y1945669D01*
X3170079Y1946062D01*
X3170867D01*
X3171260Y1945669D01*
Y1944488D01*
Y1945275D02*
X3172047Y1946062D01*
X3169686Y1948424D02*
X3170079Y1947637D01*
X3170867Y1946850D01*
X3171654D01*
X3172047Y1947243D01*
Y1948030D01*
X3171654Y1948424D01*
X3171260D01*
X3170867Y1948030D01*
Y1946850D01*
X3171654Y1949211D02*
X3172047Y1949605D01*
Y1950392D01*
X3171654Y1950785D01*
X3170079D01*
X3169686Y1950392D01*
Y1949605D01*
X3170079Y1949211D01*
X3170473D01*
X3170867Y1949605D01*
Y1950785D01*
X3172047Y1963779D02*
X3169686D01*
Y1964960D01*
X3170079Y1965354D01*
X3170867D01*
X3171260Y1964960D01*
Y1963779D01*
Y1964567D02*
X3172047Y1965354D01*
X3169686Y1966141D02*
Y1967715D01*
X3170079D01*
X3171654Y1966141D01*
X3172047D01*
X3170079Y1968502D02*
X3169686Y1968896D01*
Y1969683D01*
X3170079Y1970077D01*
X3171654D01*
X3172047Y1969683D01*
Y1968896D01*
X3171654Y1968502D01*
X3170079D01*
X3172047Y1983071D02*
X3169686D01*
Y1984252D01*
X3170079Y1984645D01*
X3170867D01*
X3171260Y1984252D01*
Y1983071D01*
Y1983858D02*
X3172047Y1984645D01*
X3169686Y1985432D02*
Y1987007D01*
X3170079D01*
X3171654Y1985432D01*
X3172047D01*
Y1987794D02*
Y1988581D01*
Y1988187D01*
X3169686D01*
X3170079Y1987794D01*
X3217400Y2043800D02*
Y2046161D01*
X3218581D01*
X3218974Y2045768D01*
Y2044981D01*
X3218581Y2044587D01*
X3217400D01*
X3218187D02*
X3218974Y2043800D01*
X3219761Y2046161D02*
X3221336D01*
Y2045768D01*
X3219761Y2044194D01*
Y2043800D01*
X3223697D02*
X3222123D01*
X3223697Y2045374D01*
Y2045768D01*
X3223304Y2046161D01*
X3222516D01*
X3222123Y2045768D01*
X3187900Y2121300D02*
Y2123661D01*
X3189081D01*
X3189474Y2123268D01*
Y2122481D01*
X3189081Y2122087D01*
X3187900D01*
X3188687D02*
X3189474Y2121300D01*
X3190261Y2123661D02*
X3191836D01*
Y2123268D01*
X3190261Y2121694D01*
Y2121300D01*
X3193804D02*
Y2123661D01*
X3192623Y2122481D01*
X3194197D01*
X3187400Y2164800D02*
Y2167161D01*
X3188581D01*
X3188974Y2166768D01*
Y2165981D01*
X3188581Y2165587D01*
X3187400D01*
X3188187D02*
X3188974Y2164800D01*
X3189761Y2167161D02*
X3191336D01*
Y2166768D01*
X3189761Y2165194D01*
Y2164800D01*
X3193697Y2167161D02*
X3192123D01*
Y2165981D01*
X3192910Y2166374D01*
X3193304D01*
X3193697Y2165981D01*
Y2165194D01*
X3193304Y2164800D01*
X3192516D01*
X3192123Y2165194D01*
X3187400Y2179300D02*
Y2181661D01*
X3188581D01*
X3188974Y2181268D01*
Y2180481D01*
X3188581Y2180087D01*
X3187400D01*
X3188187D02*
X3188974Y2179300D01*
X3189761Y2181661D02*
X3191336D01*
Y2181268D01*
X3189761Y2179694D01*
Y2179300D01*
X3193697Y2181661D02*
X3192910Y2181268D01*
X3192123Y2180481D01*
Y2179694D01*
X3192516Y2179300D01*
X3193304D01*
X3193697Y2179694D01*
Y2180087D01*
X3193304Y2180481D01*
X3192123D01*
X3187400Y2207800D02*
Y2210161D01*
X3188581D01*
X3188974Y2209768D01*
Y2208981D01*
X3188581Y2208587D01*
X3187400D01*
X3188187D02*
X3188974Y2207800D01*
X3189761Y2210161D02*
X3191336D01*
Y2209768D01*
X3189761Y2208194D01*
Y2207800D01*
X3192123Y2210161D02*
X3193697D01*
Y2209768D01*
X3192123Y2208194D01*
Y2207800D01*
X3187400Y2193800D02*
Y2196161D01*
X3188581D01*
X3188974Y2195768D01*
Y2194981D01*
X3188581Y2194587D01*
X3187400D01*
X3188187D02*
X3188974Y2193800D01*
X3189761Y2196161D02*
X3191336D01*
Y2195768D01*
X3189761Y2194194D01*
Y2193800D01*
X3192123Y2195768D02*
X3192516Y2196161D01*
X3193304D01*
X3193697Y2195768D01*
Y2195374D01*
X3193304Y2194981D01*
X3193697Y2194587D01*
Y2194194D01*
X3193304Y2193800D01*
X3192516D01*
X3192123Y2194194D01*
Y2194587D01*
X3192516Y2194981D01*
X3192123Y2195374D01*
Y2195768D01*
X3192516Y2194981D02*
X3193304D01*
X3187400Y2237800D02*
Y2240161D01*
X3188581D01*
X3188974Y2239768D01*
Y2238981D01*
X3188581Y2238587D01*
X3187400D01*
X3188187D02*
X3188974Y2237800D01*
X3189761Y2240161D02*
X3191336D01*
Y2239768D01*
X3189761Y2238194D01*
Y2237800D01*
X3192123Y2238194D02*
X3192516Y2237800D01*
X3193304D01*
X3193697Y2238194D01*
Y2239768D01*
X3193304Y2240161D01*
X3192516D01*
X3192123Y2239768D01*
Y2239374D01*
X3192516Y2238981D01*
X3193697D01*
X3187400Y2252300D02*
Y2254661D01*
X3188581D01*
X3188974Y2254268D01*
Y2253481D01*
X3188581Y2253087D01*
X3187400D01*
X3188187D02*
X3188974Y2252300D01*
X3189761Y2254268D02*
X3190155Y2254661D01*
X3190942D01*
X3191336Y2254268D01*
Y2253874D01*
X3190942Y2253481D01*
X3191336Y2253087D01*
Y2252694D01*
X3190942Y2252300D01*
X3190155D01*
X3189761Y2252694D01*
Y2253087D01*
X3190155Y2253481D01*
X3189761Y2253874D01*
Y2254268D01*
X3190155Y2253481D02*
X3190942D01*
X3192123Y2254268D02*
X3192516Y2254661D01*
X3193304D01*
X3193697Y2254268D01*
Y2252694D01*
X3193304Y2252300D01*
X3192516D01*
X3192123Y2252694D01*
Y2254268D01*
X3187400Y2280800D02*
Y2283161D01*
X3188581D01*
X3188974Y2282768D01*
Y2281981D01*
X3188581Y2281587D01*
X3187400D01*
X3188187D02*
X3188974Y2280800D01*
X3189761Y2282768D02*
X3190155Y2283161D01*
X3190942D01*
X3191336Y2282768D01*
Y2282374D01*
X3190942Y2281981D01*
X3191336Y2281587D01*
Y2281194D01*
X3190942Y2280800D01*
X3190155D01*
X3189761Y2281194D01*
Y2281587D01*
X3190155Y2281981D01*
X3189761Y2282374D01*
Y2282768D01*
X3190155Y2281981D02*
X3190942D01*
X3192123Y2280800D02*
X3192910D01*
X3192516D01*
Y2283161D01*
X3192123Y2282768D01*
X3187400Y2266800D02*
Y2269161D01*
X3188581D01*
X3188974Y2268768D01*
Y2267981D01*
X3188581Y2267587D01*
X3187400D01*
X3188187D02*
X3188974Y2266800D01*
X3189761Y2268768D02*
X3190155Y2269161D01*
X3190942D01*
X3191336Y2268768D01*
Y2268374D01*
X3190942Y2267981D01*
X3191336Y2267587D01*
Y2267194D01*
X3190942Y2266800D01*
X3190155D01*
X3189761Y2267194D01*
Y2267587D01*
X3190155Y2267981D01*
X3189761Y2268374D01*
Y2268768D01*
X3190155Y2267981D02*
X3190942D01*
X3193697Y2266800D02*
X3192123D01*
X3193697Y2268374D01*
Y2268768D01*
X3193304Y2269161D01*
X3192516D01*
X3192123Y2268768D01*
X3264295Y2063858D02*
Y2066220D01*
X3265083Y2065433D01*
X3265870Y2066220D01*
Y2063858D01*
X3267050Y2065433D02*
X3267838D01*
X3268231Y2065039D01*
Y2063858D01*
X3267050D01*
X3266657Y2064252D01*
X3267050Y2064645D01*
X3268231D01*
X3269018Y2063858D02*
Y2065433D01*
X3270199D01*
X3270592Y2065039D01*
Y2063858D01*
X3271379Y2065433D02*
Y2064252D01*
X3271773Y2063858D01*
X3272954D01*
Y2065433D01*
X3274134D02*
X3274922D01*
X3275315Y2065039D01*
Y2063858D01*
X3274134D01*
X3273741Y2064252D01*
X3274134Y2064645D01*
X3275315D01*
X3276102Y2063858D02*
X3276889D01*
X3276496D01*
Y2066220D01*
X3276102D01*
X3280432Y2063858D02*
Y2066220D01*
X3281612D01*
X3282006Y2065826D01*
Y2065039D01*
X3281612Y2064645D01*
X3280432D01*
X3281219D02*
X3282006Y2063858D01*
X3283974D02*
X3283187D01*
X3282793Y2064252D01*
Y2065039D01*
X3283187Y2065433D01*
X3283974D01*
X3284367Y2065039D01*
Y2064645D01*
X3282793D01*
X3285155Y2063858D02*
X3286335D01*
X3286729Y2064252D01*
X3286335Y2064645D01*
X3285548D01*
X3285155Y2065039D01*
X3285548Y2065433D01*
X3286729D01*
X3288697Y2063858D02*
X3287910D01*
X3287516Y2064252D01*
Y2065039D01*
X3287910Y2065433D01*
X3288697D01*
X3289090Y2065039D01*
Y2064645D01*
X3287516D01*
X3290271Y2065826D02*
Y2065433D01*
X3289877D01*
X3290665D01*
X3290271D01*
Y2064252D01*
X3290665Y2063858D01*
X2961812Y1929527D02*
X2961418Y1929133D01*
Y1928346D01*
X2961812Y1927953D01*
X2962205D01*
X2962599Y1928346D01*
Y1929133D01*
X2962992Y1929527D01*
X2963386D01*
X2963779Y1929133D01*
Y1928346D01*
X2963386Y1927953D01*
X2963779Y1930314D02*
Y1931101D01*
Y1930708D01*
X2962205D01*
Y1930314D01*
X2964567Y1933069D02*
Y1933463D01*
X2964173Y1933856D01*
X2962205D01*
Y1932676D01*
X2962599Y1932282D01*
X2963386D01*
X2963779Y1932676D01*
Y1933856D01*
Y1934644D02*
X2962205D01*
Y1935824D01*
X2962599Y1936218D01*
X2963779D01*
X2962205Y1937399D02*
Y1938186D01*
X2962599Y1938579D01*
X2963779D01*
Y1937399D01*
X2963386Y1937005D01*
X2962992Y1937399D01*
Y1938579D01*
X2963779Y1939366D02*
Y1940154D01*
Y1939760D01*
X2961418D01*
Y1939366D01*
X2963779Y1941334D02*
Y1942515D01*
X2963386Y1942908D01*
X2962992Y1942515D01*
Y1941728D01*
X2962599Y1941334D01*
X2962205Y1941728D01*
Y1942908D01*
X2964173Y1943696D02*
Y1945270D01*
X2963779Y1946057D02*
Y1946844D01*
Y1946451D01*
X2961418D01*
X2961812Y1946057D01*
X2962993Y2030314D02*
X2962599Y2029921D01*
Y2029134D01*
X2962993Y2028740D01*
X2963386D01*
X2963780Y2029134D01*
Y2029921D01*
X2964174Y2030314D01*
X2964567D01*
X2964961Y2029921D01*
Y2029134D01*
X2964567Y2028740D01*
X2964961Y2031102D02*
Y2031889D01*
Y2031495D01*
X2963386D01*
Y2031102D01*
X2965748Y2033857D02*
Y2034250D01*
X2965354Y2034644D01*
X2963386D01*
Y2033463D01*
X2963780Y2033069D01*
X2964567D01*
X2964961Y2033463D01*
Y2034644D01*
Y2035431D02*
X2963386D01*
Y2036612D01*
X2963780Y2037005D01*
X2964961D01*
X2963386Y2038186D02*
Y2038973D01*
X2963780Y2039367D01*
X2964961D01*
Y2038186D01*
X2964567Y2037792D01*
X2964174Y2038186D01*
Y2039367D01*
X2964961Y2040154D02*
Y2040941D01*
Y2040547D01*
X2962599D01*
Y2040154D01*
X2964961Y2042122D02*
Y2043302D01*
X2964567Y2043696D01*
X2964174Y2043302D01*
Y2042515D01*
X2963780Y2042122D01*
X2963386Y2042515D01*
Y2043696D01*
X2965354Y2044483D02*
Y2046057D01*
X2964961Y2048419D02*
Y2046844D01*
X2963386Y2048419D01*
X2962993D01*
X2962599Y2048025D01*
Y2047238D01*
X2962993Y2046844D01*
X2992520Y2031496D02*
X2994488D01*
X2994882Y2031890D01*
Y2032677D01*
X2994488Y2033070D01*
X2992520D01*
X2992914Y2033858D02*
X2992520Y2034251D01*
Y2035038D01*
X2992914Y2035432D01*
X2993308D01*
X2993701Y2035038D01*
Y2034645D01*
Y2035038D01*
X2994095Y2035432D01*
X2994488D01*
X2994882Y2035038D01*
Y2034251D01*
X2994488Y2033858D01*
X2994882Y2036219D02*
X2994488D01*
Y2036613D01*
X2994882D01*
Y2036219D01*
X2992520Y2038187D02*
X2994882D01*
Y2039367D01*
X2994488Y2039761D01*
X2992914D01*
X2992520Y2039367D01*
Y2038187D01*
Y2040548D02*
Y2042122D01*
Y2041335D01*
X2994882D01*
X2992520Y2042910D02*
X2994882D01*
Y2044090D01*
X2994488Y2044484D01*
X2994095D01*
X2993701Y2044090D01*
Y2042910D01*
Y2044090D01*
X2993308Y2044484D01*
X2992914D01*
X2992520Y2044090D01*
Y2042910D01*
X2992127Y2135827D02*
X2994095D01*
X2994488Y2136220D01*
Y2137008D01*
X2994095Y2137401D01*
X2992127D01*
X2992520Y2138188D02*
X2992127Y2138582D01*
Y2139369D01*
X2992520Y2139762D01*
X2992914D01*
X2993307Y2139369D01*
Y2138975D01*
Y2139369D01*
X2993701Y2139762D01*
X2994095D01*
X2994488Y2139369D01*
Y2138582D01*
X2994095Y2138188D01*
X2994488Y2140550D02*
X2994095D01*
Y2140943D01*
X2994488D01*
Y2140550D01*
X2992127Y2142517D02*
X2994488D01*
Y2143698D01*
X2994095Y2144092D01*
X2992520D01*
X2992127Y2143698D01*
Y2142517D01*
Y2144879D02*
Y2146453D01*
Y2145666D01*
X2994488D01*
X2992520Y2148815D02*
X2992127Y2148421D01*
Y2147634D01*
X2992520Y2147240D01*
X2994095D01*
X2994488Y2147634D01*
Y2148421D01*
X2994095Y2148815D01*
X2992914Y2242520D02*
X2994882D01*
X2995276Y2242913D01*
Y2243700D01*
X2994882Y2244094D01*
X2992914D01*
X2993308Y2244881D02*
X2992914Y2245275D01*
Y2246062D01*
X2993308Y2246455D01*
X2993701D01*
X2994095Y2246062D01*
Y2245668D01*
Y2246062D01*
X2994488Y2246455D01*
X2994882D01*
X2995276Y2246062D01*
Y2245275D01*
X2994882Y2244881D01*
X2995276Y2247243D02*
X2994882D01*
Y2247636D01*
X2995276D01*
Y2247243D01*
X2992914Y2249210D02*
X2995276D01*
Y2250391D01*
X2994882Y2250785D01*
X2993308D01*
X2992914Y2250391D01*
Y2249210D01*
Y2251572D02*
Y2253146D01*
Y2252359D01*
X2995276D01*
X2992914Y2253933D02*
X2995276D01*
Y2255114D01*
X2994882Y2255508D01*
X2993308D01*
X2992914Y2255114D01*
Y2253933D01*
X3097243Y2054724D02*
X3095275D01*
X3094882Y2054331D01*
Y2053544D01*
X3095275Y2053150D01*
X3097243D01*
X3094882Y2051182D02*
X3097243D01*
X3096063Y2052363D01*
Y2050789D01*
X3094882Y2050002D02*
X3095275D01*
Y2049608D01*
X3094882D01*
Y2050002D01*
X3097243Y2048034D02*
X3094882D01*
Y2046853D01*
X3095275Y2046459D01*
X3096850D01*
X3097243Y2046853D01*
Y2048034D01*
Y2045672D02*
Y2044098D01*
Y2044885D01*
X3094882D01*
X3097243Y2043311D02*
X3094882D01*
Y2042130D01*
X3095275Y2041736D01*
X3095669D01*
X3096063Y2042130D01*
Y2043311D01*
Y2042130D01*
X3096456Y2041736D01*
X3096850D01*
X3097243Y2042130D01*
Y2043311D01*
X3085039Y2172046D02*
Y2170079D01*
X3085433Y2169685D01*
X3086220D01*
X3086614Y2170079D01*
Y2172046D01*
X3088581Y2169685D02*
Y2172046D01*
X3087401Y2170866D01*
X3088975D01*
X3089762Y2169685D02*
Y2170079D01*
X3090156D01*
Y2169685D01*
X3089762D01*
X3091730Y2172046D02*
Y2169685D01*
X3092911D01*
X3093304Y2170079D01*
Y2171653D01*
X3092911Y2172046D01*
X3091730D01*
X3094091D02*
X3095666D01*
X3094879D01*
Y2169685D01*
X3098027Y2171653D02*
X3097634Y2172046D01*
X3096847D01*
X3096453Y2171653D01*
Y2170079D01*
X3096847Y2169685D01*
X3097634D01*
X3098027Y2170079D01*
X3096850Y2261811D02*
X3094882D01*
X3094488Y2261418D01*
Y2260630D01*
X3094882Y2260237D01*
X3096850D01*
X3094488Y2258269D02*
X3096850D01*
X3095669Y2259450D01*
Y2257875D01*
X3094488Y2257088D02*
X3094882D01*
Y2256695D01*
X3094488D01*
Y2257088D01*
X3096850Y2255120D02*
X3094488D01*
Y2253940D01*
X3094882Y2253546D01*
X3096456D01*
X3096850Y2253940D01*
Y2255120D01*
Y2252759D02*
Y2251184D01*
Y2251972D01*
X3094488D01*
X3096850Y2250397D02*
X3094488D01*
Y2249217D01*
X3094882Y2248823D01*
X3096456D01*
X3096850Y2249217D01*
Y2250397D01*
X3144400Y2130461D02*
Y2128494D01*
X3144794Y2128100D01*
X3145581D01*
X3145974Y2128494D01*
Y2130461D01*
X3146761Y2128100D02*
X3147549D01*
X3147155D01*
Y2130461D01*
X3146761Y2130068D01*
X3148729Y2128100D02*
X3149516D01*
X3149123D01*
Y2130461D01*
X3148729Y2130068D01*
X3232800Y2015161D02*
Y2013194D01*
X3233194Y2012800D01*
X3233981D01*
X3234374Y2013194D01*
Y2015161D01*
X3235162Y2012800D02*
X3235949D01*
X3235555D01*
Y2015161D01*
X3235162Y2014768D01*
X3238704Y2012800D02*
X3237129D01*
X3238704Y2014374D01*
Y2014768D01*
X3238310Y2015161D01*
X3237523D01*
X3237129Y2014768D01*
X3229134Y1958661D02*
Y1956693D01*
X3229527Y1956299D01*
X3230315D01*
X3230708Y1956693D01*
Y1958661D01*
X3231495Y1956299D02*
X3232282D01*
X3231889D01*
Y1958661D01*
X3231495Y1958267D01*
X3233463D02*
X3233857Y1958661D01*
X3234644D01*
X3235038Y1958267D01*
Y1957874D01*
X3234644Y1957480D01*
X3234250D01*
X3234644D01*
X3235038Y1957086D01*
Y1956693D01*
X3234644Y1956299D01*
X3233857D01*
X3233463Y1956693D01*
X3181318Y2194500D02*
X3179350D01*
X3178957Y2194106D01*
Y2193319D01*
X3179350Y2192926D01*
X3181318D01*
X3178957Y2192139D02*
Y2191351D01*
Y2191745D01*
X3181318D01*
X3180925Y2192139D01*
X3178957Y2188990D02*
X3181318D01*
X3180137Y2190171D01*
Y2188596D01*
X3180291Y2265075D02*
X3178323D01*
X3177929Y2264681D01*
Y2263894D01*
X3178323Y2263501D01*
X3180291D01*
X3177929Y2262713D02*
Y2261926D01*
Y2262320D01*
X3180291D01*
X3179897Y2262713D01*
X3180291Y2259171D02*
Y2260745D01*
X3179110D01*
X3179503Y2259958D01*
Y2259565D01*
X3179110Y2259171D01*
X3178323D01*
X3177929Y2259565D01*
Y2260352D01*
X3178323Y2260745D01*
X3083465Y1883072D02*
X3084252D01*
X3083859D01*
Y1885040D01*
X3084252Y1885433D01*
X3084646D01*
X3085039Y1885040D01*
X3082678Y1885433D02*
Y1883072D01*
X3081497D01*
X3081104Y1883465D01*
Y1884252D01*
X3081497Y1884646D01*
X3082678D01*
X3078742Y1883072D02*
X3079529Y1883465D01*
X3080317Y1884252D01*
Y1885040D01*
X3079923Y1885433D01*
X3079136D01*
X3078742Y1885040D01*
Y1884646D01*
X3079136Y1884252D01*
X3080317D01*
X3077955Y1885433D02*
Y1885040D01*
X3077562D01*
Y1885433D01*
X3077955D01*
X3075987Y1883072D02*
Y1885433D01*
X3074807D01*
X3074413Y1885040D01*
Y1883465D01*
X3074807Y1883072D01*
X3075987D01*
X3073626D02*
X3072051D01*
X3072839D01*
Y1885433D01*
X3071264D02*
Y1883859D01*
X3070477Y1883072D01*
X3069690Y1883859D01*
Y1885433D01*
Y1884252D01*
X3071264D01*
X3071274Y2007861D02*
X3070487D01*
X3070881D01*
Y2005894D01*
X3070487Y2005500D01*
X3070094D01*
X3069700Y2005894D01*
X3072061Y2005500D02*
Y2007861D01*
X3073242D01*
X3073636Y2007468D01*
Y2006681D01*
X3073242Y2006287D01*
X3072061D01*
X3075997Y2007861D02*
X3075210Y2007468D01*
X3074423Y2006681D01*
Y2005894D01*
X3074816Y2005500D01*
X3075604D01*
X3075997Y2005894D01*
Y2006287D01*
X3075604Y2006681D01*
X3074423D01*
X3076784Y2005500D02*
Y2005894D01*
X3077178D01*
Y2005500D01*
X3076784D01*
X3078752Y2007861D02*
Y2005500D01*
X3079933D01*
X3080326Y2005894D01*
Y2007468D01*
X3079933Y2007861D01*
X3078752D01*
X3081114D02*
X3082688D01*
X3081901D01*
Y2005500D01*
X3083475Y2007861D02*
Y2005500D01*
X3084656D01*
X3085049Y2005894D01*
Y2006287D01*
X3084656Y2006681D01*
X3083475D01*
X3084656D01*
X3085049Y2007074D01*
Y2007468D01*
X3084656Y2007861D01*
X3083475D01*
X3089369Y2111024D02*
Y2111811D01*
Y2111418D01*
X3087401D01*
X3087008Y2111811D01*
Y2112205D01*
X3087401Y2112598D01*
X3087008Y2110237D02*
X3089369D01*
Y2109056D01*
X3088976Y2108663D01*
X3088189D01*
X3087795Y2109056D01*
Y2110237D01*
X3089369Y2106301D02*
X3088976Y2107088D01*
X3088189Y2107875D01*
X3087401D01*
X3087008Y2107482D01*
Y2106695D01*
X3087401Y2106301D01*
X3087795D01*
X3088189Y2106695D01*
Y2107875D01*
X3087008Y2105514D02*
X3087401D01*
Y2105120D01*
X3087008D01*
Y2105514D01*
X3089369Y2103546D02*
X3087008D01*
Y2102365D01*
X3087401Y2101972D01*
X3088976D01*
X3089369Y2102365D01*
Y2103546D01*
Y2101185D02*
Y2099611D01*
Y2100398D01*
X3087008D01*
X3088976Y2097249D02*
X3089369Y2097643D01*
Y2098430D01*
X3088976Y2098823D01*
X3087401D01*
X3087008Y2098430D01*
Y2097643D01*
X3087401Y2097249D01*
X3090157Y2215748D02*
Y2216536D01*
Y2216142D01*
X3088189D01*
X3087795Y2216536D01*
Y2216929D01*
X3088189Y2217323D01*
X3087795Y2214961D02*
X3090157D01*
Y2213781D01*
X3089763Y2213387D01*
X3088976D01*
X3088582Y2213781D01*
Y2214961D01*
X3090157Y2211026D02*
X3089763Y2211813D01*
X3088976Y2212600D01*
X3088189D01*
X3087795Y2212206D01*
Y2211419D01*
X3088189Y2211026D01*
X3088582D01*
X3088976Y2211419D01*
Y2212600D01*
X3087795Y2210238D02*
X3088189D01*
Y2209845D01*
X3087795D01*
Y2210238D01*
X3090157Y2208271D02*
X3087795D01*
Y2207090D01*
X3088189Y2206696D01*
X3089763D01*
X3090157Y2207090D01*
Y2208271D01*
Y2205909D02*
Y2204335D01*
Y2205122D01*
X3087795D01*
X3090157Y2203548D02*
X3087795D01*
Y2202367D01*
X3088189Y2201974D01*
X3089763D01*
X3090157Y2202367D01*
Y2203548D01*
X3061811Y1883859D02*
X3062599D01*
X3062205D01*
Y1885827D01*
X3062599Y1886221D01*
X3062992D01*
X3063386Y1885827D01*
X3061024Y1886221D02*
Y1883859D01*
X3059844D01*
X3059450Y1884253D01*
Y1885040D01*
X3059844Y1885433D01*
X3061024D01*
X3058663Y1883859D02*
X3057089D01*
Y1884253D01*
X3058663Y1885827D01*
Y1886221D01*
X3056301D02*
Y1885827D01*
X3055908D01*
Y1886221D01*
X3056301D01*
X3054334Y1883859D02*
Y1886221D01*
X3053153D01*
X3052759Y1885827D01*
Y1884253D01*
X3053153Y1883859D01*
X3054334D01*
X3051972D02*
X3050398D01*
X3051185D01*
Y1886221D01*
X3049611D02*
Y1884646D01*
X3048824Y1883859D01*
X3048037Y1884646D01*
Y1886221D01*
Y1885040D01*
X3049611D01*
X3042914Y1993700D02*
Y1992913D01*
Y1993307D01*
X3044882D01*
X3045276Y1992913D01*
Y1992520D01*
X3044882Y1992126D01*
X3045276Y1994487D02*
X3042914D01*
Y1995668D01*
X3043308Y1996062D01*
X3044095D01*
X3044488Y1995668D01*
Y1994487D01*
X3042914Y1996849D02*
Y1998423D01*
X3043308D01*
X3044882Y1996849D01*
X3045276D01*
Y1999210D02*
X3044882D01*
Y1999604D01*
X3045276D01*
Y1999210D01*
X3042914Y2001178D02*
X3045276D01*
Y2002359D01*
X3044882Y2002752D01*
X3043308D01*
X3042914Y2002359D01*
Y2001178D01*
Y2003540D02*
Y2005114D01*
Y2004327D01*
X3045276D01*
X3042914Y2005901D02*
X3045276D01*
Y2007082D01*
X3044882Y2007475D01*
X3044488D01*
X3044095Y2007082D01*
Y2005901D01*
Y2007082D01*
X3043701Y2007475D01*
X3043308D01*
X3042914Y2007082D01*
Y2005901D01*
Y2098031D02*
Y2097244D01*
Y2097637D01*
X3044882D01*
X3045276Y2097244D01*
Y2096850D01*
X3044882Y2096457D01*
X3045276Y2098818D02*
X3042914D01*
Y2099999D01*
X3043308Y2100392D01*
X3044095D01*
X3044488Y2099999D01*
Y2098818D01*
X3042914Y2101180D02*
Y2102754D01*
X3043308D01*
X3044882Y2101180D01*
X3045276D01*
Y2103541D02*
X3044882D01*
Y2103935D01*
X3045276D01*
Y2103541D01*
X3042914Y2105509D02*
X3045276D01*
Y2106690D01*
X3044882Y2107083D01*
X3043308D01*
X3042914Y2106690D01*
Y2105509D01*
Y2107870D02*
Y2109445D01*
Y2108657D01*
X3045276D01*
X3043308Y2111806D02*
X3042914Y2111412D01*
Y2110625D01*
X3043308Y2110232D01*
X3044882D01*
X3045276Y2110625D01*
Y2111412D01*
X3044882Y2111806D01*
X3044095Y2205511D02*
Y2204724D01*
Y2205118D01*
X3046063D01*
X3046457Y2204724D01*
Y2204331D01*
X3046063Y2203937D01*
X3046457Y2206298D02*
X3044095D01*
Y2207479D01*
X3044489Y2207873D01*
X3045276D01*
X3045670Y2207479D01*
Y2206298D01*
X3044095Y2208660D02*
Y2210234D01*
X3044489D01*
X3046063Y2208660D01*
X3046457D01*
Y2211021D02*
X3046063D01*
Y2211415D01*
X3046457D01*
Y2211021D01*
X3044095Y2212989D02*
X3046457D01*
Y2214170D01*
X3046063Y2214564D01*
X3044489D01*
X3044095Y2214170D01*
Y2212989D01*
Y2215351D02*
Y2216925D01*
Y2216138D01*
X3046457D01*
X3044095Y2217712D02*
X3046457D01*
Y2218893D01*
X3046063Y2219286D01*
X3044489D01*
X3044095Y2218893D01*
Y2217712D01*
X3057000Y1876000D02*
Y1878361D01*
X3058181D01*
X3058574Y1877968D01*
Y1877181D01*
X3058181Y1876787D01*
X3057000D01*
X3057787D02*
X3058574Y1876000D01*
X3059361D02*
X3060149D01*
X3059755D01*
Y1878361D01*
X3059361Y1877968D01*
X2970864Y1876752D02*
Y1879113D01*
X2972045D01*
X2972438Y1878720D01*
Y1877933D01*
X2972045Y1877539D01*
X2970864D01*
X2971651D02*
X2972438Y1876752D01*
X2973225Y1878720D02*
X2973619Y1879113D01*
X2974406D01*
X2974800Y1878720D01*
Y1878326D01*
X2974406Y1877933D01*
X2974012D01*
X2974406D01*
X2974800Y1877539D01*
Y1877146D01*
X2974406Y1876752D01*
X2973619D01*
X2973225Y1877146D01*
X3054000Y1766100D02*
Y1768461D01*
X3055181D01*
X3055574Y1768068D01*
Y1767281D01*
X3055181Y1766887D01*
X3054000D01*
X3056361Y1768068D02*
X3056755Y1768461D01*
X3057542D01*
X3057936Y1768068D01*
Y1767674D01*
X3057542Y1767281D01*
X3057149D01*
X3057542D01*
X3057936Y1766887D01*
Y1766494D01*
X3057542Y1766100D01*
X3056755D01*
X3056361Y1766494D01*
X2968000Y1766100D02*
Y1768461D01*
X2969181D01*
X2969574Y1768068D01*
Y1767281D01*
X2969181Y1766887D01*
X2968000D01*
X2971542Y1766100D02*
Y1768461D01*
X2970361Y1767281D01*
X2971936D01*
X3112100Y1869561D02*
Y1867594D01*
X3112494Y1867200D01*
X3113281D01*
X3113674Y1867594D01*
Y1869561D01*
X3116036D02*
X3115249Y1869168D01*
X3114461Y1868381D01*
Y1867594D01*
X3114855Y1867200D01*
X3115642D01*
X3116036Y1867594D01*
Y1867987D01*
X3115642Y1868381D01*
X3114461D01*
X3096850Y1948819D02*
X3094882D01*
X3094488Y1948425D01*
Y1947638D01*
X3094882Y1947245D01*
X3096850D01*
X3094488Y1945277D02*
X3096850D01*
X3095669Y1946457D01*
Y1944883D01*
X3094488Y1944096D02*
X3094882D01*
Y1943702D01*
X3094488D01*
Y1944096D01*
X3096850Y1942128D02*
X3094488D01*
Y1940947D01*
X3094882Y1940554D01*
X3096456D01*
X3096850Y1940947D01*
Y1942128D01*
Y1939767D02*
Y1938192D01*
Y1938980D01*
X3094488D01*
Y1937405D02*
X3096062D01*
X3096850Y1936618D01*
X3096062Y1935831D01*
X3094488D01*
X3095669D01*
Y1937405D01*
X2993308Y1925591D02*
X2995276D01*
X2995669Y1925984D01*
Y1926771D01*
X2995276Y1927165D01*
X2993308D01*
X2993701Y1927952D02*
X2993308Y1928346D01*
Y1929133D01*
X2993701Y1929526D01*
X2994095D01*
X2994489Y1929133D01*
Y1928739D01*
Y1929133D01*
X2994882Y1929526D01*
X2995276D01*
X2995669Y1929133D01*
Y1928346D01*
X2995276Y1927952D01*
X2995669Y1930313D02*
X2995276D01*
Y1930707D01*
X2995669D01*
Y1930313D01*
X2993308Y1932281D02*
X2995669D01*
Y1933462D01*
X2995276Y1933856D01*
X2993701D01*
X2993308Y1933462D01*
Y1932281D01*
Y1934643D02*
Y1936217D01*
Y1935430D01*
X2995669D01*
Y1937004D02*
X2994095D01*
X2993308Y1937791D01*
X2994095Y1938578D01*
X2995669D01*
X2994489D01*
Y1937004D01*
X2964567Y2105118D02*
X2962206D01*
Y2106299D01*
X2962599Y2106692D01*
X2963386D01*
X2963780Y2106299D01*
Y2105118D01*
X2962206Y2107480D02*
Y2109054D01*
X2962599D01*
X2964173Y2107480D01*
X2964567D01*
X3144488Y1824016D02*
X3144881Y1824410D01*
Y1825197D01*
X3144488Y1825591D01*
X3142913D01*
X3142520Y1825197D01*
Y1824410D01*
X3142913Y1824016D01*
X3142520Y1823229D02*
Y1822442D01*
Y1822836D01*
X3144881D01*
X3144488Y1823229D01*
Y1821261D02*
X3144881Y1820868D01*
Y1820081D01*
X3144488Y1819687D01*
X3142913D01*
X3142520Y1820081D01*
Y1820868D01*
X3142913Y1821261D01*
X3144488D01*
X3143700Y1809449D02*
X3144094Y1809843D01*
Y1810630D01*
X3143700Y1811024D01*
X3142126D01*
X3141732Y1810630D01*
Y1809843D01*
X3142126Y1809449D01*
X3141732Y1808662D02*
Y1807875D01*
Y1808269D01*
X3144094D01*
X3143700Y1808662D01*
X3141732Y1806694D02*
Y1805907D01*
Y1806301D01*
X3144094D01*
X3143700Y1806694D01*
X3144488Y1798032D02*
X3144881Y1798426D01*
Y1799213D01*
X3144488Y1799606D01*
X3142913D01*
X3142520Y1799213D01*
Y1798426D01*
X3142913Y1798032D01*
X3142520Y1797245D02*
Y1796458D01*
Y1796851D01*
X3144881D01*
X3144488Y1797245D01*
X3142520Y1793703D02*
Y1795277D01*
X3144094Y1793703D01*
X3144488D01*
X3144881Y1794096D01*
Y1794883D01*
X3144488Y1795277D01*
X3168897Y1865747D02*
X3168504Y1866141D01*
X3167716D01*
X3167323Y1865747D01*
Y1864173D01*
X3167716Y1863779D01*
X3168504D01*
X3168897Y1864173D01*
X3170865Y1863779D02*
Y1866141D01*
X3169684Y1864960D01*
X3171259D01*
X3173620Y1863779D02*
X3172046D01*
X3173620Y1865354D01*
Y1865747D01*
X3173226Y1866141D01*
X3172439D01*
X3172046Y1865747D01*
X3214347Y1765805D02*
X3213954Y1766199D01*
X3213167D01*
X3212773Y1765805D01*
Y1764231D01*
X3213167Y1763837D01*
X3213954D01*
X3214347Y1764231D01*
X3215135Y1766199D02*
Y1763837D01*
X3216315D01*
X3216709Y1764231D01*
Y1764624D01*
Y1765018D01*
X3216315Y1765411D01*
X3215135D01*
X3217496Y1763837D02*
X3218677D01*
X3219070Y1764231D01*
X3218677Y1764624D01*
X3217890D01*
X3217496Y1765018D01*
X3217890Y1765411D01*
X3219070D01*
X3220251Y1765805D02*
Y1765411D01*
X3219857D01*
X3220645D01*
X3220251D01*
Y1764231D01*
X3220645Y1763837D01*
X3221825D02*
X3222613D01*
X3222219D01*
Y1766199D01*
X3221825Y1765805D01*
X3279774Y1769368D02*
X3279381Y1769761D01*
X3278593D01*
X3278200Y1769368D01*
Y1767794D01*
X3278593Y1767400D01*
X3279381D01*
X3279774Y1767794D01*
X3280561Y1767400D02*
X3281348D01*
X3280955D01*
Y1768974D01*
X3280561D01*
X3282529Y1767400D02*
Y1768974D01*
X3283710D01*
X3284104Y1768581D01*
Y1767400D01*
X3284891Y1769368D02*
X3285284Y1769761D01*
X3286071D01*
X3286465Y1769368D01*
Y1768974D01*
X3286071Y1768581D01*
X3285678D01*
X3286071D01*
X3286465Y1768187D01*
Y1767794D01*
X3286071Y1767400D01*
X3285284D01*
X3284891Y1767794D01*
X3236220Y1759842D02*
X3235826Y1760235D01*
X3235039D01*
X3234646Y1759842D01*
Y1758268D01*
X3235039Y1757874D01*
X3235826D01*
X3236220Y1758268D01*
X3237007Y1757874D02*
X3237794D01*
X3237401D01*
Y1759448D01*
X3237007D01*
X3238975Y1757874D02*
Y1759448D01*
X3240156D01*
X3240549Y1759055D01*
Y1757874D01*
X3241336Y1759448D02*
X3242911Y1757874D01*
X3242123Y1758661D01*
X3242911Y1759448D01*
X3241336Y1757874D01*
X3243698D02*
X3244485D01*
X3244091D01*
Y1760235D01*
X3243698Y1759842D01*
X3144094Y1787402D02*
X3144487Y1787796D01*
Y1788583D01*
X3144094Y1788976D01*
X3142520D01*
X3142126Y1788583D01*
Y1787796D01*
X3142520Y1787402D01*
X3142126Y1786221D02*
Y1785434D01*
X3142520Y1785041D01*
X3143307D01*
X3143700Y1785434D01*
Y1786221D01*
X3143307Y1786615D01*
X3142520D01*
X3142126Y1786221D01*
X3143700Y1784254D02*
X3142520D01*
X3142126Y1783860D01*
Y1782679D01*
X3143700D01*
X3144094Y1781499D02*
X3143700D01*
Y1781892D01*
Y1781105D01*
Y1781499D01*
X3142520D01*
X3142126Y1781105D01*
Y1779924D02*
Y1779137D01*
Y1779531D01*
X3144487D01*
X3144094Y1779924D01*
X3253936Y1801574D02*
X3253543Y1801968D01*
X3252756D01*
X3252362Y1801574D01*
Y1800000D01*
X3252756Y1799606D01*
X3253543D01*
X3253936Y1800000D01*
X3254724Y1799606D02*
X3255904D01*
X3256298Y1800000D01*
X3255904Y1800393D01*
X3255117D01*
X3254724Y1800787D01*
X3255117Y1801181D01*
X3256298D01*
X3257085Y1799606D02*
X3258266D01*
X3258659Y1800000D01*
X3258266Y1800393D01*
X3257479D01*
X3257085Y1800787D01*
X3257479Y1801181D01*
X3258659D01*
X3259446Y1799606D02*
X3260234D01*
X3259840D01*
Y1801968D01*
X3259446Y1801574D01*
X3211300Y1859800D02*
Y1862161D01*
X3212481D01*
X3212874Y1861768D01*
Y1860981D01*
X3212481Y1860587D01*
X3211300D01*
X3212087D02*
X3212874Y1859800D01*
X3213662Y1862161D02*
X3215236D01*
Y1861768D01*
X3213662Y1860194D01*
Y1859800D01*
X3216023Y1861768D02*
X3216417Y1862161D01*
X3217204D01*
X3217597Y1861768D01*
Y1861374D01*
X3217204Y1860981D01*
X3216810D01*
X3217204D01*
X3217597Y1860587D01*
Y1860194D01*
X3217204Y1859800D01*
X3216417D01*
X3216023Y1860194D01*
X3205118Y1802362D02*
Y1804724D01*
X3206299D01*
X3206693Y1804330D01*
Y1803543D01*
X3206299Y1803149D01*
X3205118D01*
X3205905D02*
X3206693Y1802362D01*
X3207479D02*
X3208660D01*
X3209054Y1802756D01*
X3208660Y1803149D01*
X3207873D01*
X3207479Y1803543D01*
X3207873Y1803937D01*
X3209054D01*
X3209841Y1802362D02*
Y1803937D01*
X3211022D01*
X3211415Y1803543D01*
Y1802362D01*
X3212202D02*
X3213383D01*
X3213777Y1802756D01*
X3213383Y1803149D01*
X3212596D01*
X3212202Y1803543D01*
X3212596Y1803937D01*
X3213777D01*
X3214564Y1802362D02*
X3215351D01*
X3214957D01*
Y1804724D01*
X3214564Y1804330D01*
X3260500Y1779400D02*
Y1781761D01*
X3261681D01*
X3262074Y1781368D01*
Y1780581D01*
X3261681Y1780187D01*
X3260500D01*
X3261287D02*
X3262074Y1779400D01*
X3263255Y1781368D02*
Y1780974D01*
X3262861D01*
X3263649D01*
X3263255D01*
Y1779794D01*
X3263649Y1779400D01*
X3264829D02*
X3265616D01*
X3265223D01*
Y1781761D01*
X3264829Y1781368D01*
X3231890Y1765749D02*
Y1767717D01*
X3231496Y1768110D01*
X3230709D01*
X3230315Y1767717D01*
Y1765749D01*
X3229528Y1768110D02*
X3228741D01*
X3229135D01*
Y1765749D01*
X3229528Y1766142D01*
X3186700Y1788361D02*
Y1786000D01*
X3187881D01*
X3188274Y1786394D01*
Y1787968D01*
X3187881Y1788361D01*
X3186700D01*
X3189061Y1787968D02*
X3189455Y1788361D01*
X3190242D01*
X3190636Y1787968D01*
Y1787574D01*
X3190242Y1787181D01*
X3189849D01*
X3190242D01*
X3190636Y1786787D01*
Y1786394D01*
X3190242Y1786000D01*
X3189455D01*
X3189061Y1786394D01*
X3191423Y1787968D02*
X3191816Y1788361D01*
X3192604D01*
X3192997Y1787968D01*
Y1787574D01*
X3192604Y1787181D01*
X3192210D01*
X3192604D01*
X3192997Y1786787D01*
Y1786394D01*
X3192604Y1786000D01*
X3191816D01*
X3191423Y1786394D01*
X3150495Y2055661D02*
Y2053694D01*
X3150889Y2053300D01*
X3151676D01*
X3152070Y2053694D01*
Y2055661D01*
X3152857Y2053300D02*
X3153644D01*
X3153250D01*
Y2055661D01*
X3152857Y2055268D01*
X3154825D02*
X3155218Y2055661D01*
X3156005D01*
X3156399Y2055268D01*
Y2053694D01*
X3156005Y2053300D01*
X3155218D01*
X3154825Y2053694D01*
Y2055268D01*
X3157480Y2136221D02*
X3154725D01*
Y2137598D01*
X3155185Y2138057D01*
X3156103D01*
X3156562Y2137598D01*
Y2136221D01*
Y2137139D02*
X3157480Y2138057D01*
Y2138976D02*
Y2139894D01*
Y2139435D01*
X3154725D01*
X3155185Y2138976D01*
Y2141271D02*
X3154725Y2141730D01*
Y2142649D01*
X3155185Y2143108D01*
X3155644D01*
X3156103Y2142649D01*
X3156562Y2143108D01*
X3157021D01*
X3157480Y2142649D01*
Y2141730D01*
X3157021Y2141271D01*
X3156562D01*
X3156103Y2141730D01*
X3155644Y2141271D01*
X3155185D01*
X3156103Y2141730D02*
Y2142649D01*
X3165300Y2092800D02*
Y2095555D01*
X3166677D01*
X3167137Y2095096D01*
Y2094177D01*
X3166677Y2093718D01*
X3165300D01*
X3166218D02*
X3167137Y2092800D01*
X3168055D02*
X3168973D01*
X3168514D01*
Y2095555D01*
X3168055Y2095096D01*
X3172187Y2092800D02*
X3170351D01*
X3172187Y2094637D01*
Y2095096D01*
X3171728Y2095555D01*
X3170810D01*
X3170351Y2095096D01*
X3200000Y2073228D02*
Y2075983D01*
X3201377D01*
X3201837Y2075524D01*
Y2074606D01*
X3201377Y2074147D01*
X3200000D01*
X3200918D02*
X3201837Y2073228D01*
X3204592Y2075983D02*
X3202755D01*
Y2074606D01*
X3203674Y2075065D01*
X3204132D01*
X3204592Y2074606D01*
Y2073688D01*
X3204132Y2073228D01*
X3203214D01*
X3202755Y2073688D01*
X3152362Y2285827D02*
Y2288582D01*
X3153740D01*
X3154199Y2288123D01*
Y2287204D01*
X3153740Y2286745D01*
X3152362D01*
X3153280D02*
X3154199Y2285827D01*
X3156954D02*
X3155117D01*
X3156954Y2287663D01*
Y2288123D01*
X3156495Y2288582D01*
X3155576D01*
X3155117Y2288123D01*
X3159709Y2288582D02*
X3158791Y2288123D01*
X3157872Y2287204D01*
Y2286286D01*
X3158331Y2285827D01*
X3159250D01*
X3159709Y2286286D01*
Y2286745D01*
X3159250Y2287204D01*
X3157872D01*
X3172835Y2285433D02*
Y2288188D01*
X3174212D01*
X3174671Y2287729D01*
Y2286811D01*
X3174212Y2286351D01*
X3172835D01*
X3173753D02*
X3174671Y2285433D01*
X3177426D02*
X3175590D01*
X3177426Y2287270D01*
Y2287729D01*
X3176967Y2288188D01*
X3176049D01*
X3175590Y2287729D01*
X3180181Y2288188D02*
X3178345D01*
Y2286811D01*
X3179263Y2287270D01*
X3179722D01*
X3180181Y2286811D01*
Y2285892D01*
X3179722Y2285433D01*
X3178804D01*
X3178345Y2285892D01*
X3173622Y2231890D02*
Y2234645D01*
X3175000D01*
X3175459Y2234186D01*
Y2233267D01*
X3175000Y2232808D01*
X3173622D01*
X3174540D02*
X3175459Y2231890D01*
X3178214D02*
X3176377D01*
X3178214Y2233726D01*
Y2234186D01*
X3177755Y2234645D01*
X3176836D01*
X3176377Y2234186D01*
X3180510Y2231890D02*
Y2234645D01*
X3179132Y2233267D01*
X3180969D01*
X3152362Y2231890D02*
Y2234645D01*
X3153740D01*
X3154199Y2234186D01*
Y2233267D01*
X3153740Y2232808D01*
X3152362D01*
X3153280D02*
X3154199Y2231890D01*
X3156954D02*
X3155117D01*
X3156954Y2233726D01*
Y2234186D01*
X3156495Y2234645D01*
X3155576D01*
X3155117Y2234186D01*
X3157872D02*
X3158331Y2234645D01*
X3159250D01*
X3159709Y2234186D01*
Y2233726D01*
X3159250Y2233267D01*
X3158791D01*
X3159250D01*
X3159709Y2232808D01*
Y2232349D01*
X3159250Y2231890D01*
X3158331D01*
X3157872Y2232349D01*
X3146800Y2213400D02*
Y2216155D01*
X3148178D01*
X3148637Y2215696D01*
Y2214778D01*
X3148178Y2214318D01*
X3146800D01*
X3147718D02*
X3148637Y2213400D01*
X3151392D02*
X3149555D01*
X3151392Y2215237D01*
Y2215696D01*
X3150933Y2216155D01*
X3150014D01*
X3149555Y2215696D01*
X3154147Y2213400D02*
X3152310D01*
X3154147Y2215237D01*
Y2215696D01*
X3153687Y2216155D01*
X3152769D01*
X3152310Y2215696D01*
X3166000Y2213300D02*
Y2216055D01*
X3167377D01*
X3167837Y2215596D01*
Y2214677D01*
X3167377Y2214218D01*
X3166000D01*
X3166918D02*
X3167837Y2213300D01*
X3170592D02*
X3168755D01*
X3170592Y2215137D01*
Y2215596D01*
X3170132Y2216055D01*
X3169214D01*
X3168755Y2215596D01*
X3171510Y2213300D02*
X3172428D01*
X3171969D01*
Y2216055D01*
X3171510Y2215596D01*
X3152362Y2157480D02*
Y2160235D01*
X3153740D01*
X3154199Y2159776D01*
Y2158858D01*
X3153740Y2158399D01*
X3152362D01*
X3153280D02*
X3154199Y2157480D01*
X3156954D02*
X3155117D01*
X3156954Y2159317D01*
Y2159776D01*
X3156495Y2160235D01*
X3155576D01*
X3155117Y2159776D01*
X3157872D02*
X3158331Y2160235D01*
X3159250D01*
X3159709Y2159776D01*
Y2157940D01*
X3159250Y2157480D01*
X3158331D01*
X3157872Y2157940D01*
Y2159776D01*
X3166000Y2158200D02*
Y2160955D01*
X3167377D01*
X3167837Y2160496D01*
Y2159578D01*
X3167377Y2159118D01*
X3166000D01*
X3166918D02*
X3167837Y2158200D01*
X3168755D02*
X3169673D01*
X3169214D01*
Y2160955D01*
X3168755Y2160496D01*
X3171051Y2158659D02*
X3171510Y2158200D01*
X3172428D01*
X3172887Y2158659D01*
Y2160496D01*
X3172428Y2160955D01*
X3171510D01*
X3171051Y2160496D01*
Y2160037D01*
X3171510Y2159578D01*
X3172887D01*
X3266574Y1853568D02*
X3266181Y1853961D01*
X3265393D01*
X3265000Y1853568D01*
Y1853174D01*
X3265393Y1852781D01*
X3266181D01*
X3266574Y1852387D01*
Y1851994D01*
X3266181Y1851600D01*
X3265393D01*
X3265000Y1851994D01*
X3267361Y1853961D02*
Y1851994D01*
X3267755Y1851600D01*
X3268542D01*
X3268936Y1851994D01*
Y1853961D01*
X3269723Y1851600D02*
Y1853961D01*
X3270904D01*
X3271297Y1853568D01*
Y1852781D01*
X3270904Y1852387D01*
X3269723D01*
X3272084Y1851600D02*
Y1853961D01*
X3273265D01*
X3273659Y1853568D01*
Y1852781D01*
X3273265Y1852387D01*
X3272084D01*
X3274446Y1853961D02*
Y1851600D01*
X3276020D01*
X3276807Y1853961D02*
Y1853568D01*
X3277594Y1852781D01*
X3278381Y1853568D01*
Y1853961D01*
X3277594Y1852781D02*
Y1851600D01*
X2952000Y1856761D02*
Y1854400D01*
Y1855187D01*
X2953574Y1856761D01*
X2952394Y1855581D01*
X2953574Y1854400D01*
X2955936D02*
X2954361D01*
X2955936Y1855974D01*
Y1856368D01*
X2955542Y1856761D01*
X2954755D01*
X2954361Y1856368D01*
D52*
X3234516Y2061996D02*
X3237666D01*
Y2060028D02*
Y2061996D01*
X3225854D02*
X3229004D01*
X3225854Y2060028D02*
Y2061996D01*
X3282000Y1941000D02*
X3292000D01*
X3282000D02*
Y2011000D01*
X3292000D01*
Y1941000D02*
Y2011000D01*
X3167500Y1935500D02*
Y1985500D01*
X3147500Y1935500D02*
Y1985500D01*
Y1935500D02*
X3167500D01*
X3147500Y1985500D02*
X3167500D01*
X2998305Y2256054D02*
X3031769D01*
X2998305Y2243456D02*
X3031769D01*
Y2256054D01*
X2998305Y2243456D02*
Y2256054D01*
Y2150054D02*
X3031769D01*
X2998305Y2137456D02*
X3031769D01*
Y2150054D01*
X2998305Y2137456D02*
Y2150054D01*
Y2044054D02*
X3031769D01*
X2998305Y2031456D02*
X3031769D01*
Y2044054D01*
X2998305Y2031456D02*
Y2044054D01*
Y1938054D02*
X3031769D01*
X2998305Y1925456D02*
X3031769D01*
Y1938054D01*
X2998305Y1925456D02*
Y1938054D01*
X2972500Y2276000D02*
X2982500D01*
Y2226000D02*
Y2276000D01*
X2972500Y2226000D02*
Y2276000D01*
Y2226000D02*
X2982500D01*
X2972000Y2176575D02*
X2982000D01*
Y2126575D02*
Y2176575D01*
X2972000Y2126575D02*
Y2176575D01*
Y2126575D02*
X2982000D01*
X2971500Y2118500D02*
X2981500D01*
Y2088500D02*
Y2118500D01*
X2971500Y2088500D02*
X2981500D01*
X2971500D02*
Y2118500D01*
Y2014000D02*
X2981500D01*
X2971500D02*
Y2064000D01*
X2981500Y2014000D02*
Y2064000D01*
X2971500D02*
X2981500D01*
X2972000Y1911500D02*
X2982000D01*
X2972000D02*
Y1961500D01*
X2982000Y1911500D02*
Y1961500D01*
X2972000D02*
X2982000D01*
X3088991Y1862780D02*
Y1865142D01*
X3085841Y1862780D02*
X3088991D01*
X3077180D02*
Y1865142D01*
Y1862780D02*
X3080329D01*
X3001991Y1861303D02*
Y1863665D01*
X2998841Y1861303D02*
X3001991D01*
X2990179D02*
Y1863665D01*
Y1861303D02*
X2993329D01*
X3163500Y2061000D02*
Y2071000D01*
X3183500D01*
Y2061000D02*
Y2071000D01*
X3163500Y2061000D02*
X3183500D01*
X3059681Y2054554D02*
X3093145D01*
X3059681Y2041956D02*
X3093145D01*
Y2054554D01*
X3059681Y2041956D02*
Y2054554D01*
Y2160554D02*
X3093145D01*
X3059681Y2147956D02*
X3093145D01*
Y2160554D01*
X3059681Y2147956D02*
Y2160554D01*
Y2266554D02*
X3093145D01*
X3059681Y2253956D02*
X3093145D01*
Y2266554D01*
X3059681Y2253956D02*
Y2266554D01*
X3235356Y1989472D02*
X3268821D01*
X3235356Y2002071D02*
X3268821D01*
X3235356Y1989472D02*
Y2002071D01*
X3268821Y1989472D02*
Y2002071D01*
X3059681Y1948554D02*
X3093145D01*
X3059681Y1935956D02*
X3093145D01*
Y1948554D01*
X3059681Y1935956D02*
Y1948554D01*
X3244851Y1915120D02*
Y1954490D01*
X3251150Y1915120D02*
Y1954490D01*
X3244851D02*
X3251150D01*
X3244851Y1915120D02*
X3251150D01*
X3145941Y2248559D02*
X3180587D01*
X3145941Y2256433D02*
X3180587D01*
X3145941Y2248559D02*
Y2256433D01*
X3180587Y2248559D02*
Y2256433D01*
X3146016Y2177197D02*
X3180661D01*
X3146016Y2185071D02*
X3180661D01*
X3146016Y2177197D02*
Y2185071D01*
X3180661Y2177197D02*
Y2185071D01*
X3146016Y2106697D02*
X3180661D01*
X3146016Y2114571D02*
X3180661D01*
X3146016Y2106697D02*
Y2114571D01*
X3180661Y2106697D02*
Y2114571D01*
X3152083Y2031945D02*
X3186728D01*
X3152083Y2039819D02*
X3186728D01*
X3152083Y2031945D02*
Y2039819D01*
X3186728Y2031945D02*
Y2039819D01*
D53*
X3200473Y2071037D02*
X3210473D01*
X3200473Y2064037D02*
X3210473D01*
X3200527Y2051963D02*
X3210527D01*
X3200527Y2058963D02*
X3210527D01*
X3210473Y2271037D02*
X3220473D01*
X3210473Y2264037D02*
X3220473D01*
X3169180Y2276389D02*
X3179181D01*
X3169180Y2283389D02*
X3179181D01*
X3149973Y2283537D02*
X3159973D01*
X3149973Y2276537D02*
X3159973D01*
X3135463Y2253473D02*
Y2263473D01*
X3142463Y2253473D02*
Y2263473D01*
X3169180Y2222963D02*
X3179181D01*
X3169180Y2229963D02*
X3179181D01*
X3149973Y2230111D02*
X3159973D01*
X3149973Y2223111D02*
X3159973D01*
X3135463Y2180473D02*
Y2190473D01*
X3142463Y2180473D02*
Y2190473D01*
X3149973Y2155537D02*
X3159973D01*
X3149973Y2148537D02*
X3159973D01*
X3159963Y2129473D02*
Y2139473D01*
X3166963Y2129473D02*
Y2139473D01*
X3247473Y1965037D02*
X3257473D01*
X3247473Y1958037D02*
X3257473D01*
X3198473Y1998037D02*
X3208473D01*
X3198473Y1991037D02*
X3208473D01*
X3202192Y1985394D02*
X3204554Y1987756D01*
Y1988150D01*
X3203767Y1986182D02*
X3203827D01*
X3202979Y1985394D02*
X3203767Y1986182D01*
X3202979Y1985394D02*
Y1986575D01*
X3203827Y1987424D01*
Y1983759D02*
Y1987424D01*
Y1983759D02*
X3204554Y1983032D01*
Y1983819D01*
X3202979Y1985394D02*
X3204554Y1983819D01*
X3202192Y1985394D02*
X3202979D01*
X3202192D02*
X3204554Y1983032D01*
Y1988150D01*
X3202192Y1985788D02*
X3204554Y1988150D01*
X3202192Y1982638D02*
Y1988938D01*
X3176579Y1970239D02*
X3186579D01*
X3176579Y1963239D02*
X3186579D01*
X3176579Y1950537D02*
X3186579D01*
X3176579Y1943537D02*
X3186579D01*
X3176579Y1930537D02*
X3186579D01*
X3176579Y1923537D02*
X3186579D01*
X3176579Y1989638D02*
X3186579D01*
X3176579Y1982638D02*
X3186579D01*
X3198473Y1979250D02*
X3208473D01*
X3198473Y1972250D02*
X3208473D01*
X3202192Y1966094D02*
X3204554Y1968456D01*
Y1968850D01*
X3203767Y1966881D02*
X3203827D01*
X3202979Y1966094D02*
X3203767Y1966881D01*
X3202979Y1966094D02*
Y1967275D01*
X3203827Y1968123D01*
Y1964458D02*
Y1968123D01*
Y1964458D02*
X3204554Y1963732D01*
Y1964519D01*
X3202979Y1966094D02*
X3204554Y1964519D01*
X3202192Y1966094D02*
X3202979D01*
X3202192D02*
X3204554Y1963732D01*
Y1968850D01*
X3202192Y1966488D02*
X3204554Y1968850D01*
X3202192Y1963338D02*
Y1969637D01*
X3198516Y1959049D02*
X3208516D01*
X3198516Y1952049D02*
X3208516D01*
X3202319Y1946106D02*
X3204681Y1948469D01*
Y1948862D01*
X3203894Y1946894D02*
X3203954D01*
X3203106Y1946106D02*
X3203894Y1946894D01*
X3203106Y1946106D02*
Y1947287D01*
X3203954Y1948136D01*
Y1944471D02*
Y1948136D01*
Y1944471D02*
X3204681Y1943744D01*
Y1944531D01*
X3203106Y1946106D02*
X3204681Y1944531D01*
X3202319Y1946106D02*
X3203106D01*
X3202319D02*
X3204681Y1943744D01*
Y1948862D01*
X3202319Y1946500D02*
X3204681Y1948862D01*
X3202319Y1943350D02*
Y1949650D01*
X3198473Y1938549D02*
X3208473D01*
X3198473Y1931549D02*
X3208473D01*
X3202192Y1926205D02*
X3204554Y1928567D01*
Y1928961D01*
X3203767Y1926992D02*
X3203827D01*
X3202979Y1926205D02*
X3203767Y1926992D01*
X3202979Y1926205D02*
Y1927386D01*
X3203827Y1928234D01*
Y1924570D02*
Y1928234D01*
Y1924570D02*
X3204554Y1923843D01*
Y1924630D01*
X3202979Y1926205D02*
X3204554Y1924630D01*
X3202192Y1926205D02*
X3202979D01*
X3202192D02*
X3204554Y1923843D01*
Y1928961D01*
X3202192Y1926599D02*
X3204554Y1928961D01*
X3202192Y1923449D02*
Y1929748D01*
X3055074Y2028554D02*
Y2038553D01*
X3048074Y2028554D02*
Y2038553D01*
X3051537Y2012527D02*
X3061537D01*
X3051537Y2005527D02*
X3061537D01*
X3073142Y1979527D02*
X3083142D01*
X3073142Y1972527D02*
X3083142D01*
X3052037Y1979527D02*
X3062037D01*
X3052037Y1972527D02*
X3062037D01*
X3097500Y1966553D02*
Y1976554D01*
X3090500Y1966553D02*
Y1976554D01*
X3052037Y1970451D02*
X3062037D01*
X3052037Y1963451D02*
X3062037D01*
X3048000Y1948500D02*
Y1958500D01*
X3055000Y1948500D02*
Y1958500D01*
X3055074Y1922553D02*
Y1932553D01*
X3048074Y1922553D02*
Y1932553D01*
X3104552Y1937016D02*
Y1947017D01*
X3097552Y1937016D02*
Y1947017D01*
X3090500Y1903000D02*
Y1913000D01*
X3097500Y1903000D02*
Y1913000D01*
X3072643Y1906527D02*
X3082643D01*
X3072643Y1899527D02*
X3082643D01*
X3043574Y1921054D02*
Y1931054D01*
X3036574Y1921054D02*
Y1931054D01*
X3043574Y2027053D02*
Y2037053D01*
X3036574Y2027053D02*
Y2037053D01*
X3051537Y2022027D02*
X3061537D01*
X3051537Y2015027D02*
X3061537D01*
X3072643Y2012527D02*
X3082643D01*
X3072643Y2005527D02*
X3082643D01*
X3090500Y2009000D02*
Y2019000D01*
X3097500Y2009000D02*
Y2019000D01*
X3073320Y2084639D02*
X3083320D01*
X3073320Y2077639D02*
X3083320D01*
X3097500Y2072553D02*
Y2082553D01*
X3090500Y2072553D02*
Y2082553D01*
X3104552Y2043016D02*
Y2053016D01*
X3097552Y2043016D02*
Y2053016D01*
X3048000Y2054500D02*
Y2064500D01*
X3055000Y2054500D02*
Y2064500D01*
X3052037Y2076451D02*
X3062037D01*
X3052037Y2069451D02*
X3062037D01*
X3052037Y2085527D02*
X3062037D01*
X3052037Y2078527D02*
X3062037D01*
X3051537Y2118527D02*
X3061537D01*
X3051537Y2111527D02*
X3061537D01*
X3072532Y2119285D02*
X3082532D01*
X3072532Y2112285D02*
X3082532D01*
X3104552Y2149017D02*
Y2159016D01*
X3097552Y2149017D02*
Y2159016D01*
X3090500Y2115000D02*
Y2125000D01*
X3097500Y2115000D02*
Y2125000D01*
X3051537Y2128027D02*
X3061537D01*
X3051537Y2121027D02*
X3061537D01*
X3055074Y2134554D02*
Y2144554D01*
X3048074Y2134554D02*
Y2144554D01*
X3043574Y2133054D02*
Y2143053D01*
X3036574Y2133054D02*
Y2143053D01*
X3052037Y2182451D02*
X3062037D01*
X3052037Y2175451D02*
X3062037D01*
X3048000Y2160500D02*
Y2170500D01*
X3055000Y2160500D02*
Y2170500D01*
X3052037Y2191527D02*
X3062037D01*
X3052037Y2184527D02*
X3062037D01*
X3097500Y2178554D02*
Y2188553D01*
X3090500Y2178554D02*
Y2188553D01*
X3073142Y2191527D02*
X3083142D01*
X3073142Y2184527D02*
X3083142D01*
X3051537Y2224527D02*
X3061537D01*
X3051537Y2217527D02*
X3061537D01*
X3072643Y2224527D02*
X3082643D01*
X3072643Y2217527D02*
X3082643D01*
X3051537Y2234027D02*
X3061537D01*
X3051537Y2227027D02*
X3061537D01*
X3043574Y2239054D02*
Y2249054D01*
X3036574Y2239054D02*
Y2249054D01*
X3055074Y2240553D02*
Y2250554D01*
X3048074Y2240553D02*
Y2250554D01*
X3090500Y2221000D02*
Y2231000D01*
X3097500Y2221000D02*
Y2231000D01*
X3105506Y2254869D02*
Y2264869D01*
X3098506Y2254869D02*
Y2264869D01*
X3097500Y2284554D02*
Y2294554D01*
X3090500Y2284554D02*
Y2294554D01*
X3073142Y2297527D02*
X3083142D01*
X3073142Y2290527D02*
X3083142D01*
X3048000Y2266500D02*
Y2276500D01*
X3055000Y2266500D02*
Y2276500D01*
X3052037Y2288451D02*
X3062037D01*
X3052037Y2281451D02*
X3062037D01*
X3052037Y2297527D02*
X3062037D01*
X3052037Y2290527D02*
X3062037D01*
X3021064Y2283490D02*
X3031064D01*
X3021064Y2290490D02*
X3031064D01*
X3021064Y2177490D02*
X3031064D01*
X3021064Y2184490D02*
X3031064D01*
X3021988Y2109027D02*
X3031988D01*
X3021988Y2102027D02*
X3031988D01*
X3021064Y2071490D02*
X3031064D01*
X3021064Y2078490D02*
X3031064D01*
X3020958Y1985033D02*
X3030957D01*
X3020958Y1978033D02*
X3030957D01*
X3021064Y1965490D02*
X3031064D01*
X3021064Y1972490D02*
X3031064D01*
X2999488Y1957527D02*
X3009488D01*
X2999488Y1950527D02*
X3009488D01*
X3051537Y1916027D02*
X3061537D01*
X3051537Y1909027D02*
X3061537D01*
X3051537Y1906527D02*
X3061537D01*
X3051537Y1899527D02*
X3061537D01*
X3237973Y1755037D02*
X3247973D01*
X3237973Y1748037D02*
X3247973D01*
X3230973Y1806037D02*
X3240973D01*
X3230973Y1799037D02*
X3240973D01*
X3229527Y1787236D02*
X3239527D01*
X3229527Y1794236D02*
X3239527D01*
X3127473Y1788037D02*
X3137473D01*
X3127473Y1781037D02*
X3137473D01*
X3006085Y1858536D02*
Y1868536D01*
X3013085Y1858536D02*
Y1868536D01*
X2980046Y1860682D02*
Y1870682D01*
X2987046Y1860682D02*
Y1870682D01*
X2970046Y1860485D02*
Y1870485D01*
X2977046Y1860485D02*
Y1870485D01*
X3204681Y2034350D02*
Y2040650D01*
X3202319Y2035138D02*
X3204681Y2037500D01*
X3202319Y2035138D02*
Y2040256D01*
X3204681Y2037894D01*
X3203894D02*
X3204681D01*
X3202319Y2039469D02*
X3203894Y2037894D01*
X3202319Y2039469D02*
Y2040256D01*
X3203046Y2039529D01*
Y2035864D02*
Y2039529D01*
Y2035864D02*
X3203894Y2036713D01*
Y2037894D01*
X3203106Y2037106D02*
X3203894Y2037894D01*
X3203046Y2037106D02*
X3203106D01*
X3202319Y2035138D02*
Y2035531D01*
X3204681Y2037894D01*
X3205181Y2016850D02*
Y2023150D01*
X3202819Y2017638D02*
X3205181Y2020000D01*
X3202819Y2017638D02*
Y2022756D01*
X3205181Y2020394D01*
X3204394D02*
X3205181D01*
X3202819Y2021968D02*
X3204394Y2020394D01*
X3202819Y2021968D02*
Y2022756D01*
X3203545Y2022029D01*
Y2018364D02*
Y2022029D01*
Y2018364D02*
X3204394Y2019213D01*
Y2020394D01*
X3203606Y2019606D02*
X3204394Y2020394D01*
X3203545Y2019606D02*
X3203606D01*
X3202819Y2017638D02*
Y2018032D01*
X3205181Y2020394D01*
X3195681Y1850350D02*
Y1856650D01*
X3193319Y1851138D02*
X3195681Y1853500D01*
X3193319Y1851138D02*
Y1856256D01*
X3195681Y1853894D01*
X3194894D02*
X3195681D01*
X3193319Y1855469D02*
X3194894Y1853894D01*
X3193319Y1855469D02*
Y1856256D01*
X3194045Y1855529D01*
Y1851864D02*
Y1855529D01*
Y1851864D02*
X3194894Y1852713D01*
Y1853894D01*
X3194106Y1853106D02*
X3194894Y1853894D01*
X3194045Y1853106D02*
X3194106D01*
X3193319Y1851138D02*
Y1851531D01*
X3195681Y1853894D01*
X3067048Y1860509D02*
Y1870509D01*
X3074048Y1860509D02*
Y1870509D01*
X2999488Y2063527D02*
X3009488D01*
X2999488Y2056527D02*
X3009488D01*
X2999488Y2169527D02*
X3009488D01*
X2999488Y2162527D02*
X3009488D01*
X2999488Y2275527D02*
X3009488D01*
X2999488Y2268527D02*
X3009488D01*
X3141674Y2035473D02*
Y2045473D01*
X3148674Y2035473D02*
Y2045473D01*
X3135463Y2109973D02*
Y2119973D01*
X3142463Y2109973D02*
Y2119973D01*
X3223963Y1996473D02*
Y2006473D01*
X3230963Y1996473D02*
Y2006473D01*
X3046266Y1869887D02*
Y1876186D01*
X3043904Y1870674D02*
X3046266Y1873036D01*
X3043904Y1870674D02*
Y1875792D01*
X3046266Y1873430D01*
X3045479D02*
X3046266D01*
X3043904Y1875005D02*
X3045479Y1873430D01*
X3043904Y1875005D02*
Y1875792D01*
X3044630Y1875066D01*
Y1871401D02*
Y1875066D01*
Y1871401D02*
X3045479Y1872249D01*
Y1873430D01*
X3044691Y1872643D02*
X3045479Y1873430D01*
X3044630Y1872643D02*
X3044691D01*
X3043904Y1870674D02*
Y1871068D01*
X3046266Y1873430D01*
X2959266Y1868887D02*
Y1875186D01*
X2956904Y1869674D02*
X2959266Y1872036D01*
X2956904Y1869674D02*
Y1874792D01*
X2959266Y1872430D01*
X2958479D02*
X2959266D01*
X2956904Y1874005D02*
X2958479Y1872430D01*
X2956904Y1874005D02*
Y1874792D01*
X2957631Y1874066D01*
Y1870401D02*
Y1874066D01*
Y1870401D02*
X2958479Y1871249D01*
Y1872430D01*
X2957691Y1871642D02*
X2958479Y1872430D01*
X2957631Y1871642D02*
X2957691D01*
X2956904Y1869674D02*
Y1870068D01*
X2959266Y1872430D01*
X3093085Y1860536D02*
Y1870536D01*
X3100085Y1860536D02*
Y1870536D01*
X3020958Y2090939D02*
X3030957D01*
X3020958Y2083939D02*
X3030957D01*
X3020958Y2197238D02*
X3030957D01*
X3020958Y2190238D02*
X3030957D01*
X3020958Y2302750D02*
X3030957D01*
X3020958Y2295750D02*
X3030957D01*
X3021988Y1897027D02*
X3031988D01*
X3021988Y1890027D02*
X3031988D01*
X3021988Y2003027D02*
X3031988D01*
X3021988Y1996027D02*
X3031988D01*
X3021988Y2215027D02*
X3031988D01*
X3021988Y2208027D02*
X3031988D01*
X3191027Y2125963D02*
X3201027D01*
X3191027Y2132963D02*
X3201027D01*
X3190527Y2101463D02*
X3200527D01*
X3190527Y2108463D02*
X3200527D01*
X3190527Y2087463D02*
X3200527D01*
X3190527Y2094463D02*
X3200527D01*
X3220473Y2023537D02*
X3230473D01*
X3220473Y2016537D02*
X3230473D01*
X3144473Y2069537D02*
X3154473D01*
X3144473Y2062537D02*
X3154473D01*
X3248527Y2052963D02*
X3258527D01*
X3248527Y2059963D02*
X3258527D01*
X3209973Y2140537D02*
X3219973D01*
X3209973Y2133537D02*
X3219973D01*
X3209973Y2101537D02*
X3219973D01*
X3209973Y2094537D02*
X3219973D01*
X3209973Y2087537D02*
X3219973D01*
X3209973Y2080537D02*
X3219973D01*
X3209973Y2125537D02*
X3219973D01*
X3209973Y2118537D02*
X3219973D01*
X3210473Y2169037D02*
X3220473D01*
X3210473Y2162037D02*
X3220473D01*
X3210473Y2183537D02*
X3220473D01*
X3210473Y2176537D02*
X3220473D01*
X3210473Y2212037D02*
X3220473D01*
X3210473Y2205037D02*
X3220473D01*
X3210473Y2198037D02*
X3220473D01*
X3210473Y2191037D02*
X3220473D01*
X3210473Y2242037D02*
X3220473D01*
X3210473Y2235037D02*
X3220473D01*
X3210473Y2256037D02*
X3220473D01*
X3210473Y2249037D02*
X3220473D01*
X3210473Y2285037D02*
X3220473D01*
X3210473Y2278037D02*
X3220473D01*
X3220527Y2033963D02*
X3230527D01*
X3220527Y2040963D02*
X3230527D01*
X3191027Y2111463D02*
X3201027D01*
X3191027Y2118463D02*
X3201027D01*
X3190527Y2154963D02*
X3200527D01*
X3190527Y2161963D02*
X3200527D01*
X3190527Y2169463D02*
X3200527D01*
X3190527Y2176463D02*
X3200527D01*
X3190527Y2197963D02*
X3200527D01*
X3190527Y2204963D02*
X3200527D01*
X3190527Y2183963D02*
X3200527D01*
X3190527Y2190963D02*
X3200527D01*
X3190527Y2227963D02*
X3200527D01*
X3190527Y2234963D02*
X3200527D01*
X3190527Y2242463D02*
X3200527D01*
X3190527Y2249463D02*
X3200527D01*
X3190573Y2270963D02*
X3200573D01*
X3190573Y2277963D02*
X3200573D01*
X3190527Y2256963D02*
X3200527D01*
X3190527Y2263963D02*
X3200527D01*
X3057048Y1860009D02*
Y1870009D01*
X3064048Y1860009D02*
Y1870009D01*
X3101218Y1723532D02*
Y1763296D01*
X3053974D02*
X3101218D01*
X3053974Y1723532D02*
Y1763296D01*
Y1723532D02*
X3101218D01*
X3053974Y1734950D02*
X3101218D01*
X3015218Y1723532D02*
Y1763296D01*
X2967974D02*
X3015218D01*
X2967974Y1723532D02*
Y1763296D01*
Y1723532D02*
X3015218D01*
X2967974Y1734950D02*
X3015218D01*
X3127473Y1825537D02*
X3137473D01*
X3127473Y1818537D02*
X3137473D01*
X3127473Y1813037D02*
X3137473D01*
X3127473Y1806037D02*
X3137473D01*
X3127473Y1800537D02*
X3137473D01*
X3127473Y1793537D02*
X3137473D01*
X3173963Y1848473D02*
Y1858473D01*
X3166963Y1848473D02*
Y1858473D01*
X3214973Y1761537D02*
X3224973D01*
X3214973Y1754537D02*
X3224973D01*
X3278251Y1764618D02*
X3296223D01*
X3278251Y1751482D02*
X3296223D01*
X3249473Y1796037D02*
X3259473D01*
X3249473Y1789037D02*
X3259473D01*
X3214473Y1857037D02*
X3224473D01*
X3214473Y1850037D02*
X3224473D01*
X3215537Y1787527D02*
Y1797527D01*
X3208537Y1787527D02*
Y1797527D01*
X3267500Y1763500D02*
Y1773500D01*
X3260500Y1763500D02*
Y1773500D01*
X3168473Y2090037D02*
X3178473D01*
X3168473Y2083037D02*
X3178473D01*
X3149973Y2210611D02*
X3159973D01*
X3149973Y2203611D02*
X3159973D01*
X3169180Y2203463D02*
X3179181D01*
X3169180Y2210463D02*
X3179181D01*
X3169180Y2148389D02*
X3179181D01*
X3169180Y2155389D02*
X3179181D01*
X3154500Y1986500D02*
Y1988166D01*
Y1987333D01*
X3149502D01*
X3150335Y1986500D01*
Y1990665D02*
X3149502Y1991498D01*
Y1993164D01*
X3150335Y1993998D01*
X3153667D01*
X3154500Y1993164D01*
Y1991498D01*
X3153667Y1990665D01*
X3150335D01*
X3163667Y1986500D02*
X3164500Y1987333D01*
Y1988999D01*
X3163667Y1989832D01*
X3160335D01*
X3159502Y1988999D01*
Y1987333D01*
X3160335Y1986500D01*
X3161168D01*
X3162001Y1987333D01*
Y1989832D01*
X3164500Y1932500D02*
Y1934166D01*
Y1933333D01*
X3159502D01*
X3160335Y1932500D01*
X3154500Y1933832D02*
Y1930500D01*
X3151168Y1933832D01*
X3150335D01*
X3149502Y1932999D01*
Y1931333D01*
X3150335Y1930500D01*
D54*
X3060045Y1743809D02*
X3060426Y1743999D01*
X3060997Y1744571D01*
Y1740572D01*
X2974045Y1743809D02*
X2974426Y1743999D01*
X2974997Y1744571D01*
Y1740572D01*
M02*
