G04*
G04 #@! TF.GenerationSoftware,Altium Limited,Altium Designer,18.0.12 (696)*
G04*
G04 Layer_Physical_Order=2*
G04 Layer_Color=16711680*
%FSLAX23Y23*%
%MOIN*%
G70*
G01*
G75*
%ADD67C,0.030*%
%ADD68C,0.040*%
%ADD71C,0.050*%
%ADD72C,0.020*%
%ADD75O,0.157X0.118*%
%ADD76O,0.157X0.098*%
%ADD77C,0.059*%
%ADD78R,0.059X0.059*%
%ADD79C,0.060*%
%ADD80C,0.079*%
%ADD81C,0.118*%
%ADD82C,0.043*%
%ADD83C,0.303*%
%ADD84C,0.157*%
%ADD85R,0.157X0.157*%
%ADD86C,0.055*%
%ADD87C,0.047*%
%ADD88C,0.024*%
%ADD89C,0.020*%
G36*
X7466Y8145D02*
X7466Y8145D01*
X7466Y8145D01*
X7476Y8145D01*
X7495Y8141D01*
X7514Y8134D01*
X7530Y8123D01*
X7537Y8116D01*
X7644Y8009D01*
X7644Y8009D01*
X7649Y8004D01*
X7657Y7992D01*
X7663Y7978D01*
X7665Y7964D01*
X7665Y7957D01*
X7665Y7540D01*
X7665Y7048D01*
X7665Y5889D01*
X7665Y5889D01*
X7665Y5879D01*
X7662Y5860D01*
X7654Y5842D01*
X7643Y5825D01*
X7636Y5818D01*
X7446Y5628D01*
X7439Y5621D01*
X7423Y5610D01*
X7404Y5603D01*
X7385Y5599D01*
X7375Y5599D01*
X7157Y5599D01*
X7157Y5599D01*
X7147Y5599D01*
X7128Y5595D01*
X7110Y5587D01*
X7094Y5576D01*
X7087Y5570D01*
X6842Y5326D01*
X6830Y5329D01*
X6811Y5330D01*
X6793Y5329D01*
X6774Y5324D01*
X6757Y5317D01*
X6741Y5307D01*
X6727Y5295D01*
X6715Y5281D01*
X6706Y5265D01*
X6698Y5248D01*
X6694Y5230D01*
X6693Y5212D01*
X6694Y5193D01*
X6698Y5175D01*
X6706Y5158D01*
X6715Y5142D01*
X6727Y5128D01*
X6741Y5116D01*
X6750Y5111D01*
D01*
X6756Y5107D01*
X6807Y5055D01*
X6801Y5040D01*
X6795Y5017D01*
X6793Y4992D01*
X6795Y4968D01*
X6801Y4944D01*
X6810Y4921D01*
X6823Y4900D01*
X6839Y4882D01*
X6858Y4866D01*
X6879Y4853D01*
X6901Y4844D01*
X6925Y4838D01*
X6949Y4836D01*
X7008D01*
X7025Y4837D01*
X7240Y4622D01*
Y4483D01*
X7088Y4331D01*
X7079Y4336D01*
X7057Y4345D01*
X7033Y4351D01*
X7008Y4353D01*
X6949D01*
X6925Y4351D01*
X6901Y4345D01*
X6879Y4336D01*
X6858Y4323D01*
X6839Y4307D01*
X6823Y4289D01*
X6810Y4268D01*
X6801Y4245D01*
X6795Y4221D01*
X6793Y4197D01*
X6795Y4173D01*
X6801Y4149D01*
X6810Y4126D01*
X6823Y4105D01*
X6839Y4087D01*
X6858Y4071D01*
X6879Y4058D01*
X6901Y4049D01*
X6925Y4043D01*
X6949Y4041D01*
X7008D01*
X7033Y4043D01*
X7057Y4049D01*
X7077Y4057D01*
X7079Y4056D01*
X7097Y4049D01*
X7117Y4044D01*
X7137Y4042D01*
X7157Y4044D01*
X7176Y4049D01*
X7195Y4056D01*
X7212Y4067D01*
X7228Y4080D01*
X7236Y4089D01*
X7240Y4087D01*
Y3615D01*
X7130Y3504D01*
Y3125D01*
X7130D01*
X7209Y3046D01*
X7666Y3046D01*
X7669Y3045D01*
X7690Y3040D01*
X7712Y3038D01*
X7733Y3040D01*
X7754Y3045D01*
X7757Y3046D01*
X7821Y3047D01*
X7831Y3047D01*
X7850Y3043D01*
X7868Y3036D01*
X7885Y3025D01*
X7891Y3018D01*
X7891Y3018D01*
X7979Y2931D01*
X7986Y2924D01*
X8002Y2913D01*
X8020Y2906D01*
X8039Y2902D01*
X8049Y2902D01*
X8096Y2902D01*
X8106Y2902D01*
X8126Y2898D01*
X8144Y2890D01*
X8160Y2879D01*
X8167Y2872D01*
X8167Y2872D01*
X8167Y2872D01*
X8181Y2858D01*
X8188Y2851D01*
X8198Y2835D01*
X8205Y2818D01*
X8209Y2799D01*
X8209Y2789D01*
X8209D01*
X8209Y2789D01*
X8209Y1808D01*
X8204Y1805D01*
X8199Y1810D01*
X8181Y1821D01*
X8161Y1829D01*
X8140Y1834D01*
X8119Y1836D01*
X8098Y1834D01*
X8077Y1829D01*
X8057Y1821D01*
X8039Y1810D01*
X8022Y1796D01*
X8008Y1779D01*
X7997Y1761D01*
X7989Y1741D01*
X7984Y1720D01*
X7982Y1699D01*
X7984Y1678D01*
X7989Y1657D01*
X7992Y1650D01*
X7989Y1646D01*
X7890D01*
X7871Y1650D01*
X7852Y1657D01*
X7836Y1668D01*
X7829Y1675D01*
Y1675D01*
X7470Y2034D01*
X7463Y2040D01*
X7447Y2051D01*
X7429Y2059D01*
X7409Y2063D01*
X7400Y2063D01*
X7400Y2063D01*
X7400Y2063D01*
X7096D01*
X6991Y1958D01*
Y1947D01*
X4161Y1947D01*
X4160Y1948D01*
X2856Y1948D01*
X2852Y1952D01*
X2836Y1961D01*
X2819Y1968D01*
X2801Y1973D01*
X2782Y1974D01*
X2768Y1973D01*
X2766Y1978D01*
X2770Y1983D01*
X2783Y2004D01*
X2792Y2027D01*
X2798Y2051D01*
X2800Y2075D01*
X2798Y2100D01*
X2792Y2123D01*
X2783Y2146D01*
X2770Y2167D01*
X2754Y2185D01*
X2736Y2201D01*
X2715Y2214D01*
X2692Y2223D01*
X2669Y2229D01*
X2644Y2231D01*
X2585D01*
X2561Y2229D01*
X2546Y2226D01*
X2287Y2484D01*
X2287Y2519D01*
X2505Y2737D01*
X2514Y2731D01*
X2537Y2722D01*
X2561Y2716D01*
X2585Y2714D01*
X2644D01*
X2669Y2716D01*
X2692Y2722D01*
X2715Y2731D01*
X2736Y2744D01*
X2754Y2760D01*
X2770Y2779D01*
X2783Y2799D01*
X2792Y2822D01*
X2798Y2846D01*
X2800Y2870D01*
X2798Y2895D01*
X2792Y2918D01*
X2783Y2941D01*
X2770Y2962D01*
X2754Y2981D01*
X2736Y2996D01*
X2715Y3009D01*
X2692Y3019D01*
X2669Y3024D01*
X2644Y3026D01*
X2585D01*
X2561Y3024D01*
X2537Y3019D01*
X2516Y3010D01*
X2515Y3011D01*
X2496Y3019D01*
X2477Y3023D01*
X2457Y3025D01*
X2437Y3023D01*
X2417Y3019D01*
X2398Y3011D01*
X2381Y3000D01*
X2366Y2987D01*
X2353Y2972D01*
X2342Y2955D01*
X2335Y2936D01*
X2330Y2917D01*
X2328Y2897D01*
X2330Y2877D01*
X2330Y2875D01*
X2292Y2837D01*
X2287Y2839D01*
X2287Y3387D01*
X2464Y3563D01*
Y3942D01*
X2464D01*
X2385Y4021D01*
X1927D01*
X1924Y4022D01*
X1903Y4027D01*
X1882Y4029D01*
X1861Y4027D01*
X1840Y4022D01*
X1837Y4021D01*
X1795D01*
X1715Y4020D01*
X1705D01*
X1685Y4024D01*
X1667Y4031D01*
X1651Y4042D01*
X1644Y4049D01*
X1644Y4049D01*
Y4049D01*
X1569Y4124D01*
X1562Y4131D01*
X1546Y4141D01*
X1528Y4149D01*
X1510Y4153D01*
X1500Y4154D01*
X1500Y4154D01*
X1500Y4154D01*
X1479D01*
X1474Y4154D01*
X1463Y4156D01*
X1454Y4160D01*
X1445Y4166D01*
X1436Y4174D01*
X1429Y4185D01*
X1424Y4197D01*
X1421Y4210D01*
Y4217D01*
Y5248D01*
X1426Y5250D01*
X1432Y5246D01*
X1452Y5238D01*
X1473Y5233D01*
X1494Y5232D01*
X1516Y5233D01*
X1537Y5238D01*
X1556Y5246D01*
X1575Y5258D01*
X1591Y5272D01*
X1605Y5288D01*
X1616Y5306D01*
X1624Y5326D01*
X1629Y5347D01*
X1631Y5368D01*
X1629Y5390D01*
X1624Y5411D01*
X1622Y5417D01*
X1622Y5418D01*
X1623Y5419D01*
X1625Y5421D01*
X1626Y5421D01*
X1626Y5421D01*
X1626Y5421D01*
X1675Y5421D01*
X1685Y5421D01*
X1704Y5417D01*
X1723Y5410D01*
X1739Y5399D01*
X1746Y5392D01*
X1746Y5392D01*
X2191Y4947D01*
X2198Y4940D01*
X2215Y4929D01*
X2233Y4922D01*
X2252Y4918D01*
X2262Y4917D01*
X2268Y4917D01*
X2369D01*
X2379Y4917D01*
X2398Y4921D01*
X2416Y4929D01*
X2433Y4940D01*
X2440Y4946D01*
X2461Y4968D01*
X2464Y4968D01*
Y4970D01*
X2603Y5109D01*
Y5120D01*
X3357D01*
X3367Y5121D01*
X3387Y5125D01*
X3405Y5132D01*
X3421Y5143D01*
X3428Y5150D01*
X3433Y5154D01*
X3433Y5154D01*
X3439Y5161D01*
X3449Y5177D01*
X3457Y5194D01*
X3460Y5212D01*
X3461Y5222D01*
X3461Y7536D01*
X3461Y7541D01*
X3461Y7541D01*
X3461Y7541D01*
X3461Y7541D01*
X3461Y7548D01*
X3463Y7560D01*
X3468Y7572D01*
X3475Y7582D01*
X3480Y7587D01*
X3675Y7782D01*
X3678Y7786D01*
X3678Y7786D01*
X3678Y7786D01*
X3678Y7786D01*
X3685Y7793D01*
X3702Y7804D01*
X3720Y7811D01*
X3739Y7815D01*
X3749Y7815D01*
X3823Y7815D01*
X5607Y7815D01*
X6179D01*
X6300Y7815D01*
X6310Y7815D01*
X6329Y7819D01*
X6347Y7827D01*
X6364Y7838D01*
X6371Y7844D01*
X6642Y8116D01*
X6649Y8123D01*
X6666Y8134D01*
X6684Y8141D01*
X6703Y8145D01*
X6713Y8145D01*
X6877Y8145D01*
X7311Y8145D01*
X7466Y8145D01*
D02*
G37*
G36*
X8840Y3988D02*
X8840Y3988D01*
X8840Y3988D01*
X8850Y3988D01*
X8870Y3984D01*
X8888Y3977D01*
X8904Y3966D01*
X8911Y3959D01*
X9305Y3565D01*
X9305Y3565D01*
X9312Y3558D01*
X9323Y3541D01*
X9331Y3523D01*
X9335Y3504D01*
X9335Y3494D01*
X9335Y923D01*
X9335Y923D01*
X9335Y913D01*
X9331Y894D01*
X9323Y876D01*
X9312Y860D01*
X9305Y853D01*
X8840Y387D01*
X8833Y380D01*
X8816Y369D01*
X8798Y362D01*
X8779Y358D01*
X8769Y358D01*
X8480D01*
X7756Y356D01*
X7631Y232D01*
X7463Y72D01*
X1535D01*
X864Y71D01*
X854Y71D01*
X835Y75D01*
X817Y82D01*
X801Y93D01*
X794Y100D01*
X132Y762D01*
X132D01*
X125Y769D01*
X114Y785D01*
X106Y804D01*
X102Y823D01*
X102Y833D01*
Y3490D01*
X102Y3500D01*
X106Y3519D01*
X114Y3537D01*
X125Y3554D01*
X132Y3561D01*
X417Y3846D01*
X417Y3846D01*
Y3846D01*
X424Y3853D01*
X440Y3864D01*
X458Y3871D01*
X477Y3875D01*
X487Y3875D01*
X760Y3875D01*
X1130Y3875D01*
X1240Y3874D01*
Y3874D01*
X1242Y3872D01*
X1246Y3869D01*
X1251Y3867D01*
X1257Y3866D01*
X1259Y3866D01*
X1480Y3866D01*
X1480Y3866D01*
X1480Y3866D01*
X1490Y3866D01*
X1508Y3862D01*
X1525Y3855D01*
X1541Y3845D01*
X1548Y3838D01*
X1555Y3831D01*
X1555Y3831D01*
Y3831D01*
X1561Y3825D01*
X1569Y3813D01*
X1570Y3803D01*
X1575Y3779D01*
X1579Y3771D01*
X1579Y3191D01*
X1579Y3191D01*
X1579Y3182D01*
X1576Y3165D01*
X1570Y3149D01*
X1562Y3134D01*
X1556Y3128D01*
X1545Y3116D01*
X1545Y3116D01*
X1538Y3109D01*
X1522Y3098D01*
X1503Y3090D01*
X1484Y3087D01*
X1474Y3087D01*
X795Y3087D01*
X795Y3087D01*
X792Y3086D01*
X787Y3085D01*
X782Y3083D01*
X778Y3081D01*
X776Y3079D01*
X774Y3077D01*
X771Y3072D01*
X769Y3068D01*
X768Y3062D01*
X768Y3060D01*
Y1223D01*
X768Y1218D01*
X770Y1207D01*
X774Y1198D01*
X780Y1189D01*
X783Y1185D01*
X783Y1185D01*
X783D01*
X788Y1181D01*
X797Y1175D01*
X808Y1171D01*
X819Y1168D01*
X825Y1168D01*
X3246D01*
X3678Y1600D01*
X6117D01*
X6578Y1139D01*
X7256Y1136D01*
X8587D01*
X8597Y1136D01*
X8616Y1140D01*
X8634Y1148D01*
X8650Y1159D01*
X8657Y1165D01*
X8671Y1179D01*
X8671D01*
X8671Y1179D01*
X8678Y1187D01*
X8689Y1203D01*
X8696Y1221D01*
X8700Y1240D01*
X8701Y1250D01*
X8701Y3087D01*
X8701D01*
X8701Y3087D01*
X8700Y3096D01*
X8697Y3114D01*
X8690Y3131D01*
X8679Y3147D01*
X8673Y3154D01*
X8659Y3168D01*
X8659Y3168D01*
X8652Y3174D01*
X8636Y3185D01*
X8618Y3193D01*
X8598Y3196D01*
X8589Y3197D01*
X8504Y3198D01*
X8157Y3198D01*
X8055Y3300D01*
Y3961D01*
X8055Y3964D01*
X8056Y3969D01*
X8058Y3974D01*
X8061Y3978D01*
X8063Y3980D01*
X8065Y3983D01*
X8070Y3986D01*
X8076Y3988D01*
X8082Y3990D01*
X8085Y3990D01*
X8449Y3990D01*
X8488Y3990D01*
X8840Y3988D01*
D02*
G37*
%LPC*%
G36*
X6057Y7596D02*
Y7537D01*
X6115D01*
X6113Y7546D01*
X6105Y7561D01*
X6094Y7574D01*
X6081Y7585D01*
X6066Y7593D01*
X6057Y7596D01*
D02*
G37*
G36*
X6008Y7596D02*
X5999Y7593D01*
X5984Y7585D01*
X5971Y7574D01*
X5960Y7561D01*
X5952Y7546D01*
X5949Y7537D01*
X6008D01*
Y7596D01*
D02*
G37*
G36*
X4151D02*
Y7537D01*
X4210D01*
X4207Y7546D01*
X4199Y7561D01*
X4188Y7574D01*
X4175Y7585D01*
X4160Y7593D01*
X4151Y7596D01*
D02*
G37*
G36*
X4102D02*
X4093Y7593D01*
X4078Y7585D01*
X4065Y7574D01*
X4054Y7561D01*
X4046Y7546D01*
X4044Y7537D01*
X4102D01*
Y7596D01*
D02*
G37*
G36*
X6115Y7488D02*
X6057D01*
Y7430D01*
X6066Y7432D01*
X6081Y7441D01*
X6094Y7451D01*
X6105Y7465D01*
X6113Y7480D01*
X6115Y7488D01*
D02*
G37*
G36*
X4210Y7488D02*
X4151D01*
Y7430D01*
X4160Y7432D01*
X4175Y7441D01*
X4188Y7451D01*
X4199Y7465D01*
X4207Y7480D01*
X4210Y7488D01*
D02*
G37*
G36*
X4102D02*
X4044D01*
X4046Y7480D01*
X4054Y7465D01*
X4065Y7451D01*
X4078Y7441D01*
X4093Y7432D01*
X4102Y7430D01*
Y7488D01*
D02*
G37*
G36*
X6008Y7488D02*
X5949D01*
X5952Y7480D01*
X5960Y7465D01*
X5971Y7451D01*
X5984Y7441D01*
X5999Y7432D01*
X6008Y7430D01*
Y7488D01*
D02*
G37*
G36*
X7288Y7242D02*
X7267Y7241D01*
X7245Y7236D01*
X7225Y7229D01*
X7205Y7220D01*
X7190Y7209D01*
X7174Y7220D01*
X7155Y7229D01*
X7134Y7236D01*
X7113Y7241D01*
X7091Y7242D01*
X7070Y7241D01*
X7048Y7236D01*
X7028Y7229D01*
X7008Y7220D01*
X6993Y7209D01*
X6977Y7220D01*
X6958Y7229D01*
X6937Y7236D01*
X6916Y7241D01*
X6894Y7242D01*
X6873Y7241D01*
X6852Y7236D01*
X6831Y7229D01*
X6812Y7220D01*
X6794Y7208D01*
X6777Y7194D01*
X6763Y7177D01*
X6751Y7159D01*
X6741Y7140D01*
X6734Y7119D01*
X6730Y7098D01*
X6729Y7076D01*
X6730Y7055D01*
X6734Y7034D01*
X6741Y7013D01*
X6751Y6994D01*
X6763Y6976D01*
X6777Y6959D01*
X6794Y6945D01*
X6799Y6941D01*
Y6936D01*
X6794Y6932D01*
X6777Y6918D01*
X6763Y6902D01*
X6751Y6884D01*
X6741Y6864D01*
X6734Y6844D01*
X6730Y6822D01*
X6729Y6801D01*
X6730Y6779D01*
X6734Y6758D01*
X6741Y6737D01*
X6751Y6718D01*
X6763Y6700D01*
X6777Y6684D01*
X6794Y6669D01*
X6812Y6657D01*
X6831Y6648D01*
X6852Y6641D01*
X6873Y6637D01*
X6894Y6635D01*
X6916Y6637D01*
X6937Y6641D01*
X6958Y6648D01*
X6977Y6657D01*
X6993Y6668D01*
X7008Y6657D01*
X7028Y6648D01*
X7048Y6641D01*
X7070Y6637D01*
X7091Y6635D01*
X7113Y6637D01*
X7134Y6641D01*
X7155Y6648D01*
X7174Y6657D01*
X7190Y6668D01*
X7205Y6657D01*
X7225Y6648D01*
X7245Y6641D01*
X7267Y6637D01*
X7288Y6635D01*
X7310Y6637D01*
X7331Y6641D01*
X7352Y6648D01*
X7371Y6657D01*
X7389Y6669D01*
X7405Y6684D01*
X7420Y6700D01*
X7432Y6718D01*
X7441Y6737D01*
X7448Y6758D01*
X7452Y6779D01*
X7454Y6801D01*
X7452Y6822D01*
X7448Y6844D01*
X7441Y6864D01*
X7432Y6884D01*
X7420Y6902D01*
X7405Y6918D01*
X7389Y6932D01*
X7383Y6936D01*
Y6941D01*
X7389Y6945D01*
X7405Y6959D01*
X7420Y6976D01*
X7432Y6994D01*
X7441Y7013D01*
X7448Y7034D01*
X7452Y7055D01*
X7454Y7076D01*
X7452Y7098D01*
X7448Y7119D01*
X7441Y7140D01*
X7432Y7159D01*
X7420Y7177D01*
X7405Y7194D01*
X7389Y7208D01*
X7371Y7220D01*
X7352Y7229D01*
X7331Y7236D01*
X7310Y7241D01*
X7288Y7242D01*
D02*
G37*
G36*
X6217Y7304D02*
X5847D01*
Y6934D01*
X6217D01*
Y7304D01*
D02*
G37*
G36*
X4312D02*
X3942D01*
Y6934D01*
X4312D01*
Y7304D01*
D02*
G37*
G36*
X7288Y6285D02*
X7267Y6284D01*
X7245Y6280D01*
X7225Y6273D01*
X7205Y6263D01*
X7190Y6253D01*
X7174Y6263D01*
X7155Y6273D01*
X7134Y6280D01*
X7113Y6284D01*
X7091Y6285D01*
X7070Y6284D01*
X7048Y6280D01*
X7028Y6273D01*
X7008Y6263D01*
X6993Y6253D01*
X6977Y6263D01*
X6958Y6273D01*
X6937Y6280D01*
X6916Y6284D01*
X6894Y6285D01*
X6873Y6284D01*
X6852Y6280D01*
X6831Y6273D01*
X6812Y6263D01*
X6794Y6251D01*
X6777Y6237D01*
X6763Y6221D01*
X6751Y6203D01*
X6741Y6183D01*
X6734Y6163D01*
X6730Y6141D01*
X6729Y6120D01*
X6730Y6098D01*
X6734Y6077D01*
X6741Y6056D01*
X6751Y6037D01*
X6763Y6019D01*
X6777Y6003D01*
X6794Y5988D01*
X6799Y5984D01*
Y5979D01*
X6794Y5976D01*
X6777Y5961D01*
X6763Y5945D01*
X6751Y5927D01*
X6741Y5908D01*
X6734Y5887D01*
X6730Y5866D01*
X6729Y5844D01*
X6730Y5822D01*
X6734Y5801D01*
X6741Y5781D01*
X6751Y5761D01*
X6763Y5743D01*
X6777Y5727D01*
X6794Y5713D01*
X6812Y5701D01*
X6831Y5691D01*
X6852Y5684D01*
X6873Y5680D01*
X6894Y5678D01*
X6916Y5680D01*
X6937Y5684D01*
X6958Y5691D01*
X6977Y5701D01*
X6993Y5711D01*
X7008Y5701D01*
X7028Y5691D01*
X7048Y5684D01*
X7070Y5680D01*
X7091Y5678D01*
X7113Y5680D01*
X7134Y5684D01*
X7155Y5691D01*
X7174Y5701D01*
X7190Y5711D01*
X7205Y5701D01*
X7225Y5691D01*
X7245Y5684D01*
X7267Y5680D01*
X7288Y5678D01*
X7310Y5680D01*
X7331Y5684D01*
X7352Y5691D01*
X7371Y5701D01*
X7389Y5713D01*
X7405Y5727D01*
X7420Y5743D01*
X7432Y5761D01*
X7441Y5781D01*
X7448Y5801D01*
X7452Y5822D01*
X7454Y5844D01*
X7452Y5866D01*
X7448Y5887D01*
X7441Y5908D01*
X7432Y5927D01*
X7420Y5945D01*
X7405Y5961D01*
X7389Y5976D01*
X7383Y5979D01*
Y5984D01*
X7389Y5988D01*
X7405Y6003D01*
X7420Y6019D01*
X7432Y6037D01*
X7441Y6056D01*
X7448Y6077D01*
X7452Y6098D01*
X7454Y6120D01*
X7452Y6141D01*
X7448Y6163D01*
X7441Y6183D01*
X7432Y6203D01*
X7420Y6221D01*
X7405Y6237D01*
X7389Y6251D01*
X7371Y6263D01*
X7352Y6273D01*
X7331Y6280D01*
X7310Y6284D01*
X7288Y6285D01*
D02*
G37*
G36*
X6032Y5998D02*
X6008Y5996D01*
X5984Y5991D01*
X5961Y5983D01*
X5940Y5973D01*
X5919Y5959D01*
X5901Y5943D01*
X5885Y5925D01*
X5872Y5905D01*
X5861Y5883D01*
X5853Y5860D01*
X5848Y5836D01*
X5847Y5812D01*
X5848Y5788D01*
X5853Y5764D01*
X5861Y5741D01*
X5872Y5719D01*
X5885Y5699D01*
X5901Y5681D01*
X5919Y5665D01*
X5940Y5651D01*
X5961Y5641D01*
X5984Y5633D01*
X6008Y5628D01*
X6032Y5627D01*
X6056Y5628D01*
X6080Y5633D01*
X6103Y5641D01*
X6125Y5651D01*
X6145Y5665D01*
X6163Y5681D01*
X6179Y5699D01*
X6193Y5719D01*
X6204Y5741D01*
X6211Y5764D01*
X6216Y5788D01*
X6218Y5812D01*
X6216Y5836D01*
X6211Y5860D01*
X6204Y5883D01*
X6193Y5905D01*
X6179Y5925D01*
X6163Y5943D01*
X6145Y5959D01*
X6125Y5973D01*
X6103Y5983D01*
X6080Y5991D01*
X6056Y5996D01*
X6032Y5998D01*
D02*
G37*
G36*
X4127D02*
X4103Y5996D01*
X4079Y5991D01*
X4056Y5983D01*
X4034Y5973D01*
X4014Y5959D01*
X3996Y5943D01*
X3980Y5925D01*
X3966Y5905D01*
X3955Y5883D01*
X3948Y5860D01*
X3943Y5836D01*
X3941Y5812D01*
X3943Y5788D01*
X3948Y5764D01*
X3955Y5741D01*
X3966Y5719D01*
X3980Y5699D01*
X3996Y5681D01*
X4014Y5665D01*
X4034Y5651D01*
X4056Y5641D01*
X4079Y5633D01*
X4103Y5628D01*
X4127Y5627D01*
X4151Y5628D01*
X4175Y5633D01*
X4198Y5641D01*
X4219Y5651D01*
X4240Y5665D01*
X4258Y5681D01*
X4274Y5699D01*
X4287Y5719D01*
X4298Y5741D01*
X4306Y5764D01*
X4311Y5788D01*
X4312Y5812D01*
X4311Y5836D01*
X4306Y5860D01*
X4298Y5883D01*
X4287Y5905D01*
X4274Y5925D01*
X4258Y5943D01*
X4240Y5959D01*
X4219Y5973D01*
X4198Y5983D01*
X4175Y5991D01*
X4151Y5996D01*
X4127Y5998D01*
D02*
G37*
G36*
X6217Y5603D02*
X5847D01*
Y5233D01*
X6217D01*
Y5603D01*
D02*
G37*
G36*
X4312D02*
X3942D01*
Y5233D01*
X4312D01*
Y5603D01*
D02*
G37*
G36*
X1504Y5107D02*
Y5078D01*
X1533D01*
X1533Y5079D01*
X1529Y5088D01*
X1523Y5097D01*
X1514Y5103D01*
X1505Y5107D01*
X1504Y5107D01*
D02*
G37*
G36*
X1484Y5107D02*
X1484Y5107D01*
X1474Y5103D01*
X1466Y5097D01*
X1459Y5088D01*
X1455Y5079D01*
X1455Y5078D01*
X1484D01*
Y5107D01*
D02*
G37*
G36*
X1533Y5058D02*
X1504D01*
Y5029D01*
X1505Y5029D01*
X1514Y5033D01*
X1523Y5040D01*
X1529Y5048D01*
X1533Y5058D01*
X1533Y5058D01*
D02*
G37*
G36*
X1484D02*
X1455D01*
X1455Y5058D01*
X1459Y5048D01*
X1466Y5040D01*
X1474Y5033D01*
X1484Y5029D01*
X1484Y5029D01*
Y5058D01*
D02*
G37*
G36*
X1494Y5007D02*
X1484Y5005D01*
X1475Y5001D01*
X1467Y4995D01*
X1461Y4987D01*
X1457Y4978D01*
X1456Y4968D01*
X1457Y4958D01*
X1461Y4949D01*
X1467Y4941D01*
X1475Y4935D01*
X1484Y4931D01*
X1494Y4930D01*
X1504Y4931D01*
X1513Y4935D01*
X1521Y4941D01*
X1527Y4949D01*
X1531Y4958D01*
X1533Y4968D01*
X1531Y4978D01*
X1527Y4987D01*
X1521Y4995D01*
X1513Y5001D01*
X1504Y5005D01*
X1494Y5007D01*
D02*
G37*
G36*
X3555Y4905D02*
X3534Y4903D01*
X3512Y4899D01*
X3492Y4892D01*
X3472Y4883D01*
X3454Y4871D01*
X3438Y4856D01*
X3424Y4840D01*
X3420Y4834D01*
X3415D01*
X3411Y4840D01*
X3397Y4856D01*
X3380Y4871D01*
X3362Y4883D01*
X3343Y4892D01*
X3322Y4899D01*
X3301Y4903D01*
X3280Y4905D01*
X3258Y4903D01*
X3237Y4899D01*
X3216Y4892D01*
X3197Y4883D01*
X3179Y4871D01*
X3162Y4856D01*
X3148Y4840D01*
X3136Y4822D01*
X3126Y4803D01*
X3120Y4782D01*
X3118Y4774D01*
X3113Y4773D01*
X3109Y4779D01*
X3093Y4798D01*
X3074Y4814D01*
X3054Y4827D01*
X3031Y4836D01*
X3007Y4842D01*
X2990Y4843D01*
X2981Y4851D01*
X2964Y4861D01*
X2945Y4869D01*
X2926Y4874D01*
X2906Y4875D01*
X2885Y4874D01*
X2866Y4869D01*
X2847Y4861D01*
X2830Y4851D01*
X2815Y4838D01*
X2802Y4822D01*
X2791Y4805D01*
X2783Y4787D01*
X2779Y4767D01*
X2777Y4747D01*
X2778Y4742D01*
X2775Y4736D01*
X2770Y4712D01*
X2768Y4688D01*
X2770Y4663D01*
X2775Y4640D01*
X2785Y4617D01*
X2797Y4596D01*
X2813Y4578D01*
X2832Y4562D01*
X2853Y4549D01*
X2875Y4539D01*
X2899Y4534D01*
X2924Y4532D01*
X2983D01*
X3007Y4534D01*
X3031Y4539D01*
X3054Y4549D01*
X3074Y4562D01*
X3093Y4578D01*
X3109Y4596D01*
X3122Y4617D01*
X3131Y4640D01*
X3134Y4651D01*
X3139Y4652D01*
X3146Y4641D01*
X3136Y4625D01*
X3126Y4606D01*
X3120Y4585D01*
X3115Y4564D01*
X3114Y4542D01*
X3115Y4521D01*
X3120Y4499D01*
X3126Y4479D01*
X3136Y4459D01*
X3146Y4444D01*
X3136Y4428D01*
X3126Y4409D01*
X3120Y4388D01*
X3115Y4367D01*
X3114Y4345D01*
X3115Y4324D01*
X3120Y4303D01*
X3126Y4282D01*
X3136Y4263D01*
X3148Y4245D01*
X3162Y4228D01*
X3179Y4214D01*
X3197Y4202D01*
X3216Y4192D01*
X3237Y4185D01*
X3258Y4181D01*
X3280Y4180D01*
X3301Y4181D01*
X3322Y4185D01*
X3343Y4192D01*
X3362Y4202D01*
X3380Y4214D01*
X3397Y4228D01*
X3411Y4245D01*
X3415Y4250D01*
X3420D01*
X3424Y4245D01*
X3438Y4228D01*
X3454Y4214D01*
X3472Y4202D01*
X3492Y4192D01*
X3512Y4185D01*
X3534Y4181D01*
X3555Y4180D01*
X3577Y4181D01*
X3598Y4185D01*
X3619Y4192D01*
X3638Y4202D01*
X3656Y4214D01*
X3672Y4228D01*
X3687Y4245D01*
X3699Y4263D01*
X3708Y4282D01*
X3715Y4303D01*
X3719Y4324D01*
X3721Y4345D01*
X3719Y4367D01*
X3715Y4388D01*
X3708Y4409D01*
X3699Y4428D01*
X3688Y4444D01*
X3699Y4459D01*
X3708Y4479D01*
X3715Y4499D01*
X3719Y4521D01*
X3721Y4542D01*
X3719Y4564D01*
X3715Y4585D01*
X3708Y4606D01*
X3699Y4625D01*
X3688Y4641D01*
X3699Y4656D01*
X3708Y4676D01*
X3715Y4696D01*
X3719Y4718D01*
X3721Y4739D01*
X3719Y4761D01*
X3715Y4782D01*
X3708Y4803D01*
X3699Y4822D01*
X3687Y4840D01*
X3672Y4856D01*
X3656Y4871D01*
X3638Y4883D01*
X3619Y4892D01*
X3598Y4899D01*
X3577Y4903D01*
X3555Y4905D01*
D02*
G37*
G36*
X1494Y4907D02*
X1484Y4905D01*
X1475Y4901D01*
X1467Y4895D01*
X1461Y4887D01*
X1457Y4878D01*
X1456Y4868D01*
X1457Y4858D01*
X1461Y4849D01*
X1467Y4841D01*
X1475Y4835D01*
X1484Y4831D01*
X1494Y4830D01*
X1504Y4831D01*
X1513Y4835D01*
X1521Y4841D01*
X1527Y4849D01*
X1531Y4858D01*
X1533Y4868D01*
X1531Y4878D01*
X1527Y4887D01*
X1521Y4895D01*
X1513Y4901D01*
X1504Y4905D01*
X1494Y4907D01*
D02*
G37*
G36*
X6670Y4934D02*
X6611D01*
X6586Y4932D01*
X6563Y4926D01*
X6540Y4917D01*
X6520Y4904D01*
X6510Y4904D01*
X6491Y4899D01*
X6472Y4891D01*
X6455Y4881D01*
X6440Y4868D01*
X6427Y4852D01*
X6416Y4835D01*
X6408Y4817D01*
X6404Y4797D01*
X6402Y4777D01*
X6404Y4757D01*
X6408Y4737D01*
X6416Y4719D01*
X6427Y4701D01*
X6440Y4686D01*
X6455Y4673D01*
X6472Y4663D01*
X6491Y4655D01*
X6510Y4650D01*
X6523Y4649D01*
X6540Y4639D01*
X6563Y4629D01*
X6586Y4623D01*
X6611Y4622D01*
X6670D01*
X6694Y4623D01*
X6718Y4629D01*
X6741Y4639D01*
X6762Y4651D01*
X6780Y4667D01*
X6796Y4686D01*
X6809Y4707D01*
X6818Y4729D01*
X6824Y4753D01*
X6826Y4778D01*
X6824Y4802D01*
X6818Y4826D01*
X6809Y4848D01*
X6796Y4869D01*
X6780Y4888D01*
X6762Y4904D01*
X6741Y4917D01*
X6718Y4926D01*
X6694Y4932D01*
X6670Y4934D01*
D02*
G37*
G36*
X1504Y4607D02*
Y4578D01*
X1533D01*
X1533Y4579D01*
X1529Y4588D01*
X1523Y4597D01*
X1514Y4603D01*
X1505Y4607D01*
X1504Y4607D01*
D02*
G37*
G36*
X1484Y4607D02*
X1484Y4607D01*
X1474Y4603D01*
X1466Y4597D01*
X1459Y4588D01*
X1455Y4579D01*
X1455Y4578D01*
X1484D01*
Y4607D01*
D02*
G37*
G36*
X1882Y4824D02*
X1861Y4823D01*
X1840Y4818D01*
X1820Y4809D01*
X1802Y4798D01*
X1785Y4784D01*
X1772Y4768D01*
X1760Y4750D01*
X1752Y4730D01*
X1747Y4709D01*
X1746Y4688D01*
X1747Y4666D01*
X1752Y4646D01*
X1760Y4626D01*
X1772Y4608D01*
X1785Y4591D01*
X1802Y4577D01*
X1820Y4566D01*
X1840Y4558D01*
X1861Y4553D01*
X1882Y4551D01*
X1903Y4553D01*
X1924Y4558D01*
X1944Y4566D01*
X1962Y4577D01*
X1978Y4591D01*
X1992Y4608D01*
X2003Y4626D01*
X2012Y4646D01*
X2017Y4666D01*
X2018Y4688D01*
X2017Y4709D01*
X2012Y4730D01*
X2003Y4750D01*
X1992Y4768D01*
X1978Y4784D01*
X1962Y4798D01*
X1944Y4809D01*
X1924Y4818D01*
X1903Y4823D01*
X1882Y4824D01*
D02*
G37*
G36*
X1533Y4558D02*
X1504D01*
Y4529D01*
X1505Y4529D01*
X1514Y4533D01*
X1523Y4540D01*
X1529Y4548D01*
X1533Y4558D01*
X1533Y4558D01*
D02*
G37*
G36*
X1484D02*
X1455D01*
X1455Y4558D01*
X1459Y4548D01*
X1466Y4540D01*
X1474Y4533D01*
X1484Y4529D01*
X1484Y4529D01*
Y4558D01*
D02*
G37*
G36*
X1494Y4507D02*
X1484Y4505D01*
X1475Y4501D01*
X1467Y4495D01*
X1461Y4487D01*
X1457Y4478D01*
X1456Y4468D01*
X1457Y4458D01*
X1461Y4449D01*
X1467Y4441D01*
X1475Y4435D01*
X1484Y4431D01*
X1494Y4430D01*
X1504Y4431D01*
X1513Y4435D01*
X1521Y4441D01*
X1527Y4449D01*
X1531Y4458D01*
X1533Y4468D01*
X1531Y4478D01*
X1527Y4487D01*
X1521Y4495D01*
X1513Y4501D01*
X1504Y4505D01*
X1494Y4507D01*
D02*
G37*
G36*
X6999Y4729D02*
X6959D01*
X6938Y4727D01*
X6916Y4723D01*
X6896Y4716D01*
X6876Y4707D01*
X6858Y4694D01*
X6842Y4680D01*
X6828Y4664D01*
X6816Y4646D01*
X6806Y4626D01*
X6799Y4606D01*
X6795Y4585D01*
X6794Y4563D01*
X6795Y4541D01*
X6799Y4520D01*
X6806Y4500D01*
X6816Y4480D01*
X6828Y4462D01*
X6842Y4446D01*
X6858Y4432D01*
X6876Y4419D01*
X6896Y4410D01*
X6916Y4403D01*
X6938Y4399D01*
X6959Y4397D01*
X6999D01*
X7020Y4399D01*
X7041Y4403D01*
X7062Y4410D01*
X7081Y4419D01*
X7099Y4432D01*
X7116Y4446D01*
X7130Y4462D01*
X7142Y4480D01*
X7152Y4500D01*
X7159Y4520D01*
X7163Y4541D01*
X7164Y4563D01*
X7163Y4585D01*
X7159Y4606D01*
X7152Y4626D01*
X7142Y4646D01*
X7130Y4664D01*
X7116Y4680D01*
X7099Y4694D01*
X7081Y4707D01*
X7062Y4716D01*
X7041Y4723D01*
X7020Y4727D01*
X6999Y4729D01*
D02*
G37*
G36*
X2644Y4531D02*
X2585D01*
X2570Y4529D01*
X2556Y4523D01*
X2544Y4514D01*
X2535Y4502D01*
X2529Y4488D01*
X2527Y4473D01*
X2529Y4458D01*
X2535Y4444D01*
X2544Y4432D01*
X2549Y4429D01*
X2545Y4423D01*
X2542Y4416D01*
X2541Y4408D01*
X2542Y4401D01*
X2545Y4393D01*
X2550Y4387D01*
X2556Y4383D01*
X2563Y4380D01*
X2571Y4379D01*
X2579Y4380D01*
X2586Y4383D01*
X2592Y4387D01*
X2597Y4393D01*
X2600Y4401D01*
X2601Y4408D01*
X2600Y4412D01*
X2604Y4416D01*
X2644D01*
X2659Y4418D01*
X2673Y4423D01*
X2685Y4432D01*
X2694Y4444D01*
X2700Y4458D01*
X2702Y4473D01*
X2700Y4488D01*
X2694Y4502D01*
X2685Y4514D01*
X2673Y4523D01*
X2659Y4529D01*
X2644Y4531D01*
D02*
G37*
G36*
X5465Y4931D02*
X5440Y4930D01*
X5417Y4925D01*
X5394Y4917D01*
X5372Y4907D01*
X5352Y4893D01*
X5333Y4877D01*
X5317Y4859D01*
X5304Y4839D01*
X5293Y4817D01*
X5285Y4794D01*
X5281Y4770D01*
X5279Y4746D01*
X5281Y4722D01*
X5285Y4698D01*
X5293Y4675D01*
X5304Y4653D01*
X5308Y4648D01*
X5304Y4642D01*
X5293Y4620D01*
X5285Y4597D01*
X5281Y4573D01*
X5279Y4549D01*
X5281Y4525D01*
X5285Y4501D01*
X5293Y4478D01*
X5304Y4456D01*
X5317Y4436D01*
X5333Y4418D01*
X5352Y4402D01*
X5372Y4389D01*
X5394Y4378D01*
X5417Y4370D01*
X5440Y4365D01*
X5465Y4364D01*
X5489Y4365D01*
X5513Y4370D01*
X5536Y4378D01*
X5557Y4389D01*
X5577Y4402D01*
X5596Y4418D01*
X5612Y4436D01*
X5625Y4456D01*
X5636Y4478D01*
X5644Y4501D01*
X5648Y4525D01*
X5650Y4549D01*
X5648Y4573D01*
X5644Y4597D01*
X5636Y4620D01*
X5625Y4642D01*
X5621Y4648D01*
X5625Y4653D01*
X5636Y4675D01*
X5644Y4698D01*
X5648Y4722D01*
X5650Y4746D01*
X5648Y4770D01*
X5644Y4794D01*
X5636Y4817D01*
X5625Y4839D01*
X5612Y4859D01*
X5596Y4877D01*
X5577Y4893D01*
X5557Y4907D01*
X5536Y4917D01*
X5513Y4925D01*
X5489Y4930D01*
X5465Y4931D01*
D02*
G37*
G36*
X1494Y4407D02*
X1484Y4405D01*
X1475Y4401D01*
X1467Y4395D01*
X1461Y4387D01*
X1457Y4378D01*
X1456Y4368D01*
X1457Y4358D01*
X1461Y4349D01*
X1467Y4341D01*
X1475Y4335D01*
X1484Y4331D01*
X1494Y4330D01*
X1504Y4331D01*
X1513Y4335D01*
X1521Y4341D01*
X1527Y4349D01*
X1531Y4358D01*
X1533Y4368D01*
X1531Y4378D01*
X1527Y4387D01*
X1521Y4395D01*
X1513Y4401D01*
X1504Y4405D01*
X1494Y4407D01*
D02*
G37*
G36*
X1504Y4307D02*
Y4278D01*
X1533D01*
X1533Y4279D01*
X1529Y4288D01*
X1523Y4297D01*
X1514Y4303D01*
X1505Y4307D01*
X1504Y4307D01*
D02*
G37*
G36*
X1484Y4307D02*
X1484Y4307D01*
X1474Y4303D01*
X1466Y4297D01*
X1459Y4288D01*
X1455Y4279D01*
X1455Y4278D01*
X1484D01*
Y4307D01*
D02*
G37*
G36*
X1533Y4258D02*
X1504D01*
Y4229D01*
X1505Y4229D01*
X1514Y4233D01*
X1523Y4240D01*
X1529Y4248D01*
X1533Y4258D01*
X1533Y4258D01*
D02*
G37*
G36*
X1484D02*
X1455D01*
X1455Y4258D01*
X1459Y4248D01*
X1466Y4240D01*
X1474Y4233D01*
X1484Y4229D01*
X1484Y4229D01*
Y4258D01*
D02*
G37*
G36*
X6670Y4138D02*
X6611D01*
X6586Y4137D01*
X6563Y4131D01*
X6540Y4121D01*
X6521Y4110D01*
X6506Y4108D01*
X6487Y4104D01*
X6468Y4096D01*
X6451Y4085D01*
X6436Y4072D01*
X6423Y4057D01*
X6412Y4040D01*
X6404Y4021D01*
X6400Y4002D01*
X6398Y3982D01*
X6400Y3962D01*
X6404Y3942D01*
X6412Y3923D01*
X6423Y3906D01*
X6436Y3891D01*
X6451Y3878D01*
X6468Y3867D01*
X6487Y3860D01*
X6506Y3855D01*
X6524Y3854D01*
X6540Y3843D01*
X6563Y3834D01*
X6586Y3828D01*
X6611Y3826D01*
X6670D01*
X6694Y3828D01*
X6718Y3834D01*
X6741Y3843D01*
X6762Y3856D01*
X6780Y3872D01*
X6796Y3891D01*
X6809Y3912D01*
X6818Y3934D01*
X6824Y3958D01*
X6826Y3982D01*
X6824Y4007D01*
X6818Y4031D01*
X6809Y4053D01*
X6796Y4074D01*
X6780Y4093D01*
X6762Y4109D01*
X6741Y4121D01*
X6718Y4131D01*
X6694Y4137D01*
X6670Y4138D01*
D02*
G37*
G36*
X2870Y4076D02*
X2850Y4075D01*
X2830Y4070D01*
X2812Y4062D01*
X2795Y4052D01*
X2779Y4039D01*
X2766Y4023D01*
X2756Y4006D01*
X2748Y3987D01*
X2743Y3968D01*
X2742Y3948D01*
X2743Y3928D01*
X2748Y3908D01*
X2756Y3890D01*
X2766Y3872D01*
X2770Y3869D01*
X2770Y3868D01*
X2775Y3844D01*
X2785Y3822D01*
X2797Y3801D01*
X2813Y3782D01*
X2832Y3766D01*
X2853Y3754D01*
X2875Y3744D01*
X2899Y3739D01*
X2924Y3737D01*
X2983D01*
X3007Y3739D01*
X3031Y3744D01*
X3054Y3754D01*
X3074Y3766D01*
X3093Y3782D01*
X3109Y3801D01*
X3122Y3822D01*
X3131Y3844D01*
X3137Y3868D01*
X3139Y3893D01*
X3137Y3917D01*
X3131Y3941D01*
X3122Y3963D01*
X3109Y3984D01*
X3093Y4003D01*
X3074Y4019D01*
X3054Y4032D01*
X3031Y4041D01*
X3007Y4047D01*
X2983Y4049D01*
X2949D01*
X2946Y4052D01*
X2928Y4062D01*
X2910Y4070D01*
X2890Y4075D01*
X2870Y4076D01*
D02*
G37*
G36*
X4249Y3776D02*
Y3718D01*
X4307D01*
X4305Y3726D01*
X4297Y3741D01*
X4286Y3754D01*
X4273Y3765D01*
X4258Y3773D01*
X4249Y3776D01*
D02*
G37*
G36*
X4200Y3776D02*
X4191Y3773D01*
X4176Y3765D01*
X4163Y3754D01*
X4152Y3741D01*
X4144Y3726D01*
X4141Y3718D01*
X4200D01*
Y3776D01*
D02*
G37*
G36*
X2610Y3801D02*
X2603Y3800D01*
X2595Y3797D01*
X2589Y3792D01*
X2584Y3786D01*
X2581Y3778D01*
X2580Y3771D01*
X2581Y3763D01*
X2584Y3756D01*
X2589Y3749D01*
X2595Y3745D01*
X2603Y3742D01*
X2610Y3741D01*
X2609Y3736D01*
X2585D01*
X2570Y3734D01*
X2556Y3728D01*
X2544Y3719D01*
X2535Y3707D01*
X2529Y3693D01*
X2527Y3678D01*
X2529Y3663D01*
X2535Y3649D01*
X2544Y3637D01*
X2556Y3628D01*
X2570Y3622D01*
X2585Y3620D01*
X2644D01*
X2659Y3622D01*
X2673Y3628D01*
X2685Y3637D01*
X2694Y3649D01*
X2700Y3663D01*
X2702Y3678D01*
X2700Y3693D01*
X2694Y3707D01*
X2685Y3719D01*
X2673Y3728D01*
X2659Y3734D01*
X2644Y3736D01*
X2611D01*
X2611Y3741D01*
X2618Y3742D01*
X2625Y3745D01*
X2631Y3749D01*
X2636Y3756D01*
X2639Y3763D01*
X2640Y3771D01*
X2639Y3778D01*
X2636Y3786D01*
X2631Y3792D01*
X2625Y3797D01*
X2618Y3800D01*
X2610Y3801D01*
D02*
G37*
G36*
X4307Y3668D02*
X4249D01*
Y3610D01*
X4258Y3613D01*
X4273Y3621D01*
X4286Y3631D01*
X4297Y3645D01*
X4305Y3660D01*
X4307Y3668D01*
D02*
G37*
G36*
X4200D02*
X4141D01*
X4144Y3660D01*
X4152Y3645D01*
X4163Y3631D01*
X4176Y3621D01*
X4191Y3613D01*
X4200Y3610D01*
Y3668D01*
D02*
G37*
G36*
X6999Y3934D02*
X6959D01*
X6938Y3932D01*
X6916Y3928D01*
X6896Y3921D01*
X6876Y3911D01*
X6858Y3899D01*
X6842Y3885D01*
X6828Y3869D01*
X6816Y3851D01*
X6806Y3831D01*
X6799Y3811D01*
X6795Y3789D01*
X6794Y3768D01*
X6795Y3746D01*
X6799Y3725D01*
X6806Y3704D01*
X6816Y3685D01*
X6828Y3667D01*
X6842Y3651D01*
X6858Y3636D01*
X6876Y3624D01*
X6896Y3615D01*
X6916Y3608D01*
X6938Y3604D01*
X6959Y3602D01*
X6999D01*
X7020Y3604D01*
X7041Y3608D01*
X7062Y3615D01*
X7081Y3624D01*
X7099Y3636D01*
X7116Y3651D01*
X7130Y3667D01*
X7142Y3685D01*
X7152Y3704D01*
X7159Y3725D01*
X7163Y3746D01*
X7164Y3768D01*
X7163Y3789D01*
X7159Y3811D01*
X7152Y3831D01*
X7142Y3851D01*
X7130Y3869D01*
X7116Y3885D01*
X7099Y3899D01*
X7081Y3911D01*
X7062Y3921D01*
X7041Y3928D01*
X7020Y3932D01*
X6999Y3934D01*
D02*
G37*
G36*
X4249Y3579D02*
Y3521D01*
X4307D01*
X4305Y3529D01*
X4297Y3544D01*
X4286Y3558D01*
X4273Y3568D01*
X4258Y3576D01*
X4249Y3579D01*
D02*
G37*
G36*
X4200Y3579D02*
X4191Y3576D01*
X4176Y3568D01*
X4163Y3558D01*
X4152Y3544D01*
X4144Y3529D01*
X4141Y3521D01*
X4200D01*
Y3579D01*
D02*
G37*
G36*
X5489Y3550D02*
Y3500D01*
Y3491D01*
X5548D01*
X5545Y3500D01*
X5537Y3515D01*
X5526Y3528D01*
X5513Y3539D01*
X5509Y3541D01*
D01*
X5498Y3547D01*
X5489Y3550D01*
D02*
G37*
G36*
X5440Y3550D02*
X5431Y3547D01*
X5416Y3539D01*
X5403Y3528D01*
X5392Y3515D01*
X5384Y3500D01*
X5382Y3491D01*
X5440D01*
Y3550D01*
D02*
G37*
G36*
X4307Y3471D02*
X4249D01*
Y3413D01*
X4258Y3416D01*
X4273Y3424D01*
X4286Y3435D01*
X4297Y3448D01*
X4305Y3463D01*
X4307Y3471D01*
D02*
G37*
G36*
X4200D02*
X4141D01*
X4144Y3463D01*
X4152Y3448D01*
X4163Y3435D01*
X4176Y3424D01*
X4191Y3416D01*
X4200Y3413D01*
Y3471D01*
D02*
G37*
G36*
X5548Y3442D02*
X5489D01*
Y3383D01*
X5498Y3386D01*
X5503Y3389D01*
X5509Y3392D01*
X5513Y3394D01*
X5526Y3405D01*
X5537Y3418D01*
X5545Y3433D01*
X5548Y3442D01*
D02*
G37*
G36*
X5440D02*
X5382D01*
X5384Y3433D01*
X5392Y3418D01*
X5403Y3405D01*
X5416Y3394D01*
X5431Y3386D01*
X5440Y3383D01*
Y3442D01*
D02*
G37*
G36*
X5489Y3353D02*
Y3294D01*
X5548D01*
X5545Y3303D01*
X5537Y3318D01*
X5526Y3331D01*
X5513Y3342D01*
X5509Y3344D01*
D01*
X5498Y3350D01*
X5489Y3353D01*
D02*
G37*
G36*
X5440Y3353D02*
X5431Y3350D01*
X5416Y3342D01*
X5403Y3331D01*
X5392Y3318D01*
X5384Y3303D01*
X5382Y3294D01*
X5440D01*
Y3353D01*
D02*
G37*
G36*
X7008Y3447D02*
X6949D01*
X6934Y3445D01*
X6921Y3439D01*
X6909Y3430D01*
X6899Y3418D01*
X6894Y3404D01*
X6892Y3389D01*
X6894Y3374D01*
X6899Y3360D01*
X6909Y3348D01*
X6921Y3339D01*
X6934Y3333D01*
X6949Y3331D01*
X6982D01*
X6983Y3326D01*
X6976Y3326D01*
X6968Y3323D01*
X6962Y3318D01*
X6957Y3312D01*
X6954Y3304D01*
X6953Y3297D01*
X6954Y3289D01*
X6957Y3282D01*
X6962Y3275D01*
X6968Y3271D01*
X6976Y3268D01*
X6983Y3267D01*
X6991Y3268D01*
X6998Y3271D01*
X7004Y3275D01*
X7009Y3282D01*
X7012Y3289D01*
X7013Y3297D01*
X7012Y3304D01*
X7009Y3312D01*
X7004Y3318D01*
X6998Y3323D01*
X6991Y3326D01*
X6984Y3326D01*
X6984Y3331D01*
X7008D01*
X7023Y3333D01*
X7037Y3339D01*
X7049Y3348D01*
X7058Y3360D01*
X7064Y3374D01*
X7066Y3389D01*
X7064Y3404D01*
X7058Y3418D01*
X7049Y3430D01*
X7037Y3439D01*
X7023Y3445D01*
X7008Y3447D01*
D02*
G37*
G36*
X5548Y3245D02*
X5489D01*
Y3187D01*
X5498Y3189D01*
X5504Y3192D01*
X5509Y3195D01*
D01*
X5513Y3197D01*
X5526Y3208D01*
X5537Y3221D01*
X5545Y3236D01*
X5548Y3245D01*
D02*
G37*
G36*
X5440D02*
X5382D01*
X5384Y3236D01*
X5392Y3221D01*
X5403Y3208D01*
X5416Y3197D01*
X5431Y3189D01*
X5440Y3187D01*
Y3245D01*
D02*
G37*
G36*
X2634Y3465D02*
X2595D01*
X2573Y3464D01*
X2552Y3459D01*
X2532Y3452D01*
X2512Y3443D01*
X2494Y3431D01*
X2478Y3417D01*
X2463Y3400D01*
X2451Y3382D01*
X2442Y3363D01*
X2435Y3342D01*
X2431Y3321D01*
X2429Y3299D01*
X2431Y3278D01*
X2435Y3256D01*
X2442Y3236D01*
X2451Y3217D01*
X2463Y3198D01*
X2478Y3182D01*
X2494Y3168D01*
X2512Y3156D01*
X2532Y3146D01*
X2552Y3139D01*
X2573Y3135D01*
X2595Y3134D01*
X2634D01*
X2656Y3135D01*
X2677Y3139D01*
X2698Y3146D01*
X2717Y3156D01*
X2735Y3168D01*
X2751Y3182D01*
X2766Y3198D01*
X2778Y3217D01*
X2787Y3236D01*
X2794Y3256D01*
X2799Y3278D01*
X2800Y3299D01*
X2799Y3321D01*
X2794Y3342D01*
X2787Y3363D01*
X2778Y3382D01*
X2766Y3400D01*
X2751Y3417D01*
X2735Y3431D01*
X2717Y3443D01*
X2698Y3452D01*
X2677Y3459D01*
X2656Y3464D01*
X2634Y3465D01*
D02*
G37*
G36*
X6670Y3331D02*
X6611D01*
X6586Y3329D01*
X6563Y3323D01*
X6540Y3314D01*
X6519Y3301D01*
X6501Y3285D01*
X6485Y3266D01*
X6472Y3245D01*
X6462Y3223D01*
X6457Y3199D01*
X6455Y3175D01*
X6457Y3150D01*
X6462Y3126D01*
X6472Y3104D01*
X6485Y3083D01*
X6501Y3064D01*
X6519Y3048D01*
X6540Y3036D01*
X6563Y3026D01*
X6586Y3020D01*
X6611Y3019D01*
X6644D01*
X6648Y3016D01*
X6665Y3005D01*
X6684Y2997D01*
X6703Y2993D01*
X6723Y2991D01*
X6743Y2993D01*
X6763Y2997D01*
X6782Y3005D01*
X6799Y3016D01*
X6814Y3029D01*
X6827Y3044D01*
X6838Y3061D01*
X6845Y3080D01*
X6850Y3099D01*
X6852Y3119D01*
X6850Y3140D01*
X6845Y3159D01*
X6838Y3178D01*
X6827Y3195D01*
X6824Y3199D01*
X6824Y3199D01*
X6818Y3223D01*
X6809Y3245D01*
X6796Y3266D01*
X6780Y3285D01*
X6762Y3301D01*
X6741Y3314D01*
X6718Y3323D01*
X6694Y3329D01*
X6670Y3331D01*
D02*
G37*
G36*
X2983Y3241D02*
X2924D01*
X2899Y3239D01*
X2875Y3233D01*
X2853Y3224D01*
X2832Y3211D01*
X2813Y3195D01*
X2797Y3176D01*
X2785Y3156D01*
X2775Y3133D01*
X2770Y3109D01*
X2768Y3085D01*
X2770Y3060D01*
X2775Y3037D01*
X2785Y3014D01*
X2797Y2993D01*
X2813Y2975D01*
X2832Y2959D01*
X2853Y2946D01*
X2875Y2936D01*
X2899Y2931D01*
X2924Y2929D01*
X2983D01*
X3007Y2931D01*
X3031Y2936D01*
X3054Y2946D01*
X3073Y2958D01*
X3087Y2959D01*
X3107Y2964D01*
X3125Y2971D01*
X3142Y2982D01*
X3158Y2995D01*
X3171Y3010D01*
X3181Y3027D01*
X3189Y3046D01*
X3194Y3066D01*
X3195Y3086D01*
X3194Y3106D01*
X3189Y3125D01*
X3181Y3144D01*
X3171Y3161D01*
X3158Y3176D01*
X3142Y3189D01*
X3125Y3200D01*
X3107Y3208D01*
X3087Y3212D01*
X3070Y3214D01*
X3054Y3224D01*
X3031Y3233D01*
X3007Y3239D01*
X2983Y3241D01*
D02*
G37*
G36*
X6307Y2925D02*
X6285Y2923D01*
X6264Y2919D01*
X6244Y2912D01*
X6224Y2902D01*
X6206Y2890D01*
X6190Y2876D01*
X6176Y2860D01*
X6172Y2854D01*
X6167D01*
X6163Y2860D01*
X6149Y2876D01*
X6132Y2890D01*
X6114Y2902D01*
X6095Y2912D01*
X6074Y2919D01*
X6053Y2923D01*
X6032Y2925D01*
X6010Y2923D01*
X5989Y2919D01*
X5968Y2912D01*
X5949Y2902D01*
X5931Y2890D01*
X5914Y2876D01*
X5900Y2860D01*
X5888Y2842D01*
X5878Y2822D01*
X5871Y2802D01*
X5867Y2780D01*
X5866Y2759D01*
X5867Y2737D01*
X5871Y2716D01*
X5878Y2695D01*
X5888Y2676D01*
X5898Y2660D01*
X5888Y2645D01*
X5878Y2625D01*
X5871Y2605D01*
X5867Y2584D01*
X5866Y2562D01*
X5867Y2540D01*
X5871Y2519D01*
X5878Y2499D01*
X5888Y2479D01*
X5898Y2464D01*
X5888Y2448D01*
X5878Y2429D01*
X5871Y2408D01*
X5867Y2387D01*
X5866Y2365D01*
X5867Y2343D01*
X5871Y2322D01*
X5878Y2302D01*
X5888Y2282D01*
X5900Y2264D01*
X5914Y2248D01*
X5931Y2234D01*
X5949Y2222D01*
X5968Y2212D01*
X5989Y2205D01*
X6010Y2201D01*
X6032Y2199D01*
X6053Y2201D01*
X6074Y2205D01*
X6095Y2212D01*
X6114Y2222D01*
X6132Y2234D01*
X6149Y2248D01*
X6163Y2264D01*
X6167Y2270D01*
X6172D01*
X6176Y2264D01*
X6190Y2248D01*
X6206Y2234D01*
X6224Y2222D01*
X6244Y2212D01*
X6264Y2205D01*
X6285Y2201D01*
X6307Y2199D01*
X6329Y2201D01*
X6350Y2205D01*
X6371Y2212D01*
X6390Y2222D01*
X6408Y2234D01*
X6424Y2248D01*
X6439Y2264D01*
X6451Y2282D01*
X6460Y2302D01*
X6464Y2314D01*
X6469Y2314D01*
X6472Y2309D01*
X6485Y2288D01*
X6501Y2269D01*
X6519Y2253D01*
X6540Y2240D01*
X6563Y2231D01*
X6586Y2225D01*
X6604Y2224D01*
X6613Y2216D01*
X6630Y2206D01*
X6648Y2198D01*
X6668Y2193D01*
X6688Y2192D01*
X6708Y2193D01*
X6728Y2198D01*
X6746Y2206D01*
X6763Y2216D01*
X6779Y2229D01*
X6792Y2245D01*
X6802Y2262D01*
X6810Y2281D01*
X6815Y2300D01*
X6816Y2320D01*
X6816Y2326D01*
X6818Y2331D01*
X6824Y2355D01*
X6826Y2379D01*
X6824Y2404D01*
X6818Y2428D01*
X6809Y2450D01*
X6796Y2471D01*
X6780Y2490D01*
X6762Y2506D01*
X6741Y2518D01*
X6718Y2528D01*
X6694Y2534D01*
X6670Y2535D01*
X6611D01*
X6586Y2534D01*
X6563Y2528D01*
X6540Y2518D01*
X6519Y2506D01*
X6501Y2490D01*
X6485Y2471D01*
X6472Y2450D01*
X6464Y2432D01*
X6459Y2432D01*
X6451Y2448D01*
X6440Y2464D01*
X6451Y2479D01*
X6460Y2499D01*
X6467Y2519D01*
X6471Y2540D01*
X6473Y2562D01*
X6471Y2584D01*
X6467Y2605D01*
X6460Y2625D01*
X6451Y2645D01*
X6440Y2660D01*
X6451Y2676D01*
X6460Y2695D01*
X6467Y2716D01*
X6471Y2737D01*
X6473Y2759D01*
X6471Y2780D01*
X6467Y2802D01*
X6460Y2822D01*
X6451Y2842D01*
X6439Y2860D01*
X6424Y2876D01*
X6408Y2890D01*
X6390Y2902D01*
X6371Y2912D01*
X6350Y2919D01*
X6329Y2923D01*
X6307Y2925D01*
D02*
G37*
G36*
X8129Y2838D02*
Y2809D01*
X8158D01*
X8158Y2809D01*
X8154Y2819D01*
X8147Y2828D01*
X8139Y2834D01*
X8129Y2838D01*
X8129Y2838D01*
D02*
G37*
G36*
X8109D02*
X8108Y2838D01*
X8099Y2834D01*
X8090Y2828D01*
X8084Y2819D01*
X8080Y2809D01*
X8080Y2809D01*
X8109D01*
Y2838D01*
D02*
G37*
G36*
X8158Y2789D02*
X8129D01*
Y2760D01*
X8129Y2760D01*
X8139Y2764D01*
X8147Y2770D01*
X8154Y2779D01*
X8158Y2789D01*
X8158Y2789D01*
D02*
G37*
G36*
X8109D02*
X8080D01*
X8080Y2789D01*
X8084Y2779D01*
X8090Y2770D01*
X8099Y2764D01*
X8108Y2760D01*
X8109Y2760D01*
Y2789D01*
D02*
G37*
G36*
X8119Y2737D02*
X8109Y2736D01*
X8100Y2732D01*
X8092Y2726D01*
X8086Y2718D01*
X8082Y2709D01*
X8081Y2699D01*
X8082Y2689D01*
X8086Y2680D01*
X8092Y2672D01*
X8100Y2666D01*
X8109Y2662D01*
X8119Y2661D01*
X8129Y2662D01*
X8138Y2666D01*
X8146Y2672D01*
X8152Y2680D01*
X8156Y2689D01*
X8157Y2699D01*
X8156Y2709D01*
X8152Y2718D01*
X8146Y2726D01*
X8138Y2732D01*
X8129Y2736D01*
X8119Y2737D01*
D02*
G37*
G36*
Y2637D02*
X8109Y2636D01*
X8100Y2632D01*
X8092Y2626D01*
X8086Y2618D01*
X8082Y2609D01*
X8081Y2599D01*
X8082Y2589D01*
X8086Y2580D01*
X8092Y2572D01*
X8100Y2566D01*
X8109Y2562D01*
X8119Y2561D01*
X8129Y2562D01*
X8138Y2566D01*
X8146Y2572D01*
X8152Y2580D01*
X8156Y2589D01*
X8157Y2599D01*
X8156Y2609D01*
X8152Y2618D01*
X8146Y2626D01*
X8138Y2632D01*
X8129Y2636D01*
X8119Y2637D01*
D02*
G37*
G36*
X7028Y2686D02*
X7020Y2685D01*
X7013Y2682D01*
X7006Y2678D01*
X7002Y2671D01*
X6999Y2664D01*
X6998Y2656D01*
X6998Y2655D01*
X6995Y2652D01*
X6949D01*
X6934Y2650D01*
X6921Y2644D01*
X6909Y2635D01*
X6899Y2623D01*
X6894Y2609D01*
X6892Y2594D01*
X6894Y2579D01*
X6899Y2565D01*
X6909Y2553D01*
X6921Y2544D01*
X6934Y2538D01*
X6949Y2536D01*
X7008D01*
X7023Y2538D01*
X7037Y2544D01*
X7049Y2553D01*
X7058Y2565D01*
X7064Y2579D01*
X7066Y2594D01*
X7064Y2609D01*
X7058Y2623D01*
X7049Y2635D01*
X7052Y2639D01*
X7054Y2642D01*
X7056Y2649D01*
X7058Y2656D01*
X7056Y2664D01*
X7054Y2671D01*
X7049Y2678D01*
X7043Y2682D01*
X7035Y2685D01*
X7028Y2686D01*
D02*
G37*
G36*
X8129Y2538D02*
Y2509D01*
X8158D01*
X8158Y2509D01*
X8154Y2519D01*
X8147Y2528D01*
X8139Y2534D01*
X8129Y2538D01*
X8129Y2538D01*
D02*
G37*
G36*
X8109D02*
X8108Y2538D01*
X8099Y2534D01*
X8090Y2528D01*
X8084Y2519D01*
X8080Y2509D01*
X8080Y2509D01*
X8109D01*
Y2538D01*
D02*
G37*
G36*
X8158Y2489D02*
X8129D01*
Y2460D01*
X8129Y2460D01*
X8139Y2464D01*
X8147Y2470D01*
X8154Y2479D01*
X8158Y2489D01*
X8158Y2489D01*
D02*
G37*
G36*
X8109D02*
X8080D01*
X8080Y2489D01*
X8084Y2479D01*
X8090Y2470D01*
X8099Y2464D01*
X8108Y2460D01*
X8109Y2460D01*
Y2489D01*
D02*
G37*
G36*
X2634Y2670D02*
X2595D01*
X2573Y2669D01*
X2552Y2664D01*
X2532Y2657D01*
X2512Y2648D01*
X2494Y2636D01*
X2478Y2621D01*
X2463Y2605D01*
X2451Y2587D01*
X2442Y2568D01*
X2435Y2547D01*
X2431Y2526D01*
X2429Y2504D01*
X2431Y2483D01*
X2435Y2461D01*
X2442Y2441D01*
X2451Y2421D01*
X2463Y2403D01*
X2478Y2387D01*
X2494Y2373D01*
X2512Y2361D01*
X2532Y2351D01*
X2552Y2344D01*
X2573Y2340D01*
X2595Y2339D01*
X2634D01*
X2656Y2340D01*
X2677Y2344D01*
X2698Y2351D01*
X2717Y2361D01*
X2735Y2373D01*
X2751Y2387D01*
X2766Y2403D01*
X2778Y2421D01*
X2787Y2441D01*
X2794Y2461D01*
X2799Y2483D01*
X2800Y2504D01*
X2799Y2526D01*
X2794Y2547D01*
X2787Y2568D01*
X2778Y2587D01*
X2766Y2605D01*
X2751Y2621D01*
X2735Y2636D01*
X2717Y2648D01*
X2698Y2657D01*
X2677Y2664D01*
X2656Y2669D01*
X2634Y2670D01*
D02*
G37*
G36*
X7712Y2516D02*
X7690Y2514D01*
X7669Y2509D01*
X7650Y2501D01*
X7631Y2490D01*
X7615Y2476D01*
X7601Y2460D01*
X7590Y2441D01*
X7582Y2422D01*
X7577Y2401D01*
X7575Y2379D01*
X7577Y2358D01*
X7582Y2337D01*
X7590Y2318D01*
X7601Y2299D01*
X7615Y2283D01*
X7631Y2269D01*
X7650Y2258D01*
X7669Y2250D01*
X7690Y2245D01*
X7712Y2243D01*
X7733Y2245D01*
X7754Y2250D01*
X7774Y2258D01*
X7792Y2269D01*
X7808Y2283D01*
X7822Y2299D01*
X7833Y2318D01*
X7841Y2337D01*
X7846Y2358D01*
X7848Y2379D01*
X7846Y2401D01*
X7841Y2422D01*
X7833Y2441D01*
X7822Y2460D01*
X7808Y2476D01*
X7792Y2490D01*
X7774Y2501D01*
X7754Y2509D01*
X7733Y2514D01*
X7712Y2516D01*
D02*
G37*
G36*
X8119Y2237D02*
X8109Y2236D01*
X8100Y2232D01*
X8092Y2226D01*
X8086Y2218D01*
X8082Y2209D01*
X8081Y2199D01*
X8082Y2189D01*
X8086Y2180D01*
X8092Y2172D01*
X8100Y2166D01*
X8109Y2162D01*
X8119Y2161D01*
X8129Y2162D01*
X8138Y2166D01*
X8146Y2172D01*
X8152Y2180D01*
X8156Y2189D01*
X8157Y2199D01*
X8156Y2209D01*
X8152Y2218D01*
X8146Y2226D01*
X8138Y2232D01*
X8129Y2236D01*
X8119Y2237D01*
D02*
G37*
G36*
X2983Y2446D02*
X2924D01*
X2899Y2444D01*
X2875Y2438D01*
X2853Y2429D01*
X2832Y2416D01*
X2813Y2400D01*
X2797Y2381D01*
X2785Y2360D01*
X2775Y2338D01*
X2770Y2314D01*
X2768Y2290D01*
X2770Y2265D01*
X2775Y2241D01*
X2785Y2219D01*
X2797Y2198D01*
X2813Y2179D01*
X2832Y2163D01*
X2853Y2151D01*
X2875Y2141D01*
X2899Y2136D01*
X2924Y2134D01*
X2983D01*
X3007Y2136D01*
X3031Y2141D01*
X3054Y2151D01*
X3068Y2160D01*
X3079Y2161D01*
X3099Y2165D01*
X3117Y2173D01*
X3134Y2184D01*
X3150Y2197D01*
X3163Y2212D01*
X3173Y2229D01*
X3181Y2248D01*
X3186Y2267D01*
X3187Y2287D01*
X3186Y2307D01*
X3181Y2327D01*
X3173Y2346D01*
X3163Y2363D01*
X3150Y2378D01*
X3134Y2391D01*
X3117Y2402D01*
X3099Y2409D01*
X3079Y2414D01*
X3076Y2414D01*
X3074Y2416D01*
X3054Y2429D01*
X3031Y2438D01*
X3007Y2444D01*
X2983Y2446D01*
D02*
G37*
G36*
X8119Y2137D02*
X8109Y2136D01*
X8100Y2132D01*
X8092Y2126D01*
X8086Y2118D01*
X8082Y2109D01*
X8081Y2099D01*
X8082Y2089D01*
X8086Y2080D01*
X8092Y2072D01*
X8100Y2066D01*
X8109Y2062D01*
X8119Y2061D01*
X8129Y2062D01*
X8138Y2066D01*
X8146Y2072D01*
X8152Y2080D01*
X8156Y2089D01*
X8157Y2099D01*
X8156Y2109D01*
X8152Y2118D01*
X8146Y2126D01*
X8138Y2132D01*
X8129Y2136D01*
X8119Y2137D01*
D02*
G37*
G36*
X4224Y2599D02*
X4200Y2597D01*
X4176Y2593D01*
X4153Y2585D01*
X4132Y2574D01*
X4112Y2561D01*
X4093Y2545D01*
X4085Y2535D01*
X4077Y2526D01*
X4064Y2506D01*
X4053Y2484D01*
X4045Y2461D01*
X4041Y2438D01*
X4039Y2413D01*
X4041Y2389D01*
X4045Y2365D01*
X4053Y2342D01*
X4064Y2321D01*
X4068Y2315D01*
X4064Y2309D01*
X4053Y2287D01*
X4045Y2265D01*
X4041Y2241D01*
X4039Y2217D01*
X4041Y2192D01*
X4045Y2169D01*
X4053Y2146D01*
X4064Y2124D01*
X4077Y2104D01*
X4085Y2094D01*
D01*
X4093Y2085D01*
X4112Y2069D01*
X4132Y2056D01*
X4153Y2045D01*
X4176Y2037D01*
X4200Y2033D01*
X4224Y2031D01*
X4249Y2033D01*
X4272Y2037D01*
X4295Y2045D01*
X4317Y2056D01*
X4337Y2069D01*
X4356Y2085D01*
X4372Y2104D01*
X4385Y2124D01*
X4396Y2146D01*
X4404Y2169D01*
X4408Y2192D01*
X4410Y2217D01*
X4408Y2241D01*
X4404Y2265D01*
X4396Y2287D01*
X4385Y2309D01*
X4381Y2315D01*
X4385Y2321D01*
X4396Y2342D01*
X4404Y2365D01*
X4408Y2389D01*
X4410Y2413D01*
X4408Y2438D01*
X4404Y2461D01*
X4396Y2484D01*
X4385Y2506D01*
X4372Y2526D01*
X4356Y2545D01*
X4337Y2561D01*
X4317Y2574D01*
X4295Y2585D01*
X4272Y2593D01*
X4249Y2597D01*
X4224Y2599D01*
D02*
G37*
G36*
X8129Y2038D02*
Y2009D01*
X8158D01*
X8158Y2009D01*
X8154Y2019D01*
X8147Y2028D01*
X8139Y2034D01*
X8129Y2038D01*
X8129Y2038D01*
D02*
G37*
G36*
X8109Y2038D02*
X8108Y2038D01*
X8099Y2034D01*
X8090Y2028D01*
X8084Y2019D01*
X8080Y2009D01*
X8080Y2009D01*
X8109D01*
Y2038D01*
D02*
G37*
G36*
Y1989D02*
X8080D01*
X8080Y1989D01*
X8084Y1979D01*
X8090Y1970D01*
X8099Y1964D01*
X8108Y1960D01*
X8109Y1960D01*
Y1989D01*
D02*
G37*
G36*
X8158D02*
X8129D01*
Y1960D01*
X8129Y1960D01*
X8139Y1964D01*
X8147Y1970D01*
X8154Y1979D01*
X8158Y1989D01*
X8158Y1989D01*
D02*
G37*
G36*
X8119Y3937D02*
X8109Y3936D01*
X8100Y3932D01*
X8092Y3926D01*
X8086Y3918D01*
X8082Y3909D01*
X8081Y3899D01*
X8082Y3889D01*
X8086Y3880D01*
X8092Y3872D01*
X8100Y3866D01*
X8109Y3862D01*
X8119Y3861D01*
X8129Y3862D01*
X8138Y3866D01*
X8146Y3872D01*
X8152Y3880D01*
X8156Y3889D01*
X8157Y3899D01*
X8156Y3909D01*
X8152Y3918D01*
X8146Y3926D01*
X8138Y3932D01*
X8129Y3936D01*
X8119Y3937D01*
D02*
G37*
G36*
Y3837D02*
X8109Y3836D01*
X8100Y3832D01*
X8092Y3826D01*
X8086Y3818D01*
X8082Y3809D01*
X8081Y3799D01*
X8082Y3789D01*
X8086Y3780D01*
X8092Y3772D01*
X8100Y3766D01*
X8109Y3762D01*
X8119Y3761D01*
X8129Y3762D01*
X8138Y3766D01*
X8146Y3772D01*
X8152Y3780D01*
X8156Y3789D01*
X8157Y3799D01*
X8156Y3809D01*
X8152Y3818D01*
X8146Y3826D01*
X8138Y3832D01*
X8129Y3836D01*
X8119Y3837D01*
D02*
G37*
G36*
X1494Y3807D02*
X1484Y3805D01*
X1475Y3801D01*
X1467Y3795D01*
X1461Y3787D01*
X1457Y3778D01*
X1456Y3768D01*
X1457Y3758D01*
X1461Y3749D01*
X1467Y3741D01*
X1475Y3735D01*
X1484Y3731D01*
X1494Y3730D01*
X1504Y3731D01*
X1513Y3735D01*
X1521Y3741D01*
X1527Y3749D01*
X1531Y3758D01*
X1533Y3768D01*
X1531Y3778D01*
X1527Y3787D01*
X1521Y3795D01*
X1513Y3801D01*
X1504Y3805D01*
X1494Y3807D01*
D02*
G37*
G36*
X1504Y3707D02*
Y3678D01*
X1533D01*
X1533Y3679D01*
X1529Y3688D01*
X1523Y3697D01*
X1514Y3703D01*
X1505Y3707D01*
X1504Y3707D01*
D02*
G37*
G36*
X1484Y3707D02*
X1484Y3707D01*
X1474Y3703D01*
X1466Y3697D01*
X1459Y3688D01*
X1455Y3679D01*
X1455Y3678D01*
X1484D01*
Y3707D01*
D02*
G37*
G36*
X8119Y3737D02*
X8109Y3736D01*
X8100Y3732D01*
X8092Y3726D01*
X8086Y3718D01*
X8082Y3709D01*
X8081Y3699D01*
X8082Y3689D01*
X8086Y3680D01*
X8092Y3672D01*
X8100Y3666D01*
X8109Y3662D01*
X8119Y3661D01*
X8129Y3662D01*
X8138Y3666D01*
X8146Y3672D01*
X8152Y3680D01*
X8156Y3689D01*
X8157Y3699D01*
X8156Y3709D01*
X8152Y3718D01*
X8146Y3726D01*
X8138Y3732D01*
X8129Y3736D01*
X8119Y3737D01*
D02*
G37*
G36*
X1533Y3658D02*
X1504D01*
Y3629D01*
X1505Y3629D01*
X1514Y3633D01*
X1523Y3640D01*
X1529Y3648D01*
X1533Y3658D01*
X1533Y3658D01*
D02*
G37*
G36*
X1484D02*
X1455D01*
X1455Y3658D01*
X1459Y3648D01*
X1466Y3640D01*
X1474Y3633D01*
X1484Y3629D01*
X1484Y3629D01*
Y3658D01*
D02*
G37*
G36*
X8119Y3637D02*
X8109Y3636D01*
X8100Y3632D01*
X8092Y3626D01*
X8086Y3618D01*
X8082Y3609D01*
X8081Y3599D01*
X8082Y3589D01*
X8086Y3580D01*
X8092Y3572D01*
X8100Y3566D01*
X8109Y3562D01*
X8119Y3561D01*
X8129Y3562D01*
X8138Y3566D01*
X8146Y3572D01*
X8152Y3580D01*
X8156Y3589D01*
X8157Y3599D01*
X8156Y3609D01*
X8152Y3618D01*
X8146Y3626D01*
X8138Y3632D01*
X8129Y3636D01*
X8119Y3637D01*
D02*
G37*
G36*
X1494Y3607D02*
X1484Y3605D01*
X1475Y3601D01*
X1467Y3595D01*
X1461Y3587D01*
X1457Y3578D01*
X1456Y3568D01*
X1457Y3558D01*
X1461Y3549D01*
X1467Y3541D01*
X1475Y3535D01*
X1484Y3531D01*
X1494Y3530D01*
X1504Y3531D01*
X1513Y3535D01*
X1521Y3541D01*
X1527Y3549D01*
X1531Y3558D01*
X1533Y3568D01*
X1531Y3578D01*
X1527Y3587D01*
X1521Y3595D01*
X1513Y3601D01*
X1504Y3605D01*
X1494Y3607D01*
D02*
G37*
G36*
X8119Y3537D02*
X8109Y3536D01*
X8100Y3532D01*
X8092Y3526D01*
X8086Y3518D01*
X8082Y3509D01*
X8081Y3499D01*
X8082Y3489D01*
X8086Y3480D01*
X8092Y3472D01*
X8100Y3466D01*
X8109Y3462D01*
X8119Y3461D01*
X8129Y3462D01*
X8138Y3466D01*
X8146Y3472D01*
X8152Y3480D01*
X8156Y3489D01*
X8157Y3499D01*
X8156Y3509D01*
X8152Y3518D01*
X8146Y3526D01*
X8138Y3532D01*
X8129Y3536D01*
X8119Y3537D01*
D02*
G37*
G36*
X1494Y3507D02*
X1484Y3505D01*
X1475Y3501D01*
X1467Y3495D01*
X1461Y3487D01*
X1457Y3478D01*
X1456Y3468D01*
X1457Y3458D01*
X1461Y3449D01*
X1467Y3441D01*
X1475Y3435D01*
X1484Y3431D01*
X1494Y3430D01*
X1504Y3431D01*
X1513Y3435D01*
X1521Y3441D01*
X1527Y3449D01*
X1531Y3458D01*
X1533Y3468D01*
X1531Y3478D01*
X1527Y3487D01*
X1521Y3495D01*
X1513Y3501D01*
X1504Y3505D01*
X1494Y3507D01*
D02*
G37*
G36*
X8129Y3438D02*
Y3409D01*
X8158D01*
X8158Y3409D01*
X8154Y3419D01*
X8147Y3428D01*
X8139Y3434D01*
X8129Y3438D01*
X8129Y3438D01*
D02*
G37*
G36*
X8109D02*
X8108Y3438D01*
X8099Y3434D01*
X8090Y3428D01*
X8084Y3419D01*
X8080Y3409D01*
X8080Y3409D01*
X8109D01*
Y3438D01*
D02*
G37*
G36*
X8158Y3389D02*
X8129D01*
Y3360D01*
X8129Y3360D01*
X8139Y3364D01*
X8147Y3370D01*
X8154Y3379D01*
X8158Y3389D01*
X8158Y3389D01*
D02*
G37*
G36*
X8109D02*
X8080D01*
X8080Y3389D01*
X8084Y3379D01*
X8090Y3370D01*
X8099Y3364D01*
X8108Y3360D01*
X8109Y3360D01*
Y3389D01*
D02*
G37*
G36*
X1494Y3407D02*
X1484Y3405D01*
X1475Y3401D01*
X1467Y3395D01*
X1461Y3387D01*
X1457Y3378D01*
X1456Y3368D01*
X1457Y3358D01*
X1461Y3349D01*
X1467Y3341D01*
X1475Y3335D01*
X1484Y3331D01*
X1494Y3330D01*
X1504Y3331D01*
X1513Y3335D01*
X1521Y3341D01*
X1527Y3349D01*
X1531Y3358D01*
X1533Y3368D01*
X1531Y3378D01*
X1527Y3387D01*
X1521Y3395D01*
X1513Y3401D01*
X1504Y3405D01*
X1494Y3407D01*
D02*
G37*
G36*
X8119Y3337D02*
X8109Y3336D01*
X8100Y3332D01*
X8092Y3326D01*
X8086Y3318D01*
X8082Y3309D01*
X8081Y3299D01*
X8082Y3289D01*
X8086Y3280D01*
X8092Y3272D01*
X8100Y3266D01*
X8109Y3262D01*
X8119Y3261D01*
X8129Y3262D01*
X8138Y3266D01*
X8146Y3272D01*
X8152Y3280D01*
X8156Y3289D01*
X8157Y3299D01*
X8156Y3309D01*
X8152Y3318D01*
X8146Y3326D01*
X8138Y3332D01*
X8129Y3336D01*
X8119Y3337D01*
D02*
G37*
G36*
X1494Y3307D02*
X1484Y3305D01*
X1475Y3301D01*
X1467Y3295D01*
X1461Y3287D01*
X1457Y3278D01*
X1456Y3268D01*
X1457Y3258D01*
X1461Y3249D01*
X1467Y3241D01*
X1475Y3235D01*
X1484Y3231D01*
X1494Y3230D01*
X1504Y3231D01*
X1513Y3235D01*
X1521Y3241D01*
X1527Y3249D01*
X1531Y3258D01*
X1533Y3268D01*
X1531Y3278D01*
X1527Y3287D01*
X1521Y3295D01*
X1513Y3301D01*
X1504Y3305D01*
X1494Y3307D01*
D02*
G37*
G36*
Y3207D02*
X1484Y3205D01*
X1475Y3201D01*
X1467Y3195D01*
X1461Y3187D01*
X1457Y3178D01*
X1456Y3168D01*
X1457Y3158D01*
X1461Y3149D01*
X1467Y3141D01*
X1475Y3135D01*
X1484Y3131D01*
X1494Y3130D01*
X1504Y3131D01*
X1513Y3135D01*
X1521Y3141D01*
X1527Y3149D01*
X1531Y3158D01*
X1533Y3168D01*
X1531Y3178D01*
X1527Y3187D01*
X1521Y3195D01*
X1513Y3201D01*
X1504Y3205D01*
X1494Y3207D01*
D02*
G37*
G36*
X5509Y1200D02*
X5501Y1199D01*
X5494Y1196D01*
X5488Y1191D01*
X5483Y1185D01*
X5480Y1178D01*
X5479Y1170D01*
X5480Y1162D01*
X5483Y1155D01*
X5488Y1149D01*
X5494Y1144D01*
X5501Y1141D01*
X5509Y1140D01*
X5516Y1141D01*
X5524Y1144D01*
X5530Y1149D01*
X5535Y1155D01*
X5538Y1162D01*
X5539Y1170D01*
X5538Y1178D01*
X5535Y1185D01*
X5530Y1191D01*
X5524Y1196D01*
X5516Y1199D01*
X5509Y1200D01*
D02*
G37*
G36*
X7954Y1068D02*
X7944Y1067D01*
X7934Y1063D01*
X7926Y1057D01*
X7920Y1049D01*
X7917Y1040D01*
X7915Y1030D01*
X7917Y1020D01*
X7920Y1011D01*
X7926Y1003D01*
X7934Y996D01*
X7944Y993D01*
X7954Y991D01*
X7964Y993D01*
X7973Y996D01*
X7981Y1003D01*
X7987Y1011D01*
X7991Y1020D01*
X7992Y1030D01*
X7991Y1040D01*
X7987Y1049D01*
X7981Y1057D01*
X7973Y1063D01*
X7964Y1067D01*
X7954Y1068D01*
D02*
G37*
G36*
X3839Y982D02*
X3810D01*
Y952D01*
X3839D01*
Y982D01*
D02*
G37*
G36*
X3790D02*
X3760D01*
Y952D01*
X3790D01*
Y982D01*
D02*
G37*
G36*
X3700Y980D02*
X3690Y979D01*
X3681Y975D01*
X3673Y969D01*
X3667Y961D01*
X3663Y952D01*
X3662Y942D01*
X3663Y932D01*
X3667Y923D01*
X3673Y915D01*
X3681Y909D01*
X3690Y905D01*
X3700Y904D01*
X3709Y905D01*
X3719Y909D01*
X3726Y915D01*
X3732Y923D01*
X3736Y932D01*
X3738Y942D01*
X3736Y952D01*
X3732Y961D01*
X3726Y969D01*
X3719Y975D01*
X3709Y979D01*
X3700Y980D01*
D02*
G37*
G36*
X3600D02*
X3590Y979D01*
X3581Y975D01*
X3573Y969D01*
X3567Y961D01*
X3563Y952D01*
X3562Y942D01*
X3563Y932D01*
X3567Y923D01*
X3573Y915D01*
X3581Y909D01*
X3590Y905D01*
X3600Y904D01*
X3609Y905D01*
X3619Y909D01*
X3626Y915D01*
X3632Y923D01*
X3636Y932D01*
X3638Y942D01*
X3636Y952D01*
X3632Y961D01*
X3626Y969D01*
X3619Y975D01*
X3609Y979D01*
X3600Y980D01*
D02*
G37*
G36*
X3839Y932D02*
X3810D01*
Y902D01*
X3839D01*
Y932D01*
D02*
G37*
G36*
X3790D02*
X3760D01*
Y902D01*
X3790D01*
Y932D01*
D02*
G37*
G36*
X6630Y1009D02*
X6620Y1008D01*
X6612Y1004D01*
X6604Y998D01*
X6599Y991D01*
X6595Y982D01*
X6595Y981D01*
X6594Y978D01*
X6592Y969D01*
Y864D01*
X6591Y861D01*
X6590Y852D01*
X6591Y843D01*
X6595Y834D01*
X6600Y827D01*
X6608Y821D01*
X6616Y817D01*
X6626Y816D01*
X6635Y817D01*
X6644Y821D01*
X6651Y827D01*
X6657Y834D01*
X6660Y843D01*
X6662Y852D01*
X6660Y861D01*
X6659Y864D01*
Y953D01*
X6661Y955D01*
X6664Y964D01*
X6666Y973D01*
X6664Y982D01*
X6661Y991D01*
X6655Y998D01*
X6648Y1004D01*
X6639Y1008D01*
X6630Y1009D01*
D02*
G37*
G36*
X6175Y849D02*
X6167Y848D01*
X6160Y845D01*
X6154Y840D01*
X6149Y834D01*
X6146Y827D01*
X6145Y819D01*
X6146Y811D01*
X6149Y804D01*
X6154Y798D01*
X6160Y793D01*
X6167Y790D01*
X6175Y789D01*
X6182Y790D01*
X6190Y793D01*
X6196Y798D01*
X6201Y804D01*
X6204Y811D01*
X6205Y819D01*
X6204Y827D01*
X6201Y834D01*
X6196Y840D01*
X6190Y845D01*
X6182Y848D01*
X6175Y849D01*
D02*
G37*
G36*
X1660Y758D02*
X1650Y757D01*
X1640Y753D01*
X1633Y747D01*
X1626Y739D01*
X1623Y730D01*
X1621Y720D01*
X1623Y710D01*
X1626Y700D01*
X1633Y693D01*
X1640Y686D01*
X1650Y683D01*
X1660Y681D01*
X1670Y683D01*
X1679Y686D01*
X1687Y693D01*
X1693Y700D01*
X1697Y710D01*
X1698Y720D01*
X1697Y730D01*
X1693Y739D01*
X1687Y747D01*
X1679Y753D01*
X1670Y757D01*
X1660Y758D01*
D02*
G37*
G36*
X5283Y652D02*
Y636D01*
X5299D01*
X5292Y645D01*
X5283Y652D01*
D02*
G37*
G36*
X3862Y652D02*
Y636D01*
X3878D01*
X3871Y645D01*
X3862Y652D01*
D02*
G37*
G36*
X3813Y652D02*
X3804Y645D01*
X3797Y636D01*
X3813D01*
Y652D01*
D02*
G37*
G36*
X5234Y652D02*
X5225Y645D01*
X5218Y636D01*
X5234D01*
Y652D01*
D02*
G37*
G36*
X3813Y587D02*
X3797D01*
X3804Y578D01*
X3813Y571D01*
Y587D01*
D02*
G37*
G36*
X5234D02*
X5218D01*
X5225Y578D01*
X5234Y571D01*
Y587D01*
D02*
G37*
G36*
X5299D02*
X5283D01*
Y571D01*
X5292Y578D01*
X5299Y587D01*
D02*
G37*
G36*
X3878D02*
X3862D01*
Y571D01*
X3871Y578D01*
X3878Y587D01*
D02*
G37*
G36*
X5456Y659D02*
X5443Y657D01*
X5432Y653D01*
X5422Y645D01*
X5414Y635D01*
X5409Y624D01*
X5408Y611D01*
X5409Y599D01*
X5414Y587D01*
X5422Y578D01*
X5432Y570D01*
X5443Y565D01*
X5456Y564D01*
X5468Y565D01*
X5479Y570D01*
X5489Y578D01*
X5497Y587D01*
X5502Y599D01*
X5503Y611D01*
X5502Y624D01*
X5497Y635D01*
X5489Y645D01*
X5479Y653D01*
X5468Y657D01*
X5456Y659D01*
D02*
G37*
G36*
X3641D02*
X3628Y657D01*
X3617Y653D01*
X3607Y645D01*
X3599Y635D01*
X3595Y624D01*
X3593Y611D01*
X3595Y599D01*
X3599Y587D01*
X3607Y578D01*
X3617Y570D01*
X3628Y565D01*
X3641Y564D01*
X3653Y565D01*
X3665Y570D01*
X3674Y578D01*
X3682Y587D01*
X3687Y599D01*
X3688Y611D01*
X3687Y624D01*
X3682Y635D01*
X3674Y645D01*
X3665Y653D01*
X3653Y657D01*
X3641Y659D01*
D02*
G37*
G36*
X6764Y476D02*
Y447D01*
X6792D01*
X6792Y447D01*
X6788Y457D01*
X6782Y465D01*
X6774Y472D01*
X6764Y476D01*
X6764Y476D01*
D02*
G37*
G36*
X6744D02*
X6743Y476D01*
X6734Y472D01*
X6725Y465D01*
X6719Y457D01*
X6715Y447D01*
X6715Y447D01*
X6744D01*
Y476D01*
D02*
G37*
G36*
X7391Y475D02*
X7316D01*
Y399D01*
X7391D01*
Y475D01*
D02*
G37*
G36*
X6991D02*
X6916D01*
Y399D01*
X6991D01*
Y475D01*
D02*
G37*
G36*
X6591D02*
X6516D01*
Y399D01*
X6591D01*
Y475D01*
D02*
G37*
G36*
X7254Y475D02*
X7244Y474D01*
X7235Y470D01*
X7227Y464D01*
X7221Y456D01*
X7217Y447D01*
X7216Y437D01*
X7217Y427D01*
X7221Y418D01*
X7227Y410D01*
X7235Y404D01*
X7244Y400D01*
X7254Y399D01*
X7263Y400D01*
X7273Y404D01*
X7280Y410D01*
X7286Y418D01*
X7290Y427D01*
X7292Y437D01*
X7290Y447D01*
X7286Y456D01*
X7280Y464D01*
X7273Y470D01*
X7263Y474D01*
X7254Y475D01*
D02*
G37*
G36*
X7154D02*
X7144Y474D01*
X7135Y470D01*
X7127Y464D01*
X7121Y456D01*
X7117Y447D01*
X7116Y437D01*
X7117Y427D01*
X7121Y418D01*
X7127Y410D01*
X7135Y404D01*
X7144Y400D01*
X7154Y399D01*
X7163Y400D01*
X7173Y404D01*
X7180Y410D01*
X7186Y418D01*
X7190Y427D01*
X7192Y437D01*
X7190Y447D01*
X7186Y456D01*
X7180Y464D01*
X7173Y470D01*
X7163Y474D01*
X7154Y475D01*
D02*
G37*
G36*
X6854D02*
X6844Y474D01*
X6835Y470D01*
X6827Y464D01*
X6821Y456D01*
X6817Y447D01*
X6816Y437D01*
X6817Y427D01*
X6821Y418D01*
X6827Y410D01*
X6835Y404D01*
X6844Y400D01*
X6854Y399D01*
X6863Y400D01*
X6873Y404D01*
X6880Y410D01*
X6886Y418D01*
X6890Y427D01*
X6892Y437D01*
X6890Y447D01*
X6886Y456D01*
X6880Y464D01*
X6873Y470D01*
X6863Y474D01*
X6854Y475D01*
D02*
G37*
G36*
X6454D02*
X6444Y474D01*
X6435Y470D01*
X6427Y464D01*
X6421Y456D01*
X6417Y447D01*
X6416Y437D01*
X6417Y427D01*
X6421Y418D01*
X6427Y410D01*
X6435Y404D01*
X6444Y400D01*
X6454Y399D01*
X6463Y400D01*
X6473Y404D01*
X6480Y410D01*
X6486Y418D01*
X6490Y427D01*
X6492Y437D01*
X6490Y447D01*
X6486Y456D01*
X6480Y464D01*
X6473Y470D01*
X6463Y474D01*
X6454Y475D01*
D02*
G37*
G36*
X6354D02*
X6344Y474D01*
X6335Y470D01*
X6327Y464D01*
X6321Y456D01*
X6317Y447D01*
X6316Y437D01*
X6317Y427D01*
X6321Y418D01*
X6327Y410D01*
X6335Y404D01*
X6344Y400D01*
X6354Y399D01*
X6363Y400D01*
X6373Y404D01*
X6380Y410D01*
X6386Y418D01*
X6390Y427D01*
X6392Y437D01*
X6390Y447D01*
X6386Y456D01*
X6380Y464D01*
X6373Y470D01*
X6363Y474D01*
X6354Y475D01*
D02*
G37*
G36*
X6792Y427D02*
X6764D01*
Y398D01*
X6764Y398D01*
X6774Y402D01*
X6782Y409D01*
X6788Y417D01*
X6792Y427D01*
X6792Y427D01*
D02*
G37*
G36*
X6744D02*
X6715D01*
X6715Y427D01*
X6719Y417D01*
X6725Y409D01*
X6734Y402D01*
X6743Y398D01*
X6744Y398D01*
Y427D01*
D02*
G37*
G36*
X2917Y608D02*
X2913D01*
X2905Y607D01*
X2897Y604D01*
X2890Y598D01*
X2784Y492D01*
X2778Y485D01*
X2775Y477D01*
X2774Y469D01*
X2775Y460D01*
X2778Y452D01*
X2784Y445D01*
X2791Y440D01*
X2799Y436D01*
X2807Y435D01*
X2816Y436D01*
X2824Y440D01*
X2831Y445D01*
X2922Y536D01*
X2927Y534D01*
X2927Y534D01*
X2838Y445D01*
X2833Y438D01*
X2830Y430D01*
X2828Y421D01*
X2830Y413D01*
X2833Y405D01*
X2838Y398D01*
X2845Y392D01*
X2853Y389D01*
X2862Y388D01*
X2870Y389D01*
X2878Y392D01*
X2885Y398D01*
X2984Y496D01*
X2989Y503D01*
X2993Y511D01*
X2994Y520D01*
Y524D01*
X2993Y532D01*
X2989Y540D01*
X2984Y547D01*
X2977Y552D01*
X2969Y556D01*
X2960Y557D01*
X2952Y556D01*
X2950Y555D01*
X2948Y557D01*
X2946Y559D01*
X2949Y566D01*
X2951Y575D01*
X2949Y583D01*
X2946Y591D01*
X2941Y598D01*
X2934Y604D01*
X2926Y607D01*
X2917Y608D01*
D02*
G37*
%LPD*%
D67*
X6811Y5212D02*
X7716D01*
X8003Y5499D02*
X8119D01*
X7716Y5212D02*
X8003Y5499D01*
X1782Y1856D02*
X2782D01*
X1494Y1568D02*
X1782Y1856D01*
X2906Y4704D02*
X2922Y4688D01*
D68*
X1299Y4039D02*
X1575D01*
X1201Y4138D02*
X1299Y4039D01*
X7916Y3215D02*
X8214Y2917D01*
X8378D01*
X7088Y4958D02*
X7457Y4590D01*
X8109D01*
X6947Y4992D02*
X7054D01*
X7088Y4958D02*
X7145D01*
X7054Y4992D02*
X7088Y4958D01*
X7111Y4197D02*
X7453Y4538D01*
X7110Y4197D02*
X7111D01*
X6947D02*
X7110D01*
X7137Y4171D01*
X8080Y4538D02*
X8119Y4499D01*
X7453Y4538D02*
X8080D01*
X8109Y4590D02*
X8119Y4599D01*
X5522Y3524D02*
X7610D01*
X5465Y3467D02*
X5522Y3524D01*
X7610D02*
X7916Y3217D01*
Y3215D02*
Y3217D01*
X2449Y2109D02*
X2505D01*
X2539Y2075D02*
X2646D01*
X2505Y2109D02*
X2539Y2075D01*
X1504Y2478D02*
X1760D01*
X2137Y2478D01*
X1494Y2468D02*
X1504Y2478D01*
X2137Y2478D02*
X2505Y2109D01*
X2457Y2897D02*
X2483Y2870D01*
X2482D02*
X2483D01*
X2646D01*
X1494Y2568D02*
X1534Y2529D01*
X1760D01*
X2141Y2529D02*
X2482Y2870D01*
X1760Y2529D02*
X2141Y2529D01*
X1987Y3567D02*
X2917D01*
X1726Y3828D02*
X1987Y3567D01*
X1726Y3828D02*
Y3888D01*
X1575Y4039D02*
X1726Y3888D01*
X2917Y3567D02*
X3017Y3666D01*
X4673D01*
D71*
X6626Y969D02*
X6630Y973D01*
X6626Y852D02*
Y969D01*
X2913Y575D02*
X2917D01*
X2807Y469D02*
X2913Y575D01*
X2960Y520D02*
Y524D01*
X2862Y421D02*
X2960Y520D01*
D72*
X7728Y4343D02*
X7751Y4367D01*
X7749Y4409D02*
X7977D01*
X7683Y4343D02*
X7749Y4409D01*
X8119Y5098D02*
Y5099D01*
Y4999D02*
X8159D01*
X8228Y4929D01*
X8119Y5098D02*
X8258Y4959D01*
Y4340D02*
Y4959D01*
X8228Y4370D02*
Y4929D01*
X8191Y4273D02*
X8258Y4340D01*
X8054Y4273D02*
X8191D01*
X8173Y4315D02*
X8228Y4370D01*
X8071Y4315D02*
X8173D01*
X7977Y4409D02*
X8071Y4315D01*
X7960Y4367D02*
X8054Y4273D01*
X7751Y4367D02*
X7960D01*
X1858Y2699D02*
X1906Y2651D01*
Y2649D02*
Y2651D01*
X1344Y2119D02*
X1494Y1968D01*
X1479Y2068D02*
X1494D01*
X1394Y2154D02*
X1479Y2068D01*
X1344Y2119D02*
Y2728D01*
X1417Y2802D01*
X1394Y2154D02*
Y2728D01*
X1417Y2752D01*
Y2802D02*
X1552D01*
X1417Y2752D02*
X1532D01*
X1635Y2649D01*
X1859D01*
X1552Y2802D02*
X1655Y2699D01*
X1858D01*
D75*
X2615Y2504D02*
D03*
X6979Y4563D02*
D03*
X2615Y3299D02*
D03*
X6979Y3768D02*
D03*
X2615Y4107D02*
D03*
X6979Y2960D02*
D03*
X2615Y4902D02*
D03*
X6979Y2165D02*
D03*
D76*
X2953Y2290D02*
D03*
X2615Y2075D02*
D03*
X6979Y4992D02*
D03*
X6640Y4778D02*
D03*
X2953Y3085D02*
D03*
X2615Y2870D02*
D03*
X6979Y4197D02*
D03*
X6640Y3982D02*
D03*
X2953Y3893D02*
D03*
X2615Y3678D02*
D03*
X6979Y3389D02*
D03*
X6640Y3175D02*
D03*
X2953Y4688D02*
D03*
X2615Y4473D02*
D03*
X6979Y2594D02*
D03*
X6640Y2379D02*
D03*
D77*
X6354Y437D02*
D03*
X6454D02*
D03*
X7254D02*
D03*
X7154D02*
D03*
X3600Y942D02*
D03*
X3700D02*
D03*
X1201Y4138D02*
D03*
X6854Y437D02*
D03*
X6754D02*
D03*
X8378Y2917D02*
D03*
D78*
X6554Y437D02*
D03*
X7354D02*
D03*
X3800Y942D02*
D03*
X6954Y437D02*
D03*
D79*
X8119Y5499D02*
D03*
Y1699D02*
D03*
Y3799D02*
D03*
Y3899D02*
D03*
Y4599D02*
D03*
Y4499D02*
D03*
Y2699D02*
D03*
Y2599D02*
D03*
Y3599D02*
D03*
Y3699D02*
D03*
Y3399D02*
D03*
Y3499D02*
D03*
Y3299D02*
D03*
Y4699D02*
D03*
Y4399D02*
D03*
Y2799D02*
D03*
Y2499D02*
D03*
Y4999D02*
D03*
Y2099D02*
D03*
Y5099D02*
D03*
Y2199D02*
D03*
Y5199D02*
D03*
Y1999D02*
D03*
X1494Y1568D02*
D03*
Y5368D02*
D03*
Y3268D02*
D03*
Y3168D02*
D03*
Y2468D02*
D03*
Y2568D02*
D03*
Y4368D02*
D03*
Y4468D02*
D03*
Y3468D02*
D03*
Y3368D02*
D03*
Y3668D02*
D03*
Y3568D02*
D03*
Y3768D02*
D03*
Y2368D02*
D03*
Y2668D02*
D03*
Y4268D02*
D03*
Y4568D02*
D03*
Y2068D02*
D03*
Y4968D02*
D03*
Y1968D02*
D03*
Y4868D02*
D03*
Y1868D02*
D03*
Y5068D02*
D03*
X9256Y8110D02*
D03*
X6905Y1505D02*
D03*
X195Y196D02*
D03*
X197Y8111D02*
D03*
X9260Y196D02*
D03*
X1996Y5535D02*
D03*
X1660Y720D02*
D03*
X7954Y1030D02*
D03*
X1660Y6038D02*
D03*
X7954Y6348D02*
D03*
D80*
X5456Y611D02*
D03*
X5259D02*
D03*
X3641D02*
D03*
X3838D02*
D03*
D81*
X6032Y2365D02*
D03*
Y2562D02*
D03*
Y2759D02*
D03*
X6307Y2365D02*
D03*
Y2562D02*
D03*
Y2759D02*
D03*
X3280Y4345D02*
D03*
Y4542D02*
D03*
Y4739D02*
D03*
X3555Y4345D02*
D03*
Y4542D02*
D03*
Y4739D02*
D03*
X7288Y5844D02*
D03*
X7091D02*
D03*
X6894D02*
D03*
X7288Y6120D02*
D03*
X7091D02*
D03*
X6894D02*
D03*
Y7076D02*
D03*
X7091D02*
D03*
X7288D02*
D03*
X6894Y6801D02*
D03*
X7091D02*
D03*
X7288D02*
D03*
Y7752D02*
D03*
X7091D02*
D03*
X6894D02*
D03*
X7288Y8027D02*
D03*
X7091D02*
D03*
X6894D02*
D03*
D82*
X5392Y1166D02*
D03*
X5509Y1170D02*
D03*
X6175Y819D02*
D03*
X6176Y966D02*
D03*
X2449Y2109D02*
D03*
X2610Y3771D02*
D03*
X3059Y2287D02*
D03*
X2709Y4107D02*
D03*
X2457Y2897D02*
D03*
X2571Y4408D02*
D03*
X3067Y3086D02*
D03*
X2906Y4747D02*
D03*
X2591Y4830D02*
D03*
X2673Y4042D02*
D03*
X2713Y4904D02*
D03*
X2870Y3948D02*
D03*
X6723Y3119D02*
D03*
X6881Y2163D02*
D03*
X6920Y3025D02*
D03*
X7003Y2238D02*
D03*
X6688Y2320D02*
D03*
X6527Y3982D02*
D03*
X7028Y2656D02*
D03*
X7137Y4171D02*
D03*
X6885Y2960D02*
D03*
X6530Y4777D02*
D03*
X6983Y3297D02*
D03*
X7145Y4958D02*
D03*
D83*
X7242Y1696D02*
D03*
X2362Y5369D02*
D03*
D84*
X4224Y2217D02*
D03*
Y3693D02*
D03*
Y3496D02*
D03*
Y2413D02*
D03*
X6032Y7513D02*
D03*
X4127D02*
D03*
Y5812D02*
D03*
X6032D02*
D03*
X5465Y4746D02*
D03*
Y3270D02*
D03*
Y3467D02*
D03*
Y4549D02*
D03*
D85*
X6032Y7119D02*
D03*
X4127D02*
D03*
Y5418D02*
D03*
X6032D02*
D03*
D86*
X6630Y973D02*
D03*
X6626Y852D02*
D03*
D87*
X2917Y575D02*
D03*
X2807Y469D02*
D03*
X2960Y524D02*
D03*
X2862Y421D02*
D03*
D88*
X5642Y646D02*
D03*
X7728Y4343D02*
D03*
X7683D02*
D03*
X1906Y2649D02*
D03*
X1859D02*
D03*
X4279Y1037D02*
D03*
X4314D02*
D03*
X4637Y943D02*
D03*
X4607Y929D02*
D03*
X3851Y3101D02*
D03*
X3759Y3098D02*
D03*
X5939Y3860D02*
D03*
X5847Y3862D02*
D03*
X2689Y5038D02*
D03*
Y5071D02*
D03*
X6017Y970D02*
D03*
X6894Y1983D02*
D03*
Y2015D02*
D03*
X2782Y1856D02*
D03*
X2357Y4326D02*
D03*
Y4367D02*
D03*
Y4409D02*
D03*
Y4450D02*
D03*
Y4491D02*
D03*
X2397D02*
D03*
Y4450D02*
D03*
Y4409D02*
D03*
Y4367D02*
D03*
Y4326D02*
D03*
X2318Y4491D02*
D03*
Y4450D02*
D03*
Y4409D02*
D03*
Y4367D02*
D03*
Y4326D02*
D03*
X2233Y4503D02*
D03*
X2275D02*
D03*
X2109Y4318D02*
D03*
X2233D02*
D03*
X2275D02*
D03*
X2151D02*
D03*
X2192D02*
D03*
X7402Y2749D02*
D03*
X7443D02*
D03*
X7402Y2564D02*
D03*
X7319Y2749D02*
D03*
X7360D02*
D03*
X7484D02*
D03*
X7319Y2564D02*
D03*
X7360D02*
D03*
X7276Y2741D02*
D03*
Y2700D02*
D03*
Y2658D02*
D03*
Y2617D02*
D03*
Y2576D02*
D03*
X7197Y2741D02*
D03*
Y2700D02*
D03*
Y2658D02*
D03*
Y2617D02*
D03*
Y2576D02*
D03*
X7236D02*
D03*
Y2617D02*
D03*
Y2658D02*
D03*
Y2700D02*
D03*
Y2741D02*
D03*
X6811Y5212D02*
D03*
X5896Y3881D02*
D03*
X3805Y3081D02*
D03*
X6070Y970D02*
D03*
X5963D02*
D03*
X5912Y926D02*
D03*
X5877D02*
D03*
X5841D02*
D03*
X5735D02*
D03*
X5700D02*
D03*
X3908Y1005D02*
D03*
X3944D02*
D03*
X4175Y1037D02*
D03*
X4574Y929D02*
D03*
X4542Y948D02*
D03*
X4543Y979D02*
D03*
X4210Y1037D02*
D03*
X4244D02*
D03*
X5479Y873D02*
D03*
X5389Y873D02*
D03*
X5304D02*
D03*
X5214D02*
D03*
X4141Y1037D02*
D03*
D89*
X7188Y1789D02*
D03*
X7296D02*
D03*
X7350Y1696D02*
D03*
X7296Y1602D02*
D03*
X7188D02*
D03*
X7134Y1696D02*
D03*
X2416Y5275D02*
D03*
X2308D02*
D03*
X2254Y5369D02*
D03*
X2308Y5463D02*
D03*
X2416D02*
D03*
X2471Y5369D02*
D03*
X4445Y1130D02*
D03*
X4405D02*
D03*
X4425Y1086D02*
D03*
M02*
