G04*
G04 #@! TF.GenerationSoftware,Altium Limited,Altium Designer,18.0.12 (696)*
G04*
G04 Layer_Physical_Order=1*
G04 Layer_Color=255*
%FSLAX23Y23*%
%MOIN*%
G70*
G01*
G75*
%ADD16C,0.010*%
%ADD18C,0.006*%
%ADD50R,0.055X0.037*%
%ADD51R,0.055X0.035*%
%ADD52R,0.066X0.060*%
%ADD53R,0.035X0.031*%
%ADD54R,0.035X0.055*%
%ADD55R,0.045X0.057*%
G04:AMPARAMS|DCode=56|XSize=71mil|YSize=150mil|CornerRadius=18mil|HoleSize=0mil|Usage=FLASHONLY|Rotation=270.000|XOffset=0mil|YOffset=0mil|HoleType=Round|Shape=RoundedRectangle|*
%AMROUNDEDRECTD56*
21,1,0.071,0.114,0,0,270.0*
21,1,0.035,0.150,0,0,270.0*
1,1,0.035,-0.057,-0.018*
1,1,0.035,-0.057,0.018*
1,1,0.035,0.057,0.018*
1,1,0.035,0.057,-0.018*
%
%ADD56ROUNDEDRECTD56*%
G04:AMPARAMS|DCode=57|XSize=79mil|YSize=39mil|CornerRadius=10mil|HoleSize=0mil|Usage=FLASHONLY|Rotation=90.000|XOffset=0mil|YOffset=0mil|HoleType=Round|Shape=RoundedRectangle|*
%AMROUNDEDRECTD57*
21,1,0.079,0.020,0,0,90.0*
21,1,0.059,0.039,0,0,90.0*
1,1,0.020,0.010,0.030*
1,1,0.020,0.010,-0.030*
1,1,0.020,-0.010,-0.030*
1,1,0.020,-0.010,0.030*
%
%ADD57ROUNDEDRECTD57*%
G04:AMPARAMS|DCode=58|XSize=79mil|YSize=39mil|CornerRadius=10mil|HoleSize=0mil|Usage=FLASHONLY|Rotation=0.000|XOffset=0mil|YOffset=0mil|HoleType=Round|Shape=RoundedRectangle|*
%AMROUNDEDRECTD58*
21,1,0.079,0.020,0,0,0.0*
21,1,0.059,0.039,0,0,0.0*
1,1,0.020,0.030,-0.010*
1,1,0.020,-0.030,-0.010*
1,1,0.020,-0.030,0.010*
1,1,0.020,0.030,0.010*
%
%ADD58ROUNDEDRECTD58*%
%ADD59R,0.083X0.055*%
%ADD60R,0.102X0.323*%
%ADD61R,0.125X0.040*%
%ADD62R,0.037X0.055*%
G04:AMPARAMS|DCode=63|XSize=12mil|YSize=40mil|CornerRadius=3mil|HoleSize=0mil|Usage=FLASHONLY|Rotation=270.000|XOffset=0mil|YOffset=0mil|HoleType=Round|Shape=RoundedRectangle|*
%AMROUNDEDRECTD63*
21,1,0.012,0.034,0,0,270.0*
21,1,0.006,0.040,0,0,270.0*
1,1,0.006,-0.017,-0.003*
1,1,0.006,-0.017,0.003*
1,1,0.006,0.017,0.003*
1,1,0.006,0.017,-0.003*
%
%ADD63ROUNDEDRECTD63*%
%ADD64R,0.068X0.157*%
%ADD65R,0.244X0.283*%
%ADD66R,0.063X0.118*%
%ADD67C,0.030*%
%ADD68C,0.040*%
%ADD69C,0.039*%
%ADD70C,0.394*%
%ADD71C,0.050*%
%ADD72C,0.020*%
%ADD73C,0.015*%
%ADD74C,0.100*%
%ADD75O,0.157X0.118*%
%ADD76O,0.157X0.098*%
%ADD77C,0.059*%
%ADD78R,0.059X0.059*%
%ADD79C,0.060*%
%ADD80C,0.079*%
%ADD81C,0.118*%
%ADD82C,0.043*%
%ADD83C,0.303*%
%ADD84C,0.157*%
%ADD85R,0.157X0.157*%
%ADD86C,0.055*%
%ADD87C,0.047*%
%ADD88C,0.024*%
%ADD89C,0.020*%
G36*
X7426Y8128D02*
Y7516D01*
X7426Y7468D01*
X7426Y7468D01*
Y7462D01*
X7423Y7451D01*
X7419Y7441D01*
X7413Y7431D01*
X7409Y7427D01*
X7404Y7422D01*
X7393Y7415D01*
X7380Y7410D01*
X7367Y7407D01*
X7360Y7407D01*
X7132D01*
Y7451D01*
X7115D01*
Y7414D01*
X7066D01*
Y7451D01*
X7050D01*
Y7407D01*
X6886D01*
X6867Y7411D01*
X6849Y7418D01*
X6832Y7429D01*
X6808Y7454D01*
X6808Y7454D01*
X6808Y7454D01*
X6801Y7460D01*
X6791Y7475D01*
X6784Y7492D01*
X6781Y7510D01*
X6781Y7519D01*
Y8140D01*
X6828Y8187D01*
X7367D01*
X7426Y8128D01*
D02*
G37*
G36*
X7330Y7268D02*
X7330Y7268D01*
X7340Y7268D01*
X7359Y7264D01*
X7377Y7257D01*
X7394Y7246D01*
X7401Y7239D01*
X7411Y7229D01*
X7414Y7225D01*
X7414Y7225D01*
X7414Y7225D01*
X7416Y7223D01*
X7419Y7220D01*
X7422Y7215D01*
X7425Y7209D01*
X7426Y7202D01*
X7426Y7198D01*
X7426Y6564D01*
X7426Y6564D01*
X7426Y6559D01*
X7425Y6550D01*
X7421Y6542D01*
X7416Y6534D01*
X7413Y6531D01*
X7408Y6526D01*
X7396Y6518D01*
X7383Y6513D01*
X7369Y6510D01*
X7362Y6510D01*
X7136D01*
Y6562D01*
X7120D01*
Y6524D01*
X7071D01*
Y6562D01*
X7054D01*
Y6510D01*
X6887D01*
X6883Y6514D01*
X6295Y6514D01*
X6295Y6514D01*
X6288Y6513D01*
X6276Y6511D01*
X6265Y6506D01*
X6254Y6499D01*
X6250Y6495D01*
X6243Y6489D01*
X6243Y6489D01*
X6238Y6482D01*
X6230Y6469D01*
X6224Y6453D01*
X6221Y6437D01*
X6221Y6429D01*
X6221Y5768D01*
X6119Y5666D01*
X5237D01*
Y5668D01*
X4899D01*
Y5666D01*
X3967D01*
X3957Y5666D01*
X3938Y5670D01*
X3920Y5677D01*
X3904Y5688D01*
X3897Y5695D01*
X3884Y5707D01*
X3877Y5714D01*
X3866Y5731D01*
X3859Y5749D01*
X3855Y5768D01*
Y5778D01*
Y7148D01*
X3855Y7163D01*
X3855Y7168D01*
X3855Y7168D01*
X3855Y7168D01*
X3855Y7177D01*
X3859Y7197D01*
X3866Y7215D01*
X3877Y7231D01*
X3884Y7238D01*
X3894Y7248D01*
X3906Y7257D01*
X3920Y7262D01*
X3935Y7265D01*
X3943Y7265D01*
X3970Y7265D01*
X3973Y7268D01*
X4778D01*
X4782Y7265D01*
X4803Y7257D01*
X4824Y7252D01*
X4847Y7250D01*
X5290D01*
X5312Y7252D01*
X5334Y7257D01*
X5354Y7265D01*
X5359Y7268D01*
X7050D01*
Y7221D01*
X7066D01*
Y7258D01*
X7115D01*
Y7221D01*
X7132D01*
Y7268D01*
X7330D01*
X7330Y7268D01*
D02*
G37*
G36*
X6489Y6383D02*
X7054Y6383D01*
Y6331D01*
X7071D01*
Y6369D01*
X7120D01*
Y6331D01*
X7136D01*
Y6383D01*
X7435Y6383D01*
X7435Y6383D01*
X7435Y6383D01*
X7440Y6383D01*
X7449Y6381D01*
X7457Y6377D01*
X7465Y6372D01*
X7468Y6369D01*
X7473Y6364D01*
X7479Y6351D01*
X7484Y6338D01*
X7487Y6324D01*
X7487Y6317D01*
X7487Y6317D01*
X7487Y6216D01*
X7487Y5798D01*
X7487Y5798D01*
X7487Y5789D01*
X7483Y5769D01*
X7475Y5751D01*
X7464Y5735D01*
X7457Y5728D01*
X7429Y5699D01*
X7422Y5692D01*
X7406Y5681D01*
X7387Y5674D01*
X7368Y5670D01*
X7358D01*
X7165Y5670D01*
X7156Y5670D01*
X7156Y5670D01*
X7146Y5670D01*
X7127Y5666D01*
X7109Y5658D01*
X7093Y5647D01*
X7085Y5641D01*
X6716Y5271D01*
X6709Y5264D01*
X6698Y5248D01*
X6691Y5230D01*
X6687Y5210D01*
X6687Y5201D01*
Y4880D01*
X6729Y4837D01*
Y4816D01*
X6730Y4815D01*
X6730Y4813D01*
X6731Y4806D01*
X6731Y4799D01*
X6732Y4797D01*
X6732Y4795D01*
X6734Y4788D01*
X6735Y4778D01*
X6734Y4767D01*
X6731Y4758D01*
X6728Y4748D01*
X6722Y4740D01*
X6716Y4732D01*
X6708Y4725D01*
X6699Y4720D01*
X6690Y4716D01*
X6687Y4715D01*
X6681Y4713D01*
X6674Y4711D01*
X6672Y4710D01*
X6671Y4710D01*
X6664Y4706D01*
X6658Y4703D01*
X6657Y4701D01*
X6655Y4701D01*
X6650Y4696D01*
X6644Y4691D01*
X6644Y4691D01*
X6576D01*
X6544Y4659D01*
X6544Y4631D01*
Y4591D01*
X6532Y4579D01*
X6521Y4566D01*
X6513Y4550D01*
X6507Y4533D01*
X6507Y4524D01*
X6506Y4515D01*
X6506Y4515D01*
Y4152D01*
X6506Y4152D01*
X6507Y4143D01*
X6507Y4134D01*
X6513Y4117D01*
X6521Y4101D01*
X6532Y4088D01*
X6532Y4088D01*
X6546Y4074D01*
X6549Y4072D01*
X6551Y4069D01*
X6556Y4066D01*
X6560Y4063D01*
X6563Y4061D01*
X6566Y4059D01*
X6571Y4057D01*
X6575Y4054D01*
X6579Y4053D01*
X6582Y4052D01*
X6587Y4051D01*
X6593Y4049D01*
X6596Y4049D01*
X6600Y4048D01*
X6605Y4048D01*
X6610Y4047D01*
X6611Y4047D01*
X6611Y4047D01*
X6666D01*
X6680Y4046D01*
X6690Y4044D01*
X6699Y4040D01*
X6708Y4035D01*
X6716Y4028D01*
X6722Y4020D01*
X6728Y4012D01*
X6731Y4002D01*
X6734Y3993D01*
X6735Y3982D01*
X6734Y3972D01*
X6731Y3962D01*
X6728Y3953D01*
X6722Y3944D01*
X6716Y3937D01*
X6708Y3930D01*
X6699Y3925D01*
X6690Y3921D01*
X6680Y3919D01*
X6666Y3917D01*
X6614D01*
X6601Y3919D01*
X6584Y3922D01*
X6582Y3923D01*
X6581Y3923D01*
X6574Y3924D01*
X6566Y3925D01*
X6565Y3925D01*
X6563Y3925D01*
X6457D01*
X6439Y3923D01*
X6422Y3918D01*
X6406Y3910D01*
X6398Y3903D01*
X6392Y3898D01*
X6392Y3898D01*
X6380Y3886D01*
X6337D01*
X5949Y3498D01*
Y3261D01*
X5595Y2907D01*
Y2212D01*
X5407Y2024D01*
X2923D01*
X2894Y2053D01*
Y2193D01*
X2855Y2232D01*
Y2234D01*
X2855Y2240D01*
X2858Y2249D01*
X2858Y2251D01*
X2858Y2253D01*
X2859Y2256D01*
X2860Y2260D01*
X2860Y2263D01*
X2860Y2267D01*
X2860Y2269D01*
X2860Y2271D01*
X2860Y2274D01*
X2860Y2278D01*
X2859Y2290D01*
X2860Y2300D01*
X2862Y2310D01*
X2866Y2319D01*
X2871Y2328D01*
X2878Y2335D01*
X2886Y2342D01*
X2894Y2347D01*
X2904Y2351D01*
X2908Y2352D01*
X2915Y2355D01*
X2922Y2357D01*
X2924Y2358D01*
X2925Y2358D01*
X2931Y2362D01*
X2938Y2365D01*
X2939Y2366D01*
X2941Y2367D01*
X2946Y2372D01*
X2952Y2377D01*
X3063Y2488D01*
X3074Y2502D01*
X3083Y2517D01*
X3088Y2534D01*
X3089Y2543D01*
X3090Y2552D01*
X3090Y2552D01*
Y2915D01*
X3090Y2915D01*
X3089Y2924D01*
X3088Y2933D01*
X3083Y2950D01*
X3074Y2966D01*
X3063Y2980D01*
X3063Y2980D01*
X3049Y2993D01*
X3046Y2996D01*
X3044Y2998D01*
X3040Y3001D01*
X3035Y3005D01*
X3032Y3006D01*
X3029Y3008D01*
X3024Y3011D01*
X3020Y3013D01*
X3016Y3014D01*
X3013Y3016D01*
X3008Y3017D01*
X3003Y3018D01*
X2999Y3019D01*
X2996Y3019D01*
X2990Y3019D01*
X2985Y3020D01*
X2983Y3020D01*
X2983Y3020D01*
X2927D01*
X2914Y3021D01*
X2904Y3023D01*
X2894Y3027D01*
X2886Y3032D01*
X2878Y3039D01*
X2871Y3047D01*
X2866Y3055D01*
X2862Y3065D01*
X2860Y3075D01*
X2859Y3085D01*
X2860Y3095D01*
X2862Y3105D01*
X2866Y3114D01*
X2871Y3123D01*
X2878Y3131D01*
X2886Y3137D01*
X2894Y3142D01*
X2904Y3146D01*
X2914Y3149D01*
X2927Y3150D01*
X2979D01*
X2993Y3149D01*
X3009Y3145D01*
X3011Y3145D01*
X3013Y3144D01*
X3020Y3143D01*
X3027Y3142D01*
X3029Y3142D01*
X3031Y3142D01*
X3139D01*
X3139Y3142D01*
X3148Y3143D01*
X3156Y3144D01*
X3173Y3149D01*
X3189Y3158D01*
X3203Y3169D01*
X3203Y3169D01*
X3409Y3375D01*
X3414Y3379D01*
X3416Y3383D01*
X3420Y3386D01*
X3429Y3397D01*
X3431Y3400D01*
X3434Y3404D01*
X3442Y3415D01*
X3445Y3419D01*
X3447Y3423D01*
X3453Y3434D01*
X4081Y4061D01*
X4081Y4837D01*
X4081Y4842D01*
X4081Y4842D01*
X4081Y4842D01*
X4080Y4851D01*
X4076Y4871D01*
X4069Y4889D01*
X4058Y4905D01*
X4051Y4912D01*
X4039Y4925D01*
X4019Y4945D01*
X4008Y4958D01*
X4008D01*
X4001Y4965D01*
X3990Y4981D01*
X3983Y4999D01*
X3979Y5019D01*
X3979Y5028D01*
Y5477D01*
X3979Y5486D01*
X3983Y5506D01*
X3990Y5524D01*
X4001Y5540D01*
X4005Y5544D01*
X4008Y5547D01*
X4009Y5548D01*
X4009Y5548D01*
X4015Y5554D01*
X4029Y5564D01*
X4046Y5571D01*
X4063Y5574D01*
X4071Y5574D01*
X4991Y5574D01*
X4995Y5569D01*
Y5547D01*
X5068D01*
X5140D01*
Y5569D01*
X5140Y5572D01*
X5144Y5574D01*
X5886Y5574D01*
X6107Y5569D01*
X6112Y5569D01*
X6112Y5569D01*
X6122Y5569D01*
X6141Y5573D01*
X6159Y5581D01*
X6176Y5592D01*
X6183Y5598D01*
X6284Y5700D01*
X6284D01*
X6284Y5700D01*
X6291Y5707D01*
X6302Y5723D01*
X6309Y5741D01*
X6313Y5761D01*
X6314Y5770D01*
X6314Y6001D01*
Y6208D01*
X6314Y6217D01*
X6318Y6237D01*
X6325Y6255D01*
X6336Y6271D01*
X6343Y6278D01*
X6418Y6354D01*
X6425Y6361D01*
X6442Y6372D01*
X6460Y6379D01*
X6479Y6383D01*
X6489Y6383D01*
D02*
G37*
G36*
X8220Y5600D02*
X8232Y5595D01*
X8243Y5587D01*
X8270Y5561D01*
X8270Y5561D01*
X8277Y5554D01*
X8288Y5537D01*
X8295Y5519D01*
X8299Y5500D01*
X8299Y5490D01*
X8299Y4356D01*
X8299Y4356D01*
X8299Y4347D01*
X8295Y4327D01*
X8288Y4309D01*
X8277Y4293D01*
X8256Y4272D01*
X8256Y4272D01*
X8249Y4265D01*
X8234Y4255D01*
X8217Y4248D01*
X8199Y4244D01*
X8077D01*
X8067Y4244D01*
X8048Y4248D01*
X8029Y4255D01*
X8013Y4266D01*
X8006Y4273D01*
X8000Y4280D01*
X8000Y4280D01*
X7993Y4286D01*
X7978Y4296D01*
X7961Y4303D01*
X7943Y4307D01*
X7934Y4307D01*
X7862Y4307D01*
X7668D01*
Y4311D01*
X7666D01*
Y4320D01*
X7683D01*
X7692Y4322D01*
X7700Y4327D01*
X7705Y4334D01*
X7705Y4334D01*
X7707Y4334D01*
X7710Y4334D01*
X7713Y4329D01*
X7720Y4325D01*
X7728Y4323D01*
X7735Y4325D01*
X7742Y4329D01*
X7746Y4336D01*
X7748Y4343D01*
X7746Y4351D01*
X7742Y4358D01*
X7741Y4359D01*
X7741Y4359D01*
X7668Y4431D01*
X7664Y4434D01*
Y4442D01*
X7612D01*
Y4395D01*
X7653D01*
X7676Y4372D01*
X7674Y4367D01*
X7664D01*
Y4367D01*
X7612D01*
Y4320D01*
X7619D01*
Y4311D01*
X7617D01*
Y4307D01*
X7600D01*
Y4313D01*
X7545D01*
Y4307D01*
X7382D01*
X7341Y4267D01*
X7259Y4185D01*
X7259Y4185D01*
X7259Y3698D01*
X7144Y3588D01*
X6941Y3588D01*
X6941Y3588D01*
X6932Y3588D01*
X6913Y3584D01*
X6896Y3577D01*
X6881Y3566D01*
X6874Y3560D01*
X6809Y3495D01*
X6805Y3491D01*
X6797Y3482D01*
X6791Y3472D01*
X6785Y3462D01*
X6781Y3451D01*
X6777Y3439D01*
X6775Y3428D01*
X6774Y3416D01*
X6774Y3410D01*
Y3310D01*
X6774Y3302D01*
X6777Y3288D01*
X6783Y3274D01*
X6791Y3261D01*
X6796Y3255D01*
X6824Y3228D01*
X6824Y3109D01*
X6816Y3100D01*
X6811Y3091D01*
X6796Y3074D01*
X6781Y3050D01*
X6768Y3026D01*
X6757Y3000D01*
X6749Y2973D01*
X6743Y2946D01*
X6741Y2918D01*
X6740Y2904D01*
X6740Y2630D01*
X6740Y2630D01*
X6741Y2621D01*
X6742Y2603D01*
X6745Y2585D01*
X6749Y2567D01*
X6754Y2549D01*
X6761Y2532D01*
X6768Y2515D01*
X6777Y2499D01*
X6782Y2491D01*
X6782Y2491D01*
X6787Y2486D01*
X6796Y2476D01*
X6803Y2464D01*
X6810Y2451D01*
X6815Y2438D01*
X6820Y2425D01*
X6822Y2411D01*
X6824Y2397D01*
X6824Y2390D01*
X6824Y2386D01*
X6824Y2376D01*
X6824Y2375D01*
X6824Y2375D01*
Y2375D01*
X6824Y2375D01*
X6824Y2369D01*
X6823Y2359D01*
X6821Y2348D01*
X6817Y2338D01*
X6813Y2328D01*
X6808Y2319D01*
X6803Y2310D01*
X6796Y2301D01*
X6792Y2297D01*
X6753Y2259D01*
X6749Y2255D01*
X6745Y2251D01*
X6736Y2243D01*
X6727Y2237D01*
X6716Y2231D01*
X6706Y2227D01*
X6694Y2223D01*
X6683Y2221D01*
X6671Y2220D01*
X5992D01*
X5972Y2224D01*
X5954Y2231D01*
X5938Y2242D01*
X5931Y2249D01*
X5903Y2277D01*
X5903D01*
X5896Y2284D01*
X5885Y2300D01*
X5878Y2318D01*
X5874Y2338D01*
Y2347D01*
Y2763D01*
Y2769D01*
X5877Y2782D01*
X5882Y2794D01*
X5889Y2805D01*
X5894Y2810D01*
X5992Y2908D01*
X5992D01*
X5992Y2908D01*
X5997Y2913D01*
X6004Y2924D01*
X6009Y2936D01*
X6011Y2949D01*
X6012Y2955D01*
X6012Y2986D01*
X6012Y3141D01*
X6012Y3141D01*
X6012Y3141D01*
X6012Y3147D01*
X6013Y3160D01*
X6016Y3173D01*
X6019Y3185D01*
X6024Y3197D01*
X6030Y3208D01*
X6038Y3219D01*
X6046Y3229D01*
X6050Y3234D01*
X6158Y3341D01*
X6163Y3347D01*
X6173Y3359D01*
X6182Y3373D01*
X6190Y3387D01*
X6196Y3402D01*
X6201Y3417D01*
X6204Y3433D01*
X6205Y3449D01*
X6206Y3457D01*
X6206Y3492D01*
X6206Y3527D01*
X6206Y3527D01*
X6206Y3527D01*
X6206Y3534D01*
X6207Y3548D01*
X6211Y3561D01*
X6215Y3575D01*
X6221Y3588D01*
X6227Y3600D01*
X6236Y3612D01*
X6245Y3622D01*
X6250Y3627D01*
X6457Y3834D01*
X6563D01*
X6586Y3828D01*
X6611Y3826D01*
X6670D01*
X6694Y3828D01*
X6718Y3834D01*
X6741Y3843D01*
X6762Y3856D01*
X6780Y3872D01*
X6796Y3891D01*
X6809Y3912D01*
X6818Y3934D01*
X6824Y3958D01*
X6826Y3982D01*
X6824Y4007D01*
X6818Y4031D01*
X6809Y4053D01*
X6796Y4074D01*
X6780Y4093D01*
X6762Y4109D01*
X6741Y4121D01*
X6718Y4131D01*
X6694Y4137D01*
X6670Y4138D01*
X6611D01*
X6610Y4138D01*
X6597Y4152D01*
Y4515D01*
X6709Y4627D01*
X6718Y4629D01*
X6741Y4639D01*
X6762Y4651D01*
X6780Y4667D01*
X6796Y4686D01*
X6809Y4707D01*
X6818Y4729D01*
X6824Y4753D01*
X6826Y4778D01*
X6824Y4802D01*
X6820Y4816D01*
Y5071D01*
X6848Y5099D01*
X6865Y5106D01*
X6881Y5116D01*
X6895Y5128D01*
X6907Y5142D01*
X6917Y5158D01*
X6924Y5175D01*
X6928Y5193D01*
X6930Y5212D01*
X6928Y5230D01*
X6924Y5248D01*
X6917Y5265D01*
X6907Y5281D01*
X6900Y5290D01*
X6902Y5294D01*
X6980D01*
X7690Y5295D01*
X7695Y5295D01*
X7695Y5295D01*
X7695Y5295D01*
X7705Y5296D01*
X7724Y5300D01*
X7742Y5307D01*
X7758Y5318D01*
X7766Y5325D01*
X7983Y5542D01*
X7989Y5541D01*
X7989Y5541D01*
X7984Y5520D01*
X7982Y5499D01*
X7984Y5478D01*
X7989Y5457D01*
X7997Y5437D01*
X8008Y5419D01*
X8022Y5402D01*
X8039Y5388D01*
X8057Y5377D01*
X8077Y5369D01*
X8098Y5364D01*
X8119Y5362D01*
X8140Y5364D01*
X8161Y5369D01*
X8181Y5377D01*
X8199Y5388D01*
X8216Y5402D01*
X8230Y5419D01*
X8241Y5437D01*
X8249Y5457D01*
X8254Y5478D01*
X8256Y5499D01*
X8254Y5520D01*
X8249Y5541D01*
X8241Y5561D01*
X8230Y5579D01*
X8216Y5596D01*
X8216Y5596D01*
X8219Y5600D01*
X8220Y5600D01*
D02*
G37*
G36*
X3644Y4847D02*
X3649Y4847D01*
X3658Y4845D01*
X3666Y4842D01*
X3674Y4837D01*
X3677Y4834D01*
X3682Y4828D01*
X3691Y4816D01*
X3697Y4802D01*
X3700Y4788D01*
X3701Y4780D01*
X3706Y4774D01*
X3713Y4759D01*
X3719Y4744D01*
X3721Y4728D01*
X3721Y4720D01*
X3721D01*
X3721Y4720D01*
X3721Y4281D01*
X3721Y4271D01*
X3717Y4252D01*
X3710Y4234D01*
X3699Y4218D01*
X3692Y4211D01*
X3613Y4132D01*
X3606Y4124D01*
X3595Y4108D01*
X3588Y4090D01*
X3584Y4071D01*
X3584Y4061D01*
X3584Y4061D01*
X3584Y4061D01*
X3584Y4014D01*
X3584Y4004D01*
X3580Y3985D01*
X3572Y3966D01*
X3561Y3950D01*
X3554Y3943D01*
X3419Y3808D01*
X3412Y3800D01*
X3401Y3784D01*
X3394Y3766D01*
X3390Y3747D01*
X3390Y3737D01*
Y3575D01*
X3390Y3541D01*
X3389Y3534D01*
X3388Y3520D01*
X3385Y3506D01*
X3380Y3492D01*
X3375Y3480D01*
X3368Y3467D01*
X3360Y3456D01*
X3351Y3445D01*
X3345Y3440D01*
X3345Y3440D01*
X3345Y3440D01*
X3345Y3440D01*
X3139Y3233D01*
X3031D01*
X3007Y3239D01*
X2983Y3241D01*
X2924D01*
X2899Y3239D01*
X2875Y3233D01*
X2853Y3224D01*
X2832Y3211D01*
X2813Y3195D01*
X2797Y3176D01*
X2785Y3156D01*
X2775Y3133D01*
X2770Y3109D01*
X2768Y3085D01*
X2770Y3060D01*
X2775Y3037D01*
X2785Y3014D01*
X2797Y2993D01*
X2813Y2975D01*
X2832Y2959D01*
X2853Y2946D01*
X2875Y2936D01*
X2899Y2931D01*
X2924Y2929D01*
X2983D01*
X2985Y2929D01*
X2999Y2915D01*
Y2552D01*
X2887Y2441D01*
X2875Y2438D01*
X2853Y2429D01*
X2832Y2416D01*
X2813Y2400D01*
X2797Y2381D01*
X2785Y2360D01*
X2775Y2338D01*
X2770Y2314D01*
X2768Y2290D01*
X2769Y2271D01*
X2769Y2271D01*
X2765Y2254D01*
X2764Y2238D01*
Y1987D01*
X2745Y1968D01*
X2729Y1961D01*
X2713Y1952D01*
X2699Y1939D01*
X2687Y1925D01*
X2677Y1909D01*
X2670Y1892D01*
X2665Y1874D01*
X2664Y1856D01*
X2665Y1837D01*
X2670Y1819D01*
X2673Y1812D01*
X2670Y1808D01*
X2148Y1808D01*
X1873D01*
X1873Y1808D01*
X1863Y1808D01*
X1844Y1804D01*
X1826Y1796D01*
X1810Y1785D01*
X1802Y1779D01*
X1630Y1606D01*
X1625Y1608D01*
X1624Y1611D01*
X1616Y1630D01*
X1605Y1649D01*
X1591Y1665D01*
X1575Y1679D01*
X1556Y1690D01*
X1537Y1698D01*
X1516Y1703D01*
X1494Y1705D01*
X1473Y1703D01*
X1452Y1698D01*
X1432Y1690D01*
X1414Y1679D01*
X1398Y1665D01*
X1384Y1649D01*
X1372Y1630D01*
X1364Y1611D01*
X1359Y1590D01*
X1358Y1568D01*
X1359Y1547D01*
X1364Y1526D01*
X1372Y1506D01*
X1382Y1491D01*
X1379Y1486D01*
X1371Y1488D01*
X1352Y1496D01*
X1336Y1507D01*
X1329Y1514D01*
X1291Y1551D01*
X1291Y1551D01*
X1291Y1551D01*
X1286Y1557D01*
X1277Y1570D01*
X1271Y1585D01*
X1268Y1600D01*
Y1608D01*
Y2762D01*
X1268Y2772D01*
X1272Y2791D01*
X1279Y2809D01*
X1290Y2825D01*
X1309Y2844D01*
X1322Y2853D01*
X1337Y2859D01*
X1352Y2862D01*
X1360Y2862D01*
X1537Y2862D01*
X1537Y2862D01*
X1537Y2862D01*
X1547Y2862D01*
X1566Y2858D01*
X1585Y2851D01*
X1601Y2840D01*
X1608Y2833D01*
X1648Y2793D01*
X1648Y2793D01*
Y2793D01*
X1655Y2786D01*
X1671Y2776D01*
X1690Y2768D01*
X1709Y2764D01*
X1719Y2764D01*
X1831Y2763D01*
X1938D01*
Y2748D01*
X1932D01*
Y2747D01*
X1931D01*
X1922Y2745D01*
X1915Y2740D01*
X1842Y2668D01*
X1837Y2660D01*
X1835Y2651D01*
Y2649D01*
X1837Y2640D01*
X1842Y2632D01*
X1850Y2627D01*
X1859Y2626D01*
X1868Y2627D01*
X1875Y2632D01*
X1880Y2639D01*
X1882Y2642D01*
X1888Y2640D01*
X1891Y2635D01*
X1898Y2630D01*
X1906Y2629D01*
X1913Y2630D01*
X1914Y2631D01*
X1932D01*
Y2625D01*
X1983D01*
Y2673D01*
X1932D01*
Y2667D01*
X1915D01*
X1913Y2670D01*
X1913Y2672D01*
X1941Y2700D01*
X1983D01*
Y2719D01*
X1983Y2719D01*
X1985Y2728D01*
X1985Y2728D01*
Y2763D01*
X2144D01*
X2148Y2760D01*
Y2760D01*
X2213Y2760D01*
X2254Y2801D01*
X2335Y2881D01*
X2335Y3369D01*
X2445Y3479D01*
X2596Y3479D01*
X2652D01*
X2662Y3480D01*
X2680Y3483D01*
X2697Y3491D01*
X2713Y3501D01*
X2720Y3507D01*
X2720Y3507D01*
X2785Y3572D01*
X2789Y3576D01*
X2796Y3585D01*
X2803Y3595D01*
X2808Y3606D01*
X2813Y3617D01*
X2816Y3628D01*
X2819Y3640D01*
X2820Y3651D01*
X2820Y3657D01*
X2820Y3657D01*
X2820Y3757D01*
X2819Y3765D01*
X2817Y3780D01*
X2811Y3794D01*
X2802Y3806D01*
X2797Y3812D01*
X2797Y3812D01*
X2770Y3839D01*
X2770Y3958D01*
X2777Y3967D01*
X2783Y3976D01*
X2797Y3994D01*
X2813Y4017D01*
X2826Y4042D01*
X2837Y4067D01*
X2845Y4094D01*
X2850Y4122D01*
X2853Y4149D01*
X2853Y4163D01*
X2853Y4163D01*
X2853Y4437D01*
X2853Y4446D01*
X2851Y4465D01*
X2849Y4483D01*
X2844Y4501D01*
X2839Y4518D01*
X2833Y4535D01*
X2825Y4552D01*
X2817Y4568D01*
X2812Y4576D01*
Y4576D01*
X2807Y4581D01*
X2798Y4592D01*
X2790Y4603D01*
X2783Y4616D01*
X2778Y4629D01*
X2774Y4642D01*
X2771Y4656D01*
X2770Y4670D01*
X2770Y4677D01*
X2770Y4691D01*
X2770Y4691D01*
X2770Y4692D01*
X2770Y4692D01*
X2770Y4692D01*
X2770Y4692D01*
Y4698D01*
X2771Y4708D01*
X2773Y4719D01*
X2776Y4729D01*
X2780Y4739D01*
X2785Y4749D01*
X2791Y4758D01*
X2798Y4766D01*
X2801Y4770D01*
X2840Y4809D01*
X2844Y4812D01*
X2848Y4817D01*
X2857Y4824D01*
X2867Y4830D01*
X2877Y4836D01*
X2888Y4840D01*
X2899Y4844D01*
X2911Y4846D01*
X2922Y4847D01*
X2928Y4847D01*
X2928Y4847D01*
X2929Y4847D01*
X3644Y4847D01*
D02*
G37*
G36*
X2433Y4282D02*
X2067D01*
Y4338D01*
X2225D01*
Y4464D01*
X2196D01*
Y4491D01*
X2168D01*
Y4501D01*
X2196D01*
Y4530D01*
X2433D01*
Y4282D01*
D02*
G37*
G36*
X7535Y2729D02*
X7378D01*
Y2603D01*
X7407D01*
Y2576D01*
X7435D01*
Y2566D01*
X7407D01*
Y2536D01*
X7169D01*
Y2784D01*
X7535D01*
Y2729D01*
D02*
G37*
G36*
X3971Y1060D02*
Y989D01*
X3963Y981D01*
X3893D01*
X3881Y993D01*
Y1060D01*
X3893Y1072D01*
X3960D01*
X3971Y1060D01*
D02*
G37*
G36*
X5132Y1259D02*
X5273Y1117D01*
X5521Y1117D01*
X5573Y1066D01*
Y987D01*
X5549Y964D01*
X5519D01*
X5515Y965D01*
Y966D01*
X5479D01*
Y991D01*
X5455D01*
Y1016D01*
X5444D01*
Y969D01*
X5440Y964D01*
X5429D01*
X5425Y965D01*
Y966D01*
X5389D01*
Y991D01*
X5365D01*
Y1016D01*
X5354D01*
Y969D01*
X5350Y964D01*
X5344D01*
X5340Y965D01*
Y966D01*
X5304D01*
Y991D01*
X5280D01*
Y1016D01*
X5269D01*
Y969D01*
X5265Y964D01*
X5254D01*
X5250Y965D01*
Y966D01*
X5177D01*
X5175Y964D01*
X5155D01*
X5128Y937D01*
X5124Y939D01*
Y1061D01*
X5006D01*
Y924D01*
X4998D01*
X4970Y952D01*
X4970Y1232D01*
X5010Y1271D01*
X5120Y1271D01*
X5132Y1259D01*
D02*
G37*
G36*
X4296Y1078D02*
X4297D01*
X4299Y1076D01*
X4330D01*
Y1071D01*
X4335D01*
Y1054D01*
X4348D01*
X4349Y1055D01*
X4352Y1050D01*
X4327Y1025D01*
Y1021D01*
X4323Y1018D01*
X4291D01*
Y990D01*
X4286D01*
D01*
X4291D01*
Y962D01*
X4314D01*
X4316Y958D01*
X4310Y951D01*
X4245D01*
X4237Y959D01*
Y1011D01*
X4231Y1017D01*
X4121D01*
X4109Y1029D01*
X4109Y1089D01*
X4112Y1092D01*
X4282D01*
X4296Y1078D01*
D02*
G37*
G36*
X5956Y1277D02*
X5956Y1017D01*
X5956Y1005D01*
X5967Y993D01*
X6078Y993D01*
X6105Y966D01*
X6105Y914D01*
X6102Y911D01*
X6097Y913D01*
Y948D01*
X6087D01*
Y922D01*
X6037D01*
Y948D01*
X6027D01*
Y899D01*
X6011D01*
Y948D01*
X6000D01*
Y922D01*
X5951D01*
Y948D01*
X5940D01*
Y909D01*
X5935Y907D01*
X5928Y914D01*
X5822Y914D01*
Y924D01*
X5811D01*
Y898D01*
X5762D01*
Y924D01*
X5751D01*
Y914D01*
X5684Y914D01*
X5629Y970D01*
X5629Y1292D01*
X5652Y1316D01*
X5916D01*
X5956Y1277D01*
D02*
G37*
G36*
X4558Y1001D02*
Y1001D01*
X4593D01*
Y976D01*
X4618D01*
Y950D01*
X4629D01*
Y982D01*
X4633Y984D01*
X4654Y963D01*
X4654Y948D01*
X4617Y911D01*
X4570D01*
X4530Y950D01*
X4530Y983D01*
X4548Y1001D01*
X4558D01*
D02*
G37*
G36*
X5527Y858D02*
X5522Y854D01*
X5187Y854D01*
X5163Y877D01*
Y924D01*
X5175Y936D01*
X5179Y934D01*
Y895D01*
X5190D01*
Y921D01*
X5239D01*
Y895D01*
X5250D01*
Y944D01*
X5269D01*
Y895D01*
X5280D01*
Y921D01*
X5329D01*
Y895D01*
X5340D01*
Y944D01*
X5354D01*
Y895D01*
X5365D01*
Y921D01*
X5414D01*
Y895D01*
X5425D01*
Y944D01*
X5444D01*
Y895D01*
X5455D01*
Y921D01*
X5504D01*
Y895D01*
X5515D01*
Y944D01*
X5527D01*
Y858D01*
D02*
G37*
%LPC*%
G36*
X5128Y7171D02*
X5061D01*
Y7146D01*
X5128D01*
Y7171D01*
D02*
G37*
G36*
X5051D02*
X4983D01*
Y7146D01*
X5051D01*
Y7171D01*
D02*
G37*
G36*
X6119Y7206D02*
X6057D01*
Y7144D01*
X6119D01*
Y7206D01*
D02*
G37*
G36*
X6008D02*
X5946D01*
Y7144D01*
X6008D01*
Y7206D01*
D02*
G37*
G36*
X4213D02*
X4151D01*
Y7144D01*
X4213D01*
Y7206D01*
D02*
G37*
G36*
X4102D02*
X4040D01*
Y7144D01*
X4102D01*
Y7206D01*
D02*
G37*
G36*
X5128Y7136D02*
X5061D01*
Y7111D01*
X5128D01*
Y7136D01*
D02*
G37*
G36*
X5051D02*
X4983D01*
Y7111D01*
X5051D01*
Y7136D01*
D02*
G37*
G36*
X6119Y7095D02*
X6057D01*
Y7033D01*
X6119D01*
Y7095D01*
D02*
G37*
G36*
X6008D02*
X5946D01*
Y7033D01*
X6008D01*
Y7095D01*
D02*
G37*
G36*
X4213Y7095D02*
X4151D01*
Y7033D01*
X4213D01*
Y7095D01*
D02*
G37*
G36*
X4102D02*
X4040D01*
Y7033D01*
X4102D01*
Y7095D01*
D02*
G37*
G36*
X6057Y5895D02*
Y5837D01*
X6115D01*
X6113Y5845D01*
X6105Y5860D01*
X6094Y5874D01*
X6081Y5884D01*
X6066Y5892D01*
X6057Y5895D01*
D02*
G37*
G36*
X6008Y5895D02*
X5999Y5892D01*
X5984Y5884D01*
X5971Y5874D01*
X5960Y5860D01*
X5952Y5845D01*
X5949Y5837D01*
X6008D01*
Y5895D01*
D02*
G37*
G36*
X4151Y5895D02*
Y5837D01*
X4210D01*
X4207Y5845D01*
X4199Y5860D01*
X4188Y5874D01*
X4175Y5884D01*
X4160Y5892D01*
X4151Y5895D01*
D02*
G37*
G36*
X4102Y5895D02*
X4093Y5892D01*
X4078Y5884D01*
X4065Y5874D01*
X4054Y5860D01*
X4046Y5845D01*
X4044Y5837D01*
X4102D01*
Y5895D01*
D02*
G37*
G36*
X5140Y5822D02*
X5073D01*
Y5797D01*
X5140D01*
Y5822D01*
D02*
G37*
G36*
X5063D02*
X4995D01*
Y5797D01*
X5063D01*
Y5822D01*
D02*
G37*
G36*
X5140Y5787D02*
X5073D01*
Y5762D01*
X5140D01*
Y5787D01*
D02*
G37*
G36*
X5063D02*
X4995D01*
Y5762D01*
X5063D01*
Y5787D01*
D02*
G37*
G36*
X6115Y5787D02*
X6057D01*
Y5729D01*
X6066Y5732D01*
X6081Y5740D01*
X6094Y5751D01*
X6105Y5764D01*
X6113Y5779D01*
X6115Y5787D01*
D02*
G37*
G36*
X4210Y5787D02*
X4151D01*
Y5729D01*
X4160Y5732D01*
X4175Y5740D01*
X4188Y5751D01*
X4199Y5764D01*
X4207Y5779D01*
X4210Y5787D01*
D02*
G37*
G36*
X4102D02*
X4044D01*
X4046Y5779D01*
X4054Y5764D01*
X4065Y5751D01*
X4078Y5740D01*
X4093Y5732D01*
X4102Y5729D01*
Y5787D01*
D02*
G37*
G36*
X6008Y5787D02*
X5949D01*
X5952Y5779D01*
X5960Y5764D01*
X5971Y5751D01*
X5984Y5740D01*
X5999Y5732D01*
X6008Y5729D01*
Y5787D01*
D02*
G37*
G36*
X5140Y5537D02*
X5073D01*
Y5512D01*
X5140D01*
Y5537D01*
D02*
G37*
G36*
X5063D02*
X4995D01*
Y5512D01*
X5063D01*
Y5537D01*
D02*
G37*
G36*
X6119Y5505D02*
X6057D01*
Y5443D01*
X6119D01*
Y5505D01*
D02*
G37*
G36*
X6008D02*
X5946D01*
Y5443D01*
X6008D01*
Y5505D01*
D02*
G37*
G36*
X4213D02*
X4151D01*
Y5443D01*
X4213D01*
Y5505D01*
D02*
G37*
G36*
X4102D02*
X4040D01*
Y5443D01*
X4102D01*
Y5505D01*
D02*
G37*
G36*
X6119Y5394D02*
X6057D01*
Y5332D01*
X6119D01*
Y5394D01*
D02*
G37*
G36*
X6008D02*
X5946D01*
Y5332D01*
X6008D01*
Y5394D01*
D02*
G37*
G36*
X4213Y5394D02*
X4151D01*
Y5332D01*
X4213D01*
Y5394D01*
D02*
G37*
G36*
X4102D02*
X4040D01*
Y5332D01*
X4102D01*
Y5394D01*
D02*
G37*
G36*
X5489Y4829D02*
Y4771D01*
X5548D01*
X5545Y4779D01*
X5537Y4794D01*
X5526Y4808D01*
X5513Y4818D01*
X5498Y4826D01*
X5489Y4829D01*
D02*
G37*
G36*
X5440D02*
X5431Y4826D01*
X5416Y4818D01*
X5403Y4808D01*
X5392Y4794D01*
X5384Y4779D01*
X5382Y4771D01*
X5440D01*
Y4829D01*
D02*
G37*
G36*
X5548Y4721D02*
X5489D01*
Y4663D01*
X5498Y4666D01*
X5513Y4674D01*
X5526Y4685D01*
X5537Y4698D01*
X5545Y4713D01*
X5548Y4721D01*
D02*
G37*
G36*
X5440D02*
X5382D01*
X5384Y4713D01*
X5392Y4698D01*
X5403Y4685D01*
X5416Y4674D01*
X5431Y4666D01*
X5440Y4663D01*
Y4721D01*
D02*
G37*
G36*
X5489Y4632D02*
Y4574D01*
X5548D01*
X5545Y4583D01*
X5537Y4598D01*
X5526Y4611D01*
X5513Y4622D01*
X5498Y4630D01*
X5489Y4632D01*
D02*
G37*
G36*
X5440D02*
X5431Y4630D01*
X5416Y4622D01*
X5403Y4611D01*
X5392Y4598D01*
X5384Y4583D01*
X5382Y4574D01*
X5440D01*
Y4632D01*
D02*
G37*
G36*
X5548Y4525D02*
X5489D01*
Y4466D01*
X5498Y4469D01*
X5513Y4477D01*
X5526Y4488D01*
X5537Y4501D01*
X5545Y4516D01*
X5548Y4525D01*
D02*
G37*
G36*
X5440D02*
X5382D01*
X5384Y4516D01*
X5392Y4501D01*
X5403Y4488D01*
X5416Y4477D01*
X5431Y4469D01*
X5440Y4466D01*
Y4525D01*
D02*
G37*
G36*
X5951Y4145D02*
X5918D01*
Y4126D01*
X5976D01*
X5973Y4132D01*
X5969Y4137D01*
X5964Y4141D01*
X5958Y4144D01*
X5951Y4145D01*
D02*
G37*
G36*
X5869D02*
X5837D01*
X5830Y4144D01*
X5824Y4141D01*
X5818Y4137D01*
X5814Y4132D01*
X5812Y4126D01*
X5869D01*
Y4145D01*
D02*
G37*
G36*
X5976Y4077D02*
X5894D01*
X5812D01*
X5814Y4071D01*
X5818Y4065D01*
X5824Y4061D01*
X5825Y4061D01*
X5828Y4054D01*
X5827Y4054D01*
X5817Y4053D01*
X5798Y4048D01*
X5780Y4041D01*
X5765Y4032D01*
X5764Y4031D01*
X5748Y4023D01*
X5748Y4023D01*
X5746Y4021D01*
X5746Y4021D01*
X5746Y4021D01*
X5739Y4016D01*
X5732Y4010D01*
X5732Y4010D01*
X5732Y4010D01*
X5731Y4009D01*
X5730Y4008D01*
X5730Y4008D01*
X5730Y4008D01*
X5725Y4001D01*
X5719Y3994D01*
X5719Y3994D01*
X5719Y3994D01*
X5717Y3991D01*
X5717Y3991D01*
X5709Y3976D01*
X5707Y3973D01*
X5707Y3973D01*
X5707Y3973D01*
X5706Y3969D01*
X5705Y3967D01*
X5704Y3961D01*
X5702Y3956D01*
X5702Y3956D01*
X5702Y3956D01*
X5702Y3955D01*
X5702Y3952D01*
X5701Y3949D01*
X5701Y3944D01*
X5700Y3942D01*
X5700Y3939D01*
X5700Y3936D01*
X5700Y3933D01*
X5700Y3869D01*
X5702Y3852D01*
X5702Y3852D01*
X5702Y3847D01*
X5702Y3847D01*
X5705Y3838D01*
X5708Y3830D01*
X5708Y3830D01*
X5709Y3826D01*
X5709Y3826D01*
X5714Y3816D01*
X5718Y3810D01*
X5718Y3810D01*
X5720Y3806D01*
X5726Y3799D01*
X5732Y3792D01*
X5735Y3789D01*
X5735Y3789D01*
X5735Y3789D01*
X5743Y3782D01*
X5749Y3777D01*
X5749Y3777D01*
X5749Y3777D01*
X5754Y3774D01*
X5763Y3769D01*
X5769Y3766D01*
X5774Y3764D01*
X5774Y3764D01*
X5774Y3764D01*
X5784Y3761D01*
X5787Y3760D01*
X5793Y3756D01*
X5810Y3749D01*
X5828Y3745D01*
X5847Y3743D01*
X5865Y3745D01*
X5883Y3749D01*
X5890Y3752D01*
X5902Y3747D01*
X5920Y3743D01*
X5939Y3741D01*
X5957Y3743D01*
X5975Y3747D01*
X5993Y3754D01*
X6008Y3764D01*
X6023Y3776D01*
X6035Y3790D01*
X6037Y3794D01*
X6039Y3796D01*
X6049Y3806D01*
X6052Y3808D01*
X6052Y3808D01*
X6052Y3808D01*
X6056Y3814D01*
X6063Y3822D01*
X6063Y3822D01*
X6063Y3822D01*
X6068Y3829D01*
X6068Y3829D01*
X6073Y3838D01*
X6076Y3845D01*
X6076Y3845D01*
X6076Y3845D01*
X6079Y3852D01*
X6079Y3852D01*
X6079Y3852D01*
X6082Y3860D01*
X6084Y3869D01*
X6084Y3869D01*
X6084Y3869D01*
X6086Y3877D01*
X6086Y3877D01*
X6086Y3877D01*
X6087Y3887D01*
X6087Y3888D01*
X6087Y3888D01*
X6088Y3895D01*
X6088Y3895D01*
X6088Y3895D01*
X6088Y3899D01*
X6088Y3899D01*
X6088Y3918D01*
X6088Y3921D01*
X6087Y3927D01*
X6087Y3932D01*
X6086Y3938D01*
X6085Y3944D01*
X6084Y3949D01*
X6083Y3955D01*
X6081Y3960D01*
X6080Y3965D01*
X6077Y3971D01*
X6075Y3975D01*
X6075Y3975D01*
X6075Y3977D01*
X6073Y3981D01*
X6071Y3983D01*
X6070Y3986D01*
X6069Y3987D01*
X6069Y3988D01*
X6067Y3991D01*
X6064Y3995D01*
X6062Y3998D01*
X6058Y4001D01*
X6056Y4005D01*
X6054Y4007D01*
X6054Y4007D01*
X6054Y4007D01*
X6050Y4010D01*
X6049Y4011D01*
X6048Y4012D01*
X6040Y4018D01*
X6040Y4018D01*
X6040Y4018D01*
X6035Y4021D01*
X6035Y4022D01*
X6024Y4031D01*
X6007Y4041D01*
X5989Y4048D01*
X5970Y4053D01*
X5960Y4054D01*
X5960Y4054D01*
X5962Y4061D01*
X5964Y4061D01*
X5969Y4065D01*
X5973Y4071D01*
X5976Y4077D01*
D02*
G37*
G36*
X4224Y3878D02*
X4200Y3877D01*
X4176Y3872D01*
X4153Y3864D01*
X4132Y3854D01*
X4112Y3840D01*
X4093Y3824D01*
X4077Y3806D01*
X4064Y3786D01*
X4053Y3764D01*
X4045Y3741D01*
X4041Y3717D01*
X4039Y3693D01*
X4041Y3669D01*
X4045Y3645D01*
X4053Y3622D01*
X4064Y3600D01*
X4068Y3594D01*
X4064Y3589D01*
X4053Y3567D01*
X4045Y3544D01*
X4041Y3520D01*
X4039Y3496D01*
X4041Y3472D01*
X4045Y3448D01*
X4053Y3425D01*
X4064Y3403D01*
X4077Y3383D01*
X4093Y3365D01*
X4112Y3349D01*
X4132Y3335D01*
X4153Y3325D01*
X4176Y3317D01*
X4200Y3312D01*
X4224Y3311D01*
X4249Y3312D01*
X4272Y3317D01*
X4295Y3325D01*
X4317Y3335D01*
X4337Y3349D01*
X4356Y3365D01*
X4372Y3383D01*
X4385Y3403D01*
X4396Y3425D01*
X4404Y3448D01*
X4408Y3472D01*
X4410Y3496D01*
X4408Y3520D01*
X4404Y3544D01*
X4396Y3567D01*
X4385Y3589D01*
X4381Y3594D01*
X4385Y3600D01*
X4396Y3622D01*
X4404Y3645D01*
X4408Y3669D01*
X4410Y3693D01*
X4408Y3717D01*
X4404Y3741D01*
X4396Y3764D01*
X4385Y3786D01*
X4372Y3806D01*
X4356Y3824D01*
X4337Y3840D01*
X4317Y3854D01*
X4295Y3864D01*
X4272Y3872D01*
X4249Y3877D01*
X4224Y3878D01*
D02*
G37*
G36*
X3851Y3219D02*
X3832Y3218D01*
X3814Y3213D01*
X3801Y3208D01*
X3795Y3210D01*
X3777Y3215D01*
X3759Y3216D01*
X3740Y3215D01*
X3722Y3210D01*
X3705Y3203D01*
X3689Y3194D01*
X3675Y3181D01*
X3663Y3167D01*
X3663Y3167D01*
X3661Y3166D01*
X3652Y3156D01*
X3649Y3153D01*
X3649Y3153D01*
X3649Y3153D01*
X3644Y3148D01*
X3638Y3139D01*
X3638Y3139D01*
X3638Y3139D01*
X3633Y3133D01*
X3633Y3133D01*
X3628Y3123D01*
X3625Y3117D01*
X3625Y3117D01*
X3625Y3117D01*
X3622Y3110D01*
X3622Y3110D01*
X3622Y3110D01*
X3619Y3102D01*
X3616Y3092D01*
X3616Y3092D01*
X3616Y3092D01*
X3615Y3085D01*
X3614Y3078D01*
X3613Y3070D01*
X3613Y3066D01*
X3613Y3064D01*
X3613Y3063D01*
X3613Y3058D01*
X3613Y3058D01*
X3613Y3058D01*
X3613Y3043D01*
X3613Y3040D01*
X3614Y3035D01*
X3614Y3029D01*
X3614Y3023D01*
X3616Y3018D01*
X3616Y3012D01*
X3618Y3007D01*
X3620Y3002D01*
X3621Y2996D01*
X3623Y2991D01*
X3625Y2987D01*
X3626Y2986D01*
X3626Y2986D01*
X3626Y2986D01*
X3626Y2985D01*
X3628Y2981D01*
X3629Y2978D01*
X3631Y2976D01*
X3631Y2975D01*
X3632Y2974D01*
X3634Y2970D01*
X3634Y2970D01*
X3634Y2970D01*
X3637Y2967D01*
X3639Y2963D01*
X3642Y2960D01*
X3645Y2957D01*
X3645Y2957D01*
X3645Y2957D01*
X3645Y2957D01*
X3647Y2955D01*
X3647Y2955D01*
X3647Y2955D01*
X3651Y2952D01*
X3652Y2951D01*
X3653Y2950D01*
X3655Y2949D01*
X3661Y2943D01*
X3661Y2943D01*
X3661Y2943D01*
X3666Y2940D01*
X3666Y2940D01*
X3677Y2931D01*
X3694Y2921D01*
X3712Y2913D01*
X3731Y2909D01*
X3741Y2908D01*
X3741Y2907D01*
X3738Y2901D01*
X3737Y2900D01*
X3732Y2896D01*
X3728Y2891D01*
X3725Y2885D01*
X3807D01*
X3889D01*
X3887Y2891D01*
X3882Y2896D01*
X3877Y2900D01*
X3876Y2901D01*
X3873Y2907D01*
X3873Y2908D01*
X3884Y2909D01*
X3903Y2913D01*
X3921Y2921D01*
X3935Y2930D01*
X3937Y2930D01*
X3952Y2939D01*
X3952Y2939D01*
X3955Y2940D01*
X3955Y2940D01*
X3955Y2940D01*
X3962Y2946D01*
X3968Y2951D01*
X3968Y2951D01*
X3968Y2951D01*
X3969Y2952D01*
X3971Y2954D01*
X3971Y2954D01*
X3971Y2954D01*
X3976Y2960D01*
X3982Y2967D01*
X3982Y2967D01*
X3982Y2967D01*
X3984Y2970D01*
X3984Y2970D01*
X3992Y2986D01*
X3993Y2989D01*
X3996Y2999D01*
X3999Y3006D01*
X3999Y3006D01*
X3999Y3006D01*
X3999Y3006D01*
X3999Y3009D01*
X3999Y3009D01*
X3999Y3009D01*
X4000Y3019D01*
X4001Y3027D01*
X4001Y3027D01*
X4001Y3027D01*
X4001Y3029D01*
X4001Y3029D01*
X4001Y3092D01*
X4001Y3092D01*
X4001Y3092D01*
X4000Y3099D01*
X3999Y3110D01*
X3999Y3110D01*
X3998Y3115D01*
X3998Y3115D01*
X3998Y3115D01*
X3993Y3132D01*
X3991Y3136D01*
X3991Y3136D01*
X3986Y3145D01*
X3983Y3152D01*
X3983Y3152D01*
X3980Y3156D01*
X3980Y3156D01*
X3980Y3156D01*
X3975Y3162D01*
X3969Y3169D01*
X3967Y3171D01*
X3967Y3171D01*
X3967Y3171D01*
X3967Y3171D01*
X3965Y3173D01*
X3952Y3184D01*
X3947Y3187D01*
X3938Y3192D01*
X3931Y3196D01*
X3927Y3198D01*
X3927Y3198D01*
X3927Y3198D01*
X3917Y3201D01*
X3911Y3203D01*
X3905Y3206D01*
X3887Y3213D01*
X3869Y3218D01*
X3851Y3219D01*
D02*
G37*
G36*
X5465Y3652D02*
X5440Y3650D01*
X5417Y3646D01*
X5394Y3638D01*
X5372Y3627D01*
X5352Y3614D01*
X5333Y3598D01*
X5317Y3579D01*
X5304Y3559D01*
X5293Y3537D01*
X5285Y3515D01*
X5281Y3491D01*
X5279Y3467D01*
X5281Y3442D01*
X5285Y3419D01*
X5293Y3396D01*
X5304Y3374D01*
X5308Y3368D01*
X5304Y3362D01*
X5293Y3341D01*
X5285Y3318D01*
X5281Y3294D01*
X5279Y3270D01*
X5281Y3245D01*
X5285Y3222D01*
X5293Y3199D01*
X5304Y3177D01*
X5317Y3157D01*
X5333Y3139D01*
X5352Y3123D01*
X5372Y3109D01*
X5394Y3098D01*
X5417Y3091D01*
X5440Y3086D01*
X5465Y3084D01*
X5489Y3086D01*
X5513Y3091D01*
X5536Y3098D01*
X5557Y3109D01*
X5577Y3123D01*
X5596Y3139D01*
X5612Y3157D01*
X5625Y3177D01*
X5636Y3199D01*
X5644Y3222D01*
X5648Y3245D01*
X5650Y3270D01*
X5648Y3294D01*
X5644Y3318D01*
X5636Y3341D01*
X5625Y3362D01*
X5621Y3368D01*
X5625Y3374D01*
X5636Y3396D01*
X5644Y3419D01*
X5648Y3442D01*
X5650Y3467D01*
X5648Y3491D01*
X5644Y3515D01*
X5636Y3537D01*
X5625Y3559D01*
X5612Y3579D01*
X5596Y3598D01*
X5577Y3614D01*
X5557Y3627D01*
X5536Y3638D01*
X5513Y3646D01*
X5489Y3650D01*
X5465Y3652D01*
D02*
G37*
G36*
X3889Y2836D02*
X3832D01*
Y2817D01*
X3864D01*
X3871Y2818D01*
X3877Y2820D01*
X3882Y2824D01*
X3887Y2830D01*
X3889Y2836D01*
D02*
G37*
G36*
X3782D02*
X3725D01*
X3728Y2830D01*
X3732Y2824D01*
X3737Y2820D01*
X3743Y2818D01*
X3750Y2817D01*
X3782D01*
Y2836D01*
D02*
G37*
G36*
X4249Y2496D02*
Y2438D01*
X4307D01*
X4305Y2447D01*
X4297Y2462D01*
X4286Y2475D01*
X4273Y2486D01*
X4258Y2494D01*
X4249Y2496D01*
D02*
G37*
G36*
X4200Y2496D02*
X4191Y2494D01*
X4176Y2486D01*
X4163Y2475D01*
X4152Y2462D01*
X4144Y2447D01*
X4141Y2438D01*
X4200D01*
Y2496D01*
D02*
G37*
G36*
Y2389D02*
X4141D01*
X4144Y2380D01*
X4152Y2365D01*
X4163Y2352D01*
X4176Y2341D01*
X4191Y2333D01*
X4200Y2330D01*
Y2389D01*
D02*
G37*
G36*
X4307D02*
X4249D01*
Y2330D01*
X4258Y2333D01*
X4273Y2341D01*
X4286Y2352D01*
X4297Y2365D01*
X4305Y2380D01*
X4307Y2389D01*
D02*
G37*
G36*
X4249Y2300D02*
Y2241D01*
X4307D01*
X4305Y2250D01*
X4297Y2265D01*
X4286Y2278D01*
X4273Y2289D01*
X4258Y2297D01*
X4249Y2300D01*
D02*
G37*
G36*
X4200Y2300D02*
X4191Y2297D01*
X4176Y2289D01*
X4163Y2278D01*
X4152Y2265D01*
X4144Y2250D01*
X4141Y2241D01*
X4200D01*
Y2300D01*
D02*
G37*
G36*
Y2192D02*
X4141D01*
X4144Y2183D01*
X4152Y2168D01*
X4163Y2155D01*
X4176Y2144D01*
X4191Y2136D01*
X4200Y2133D01*
Y2192D01*
D02*
G37*
G36*
X4307D02*
X4249D01*
Y2133D01*
X4258Y2136D01*
X4273Y2144D01*
X4286Y2155D01*
X4297Y2168D01*
X4305Y2183D01*
X4307Y2192D01*
D02*
G37*
%LPD*%
G36*
X5805Y3949D02*
X5812D01*
X5815Y3944D01*
X5814Y3943D01*
X5812Y3937D01*
X5894D01*
X5976D01*
X5973Y3943D01*
X5973Y3944D01*
X5973Y3946D01*
X5975Y3949D01*
X5976Y3949D01*
X5979Y3948D01*
X5985Y3946D01*
X5989Y3943D01*
X5991Y3941D01*
X5993Y3938D01*
X5995Y3933D01*
X5996Y3927D01*
X5997Y3921D01*
X5997Y3918D01*
X5997Y3899D01*
X5997Y3899D01*
X5997Y3895D01*
X5995Y3887D01*
X5992Y3879D01*
X5988Y3873D01*
X5985Y3870D01*
X5975Y3860D01*
X5965Y3854D01*
X5954Y3849D01*
X5943Y3847D01*
X5937Y3847D01*
X5892D01*
X5857Y3847D01*
X5814D01*
X5809Y3848D01*
X5804Y3850D01*
X5800Y3853D01*
X5796Y3857D01*
X5793Y3860D01*
X5792Y3865D01*
X5791Y3869D01*
X5791Y3933D01*
X5791Y3933D01*
X5791Y3938D01*
X5791Y3938D01*
X5793Y3941D01*
X5795Y3944D01*
X5796Y3945D01*
X5797Y3946D01*
X5799Y3947D01*
X5801Y3948D01*
X5804Y3949D01*
X5805Y3949D01*
D02*
G37*
%LPC*%
G36*
X5976Y3888D02*
X5918D01*
Y3869D01*
X5951D01*
X5958Y3870D01*
X5964Y3872D01*
X5969Y3876D01*
X5973Y3882D01*
X5976Y3888D01*
D02*
G37*
G36*
X5869D02*
X5812D01*
X5814Y3882D01*
X5818Y3876D01*
X5824Y3872D01*
X5830Y3870D01*
X5837Y3869D01*
X5869D01*
Y3888D01*
D02*
G37*
%LPD*%
G36*
X3884Y3115D02*
X3886D01*
X3892Y3114D01*
X3897Y3112D01*
X3901Y3109D01*
X3903Y3107D01*
Y3107D01*
X3905Y3105D01*
X3907Y3101D01*
X3909Y3097D01*
X3910Y3092D01*
X3910Y3029D01*
X3910D01*
X3910Y3027D01*
X3909Y3024D01*
X3908Y3021D01*
X3906Y3018D01*
X3905Y3017D01*
X3904Y3016D01*
X3902Y3014D01*
X3899Y3013D01*
X3897Y3013D01*
X3895Y3013D01*
X3888D01*
X3886Y3018D01*
X3887Y3019D01*
X3889Y3025D01*
X3807D01*
X3725D01*
X3728Y3019D01*
X3728Y3018D01*
X3728Y3015D01*
X3726Y3013D01*
X3721Y3014D01*
X3716Y3016D01*
X3712Y3019D01*
X3710Y3021D01*
X3710D01*
X3708Y3024D01*
X3706Y3029D01*
X3705Y3035D01*
X3704Y3040D01*
X3704Y3043D01*
X3704Y3058D01*
X3704Y3063D01*
D01*
X3704Y3068D01*
X3706Y3075D01*
X3709Y3082D01*
X3713Y3089D01*
X3716Y3092D01*
X3726Y3101D01*
X3736Y3108D01*
X3746Y3112D01*
X3758Y3115D01*
X3764Y3115D01*
X3809Y3115D01*
X3844Y3115D01*
X3884D01*
Y3115D01*
D02*
G37*
%LPC*%
G36*
X3864Y3093D02*
X3832D01*
Y3074D01*
X3889D01*
X3887Y3080D01*
X3882Y3085D01*
X3877Y3089D01*
X3871Y3092D01*
X3864Y3093D01*
D02*
G37*
G36*
X3782D02*
X3750D01*
X3743Y3092D01*
X3737Y3089D01*
X3732Y3085D01*
X3728Y3080D01*
X3725Y3074D01*
X3782D01*
Y3093D01*
D02*
G37*
G36*
X8129Y5238D02*
Y5209D01*
X8158D01*
X8158Y5209D01*
X8154Y5219D01*
X8147Y5228D01*
X8139Y5234D01*
X8129Y5238D01*
X8129Y5238D01*
D02*
G37*
G36*
X8109Y5238D02*
X8108Y5238D01*
X8099Y5234D01*
X8090Y5228D01*
X8084Y5219D01*
X8080Y5209D01*
X8080Y5209D01*
X8109D01*
Y5238D01*
D02*
G37*
G36*
Y5189D02*
X8080D01*
X8080Y5189D01*
X8084Y5179D01*
X8090Y5170D01*
X8099Y5164D01*
X8108Y5160D01*
X8109Y5160D01*
Y5189D01*
D02*
G37*
G36*
X8158D02*
X8129D01*
Y5160D01*
X8129Y5160D01*
X8139Y5164D01*
X8147Y5170D01*
X8154Y5179D01*
X8158Y5189D01*
X8158Y5189D01*
D02*
G37*
G36*
X8119Y5137D02*
X8109Y5136D01*
X8100Y5132D01*
X8092Y5126D01*
X8086Y5118D01*
X8082Y5109D01*
X8081Y5099D01*
X8082Y5089D01*
X8086Y5080D01*
X8092Y5072D01*
X8100Y5066D01*
X8109Y5062D01*
X8119Y5061D01*
X8129Y5062D01*
X8138Y5066D01*
X8146Y5072D01*
X8152Y5080D01*
X8156Y5089D01*
X8157Y5099D01*
X8156Y5109D01*
X8152Y5118D01*
X8146Y5126D01*
X8138Y5132D01*
X8129Y5136D01*
X8119Y5137D01*
D02*
G37*
G36*
Y5037D02*
X8109Y5036D01*
X8100Y5032D01*
X8092Y5026D01*
X8086Y5018D01*
X8082Y5009D01*
X8081Y4999D01*
X8082Y4989D01*
X8086Y4980D01*
X8092Y4972D01*
X8100Y4966D01*
X8109Y4962D01*
X8119Y4961D01*
X8129Y4962D01*
X8138Y4966D01*
X8146Y4972D01*
X8152Y4980D01*
X8156Y4989D01*
X8157Y4999D01*
X8156Y5009D01*
X8152Y5018D01*
X8146Y5026D01*
X8138Y5032D01*
X8129Y5036D01*
X8119Y5037D01*
D02*
G37*
G36*
X7008Y5050D02*
X6949D01*
X6934Y5048D01*
X6921Y5042D01*
X6909Y5033D01*
X6899Y5021D01*
X6894Y5007D01*
X6892Y4992D01*
X6894Y4977D01*
X6899Y4963D01*
X6909Y4951D01*
X6921Y4942D01*
X6934Y4936D01*
X6949Y4934D01*
X7008D01*
X7023Y4936D01*
X7037Y4942D01*
X7049Y4951D01*
X7058Y4963D01*
X7064Y4977D01*
X7066Y4992D01*
X7064Y5007D01*
X7058Y5021D01*
X7049Y5033D01*
X7037Y5042D01*
X7023Y5048D01*
X7008Y5050D01*
D02*
G37*
G36*
X7145Y4988D02*
X7137Y4987D01*
X7130Y4984D01*
X7124Y4979D01*
X7119Y4973D01*
X7116Y4966D01*
X7115Y4958D01*
X7116Y4950D01*
X7119Y4943D01*
X7124Y4937D01*
X7130Y4932D01*
X7137Y4929D01*
X7145Y4928D01*
X7152Y4929D01*
X7160Y4932D01*
X7166Y4937D01*
X7171Y4943D01*
X7174Y4950D01*
X7175Y4958D01*
X7174Y4966D01*
X7171Y4973D01*
X7166Y4979D01*
X7160Y4984D01*
X7152Y4987D01*
X7145Y4988D01*
D02*
G37*
G36*
X8129Y4738D02*
Y4709D01*
X8158D01*
X8158Y4709D01*
X8154Y4719D01*
X8147Y4728D01*
X8139Y4734D01*
X8129Y4738D01*
X8129Y4738D01*
D02*
G37*
G36*
X8109D02*
X8108Y4738D01*
X8099Y4734D01*
X8090Y4728D01*
X8084Y4719D01*
X8080Y4709D01*
X8080Y4709D01*
X8109D01*
Y4738D01*
D02*
G37*
G36*
X8158Y4689D02*
X8129D01*
Y4660D01*
X8129Y4660D01*
X8139Y4664D01*
X8147Y4670D01*
X8154Y4679D01*
X8158Y4689D01*
X8158Y4689D01*
D02*
G37*
G36*
X8109D02*
X8080D01*
X8080Y4689D01*
X8084Y4679D01*
X8090Y4670D01*
X8099Y4664D01*
X8108Y4660D01*
X8109Y4660D01*
Y4689D01*
D02*
G37*
G36*
X7712Y4914D02*
X7690Y4912D01*
X7669Y4907D01*
X7650Y4899D01*
X7631Y4888D01*
X7615Y4874D01*
X7601Y4858D01*
X7590Y4839D01*
X7582Y4820D01*
X7577Y4799D01*
X7575Y4778D01*
X7577Y4756D01*
X7582Y4735D01*
X7590Y4716D01*
X7601Y4697D01*
X7615Y4681D01*
X7631Y4667D01*
X7650Y4656D01*
X7669Y4648D01*
X7690Y4643D01*
X7712Y4641D01*
X7733Y4643D01*
X7754Y4648D01*
X7774Y4656D01*
X7792Y4667D01*
X7808Y4681D01*
X7822Y4697D01*
X7833Y4716D01*
X7841Y4735D01*
X7846Y4756D01*
X7848Y4778D01*
X7846Y4799D01*
X7841Y4820D01*
X7833Y4839D01*
X7822Y4858D01*
X7808Y4874D01*
X7792Y4888D01*
X7774Y4899D01*
X7754Y4907D01*
X7733Y4912D01*
X7712Y4914D01*
D02*
G37*
G36*
X8119Y4637D02*
X8109Y4636D01*
X8100Y4632D01*
X8092Y4626D01*
X8086Y4618D01*
X8082Y4609D01*
X8081Y4599D01*
X8082Y4589D01*
X8086Y4580D01*
X8092Y4572D01*
X8100Y4566D01*
X8109Y4562D01*
X8119Y4561D01*
X8129Y4562D01*
X8138Y4566D01*
X8146Y4572D01*
X8152Y4580D01*
X8156Y4589D01*
X8157Y4599D01*
X8156Y4609D01*
X8152Y4618D01*
X8146Y4626D01*
X8138Y4632D01*
X8129Y4636D01*
X8119Y4637D01*
D02*
G37*
G36*
Y4537D02*
X8109Y4536D01*
X8100Y4532D01*
X8092Y4526D01*
X8086Y4518D01*
X8082Y4509D01*
X8081Y4499D01*
X8082Y4489D01*
X8086Y4480D01*
X8092Y4472D01*
X8100Y4466D01*
X8109Y4462D01*
X8119Y4461D01*
X8129Y4462D01*
X8138Y4466D01*
X8146Y4472D01*
X8152Y4480D01*
X8156Y4489D01*
X8157Y4499D01*
X8156Y4509D01*
X8152Y4518D01*
X8146Y4526D01*
X8138Y4532D01*
X8129Y4536D01*
X8119Y4537D01*
D02*
G37*
G36*
X8129Y4438D02*
Y4409D01*
X8158D01*
X8158Y4409D01*
X8154Y4419D01*
X8147Y4428D01*
X8139Y4434D01*
X8129Y4438D01*
X8129Y4438D01*
D02*
G37*
G36*
X8109D02*
X8108Y4438D01*
X8099Y4434D01*
X8090Y4428D01*
X8084Y4419D01*
X8080Y4409D01*
X8080Y4409D01*
X8109D01*
Y4438D01*
D02*
G37*
G36*
X7587Y4407D02*
X7564D01*
Y4386D01*
X7587D01*
Y4407D01*
D02*
G37*
G36*
X7554D02*
X7531D01*
Y4386D01*
X7554D01*
Y4407D01*
D02*
G37*
G36*
X8158Y4389D02*
X8129D01*
Y4360D01*
X8129Y4360D01*
X8139Y4364D01*
X8147Y4370D01*
X8154Y4379D01*
X8158Y4389D01*
X8158Y4389D01*
D02*
G37*
G36*
X8109D02*
X8080D01*
X8080Y4389D01*
X8084Y4379D01*
X8090Y4370D01*
X8099Y4364D01*
X8108Y4360D01*
X8109Y4360D01*
Y4389D01*
D02*
G37*
G36*
X7587Y4376D02*
X7564D01*
Y4355D01*
X7587D01*
Y4376D01*
D02*
G37*
G36*
X7554D02*
X7531D01*
Y4355D01*
X7554D01*
Y4376D01*
D02*
G37*
G36*
X7137Y4201D02*
X7129Y4200D01*
X7122Y4197D01*
X7116Y4192D01*
X7111Y4186D01*
X7108Y4178D01*
X7107Y4171D01*
X7108Y4163D01*
X7111Y4156D01*
X7116Y4149D01*
X7122Y4145D01*
X7129Y4142D01*
X7137Y4141D01*
X7145Y4142D01*
X7152Y4145D01*
X7158Y4149D01*
X7163Y4156D01*
X7166Y4163D01*
X7167Y4171D01*
X7166Y4178D01*
X7163Y4186D01*
X7158Y4192D01*
X7152Y4197D01*
X7145Y4200D01*
X7137Y4201D01*
D02*
G37*
G36*
X7008Y4255D02*
X6949D01*
X6934Y4253D01*
X6921Y4247D01*
X6909Y4238D01*
X6899Y4226D01*
X6894Y4212D01*
X6892Y4197D01*
X6894Y4182D01*
X6899Y4168D01*
X6909Y4156D01*
X6921Y4147D01*
X6934Y4141D01*
X6949Y4139D01*
X7008D01*
X7023Y4141D01*
X7037Y4147D01*
X7049Y4156D01*
X7058Y4168D01*
X7064Y4182D01*
X7066Y4197D01*
X7064Y4212D01*
X7058Y4226D01*
X7049Y4238D01*
X7037Y4247D01*
X7023Y4253D01*
X7008Y4255D01*
D02*
G37*
G36*
X2457Y2927D02*
X2449Y2926D01*
X2442Y2923D01*
X2436Y2918D01*
X2431Y2912D01*
X2428Y2904D01*
X2427Y2897D01*
X2428Y2889D01*
X2431Y2882D01*
X2436Y2875D01*
X2442Y2871D01*
X2449Y2868D01*
X2457Y2867D01*
X2464Y2868D01*
X2472Y2871D01*
X2478Y2875D01*
X2483Y2882D01*
X2486Y2889D01*
X2487Y2897D01*
X2486Y2904D01*
X2483Y2912D01*
X2478Y2918D01*
X2472Y2923D01*
X2464Y2926D01*
X2457Y2927D01*
D02*
G37*
G36*
X2644Y2928D02*
X2585D01*
X2570Y2926D01*
X2556Y2920D01*
X2544Y2911D01*
X2535Y2899D01*
X2529Y2885D01*
X2527Y2870D01*
X2529Y2855D01*
X2535Y2841D01*
X2544Y2829D01*
X2556Y2820D01*
X2570Y2815D01*
X2585Y2813D01*
X2644D01*
X2659Y2815D01*
X2673Y2820D01*
X2685Y2829D01*
X2694Y2841D01*
X2700Y2855D01*
X2702Y2870D01*
X2700Y2885D01*
X2694Y2899D01*
X2685Y2911D01*
X2673Y2920D01*
X2659Y2926D01*
X2644Y2928D01*
D02*
G37*
G36*
X2064Y2712D02*
X2041D01*
Y2691D01*
X2064D01*
Y2712D01*
D02*
G37*
G36*
X2031D02*
X2008D01*
Y2691D01*
X2031D01*
Y2712D01*
D02*
G37*
G36*
X1504Y2707D02*
Y2678D01*
X1533D01*
X1533Y2679D01*
X1529Y2688D01*
X1523Y2697D01*
X1514Y2703D01*
X1505Y2707D01*
X1504Y2707D01*
D02*
G37*
G36*
X1484Y2707D02*
X1484Y2707D01*
X1474Y2703D01*
X1466Y2697D01*
X1459Y2688D01*
X1455Y2679D01*
X1455Y2678D01*
X1484D01*
Y2707D01*
D02*
G37*
G36*
X2064Y2681D02*
X2041D01*
Y2661D01*
X2064D01*
Y2681D01*
D02*
G37*
G36*
X2031D02*
X2008D01*
Y2661D01*
X2031D01*
Y2681D01*
D02*
G37*
G36*
X1533Y2658D02*
X1504D01*
Y2629D01*
X1505Y2629D01*
X1514Y2633D01*
X1523Y2640D01*
X1529Y2648D01*
X1533Y2658D01*
X1533Y2658D01*
D02*
G37*
G36*
X1484D02*
X1455D01*
X1455Y2658D01*
X1459Y2648D01*
X1466Y2640D01*
X1474Y2633D01*
X1484Y2629D01*
X1484Y2629D01*
Y2658D01*
D02*
G37*
G36*
X1494Y2607D02*
X1484Y2605D01*
X1475Y2601D01*
X1467Y2595D01*
X1461Y2587D01*
X1457Y2578D01*
X1456Y2568D01*
X1457Y2558D01*
X1461Y2549D01*
X1467Y2541D01*
X1475Y2535D01*
X1484Y2531D01*
X1494Y2530D01*
X1504Y2531D01*
X1513Y2535D01*
X1521Y2541D01*
X1527Y2549D01*
X1531Y2558D01*
X1533Y2568D01*
X1531Y2578D01*
X1527Y2587D01*
X1521Y2595D01*
X1513Y2601D01*
X1504Y2605D01*
X1494Y2607D01*
D02*
G37*
G36*
Y2507D02*
X1484Y2505D01*
X1475Y2501D01*
X1467Y2495D01*
X1461Y2487D01*
X1457Y2478D01*
X1456Y2468D01*
X1457Y2458D01*
X1461Y2449D01*
X1467Y2441D01*
X1475Y2435D01*
X1484Y2431D01*
X1494Y2430D01*
X1504Y2431D01*
X1513Y2435D01*
X1521Y2441D01*
X1527Y2449D01*
X1531Y2458D01*
X1533Y2468D01*
X1531Y2478D01*
X1527Y2487D01*
X1521Y2495D01*
X1513Y2501D01*
X1504Y2505D01*
X1494Y2507D01*
D02*
G37*
G36*
X1504Y2407D02*
Y2378D01*
X1533D01*
X1533Y2379D01*
X1529Y2388D01*
X1523Y2397D01*
X1514Y2403D01*
X1505Y2407D01*
X1504Y2407D01*
D02*
G37*
G36*
X1484Y2407D02*
X1484Y2407D01*
X1474Y2403D01*
X1466Y2397D01*
X1459Y2388D01*
X1455Y2379D01*
X1455Y2378D01*
X1484D01*
Y2407D01*
D02*
G37*
G36*
X1533Y2358D02*
X1504D01*
Y2329D01*
X1505Y2329D01*
X1514Y2333D01*
X1523Y2340D01*
X1529Y2348D01*
X1533Y2358D01*
X1533Y2358D01*
D02*
G37*
G36*
X1484D02*
X1455D01*
X1455Y2358D01*
X1459Y2348D01*
X1466Y2340D01*
X1474Y2333D01*
X1484Y2329D01*
X1484Y2329D01*
Y2358D01*
D02*
G37*
G36*
X1882Y2426D02*
X1861Y2424D01*
X1840Y2419D01*
X1820Y2411D01*
X1802Y2400D01*
X1785Y2386D01*
X1772Y2370D01*
X1760Y2352D01*
X1752Y2332D01*
X1747Y2311D01*
X1746Y2290D01*
X1747Y2268D01*
X1752Y2248D01*
X1760Y2228D01*
X1772Y2210D01*
X1785Y2193D01*
X1802Y2179D01*
X1820Y2168D01*
X1840Y2160D01*
X1861Y2155D01*
X1882Y2153D01*
X1903Y2155D01*
X1924Y2160D01*
X1944Y2168D01*
X1962Y2179D01*
X1978Y2193D01*
X1992Y2210D01*
X2003Y2228D01*
X2012Y2248D01*
X2017Y2268D01*
X2018Y2290D01*
X2017Y2311D01*
X2012Y2332D01*
X2003Y2352D01*
X1992Y2370D01*
X1978Y2386D01*
X1962Y2400D01*
X1944Y2411D01*
X1924Y2419D01*
X1903Y2424D01*
X1882Y2426D01*
D02*
G37*
G36*
X2449Y2139D02*
X2441Y2138D01*
X2434Y2135D01*
X2428Y2130D01*
X2423Y2124D01*
X2420Y2117D01*
X2419Y2109D01*
X2420Y2101D01*
X2423Y2094D01*
X2428Y2088D01*
X2434Y2083D01*
X2441Y2080D01*
X2449Y2079D01*
X2457Y2080D01*
X2464Y2083D01*
X2470Y2088D01*
X2475Y2094D01*
X2478Y2101D01*
X2479Y2109D01*
X2478Y2117D01*
X2475Y2124D01*
X2470Y2130D01*
X2464Y2135D01*
X2457Y2138D01*
X2449Y2139D01*
D02*
G37*
G36*
X1494Y2107D02*
X1484Y2105D01*
X1475Y2101D01*
X1467Y2095D01*
X1461Y2087D01*
X1457Y2078D01*
X1456Y2068D01*
X1457Y2058D01*
X1461Y2049D01*
X1467Y2041D01*
X1475Y2035D01*
X1484Y2031D01*
X1494Y2030D01*
X1504Y2031D01*
X1513Y2035D01*
X1521Y2041D01*
X1527Y2049D01*
X1531Y2058D01*
X1533Y2068D01*
X1531Y2078D01*
X1527Y2087D01*
X1521Y2095D01*
X1513Y2101D01*
X1504Y2105D01*
X1494Y2107D01*
D02*
G37*
G36*
X2644Y2133D02*
X2585D01*
X2570Y2131D01*
X2556Y2125D01*
X2544Y2116D01*
X2535Y2104D01*
X2529Y2090D01*
X2527Y2075D01*
X2529Y2060D01*
X2535Y2046D01*
X2544Y2034D01*
X2556Y2025D01*
X2570Y2019D01*
X2585Y2017D01*
X2644D01*
X2659Y2019D01*
X2673Y2025D01*
X2685Y2034D01*
X2694Y2046D01*
X2700Y2060D01*
X2702Y2075D01*
X2700Y2090D01*
X2694Y2104D01*
X2685Y2116D01*
X2673Y2125D01*
X2659Y2131D01*
X2644Y2133D01*
D02*
G37*
G36*
X1494Y2007D02*
X1484Y2005D01*
X1475Y2001D01*
X1467Y1995D01*
X1461Y1987D01*
X1457Y1978D01*
X1456Y1968D01*
X1457Y1958D01*
X1461Y1949D01*
X1467Y1941D01*
X1475Y1935D01*
X1484Y1931D01*
X1494Y1930D01*
X1504Y1931D01*
X1513Y1935D01*
X1521Y1941D01*
X1527Y1949D01*
X1531Y1958D01*
X1533Y1968D01*
X1531Y1978D01*
X1527Y1987D01*
X1521Y1995D01*
X1513Y2001D01*
X1504Y2005D01*
X1494Y2007D01*
D02*
G37*
G36*
X1504Y1907D02*
Y1878D01*
X1533D01*
X1533Y1879D01*
X1529Y1888D01*
X1523Y1897D01*
X1514Y1903D01*
X1505Y1907D01*
X1504Y1907D01*
D02*
G37*
G36*
X1484D02*
X1484Y1907D01*
X1474Y1903D01*
X1466Y1897D01*
X1459Y1888D01*
X1455Y1879D01*
X1455Y1878D01*
X1484D01*
Y1907D01*
D02*
G37*
G36*
X1533Y1858D02*
X1504D01*
Y1829D01*
X1505Y1829D01*
X1514Y1833D01*
X1523Y1840D01*
X1529Y1848D01*
X1533Y1858D01*
X1533Y1858D01*
D02*
G37*
G36*
X1484D02*
X1455D01*
X1455Y1858D01*
X1459Y1848D01*
X1466Y1840D01*
X1474Y1833D01*
X1484Y1829D01*
X1484Y1829D01*
Y1858D01*
D02*
G37*
G36*
X5124Y1255D02*
X5089D01*
Y1110D01*
X5124D01*
Y1255D01*
D02*
G37*
G36*
X5040D02*
X5006D01*
Y1110D01*
X5040D01*
Y1255D01*
D02*
G37*
G36*
X5425Y1016D02*
X5414D01*
Y1015D01*
X5425D01*
Y1016D01*
D02*
G37*
G36*
X5340D02*
X5329D01*
Y1015D01*
X5340D01*
Y1016D01*
D02*
G37*
G36*
X5250D02*
X5239D01*
Y1015D01*
X5250D01*
Y1016D01*
D02*
G37*
G36*
X5190D02*
X5179D01*
Y1015D01*
X5190D01*
Y1016D01*
D02*
G37*
G36*
X5515Y1016D02*
X5504D01*
Y1015D01*
X5515D01*
Y1016D01*
D02*
G37*
G36*
X4325Y1066D02*
X4301D01*
X4301Y1063D01*
X4304Y1058D01*
X4308Y1055D01*
X4313Y1054D01*
X4325D01*
Y1066D01*
D02*
G37*
G36*
X4281Y1018D02*
X4248D01*
Y995D01*
X4281D01*
Y1018D01*
D02*
G37*
G36*
Y985D02*
X4248D01*
Y962D01*
X4281D01*
Y985D01*
D02*
G37*
G36*
X5920Y1276D02*
X5814D01*
Y1151D01*
X5920D01*
Y1276D01*
D02*
G37*
G36*
X5765D02*
X5660D01*
Y1151D01*
X5765D01*
Y1276D01*
D02*
G37*
G36*
X5920Y1102D02*
X5814D01*
Y977D01*
X5920D01*
Y1102D01*
D02*
G37*
G36*
X5765D02*
X5660D01*
Y977D01*
X5765D01*
Y1102D01*
D02*
G37*
G36*
X4569Y952D02*
X4558D01*
Y950D01*
X4569D01*
Y952D01*
D02*
G37*
%LPD*%
D16*
X4141Y1112D02*
X4292D01*
X4295Y1110D01*
X4135Y1118D02*
X4141Y1112D01*
X4060Y1118D02*
X4135D01*
X4054Y1112D02*
X4060Y1118D01*
X4425Y1130D02*
X4464Y1090D01*
X4295Y1110D02*
X4330D01*
X4319Y1221D02*
X4364Y1176D01*
X4330Y1130D02*
Y1131D01*
X4354D01*
X4364Y1140D02*
Y1176D01*
X4354Y1131D02*
X4364Y1140D01*
X4411Y1116D02*
X4425Y1130D01*
X4482Y1033D02*
Y1062D01*
X4455Y1006D02*
X4482Y1033D01*
X4455Y956D02*
Y1006D01*
X4413Y921D02*
X4479D01*
X4455Y956D02*
X4479Y932D01*
Y923D02*
Y932D01*
X4519Y1110D02*
X4554D01*
X4562Y1102D01*
X4519Y1130D02*
X4573D01*
X4519Y1110D02*
X4520Y1109D01*
X4519Y1176D02*
X4546Y1202D01*
X4519Y1149D02*
Y1176D01*
X5162Y991D02*
X5214D01*
X5149Y977D02*
X5162Y991D01*
X5149Y922D02*
Y977D01*
X5075Y849D02*
X5149Y922D01*
X4490Y849D02*
X5075D01*
X4663Y1202D02*
X4710Y1155D01*
Y1113D02*
Y1155D01*
X4616Y1202D02*
X4663D01*
X4464Y1041D02*
Y1090D01*
X4420Y996D02*
X4464Y1041D01*
Y1090D02*
X4519D01*
X4411Y996D02*
X4420D01*
X4490Y1071D02*
X4519D01*
X4482Y1062D02*
X4490Y1071D01*
X4411Y923D02*
X4413Y921D01*
D18*
X4286Y920D02*
X4322D01*
X4341Y939D01*
Y1013D01*
X4371Y1043D01*
Y1083D01*
X4363Y1090D02*
X4371Y1083D01*
X4330Y1090D02*
X4363D01*
D50*
X4593Y976D02*
D03*
Y1049D02*
D03*
X5881Y646D02*
D03*
Y719D02*
D03*
X4411Y996D02*
D03*
Y923D02*
D03*
X4479Y923D02*
D03*
Y850D02*
D03*
X4054Y1112D02*
D03*
Y1039D02*
D03*
D51*
X5975Y922D02*
D03*
Y852D02*
D03*
X6062Y922D02*
D03*
Y852D02*
D03*
X4237Y1081D02*
D03*
Y1151D02*
D03*
X4156Y1080D02*
D03*
Y1150D02*
D03*
X4286Y990D02*
D03*
Y920D02*
D03*
X5786Y898D02*
D03*
Y828D02*
D03*
X5479Y991D02*
D03*
Y921D02*
D03*
X5304Y991D02*
D03*
Y921D02*
D03*
X5389Y991D02*
D03*
Y921D02*
D03*
X5214Y991D02*
D03*
Y921D02*
D03*
X3924Y1119D02*
D03*
Y1049D02*
D03*
D52*
X7095Y6524D02*
D03*
Y6369D02*
D03*
X7091Y7414D02*
D03*
Y7258D02*
D03*
D53*
X2276Y4401D02*
D03*
X2197Y4363D02*
D03*
Y4438D02*
D03*
X2036Y2686D02*
D03*
X1957Y2649D02*
D03*
Y2724D02*
D03*
X7406Y2629D02*
D03*
Y2704D02*
D03*
X7327Y2666D02*
D03*
X7638Y4343D02*
D03*
Y4418D02*
D03*
X7559Y4381D02*
D03*
D54*
X7505Y2491D02*
D03*
X7435D02*
D03*
X7505Y2571D02*
D03*
X7435D02*
D03*
X2168Y4576D02*
D03*
X2098D02*
D03*
X2168Y4496D02*
D03*
X2098D02*
D03*
X2032Y2802D02*
D03*
X1962D02*
D03*
X2032Y2882D02*
D03*
X1962D02*
D03*
X7573Y4197D02*
D03*
X7643D02*
D03*
X7573Y4276D02*
D03*
X7643D02*
D03*
X4546Y1202D02*
D03*
X4616D02*
D03*
D55*
X5715Y647D02*
D03*
X5786D02*
D03*
D56*
X5894Y4101D02*
D03*
Y3912D02*
D03*
X3807Y2860D02*
D03*
Y3049D02*
D03*
X6894Y1924D02*
D03*
Y1735D02*
D03*
X2689Y5133D02*
D03*
Y5322D02*
D03*
D57*
X2451Y2424D02*
D03*
X2784Y3306D02*
D03*
X2457Y3294D02*
D03*
X7137Y3773D02*
D03*
X7143Y4641D02*
D03*
D58*
X2890Y2534D02*
D03*
X6704Y4533D02*
D03*
X6760Y3759D02*
D03*
D59*
X4710Y1113D02*
D03*
Y940D02*
D03*
D60*
X4844Y1086D02*
D03*
X5065D02*
D03*
D61*
X5068Y5542D02*
D03*
Y5792D02*
D03*
X5056Y7141D02*
D03*
Y7391D02*
D03*
D62*
X4319Y1221D02*
D03*
X4246D02*
D03*
D63*
X4330Y1149D02*
D03*
Y1130D02*
D03*
Y1110D02*
D03*
Y1090D02*
D03*
Y1071D02*
D03*
X4519D02*
D03*
Y1090D02*
D03*
Y1110D02*
D03*
Y1130D02*
D03*
Y1149D02*
D03*
D64*
X4425Y1130D02*
D03*
D65*
X5790Y1126D02*
D03*
D66*
X5880Y844D02*
D03*
X5700D02*
D03*
D67*
X2172Y4867D02*
X2351D01*
X1494Y5368D02*
X1671D01*
X2172Y4867D01*
X7091Y6120D02*
X7095Y6124D01*
Y6369D01*
X5880Y844D02*
X5888Y852D01*
X5969Y574D02*
Y755D01*
X5921Y527D02*
X5969Y574D01*
X5880Y719D02*
Y844D01*
X5969Y755D01*
X5880Y719D02*
X5881Y719D01*
X4054Y688D02*
X4107Y635D01*
X5023D02*
X5131Y527D01*
X4054Y688D02*
Y1039D01*
X4107Y635D02*
X5023D01*
X5131Y527D02*
X5921D01*
X5554Y1064D02*
X5605Y1013D01*
X5483Y1064D02*
X5554D01*
X5550Y991D02*
X5553D01*
X5479D02*
X5550D01*
X5715Y828D02*
X5786D01*
X5700Y844D02*
X5715Y828D01*
X5605Y938D02*
Y1013D01*
X5550Y706D02*
Y991D01*
X5605Y938D02*
X5700Y844D01*
X5456Y611D02*
X5550Y706D01*
X2870Y1943D02*
Y2238D01*
X2922Y2290D01*
X2782Y1856D02*
X2870Y1943D01*
X6709Y5109D02*
X6811Y5212D01*
X6709Y4814D02*
Y5109D01*
X6672Y4778D02*
X6709Y4814D01*
X5642Y646D02*
X5714D01*
X5715Y647D01*
X2922Y2290D02*
X2975D01*
X7643Y4276D02*
Y4339D01*
X7638Y4343D02*
X7683D01*
X7638D02*
X7643Y4339D01*
Y4197D02*
Y4276D01*
X7367Y2571D02*
X7435D01*
X7864Y1699D02*
X8119D01*
X7431Y2132D02*
X7864Y1699D01*
X7311Y2132D02*
X7431D01*
X7949Y2369D02*
Y2444D01*
X7689Y2629D02*
X7874Y2444D01*
X7505Y2629D02*
X7689D01*
X7505Y2571D02*
Y2629D01*
X7406D02*
X7505D01*
Y2491D02*
Y2571D01*
X7406Y2704D02*
X7689D01*
X7949Y2444D01*
X7874Y2344D02*
Y2444D01*
Y2344D02*
X8119Y2099D01*
X7949Y2369D02*
X8119Y2199D01*
X1960Y2804D02*
X1962Y2806D01*
Y2882D01*
Y2728D02*
Y2802D01*
X1957Y2724D02*
X1962Y2728D01*
X1931Y2724D02*
X1957D01*
X1859Y2651D02*
X1931Y2724D01*
X1859Y2649D02*
Y2651D01*
X1553Y4868D02*
X1594Y4827D01*
X1514Y4868D02*
X1553D01*
X1594Y4623D02*
Y4827D01*
X2098Y4496D02*
Y4576D01*
Y4479D02*
Y4496D01*
X2139Y4438D02*
X2197D01*
X2098Y4479D02*
X2139Y4438D01*
X1885D02*
X2139D01*
X1514Y4968D02*
X1528D01*
X1669Y4827D01*
Y4654D02*
Y4827D01*
Y4654D02*
X1885Y4438D01*
X1594Y4623D02*
X1854Y4363D01*
X2197D01*
X7062Y2381D02*
X7311Y2132D01*
X2906Y4702D02*
X2921Y4687D01*
X2906Y4702D02*
Y4747D01*
X6672Y2379D02*
X6909D01*
X6910Y2381D01*
X7062D01*
X2226Y4496D02*
X2233Y4503D01*
X2168Y4496D02*
X2226D01*
X2233Y4503D02*
Y4510D01*
X2168Y4576D02*
X2233Y4510D01*
X7360Y2564D02*
X7362D01*
X7435Y2491D01*
X7360Y2564D02*
X7367Y2571D01*
X2036Y2686D02*
Y2798D01*
X2032Y2802D02*
X2036Y2798D01*
X2032Y2802D02*
Y2882D01*
X2351Y4867D02*
X2531Y4687D01*
X2921D01*
X7559Y4290D02*
Y4381D01*
Y4290D02*
X7573Y4276D01*
Y4197D02*
Y4276D01*
X5786Y647D02*
X5787Y646D01*
X5881D01*
X5786Y898D02*
Y958D01*
X4596Y1052D02*
X4599D01*
X4710Y940D01*
X4816Y1113D02*
X4844Y1086D01*
X4710Y1113D02*
X4816D01*
D68*
X7091Y7751D02*
X7091Y7752D01*
X7091Y7414D02*
Y7751D01*
X6947Y3154D02*
Y3332D01*
X6983Y3297D01*
X6947Y3332D02*
Y3389D01*
Y3154D02*
X7123Y2978D01*
X6947Y2750D02*
X7118Y2920D01*
X6965Y2594D02*
X7028Y2656D01*
X6947Y2594D02*
X6965D01*
X6947D02*
Y2750D01*
X7840Y2978D02*
X8119Y2699D01*
X7123Y2978D02*
X7840D01*
X7798Y2920D02*
X8119Y2599D01*
X7118Y2920D02*
X7798D01*
X2646Y3735D02*
Y3913D01*
X2610Y3771D02*
X2646Y3735D01*
Y3678D02*
Y3735D01*
X2470Y4089D02*
X2646Y3913D01*
X1793Y4089D02*
X2470D01*
X2636Y4473D02*
X2646D01*
X2571Y4408D02*
X2636Y4473D01*
X2646Y4318D02*
Y4473D01*
X2475Y4147D02*
X2646Y4318D01*
X1835Y4147D02*
X2475D01*
X1514Y4368D02*
X1793Y4089D01*
X1514Y4468D02*
X1835Y4147D01*
D69*
X7091Y7077D02*
X7091Y7076D01*
X7091Y7077D02*
Y7258D01*
X4238Y1152D02*
X4246Y1160D01*
X4237Y1151D02*
X4238Y1152D01*
X4246Y1160D02*
Y1221D01*
X4237Y1150D02*
X4237Y1151D01*
X4156Y1150D02*
X4237D01*
X4133Y1173D02*
X4156Y1150D01*
X3979Y1173D02*
X4133D01*
X3924Y1119D02*
X3979Y1173D01*
X3757Y1119D02*
X3924D01*
X3700Y1062D02*
X3757Y1119D01*
X3700Y942D02*
Y1062D01*
Y670D02*
Y942D01*
X3641Y611D02*
X3700Y670D01*
D70*
X7091Y6706D02*
Y6801D01*
D71*
X8666Y3299D02*
X8829Y3135D01*
Y1120D02*
Y3135D01*
X5479Y1141D02*
Y1287D01*
X6142Y852D02*
X6626D01*
X8894Y3205D02*
X8894Y1102D01*
X8646Y854D02*
X8894Y1102D01*
X8600Y3499D02*
X8894Y3205D01*
X8119Y3299D02*
X8666D01*
X8625Y854D02*
X8646D01*
X8622Y852D02*
X8625Y854D01*
X6953Y852D02*
X8622D01*
X6626D02*
X6953D01*
X6082Y1521D02*
X6630Y973D01*
X6953Y852D02*
X6954Y851D01*
Y437D02*
Y851D01*
X6062Y852D02*
X6142D01*
X6175Y819D01*
X5975Y852D02*
X6062D01*
X5888D02*
X5975D01*
X3864Y1521D02*
X6082D01*
X569Y3646D02*
X1417D01*
X1494Y3568D01*
X357Y3434D02*
X569Y3646D01*
X357Y2870D02*
Y3434D01*
Y2870D02*
X357Y883D01*
X2917Y575D02*
X3864Y1521D01*
X357Y883D02*
X949Y291D01*
X2630D02*
X2807Y468D01*
X949Y291D02*
X2630D01*
X8119Y3499D02*
X8600D01*
X5581Y1388D02*
X6129D01*
X5479Y1287D02*
X5581Y1388D01*
X5479Y1141D02*
X5509Y1170D01*
X6605Y912D02*
X8622D01*
X6129Y1388D02*
X6605Y912D01*
X5479Y991D02*
Y1141D01*
X8622Y912D02*
X8829Y1120D01*
X5304Y991D02*
Y1346D01*
X3889Y1449D02*
X5202D01*
X5304Y1346D01*
X2964Y524D02*
X3889Y1449D01*
X2960Y524D02*
X2964D01*
X299Y859D02*
X925Y233D01*
X299Y2870D02*
X299Y859D01*
X2673Y233D02*
X2858Y418D01*
X925Y233D02*
X2673D01*
X1430Y3704D02*
X1494Y3768D01*
X299Y2870D02*
Y3458D01*
X545Y3704D01*
X1430D01*
X2642Y5369D02*
X2689Y5322D01*
X2362Y5369D02*
X2471D01*
X2689Y5038D02*
Y5071D01*
Y5133D01*
X2362Y5369D02*
X2642D01*
X6894Y1983D02*
Y2015D01*
Y1924D02*
Y1983D01*
X7134Y1696D02*
X7242D01*
X6933D02*
X7134D01*
X6894Y1735D02*
X6933Y1696D01*
D72*
X9276Y1126D02*
Y3363D01*
X9224Y1074D02*
X9276Y1126D01*
X8741Y3899D02*
X9276Y3363D01*
X8622Y472D02*
X9224Y1074D01*
X9196Y1126D02*
Y3330D01*
X8622Y553D02*
X9196Y1126D01*
X8727Y3799D02*
X9196Y3330D01*
X7389Y472D02*
X8622D01*
X7336Y454D02*
X7351Y439D01*
X7354Y437D02*
X7389Y472D01*
X7354Y437D02*
Y449D01*
X8119Y3899D02*
X8741D01*
X7368Y553D02*
X8622D01*
X7301Y486D02*
X7368Y553D01*
X7301Y338D02*
Y486D01*
X6854Y375D02*
X6921Y307D01*
X7270D02*
X7301Y338D01*
X6921Y307D02*
X7270D01*
X6854Y375D02*
Y437D01*
X6636Y157D02*
X6854Y375D01*
X2692Y157D02*
X6636D01*
X1524Y3807D02*
X1547Y3783D01*
X1514Y3816D02*
X1523Y3807D01*
X1547Y3299D02*
Y3783D01*
X1523Y3807D02*
X1524D01*
X1474Y3816D02*
X1514D01*
X1436Y3778D02*
X1474Y3816D01*
X514Y3778D02*
X1436D01*
X202Y3465D02*
X514Y3778D01*
X1516Y3268D02*
X1547Y3299D01*
X2684Y149D02*
X2692Y157D01*
X881Y149D02*
X2684D01*
X1494Y3268D02*
X1516D01*
X202Y2870D02*
Y3465D01*
X202Y828D02*
X881Y149D01*
X202Y2870D02*
X202Y828D01*
X8119Y3799D02*
X8727D01*
X7344Y632D02*
X8622D01*
X7254Y542D02*
X7344Y632D01*
X7254Y437D02*
Y542D01*
X8715Y3699D02*
X9116Y3297D01*
X8119Y3699D02*
X8715D01*
X9116Y1126D02*
Y3297D01*
X7337Y732D02*
X8622D01*
X7154Y549D02*
X7337Y732D01*
X7154Y437D02*
Y549D01*
X8673Y3599D02*
X9016Y3256D01*
X8119Y3599D02*
X8673D01*
X9016Y1126D02*
Y3256D01*
X8622Y632D02*
X9116Y1126D01*
X8622Y732D02*
X9016Y1126D01*
X517Y2835D02*
Y3322D01*
X663Y3468D01*
X617Y3222D02*
X763Y3368D01*
X617Y951D02*
Y3222D01*
X517Y2835D02*
X517Y909D01*
X663Y3468D02*
X1494D01*
X763Y3368D02*
X1494D01*
X2642Y528D02*
X2816D01*
X2555Y441D02*
X2642Y528D01*
X2555Y438D02*
Y441D01*
X6365Y248D02*
X6554Y437D01*
X3096Y248D02*
X6365D01*
X2816Y528D02*
X3096Y248D01*
X517Y909D02*
X988Y438D01*
X2555D01*
X2590Y575D02*
X2809D01*
X2555Y539D02*
X2590Y575D01*
X6324Y307D02*
X6454Y437D01*
X3077Y307D02*
X6324D01*
X2809Y575D02*
X3077Y307D01*
X617Y951D02*
X1028Y539D01*
X2555D01*
X6290Y374D02*
X6354Y437D01*
X3050Y374D02*
X6290D01*
X2813Y610D02*
X3050Y374D01*
X717Y2870D02*
X717Y992D01*
X1098Y610D02*
X2813D01*
X717Y992D02*
X1098Y610D01*
X767Y3168D02*
X1494D01*
X717Y2870D02*
Y3118D01*
X767Y3168D01*
X7638Y4418D02*
X7655D01*
X7728Y4346D01*
Y4343D02*
Y4346D01*
X1906Y2649D02*
X1957D01*
X4694Y1130D02*
X4710Y1113D01*
X4573Y1130D02*
X4694D01*
X4557Y1107D02*
X4562Y1102D01*
X4562D01*
X4593Y1070D01*
Y1049D02*
Y1070D01*
D73*
X4238Y1152D02*
X4330D01*
X4237D02*
Y1212D01*
X4246Y1221D01*
D74*
X4847Y7391D02*
X5056D01*
X4724Y7513D02*
X4847Y7391D01*
X4127Y7513D02*
X4724D01*
X5412D02*
X6032D01*
X5290Y7391D02*
X5412Y7513D01*
X5056Y7391D02*
X5290D01*
D75*
X2615Y2504D02*
D03*
X6979Y4563D02*
D03*
X2615Y3299D02*
D03*
X6979Y3768D02*
D03*
X2615Y4107D02*
D03*
X6979Y2960D02*
D03*
X2615Y4902D02*
D03*
X6979Y2165D02*
D03*
D76*
X2953Y2290D02*
D03*
X2615Y2075D02*
D03*
X6979Y4992D02*
D03*
X6640Y4778D02*
D03*
X2953Y3085D02*
D03*
X2615Y2870D02*
D03*
X6979Y4197D02*
D03*
X6640Y3982D02*
D03*
X2953Y3893D02*
D03*
X2615Y3678D02*
D03*
X6979Y3389D02*
D03*
X6640Y3175D02*
D03*
X2953Y4688D02*
D03*
X2615Y4473D02*
D03*
X6979Y2594D02*
D03*
X6640Y2379D02*
D03*
D77*
X6354Y437D02*
D03*
X6454D02*
D03*
X7254D02*
D03*
X7154D02*
D03*
X3600Y942D02*
D03*
X3700D02*
D03*
X1201Y4138D02*
D03*
X6854Y437D02*
D03*
X6754D02*
D03*
X8378Y2917D02*
D03*
D78*
X6554Y437D02*
D03*
X7354D02*
D03*
X3800Y942D02*
D03*
X6954Y437D02*
D03*
D79*
X8119Y5499D02*
D03*
Y1699D02*
D03*
Y3799D02*
D03*
Y3899D02*
D03*
Y4599D02*
D03*
Y4499D02*
D03*
Y2699D02*
D03*
Y2599D02*
D03*
Y3599D02*
D03*
Y3699D02*
D03*
Y3399D02*
D03*
Y3499D02*
D03*
Y3299D02*
D03*
Y4699D02*
D03*
Y4399D02*
D03*
Y2799D02*
D03*
Y2499D02*
D03*
Y4999D02*
D03*
Y2099D02*
D03*
Y5099D02*
D03*
Y2199D02*
D03*
Y5199D02*
D03*
Y1999D02*
D03*
X1494Y1568D02*
D03*
Y5368D02*
D03*
Y3268D02*
D03*
Y3168D02*
D03*
Y2468D02*
D03*
Y2568D02*
D03*
Y4368D02*
D03*
Y4468D02*
D03*
Y3468D02*
D03*
Y3368D02*
D03*
Y3668D02*
D03*
Y3568D02*
D03*
Y3768D02*
D03*
Y2368D02*
D03*
Y2668D02*
D03*
Y4268D02*
D03*
Y4568D02*
D03*
Y2068D02*
D03*
Y4968D02*
D03*
Y1968D02*
D03*
Y4868D02*
D03*
Y1868D02*
D03*
Y5068D02*
D03*
X9256Y8110D02*
D03*
X6905Y1505D02*
D03*
X195Y196D02*
D03*
X197Y8111D02*
D03*
X9260Y196D02*
D03*
X1996Y5535D02*
D03*
X1660Y720D02*
D03*
X7954Y1030D02*
D03*
X1660Y6038D02*
D03*
X7954Y6348D02*
D03*
D80*
X5456Y611D02*
D03*
X5259D02*
D03*
X3641D02*
D03*
X3838D02*
D03*
D81*
X6032Y2365D02*
D03*
Y2562D02*
D03*
Y2759D02*
D03*
X6307Y2365D02*
D03*
Y2562D02*
D03*
Y2759D02*
D03*
X3280Y4345D02*
D03*
Y4542D02*
D03*
Y4739D02*
D03*
X3555Y4345D02*
D03*
Y4542D02*
D03*
Y4739D02*
D03*
X7288Y5844D02*
D03*
X7091D02*
D03*
X6894D02*
D03*
X7288Y6120D02*
D03*
X7091D02*
D03*
X6894D02*
D03*
Y7076D02*
D03*
X7091D02*
D03*
X7288D02*
D03*
X6894Y6801D02*
D03*
X7091D02*
D03*
X7288D02*
D03*
Y7752D02*
D03*
X7091D02*
D03*
X6894D02*
D03*
X7288Y8027D02*
D03*
X7091D02*
D03*
X6894D02*
D03*
D82*
X5392Y1166D02*
D03*
X5509Y1170D02*
D03*
X6175Y819D02*
D03*
X6176Y966D02*
D03*
X2449Y2109D02*
D03*
X2610Y3771D02*
D03*
X3059Y2287D02*
D03*
X2709Y4107D02*
D03*
X2457Y2897D02*
D03*
X2571Y4408D02*
D03*
X3067Y3086D02*
D03*
X2906Y4747D02*
D03*
X2591Y4830D02*
D03*
X2673Y4042D02*
D03*
X2713Y4904D02*
D03*
X2870Y3948D02*
D03*
X6723Y3119D02*
D03*
X6881Y2163D02*
D03*
X6920Y3025D02*
D03*
X7003Y2238D02*
D03*
X6688Y2320D02*
D03*
X6527Y3982D02*
D03*
X7028Y2656D02*
D03*
X7137Y4171D02*
D03*
X6885Y2960D02*
D03*
X6530Y4777D02*
D03*
X6983Y3297D02*
D03*
X7145Y4958D02*
D03*
D83*
X7242Y1696D02*
D03*
X2362Y5369D02*
D03*
D84*
X4224Y2217D02*
D03*
Y3693D02*
D03*
Y3496D02*
D03*
Y2413D02*
D03*
X6032Y7513D02*
D03*
X4127D02*
D03*
Y5812D02*
D03*
X6032D02*
D03*
X5465Y4746D02*
D03*
Y3270D02*
D03*
Y3467D02*
D03*
Y4549D02*
D03*
D85*
X6032Y7119D02*
D03*
X4127D02*
D03*
Y5418D02*
D03*
X6032D02*
D03*
D86*
X6630Y973D02*
D03*
X6626Y852D02*
D03*
D87*
X2917Y575D02*
D03*
X2807Y469D02*
D03*
X2960Y524D02*
D03*
X2862Y421D02*
D03*
D88*
X5642Y646D02*
D03*
X7728Y4343D02*
D03*
X7683D02*
D03*
X1906Y2649D02*
D03*
X1859D02*
D03*
X4279Y1037D02*
D03*
X4314D02*
D03*
X4637Y943D02*
D03*
X4607Y929D02*
D03*
X3851Y3101D02*
D03*
X3759Y3098D02*
D03*
X5939Y3860D02*
D03*
X5847Y3862D02*
D03*
X2689Y5038D02*
D03*
Y5071D02*
D03*
X6017Y970D02*
D03*
X6894Y1983D02*
D03*
Y2015D02*
D03*
X2782Y1856D02*
D03*
X2357Y4326D02*
D03*
Y4367D02*
D03*
Y4409D02*
D03*
Y4450D02*
D03*
Y4491D02*
D03*
X2397D02*
D03*
Y4450D02*
D03*
Y4409D02*
D03*
Y4367D02*
D03*
Y4326D02*
D03*
X2318Y4491D02*
D03*
Y4450D02*
D03*
Y4409D02*
D03*
Y4367D02*
D03*
Y4326D02*
D03*
X2233Y4503D02*
D03*
X2275D02*
D03*
X2109Y4318D02*
D03*
X2233D02*
D03*
X2275D02*
D03*
X2151D02*
D03*
X2192D02*
D03*
X7402Y2749D02*
D03*
X7443D02*
D03*
X7402Y2564D02*
D03*
X7319Y2749D02*
D03*
X7360D02*
D03*
X7484D02*
D03*
X7319Y2564D02*
D03*
X7360D02*
D03*
X7276Y2741D02*
D03*
Y2700D02*
D03*
Y2658D02*
D03*
Y2617D02*
D03*
Y2576D02*
D03*
X7197Y2741D02*
D03*
Y2700D02*
D03*
Y2658D02*
D03*
Y2617D02*
D03*
Y2576D02*
D03*
X7236D02*
D03*
Y2617D02*
D03*
Y2658D02*
D03*
Y2700D02*
D03*
Y2741D02*
D03*
X6811Y5212D02*
D03*
X5896Y3881D02*
D03*
X3805Y3081D02*
D03*
X6070Y970D02*
D03*
X5963D02*
D03*
X5912Y926D02*
D03*
X5877D02*
D03*
X5841D02*
D03*
X5735D02*
D03*
X5700D02*
D03*
X3908Y1005D02*
D03*
X3944D02*
D03*
X4175Y1037D02*
D03*
X4574Y929D02*
D03*
X4542Y948D02*
D03*
X4543Y979D02*
D03*
X4210Y1037D02*
D03*
X4244D02*
D03*
X5479Y873D02*
D03*
X5389Y873D02*
D03*
X5304D02*
D03*
X5214D02*
D03*
X4141Y1037D02*
D03*
D89*
X7188Y1789D02*
D03*
X7296D02*
D03*
X7350Y1696D02*
D03*
X7296Y1602D02*
D03*
X7188D02*
D03*
X7134Y1696D02*
D03*
X2416Y5275D02*
D03*
X2308D02*
D03*
X2254Y5369D02*
D03*
X2308Y5463D02*
D03*
X2416D02*
D03*
X2471Y5369D02*
D03*
X4445Y1130D02*
D03*
X4405D02*
D03*
X4425Y1086D02*
D03*
M02*
