G04 Layer_Physical_Order=2*
G04 Layer_Color=16711680*
%FSLAX44Y44*%
%MOMM*%
G71*
G01*
G75*
%ADD31C,0.5100*%
%ADD36C,2.5000*%
%ADD37C,4.0000*%
%ADD38R,4.0000X4.0000*%
%ADD39R,1.5000X1.5000*%
%ADD40C,1.5000*%
%ADD41R,1.5000X1.5000*%
%ADD42R,2.5000X2.3000*%
%ADD43R,4.0000X2.3000*%
%ADD44C,1.2700*%
G36*
X4905100Y3163700D02*
X5011900Y3163700D01*
X5026100Y3149500D01*
X5026100Y3131296D01*
X5025145Y3130459D01*
X5024600Y3130531D01*
X5022159Y3130209D01*
X5019885Y3129267D01*
X5017932Y3127768D01*
X5016433Y3125815D01*
X5015491Y3123541D01*
X5015169Y3121100D01*
X5015491Y3118659D01*
X5016433Y3116385D01*
X5017932Y3114431D01*
X5019041Y3113580D01*
Y3089300D01*
X5019472Y3087134D01*
X5020699Y3085298D01*
X5032899Y3073098D01*
X5034734Y3071872D01*
X5036900Y3071441D01*
X5053385D01*
X5090804Y3034023D01*
X5090669Y3033000D01*
X5090991Y3030559D01*
X5091933Y3028285D01*
X5093431Y3026331D01*
X5095385Y3024833D01*
X5097659Y3023891D01*
X5100100Y3023569D01*
X5102541Y3023891D01*
X5104815Y3024833D01*
X5106768Y3026331D01*
X5108267Y3028285D01*
X5108664Y3029242D01*
X5109909Y3029489D01*
X5120700Y3018699D01*
X5120700Y3010800D01*
Y3001000D01*
X5132100Y2989600D01*
X5137300Y2984400D01*
X5236400D01*
X5245900Y2974900D01*
X5250400Y2970400D01*
Y2889000D01*
Y2876600D01*
X5247100Y2873300D01*
X5246900Y2873500D01*
X5053900D01*
X5048200Y2867800D01*
X5042200Y2861800D01*
X5031600D01*
X5021100Y2872300D01*
X5014332D01*
X5014081Y2872468D01*
X5012520Y2872778D01*
X4981650D01*
X4981242Y2873981D01*
X4981569Y2874232D01*
X4983067Y2876185D01*
X4984009Y2878459D01*
X4984331Y2880900D01*
X4984009Y2883341D01*
X4983067Y2885615D01*
X4981569Y2887568D01*
X4979615Y2889067D01*
X4977341Y2890009D01*
X4974900Y2890331D01*
X4972459Y2890009D01*
X4970185Y2889067D01*
X4968232Y2887568D01*
X4967457Y2886559D01*
X4900444D01*
X4883320Y2903683D01*
X4883009Y2906041D01*
X4882067Y2908315D01*
X4880569Y2910268D01*
X4878615Y2911767D01*
X4876341Y2912709D01*
X4873900Y2913031D01*
X4871459Y2912709D01*
X4869185Y2911767D01*
X4867231Y2910268D01*
X4866457Y2909259D01*
X4828700D01*
X4826534Y2908828D01*
X4824699Y2907601D01*
X4786756Y2869659D01*
X4768443D01*
X4767668Y2870668D01*
X4765715Y2872167D01*
X4763441Y2873109D01*
X4761000Y2873430D01*
X4758559Y2873109D01*
X4756285Y2872167D01*
X4754331Y2870668D01*
X4752833Y2868715D01*
X4751891Y2866441D01*
X4751570Y2864000D01*
X4751891Y2861559D01*
X4752833Y2859285D01*
X4754331Y2857332D01*
X4756285Y2855833D01*
X4758559Y2854891D01*
X4761000Y2854569D01*
X4763441Y2854891D01*
X4765715Y2855833D01*
X4767668Y2857332D01*
X4768443Y2858341D01*
X4789100D01*
X4791266Y2858772D01*
X4793101Y2859998D01*
X4831044Y2897941D01*
X4866457D01*
X4867231Y2896931D01*
X4869185Y2895433D01*
X4871459Y2894491D01*
X4873900Y2894169D01*
X4876341Y2894491D01*
X4876458Y2894539D01*
X4894499Y2876499D01*
X4896335Y2875272D01*
X4898500Y2874841D01*
X4900511Y2875241D01*
X4967457D01*
X4968232Y2874232D01*
X4968558Y2873981D01*
X4968150Y2872778D01*
X4842520D01*
X4840959Y2872468D01*
X4840708Y2872300D01*
X4833500D01*
X4830000Y2868800D01*
X4830100Y2868700D01*
Y2827000D01*
Y2808700D01*
X4825100Y2803700D01*
X4763900D01*
Y2804100D01*
X4745000Y2823000D01*
X4739100Y2828900D01*
Y3196200D01*
X4872600D01*
X4905100Y3163700D01*
D02*
G37*
G36*
X5786300Y3335400D02*
Y3254500D01*
X5786200D01*
Y3252400D01*
Y3018400D01*
X5779300Y3011500D01*
X5730500D01*
X5723000Y3019000D01*
X5698900Y3043100D01*
X5673600Y3043100D01*
X5653200Y3063500D01*
X5653200Y3071200D01*
X5623500Y3100900D01*
X5605300D01*
X5604700Y3100300D01*
X5588700Y3116300D01*
Y3121700D01*
Y3172100D01*
X5589700Y3173100D01*
X5573100Y3189700D01*
X5451100D01*
X5449500Y3188100D01*
X5416600Y3221000D01*
X5294700D01*
X5293900Y3220200D01*
X5251400D01*
Y3015900D01*
X5244500Y3009000D01*
X5195700D01*
X5188200Y3016500D01*
X5164100Y3040600D01*
X5138800Y3040600D01*
X5118400Y3061000D01*
X5118400Y3068700D01*
X5088700Y3098400D01*
X5070500D01*
X5069900Y3097800D01*
X5053900Y3113800D01*
Y3119200D01*
Y3169600D01*
X5054900Y3170600D01*
X5038300Y3187200D01*
X4916300D01*
X4914700Y3185600D01*
X4881800Y3218500D01*
X4738300D01*
Y3218750D01*
X4726150D01*
X4713700Y3206300D01*
X4713700Y3203100D01*
Y3126800D01*
X4713700Y3123800D01*
X4662300Y3072400D01*
X4586100D01*
X4578300Y3088000D01*
Y3316600D01*
X4581500Y3319800D01*
X4597100Y3335400D01*
X5777700D01*
X5782800Y3335400D01*
X5786300Y3335400D01*
D02*
G37*
G36*
X5440600Y3167902D02*
X5547401Y3167902D01*
X5561600Y3153702D01*
X5561600Y3135498D01*
X5560645Y3134661D01*
X5560100Y3134733D01*
X5557659Y3134411D01*
X5555385Y3133469D01*
X5553431Y3131971D01*
X5551933Y3130017D01*
X5550991Y3127743D01*
X5550670Y3125302D01*
X5550991Y3122861D01*
X5551933Y3120587D01*
X5553431Y3118633D01*
X5554541Y3117782D01*
Y3093502D01*
X5554972Y3091336D01*
X5556199Y3089501D01*
X5568398Y3077301D01*
X5570234Y3076074D01*
X5572400Y3075643D01*
X5588885D01*
X5626304Y3038224D01*
X5626169Y3037202D01*
X5626490Y3034761D01*
X5627433Y3032487D01*
X5628931Y3030533D01*
X5630884Y3029035D01*
X5633159Y3028093D01*
X5635600Y3027771D01*
X5638041Y3028093D01*
X5640316Y3029035D01*
X5642269Y3030533D01*
X5643767Y3032487D01*
X5644164Y3033444D01*
X5645410Y3033691D01*
X5656200Y3022901D01*
X5656200Y3015002D01*
Y3005202D01*
X5667600Y2993802D01*
X5672800Y2988602D01*
X5771900D01*
X5781400Y2979102D01*
X5785900Y2974602D01*
Y2893202D01*
Y2880802D01*
X5782600Y2877502D01*
X5782400Y2877702D01*
X5589400D01*
X5583700Y2872002D01*
X5577700Y2866002D01*
X5567100D01*
X5556600Y2876502D01*
X5516638D01*
X5516207Y2877772D01*
X5517068Y2878434D01*
X5518568Y2880387D01*
X5519509Y2882661D01*
X5519831Y2885102D01*
X5519509Y2887543D01*
X5518568Y2889817D01*
X5517068Y2891771D01*
X5515115Y2893269D01*
X5512841Y2894211D01*
X5510400Y2894532D01*
X5507959Y2894211D01*
X5505685Y2893269D01*
X5503732Y2891771D01*
X5502957Y2890761D01*
X5435944D01*
X5418820Y2907885D01*
X5418510Y2910243D01*
X5417567Y2912517D01*
X5416069Y2914471D01*
X5414116Y2915969D01*
X5411841Y2916911D01*
X5409400Y2917233D01*
X5406959Y2916911D01*
X5404684Y2915969D01*
X5402731Y2914471D01*
X5401957Y2913461D01*
X5364200D01*
X5362034Y2913030D01*
X5360199Y2911803D01*
X5322256Y2873861D01*
X5303943D01*
X5303168Y2874871D01*
X5301215Y2876369D01*
X5298941Y2877311D01*
X5296500Y2877633D01*
X5294059Y2877311D01*
X5291785Y2876369D01*
X5289832Y2874871D01*
X5288333Y2872917D01*
X5287391Y2870643D01*
X5287069Y2868202D01*
X5287391Y2865761D01*
X5288333Y2863487D01*
X5289832Y2861534D01*
X5291785Y2860035D01*
X5294059Y2859093D01*
X5296500Y2858771D01*
X5298941Y2859093D01*
X5301215Y2860035D01*
X5303168Y2861534D01*
X5303943Y2862543D01*
X5324600D01*
X5326766Y2862974D01*
X5328601Y2864201D01*
X5366544Y2902143D01*
X5401957D01*
X5402731Y2901133D01*
X5404684Y2899635D01*
X5406959Y2898693D01*
X5409400Y2898371D01*
X5411841Y2898693D01*
X5411958Y2898741D01*
X5429999Y2880701D01*
X5431835Y2879474D01*
X5434000Y2879043D01*
X5436011Y2879443D01*
X5502957D01*
X5503732Y2878434D01*
X5504594Y2877772D01*
X5504163Y2876502D01*
X5369000D01*
X5365500Y2873002D01*
X5365600Y2872902D01*
Y2831202D01*
Y2812902D01*
X5360600Y2807902D01*
X5299400D01*
Y2808302D01*
X5280500Y2827202D01*
X5274600Y2833102D01*
Y3200402D01*
X5408100D01*
X5440600Y3167902D01*
D02*
G37*
G36*
X5760100Y2374900D02*
X5909300Y2295900D01*
Y2199800D01*
X5909300Y2199800D01*
X5780300D01*
X5707868Y2294762D01*
X5708431Y2295900D01*
X5709400Y2295900D01*
Y2425600D01*
X5476550Y2425600D01*
X5364600Y2195500D01*
X4591400Y2195500D01*
Y2295002D01*
X4592298Y2295900D01*
X4735600Y2295828D01*
X4757900Y2331000D01*
Y2400400D01*
X4815200D01*
X4865400Y2267200D01*
X5292900D01*
X5381000Y2432600D01*
X5498400Y2517900D01*
Y2600600D01*
X5543250D01*
Y2526500D01*
X5565100Y2492300D01*
X5702200D01*
X5719200Y2526500D01*
Y2606900D01*
X5760100D01*
Y2374900D01*
D02*
G37*
G36*
X5175500Y2533000D02*
X5196900Y2442575D01*
X5259300Y2397200D01*
Y2324200D01*
X5127700D01*
X5061300Y2465600D01*
X4727100D01*
X4727100Y2405400D01*
X4599800Y2405400D01*
Y2512900D01*
X4871900Y2512900D01*
X4901400Y2567700D01*
Y2585000D01*
X4950175D01*
Y2567700D01*
X4978900Y2512900D01*
X5101875Y2512900D01*
X5120800Y2567700D01*
Y2586525D01*
X5175500D01*
X5175500Y2533000D01*
D02*
G37*
%LPC*%
G36*
X4776500Y3105131D02*
X4774059Y3104809D01*
X4771785Y3103867D01*
X4769832Y3102368D01*
X4768333Y3100415D01*
X4767391Y3098141D01*
X4767069Y3095700D01*
X4767391Y3093259D01*
X4768333Y3090984D01*
X4769832Y3089031D01*
X4770841Y3088257D01*
Y3062100D01*
X4771272Y3059934D01*
X4772499Y3058098D01*
X4805699Y3024899D01*
X4807534Y3023672D01*
X4809700Y3023241D01*
X4854357D01*
X4855132Y3022231D01*
X4857085Y3020733D01*
X4859359Y3019791D01*
X4861800Y3019469D01*
X4864241Y3019791D01*
X4866516Y3020733D01*
X4868469Y3022231D01*
X4869967Y3024185D01*
X4870909Y3026459D01*
X4871231Y3028900D01*
X4870909Y3031341D01*
X4869967Y3033615D01*
X4868469Y3035569D01*
X4866516Y3037067D01*
X4864241Y3038009D01*
X4861800Y3038331D01*
X4859359Y3038009D01*
X4857085Y3037067D01*
X4855132Y3035569D01*
X4854357Y3034559D01*
X4812044D01*
X4782159Y3064444D01*
Y3088257D01*
X4783169Y3089031D01*
X4784667Y3090984D01*
X4785609Y3093259D01*
X4785931Y3095700D01*
X4785609Y3098141D01*
X4784667Y3100415D01*
X4783169Y3102368D01*
X4781216Y3103867D01*
X4778941Y3104809D01*
X4776500Y3105131D01*
D02*
G37*
G36*
X4980890Y2992625D02*
X4978449Y2992304D01*
X4976175Y2991362D01*
X4974221Y2989863D01*
X4972723Y2987910D01*
X4971781Y2985635D01*
X4971459Y2983195D01*
X4971781Y2980754D01*
X4972723Y2978479D01*
X4974221Y2976526D01*
X4975231Y2975751D01*
Y2944810D01*
X4975586Y2943029D01*
X4974843Y2941759D01*
X4885543D01*
X4884768Y2942768D01*
X4882816Y2944267D01*
X4880541Y2945209D01*
X4878100Y2945531D01*
X4875659Y2945209D01*
X4873385Y2944267D01*
X4871432Y2942768D01*
X4870887Y2942059D01*
X4787800D01*
X4785634Y2941628D01*
X4783799Y2940401D01*
X4777399Y2934001D01*
X4776172Y2932166D01*
X4775741Y2930000D01*
Y2926543D01*
X4774731Y2925768D01*
X4773233Y2923815D01*
X4772291Y2921541D01*
X4771969Y2919100D01*
X4772291Y2916659D01*
X4773233Y2914384D01*
X4774731Y2912432D01*
X4776685Y2910933D01*
X4778959Y2909991D01*
X4781400Y2909669D01*
X4783841Y2909991D01*
X4786115Y2910933D01*
X4788069Y2912432D01*
X4789567Y2914384D01*
X4790509Y2916659D01*
X4790831Y2919100D01*
X4790509Y2921541D01*
X4789567Y2923815D01*
X4788069Y2925768D01*
X4787192Y2926441D01*
X4787139Y2927737D01*
X4790144Y2930741D01*
X4870427D01*
X4871432Y2929431D01*
X4873385Y2927933D01*
X4875659Y2926991D01*
X4878100Y2926669D01*
X4880541Y2926991D01*
X4882816Y2927933D01*
X4884768Y2929431D01*
X4885543Y2930441D01*
X4983941D01*
Y2927400D01*
X4983975Y2927231D01*
X4983926Y2926985D01*
X4984357Y2924819D01*
X4985583Y2922983D01*
X4997331Y2911235D01*
Y2897238D01*
X4996322Y2896463D01*
X4994823Y2894510D01*
X4993881Y2892235D01*
X4993559Y2889795D01*
X4993881Y2887354D01*
X4994823Y2885079D01*
X4996322Y2883126D01*
X4998275Y2881628D01*
X5000549Y2880685D01*
X5002990Y2880364D01*
X5005431Y2880685D01*
X5007705Y2881628D01*
X5009659Y2883126D01*
X5011157Y2885079D01*
X5011422Y2885720D01*
X5011496Y2885793D01*
X5012723Y2887629D01*
X5013153Y2889795D01*
X5012723Y2891960D01*
X5011496Y2893796D01*
X5011436Y2893836D01*
X5011157Y2894510D01*
X5009659Y2896463D01*
X5008649Y2897238D01*
Y2913579D01*
X5008218Y2915745D01*
X5006991Y2917581D01*
X4995259Y2929313D01*
Y2936100D01*
X4994828Y2938265D01*
X4993601Y2940101D01*
X4986549Y2947154D01*
Y2975751D01*
X4987559Y2976526D01*
X4989057Y2978479D01*
X4989999Y2980754D01*
X4990321Y2983195D01*
X4989999Y2985635D01*
X4989057Y2987910D01*
X4987559Y2989863D01*
X4985605Y2991362D01*
X4983331Y2992304D01*
X4980890Y2992625D01*
D02*
G37*
G36*
X4864500Y3007331D02*
X4862059Y3007009D01*
X4859785Y3006067D01*
X4857831Y3004568D01*
X4856333Y3002615D01*
X4855391Y3000341D01*
X4855069Y2997900D01*
X4855391Y2995459D01*
X4856333Y2993185D01*
X4857831Y2991231D01*
X4859785Y2989733D01*
X4862059Y2988791D01*
X4864500Y2988469D01*
X4866941Y2988791D01*
X4869215Y2989733D01*
X4871169Y2991231D01*
X4871176Y2991241D01*
X4924057D01*
X4924832Y2990232D01*
X4926785Y2988733D01*
X4929059Y2987791D01*
X4931500Y2987469D01*
X4933941Y2987791D01*
X4936216Y2988733D01*
X4938169Y2990232D01*
X4939667Y2992184D01*
X4940609Y2994459D01*
X4940931Y2996900D01*
X4940609Y2999341D01*
X4939667Y3001615D01*
X4938169Y3003568D01*
X4936216Y3005067D01*
X4933941Y3006009D01*
X4931500Y3006331D01*
X4929059Y3006009D01*
X4926785Y3005067D01*
X4924832Y3003568D01*
X4924057Y3002559D01*
X4872691D01*
X4872667Y3002615D01*
X4871169Y3004568D01*
X4869215Y3006067D01*
X4866941Y3007009D01*
X4864500Y3007331D01*
D02*
G37*
G36*
X4758100Y3156131D02*
X4755659Y3155809D01*
X4753385Y3154867D01*
X4751432Y3153369D01*
X4749933Y3151415D01*
X4748991Y3149141D01*
X4748669Y3146700D01*
X4748991Y3144259D01*
X4749933Y3141985D01*
X4751432Y3140031D01*
X4753385Y3138533D01*
X4755659Y3137591D01*
X4758100Y3137269D01*
X4759362Y3137435D01*
X4795145Y3101653D01*
X4794733Y3101115D01*
X4793791Y3098841D01*
X4793470Y3096400D01*
X4793791Y3093959D01*
X4794733Y3091685D01*
X4796231Y3089731D01*
X4798185Y3088233D01*
X4800459Y3087291D01*
X4802900Y3086969D01*
X4805341Y3087291D01*
X4807615Y3088233D01*
X4809568Y3089731D01*
X4811067Y3091685D01*
X4811295Y3092234D01*
X4812598Y3092062D01*
X4812691Y3091359D01*
X4813633Y3089084D01*
X4815132Y3087131D01*
X4817085Y3085633D01*
X4819359Y3084691D01*
X4821800Y3084369D01*
X4824241Y3084691D01*
X4826516Y3085633D01*
X4828469Y3087131D01*
X4829243Y3088141D01*
X4870356D01*
X4897194Y3061304D01*
X4896969Y3059600D01*
X4897291Y3057159D01*
X4898233Y3054885D01*
X4899732Y3052932D01*
X4901685Y3051433D01*
X4903959Y3050491D01*
X4906400Y3050169D01*
X4908841Y3050491D01*
X4911115Y3051433D01*
X4913069Y3052932D01*
X4914567Y3054885D01*
X4915295Y3056641D01*
X4938456D01*
X4972499Y3022599D01*
X4974335Y3021372D01*
X4976500Y3020941D01*
X5010456D01*
X5013735Y3017662D01*
X5013569Y3016400D01*
X5013891Y3013959D01*
X5014833Y3011685D01*
X5016331Y3009731D01*
X5018285Y3008233D01*
X5020559Y3007291D01*
X5023000Y3006969D01*
X5025441Y3007291D01*
X5027715Y3008233D01*
X5029669Y3009731D01*
X5031167Y3011685D01*
X5032109Y3013959D01*
X5032431Y3016400D01*
X5032109Y3018841D01*
X5031167Y3021115D01*
X5029669Y3023069D01*
X5027715Y3024567D01*
X5025441Y3025509D01*
X5023000Y3025831D01*
X5021738Y3025664D01*
X5016801Y3030601D01*
X5014966Y3031828D01*
X5012800Y3032259D01*
X4978844D01*
X4944801Y3066301D01*
X4942966Y3067528D01*
X4940800Y3067959D01*
X4910653D01*
X4908841Y3068709D01*
X4906400Y3069030D01*
X4905580Y3068923D01*
X4876701Y3097801D01*
X4874865Y3099028D01*
X4872700Y3099459D01*
X4829243D01*
X4828469Y3100468D01*
X4826516Y3101967D01*
X4824241Y3102909D01*
X4821800Y3103231D01*
X4819359Y3102909D01*
X4817085Y3101967D01*
X4815132Y3100468D01*
X4813633Y3098515D01*
X4813405Y3097966D01*
X4812102Y3098138D01*
X4812009Y3098841D01*
X4811067Y3101115D01*
X4809568Y3103069D01*
X4807979Y3104288D01*
X4806901Y3105901D01*
X4767365Y3145438D01*
X4767531Y3146700D01*
X4767209Y3149141D01*
X4766267Y3151415D01*
X4764768Y3153369D01*
X4762816Y3154867D01*
X4760541Y3155809D01*
X4758100Y3156131D01*
D02*
G37*
G36*
X4945400Y3110231D02*
X4942959Y3109909D01*
X4940685Y3108967D01*
X4938731Y3107468D01*
X4937233Y3105515D01*
X4936291Y3103241D01*
X4935970Y3100800D01*
X4936291Y3098359D01*
X4937233Y3096085D01*
X4938731Y3094131D01*
X4940685Y3092633D01*
X4942959Y3091691D01*
X4945400Y3091369D01*
X4947841Y3091691D01*
X4950115Y3092633D01*
X4952068Y3094131D01*
X4952843Y3095141D01*
X4977456D01*
X5000541Y3072056D01*
Y3069143D01*
X4999532Y3068369D01*
X4998033Y3066415D01*
X4997091Y3064141D01*
X4996769Y3061700D01*
X4997091Y3059259D01*
X4998033Y3056985D01*
X4999532Y3055031D01*
X5001485Y3053533D01*
X5003759Y3052591D01*
X5006200Y3052269D01*
X5008641Y3052591D01*
X5010916Y3053533D01*
X5012869Y3055031D01*
X5014367Y3056985D01*
X5015309Y3059259D01*
X5015631Y3061700D01*
X5015309Y3064141D01*
X5014367Y3066415D01*
X5012869Y3068369D01*
X5011859Y3069143D01*
Y3074400D01*
X5011428Y3076566D01*
X5010201Y3078401D01*
X4983801Y3104801D01*
X4981966Y3106028D01*
X4979800Y3106459D01*
X4952843D01*
X4952068Y3107468D01*
X4950115Y3108967D01*
X4947841Y3109909D01*
X4945400Y3110231D01*
D02*
G37*
G36*
X5246300Y3309431D02*
X5243859Y3309109D01*
X5241584Y3308167D01*
X5239631Y3306668D01*
X5238133Y3304715D01*
X5237191Y3302441D01*
X5236870Y3300000D01*
X5237191Y3297559D01*
X5238133Y3295285D01*
X5239631Y3293332D01*
X5240042Y3293017D01*
Y3260800D01*
Y3247043D01*
X5239031Y3246269D01*
D01*
X5237533Y3244315D01*
X5236591Y3242041D01*
X5236270Y3239600D01*
X5236591Y3237159D01*
X5237533Y3234885D01*
X5239031Y3232932D01*
X5240984Y3231433D01*
X5243259Y3230491D01*
X5245700Y3230169D01*
X5248141Y3230491D01*
X5250130Y3231315D01*
X5250415Y3231433D01*
X5252369Y3232932D01*
X5253867Y3234885D01*
X5254810Y3237159D01*
X5255131Y3239600D01*
X5254810Y3242041D01*
X5253867Y3244315D01*
X5252369Y3246269D01*
X5251359Y3247043D01*
Y3292096D01*
X5252969Y3293332D01*
X5254467Y3295285D01*
X5255410Y3297559D01*
X5255731Y3300000D01*
X5255410Y3302441D01*
X5254467Y3304715D01*
X5252969Y3306668D01*
X5251015Y3308167D01*
X5248741Y3309109D01*
X5246300Y3309431D01*
D02*
G37*
G36*
X4653600Y3213791D02*
X4650859Y3213430D01*
X4648305Y3212372D01*
X4646111Y3210689D01*
X4644428Y3208495D01*
X4643370Y3205941D01*
X4643009Y3203200D01*
X4643370Y3200459D01*
X4644428Y3197905D01*
X4646111Y3195711D01*
X4648305Y3194028D01*
X4650859Y3192970D01*
X4653600Y3192609D01*
X4656341Y3192970D01*
X4658895Y3194028D01*
X4661089Y3195711D01*
X4662772Y3197905D01*
X4663830Y3200459D01*
X4664191Y3203200D01*
X4663830Y3205941D01*
X4662772Y3208495D01*
X4661089Y3210689D01*
X4658895Y3212372D01*
X4656341Y3213430D01*
X4653600Y3213791D01*
D02*
G37*
G36*
X4627200Y3267990D02*
X4624459Y3267630D01*
X4621905Y3266572D01*
X4619711Y3264889D01*
X4618028Y3262695D01*
X4616970Y3260141D01*
X4616609Y3257400D01*
X4616970Y3254659D01*
X4618028Y3252105D01*
X4619711Y3249911D01*
X4621905Y3248228D01*
X4624459Y3247170D01*
X4627200Y3246809D01*
X4629941Y3247170D01*
X4632495Y3248228D01*
X4634689Y3249911D01*
X4636372Y3252105D01*
X4637430Y3254659D01*
X4637791Y3257400D01*
X4637430Y3260141D01*
X4636372Y3262695D01*
X4634689Y3264889D01*
X4632495Y3266572D01*
X4629941Y3267630D01*
X4627200Y3267990D01*
D02*
G37*
G36*
X5007300Y3291331D02*
X5004859Y3291009D01*
X5002585Y3290067D01*
X5000631Y3288568D01*
X4999133Y3286615D01*
X4998191Y3284341D01*
X4997869Y3281900D01*
X4998036Y3280638D01*
X4983399Y3266001D01*
X4982172Y3264166D01*
X4981741Y3262000D01*
Y3238900D01*
Y3229343D01*
X4980732Y3228568D01*
X4979233Y3226615D01*
X4978291Y3224341D01*
X4977969Y3221900D01*
X4978291Y3219459D01*
X4979233Y3217185D01*
X4980732Y3215232D01*
X4982685Y3213733D01*
X4984959Y3212791D01*
X4987400Y3212469D01*
X4989841Y3212791D01*
X4992115Y3213733D01*
X4994069Y3215232D01*
X4995567Y3217185D01*
X4996509Y3219459D01*
X4996831Y3221900D01*
X4996509Y3224341D01*
X4995567Y3226615D01*
X4994069Y3228568D01*
X4993059Y3229343D01*
Y3238900D01*
Y3259656D01*
X4994203Y3260800D01*
X5006038Y3272635D01*
X5007300Y3272469D01*
X5009741Y3272791D01*
X5012015Y3273733D01*
X5013969Y3275232D01*
X5015467Y3277185D01*
X5016409Y3279459D01*
X5016731Y3281900D01*
X5016409Y3284341D01*
X5015467Y3286615D01*
X5013969Y3288568D01*
X5012015Y3290067D01*
X5009741Y3291009D01*
X5007300Y3291331D01*
D02*
G37*
G36*
X4663100Y3267900D02*
X4642100D01*
Y3246900D01*
X4663100D01*
Y3267900D01*
D02*
G37*
G36*
X5637900Y3244831D02*
X5635459Y3244509D01*
X5633185Y3243567D01*
X5631232Y3242068D01*
X5629733Y3240115D01*
X5628791Y3237841D01*
X5628469Y3235400D01*
X5628791Y3232959D01*
X5629733Y3230685D01*
X5631232Y3228731D01*
X5632324Y3227893D01*
X5632672Y3226143D01*
X5633899Y3224307D01*
X5669507Y3188699D01*
X5671343Y3187472D01*
X5673508Y3187041D01*
X5691038D01*
X5691705Y3186172D01*
X5693658Y3184673D01*
X5695933Y3183730D01*
X5698374Y3183409D01*
X5700815Y3183730D01*
X5703090Y3184673D01*
X5705043Y3186172D01*
X5706541Y3188125D01*
X5707484Y3190399D01*
X5707805Y3192840D01*
X5707484Y3195281D01*
X5706541Y3197555D01*
X5705043Y3199508D01*
X5703090Y3201007D01*
X5700815Y3201949D01*
X5698374Y3202271D01*
X5695933Y3201949D01*
X5693658Y3201007D01*
X5691705Y3199508D01*
X5690823Y3198359D01*
X5675852D01*
X5644964Y3229247D01*
X5646068Y3230685D01*
X5647009Y3232959D01*
X5647331Y3235400D01*
X5647009Y3237841D01*
X5646068Y3240115D01*
X5644568Y3242068D01*
X5642615Y3243567D01*
X5640341Y3244509D01*
X5637900Y3244831D01*
D02*
G37*
G36*
X4664100Y3112100D02*
X4643100D01*
Y3091100D01*
X4664100D01*
Y3112100D01*
D02*
G37*
G36*
X4653600Y3137591D02*
X4650859Y3137230D01*
X4648305Y3136172D01*
X4646111Y3134489D01*
X4644428Y3132295D01*
X4643370Y3129741D01*
X4643009Y3127000D01*
X4643370Y3124259D01*
X4644428Y3121705D01*
X4646111Y3119511D01*
X4648305Y3117828D01*
X4650859Y3116770D01*
X4653600Y3116409D01*
X4656341Y3116770D01*
X4658895Y3117828D01*
X4661089Y3119511D01*
X4662772Y3121705D01*
X4663830Y3124259D01*
X4664191Y3127000D01*
X4663830Y3129741D01*
X4662772Y3132295D01*
X4661089Y3134489D01*
X4658895Y3136172D01*
X4656341Y3137230D01*
X4653600Y3137591D01*
D02*
G37*
G36*
X5100706Y3235231D02*
X5098265Y3234909D01*
X5095991Y3233967D01*
X5094037Y3232469D01*
X5092539Y3230515D01*
X5091597Y3228241D01*
X5091275Y3225800D01*
X5091597Y3223359D01*
X5092539Y3221085D01*
X5094037Y3219131D01*
X5095991Y3217633D01*
X5098265Y3216691D01*
X5100706Y3216369D01*
X5101968Y3216536D01*
X5133867Y3184637D01*
X5135703Y3183410D01*
X5137868Y3182979D01*
X5155431D01*
X5156205Y3181969D01*
X5158159Y3180471D01*
X5160433Y3179529D01*
X5162874Y3179207D01*
X5165315Y3179529D01*
X5167589Y3180471D01*
X5169542Y3181969D01*
X5171041Y3183923D01*
X5171983Y3186197D01*
X5172305Y3188638D01*
X5171983Y3191079D01*
X5171041Y3193353D01*
X5169542Y3195306D01*
X5167589Y3196805D01*
X5165315Y3197747D01*
X5162874Y3198069D01*
X5160433Y3197747D01*
X5158159Y3196805D01*
X5156205Y3195306D01*
X5155431Y3194297D01*
X5140212D01*
X5109971Y3224538D01*
X5110137Y3225800D01*
X5109815Y3228241D01*
X5108873Y3230515D01*
X5107375Y3232469D01*
X5105421Y3233967D01*
X5103147Y3234909D01*
X5100706Y3235231D01*
D02*
G37*
G36*
X4653600Y3188391D02*
X4650859Y3188030D01*
X4648305Y3186972D01*
X4646111Y3185289D01*
X4644428Y3183095D01*
X4643370Y3180541D01*
X4643009Y3177800D01*
X4643370Y3175059D01*
X4644428Y3172505D01*
X4646111Y3170311D01*
X4648305Y3168628D01*
X4650859Y3167570D01*
X4653600Y3167209D01*
X4656341Y3167570D01*
X4658895Y3168628D01*
X4661089Y3170311D01*
X4662772Y3172505D01*
X4663830Y3175059D01*
X4664191Y3177800D01*
X4663830Y3180541D01*
X4662772Y3183095D01*
X4661089Y3185289D01*
X4658895Y3186972D01*
X4656341Y3188030D01*
X4653600Y3188391D01*
D02*
G37*
G36*
X5312000Y3109333D02*
X5309559Y3109011D01*
X5307285Y3108069D01*
X5305331Y3106570D01*
X5303833Y3104617D01*
X5302891Y3102343D01*
X5302570Y3099902D01*
X5302891Y3097461D01*
X5303833Y3095186D01*
X5305331Y3093234D01*
X5306342Y3092459D01*
Y3066302D01*
X5306772Y3064136D01*
X5307999Y3062301D01*
X5341199Y3029101D01*
X5343035Y3027874D01*
X5345200Y3027443D01*
X5389857D01*
X5390632Y3026433D01*
X5392585Y3024935D01*
X5394859Y3023993D01*
X5397300Y3023671D01*
X5399741Y3023993D01*
X5402015Y3024935D01*
X5403969Y3026433D01*
X5405467Y3028387D01*
X5406409Y3030661D01*
X5406731Y3033102D01*
X5406409Y3035543D01*
X5405467Y3037817D01*
X5403969Y3039771D01*
X5402015Y3041269D01*
X5399741Y3042211D01*
X5397300Y3042533D01*
X5394859Y3042211D01*
X5392585Y3041269D01*
X5390632Y3039771D01*
X5389857Y3038761D01*
X5347544D01*
X5317659Y3068646D01*
Y3092459D01*
X5318668Y3093234D01*
X5320167Y3095186D01*
X5321109Y3097461D01*
X5321431Y3099902D01*
X5321109Y3102343D01*
X5320167Y3104617D01*
X5318668Y3106570D01*
X5316715Y3108069D01*
X5314441Y3109011D01*
X5312000Y3109333D01*
D02*
G37*
G36*
X5293600Y3160333D02*
X5291159Y3160011D01*
X5288885Y3159069D01*
X5286932Y3157570D01*
X5285433Y3155617D01*
X5284491Y3153343D01*
X5284169Y3150902D01*
X5284491Y3148461D01*
X5285433Y3146187D01*
X5286932Y3144233D01*
X5288885Y3142735D01*
X5291159Y3141793D01*
X5293600Y3141471D01*
X5294862Y3141638D01*
X5330645Y3105854D01*
X5330233Y3105317D01*
X5329291Y3103043D01*
X5328969Y3100602D01*
X5329291Y3098161D01*
X5330233Y3095887D01*
X5331732Y3093933D01*
X5333685Y3092435D01*
X5335959Y3091493D01*
X5338400Y3091171D01*
X5340841Y3091493D01*
X5343115Y3092435D01*
X5345068Y3093933D01*
X5346567Y3095887D01*
X5346794Y3096436D01*
X5348098Y3096264D01*
X5348191Y3095561D01*
X5349133Y3093287D01*
X5350632Y3091334D01*
X5352585Y3089835D01*
X5354859Y3088893D01*
X5357300Y3088571D01*
X5359741Y3088893D01*
X5362015Y3089835D01*
X5363969Y3091334D01*
X5364743Y3092343D01*
X5405856D01*
X5432693Y3065506D01*
X5432469Y3063802D01*
X5432791Y3061361D01*
X5433733Y3059087D01*
X5435231Y3057133D01*
X5437184Y3055635D01*
X5439459Y3054693D01*
X5441900Y3054371D01*
X5444341Y3054693D01*
X5446616Y3055635D01*
X5448569Y3057133D01*
X5450067Y3059087D01*
X5450795Y3060843D01*
X5473956D01*
X5507999Y3026801D01*
X5509835Y3025574D01*
X5512000Y3025143D01*
X5545956D01*
X5549235Y3021864D01*
X5549069Y3020602D01*
X5549391Y3018161D01*
X5550333Y3015887D01*
X5551832Y3013933D01*
X5553785Y3012435D01*
X5556059Y3011493D01*
X5558500Y3011171D01*
X5560941Y3011493D01*
X5563215Y3012435D01*
X5565168Y3013933D01*
X5566667Y3015887D01*
X5567609Y3018161D01*
X5567931Y3020602D01*
X5567609Y3023043D01*
X5566667Y3025317D01*
X5565168Y3027271D01*
X5563215Y3028769D01*
X5560941Y3029711D01*
X5558500Y3030033D01*
X5557238Y3029867D01*
X5552301Y3034803D01*
X5550466Y3036030D01*
X5548300Y3036461D01*
X5514344D01*
X5480302Y3070503D01*
X5478466Y3071730D01*
X5476300Y3072161D01*
X5446153D01*
X5444341Y3072911D01*
X5441900Y3073233D01*
X5441080Y3073125D01*
X5412202Y3102003D01*
X5410366Y3103230D01*
X5408200Y3103661D01*
X5364743D01*
X5363969Y3104670D01*
X5362015Y3106169D01*
X5359741Y3107111D01*
X5357300Y3107433D01*
X5354859Y3107111D01*
X5352585Y3106169D01*
X5350632Y3104670D01*
X5349133Y3102717D01*
X5348906Y3102168D01*
X5347602Y3102340D01*
X5347509Y3103043D01*
X5346567Y3105317D01*
X5345068Y3107271D01*
X5343480Y3108490D01*
X5342401Y3110103D01*
X5302864Y3149640D01*
X5303030Y3150902D01*
X5302709Y3153343D01*
X5301767Y3155617D01*
X5300269Y3157570D01*
X5298315Y3159069D01*
X5296041Y3160011D01*
X5293600Y3160333D01*
D02*
G37*
G36*
X5516390Y2996827D02*
X5513949Y2996506D01*
X5511675Y2995564D01*
X5509722Y2994065D01*
X5508223Y2992112D01*
X5507281Y2989837D01*
X5506959Y2987397D01*
X5507281Y2984956D01*
X5508223Y2982681D01*
X5509722Y2980728D01*
X5510731Y2979953D01*
Y2949012D01*
X5511086Y2947231D01*
X5510342Y2945961D01*
X5421043D01*
X5420269Y2946971D01*
X5418315Y2948469D01*
X5416041Y2949411D01*
X5413600Y2949733D01*
X5411159Y2949411D01*
X5408885Y2948469D01*
X5406932Y2946971D01*
X5406387Y2946261D01*
X5323300D01*
X5321135Y2945830D01*
X5319299Y2944603D01*
X5312899Y2938203D01*
X5311672Y2936367D01*
X5311241Y2934202D01*
Y2930745D01*
X5310231Y2929970D01*
X5308733Y2928017D01*
X5307791Y2925743D01*
X5307469Y2923302D01*
X5307791Y2920861D01*
X5308733Y2918587D01*
X5310231Y2916634D01*
X5312184Y2915135D01*
X5314459Y2914193D01*
X5316900Y2913871D01*
X5319341Y2914193D01*
X5321616Y2915135D01*
X5323569Y2916634D01*
X5325067Y2918587D01*
X5326010Y2920861D01*
X5326331Y2923302D01*
X5326010Y2925743D01*
X5325067Y2928017D01*
X5323569Y2929970D01*
X5322692Y2930643D01*
X5322639Y2931938D01*
X5325644Y2934943D01*
X5405927D01*
X5406932Y2933633D01*
X5408885Y2932135D01*
X5411159Y2931193D01*
X5413600Y2930871D01*
X5416041Y2931193D01*
X5418315Y2932135D01*
X5420269Y2933633D01*
X5421043Y2934643D01*
X5519442D01*
Y2931602D01*
X5519475Y2931432D01*
X5519426Y2931187D01*
X5519857Y2929021D01*
X5521083Y2927185D01*
X5532831Y2915438D01*
Y2901440D01*
X5531821Y2900665D01*
X5530323Y2898712D01*
X5529380Y2896437D01*
X5529059Y2893997D01*
X5529380Y2891556D01*
X5530323Y2889281D01*
X5531821Y2887328D01*
X5533774Y2885829D01*
X5536049Y2884887D01*
X5538490Y2884566D01*
X5540931Y2884887D01*
X5543206Y2885829D01*
X5545159Y2887328D01*
X5546657Y2889281D01*
X5546923Y2889922D01*
X5546996Y2889995D01*
X5548223Y2891831D01*
X5548654Y2893997D01*
X5548223Y2896162D01*
X5546996Y2897998D01*
X5546937Y2898038D01*
X5546657Y2898712D01*
X5545159Y2900665D01*
X5544149Y2901440D01*
Y2917781D01*
X5543718Y2919947D01*
X5542491Y2921783D01*
X5530759Y2933515D01*
Y2940302D01*
X5530328Y2942468D01*
X5529102Y2944303D01*
X5522049Y2951356D01*
Y2979953D01*
X5523058Y2980728D01*
X5524557Y2982681D01*
X5525499Y2984956D01*
X5525821Y2987397D01*
X5525499Y2989837D01*
X5524557Y2992112D01*
X5523058Y2994065D01*
X5521105Y2995564D01*
X5518831Y2996506D01*
X5516390Y2996827D01*
D02*
G37*
G36*
X5400000Y3011533D02*
X5397559Y3011211D01*
X5395284Y3010269D01*
X5393331Y3008770D01*
X5391833Y3006817D01*
X5390891Y3004543D01*
X5390569Y3002102D01*
X5390891Y2999661D01*
X5391833Y2997386D01*
X5393331Y2995433D01*
X5395284Y2993935D01*
X5397559Y2992993D01*
X5400000Y2992671D01*
X5402441Y2992993D01*
X5404716Y2993935D01*
X5406669Y2995433D01*
X5406676Y2995443D01*
X5459557D01*
X5460331Y2994434D01*
X5462285Y2992935D01*
X5464559Y2991992D01*
X5467000Y2991671D01*
X5469441Y2991992D01*
X5471715Y2992935D01*
X5473668Y2994434D01*
X5475167Y2996387D01*
X5476109Y2998661D01*
X5476431Y3001102D01*
X5476109Y3003543D01*
X5475167Y3005817D01*
X5473668Y3007770D01*
X5471715Y3009269D01*
X5469441Y3010211D01*
X5467000Y3010533D01*
X5464559Y3010211D01*
X5462285Y3009269D01*
X5460331Y3007770D01*
X5459557Y3006761D01*
X5408190D01*
X5408167Y3006817D01*
X5406669Y3008770D01*
X5404716Y3010269D01*
X5402441Y3011211D01*
X5400000Y3011533D01*
D02*
G37*
G36*
X5480900Y3114433D02*
X5478459Y3114111D01*
X5476185Y3113169D01*
X5474232Y3111671D01*
X5472733Y3109717D01*
X5471791Y3107443D01*
X5471469Y3105002D01*
X5471791Y3102561D01*
X5472733Y3100287D01*
X5474232Y3098333D01*
X5476185Y3096835D01*
X5478459Y3095893D01*
X5480900Y3095571D01*
X5483341Y3095893D01*
X5485615Y3096835D01*
X5487568Y3098333D01*
X5488344Y3099343D01*
X5512956D01*
X5536041Y3076258D01*
Y3073345D01*
X5535032Y3072570D01*
X5533533Y3070617D01*
X5532591Y3068343D01*
X5532269Y3065902D01*
X5532591Y3063461D01*
X5533533Y3061187D01*
X5535032Y3059233D01*
X5536985Y3057735D01*
X5539259Y3056793D01*
X5541700Y3056471D01*
X5544141Y3056793D01*
X5546415Y3057735D01*
X5548369Y3059233D01*
X5549867Y3061187D01*
X5550809Y3063461D01*
X5551131Y3065902D01*
X5550809Y3068343D01*
X5549867Y3070617D01*
X5548369Y3072570D01*
X5547358Y3073345D01*
Y3078602D01*
X5546928Y3080768D01*
X5545701Y3082603D01*
X5519301Y3109003D01*
X5517465Y3110230D01*
X5515300Y3110661D01*
X5488344D01*
X5487568Y3111671D01*
X5485615Y3113169D01*
X5483341Y3114111D01*
X5480900Y3114433D01*
D02*
G37*
%LPD*%
D31*
X5583500Y2613802D02*
Y2872302D01*
X5566300Y2596602D02*
X5583500Y2613802D01*
Y2872302D02*
X5593800Y2882602D01*
X5688306D01*
X5699100Y2893396D01*
Y2907902D01*
X5560200Y3093502D02*
X5572400Y3081302D01*
X5635329Y3037202D02*
X5635600D01*
X5572400Y3081302D02*
X5591229D01*
X5635329Y3037202D01*
X5408200Y3098002D02*
X5439700Y3066502D01*
X5357300Y3098002D02*
X5408200D01*
X5476300Y3066502D02*
X5512000Y3030802D01*
X5548300D01*
X5558500Y3020602D01*
X5541700Y3065902D02*
Y3078602D01*
X5515300Y3105002D02*
X5541700Y3078602D01*
X5480900Y3105002D02*
X5515300D01*
X5538490Y2893997D02*
X5542995D01*
X5525100Y2931602D02*
Y2940302D01*
X5516390Y2949012D02*
Y2987397D01*
Y2949012D02*
X5525100Y2940302D01*
X5538490Y2893997D02*
Y2917781D01*
X5525100Y2931602D02*
X5525300Y2931402D01*
X5538490Y2893997D02*
X5540742Y2891744D01*
X5525085Y2931187D02*
X5525300Y2931402D01*
X5525085Y2931187D02*
X5538490Y2917781D01*
X5413300Y2940602D02*
X5413600Y2940302D01*
X5415400D02*
X5525100D01*
X5413600Y2938502D02*
Y2940302D01*
X5323300Y2940602D02*
X5413300D01*
X5316900Y2934202D02*
X5323300Y2940602D01*
X5316900Y2923302D02*
Y2934202D01*
X5400000Y3002102D02*
X5401000Y3001102D01*
X5467000D01*
X5398400Y3003702D02*
X5400000Y3002102D01*
X5434000Y2884702D02*
X5434400Y2885102D01*
X5510400D01*
X5364200Y2907802D02*
X5409400D01*
X5324600Y2868202D02*
X5364200Y2907802D01*
X5296500Y2868202D02*
X5324600D01*
X5312000Y3066302D02*
X5345200Y3033102D01*
X5397300D01*
X5312000Y3066302D02*
Y3099902D01*
X5338400Y3100602D02*
Y3106102D01*
X5293600Y3150902D02*
X5338400Y3106102D01*
X4989600Y2927400D02*
Y2936100D01*
Y2927400D02*
X4989800Y2927200D01*
X4989585Y2926985D02*
X4989800Y2927200D01*
X4758100Y3146700D02*
X4802900Y3101900D01*
Y3096400D02*
Y3101900D01*
X5002990Y2889795D02*
Y2913579D01*
X4989585Y2926985D02*
X5002990Y2913579D01*
X5012800Y3026600D02*
X5023000Y3016400D01*
X4976500Y3026600D02*
X5012800D01*
X4940800Y3062300D02*
X4976500Y3026600D01*
X5002990Y2889795D02*
X5007495D01*
X5002990D02*
X5005242Y2887542D01*
X4898900Y2880900D02*
X4974900D01*
X4898500Y2880500D02*
X4898900Y2880900D01*
X4776500Y3062100D02*
X4809700Y3028900D01*
X4776500Y3062100D02*
Y3095700D01*
X4879900Y2936100D02*
X4989600D01*
X4979800Y3100800D02*
X5006200Y3074400D01*
X4945400Y3100800D02*
X4979800D01*
X4877800Y2936400D02*
X4878100Y2936100D01*
X4787800Y2936400D02*
X4877800D01*
X4878100Y2934300D02*
Y2936100D01*
X4781400Y2930000D02*
X4787800Y2936400D01*
X5006200Y3061700D02*
Y3074400D01*
X5163600Y2889194D02*
Y2903700D01*
X5152806Y2878400D02*
X5163600Y2889194D01*
X5058300Y2878400D02*
X5152806D01*
X5048000Y2868100D02*
X5058300Y2878400D01*
X5048000Y2609600D02*
Y2868100D01*
X5030800Y2592400D02*
X5048000Y2609600D01*
X5100706Y3225800D02*
X5137868Y3188638D01*
X5162874D01*
X4761000Y2864000D02*
X4789100D01*
X4828700Y2903600D01*
X4873900D01*
X4781400Y2919100D02*
Y2930000D01*
X5024700Y3089300D02*
X5036900Y3077100D01*
X5055729D01*
X5099829Y3033000D01*
X5100100D01*
X4821800Y3093800D02*
X4872700D01*
X4904200Y3062300D01*
X4809700Y3028900D02*
X4861800D01*
X4865500Y2996900D02*
X4931500D01*
X4862900Y2999500D02*
X4864500Y2997900D01*
X4865500Y2996900D01*
X4980890Y2944810D02*
X4989600Y2936100D01*
X4980890Y2944810D02*
Y2983195D01*
X5673508Y3192700D02*
X5698234D01*
X5698374Y3192840D01*
X5637900Y3228308D02*
X5673508Y3192700D01*
X5637900Y3228308D02*
Y3235400D01*
X5005242Y2887542D02*
X5007495Y2889795D01*
X4904200Y3062300D02*
X4940800D01*
X4878100Y2934300D02*
X4879900Y2936100D01*
X5540742Y2891744D02*
X5542995Y2893997D01*
X5439700Y3066502D02*
X5476300D01*
X5413600Y2938502D02*
X5415400Y2940302D01*
X4874650Y2904350D02*
X4898500Y2880500D01*
X5024700Y3089300D02*
Y3121100D01*
X5410150Y2908552D02*
X5434000Y2884702D01*
X5560200Y3093502D02*
Y3125302D01*
X4987400Y3221900D02*
Y3262000D01*
X5007300Y3281900D01*
X5245700Y3299400D02*
X5246300Y3300000D01*
X5245700Y3239600D02*
Y3299400D01*
D36*
X5898200Y2213400D02*
D03*
X5848200D02*
D03*
X5798200D02*
D03*
X5898200Y2283400D02*
D03*
X5848200D02*
D03*
X5798200D02*
D03*
X5897500Y2447100D02*
D03*
X5847500D02*
D03*
X5797500D02*
D03*
X5897500Y2517100D02*
D03*
X5847500D02*
D03*
X5797500D02*
D03*
X4612700Y2495400D02*
D03*
X4662700D02*
D03*
X4712700D02*
D03*
X4612700Y2425400D02*
D03*
X4662700D02*
D03*
X4712700D02*
D03*
X4619100Y2283400D02*
D03*
X4669100D02*
D03*
X4719100D02*
D03*
X4619100Y2213400D02*
D03*
X4669100D02*
D03*
X4719100D02*
D03*
X5263600Y2545500D02*
D03*
X5313600D02*
D03*
X5363600D02*
D03*
X5263600Y2475500D02*
D03*
X5313600D02*
D03*
X5363600D02*
D03*
D37*
X5379100Y2369500D02*
D03*
X5649100D02*
D03*
X6049700Y3101700D02*
D03*
X6433300Y3101500D02*
D03*
X6441600Y2716800D02*
D03*
X5161600Y2403900D02*
D03*
X4781600D02*
D03*
X6049700Y2724500D02*
D03*
D38*
X5939700Y3101700D02*
D03*
X6323300Y3101500D02*
D03*
X6331600Y2716800D02*
D03*
X5939700Y2724500D02*
D03*
D39*
X4652600Y3257400D02*
D03*
D40*
X4627200D02*
D03*
X4601800D02*
D03*
X4653600Y3203200D02*
D03*
Y3177800D02*
D03*
Y3152400D02*
D03*
Y3127000D02*
D03*
D41*
Y3101600D02*
D03*
D42*
X5516700Y2572400D02*
D03*
X5739300Y2575400D02*
D03*
D43*
X4927579Y2571710D02*
D03*
X5149269D02*
D03*
D44*
X5736500Y2986302D02*
D03*
X5762000Y2941702D02*
D03*
X5566300Y2596602D02*
D03*
X5699100Y2907902D02*
D03*
X5767506Y3121502D02*
D03*
X5723900Y3190402D02*
D03*
X5587700Y3190502D02*
D03*
X5560100Y3125302D02*
D03*
X5635600Y3037202D02*
D03*
X5357300Y3098002D02*
D03*
X5441900Y3063802D02*
D03*
X5558500Y3020602D02*
D03*
X5639886Y3101052D02*
D03*
X5618100Y2899802D02*
D03*
X5698374Y3192840D02*
D03*
X5592100Y3063602D02*
D03*
X5467200Y3053502D02*
D03*
X5416600Y2960302D02*
D03*
X5542300Y3133002D02*
D03*
X5440700Y3148402D02*
D03*
X5438900Y3214202D02*
D03*
X5337900Y2928702D02*
D03*
X5541700Y3065902D02*
D03*
X5480900Y3105002D02*
D03*
X5371400Y3153202D02*
D03*
X5467900Y2961602D02*
D03*
X5280300Y3124002D02*
D03*
X5326100Y2819202D02*
D03*
X5538490Y2893997D02*
D03*
X5516390Y2987397D02*
D03*
X5413600Y2940302D02*
D03*
X5316900Y2923302D02*
D03*
X5467000Y3001102D02*
D03*
X5400000Y3002102D02*
D03*
X5510400Y2885102D02*
D03*
X5409400Y2907802D02*
D03*
X5296500Y2868202D02*
D03*
X5397300Y3033102D02*
D03*
X5312000Y3099902D02*
D03*
X5338400Y3100602D02*
D03*
X5293600Y3150902D02*
D03*
X4802900Y3096400D02*
D03*
X4744800Y3119800D02*
D03*
X4758100Y3146700D02*
D03*
X4974900Y2880900D02*
D03*
X5002990Y2889795D02*
D03*
X4903400Y3210000D02*
D03*
X4945400Y3100800D02*
D03*
X4932400Y2957400D02*
D03*
X4835900Y3149000D02*
D03*
X5052200Y3186300D02*
D03*
X5006200Y3061700D02*
D03*
X5104386Y3096850D02*
D03*
X5162874Y3188638D02*
D03*
X4790600Y2815000D02*
D03*
X4905200Y3144200D02*
D03*
X4776500Y3095700D02*
D03*
X4781400Y2919100D02*
D03*
X5100706Y3225800D02*
D03*
X5232006Y3117300D02*
D03*
X5188400Y3186200D02*
D03*
X4873900Y2903600D02*
D03*
X4761000Y2864000D02*
D03*
X4802400Y2924500D02*
D03*
X4931500Y2996900D02*
D03*
X5226500Y2937500D02*
D03*
X5030800Y2592400D02*
D03*
X5163600Y2903700D02*
D03*
X4878100Y2936100D02*
D03*
X4881100Y2956100D02*
D03*
X5006800Y3128800D02*
D03*
X5024600Y3121100D02*
D03*
X5056600Y3059400D02*
D03*
X5023000Y3016400D02*
D03*
X5100100Y3033000D02*
D03*
X4821800Y3093800D02*
D03*
X4861800Y3028900D02*
D03*
X4864500Y2997900D02*
D03*
X4980890Y2983195D02*
D03*
X5082600Y2895600D02*
D03*
X4906400Y3059600D02*
D03*
X4931700Y3049300D02*
D03*
X5637900Y3235400D02*
D03*
X5201000Y2982100D02*
D03*
X5007300Y3281900D02*
D03*
X4987400Y3221900D02*
D03*
X5246300Y3300000D02*
D03*
X5245700Y3239600D02*
D03*
X5142400Y2338900D02*
D03*
Y2351700D02*
D03*
Y2364500D02*
D03*
Y2377300D02*
D03*
X5155200Y2338900D02*
D03*
Y2351700D02*
D03*
Y2364500D02*
D03*
X5168000Y2338900D02*
D03*
Y2351700D02*
D03*
Y2364500D02*
D03*
X5180800Y2338900D02*
D03*
Y2351700D02*
D03*
Y2364500D02*
D03*
Y2377300D02*
D03*
X5193600Y2338900D02*
D03*
Y2351700D02*
D03*
Y2364500D02*
D03*
Y2377300D02*
D03*
X5206400Y2338900D02*
D03*
Y2351700D02*
D03*
Y2364500D02*
D03*
Y2377300D02*
D03*
X5219200Y2338900D02*
D03*
Y2351700D02*
D03*
Y2364500D02*
D03*
Y2377300D02*
D03*
X5232000Y2338900D02*
D03*
Y2351700D02*
D03*
Y2364500D02*
D03*
Y2377300D02*
D03*
X5244800Y2338900D02*
D03*
Y2351700D02*
D03*
Y2364500D02*
D03*
Y2377300D02*
D03*
M02*
