G04 Layer_Physical_Order=2*
G04 Layer_Color=16711680*
%FSLAX25Y25*%
%MOIN*%
G70*
G01*
G75*
%ADD29C,0.01000*%
%ADD32C,0.09843*%
%ADD34C,0.11024*%
%ADD35C,0.09843*%
%ADD36R,0.09843X0.09843*%
%ADD37C,0.03150*%
%ADD38C,0.05118*%
%ADD39C,0.05906*%
%ADD40R,0.05906X0.05906*%
%ADD41C,0.13780*%
%ADD42R,0.05906X0.05906*%
%ADD43C,0.07874*%
%ADD44C,0.04724*%
%ADD45C,0.04843*%
%ADD46C,0.05000*%
%ADD47C,0.03600*%
G36*
X7295359Y4606335D02*
Y4385000D01*
Y4384500D01*
X7295481Y4383886D01*
X7295829Y4383364D01*
X7295829Y4383364D01*
X7299561Y4379633D01*
X7299445Y4378760D01*
X7299615Y4377475D01*
X7300111Y4376278D01*
X7300900Y4375250D01*
X7301928Y4374461D01*
X7303125Y4373965D01*
X7304410Y4373796D01*
X7305283Y4373911D01*
X7305829Y4373365D01*
X7306350Y4373017D01*
X7306965Y4372894D01*
X7306965Y4372894D01*
X7323800D01*
X7334359Y4362335D01*
Y4358992D01*
X7333965Y4358833D01*
X7333342Y4359312D01*
X7332480Y4359669D01*
X7331555Y4359790D01*
X7330630Y4359669D01*
X7329768Y4359312D01*
X7329028Y4358744D01*
X7328460Y4358004D01*
X7328103Y4357141D01*
X7327982Y4356216D01*
X7328103Y4355292D01*
X7328460Y4354430D01*
X7329028Y4353690D01*
X7329768Y4353122D01*
X7330630Y4352765D01*
X7331555Y4352643D01*
X7332480Y4352765D01*
X7333342Y4353122D01*
X7333965Y4353600D01*
X7334359Y4353441D01*
X7334359Y4341275D01*
X7333965Y4341117D01*
X7333342Y4341595D01*
X7332480Y4341952D01*
X7331555Y4342074D01*
X7330630Y4341952D01*
X7329768Y4341595D01*
X7329028Y4341027D01*
X7328460Y4340287D01*
X7328103Y4339425D01*
X7327982Y4338500D01*
X7328103Y4337575D01*
X7328460Y4336713D01*
X7329028Y4335973D01*
X7329768Y4335405D01*
X7330630Y4335048D01*
X7331555Y4334926D01*
X7332480Y4335048D01*
X7333342Y4335405D01*
X7333965Y4335883D01*
X7334359Y4335725D01*
X7334359Y4312500D01*
Y4181500D01*
Y4180165D01*
X7313329Y4159135D01*
X7313329Y4159135D01*
X7309829Y4155635D01*
X7309481Y4155114D01*
X7309359Y4154500D01*
X7309359Y4154500D01*
Y4146500D01*
Y4135000D01*
X7309481Y4134386D01*
X7309829Y4133865D01*
X7309829Y4133865D01*
X7312329Y4131364D01*
X7312329Y4131364D01*
X7314829Y4128865D01*
X7315350Y4128517D01*
X7315965Y4128394D01*
X7315965Y4128394D01*
X7327299D01*
X7331329Y4124364D01*
X7331329Y4124364D01*
X7339359Y4116335D01*
Y4083000D01*
Y4037165D01*
X7331329Y4029136D01*
X7331329Y4029135D01*
X7329299Y4027106D01*
X7144370D01*
Y4150394D01*
X7124488Y4150394D01*
X7123750Y4151132D01*
X7123727Y4151248D01*
X7123466Y4151639D01*
X7117993Y4157111D01*
X7117603Y4157372D01*
X7117142Y4157464D01*
X7117142Y4157464D01*
X7098559D01*
X7098098Y4157372D01*
X7097707Y4157111D01*
X7097643Y4157047D01*
X7097480D01*
X7096856Y4156260D01*
X7093259Y4152663D01*
X7092998Y4152272D01*
X7092906Y4151811D01*
X7092906Y4151811D01*
Y4151278D01*
X7092205Y4150394D01*
X7040649D01*
X7031969Y4159075D01*
X7013012D01*
X7004330Y4150394D01*
X6957937D01*
Y4536008D01*
X6958106Y4592074D01*
X6958470Y4592224D01*
X6965829Y4584864D01*
X6965829Y4584864D01*
X6966829Y4583865D01*
X6967350Y4583517D01*
X6967965Y4583394D01*
X6967965Y4583394D01*
X6984464D01*
X6984464Y4583394D01*
X6985079Y4583517D01*
X6985600Y4583865D01*
X6985600Y4583865D01*
X6995600Y4593864D01*
X6998600Y4596865D01*
X6998948Y4597385D01*
X6999070Y4598000D01*
X6999070Y4598000D01*
Y4606835D01*
X7002600Y4610365D01*
X7002600Y4610365D01*
X7006630Y4614394D01*
X7287300Y4614394D01*
X7295359Y4606335D01*
D02*
G37*
G36*
X7344740Y4003606D02*
X6960965D01*
Y4009000D01*
Y4011000D01*
Y4020000D01*
X6961964Y4021000D01*
X6966464Y4025500D01*
X7329964D01*
X7332465Y4028000D01*
X7340965Y4036500D01*
Y4083000D01*
Y4117000D01*
X7332465Y4125500D01*
X7327965Y4130000D01*
X7315965D01*
X7313464Y4132500D01*
X7310965Y4135000D01*
Y4146500D01*
Y4154500D01*
X7314465Y4158000D01*
X7335965Y4179500D01*
Y4181500D01*
Y4312500D01*
X7335964Y4363000D01*
X7324465Y4374500D01*
X7306965D01*
X7305965Y4375500D01*
X7296964Y4384500D01*
Y4385000D01*
Y4607000D01*
X7287965Y4616000D01*
X7005965Y4616000D01*
X7001465Y4611500D01*
X6997465Y4607500D01*
Y4607000D01*
Y4598000D01*
X6994465Y4595000D01*
X6984464Y4585000D01*
X6967965D01*
X6966965Y4586000D01*
X6957937Y4595028D01*
Y4623205D01*
X7344740D01*
Y4003606D01*
D02*
G37*
%LPC*%
G36*
X7243983Y4117031D02*
X7243933D01*
Y4116981D01*
X7243961Y4117003D01*
X7243983Y4117031D01*
D02*
G37*
G36*
X7252996D02*
X7252946D01*
X7252968Y4117003D01*
X7252996Y4116981D01*
Y4117031D01*
D02*
G37*
G36*
X7256983D02*
X7256933D01*
Y4116981D01*
X7256962Y4117003D01*
X7256983Y4117031D01*
D02*
G37*
G36*
X7239996D02*
X7239946D01*
X7239967Y4117003D01*
X7239996Y4116981D01*
Y4117031D01*
D02*
G37*
G36*
X7167983Y4114032D02*
X7167933D01*
Y4113981D01*
X7167961Y4114003D01*
X7167983Y4114032D01*
D02*
G37*
G36*
X7212996Y4115031D02*
X7212946D01*
X7212968Y4115003D01*
X7212996Y4114981D01*
Y4115031D01*
D02*
G37*
G36*
X7216983D02*
X7216933D01*
Y4114981D01*
X7216962Y4115003D01*
X7216983Y4115031D01*
D02*
G37*
G36*
X7266996Y4117031D02*
X7266946D01*
X7266968Y4117003D01*
X7266996Y4116981D01*
Y4117031D01*
D02*
G37*
G36*
X7167933Y4118019D02*
Y4117968D01*
X7167983D01*
X7167961Y4117997D01*
X7167933Y4118019D01*
D02*
G37*
G36*
X7212996Y4119019D02*
X7212968Y4118997D01*
X7212946Y4118969D01*
X7212996D01*
Y4119019D01*
D02*
G37*
G36*
X7216933D02*
Y4118969D01*
X7216983D01*
X7216962Y4118997D01*
X7216933Y4119019D01*
D02*
G37*
G36*
X7163996Y4118019D02*
X7163968Y4117997D01*
X7163946Y4117968D01*
X7163996D01*
Y4118019D01*
D02*
G37*
G36*
X7270983Y4117031D02*
X7270933D01*
Y4116981D01*
X7270962Y4117003D01*
X7270983Y4117031D01*
D02*
G37*
G36*
X7283996D02*
X7283945D01*
X7283968Y4117003D01*
X7283996Y4116981D01*
Y4117031D01*
D02*
G37*
G36*
X7287984D02*
X7287933D01*
Y4116981D01*
X7287962Y4117003D01*
X7287984Y4117031D01*
D02*
G37*
G36*
X7163996Y4114032D02*
X7163946D01*
X7163968Y4114003D01*
X7163996Y4113981D01*
Y4114032D01*
D02*
G37*
G36*
X7167983Y4101532D02*
X7167933D01*
Y4101481D01*
X7167961Y4101503D01*
X7167983Y4101532D01*
D02*
G37*
G36*
X7257896Y4103619D02*
X7257867Y4103597D01*
X7257846Y4103569D01*
X7257896D01*
Y4103619D01*
D02*
G37*
G36*
X7261833D02*
Y4103569D01*
X7261884D01*
X7261861Y4103597D01*
X7261833Y4103619D01*
D02*
G37*
G36*
X7163996Y4101532D02*
X7163946D01*
X7163968Y4101503D01*
X7163996Y4101481D01*
Y4101532D01*
D02*
G37*
G36*
X7153496Y4099519D02*
X7153468Y4099497D01*
X7153445Y4099469D01*
X7153496D01*
Y4099519D01*
D02*
G37*
G36*
X7157433D02*
Y4099469D01*
X7157484D01*
X7157462Y4099497D01*
X7157433Y4099519D01*
D02*
G37*
G36*
X7261884Y4099632D02*
X7257846D01*
X7257867Y4099603D01*
Y4099597D01*
X7257846Y4099569D01*
X7261884D01*
X7261861Y4099597D01*
Y4099603D01*
X7261884Y4099632D01*
D02*
G37*
G36*
X7163996Y4105519D02*
X7163968Y4105497D01*
X7163946Y4105468D01*
X7163996D01*
Y4105519D01*
D02*
G37*
G36*
X7157033Y4113419D02*
Y4113369D01*
X7157083D01*
X7157062Y4113397D01*
X7157033Y4113419D01*
D02*
G37*
G36*
X7326555Y4117531D02*
X7322933D01*
Y4113910D01*
X7323241Y4114003D01*
X7324270Y4114553D01*
X7325172Y4115293D01*
X7325912Y4116195D01*
X7326462Y4117223D01*
X7326555Y4117531D01*
D02*
G37*
G36*
X7318996D02*
X7315374D01*
X7315468Y4117223D01*
X7316017Y4116195D01*
X7316757Y4115293D01*
X7317659Y4114553D01*
X7318687Y4114003D01*
X7318996Y4113910D01*
Y4117531D01*
D02*
G37*
G36*
X7153096Y4113419D02*
X7153068Y4113397D01*
X7153046Y4113369D01*
X7153096D01*
Y4113419D01*
D02*
G37*
G36*
X7167933Y4105519D02*
Y4105468D01*
X7167983D01*
X7167961Y4105497D01*
X7167933Y4105519D01*
D02*
G37*
G36*
X7153096Y4109431D02*
X7153046D01*
X7153068Y4109403D01*
X7153096Y4109381D01*
Y4109431D01*
D02*
G37*
G36*
X7157083D02*
X7157033D01*
Y4109381D01*
X7157062Y4109403D01*
X7157083Y4109431D01*
D02*
G37*
G36*
X7202996Y4133019D02*
X7202968Y4132997D01*
X7202946Y4132969D01*
X7202996D01*
Y4133019D01*
D02*
G37*
G36*
X7206933D02*
Y4132969D01*
X7206983D01*
X7206962Y4132997D01*
X7206933Y4133019D01*
D02*
G37*
G36*
X7157964Y4246081D02*
X7157297Y4245993D01*
X7156674Y4245735D01*
X7156139Y4245325D01*
X7155729Y4244791D01*
X7155471Y4244168D01*
X7155383Y4243500D01*
X7155471Y4242832D01*
X7155729Y4242209D01*
X7156139Y4241675D01*
X7156451Y4241436D01*
Y4211505D01*
X7156451Y4211505D01*
X7156567Y4210926D01*
X7156895Y4210435D01*
X7156934Y4210394D01*
X7156883Y4210005D01*
X7156972Y4209337D01*
X7157229Y4208714D01*
X7157639Y4208179D01*
X7158174Y4207769D01*
X7158797Y4207512D01*
X7159464Y4207424D01*
X7160133Y4207512D01*
X7160755Y4207769D01*
X7161290Y4208179D01*
X7161700Y4208714D01*
X7161958Y4209337D01*
X7162046Y4210005D01*
X7161958Y4210673D01*
X7161700Y4211295D01*
X7161290Y4211830D01*
X7160755Y4212240D01*
X7160133Y4212498D01*
X7159478Y4212584D01*
Y4241436D01*
X7159790Y4241675D01*
X7160200Y4242209D01*
X7160458Y4242832D01*
X7160545Y4243500D01*
X7160458Y4244168D01*
X7160200Y4244791D01*
X7159790Y4245325D01*
X7159255Y4245735D01*
X7158633Y4245993D01*
X7157964Y4246081D01*
D02*
G37*
G36*
X7169933Y4131019D02*
Y4130968D01*
X7169984D01*
X7169962Y4130997D01*
X7169933Y4131019D01*
D02*
G37*
G36*
X7202996Y4129031D02*
X7202946D01*
X7202968Y4129003D01*
X7202996Y4128981D01*
Y4129031D01*
D02*
G37*
G36*
X7206983D02*
X7206933D01*
Y4128981D01*
X7206962Y4129003D01*
X7206983Y4129031D01*
D02*
G37*
G36*
X7165996Y4131019D02*
X7165968Y4130997D01*
X7165945Y4130968D01*
X7165996D01*
Y4131019D01*
D02*
G37*
G36*
X7015465Y4220471D02*
X7014437Y4220336D01*
X7013479Y4219939D01*
X7012656Y4219308D01*
X7012025Y4218486D01*
X7011629Y4217528D01*
X7011494Y4216500D01*
X7011629Y4215472D01*
X7012025Y4214515D01*
X7012656Y4213692D01*
X7013479Y4213061D01*
X7014437Y4212664D01*
X7015465Y4212529D01*
X7016492Y4212664D01*
X7017450Y4213061D01*
X7018272Y4213692D01*
X7018903Y4214515D01*
X7019300Y4215472D01*
X7019435Y4216500D01*
X7019300Y4217528D01*
X7018903Y4218486D01*
X7018272Y4219308D01*
X7017450Y4219939D01*
X7016492Y4220336D01*
X7015465Y4220471D01*
D02*
G37*
G36*
X7013496Y4239963D02*
X7013471Y4239953D01*
X7012646Y4239319D01*
X7012012Y4238493D01*
X7012002Y4238469D01*
X7013496D01*
Y4239963D01*
D02*
G37*
G36*
X7017433D02*
Y4238469D01*
X7018928D01*
X7018917Y4238493D01*
X7018284Y4239319D01*
X7017458Y4239953D01*
X7017433Y4239963D01*
D02*
G37*
G36*
X7015465Y4250471D02*
X7014437Y4250336D01*
X7013479Y4249939D01*
X7012656Y4249308D01*
X7012025Y4248486D01*
X7011629Y4247528D01*
X7011494Y4246500D01*
X7011629Y4245472D01*
X7012025Y4244514D01*
X7012656Y4243692D01*
X7013479Y4243061D01*
X7014437Y4242664D01*
X7015465Y4242529D01*
X7016492Y4242664D01*
X7017450Y4243061D01*
X7018272Y4243692D01*
X7018903Y4244514D01*
X7019300Y4245472D01*
X7019435Y4246500D01*
X7019300Y4247528D01*
X7018903Y4248486D01*
X7018272Y4249308D01*
X7017450Y4249939D01*
X7016492Y4250336D01*
X7015465Y4250471D01*
D02*
G37*
G36*
X7018928Y4234531D02*
X7017433D01*
Y4233037D01*
X7017458Y4233047D01*
X7018284Y4233681D01*
X7018917Y4234507D01*
X7018928Y4234531D01*
D02*
G37*
G36*
X7015465Y4230471D02*
X7014437Y4230336D01*
X7013479Y4229939D01*
X7012656Y4229308D01*
X7012025Y4228485D01*
X7011629Y4227528D01*
X7011494Y4226500D01*
X7011629Y4225472D01*
X7012025Y4224514D01*
X7012656Y4223692D01*
X7013479Y4223061D01*
X7014437Y4222664D01*
X7015465Y4222529D01*
X7016492Y4222664D01*
X7017450Y4223061D01*
X7018272Y4223692D01*
X7018903Y4224514D01*
X7019300Y4225472D01*
X7019435Y4226500D01*
X7019300Y4227528D01*
X7018903Y4228485D01*
X7018272Y4229308D01*
X7017450Y4229939D01*
X7016492Y4230336D01*
X7015465Y4230471D01*
D02*
G37*
G36*
X7080943Y4256608D02*
X7080274Y4256520D01*
X7079652Y4256262D01*
X7079118Y4255852D01*
X7078707Y4255317D01*
X7078449Y4254695D01*
X7078362Y4254027D01*
X7078449Y4253359D01*
X7078707Y4252736D01*
X7079118Y4252201D01*
X7079652Y4251791D01*
X7080274Y4251534D01*
X7080943Y4251446D01*
X7081611Y4251534D01*
X7082233Y4251791D01*
X7082767Y4252201D01*
X7083007Y4252514D01*
X7132816D01*
X7138966Y4246363D01*
Y4231054D01*
X7138654Y4230815D01*
X7138244Y4230280D01*
X7137987Y4229658D01*
X7137898Y4228990D01*
X7137987Y4228322D01*
X7138244Y4227699D01*
X7138654Y4227164D01*
X7139189Y4226754D01*
X7139812Y4226497D01*
X7140479Y4226409D01*
X7141148Y4226497D01*
X7141770Y4226754D01*
X7142305Y4227164D01*
X7142715Y4227699D01*
X7142973Y4228322D01*
X7143061Y4228990D01*
X7142973Y4229658D01*
X7142715Y4230280D01*
X7142305Y4230815D01*
X7141993Y4231054D01*
Y4246990D01*
X7141993Y4246990D01*
X7141878Y4247569D01*
X7141550Y4248060D01*
X7134512Y4255097D01*
X7134022Y4255425D01*
X7133443Y4255540D01*
X7133443Y4255540D01*
X7083007D01*
X7082767Y4255852D01*
X7082233Y4256262D01*
X7081611Y4256520D01*
X7080943Y4256608D01*
D02*
G37*
G36*
X7013496Y4234531D02*
X7012002D01*
X7012012Y4234507D01*
X7012646Y4233681D01*
X7013471Y4233047D01*
X7013496Y4233037D01*
Y4234531D01*
D02*
G37*
G36*
X7169984Y4127031D02*
X7169933D01*
Y4126981D01*
X7169962Y4127003D01*
X7169984Y4127031D01*
D02*
G37*
G36*
X7252996Y4121019D02*
X7252968Y4120997D01*
X7252946Y4120969D01*
X7252996D01*
Y4121019D01*
D02*
G37*
G36*
X7256933D02*
Y4120969D01*
X7256983D01*
X7256962Y4120997D01*
X7256933Y4121019D01*
D02*
G37*
G36*
X7266996D02*
X7266968Y4120997D01*
X7266946Y4120969D01*
X7266996D01*
Y4121019D01*
D02*
G37*
G36*
X7243933D02*
Y4120969D01*
X7243983D01*
X7243961Y4120997D01*
X7243933Y4121019D01*
D02*
G37*
G36*
X7202996Y4120031D02*
X7202946D01*
X7202968Y4120003D01*
X7202996Y4119981D01*
Y4120031D01*
D02*
G37*
G36*
X7206983D02*
X7206933D01*
Y4119981D01*
X7206962Y4120003D01*
X7206983Y4120031D01*
D02*
G37*
G36*
X7239996Y4121019D02*
X7239967Y4120997D01*
X7239946Y4120969D01*
X7239996D01*
Y4121019D01*
D02*
G37*
G36*
X7270933D02*
Y4120969D01*
X7270983D01*
X7270962Y4120997D01*
X7270933Y4121019D01*
D02*
G37*
G36*
X7202996Y4124019D02*
X7202968Y4123997D01*
X7202946Y4123969D01*
X7202996D01*
Y4124019D01*
D02*
G37*
G36*
X7206933D02*
Y4123969D01*
X7206983D01*
X7206962Y4123997D01*
X7206933Y4124019D01*
D02*
G37*
G36*
X7165996Y4127031D02*
X7165945D01*
X7165968Y4127003D01*
X7165996Y4126981D01*
Y4127031D01*
D02*
G37*
G36*
X7322933Y4125091D02*
Y4121468D01*
X7326555D01*
X7326462Y4121777D01*
X7325912Y4122806D01*
X7325172Y4123707D01*
X7324270Y4124447D01*
X7323241Y4124997D01*
X7322933Y4125091D01*
D02*
G37*
G36*
X7283996Y4121019D02*
X7283968Y4120997D01*
X7283945Y4120969D01*
X7283996D01*
Y4121019D01*
D02*
G37*
G36*
X7287933D02*
Y4120969D01*
X7287984D01*
X7287962Y4120997D01*
X7287933Y4121019D01*
D02*
G37*
G36*
X7318996Y4125090D02*
X7318687Y4124997D01*
X7317659Y4124447D01*
X7316757Y4123707D01*
X7316017Y4122806D01*
X7315468Y4121777D01*
X7315374Y4121468D01*
X7318996D01*
Y4125090D01*
D02*
G37*
G36*
X7261884Y4095631D02*
X7261833D01*
Y4095581D01*
X7261861Y4095603D01*
X7261884Y4095631D01*
D02*
G37*
G36*
X7218996Y4039302D02*
X7218967Y4039280D01*
X7218946Y4039252D01*
X7218996D01*
Y4039302D01*
D02*
G37*
G36*
X7222933D02*
Y4039252D01*
X7222984D01*
X7222961Y4039280D01*
X7222933Y4039302D01*
D02*
G37*
G36*
X7251996D02*
X7251968Y4039280D01*
X7251945Y4039252D01*
X7251996D01*
Y4039302D01*
D02*
G37*
G36*
X7210433D02*
Y4039252D01*
X7210484D01*
X7210461Y4039280D01*
X7210433Y4039302D01*
D02*
G37*
G36*
X7181339D02*
X7181310Y4039280D01*
X7181288Y4039252D01*
X7181339D01*
Y4039302D01*
D02*
G37*
G36*
X7185275D02*
Y4039252D01*
X7185326D01*
X7185304Y4039280D01*
X7185275Y4039302D01*
D02*
G37*
G36*
X7206496D02*
X7206467Y4039280D01*
X7206446Y4039252D01*
X7206496D01*
Y4039302D01*
D02*
G37*
G36*
X7255933D02*
Y4039252D01*
X7255984D01*
X7255962Y4039280D01*
X7255933Y4039302D01*
D02*
G37*
G36*
X7163496Y4040532D02*
X7163446D01*
X7163467Y4040503D01*
X7163496Y4040481D01*
Y4040532D01*
D02*
G37*
G36*
X7167484D02*
X7167433D01*
Y4040481D01*
X7167461Y4040503D01*
X7167484Y4040532D01*
D02*
G37*
G36*
X7327996Y4043031D02*
X7327064D01*
X7327468Y4042504D01*
X7327996Y4042099D01*
Y4043031D01*
D02*
G37*
G36*
X7287933Y4039302D02*
Y4039252D01*
X7287984D01*
X7287962Y4039280D01*
X7287933Y4039302D01*
D02*
G37*
G36*
X7270496D02*
X7270467Y4039280D01*
X7270446Y4039252D01*
X7270496D01*
Y4039302D01*
D02*
G37*
G36*
X7274433D02*
Y4039252D01*
X7274483D01*
X7274461Y4039280D01*
X7274433Y4039302D01*
D02*
G37*
G36*
X7283996D02*
X7283968Y4039280D01*
X7283945Y4039252D01*
X7283996D01*
Y4039302D01*
D02*
G37*
G36*
X7197835Y4038751D02*
Y4038701D01*
X7197885D01*
X7197863Y4038729D01*
X7197835Y4038751D01*
D02*
G37*
G36*
X7206496Y4035315D02*
X7206446D01*
X7206467Y4035286D01*
X7206496Y4035265D01*
Y4035315D01*
D02*
G37*
G36*
X7210484D02*
X7210433D01*
Y4035265D01*
X7210461Y4035286D01*
X7210484Y4035315D01*
D02*
G37*
G36*
X7218996D02*
X7218946D01*
X7218967Y4035286D01*
X7218996Y4035265D01*
Y4035315D01*
D02*
G37*
G36*
X7185326D02*
X7185275D01*
Y4035265D01*
X7185304Y4035286D01*
X7185326Y4035315D01*
D02*
G37*
G36*
X7193897Y4034764D02*
X7193848D01*
X7193869Y4034735D01*
X7193897Y4034713D01*
Y4034764D01*
D02*
G37*
G36*
X7197885D02*
X7197835D01*
Y4034713D01*
X7197863Y4034735D01*
X7197885Y4034764D01*
D02*
G37*
G36*
X7181339Y4035315D02*
X7181288D01*
X7181310Y4035286D01*
X7181339Y4035265D01*
Y4035315D01*
D02*
G37*
G36*
X7222984D02*
X7222933D01*
Y4035265D01*
X7222961Y4035286D01*
X7222984Y4035315D01*
D02*
G37*
G36*
X7283996D02*
X7283945D01*
X7283968Y4035286D01*
X7283996Y4035265D01*
Y4035315D01*
D02*
G37*
G36*
X7287984D02*
X7287933D01*
Y4035265D01*
X7287962Y4035286D01*
X7287984Y4035315D01*
D02*
G37*
G36*
X7193897Y4038751D02*
X7193869Y4038729D01*
X7193848Y4038701D01*
X7193897D01*
Y4038751D01*
D02*
G37*
G36*
X7274483Y4035315D02*
X7274433D01*
Y4035265D01*
X7274461Y4035286D01*
X7274483Y4035315D01*
D02*
G37*
G36*
X7251996D02*
X7251945D01*
X7251968Y4035286D01*
X7251996Y4035265D01*
Y4035315D01*
D02*
G37*
G36*
X7255984D02*
X7255933D01*
Y4035265D01*
X7255962Y4035286D01*
X7255984Y4035315D01*
D02*
G37*
G36*
X7270496D02*
X7270446D01*
X7270467Y4035286D01*
X7270496Y4035265D01*
Y4035315D01*
D02*
G37*
G36*
X7167933Y4080019D02*
Y4079969D01*
X7167983D01*
X7167961Y4079997D01*
X7167933Y4080019D01*
D02*
G37*
G36*
X7330496Y4086401D02*
X7329968Y4085996D01*
X7329563Y4085469D01*
X7330496D01*
Y4086401D01*
D02*
G37*
G36*
X7334433D02*
Y4085469D01*
X7335366D01*
X7334961Y4085996D01*
X7334433Y4086401D01*
D02*
G37*
G36*
X7163996Y4080019D02*
X7163968Y4079997D01*
X7163946Y4079969D01*
X7163996D01*
Y4080019D01*
D02*
G37*
G36*
Y4076031D02*
X7163946D01*
X7163968Y4076003D01*
X7163996Y4075981D01*
Y4076031D01*
D02*
G37*
G36*
X7167983D02*
X7167933D01*
Y4075981D01*
X7167961Y4076003D01*
X7167983Y4076031D01*
D02*
G37*
G36*
X7335366Y4081532D02*
X7329563D01*
X7329968Y4081004D01*
X7330368Y4080697D01*
Y4080303D01*
X7329968Y4079996D01*
X7329563Y4079469D01*
X7335366D01*
X7334961Y4079996D01*
X7334561Y4080303D01*
Y4080697D01*
X7334961Y4081004D01*
X7335366Y4081532D01*
D02*
G37*
G36*
X7163996Y4089032D02*
X7163946D01*
X7163968Y4089003D01*
X7163996Y4088981D01*
Y4089032D01*
D02*
G37*
G36*
X7153496Y4095531D02*
X7153445D01*
X7153468Y4095503D01*
X7153496Y4095481D01*
Y4095531D01*
D02*
G37*
G36*
X7157484D02*
X7157433D01*
Y4095481D01*
X7157462Y4095503D01*
X7157484Y4095531D01*
D02*
G37*
G36*
X7257896Y4095631D02*
X7257846D01*
X7257867Y4095603D01*
X7257896Y4095581D01*
Y4095631D01*
D02*
G37*
G36*
X7320965Y4105749D02*
X7319807Y4105635D01*
X7318694Y4105297D01*
X7317668Y4104749D01*
X7316769Y4104011D01*
X7316031Y4103112D01*
X7315482Y4102086D01*
X7315144Y4100973D01*
X7315031Y4099815D01*
X7315144Y4098657D01*
X7315482Y4097544D01*
X7316031Y4096518D01*
X7316769Y4095619D01*
X7317668Y4094881D01*
X7318694Y4094333D01*
X7319807Y4093995D01*
X7320965Y4093881D01*
X7322122Y4093995D01*
X7323235Y4094333D01*
X7324261Y4094881D01*
X7325161Y4095619D01*
X7325899Y4096518D01*
X7326447Y4097544D01*
X7326785Y4098657D01*
X7326899Y4099815D01*
X7326785Y4100973D01*
X7326447Y4102086D01*
X7325899Y4103112D01*
X7325161Y4104011D01*
X7324261Y4104749D01*
X7323235Y4105297D01*
X7322122Y4105635D01*
X7320965Y4105749D01*
D02*
G37*
G36*
X7167983Y4089032D02*
X7167933D01*
Y4088981D01*
X7167961Y4089003D01*
X7167983Y4089032D01*
D02*
G37*
G36*
X7163996Y4093019D02*
X7163968Y4092997D01*
X7163946Y4092968D01*
X7163996D01*
Y4093019D01*
D02*
G37*
G36*
X7167933D02*
Y4092968D01*
X7167983D01*
X7167961Y4092997D01*
X7167933Y4093019D01*
D02*
G37*
G36*
X7335366Y4075531D02*
X7329563D01*
X7329968Y4075004D01*
X7330368Y4074697D01*
Y4074303D01*
X7329968Y4073996D01*
X7329563Y4073468D01*
X7335366D01*
X7334961Y4073996D01*
X7334561Y4074303D01*
Y4074697D01*
X7334961Y4075004D01*
X7335366Y4075531D01*
D02*
G37*
G36*
X7331933Y4047901D02*
Y4046968D01*
X7332866D01*
X7332461Y4047496D01*
X7331933Y4047901D01*
D02*
G37*
G36*
X7163496Y4053032D02*
X7163446D01*
X7163467Y4053003D01*
X7163496Y4052981D01*
Y4053032D01*
D02*
G37*
G36*
X7167484D02*
X7167433D01*
Y4052981D01*
X7167461Y4053003D01*
X7167484Y4053032D01*
D02*
G37*
G36*
X7327996Y4047901D02*
X7327468Y4047496D01*
X7327064Y4046968D01*
X7327996D01*
Y4047901D01*
D02*
G37*
G36*
X7332866Y4043031D02*
X7331933D01*
Y4042099D01*
X7332461Y4042504D01*
X7332866Y4043031D01*
D02*
G37*
G36*
X7163496Y4044519D02*
X7163467Y4044497D01*
X7163446Y4044469D01*
X7163496D01*
Y4044519D01*
D02*
G37*
G36*
X7167433D02*
Y4044469D01*
X7167484D01*
X7167461Y4044497D01*
X7167433Y4044519D01*
D02*
G37*
G36*
X7163496Y4057019D02*
X7163467Y4056997D01*
X7163446Y4056969D01*
X7163496D01*
Y4057019D01*
D02*
G37*
G36*
X7335366Y4069532D02*
X7334433D01*
Y4068599D01*
X7334961Y4069004D01*
X7335366Y4069532D01*
D02*
G37*
G36*
X7163496Y4069519D02*
X7163467Y4069497D01*
X7163446Y4069469D01*
X7163496D01*
Y4069519D01*
D02*
G37*
G36*
X7167433D02*
Y4069469D01*
X7167484D01*
X7167461Y4069497D01*
X7167433Y4069519D01*
D02*
G37*
G36*
X7330496Y4069532D02*
X7329563D01*
X7329968Y4069004D01*
X7330496Y4068599D01*
Y4069532D01*
D02*
G37*
G36*
X7167433Y4057019D02*
Y4056969D01*
X7167484D01*
X7167461Y4056997D01*
X7167433Y4057019D01*
D02*
G37*
G36*
X7163496Y4065532D02*
X7163446D01*
X7163467Y4065503D01*
X7163496Y4065481D01*
Y4065532D01*
D02*
G37*
G36*
X7167484D02*
X7167433D01*
Y4065481D01*
X7167461Y4065503D01*
X7167484Y4065532D01*
D02*
G37*
G36*
X7323496Y4244032D02*
X7322002D01*
X7322012Y4244007D01*
X7322646Y4243181D01*
X7323471Y4242547D01*
X7323496Y4242537D01*
Y4244032D01*
D02*
G37*
G36*
X7291063Y4501305D02*
X7290189Y4501191D01*
X7289375Y4500853D01*
X7288676Y4500317D01*
X7288140Y4499618D01*
X7287803Y4498804D01*
X7287688Y4497930D01*
X7287803Y4497057D01*
X7288140Y4496243D01*
X7288676Y4495543D01*
X7289375Y4495007D01*
X7290189Y4494670D01*
X7291063Y4494555D01*
X7291936Y4494670D01*
X7292751Y4495007D01*
X7293449Y4495543D01*
X7293986Y4496243D01*
X7294323Y4497057D01*
X7294438Y4497930D01*
X7294323Y4498804D01*
X7293986Y4499618D01*
X7293449Y4500317D01*
X7292751Y4500853D01*
X7291936Y4501191D01*
X7291063Y4501305D01*
D02*
G37*
G36*
X7279095Y4495658D02*
X7278665Y4495328D01*
X7278336Y4494899D01*
X7279095D01*
Y4495658D01*
D02*
G37*
G36*
X7283031Y4495658D02*
Y4494899D01*
X7283791D01*
X7283461Y4495328D01*
X7283031Y4495658D01*
D02*
G37*
G36*
X7279095Y4490961D02*
X7278336D01*
X7278665Y4490532D01*
X7279095Y4490203D01*
Y4490961D01*
D02*
G37*
G36*
Y4485658D02*
X7278665Y4485328D01*
X7278336Y4484899D01*
X7279095D01*
Y4485658D01*
D02*
G37*
G36*
X7283031Y4485658D02*
Y4484899D01*
X7283791D01*
X7283461Y4485328D01*
X7283031Y4485658D01*
D02*
G37*
G36*
X7283791Y4490961D02*
X7283031D01*
Y4490203D01*
X7283461Y4490532D01*
X7283791Y4490961D01*
D02*
G37*
G36*
X7015965Y4534971D02*
X7014937Y4534836D01*
X7013979Y4534439D01*
X7013157Y4533808D01*
X7012526Y4532986D01*
X7012129Y4532028D01*
X7011993Y4531000D01*
X7012129Y4529972D01*
X7012526Y4529015D01*
X7013157Y4528192D01*
X7013979Y4527561D01*
X7014937Y4527164D01*
X7015965Y4527029D01*
X7016992Y4527164D01*
X7017950Y4527561D01*
X7018772Y4528192D01*
X7019404Y4529015D01*
X7019801Y4529972D01*
X7019936Y4531000D01*
X7019801Y4532028D01*
X7019404Y4532986D01*
X7018772Y4533808D01*
X7017950Y4534439D01*
X7016992Y4534836D01*
X7015965Y4534971D01*
D02*
G37*
G36*
X7283031Y4505658D02*
Y4504898D01*
X7283791D01*
X7283461Y4505328D01*
X7283031Y4505658D01*
D02*
G37*
G36*
X7283791Y4500962D02*
X7283031D01*
Y4500203D01*
X7283461Y4500532D01*
X7283791Y4500962D01*
D02*
G37*
G36*
X7279095D02*
X7278336D01*
X7278665Y4500532D01*
X7279095Y4500203D01*
Y4500962D01*
D02*
G37*
G36*
Y4505658D02*
X7278665Y4505328D01*
X7278336Y4504898D01*
X7279095D01*
Y4505658D01*
D02*
G37*
G36*
X7291063Y4471305D02*
X7290189Y4471191D01*
X7289375Y4470853D01*
X7288676Y4470317D01*
X7288140Y4469618D01*
X7287803Y4468804D01*
X7287688Y4467930D01*
X7287803Y4467057D01*
X7288140Y4466243D01*
X7288676Y4465543D01*
X7289375Y4465007D01*
X7290189Y4464670D01*
X7291063Y4464555D01*
X7291936Y4464670D01*
X7292751Y4465007D01*
X7293449Y4465543D01*
X7293986Y4466243D01*
X7294323Y4467057D01*
X7294438Y4467930D01*
X7294323Y4468804D01*
X7293986Y4469618D01*
X7293449Y4470317D01*
X7292751Y4470853D01*
X7291936Y4471191D01*
X7291063Y4471305D01*
D02*
G37*
G36*
X7019402Y4475512D02*
X7011527D01*
Y4467638D01*
X7019402D01*
Y4475512D01*
D02*
G37*
G36*
X7015465Y4465546D02*
X7014437Y4465411D01*
X7013479Y4465014D01*
X7012656Y4464383D01*
X7012025Y4463560D01*
X7011629Y4462603D01*
X7011494Y4461575D01*
X7011629Y4460547D01*
X7012025Y4459589D01*
X7012656Y4458767D01*
X7013479Y4458136D01*
X7014437Y4457739D01*
X7015465Y4457604D01*
X7016492Y4457739D01*
X7017450Y4458136D01*
X7018272Y4458767D01*
X7018903Y4459589D01*
X7019300Y4460547D01*
X7019435Y4461575D01*
X7019300Y4462603D01*
X7018903Y4463560D01*
X7018272Y4464383D01*
X7017450Y4465014D01*
X7016492Y4465411D01*
X7015465Y4465546D01*
D02*
G37*
G36*
X7013496Y4455038D02*
X7013471Y4455027D01*
X7012646Y4454394D01*
X7012012Y4453568D01*
X7012002Y4453543D01*
X7013496D01*
Y4455038D01*
D02*
G37*
G36*
X7017433Y4455038D02*
Y4453543D01*
X7018928D01*
X7018917Y4453568D01*
X7018284Y4454394D01*
X7017458Y4455027D01*
X7017433Y4455038D01*
D02*
G37*
G36*
X7283791Y4470962D02*
X7283031D01*
Y4470203D01*
X7283461Y4470532D01*
X7283791Y4470962D01*
D02*
G37*
G36*
Y4480962D02*
X7283031D01*
Y4480202D01*
X7283461Y4480532D01*
X7283791Y4480962D01*
D02*
G37*
G36*
X7279095D02*
X7278336D01*
X7278665Y4480532D01*
X7279095Y4480203D01*
Y4480962D01*
D02*
G37*
G36*
X7291063Y4491306D02*
X7290189Y4491190D01*
X7289375Y4490853D01*
X7288676Y4490317D01*
X7288140Y4489618D01*
X7287803Y4488804D01*
X7287688Y4487930D01*
X7287803Y4487057D01*
X7288140Y4486243D01*
X7288676Y4485543D01*
X7289375Y4485007D01*
X7290189Y4484670D01*
X7291063Y4484555D01*
X7291936Y4484670D01*
X7292751Y4485007D01*
X7293449Y4485543D01*
X7293986Y4486243D01*
X7294323Y4487057D01*
X7294438Y4487930D01*
X7294323Y4488804D01*
X7293986Y4489618D01*
X7293449Y4490317D01*
X7292751Y4490853D01*
X7291936Y4491190D01*
X7291063Y4491306D01*
D02*
G37*
G36*
X7283031Y4475658D02*
Y4474899D01*
X7283791D01*
X7283461Y4475328D01*
X7283031Y4475658D01*
D02*
G37*
G36*
X7279095Y4470962D02*
X7278336D01*
X7278665Y4470532D01*
X7279095Y4470203D01*
Y4470962D01*
D02*
G37*
G36*
X7291063Y4481305D02*
X7290189Y4481190D01*
X7289375Y4480853D01*
X7288676Y4480317D01*
X7288140Y4479618D01*
X7287803Y4478804D01*
X7287688Y4477930D01*
X7287803Y4477057D01*
X7288140Y4476242D01*
X7288676Y4475543D01*
X7289375Y4475007D01*
X7290189Y4474670D01*
X7291063Y4474555D01*
X7291936Y4474670D01*
X7292751Y4475007D01*
X7293449Y4475543D01*
X7293986Y4476242D01*
X7294323Y4477057D01*
X7294438Y4477930D01*
X7294323Y4478804D01*
X7293986Y4479618D01*
X7293449Y4480317D01*
X7292751Y4480853D01*
X7291936Y4481190D01*
X7291063Y4481305D01*
D02*
G37*
G36*
X7279095Y4475658D02*
X7278665Y4475328D01*
X7278336Y4474899D01*
X7279095D01*
Y4475658D01*
D02*
G37*
G36*
X7015965Y4544971D02*
X7014937Y4544836D01*
X7013979Y4544439D01*
X7013157Y4543808D01*
X7012526Y4542986D01*
X7012129Y4542028D01*
X7011993Y4541000D01*
X7012129Y4539972D01*
X7012526Y4539014D01*
X7013157Y4538192D01*
X7013979Y4537561D01*
X7014937Y4537164D01*
X7015965Y4537029D01*
X7016992Y4537164D01*
X7017950Y4537561D01*
X7018772Y4538192D01*
X7019404Y4539014D01*
X7019801Y4539972D01*
X7019936Y4541000D01*
X7019801Y4542028D01*
X7019404Y4542986D01*
X7018772Y4543808D01*
X7017950Y4544439D01*
X7016992Y4544836D01*
X7015965Y4544971D01*
D02*
G37*
G36*
X7019901Y4574937D02*
X7012028D01*
Y4567063D01*
X7019901D01*
Y4574937D01*
D02*
G37*
G36*
X7291417Y4575574D02*
X7290543Y4575459D01*
X7289729Y4575122D01*
X7289030Y4574586D01*
X7288494Y4573886D01*
X7288157Y4573072D01*
X7288042Y4572199D01*
X7288157Y4571325D01*
X7288494Y4570511D01*
X7289030Y4569812D01*
X7289729Y4569276D01*
X7290543Y4568938D01*
X7291417Y4568824D01*
X7292291Y4568938D01*
X7293105Y4569276D01*
X7293804Y4569812D01*
X7294341Y4570511D01*
X7294678Y4571325D01*
X7294793Y4572199D01*
X7294678Y4573072D01*
X7294341Y4573886D01*
X7293804Y4574586D01*
X7293105Y4575122D01*
X7292291Y4575459D01*
X7291417Y4575574D01*
D02*
G37*
G36*
X7279449Y4569926D02*
X7279019Y4569597D01*
X7278690Y4569167D01*
X7279449D01*
Y4569926D01*
D02*
G37*
G36*
Y4565231D02*
X7278690D01*
X7279019Y4564801D01*
X7279449Y4564471D01*
Y4565231D01*
D02*
G37*
G36*
Y4559926D02*
X7279019Y4559597D01*
X7278690Y4559167D01*
X7279449D01*
Y4559926D01*
D02*
G37*
G36*
X7283385Y4559926D02*
Y4559167D01*
X7284145D01*
X7283815Y4559597D01*
X7283385Y4559926D01*
D02*
G37*
G36*
X7284145Y4565231D02*
X7283385D01*
Y4564471D01*
X7283815Y4564801D01*
X7284145Y4565231D01*
D02*
G37*
G36*
X7283385Y4569926D02*
Y4569167D01*
X7284145D01*
X7283815Y4569597D01*
X7283385Y4569926D01*
D02*
G37*
G36*
X7279449Y4579926D02*
X7279019Y4579597D01*
X7278690Y4579168D01*
X7279449D01*
Y4579926D01*
D02*
G37*
G36*
X7283385Y4579926D02*
Y4579168D01*
X7284145D01*
X7283815Y4579597D01*
X7283385Y4579926D01*
D02*
G37*
G36*
X7138480Y4580071D02*
X7137811Y4579983D01*
X7137189Y4579725D01*
X7136655Y4579315D01*
X7136415Y4579003D01*
X7065479D01*
X7065479Y4579003D01*
X7064900Y4578888D01*
X7064410Y4578560D01*
X7050410Y4564560D01*
X7050082Y4564069D01*
X7049966Y4563490D01*
X7049966Y4563490D01*
Y4531554D01*
X7049654Y4531315D01*
X7049244Y4530780D01*
X7048986Y4530158D01*
X7048898Y4529490D01*
X7048986Y4528822D01*
X7049244Y4528199D01*
X7049654Y4527665D01*
X7050189Y4527254D01*
X7050812Y4526997D01*
X7051479Y4526908D01*
X7052148Y4526997D01*
X7052770Y4527254D01*
X7053305Y4527665D01*
X7053715Y4528199D01*
X7053973Y4528822D01*
X7054060Y4529490D01*
X7053973Y4530158D01*
X7053715Y4530780D01*
X7053305Y4531315D01*
X7052993Y4531554D01*
Y4562863D01*
X7066106Y4575977D01*
X7136415D01*
X7136655Y4575665D01*
X7137189Y4575254D01*
X7137811Y4574997D01*
X7138480Y4574908D01*
X7139148Y4574997D01*
X7139770Y4575254D01*
X7140305Y4575665D01*
X7140552Y4575987D01*
X7158309D01*
X7158429Y4575593D01*
X7158395Y4575570D01*
X7158395Y4575570D01*
X7150780Y4567956D01*
X7150452Y4567465D01*
X7150337Y4566886D01*
X7150337Y4566886D01*
Y4547243D01*
X7149944Y4547109D01*
X7149738Y4547376D01*
X7149204Y4547786D01*
X7148582Y4548045D01*
X7147913Y4548132D01*
X7147515Y4548080D01*
X7147054Y4548388D01*
X7146474Y4548503D01*
X7146474Y4548503D01*
X7142544D01*
X7142305Y4548815D01*
X7141993Y4549054D01*
Y4564990D01*
X7141993Y4564990D01*
X7141878Y4565569D01*
X7141550Y4566060D01*
X7134512Y4573097D01*
X7134022Y4573425D01*
X7133443Y4573540D01*
X7133443Y4573540D01*
X7083007D01*
X7082767Y4573852D01*
X7082233Y4574262D01*
X7081611Y4574520D01*
X7080943Y4574608D01*
X7080274Y4574520D01*
X7079652Y4574262D01*
X7079118Y4573852D01*
X7078707Y4573317D01*
X7078449Y4572695D01*
X7078362Y4572027D01*
X7078449Y4571359D01*
X7078707Y4570736D01*
X7079118Y4570201D01*
X7079652Y4569791D01*
X7080274Y4569534D01*
X7080943Y4569446D01*
X7081611Y4569534D01*
X7082233Y4569791D01*
X7082767Y4570201D01*
X7083007Y4570514D01*
X7132816D01*
X7138966Y4564363D01*
Y4549054D01*
X7138654Y4548815D01*
X7138244Y4548280D01*
X7137987Y4547658D01*
X7137898Y4546990D01*
X7137987Y4546322D01*
X7138244Y4545699D01*
X7138654Y4545164D01*
X7139189Y4544754D01*
X7139812Y4544497D01*
X7140479Y4544408D01*
X7141148Y4544497D01*
X7141770Y4544754D01*
X7142305Y4545164D01*
X7142544Y4545477D01*
X7145342D01*
X7145420Y4544883D01*
X7145678Y4544261D01*
X7146088Y4543726D01*
X7146622Y4543316D01*
X7146780Y4543251D01*
X7146856Y4542865D01*
X7140994Y4537003D01*
X7140544D01*
X7140305Y4537315D01*
X7139770Y4537725D01*
X7139148Y4537983D01*
X7138480Y4538071D01*
X7137811Y4537983D01*
X7137189Y4537725D01*
X7136655Y4537315D01*
X7136244Y4536780D01*
X7135986Y4536158D01*
X7135971Y4536042D01*
X7133685Y4535040D01*
X7120628D01*
X7116105Y4539564D01*
X7116237Y4539736D01*
X7116495Y4540359D01*
X7116582Y4541027D01*
X7116495Y4541695D01*
X7116237Y4542317D01*
X7115826Y4542852D01*
X7115515Y4543091D01*
Y4558468D01*
X7115515Y4558468D01*
X7115400Y4559047D01*
X7115072Y4559538D01*
X7115072Y4559538D01*
X7106039Y4568570D01*
X7105548Y4568898D01*
X7104969Y4569013D01*
X7104969Y4569013D01*
X7084965D01*
X7084386Y4568898D01*
X7083894Y4568570D01*
X7083894Y4568570D01*
X7078338Y4563013D01*
X7077529D01*
X7077290Y4563325D01*
X7076755Y4563735D01*
X7076133Y4563993D01*
X7075465Y4564081D01*
X7074796Y4563993D01*
X7074174Y4563735D01*
X7073640Y4563325D01*
X7073229Y4562791D01*
X7072971Y4562168D01*
X7072884Y4561500D01*
X7072971Y4560832D01*
X7073229Y4560209D01*
X7073640Y4559675D01*
X7074174Y4559265D01*
X7074796Y4559007D01*
X7075465Y4558919D01*
X7076133Y4559007D01*
X7076755Y4559265D01*
X7077290Y4559675D01*
X7077529Y4559987D01*
X7078964D01*
X7078964Y4559987D01*
X7079544Y4560102D01*
X7080035Y4560430D01*
X7085591Y4565987D01*
X7104343D01*
X7112489Y4557841D01*
Y4543091D01*
X7112177Y4542852D01*
X7111766Y4542317D01*
X7111508Y4541695D01*
X7111420Y4541027D01*
X7111508Y4540359D01*
X7111766Y4539736D01*
X7112177Y4539202D01*
X7112704Y4538797D01*
X7112932Y4538457D01*
X7118932Y4532457D01*
X7118932Y4532457D01*
X7119422Y4532129D01*
X7120001Y4532013D01*
X7134002D01*
X7134017Y4532016D01*
X7134032Y4532014D01*
X7134306Y4532074D01*
X7134581Y4532129D01*
X7134594Y4532137D01*
X7134609Y4532141D01*
X7137175Y4533265D01*
X7137189Y4533254D01*
X7137811Y4532997D01*
X7138480Y4532909D01*
X7139148Y4532997D01*
X7139770Y4533254D01*
X7140305Y4533665D01*
X7140544Y4533976D01*
X7141621D01*
X7141621Y4533976D01*
X7142200Y4534092D01*
X7142691Y4534420D01*
X7152921Y4544649D01*
X7152921Y4544649D01*
X7153249Y4545140D01*
X7153364Y4545719D01*
X7153364Y4545719D01*
Y4566259D01*
X7160091Y4572987D01*
X7183411D01*
X7183647Y4572593D01*
X7183472Y4572168D01*
X7183383Y4571500D01*
X7183472Y4570832D01*
X7183730Y4570210D01*
X7184139Y4569675D01*
X7184451Y4569436D01*
Y4568013D01*
X7178964D01*
X7178385Y4567898D01*
X7177895Y4567570D01*
X7177895Y4567570D01*
X7172395Y4562070D01*
X7172066Y4561579D01*
X7171951Y4561000D01*
X7171951Y4561000D01*
Y4544500D01*
X7171951Y4544500D01*
X7172066Y4543921D01*
X7172395Y4543430D01*
X7174394Y4541430D01*
X7174394Y4541430D01*
X7174886Y4541102D01*
X7175465Y4540987D01*
X7175465Y4540987D01*
X7179163D01*
X7179399Y4540593D01*
X7179224Y4540168D01*
X7179135Y4539500D01*
X7179224Y4538832D01*
X7179482Y4538210D01*
X7179891Y4537675D01*
X7180426Y4537265D01*
X7181049Y4537007D01*
X7181716Y4536919D01*
X7182384Y4537007D01*
X7183007Y4537265D01*
X7183542Y4537675D01*
X7183781Y4537987D01*
X7197952D01*
Y4537064D01*
X7197639Y4536825D01*
X7197229Y4536291D01*
X7196971Y4535668D01*
X7196883Y4535000D01*
X7196971Y4534332D01*
X7197229Y4533709D01*
X7197639Y4533175D01*
X7198174Y4532765D01*
X7198797Y4532507D01*
X7199464Y4532419D01*
X7200133Y4532507D01*
X7200755Y4532765D01*
X7201289Y4533175D01*
X7201700Y4533709D01*
X7201958Y4534332D01*
X7202045Y4535000D01*
X7201958Y4535668D01*
X7201700Y4536291D01*
X7201289Y4536825D01*
X7200978Y4537064D01*
Y4537987D01*
X7209837D01*
X7210951Y4536873D01*
Y4535056D01*
X7210558Y4534978D01*
X7210503Y4535109D01*
X7210093Y4535644D01*
X7209558Y4536054D01*
X7208936Y4536312D01*
X7208268Y4536400D01*
X7207600Y4536312D01*
X7206977Y4536054D01*
X7206442Y4535644D01*
X7206033Y4535109D01*
X7205775Y4534487D01*
X7205687Y4533819D01*
X7205704Y4533683D01*
X7202426Y4531013D01*
X7200465D01*
X7200465Y4531013D01*
X7199886Y4530898D01*
X7199394Y4530570D01*
X7199394Y4530570D01*
X7189268Y4520444D01*
X7188906Y4520638D01*
X7188978Y4521000D01*
X7188978Y4521000D01*
Y4532436D01*
X7189290Y4532675D01*
X7189700Y4533209D01*
X7189957Y4533832D01*
X7190046Y4534500D01*
X7189957Y4535168D01*
X7189700Y4535791D01*
X7189290Y4536325D01*
X7188755Y4536735D01*
X7188132Y4536993D01*
X7187465Y4537081D01*
X7186797Y4536993D01*
X7186174Y4536735D01*
X7185639Y4536325D01*
X7185229Y4535791D01*
X7184972Y4535168D01*
X7184883Y4534500D01*
X7184972Y4533832D01*
X7185229Y4533209D01*
X7185639Y4532675D01*
X7185951Y4532436D01*
Y4521627D01*
X7138383Y4474058D01*
X7137811Y4473983D01*
X7137189Y4473725D01*
X7136655Y4473315D01*
X7136415Y4473003D01*
X7065479D01*
X7065479Y4473003D01*
X7064900Y4472888D01*
X7064410Y4472560D01*
X7050410Y4458560D01*
X7050082Y4458069D01*
X7049966Y4457490D01*
X7049966Y4457490D01*
Y4425554D01*
X7049654Y4425315D01*
X7049244Y4424780D01*
X7048986Y4424158D01*
X7048898Y4423490D01*
X7048986Y4422822D01*
X7049244Y4422199D01*
X7049654Y4421664D01*
X7050189Y4421254D01*
X7050812Y4420996D01*
X7051479Y4420909D01*
X7052148Y4420996D01*
X7052770Y4421254D01*
X7053305Y4421664D01*
X7053715Y4422199D01*
X7053973Y4422822D01*
X7054060Y4423490D01*
X7053973Y4424158D01*
X7053715Y4424780D01*
X7053305Y4425315D01*
X7052993Y4425554D01*
Y4456863D01*
X7066106Y4469976D01*
X7136415D01*
X7136655Y4469665D01*
X7137189Y4469254D01*
X7137811Y4468996D01*
X7138480Y4468909D01*
X7139148Y4468996D01*
X7139770Y4469254D01*
X7140305Y4469665D01*
X7140715Y4470199D01*
X7140973Y4470822D01*
X7141061Y4471490D01*
X7140973Y4472158D01*
X7140911Y4472306D01*
X7156255Y4487650D01*
X7156618Y4487456D01*
X7156546Y4487094D01*
X7156546Y4487094D01*
Y4438080D01*
X7156219Y4437861D01*
X7156062Y4437926D01*
X7155394Y4438014D01*
X7154726Y4437926D01*
X7154588Y4437869D01*
X7154286Y4438171D01*
X7154343Y4438308D01*
X7154431Y4438976D01*
X7154343Y4439644D01*
X7154086Y4440267D01*
X7153676Y4440802D01*
X7153141Y4441212D01*
X7152518Y4441470D01*
X7151850Y4441557D01*
X7151183Y4441470D01*
X7151127Y4441447D01*
X7150513Y4442060D01*
X7150022Y4442388D01*
X7149443Y4442503D01*
X7149443Y4442503D01*
X7142544D01*
X7142305Y4442815D01*
X7141993Y4443054D01*
Y4458990D01*
X7141993Y4458990D01*
X7141878Y4459569D01*
X7141550Y4460060D01*
X7134512Y4467097D01*
X7134022Y4467425D01*
X7133443Y4467540D01*
X7133443Y4467540D01*
X7083007D01*
X7082767Y4467852D01*
X7082233Y4468262D01*
X7081611Y4468520D01*
X7080943Y4468608D01*
X7080274Y4468520D01*
X7079652Y4468262D01*
X7079118Y4467852D01*
X7078707Y4467317D01*
X7078449Y4466695D01*
X7078362Y4466027D01*
X7078449Y4465359D01*
X7078636Y4464907D01*
X7078416Y4464513D01*
X7077464D01*
X7076885Y4464398D01*
X7076395Y4464070D01*
X7076395Y4464070D01*
X7075354Y4463030D01*
X7074965Y4463081D01*
X7074297Y4462993D01*
X7073674Y4462735D01*
X7073139Y4462325D01*
X7072900Y4462013D01*
X7067464D01*
X7067464Y4462013D01*
X7066885Y4461898D01*
X7066395Y4461570D01*
X7066395Y4461570D01*
X7062894Y4458070D01*
X7062566Y4457579D01*
X7062451Y4457000D01*
X7062451Y4457000D01*
Y4428627D01*
X7052837Y4419013D01*
X7047092D01*
X7045478Y4420627D01*
Y4471373D01*
X7102035Y4527930D01*
X7102035Y4527930D01*
X7102363Y4528421D01*
X7102478Y4529000D01*
Y4558000D01*
X7102478Y4558000D01*
X7102363Y4558579D01*
X7102035Y4559070D01*
X7102035Y4559070D01*
X7097034Y4564070D01*
X7096544Y4564398D01*
X7095965Y4564513D01*
X7095965Y4564513D01*
X7086964D01*
X7086385Y4564398D01*
X7085895Y4564070D01*
X7085895Y4564070D01*
X7079338Y4557513D01*
X7072092D01*
X7069978Y4559627D01*
Y4561873D01*
X7073592Y4565487D01*
X7075401D01*
X7075639Y4565175D01*
X7076174Y4564765D01*
X7076797Y4564507D01*
X7077464Y4564419D01*
X7078133Y4564507D01*
X7078755Y4564765D01*
X7079290Y4565175D01*
X7079700Y4565709D01*
X7079958Y4566332D01*
X7080045Y4567000D01*
X7079958Y4567668D01*
X7079700Y4568291D01*
X7079290Y4568825D01*
X7078755Y4569235D01*
X7078133Y4569493D01*
X7077464Y4569581D01*
X7076797Y4569493D01*
X7076174Y4569235D01*
X7075639Y4568825D01*
X7075401Y4568513D01*
X7072964D01*
X7072964Y4568513D01*
X7072385Y4568398D01*
X7071895Y4568070D01*
X7067394Y4563570D01*
X7067066Y4563079D01*
X7066951Y4562500D01*
X7066951Y4562500D01*
Y4559000D01*
X7066951Y4559000D01*
X7067066Y4558421D01*
X7067394Y4557930D01*
X7070394Y4554930D01*
X7070885Y4554602D01*
X7071465Y4554487D01*
X7071465Y4554487D01*
X7079964D01*
X7079964Y4554487D01*
X7080544Y4554602D01*
X7081035Y4554930D01*
X7087592Y4561487D01*
X7088368D01*
X7088502Y4561093D01*
X7088374Y4560995D01*
X7091703D01*
X7091576Y4561093D01*
X7091709Y4561487D01*
X7095338D01*
X7099451Y4557373D01*
Y4529627D01*
X7042895Y4473070D01*
X7042567Y4472579D01*
X7042451Y4472000D01*
X7042451Y4472000D01*
Y4420000D01*
X7042451Y4420000D01*
X7042567Y4419421D01*
X7042895Y4418930D01*
X7045394Y4416430D01*
X7045394Y4416430D01*
X7045885Y4416102D01*
X7046465Y4415987D01*
X7053465D01*
X7053465Y4415987D01*
X7054044Y4416102D01*
X7054535Y4416430D01*
X7065034Y4426930D01*
X7065034Y4426930D01*
X7065363Y4427421D01*
X7065478Y4428000D01*
Y4456373D01*
X7068092Y4458987D01*
X7072900D01*
X7073139Y4458675D01*
X7073674Y4458265D01*
X7074297Y4458007D01*
X7074369Y4457997D01*
X7074479Y4457586D01*
X7074139Y4457325D01*
X7073729Y4456791D01*
X7073471Y4456168D01*
X7073383Y4455500D01*
X7073471Y4454832D01*
X7073729Y4454210D01*
X7074139Y4453675D01*
X7074674Y4453265D01*
X7075297Y4453007D01*
X7075964Y4452919D01*
X7076633Y4453007D01*
X7077255Y4453265D01*
X7077790Y4453675D01*
X7078029Y4453987D01*
X7079980D01*
X7079980Y4453987D01*
X7080559Y4454102D01*
X7081049Y4454430D01*
X7084606Y4457987D01*
X7106342D01*
X7112489Y4451841D01*
Y4437091D01*
X7112177Y4436852D01*
X7111766Y4436317D01*
X7111508Y4435695D01*
X7111420Y4435027D01*
X7111508Y4434359D01*
X7111766Y4433736D01*
X7112177Y4433202D01*
X7112704Y4432796D01*
X7112932Y4432457D01*
X7118932Y4426457D01*
X7118932Y4426457D01*
X7119422Y4426129D01*
X7120001Y4426014D01*
X7134002D01*
X7134017Y4426017D01*
X7134032Y4426014D01*
X7134306Y4426074D01*
X7134581Y4426129D01*
X7134594Y4426138D01*
X7134609Y4426141D01*
X7137175Y4427266D01*
X7137189Y4427254D01*
X7137811Y4426997D01*
X7138480Y4426908D01*
X7139148Y4426997D01*
X7139770Y4427254D01*
X7140305Y4427665D01*
X7140544Y4427976D01*
X7154568D01*
X7154568Y4427976D01*
X7155148Y4428091D01*
X7155639Y4428420D01*
X7156087Y4428868D01*
X7156451Y4428718D01*
Y4385601D01*
X7138869Y4368019D01*
X7138480Y4368071D01*
X7137811Y4367983D01*
X7137189Y4367725D01*
X7136655Y4367315D01*
X7136415Y4367003D01*
X7065479D01*
X7065479Y4367003D01*
X7064900Y4366888D01*
X7064410Y4366560D01*
X7050410Y4352560D01*
X7050082Y4352069D01*
X7049966Y4351490D01*
X7049966Y4351490D01*
Y4319554D01*
X7049654Y4319315D01*
X7049244Y4318780D01*
X7048986Y4318158D01*
X7048898Y4317490D01*
X7048986Y4316822D01*
X7049244Y4316199D01*
X7049654Y4315665D01*
X7050189Y4315254D01*
X7050812Y4314997D01*
X7051479Y4314909D01*
X7052148Y4314997D01*
X7052770Y4315254D01*
X7053305Y4315665D01*
X7053715Y4316199D01*
X7053973Y4316822D01*
X7054060Y4317490D01*
X7053973Y4318158D01*
X7053715Y4318780D01*
X7053305Y4319315D01*
X7052993Y4319554D01*
Y4350863D01*
X7066106Y4363976D01*
X7136415D01*
X7136655Y4363665D01*
X7137189Y4363255D01*
X7137811Y4362997D01*
X7138480Y4362909D01*
X7139148Y4362997D01*
X7139770Y4363255D01*
X7140305Y4363665D01*
X7140715Y4364199D01*
X7140973Y4364822D01*
X7141061Y4365490D01*
X7141010Y4365879D01*
X7158588Y4383458D01*
X7158952Y4383307D01*
Y4347697D01*
X7158557Y4347503D01*
X7158255Y4347735D01*
X7157632Y4347993D01*
X7156965Y4348081D01*
X7156297Y4347993D01*
X7155674Y4347735D01*
X7155139Y4347325D01*
X7154729Y4346791D01*
X7154472Y4346168D01*
X7154383Y4345500D01*
X7154472Y4344832D01*
X7154729Y4344209D01*
X7155139Y4343675D01*
X7155451Y4343436D01*
Y4337500D01*
X7155451Y4337500D01*
X7155566Y4336921D01*
X7155894Y4336430D01*
X7157340Y4334985D01*
X7157317Y4334588D01*
X7156967Y4334355D01*
X7156632Y4334493D01*
X7155965Y4334581D01*
X7155575Y4334530D01*
X7154045Y4336060D01*
X7153554Y4336388D01*
X7152975Y4336503D01*
X7152975Y4336503D01*
X7142544D01*
X7142305Y4336815D01*
X7141993Y4337054D01*
Y4352990D01*
X7141993Y4352990D01*
X7141878Y4353569D01*
X7141550Y4354060D01*
X7134512Y4361097D01*
X7134022Y4361425D01*
X7133443Y4361540D01*
X7133443Y4361540D01*
X7083007D01*
X7082767Y4361852D01*
X7082233Y4362262D01*
X7081611Y4362520D01*
X7080943Y4362608D01*
X7080274Y4362520D01*
X7079652Y4362262D01*
X7079118Y4361852D01*
X7078707Y4361317D01*
X7078449Y4360695D01*
X7078362Y4360027D01*
X7078449Y4359359D01*
X7078707Y4358736D01*
X7079021Y4358327D01*
X7078908Y4357903D01*
X7078886Y4357898D01*
X7078394Y4357570D01*
X7078394Y4357570D01*
X7077854Y4357030D01*
X7077464Y4357081D01*
X7076797Y4356993D01*
X7076174Y4356735D01*
X7075639Y4356325D01*
X7075401Y4356013D01*
X7074464D01*
X7074464Y4356013D01*
X7073885Y4355898D01*
X7073395Y4355570D01*
X7073395Y4355570D01*
X7071394Y4353570D01*
X7071066Y4353079D01*
X7070951Y4352500D01*
X7070951Y4352500D01*
Y4347000D01*
X7070951Y4347000D01*
X7071066Y4346421D01*
X7071394Y4345930D01*
X7073395Y4343930D01*
X7073395Y4343930D01*
X7073885Y4343602D01*
X7074464Y4343487D01*
X7074464Y4343487D01*
X7082964D01*
X7082964Y4343487D01*
X7083543Y4343602D01*
X7084035Y4343930D01*
X7087054Y4346950D01*
X7087470Y4346809D01*
X7087530Y4346355D01*
X7087789Y4345728D01*
X7088070Y4345362D01*
Y4347027D01*
X7092007D01*
Y4345362D01*
X7092287Y4345728D01*
X7092547Y4346355D01*
X7092635Y4347027D01*
X7092547Y4347699D01*
X7092445Y4347944D01*
X7092676Y4348315D01*
X7092983Y4348341D01*
X7097451Y4343873D01*
Y4321127D01*
X7042394Y4266070D01*
X7042066Y4265579D01*
X7041951Y4265000D01*
X7041951Y4265000D01*
Y4211500D01*
X7041951Y4211500D01*
X7042066Y4210921D01*
X7042394Y4210430D01*
X7048395Y4204430D01*
X7048395Y4204430D01*
X7048885Y4204102D01*
X7049464Y4203987D01*
X7055965D01*
X7055965Y4203987D01*
X7056544Y4204102D01*
X7057035Y4204430D01*
X7065034Y4212430D01*
X7065034Y4212430D01*
X7065363Y4212921D01*
X7065478Y4213500D01*
X7065478Y4213500D01*
Y4243373D01*
X7069592Y4247487D01*
X7073900D01*
X7074139Y4247175D01*
X7074674Y4246765D01*
X7075297Y4246507D01*
X7075964Y4246419D01*
X7076633Y4246507D01*
X7077255Y4246765D01*
X7077790Y4247175D01*
X7078200Y4247709D01*
X7078458Y4248332D01*
X7078545Y4249000D01*
X7078458Y4249668D01*
X7078200Y4250291D01*
X7077790Y4250825D01*
X7077255Y4251235D01*
X7076633Y4251493D01*
X7075964Y4251581D01*
X7075297Y4251493D01*
X7074674Y4251235D01*
X7074139Y4250825D01*
X7073900Y4250513D01*
X7068964D01*
X7068964Y4250513D01*
X7068385Y4250398D01*
X7067895Y4250070D01*
X7067895Y4250070D01*
X7062894Y4245070D01*
X7062566Y4244579D01*
X7062451Y4244000D01*
X7062451Y4244000D01*
Y4214127D01*
X7055338Y4207013D01*
X7050092D01*
X7044978Y4212127D01*
Y4264373D01*
X7100034Y4319430D01*
X7100034Y4319430D01*
X7100362Y4319921D01*
X7100478Y4320500D01*
Y4344500D01*
X7100362Y4345079D01*
X7100034Y4345570D01*
X7100034Y4345570D01*
X7094535Y4351070D01*
X7094044Y4351398D01*
X7093465Y4351513D01*
X7093465Y4351513D01*
X7088562D01*
X7088351Y4351907D01*
X7088405Y4351987D01*
X7106342D01*
X7112489Y4345841D01*
Y4331091D01*
X7112177Y4330852D01*
X7111766Y4330317D01*
X7111508Y4329695D01*
X7111420Y4329027D01*
X7111508Y4328359D01*
X7111766Y4327736D01*
X7112177Y4327201D01*
X7112704Y4326796D01*
X7112932Y4326457D01*
X7118932Y4320457D01*
X7118932Y4320457D01*
X7119422Y4320129D01*
X7120001Y4320013D01*
X7134002D01*
X7134017Y4320016D01*
X7134032Y4320014D01*
X7134306Y4320074D01*
X7134581Y4320129D01*
X7134594Y4320137D01*
X7134609Y4320141D01*
X7137175Y4321265D01*
X7137189Y4321254D01*
X7137811Y4320996D01*
X7138480Y4320909D01*
X7139148Y4320996D01*
X7139770Y4321254D01*
X7140305Y4321664D01*
X7140544Y4321976D01*
X7157455D01*
X7157455Y4321976D01*
X7158034Y4322092D01*
X7158524Y4322420D01*
X7161088Y4324983D01*
X7161451Y4324832D01*
Y4284602D01*
X7138869Y4262020D01*
X7138480Y4262071D01*
X7137811Y4261983D01*
X7137189Y4261725D01*
X7136655Y4261315D01*
X7136415Y4261003D01*
X7065479D01*
X7065479Y4261003D01*
X7064900Y4260888D01*
X7064410Y4260560D01*
X7050410Y4246560D01*
X7050082Y4246069D01*
X7049966Y4245490D01*
X7049966Y4245490D01*
Y4213554D01*
X7049654Y4213315D01*
X7049244Y4212780D01*
X7048986Y4212158D01*
X7048898Y4211490D01*
X7048986Y4210822D01*
X7049244Y4210199D01*
X7049654Y4209665D01*
X7050189Y4209254D01*
X7050812Y4208997D01*
X7051479Y4208908D01*
X7052148Y4208997D01*
X7052770Y4209254D01*
X7053305Y4209665D01*
X7053715Y4210199D01*
X7053973Y4210822D01*
X7054060Y4211490D01*
X7053973Y4212158D01*
X7053715Y4212780D01*
X7053305Y4213315D01*
X7052993Y4213554D01*
Y4244863D01*
X7066106Y4257977D01*
X7136415D01*
X7136655Y4257664D01*
X7137189Y4257254D01*
X7137811Y4256997D01*
X7138480Y4256908D01*
X7139148Y4256997D01*
X7139770Y4257254D01*
X7140305Y4257664D01*
X7140715Y4258199D01*
X7140973Y4258822D01*
X7141061Y4259490D01*
X7141010Y4259879D01*
X7144654Y4263524D01*
X7145017Y4263330D01*
X7144951Y4263000D01*
X7144951Y4263000D01*
Y4226102D01*
X7138869Y4220020D01*
X7138480Y4220071D01*
X7137811Y4219983D01*
X7137189Y4219725D01*
X7136655Y4219315D01*
X7136244Y4218780D01*
X7135986Y4218158D01*
X7135971Y4218042D01*
X7133685Y4217040D01*
X7120628D01*
X7116105Y4221564D01*
X7116237Y4221736D01*
X7116495Y4222359D01*
X7116582Y4223027D01*
X7116495Y4223695D01*
X7116237Y4224317D01*
X7115826Y4224852D01*
X7115515Y4225091D01*
Y4240468D01*
X7115515Y4240468D01*
X7115400Y4241047D01*
X7115072Y4241538D01*
X7115072Y4241538D01*
X7112039Y4244570D01*
X7111549Y4244898D01*
X7110970Y4245013D01*
X7110970Y4245013D01*
X7077529D01*
X7077290Y4245325D01*
X7076755Y4245735D01*
X7076133Y4245993D01*
X7075465Y4246081D01*
X7074796Y4245993D01*
X7074174Y4245735D01*
X7073640Y4245325D01*
X7073229Y4244791D01*
X7072971Y4244168D01*
X7072884Y4243500D01*
X7072971Y4242832D01*
X7073229Y4242209D01*
X7073640Y4241675D01*
X7074174Y4241265D01*
X7074796Y4241007D01*
X7075465Y4240919D01*
X7076133Y4241007D01*
X7076755Y4241265D01*
X7077290Y4241675D01*
X7077529Y4241987D01*
X7088430D01*
X7088490Y4241911D01*
X7088426Y4241378D01*
X7088375Y4241339D01*
X7091704D01*
X7091653Y4241378D01*
X7091589Y4241911D01*
X7091649Y4241987D01*
X7110342D01*
X7112489Y4239841D01*
Y4225091D01*
X7112177Y4224852D01*
X7111766Y4224317D01*
X7111508Y4223695D01*
X7111420Y4223027D01*
X7111508Y4222359D01*
X7111766Y4221736D01*
X7112177Y4221202D01*
X7112704Y4220797D01*
X7112932Y4220457D01*
X7118932Y4214457D01*
X7118932Y4214457D01*
X7119422Y4214129D01*
X7120001Y4214014D01*
X7134002D01*
X7134017Y4214016D01*
X7134032Y4214014D01*
X7134306Y4214074D01*
X7134581Y4214129D01*
X7134594Y4214137D01*
X7134609Y4214141D01*
X7137175Y4215265D01*
X7137189Y4215254D01*
X7137811Y4214997D01*
X7138480Y4214909D01*
X7139148Y4214997D01*
X7139770Y4215254D01*
X7140305Y4215665D01*
X7140715Y4216199D01*
X7140973Y4216822D01*
X7141061Y4217490D01*
X7141010Y4217879D01*
X7147535Y4224405D01*
X7147535Y4224405D01*
X7147863Y4224896D01*
X7147978Y4225475D01*
Y4262373D01*
X7166534Y4280930D01*
X7166534Y4280930D01*
X7166862Y4281421D01*
X7166978Y4282000D01*
X7166978Y4282000D01*
Y4426873D01*
X7170587Y4430483D01*
X7170951Y4430332D01*
Y4260000D01*
X7170951Y4260000D01*
X7171066Y4259421D01*
X7171394Y4258930D01*
X7185895Y4244430D01*
X7185895Y4244430D01*
X7186385Y4244102D01*
X7186964Y4243987D01*
X7186964Y4243987D01*
X7188394D01*
X7188528Y4243593D01*
X7188157Y4243308D01*
X7187526Y4242485D01*
X7187129Y4241528D01*
X7186993Y4240500D01*
X7187129Y4239472D01*
X7187526Y4238514D01*
X7188157Y4237692D01*
X7188979Y4237061D01*
X7189937Y4236664D01*
X7190965Y4236529D01*
X7191992Y4236664D01*
X7192950Y4237061D01*
X7193772Y4237692D01*
X7194404Y4238514D01*
X7194801Y4239472D01*
X7194936Y4240500D01*
X7194801Y4241528D01*
X7194404Y4242485D01*
X7193772Y4243308D01*
X7193401Y4243593D01*
X7193535Y4243987D01*
X7195338D01*
X7197028Y4242297D01*
Y4236563D01*
X7204902D01*
Y4244437D01*
X7199168D01*
X7197034Y4246570D01*
X7196544Y4246898D01*
X7195965Y4247013D01*
X7195965Y4247013D01*
X7193535D01*
X7193401Y4247407D01*
X7193772Y4247692D01*
X7194404Y4248515D01*
X7194801Y4249472D01*
X7194936Y4250500D01*
X7194801Y4251528D01*
X7194404Y4252486D01*
X7193772Y4253308D01*
X7193401Y4253593D01*
X7193535Y4253987D01*
X7195338D01*
X7197324Y4252000D01*
X7197129Y4251528D01*
X7196993Y4250500D01*
X7197129Y4249472D01*
X7197526Y4248515D01*
X7198157Y4247692D01*
X7198979Y4247061D01*
X7199937Y4246664D01*
X7200964Y4246529D01*
X7201992Y4246664D01*
X7202950Y4247061D01*
X7203773Y4247692D01*
X7204404Y4248515D01*
X7204800Y4249472D01*
X7204935Y4250500D01*
X7204800Y4251528D01*
X7204404Y4252486D01*
X7203773Y4253308D01*
X7202950Y4253939D01*
X7201992Y4254336D01*
X7200964Y4254471D01*
X7199937Y4254336D01*
X7199464Y4254140D01*
X7197034Y4256570D01*
X7196544Y4256898D01*
X7195965Y4257013D01*
X7195965Y4257013D01*
X7193535D01*
X7193401Y4257407D01*
X7193772Y4257692D01*
X7194404Y4258514D01*
X7194801Y4259472D01*
X7194936Y4260500D01*
X7194801Y4261528D01*
X7194404Y4262486D01*
X7193772Y4263308D01*
X7192950Y4263939D01*
X7191992Y4264336D01*
X7190965Y4264471D01*
X7189937Y4264336D01*
X7188979Y4263939D01*
X7188157Y4263308D01*
X7187526Y4262486D01*
X7187129Y4261528D01*
X7186993Y4260500D01*
X7187129Y4259472D01*
X7187526Y4258514D01*
X7188157Y4257692D01*
X7188377Y4257523D01*
X7188267Y4257111D01*
X7188026Y4257079D01*
X7176978Y4268127D01*
Y4429803D01*
X7177058Y4429856D01*
X7177451Y4429646D01*
Y4280000D01*
X7177451Y4280000D01*
X7177567Y4279421D01*
X7177895Y4278930D01*
X7187095Y4269729D01*
X7187129Y4269472D01*
X7187526Y4268515D01*
X7188157Y4267692D01*
X7188979Y4267061D01*
X7189937Y4266664D01*
X7190965Y4266529D01*
X7191992Y4266664D01*
X7192950Y4267061D01*
X7193772Y4267692D01*
X7194404Y4268515D01*
X7194801Y4269472D01*
X7194936Y4270500D01*
X7194801Y4271528D01*
X7194404Y4272485D01*
X7193772Y4273308D01*
X7192950Y4273939D01*
X7191992Y4274336D01*
X7190965Y4274471D01*
X7189937Y4274336D01*
X7188979Y4273939D01*
X7188157Y4273308D01*
X7187819Y4273286D01*
X7180478Y4280627D01*
Y4288345D01*
X7180872Y4288464D01*
X7180894Y4288430D01*
X7187325Y4282000D01*
X7187129Y4281528D01*
X7186993Y4280500D01*
X7187129Y4279472D01*
X7187526Y4278514D01*
X7188157Y4277692D01*
X7188979Y4277061D01*
X7189937Y4276664D01*
X7190965Y4276529D01*
X7191992Y4276664D01*
X7192950Y4277061D01*
X7193772Y4277692D01*
X7194404Y4278514D01*
X7194801Y4279472D01*
X7194936Y4280500D01*
X7194801Y4281528D01*
X7194404Y4282486D01*
X7193772Y4283308D01*
X7192950Y4283939D01*
X7191992Y4284336D01*
X7190965Y4284471D01*
X7189937Y4284336D01*
X7189465Y4284140D01*
X7183478Y4290127D01*
Y4323864D01*
X7183871Y4323998D01*
X7183996Y4323836D01*
Y4325500D01*
Y4327164D01*
X7183871Y4327002D01*
X7183478Y4327135D01*
Y4429094D01*
X7194371Y4439987D01*
X7214964D01*
X7214964Y4439987D01*
X7215543Y4440102D01*
X7216035Y4440430D01*
X7226035Y4450430D01*
X7226035Y4450430D01*
X7226363Y4450921D01*
X7226478Y4451500D01*
X7226478Y4451500D01*
Y4467500D01*
X7226363Y4468079D01*
X7226035Y4468570D01*
X7226035Y4468570D01*
X7220535Y4474070D01*
X7220044Y4474398D01*
X7219465Y4474513D01*
X7219465Y4474513D01*
X7178964D01*
X7178385Y4474398D01*
X7177945Y4474104D01*
X7177750Y4474145D01*
X7177528Y4474260D01*
X7177473Y4474672D01*
X7177214Y4475298D01*
X7176801Y4475837D01*
X7176263Y4476249D01*
X7175637Y4476508D01*
X7174965Y4476597D01*
X7174293Y4476508D01*
X7173872Y4476334D01*
X7173478Y4476575D01*
Y4478873D01*
X7176591Y4481987D01*
X7216464D01*
X7216464Y4481987D01*
X7217044Y4482102D01*
X7217535Y4482430D01*
X7224035Y4488930D01*
X7224035Y4488930D01*
X7224363Y4489421D01*
X7224478Y4490000D01*
X7224478Y4490000D01*
Y4506500D01*
X7224363Y4507079D01*
X7224035Y4507570D01*
X7224035Y4507570D01*
X7218034Y4513570D01*
X7217544Y4513898D01*
X7216965Y4514013D01*
X7216965Y4514013D01*
X7204022D01*
X7203944Y4514407D01*
X7204263Y4514539D01*
X7204629Y4514820D01*
X7202965D01*
Y4518757D01*
X7204629D01*
X7204263Y4519038D01*
X7203637Y4519297D01*
X7202965Y4519386D01*
X7202293Y4519297D01*
X7202202Y4519259D01*
X7201775Y4519509D01*
X7201759Y4519654D01*
X7203091Y4520987D01*
X7209965D01*
X7209965Y4520987D01*
X7210544Y4521102D01*
X7211034Y4521430D01*
X7217035Y4527430D01*
X7217035Y4527430D01*
X7217363Y4527921D01*
X7217478Y4528500D01*
Y4539000D01*
X7217363Y4539579D01*
X7217035Y4540070D01*
X7217035Y4540070D01*
X7211034Y4546070D01*
X7210544Y4546398D01*
X7209965Y4546513D01*
X7209965Y4546513D01*
X7182964D01*
X7182385Y4546398D01*
X7181895Y4546070D01*
X7181895Y4546070D01*
X7180027Y4544203D01*
X7179848Y4544230D01*
X7179678Y4544654D01*
X7179713Y4544701D01*
X7179973Y4545328D01*
X7180061Y4546000D01*
X7179973Y4546672D01*
X7179713Y4547298D01*
X7179433Y4547664D01*
Y4546000D01*
X7175496D01*
Y4547664D01*
X7175372Y4547502D01*
X7174978Y4547636D01*
Y4560373D01*
X7179591Y4564987D01*
X7200964D01*
X7200964Y4564987D01*
X7201543Y4565102D01*
X7202035Y4565430D01*
X7205534Y4568930D01*
X7205534Y4568930D01*
X7205862Y4569421D01*
X7205978Y4570000D01*
X7205978Y4570000D01*
Y4570436D01*
X7206290Y4570675D01*
X7206700Y4571209D01*
X7206958Y4571832D01*
X7207046Y4572500D01*
X7206958Y4573168D01*
X7206700Y4573791D01*
X7206290Y4574325D01*
X7205755Y4574735D01*
X7205132Y4574993D01*
X7204465Y4575081D01*
X7203796Y4574993D01*
X7203174Y4574735D01*
X7202640Y4574325D01*
X7202229Y4573791D01*
X7201971Y4573168D01*
X7201884Y4572500D01*
X7201971Y4571832D01*
X7202229Y4571209D01*
X7202640Y4570675D01*
X7202662Y4570337D01*
X7200338Y4568013D01*
X7187478D01*
Y4569436D01*
X7187790Y4569675D01*
X7188200Y4570210D01*
X7188457Y4570832D01*
X7188546Y4571500D01*
X7188457Y4572168D01*
X7188282Y4572593D01*
X7188519Y4572987D01*
X7193338D01*
X7193935Y4572390D01*
X7193884Y4572000D01*
X7193971Y4571332D01*
X7194229Y4570709D01*
X7194640Y4570175D01*
X7195174Y4569765D01*
X7195796Y4569507D01*
X7196465Y4569419D01*
X7197133Y4569507D01*
X7197755Y4569765D01*
X7198289Y4570175D01*
X7198700Y4570709D01*
X7198958Y4571332D01*
X7199046Y4572000D01*
X7198958Y4572668D01*
X7198700Y4573291D01*
X7198289Y4573825D01*
X7197755Y4574235D01*
X7197133Y4574493D01*
X7196465Y4574581D01*
X7196075Y4574530D01*
X7195035Y4575570D01*
X7195000Y4575593D01*
X7195119Y4575987D01*
X7206837D01*
X7210934Y4571890D01*
X7210883Y4571500D01*
X7210971Y4570832D01*
X7211229Y4570210D01*
X7211639Y4569675D01*
X7212174Y4569265D01*
X7212797Y4569007D01*
X7213464Y4568919D01*
X7214133Y4569007D01*
X7214755Y4569265D01*
X7215290Y4569675D01*
X7215700Y4570210D01*
X7215958Y4570832D01*
X7216045Y4571500D01*
X7215958Y4572168D01*
X7215700Y4572791D01*
X7215290Y4573325D01*
X7214755Y4573735D01*
X7214133Y4573993D01*
X7213464Y4574081D01*
X7213075Y4574030D01*
X7208535Y4578570D01*
X7208044Y4578898D01*
X7207465Y4579013D01*
X7207465Y4579013D01*
X7140536D01*
X7140305Y4579315D01*
X7139770Y4579725D01*
X7139148Y4579983D01*
X7138480Y4580071D01*
D02*
G37*
G36*
X7284145Y4575230D02*
X7283385D01*
Y4574471D01*
X7283815Y4574801D01*
X7284145Y4575230D01*
D02*
G37*
G36*
X7279449D02*
X7278690D01*
X7279019Y4574801D01*
X7279449Y4574472D01*
Y4575230D01*
D02*
G37*
G36*
X7013996Y4549032D02*
X7012502D01*
X7012511Y4549007D01*
X7013145Y4548181D01*
X7013971Y4547547D01*
X7013996Y4547537D01*
Y4549032D01*
D02*
G37*
G36*
X7019427D02*
X7017933D01*
Y4547537D01*
X7017958Y4547547D01*
X7018784Y4548181D01*
X7019418Y4549007D01*
X7019427Y4549032D01*
D02*
G37*
G36*
X7291417Y4555574D02*
X7290543Y4555459D01*
X7289729Y4555122D01*
X7289030Y4554586D01*
X7288494Y4553886D01*
X7288157Y4553072D01*
X7288042Y4552199D01*
X7288157Y4551325D01*
X7288494Y4550511D01*
X7289030Y4549812D01*
X7289729Y4549276D01*
X7290543Y4548939D01*
X7291417Y4548824D01*
X7292291Y4548939D01*
X7293105Y4549276D01*
X7293804Y4549812D01*
X7294341Y4550511D01*
X7294678Y4551325D01*
X7294793Y4552199D01*
X7294678Y4553072D01*
X7294341Y4553886D01*
X7293804Y4554586D01*
X7293105Y4555122D01*
X7292291Y4555459D01*
X7291417Y4555574D01*
D02*
G37*
G36*
X7279449Y4545230D02*
X7278690D01*
X7279019Y4544801D01*
X7279449Y4544471D01*
Y4545230D01*
D02*
G37*
G36*
X7291417Y4545574D02*
X7290543Y4545459D01*
X7289729Y4545122D01*
X7289030Y4544585D01*
X7288494Y4543887D01*
X7288157Y4543073D01*
X7288042Y4542199D01*
X7288157Y4541325D01*
X7288494Y4540511D01*
X7289030Y4539812D01*
X7289729Y4539276D01*
X7290543Y4538939D01*
X7291417Y4538824D01*
X7292291Y4538939D01*
X7293105Y4539276D01*
X7293804Y4539812D01*
X7294341Y4540511D01*
X7294678Y4541325D01*
X7294793Y4542199D01*
X7294678Y4543073D01*
X7294341Y4543887D01*
X7293804Y4544585D01*
X7293105Y4545122D01*
X7292291Y4545459D01*
X7291417Y4545574D01*
D02*
G37*
G36*
X7284145Y4545230D02*
X7283385D01*
Y4544471D01*
X7283815Y4544801D01*
X7284145Y4545230D01*
D02*
G37*
G36*
X7279449Y4549926D02*
X7279019Y4549597D01*
X7278690Y4549168D01*
X7279449D01*
Y4549926D01*
D02*
G37*
G36*
Y4555230D02*
X7278690D01*
X7279019Y4554801D01*
X7279449Y4554472D01*
Y4555230D01*
D02*
G37*
G36*
X7015965Y4564971D02*
X7014937Y4564836D01*
X7013979Y4564439D01*
X7013157Y4563808D01*
X7012526Y4562986D01*
X7012129Y4562028D01*
X7011993Y4561000D01*
X7012129Y4559972D01*
X7012526Y4559015D01*
X7013157Y4558192D01*
X7013979Y4557561D01*
X7014937Y4557164D01*
X7015965Y4557029D01*
X7016992Y4557164D01*
X7017950Y4557561D01*
X7018772Y4558192D01*
X7019404Y4559015D01*
X7019801Y4559972D01*
X7019936Y4561000D01*
X7019801Y4562028D01*
X7019404Y4562986D01*
X7018772Y4563808D01*
X7017950Y4564439D01*
X7016992Y4564836D01*
X7015965Y4564971D01*
D02*
G37*
G36*
X7291417Y4565574D02*
X7290543Y4565459D01*
X7289729Y4565122D01*
X7289030Y4564585D01*
X7288494Y4563887D01*
X7288157Y4563073D01*
X7288042Y4562199D01*
X7288157Y4561325D01*
X7288494Y4560511D01*
X7289030Y4559812D01*
X7289729Y4559276D01*
X7290543Y4558939D01*
X7291417Y4558824D01*
X7292291Y4558939D01*
X7293105Y4559276D01*
X7293804Y4559812D01*
X7294341Y4560511D01*
X7294678Y4561325D01*
X7294793Y4562199D01*
X7294678Y4563073D01*
X7294341Y4563887D01*
X7293804Y4564585D01*
X7293105Y4565122D01*
X7292291Y4565459D01*
X7291417Y4565574D01*
D02*
G37*
G36*
X7284145Y4555230D02*
X7283385D01*
Y4554471D01*
X7283815Y4554801D01*
X7284145Y4555230D01*
D02*
G37*
G36*
X7283385Y4549926D02*
Y4549168D01*
X7284145D01*
X7283815Y4549597D01*
X7283385Y4549926D01*
D02*
G37*
G36*
X7013996Y4554463D02*
X7013971Y4554453D01*
X7013145Y4553819D01*
X7012511Y4552993D01*
X7012502Y4552969D01*
X7013996D01*
Y4554463D01*
D02*
G37*
G36*
X7017933Y4554463D02*
Y4552969D01*
X7019427D01*
X7019418Y4552993D01*
X7018784Y4553819D01*
X7017958Y4554453D01*
X7017933Y4554463D01*
D02*
G37*
G36*
X7018427Y4391531D02*
X7016933D01*
Y4390037D01*
X7016958Y4390047D01*
X7017783Y4390681D01*
X7018417Y4391507D01*
X7018427Y4391531D01*
D02*
G37*
G36*
X7012996D02*
X7011501D01*
X7011512Y4391507D01*
X7012145Y4390681D01*
X7012971Y4390047D01*
X7012996Y4390037D01*
Y4391531D01*
D02*
G37*
G36*
X7220901Y4369937D02*
X7213028D01*
Y4362063D01*
X7220901D01*
Y4369937D01*
D02*
G37*
G36*
X7325465Y4299971D02*
X7324437Y4299836D01*
X7323479Y4299439D01*
X7322657Y4298808D01*
X7322025Y4297985D01*
X7321629Y4297028D01*
X7321494Y4296000D01*
X7321629Y4294972D01*
X7322025Y4294014D01*
X7322657Y4293192D01*
X7323479Y4292561D01*
X7324437Y4292164D01*
X7325465Y4292029D01*
X7326492Y4292164D01*
X7327450Y4292561D01*
X7328272Y4293192D01*
X7328903Y4294014D01*
X7329300Y4294972D01*
X7329436Y4296000D01*
X7329300Y4297028D01*
X7328903Y4297985D01*
X7328272Y4298808D01*
X7327450Y4299439D01*
X7326492Y4299836D01*
X7325465Y4299971D01*
D02*
G37*
G36*
Y4289971D02*
X7324437Y4289836D01*
X7323479Y4289439D01*
X7322657Y4288808D01*
X7322025Y4287986D01*
X7321629Y4287028D01*
X7321494Y4286000D01*
X7321629Y4284972D01*
X7322025Y4284015D01*
X7322657Y4283192D01*
X7323479Y4282561D01*
X7324437Y4282164D01*
X7325465Y4282029D01*
X7326492Y4282164D01*
X7327450Y4282561D01*
X7328272Y4283192D01*
X7328903Y4284015D01*
X7329300Y4284972D01*
X7329436Y4286000D01*
X7329300Y4287028D01*
X7328903Y4287986D01*
X7328272Y4288808D01*
X7327450Y4289439D01*
X7326492Y4289836D01*
X7325465Y4289971D01*
D02*
G37*
G36*
X7019402Y4260437D02*
X7011527D01*
Y4252563D01*
X7019402D01*
Y4260437D01*
D02*
G37*
G36*
X7012996Y4396963D02*
X7012971Y4396953D01*
X7012145Y4396319D01*
X7011512Y4395493D01*
X7011501Y4395468D01*
X7012996D01*
Y4396963D01*
D02*
G37*
G36*
X7195965Y4430581D02*
X7195296Y4430493D01*
X7194674Y4430235D01*
X7194139Y4429825D01*
X7193729Y4429291D01*
X7193472Y4428668D01*
X7193383Y4428000D01*
X7193472Y4427332D01*
X7193729Y4426709D01*
X7194139Y4426175D01*
X7194451Y4425936D01*
Y4399000D01*
X7194451Y4399000D01*
X7194566Y4398421D01*
X7194894Y4397930D01*
X7199435Y4393390D01*
X7199384Y4393000D01*
X7199435Y4392610D01*
X7198395Y4391570D01*
X7198067Y4391079D01*
X7197952Y4390500D01*
X7197952Y4390500D01*
Y4373500D01*
X7197952Y4373500D01*
X7198067Y4372921D01*
X7198395Y4372430D01*
X7203324Y4367500D01*
X7203129Y4367028D01*
X7202994Y4366000D01*
X7203129Y4364972D01*
X7203526Y4364014D01*
X7204156Y4363192D01*
X7204979Y4362561D01*
X7205936Y4362164D01*
X7206965Y4362029D01*
X7207993Y4362164D01*
X7208950Y4362561D01*
X7209772Y4363192D01*
X7210403Y4364014D01*
X7210800Y4364972D01*
X7210935Y4366000D01*
X7210800Y4367028D01*
X7210403Y4367986D01*
X7209772Y4368808D01*
X7208950Y4369439D01*
X7207993Y4369836D01*
X7206965Y4369971D01*
X7205936Y4369836D01*
X7205465Y4369640D01*
X7200978Y4374127D01*
Y4389873D01*
X7201575Y4390470D01*
X7201965Y4390419D01*
X7202633Y4390507D01*
X7203255Y4390765D01*
X7203790Y4391175D01*
X7204200Y4391710D01*
X7204458Y4392332D01*
X7204546Y4393000D01*
X7204458Y4393668D01*
X7204200Y4394291D01*
X7203790Y4394825D01*
X7203255Y4395235D01*
X7202633Y4395493D01*
X7201965Y4395581D01*
X7201575Y4395530D01*
X7197478Y4399627D01*
Y4425936D01*
X7197790Y4426175D01*
X7198200Y4426709D01*
X7198457Y4427332D01*
X7198546Y4428000D01*
X7198457Y4428668D01*
X7198200Y4429291D01*
X7197790Y4429825D01*
X7197255Y4430235D01*
X7196632Y4430493D01*
X7195965Y4430581D01*
D02*
G37*
G36*
X7014964Y4407471D02*
X7013937Y4407336D01*
X7012979Y4406939D01*
X7012157Y4406308D01*
X7011526Y4405486D01*
X7011129Y4404528D01*
X7010994Y4403500D01*
X7011129Y4402472D01*
X7011526Y4401514D01*
X7012157Y4400692D01*
X7012979Y4400061D01*
X7013937Y4399664D01*
X7014964Y4399529D01*
X7015992Y4399664D01*
X7016950Y4400061D01*
X7017773Y4400692D01*
X7018404Y4401514D01*
X7018599Y4401987D01*
X7144337D01*
X7149435Y4396890D01*
X7149384Y4396500D01*
X7149471Y4395832D01*
X7149729Y4395210D01*
X7150140Y4394675D01*
X7150674Y4394265D01*
X7151296Y4394007D01*
X7151965Y4393919D01*
X7152633Y4394007D01*
X7153255Y4394265D01*
X7153790Y4394675D01*
X7154200Y4395210D01*
X7154458Y4395832D01*
X7154546Y4396500D01*
X7154458Y4397168D01*
X7154200Y4397791D01*
X7153790Y4398325D01*
X7153255Y4398735D01*
X7152633Y4398993D01*
X7151965Y4399081D01*
X7151575Y4399030D01*
X7146035Y4404570D01*
X7145544Y4404898D01*
X7144965Y4405013D01*
X7144965Y4405013D01*
X7018599D01*
X7018404Y4405486D01*
X7017773Y4406308D01*
X7016950Y4406939D01*
X7015992Y4407336D01*
X7014964Y4407471D01*
D02*
G37*
G36*
X7281417Y4400993D02*
X7280544Y4400879D01*
X7279729Y4400541D01*
X7279031Y4400005D01*
X7278494Y4399306D01*
X7278157Y4398492D01*
X7278042Y4397618D01*
X7278157Y4396745D01*
X7278494Y4395930D01*
X7279031Y4395231D01*
X7279729Y4394695D01*
X7280544Y4394358D01*
X7281417Y4394243D01*
X7282291Y4394358D01*
X7283105Y4394695D01*
X7283804Y4395231D01*
X7284341Y4395930D01*
X7284678Y4396745D01*
X7284792Y4397618D01*
X7284678Y4398492D01*
X7284341Y4399306D01*
X7283804Y4400005D01*
X7283105Y4400541D01*
X7282291Y4400879D01*
X7281417Y4400993D01*
D02*
G37*
G36*
X7200964Y4284471D02*
X7199937Y4284336D01*
X7198979Y4283939D01*
X7198157Y4283308D01*
X7197526Y4282486D01*
X7197129Y4281528D01*
X7196993Y4280500D01*
X7197129Y4279472D01*
X7197526Y4278514D01*
X7198157Y4277692D01*
X7198979Y4277061D01*
X7199451Y4276865D01*
Y4274134D01*
X7198979Y4273939D01*
X7198157Y4273308D01*
X7197526Y4272485D01*
X7197129Y4271528D01*
X7196993Y4270500D01*
X7197129Y4269472D01*
X7197526Y4268515D01*
X7198157Y4267692D01*
X7198979Y4267061D01*
X7199451Y4266866D01*
Y4264135D01*
X7198979Y4263939D01*
X7198157Y4263308D01*
X7197526Y4262486D01*
X7197129Y4261528D01*
X7196993Y4260500D01*
X7197129Y4259472D01*
X7197526Y4258514D01*
X7198157Y4257692D01*
X7198979Y4257061D01*
X7199937Y4256664D01*
X7200964Y4256529D01*
X7201992Y4256664D01*
X7202950Y4257061D01*
X7203773Y4257692D01*
X7204404Y4258514D01*
X7204800Y4259472D01*
X7204935Y4260500D01*
X7204800Y4261528D01*
X7204404Y4262486D01*
X7203773Y4263308D01*
X7202950Y4263939D01*
X7202478Y4264135D01*
Y4266866D01*
X7202950Y4267061D01*
X7203773Y4267692D01*
X7204404Y4268515D01*
X7204800Y4269472D01*
X7204935Y4270500D01*
X7204800Y4271528D01*
X7204404Y4272485D01*
X7203773Y4273308D01*
X7202950Y4273939D01*
X7202478Y4274134D01*
Y4276865D01*
X7202950Y4277061D01*
X7203773Y4277692D01*
X7204404Y4278514D01*
X7204800Y4279472D01*
X7204935Y4280500D01*
X7204800Y4281528D01*
X7204404Y4282486D01*
X7203773Y4283308D01*
X7202950Y4283939D01*
X7201992Y4284336D01*
X7200964Y4284471D01*
D02*
G37*
G36*
X7291417Y4395993D02*
X7290543Y4395879D01*
X7289729Y4395541D01*
X7289030Y4395005D01*
X7288494Y4394306D01*
X7288157Y4393492D01*
X7288042Y4392618D01*
X7288157Y4391745D01*
X7288494Y4390931D01*
X7289030Y4390231D01*
X7289729Y4389695D01*
X7289904Y4389623D01*
Y4382032D01*
X7289904Y4382032D01*
X7290019Y4381453D01*
X7290347Y4380961D01*
X7302379Y4368930D01*
X7302869Y4368602D01*
X7303448Y4368487D01*
X7303449Y4368487D01*
X7312838D01*
X7320451Y4360873D01*
Y4309500D01*
X7320451Y4309500D01*
X7320567Y4308921D01*
X7320895Y4308430D01*
X7321528Y4307797D01*
Y4302063D01*
X7329401D01*
Y4309937D01*
X7323668D01*
X7323478Y4310127D01*
Y4361500D01*
X7323478Y4361500D01*
X7323363Y4362079D01*
X7323035Y4362570D01*
X7323035Y4362570D01*
X7314535Y4371070D01*
X7314043Y4371398D01*
X7313464Y4371513D01*
X7313464Y4371513D01*
X7304076D01*
X7292931Y4382658D01*
Y4389623D01*
X7293105Y4389695D01*
X7293804Y4390231D01*
X7294341Y4390931D01*
X7294678Y4391745D01*
X7294793Y4392618D01*
X7294678Y4393492D01*
X7294341Y4394306D01*
X7293804Y4395005D01*
X7293105Y4395541D01*
X7292291Y4395879D01*
X7291417Y4395993D01*
D02*
G37*
G36*
X7018427Y4337031D02*
X7016933D01*
Y4335537D01*
X7016958Y4335547D01*
X7017783Y4336181D01*
X7018417Y4337007D01*
X7018427Y4337031D01*
D02*
G37*
G36*
X7012996D02*
X7011501D01*
X7011512Y4337007D01*
X7012145Y4336181D01*
X7012971Y4335547D01*
X7012996Y4335537D01*
Y4337031D01*
D02*
G37*
G36*
X7014964Y4322971D02*
X7013937Y4322836D01*
X7012979Y4322439D01*
X7012157Y4321808D01*
X7011526Y4320985D01*
X7011129Y4320028D01*
X7010994Y4319000D01*
X7011129Y4317972D01*
X7011526Y4317014D01*
X7012157Y4316192D01*
X7012979Y4315561D01*
X7013937Y4315164D01*
X7014964Y4315029D01*
X7015992Y4315164D01*
X7016950Y4315561D01*
X7017773Y4316192D01*
X7018404Y4317014D01*
X7018800Y4317972D01*
X7018935Y4319000D01*
X7018800Y4320028D01*
X7018404Y4320985D01*
X7017773Y4321808D01*
X7016950Y4322439D01*
X7015992Y4322836D01*
X7014964Y4322971D01*
D02*
G37*
G36*
X7327433Y4259463D02*
Y4257969D01*
X7328928D01*
X7328917Y4257993D01*
X7328284Y4258819D01*
X7327458Y4259453D01*
X7327433Y4259463D01*
D02*
G37*
G36*
X7014964Y4332971D02*
X7013937Y4332836D01*
X7012979Y4332439D01*
X7012157Y4331808D01*
X7011526Y4330986D01*
X7011129Y4330028D01*
X7010994Y4329000D01*
X7011129Y4327972D01*
X7011526Y4327015D01*
X7012157Y4326192D01*
X7012979Y4325561D01*
X7013937Y4325164D01*
X7014964Y4325029D01*
X7015992Y4325164D01*
X7016950Y4325561D01*
X7017773Y4326192D01*
X7018404Y4327015D01*
X7018800Y4327972D01*
X7018935Y4329000D01*
X7018800Y4330028D01*
X7018404Y4330986D01*
X7017773Y4331808D01*
X7016950Y4332439D01*
X7015992Y4332836D01*
X7014964Y4332971D01*
D02*
G37*
G36*
X7208965Y4358581D02*
X7208296Y4358493D01*
X7207674Y4358235D01*
X7207140Y4357825D01*
X7206729Y4357291D01*
X7206471Y4356668D01*
X7206384Y4356000D01*
X7206471Y4355332D01*
X7206729Y4354709D01*
X7207140Y4354175D01*
X7207674Y4353765D01*
X7208296Y4353507D01*
X7208965Y4353419D01*
X7209633Y4353507D01*
X7210255Y4353765D01*
X7210789Y4354175D01*
X7211029Y4354487D01*
X7218338D01*
X7219434Y4353390D01*
X7219383Y4353000D01*
X7219472Y4352332D01*
X7219729Y4351709D01*
X7220139Y4351175D01*
X7220674Y4350765D01*
X7221297Y4350507D01*
X7221964Y4350419D01*
X7222633Y4350507D01*
X7223255Y4350765D01*
X7223790Y4351175D01*
X7224200Y4351709D01*
X7224458Y4352332D01*
X7224546Y4353000D01*
X7224458Y4353668D01*
X7224200Y4354291D01*
X7223790Y4354825D01*
X7223255Y4355235D01*
X7222633Y4355493D01*
X7221964Y4355581D01*
X7221575Y4355530D01*
X7220035Y4357070D01*
X7219543Y4357398D01*
X7218964Y4357513D01*
X7218964Y4357513D01*
X7211029D01*
X7210789Y4357825D01*
X7210255Y4358235D01*
X7209633Y4358493D01*
X7208965Y4358581D01*
D02*
G37*
G36*
X7323496Y4259463D02*
X7323471Y4259453D01*
X7322646Y4258819D01*
X7322012Y4257993D01*
X7322002Y4257969D01*
X7323496D01*
Y4259463D01*
D02*
G37*
G36*
X7018902Y4362937D02*
X7011028D01*
Y4355063D01*
X7018902D01*
Y4362937D01*
D02*
G37*
G36*
X7012996Y4342463D02*
X7012971Y4342453D01*
X7012145Y4341819D01*
X7011512Y4340993D01*
X7011501Y4340968D01*
X7012996D01*
Y4342463D01*
D02*
G37*
G36*
X7016933Y4342463D02*
Y4340968D01*
X7018428D01*
X7018417Y4340993D01*
X7017783Y4341819D01*
X7016958Y4342453D01*
X7016933Y4342463D01*
D02*
G37*
G36*
X7014964Y4352971D02*
X7013937Y4352836D01*
X7012979Y4352439D01*
X7012157Y4351808D01*
X7011526Y4350985D01*
X7011129Y4350028D01*
X7010994Y4349000D01*
X7011129Y4347972D01*
X7011526Y4347015D01*
X7012157Y4346192D01*
X7012979Y4345561D01*
X7013937Y4345164D01*
X7014964Y4345029D01*
X7015992Y4345164D01*
X7016950Y4345561D01*
X7017773Y4346192D01*
X7018404Y4347015D01*
X7018800Y4347972D01*
X7018935Y4349000D01*
X7018800Y4350028D01*
X7018404Y4350985D01*
X7017773Y4351808D01*
X7016950Y4352439D01*
X7015992Y4352836D01*
X7014964Y4352971D01*
D02*
G37*
G36*
X7325465Y4279971D02*
X7324437Y4279836D01*
X7323479Y4279439D01*
X7322657Y4278808D01*
X7322025Y4277985D01*
X7321629Y4277028D01*
X7321494Y4276000D01*
X7321629Y4274972D01*
X7322025Y4274015D01*
X7322657Y4273192D01*
X7323479Y4272561D01*
X7324437Y4272164D01*
X7325465Y4272029D01*
X7326492Y4272164D01*
X7327450Y4272561D01*
X7328272Y4273192D01*
X7328903Y4274015D01*
X7329300Y4274972D01*
X7329436Y4276000D01*
X7329300Y4277028D01*
X7328903Y4277985D01*
X7328272Y4278808D01*
X7327450Y4279439D01*
X7326492Y4279836D01*
X7325465Y4279971D01*
D02*
G37*
G36*
X7215394Y4434584D02*
X7215394Y4434584D01*
X7192008D01*
X7192008Y4434584D01*
X7191429Y4434469D01*
X7190938Y4434141D01*
X7190938Y4434141D01*
X7190475Y4433678D01*
X7190433Y4433683D01*
X7189765Y4433596D01*
X7189143Y4433338D01*
X7188608Y4432927D01*
X7188197Y4432393D01*
X7187940Y4431770D01*
X7187852Y4431102D01*
X7187857Y4431060D01*
X7185895Y4429098D01*
X7185567Y4428607D01*
X7185452Y4428028D01*
X7185452Y4428027D01*
Y4395564D01*
X7185139Y4395325D01*
X7184729Y4394791D01*
X7184471Y4394168D01*
X7184383Y4393500D01*
X7184471Y4392832D01*
X7184729Y4392209D01*
X7185139Y4391675D01*
X7185674Y4391265D01*
X7186297Y4391007D01*
X7186964Y4390919D01*
X7187633Y4391007D01*
X7188255Y4391265D01*
X7188789Y4391675D01*
X7189200Y4392209D01*
X7189458Y4392832D01*
X7189545Y4393500D01*
X7189458Y4394168D01*
X7189200Y4394791D01*
X7188789Y4395325D01*
X7188478Y4395564D01*
Y4427401D01*
X7189709Y4428632D01*
X7189765Y4428609D01*
X7190433Y4428521D01*
X7191101Y4428609D01*
X7191724Y4428867D01*
X7192258Y4429277D01*
X7192668Y4429812D01*
X7192926Y4430434D01*
X7193015Y4431102D01*
X7192993Y4431261D01*
X7193253Y4431557D01*
X7206821D01*
X7207016Y4431164D01*
X7206729Y4430791D01*
X7206471Y4430168D01*
X7206384Y4429500D01*
X7206471Y4428832D01*
X7206729Y4428209D01*
X7207140Y4427675D01*
X7207451Y4427436D01*
Y4391500D01*
X7207451Y4391500D01*
X7207566Y4390921D01*
X7207894Y4390430D01*
X7209895Y4388430D01*
X7209895Y4388430D01*
X7210385Y4388102D01*
X7210965Y4387987D01*
X7210965Y4387987D01*
X7223338D01*
X7249895Y4361430D01*
X7249895Y4361430D01*
X7250385Y4361102D01*
X7250964Y4360987D01*
X7250964Y4360987D01*
X7307838D01*
X7312581Y4356243D01*
Y4240782D01*
X7312218Y4240631D01*
X7311112Y4241736D01*
X7311164Y4242126D01*
X7311076Y4242794D01*
X7310818Y4243417D01*
X7310408Y4243951D01*
X7310096Y4244190D01*
Y4247500D01*
X7310096Y4247500D01*
X7310096Y4247500D01*
Y4248991D01*
X7311034Y4249930D01*
X7311034Y4249930D01*
X7311362Y4250421D01*
X7311478Y4251000D01*
X7311478Y4251000D01*
Y4352217D01*
X7311362Y4352796D01*
X7311034Y4353287D01*
X7311034Y4353287D01*
X7309303Y4355018D01*
X7309417Y4355292D01*
X7309538Y4356216D01*
X7309417Y4357141D01*
X7309060Y4358004D01*
X7308492Y4358744D01*
X7307751Y4359312D01*
X7306889Y4359669D01*
X7305965Y4359790D01*
X7305040Y4359669D01*
X7304178Y4359312D01*
X7303438Y4358744D01*
X7302869Y4358004D01*
X7302512Y4357141D01*
X7302391Y4356216D01*
X7302512Y4355292D01*
X7302869Y4354430D01*
X7303438Y4353690D01*
X7304178Y4353122D01*
X7305040Y4352765D01*
X7305965Y4352643D01*
X7306889Y4352765D01*
X7307163Y4352878D01*
X7308451Y4351590D01*
Y4341503D01*
X7308098Y4341329D01*
X7307751Y4341595D01*
X7306889Y4341952D01*
X7305965Y4342074D01*
X7305040Y4341952D01*
X7304178Y4341595D01*
X7303438Y4341027D01*
X7302869Y4340287D01*
X7302512Y4339425D01*
X7302391Y4338500D01*
X7302512Y4337575D01*
X7302869Y4336713D01*
X7303438Y4335973D01*
X7304178Y4335405D01*
X7305040Y4335048D01*
X7305965Y4334926D01*
X7306889Y4335048D01*
X7307751Y4335405D01*
X7308098Y4335671D01*
X7308451Y4335497D01*
Y4272557D01*
X7308057Y4272531D01*
X7307973Y4273172D01*
X7307714Y4273798D01*
X7307433Y4274164D01*
Y4272500D01*
Y4270836D01*
X7307714Y4271201D01*
X7307973Y4271828D01*
X7308057Y4272469D01*
X7308451Y4272443D01*
Y4251627D01*
X7307521Y4250697D01*
X7307043Y4251016D01*
X7306464Y4251131D01*
X7306464Y4251131D01*
X7270261D01*
X7267097Y4254295D01*
X7267148Y4254685D01*
X7267060Y4255353D01*
X7266802Y4255976D01*
X7266392Y4256510D01*
X7265858Y4256920D01*
X7265235Y4257178D01*
X7264567Y4257266D01*
X7263899Y4257178D01*
X7263277Y4256920D01*
X7262742Y4256510D01*
X7262331Y4255976D01*
X7262142Y4255519D01*
X7261710Y4255395D01*
X7260843Y4256262D01*
X7273067Y4268487D01*
X7273900D01*
X7274139Y4268175D01*
X7274674Y4267765D01*
X7275297Y4267507D01*
X7275964Y4267419D01*
X7276633Y4267507D01*
X7277255Y4267765D01*
X7277790Y4268175D01*
X7278200Y4268710D01*
X7278458Y4269332D01*
X7278545Y4270000D01*
X7278458Y4270668D01*
X7278200Y4271291D01*
X7277790Y4271825D01*
X7277255Y4272235D01*
X7276633Y4272493D01*
X7275964Y4272581D01*
X7275297Y4272493D01*
X7274674Y4272235D01*
X7274139Y4271825D01*
X7273900Y4271513D01*
X7272441D01*
X7272441Y4271513D01*
X7271862Y4271398D01*
X7271371Y4271070D01*
X7254814Y4254513D01*
X7248592D01*
X7246447Y4256658D01*
X7245956Y4256986D01*
X7245377Y4257101D01*
X7245377Y4257101D01*
X7233529D01*
X7233289Y4257413D01*
X7232755Y4257823D01*
X7232133Y4258081D01*
X7231464Y4258169D01*
X7230797Y4258081D01*
X7230174Y4257823D01*
X7229639Y4257413D01*
X7229229Y4256878D01*
X7228971Y4256256D01*
X7228883Y4255588D01*
X7228971Y4254919D01*
X7229229Y4254297D01*
X7229639Y4253762D01*
X7230103Y4253407D01*
X7230051Y4253116D01*
X7229999Y4253013D01*
X7227592D01*
X7225978Y4254627D01*
Y4270373D01*
X7229301Y4273697D01*
X7229639Y4273675D01*
X7230174Y4273265D01*
X7230797Y4273007D01*
X7231464Y4272919D01*
X7232133Y4273007D01*
X7232755Y4273265D01*
X7233289Y4273675D01*
X7233529Y4273987D01*
X7265965D01*
X7265965Y4273987D01*
X7266544Y4274102D01*
X7267035Y4274430D01*
X7271591Y4278987D01*
X7281338D01*
X7283023Y4277301D01*
X7282972Y4276912D01*
X7283060Y4276244D01*
X7283318Y4275621D01*
X7283728Y4275087D01*
X7284262Y4274676D01*
X7284885Y4274418D01*
X7285553Y4274331D01*
X7286221Y4274418D01*
X7286844Y4274676D01*
X7287378Y4275087D01*
X7287788Y4275621D01*
X7288046Y4276244D01*
X7288134Y4276912D01*
X7288046Y4277580D01*
X7287788Y4278202D01*
X7287378Y4278737D01*
X7286844Y4279147D01*
X7286221Y4279405D01*
X7285553Y4279493D01*
X7285163Y4279441D01*
X7283035Y4281570D01*
X7282544Y4281898D01*
X7281965Y4282013D01*
X7281965Y4282013D01*
X7270965D01*
X7270965Y4282013D01*
X7270386Y4281898D01*
X7269894Y4281570D01*
X7269894Y4281570D01*
X7265337Y4277013D01*
X7233529D01*
X7233289Y4277325D01*
X7232755Y4277735D01*
X7232133Y4277993D01*
X7231464Y4278081D01*
X7230797Y4277993D01*
X7230174Y4277735D01*
X7229639Y4277325D01*
X7229400Y4277013D01*
X7228964D01*
X7228964Y4277013D01*
X7228385Y4276898D01*
X7227895Y4276570D01*
X7223395Y4272070D01*
X7223067Y4271579D01*
X7222952Y4271000D01*
X7222952Y4271000D01*
Y4254000D01*
X7222952Y4254000D01*
X7223067Y4253421D01*
X7223395Y4252930D01*
X7225894Y4250430D01*
X7225894Y4250430D01*
X7226385Y4250102D01*
X7226965Y4249987D01*
X7230927D01*
X7230953Y4249593D01*
X7230593Y4249546D01*
X7229967Y4249286D01*
X7229601Y4249006D01*
X7232929D01*
X7232564Y4249286D01*
X7231937Y4249546D01*
X7231577Y4249593D01*
X7231603Y4249987D01*
X7235338D01*
X7241895Y4243430D01*
X7241895Y4243430D01*
X7242385Y4243102D01*
X7242965Y4242987D01*
X7260338D01*
X7261478Y4241846D01*
Y4240332D01*
X7261167Y4240093D01*
X7260757Y4239558D01*
X7260499Y4238936D01*
X7260411Y4238268D01*
X7260499Y4237600D01*
X7260757Y4236977D01*
X7261167Y4236443D01*
X7261702Y4236032D01*
X7262324Y4235775D01*
X7262992Y4235686D01*
X7263660Y4235775D01*
X7264283Y4236032D01*
X7264817Y4236443D01*
X7265228Y4236977D01*
X7265485Y4237600D01*
X7265573Y4238268D01*
X7265485Y4238936D01*
X7265228Y4239558D01*
X7264817Y4240093D01*
X7264506Y4240332D01*
Y4242472D01*
X7264391Y4243052D01*
X7264062Y4243542D01*
X7264062Y4243542D01*
X7262035Y4245570D01*
X7261544Y4245898D01*
X7260965Y4246013D01*
X7260964Y4246013D01*
X7243591D01*
X7237035Y4252570D01*
X7236544Y4252898D01*
X7235965Y4253013D01*
X7235964Y4253013D01*
X7232931D01*
X7232877Y4253116D01*
X7232826Y4253407D01*
X7233289Y4253762D01*
X7233529Y4254074D01*
X7244750D01*
X7246895Y4251930D01*
X7246895Y4251930D01*
X7247385Y4251602D01*
X7247964Y4251487D01*
X7255441D01*
X7255441Y4251487D01*
X7256020Y4251602D01*
X7256511Y4251930D01*
X7258703Y4254122D01*
X7269894Y4242930D01*
X7270386Y4242602D01*
X7270965Y4242487D01*
X7270965Y4242487D01*
X7295643D01*
X7303220Y4234910D01*
X7303220Y4234910D01*
X7303710Y4234582D01*
X7304289Y4234467D01*
X7304289Y4234467D01*
X7306197D01*
X7306436Y4234155D01*
X7306852Y4233836D01*
X7306718Y4233443D01*
X7265569D01*
X7265329Y4233754D01*
X7264794Y4234164D01*
X7264172Y4234422D01*
X7263504Y4234510D01*
X7262836Y4234422D01*
X7262213Y4234164D01*
X7261679Y4233754D01*
X7261269Y4233220D01*
X7261011Y4232597D01*
X7260923Y4231929D01*
X7261011Y4231261D01*
X7261269Y4230639D01*
X7261679Y4230104D01*
X7261935Y4229907D01*
X7261802Y4229513D01*
X7259091D01*
X7251535Y4237070D01*
X7251044Y4237398D01*
X7250465Y4237513D01*
X7250465Y4237513D01*
X7233029D01*
X7232790Y4237825D01*
X7232255Y4238235D01*
X7231632Y4238493D01*
X7230965Y4238581D01*
X7230296Y4238493D01*
X7229674Y4238235D01*
X7229140Y4237825D01*
X7228729Y4237291D01*
X7228471Y4236668D01*
X7228384Y4236000D01*
X7228471Y4235332D01*
X7228729Y4234710D01*
X7229140Y4234175D01*
X7229674Y4233765D01*
X7230296Y4233507D01*
X7230965Y4233419D01*
X7231632Y4233507D01*
X7232255Y4233765D01*
X7232790Y4234175D01*
X7233029Y4234487D01*
X7249837D01*
X7257394Y4226930D01*
X7257394Y4226930D01*
X7257886Y4226602D01*
X7258465Y4226487D01*
X7258465Y4226487D01*
X7260314D01*
X7260458Y4226093D01*
X7260127Y4225661D01*
X7260066Y4225513D01*
X7233503D01*
X7233283Y4225907D01*
X7233473Y4226365D01*
X7233562Y4227037D01*
X7233473Y4227709D01*
X7233214Y4228336D01*
X7232933Y4228701D01*
Y4227037D01*
X7228996D01*
Y4228701D01*
X7228716Y4228336D01*
X7228456Y4227709D01*
X7228368Y4227037D01*
X7228456Y4226365D01*
X7228645Y4225907D01*
X7228426Y4225513D01*
X7226591D01*
X7218478Y4233627D01*
Y4279873D01*
X7230800Y4292195D01*
X7231464Y4292108D01*
X7231854Y4292159D01*
X7241084Y4282930D01*
X7241084Y4282930D01*
X7241574Y4282602D01*
X7242153Y4282487D01*
X7242153Y4282487D01*
X7267464D01*
X7267464Y4282487D01*
X7268044Y4282602D01*
X7268535Y4282930D01*
X7270091Y4284487D01*
X7286015D01*
X7293023Y4277478D01*
X7292972Y4277089D01*
X7293060Y4276420D01*
X7293317Y4275798D01*
X7293728Y4275263D01*
X7294263Y4274853D01*
X7294885Y4274595D01*
X7295553Y4274507D01*
X7296221Y4274595D01*
X7296844Y4274853D01*
X7297378Y4275263D01*
X7297788Y4275798D01*
X7298046Y4276420D01*
X7298134Y4277089D01*
X7298046Y4277757D01*
X7297788Y4278379D01*
X7297378Y4278913D01*
X7296844Y4279324D01*
X7296221Y4279581D01*
X7295553Y4279670D01*
X7295163Y4279618D01*
X7287711Y4287070D01*
X7287221Y4287398D01*
X7286641Y4287513D01*
X7286641Y4287513D01*
X7269465D01*
X7269465Y4287513D01*
X7268886Y4287398D01*
X7268771Y4287442D01*
X7268513Y4287623D01*
X7268436Y4288209D01*
X7268176Y4288836D01*
X7267896Y4289201D01*
Y4287537D01*
X7265928D01*
Y4285569D01*
X7263766D01*
X7263739Y4285513D01*
X7242780D01*
X7233994Y4294299D01*
X7234045Y4294689D01*
X7233958Y4295357D01*
X7233700Y4295979D01*
X7233289Y4296514D01*
X7232755Y4296924D01*
X7232133Y4297182D01*
X7231464Y4297270D01*
X7230797Y4297182D01*
X7230174Y4296924D01*
X7229639Y4296514D01*
X7229229Y4295979D01*
X7228971Y4295357D01*
X7228883Y4294689D01*
X7228899Y4294574D01*
X7215894Y4281570D01*
X7215566Y4281079D01*
X7215451Y4280500D01*
X7215451Y4280500D01*
Y4233000D01*
X7215451Y4233000D01*
X7215566Y4232421D01*
X7215894Y4231930D01*
X7224895Y4222930D01*
X7224895Y4222930D01*
X7224929Y4222907D01*
X7224809Y4222513D01*
X7216592D01*
X7213978Y4225127D01*
Y4290373D01*
X7222591Y4298987D01*
X7275964D01*
X7275964Y4298987D01*
X7276543Y4299102D01*
X7277035Y4299430D01*
X7281623Y4304018D01*
X7281623Y4304018D01*
X7281951Y4304509D01*
X7282066Y4305088D01*
Y4311847D01*
X7282378Y4312086D01*
X7282788Y4312621D01*
X7283046Y4313243D01*
X7283134Y4313911D01*
X7283046Y4314580D01*
X7282788Y4315202D01*
X7282378Y4315737D01*
X7281844Y4316147D01*
X7281221Y4316405D01*
X7280553Y4316493D01*
X7279885Y4316405D01*
X7279263Y4316147D01*
X7278728Y4315737D01*
X7278317Y4315202D01*
X7278060Y4314580D01*
X7277972Y4313911D01*
X7278060Y4313243D01*
X7278317Y4312621D01*
X7278728Y4312086D01*
X7279040Y4311847D01*
Y4305715D01*
X7275338Y4302013D01*
X7221964D01*
X7221964Y4302013D01*
X7221385Y4301898D01*
X7220895Y4301570D01*
X7211395Y4292070D01*
X7211066Y4291579D01*
X7210951Y4291000D01*
X7210951Y4291000D01*
Y4224500D01*
X7210951Y4224500D01*
X7211066Y4223921D01*
X7211395Y4223430D01*
X7214895Y4219930D01*
X7214895Y4219930D01*
X7215385Y4219602D01*
X7215965Y4219487D01*
X7215965Y4219487D01*
X7260803D01*
X7260854Y4219274D01*
X7262770D01*
Y4217305D01*
X7264738D01*
Y4215641D01*
X7265019Y4216007D01*
X7265279Y4216633D01*
X7265320Y4216948D01*
X7265736Y4217089D01*
X7265894Y4216930D01*
X7266386Y4216602D01*
X7266965Y4216487D01*
X7266965Y4216487D01*
X7302338D01*
X7302689Y4216135D01*
X7302690Y4216135D01*
X7303181Y4215807D01*
X7303760Y4215691D01*
X7303760Y4215691D01*
X7308172D01*
X7308411Y4215380D01*
X7308945Y4214969D01*
X7309329Y4214811D01*
X7309423Y4214348D01*
X7277691Y4182616D01*
X7056575D01*
X7056575Y4182616D01*
X7055996Y4182500D01*
X7055505Y4182172D01*
X7055505Y4182172D01*
X7050665Y4177333D01*
X7050275Y4177384D01*
X7049608Y4177296D01*
X7048985Y4177039D01*
X7048450Y4176628D01*
X7048040Y4176094D01*
X7047782Y4175471D01*
X7047694Y4174803D01*
X7047782Y4174135D01*
X7048040Y4173513D01*
X7048450Y4172978D01*
X7048985Y4172568D01*
X7049608Y4172310D01*
X7050275Y4172222D01*
X7050944Y4172310D01*
X7051566Y4172568D01*
X7052100Y4172978D01*
X7052511Y4173513D01*
X7052769Y4174135D01*
X7052856Y4174803D01*
X7052805Y4175193D01*
X7057201Y4179589D01*
X7140392D01*
X7140484Y4179385D01*
X7140500Y4179195D01*
X7140018Y4178825D01*
X7139607Y4178291D01*
X7139349Y4177668D01*
X7139262Y4177000D01*
X7139349Y4176332D01*
X7139607Y4175710D01*
X7140018Y4175175D01*
X7140552Y4174765D01*
X7141174Y4174507D01*
X7141843Y4174419D01*
X7142510Y4174507D01*
X7143133Y4174765D01*
X7143668Y4175175D01*
X7143907Y4175487D01*
X7278964D01*
X7278964Y4175487D01*
X7279544Y4175602D01*
X7280035Y4175930D01*
X7317094Y4212989D01*
X7317094Y4212989D01*
X7317422Y4213480D01*
X7317537Y4214059D01*
X7317537Y4214059D01*
Y4360441D01*
X7317422Y4361020D01*
X7317094Y4361511D01*
X7312035Y4366570D01*
X7311544Y4366898D01*
X7310965Y4367014D01*
X7310964Y4367013D01*
X7253091D01*
X7226476Y4393629D01*
X7225985Y4393957D01*
X7225405Y4394072D01*
X7225405Y4394072D01*
X7214072D01*
X7213833Y4394384D01*
X7213299Y4394794D01*
X7212676Y4395052D01*
X7212008Y4395140D01*
X7211340Y4395052D01*
X7210872Y4394858D01*
X7210478Y4395070D01*
Y4427436D01*
X7210789Y4427675D01*
X7211200Y4428209D01*
X7211458Y4428832D01*
X7211546Y4429500D01*
X7211458Y4430168D01*
X7211200Y4430791D01*
X7210914Y4431164D01*
X7211108Y4431557D01*
X7214767D01*
X7217435Y4428890D01*
X7217384Y4428500D01*
X7217471Y4427832D01*
X7217729Y4427209D01*
X7218140Y4426675D01*
X7218674Y4426265D01*
X7219296Y4426007D01*
X7219965Y4425919D01*
X7220633Y4426007D01*
X7221255Y4426265D01*
X7221790Y4426675D01*
X7222200Y4427209D01*
X7222458Y4427832D01*
X7222546Y4428500D01*
X7222458Y4429168D01*
X7222200Y4429790D01*
X7221790Y4430325D01*
X7221255Y4430735D01*
X7220633Y4430993D01*
X7219965Y4431081D01*
X7219575Y4431030D01*
X7216463Y4434141D01*
X7215973Y4434469D01*
X7215877Y4434488D01*
X7215394Y4434584D01*
D02*
G37*
G36*
X7283385Y4430346D02*
Y4429587D01*
X7284145D01*
X7283815Y4430016D01*
X7283385Y4430346D01*
D02*
G37*
G36*
X7323496Y4254031D02*
X7322002D01*
X7322012Y4254007D01*
X7322646Y4253181D01*
X7323471Y4252547D01*
X7323496Y4252537D01*
Y4254031D01*
D02*
G37*
G36*
X7327433Y4249463D02*
Y4247969D01*
X7328928D01*
X7328917Y4247993D01*
X7328284Y4248819D01*
X7327458Y4249453D01*
X7327433Y4249463D01*
D02*
G37*
G36*
X7015465Y4445546D02*
X7014437Y4445411D01*
X7013479Y4445014D01*
X7012656Y4444383D01*
X7012025Y4443560D01*
X7011629Y4442603D01*
X7011494Y4441575D01*
X7011629Y4440547D01*
X7012025Y4439589D01*
X7012656Y4438767D01*
X7013479Y4438136D01*
X7014437Y4437739D01*
X7015465Y4437604D01*
X7016492Y4437739D01*
X7017450Y4438136D01*
X7018272Y4438767D01*
X7018903Y4439589D01*
X7019300Y4440547D01*
X7019435Y4441575D01*
X7019300Y4442603D01*
X7018903Y4443560D01*
X7018272Y4444383D01*
X7017450Y4445014D01*
X7016492Y4445411D01*
X7015465Y4445546D01*
D02*
G37*
G36*
X7013496Y4449606D02*
X7012002D01*
X7012012Y4449582D01*
X7012646Y4448756D01*
X7013471Y4448122D01*
X7013496Y4448112D01*
Y4449606D01*
D02*
G37*
G36*
X7018928D02*
X7017433D01*
Y4448112D01*
X7017458Y4448122D01*
X7018284Y4448756D01*
X7018917Y4449582D01*
X7018928Y4449606D01*
D02*
G37*
G36*
X7323496Y4249463D02*
X7323471Y4249453D01*
X7322646Y4248819D01*
X7322012Y4247993D01*
X7322002Y4247969D01*
X7323496D01*
Y4249463D01*
D02*
G37*
G36*
X7325465Y4269971D02*
X7324437Y4269836D01*
X7323479Y4269439D01*
X7322657Y4268808D01*
X7322025Y4267986D01*
X7321629Y4267028D01*
X7321494Y4266000D01*
X7321629Y4264972D01*
X7322025Y4264014D01*
X7322657Y4263192D01*
X7323479Y4262561D01*
X7324437Y4262164D01*
X7325465Y4262029D01*
X7326492Y4262164D01*
X7327450Y4262561D01*
X7328272Y4263192D01*
X7328903Y4264014D01*
X7329300Y4264972D01*
X7329436Y4266000D01*
X7329300Y4267028D01*
X7328903Y4267986D01*
X7328272Y4268808D01*
X7327450Y4269439D01*
X7326492Y4269836D01*
X7325465Y4269971D01*
D02*
G37*
G36*
X7328928Y4244032D02*
X7327433D01*
Y4242537D01*
X7327458Y4242547D01*
X7328284Y4243181D01*
X7328917Y4244007D01*
X7328928Y4244032D01*
D02*
G37*
G36*
X7279449Y4430346D02*
X7279019Y4430016D01*
X7278690Y4429587D01*
X7279449D01*
Y4430346D01*
D02*
G37*
G36*
X7291417Y4415993D02*
X7290543Y4415879D01*
X7289729Y4415541D01*
X7289030Y4415005D01*
X7288494Y4414306D01*
X7288157Y4413492D01*
X7288042Y4412618D01*
X7288157Y4411745D01*
X7288494Y4410931D01*
X7289030Y4410231D01*
X7289729Y4409695D01*
X7290543Y4409358D01*
X7291417Y4409243D01*
X7292291Y4409358D01*
X7293105Y4409695D01*
X7293804Y4410231D01*
X7294341Y4410931D01*
X7294678Y4411745D01*
X7294793Y4412618D01*
X7294678Y4413492D01*
X7294341Y4414306D01*
X7293804Y4415005D01*
X7293105Y4415541D01*
X7292291Y4415879D01*
X7291417Y4415993D01*
D02*
G37*
G36*
X7328928Y4254031D02*
X7327433D01*
Y4252537D01*
X7327458Y4252547D01*
X7328284Y4253181D01*
X7328917Y4254007D01*
X7328928Y4254031D01*
D02*
G37*
G36*
X7018902Y4417437D02*
X7011028D01*
Y4413884D01*
X7010951Y4413500D01*
X7011028Y4413116D01*
Y4409563D01*
X7018902D01*
Y4417437D01*
D02*
G37*
G36*
X7016933Y4396963D02*
Y4395468D01*
X7018428D01*
X7018417Y4395493D01*
X7017783Y4396319D01*
X7016958Y4396953D01*
X7016933Y4396963D01*
D02*
G37*
G36*
X7291417Y4405994D02*
X7290543Y4405878D01*
X7289729Y4405541D01*
X7289030Y4405005D01*
X7288494Y4404306D01*
X7288157Y4403492D01*
X7288042Y4402618D01*
X7288157Y4401744D01*
X7288494Y4400930D01*
X7289030Y4400232D01*
X7289729Y4399695D01*
X7290543Y4399358D01*
X7291417Y4399243D01*
X7292291Y4399358D01*
X7293105Y4399695D01*
X7293804Y4400232D01*
X7294341Y4400930D01*
X7294678Y4401744D01*
X7294793Y4402618D01*
X7294678Y4403492D01*
X7294341Y4404306D01*
X7293804Y4405005D01*
X7293105Y4405541D01*
X7292291Y4405878D01*
X7291417Y4405994D01*
D02*
G37*
G36*
X7281417Y4410994D02*
X7280544Y4410878D01*
X7279729Y4410541D01*
X7279031Y4410005D01*
X7278494Y4409306D01*
X7278157Y4408492D01*
X7278042Y4407618D01*
X7278157Y4406744D01*
X7278494Y4405930D01*
X7279031Y4405231D01*
X7279729Y4404695D01*
X7280544Y4404358D01*
X7281417Y4404243D01*
X7282291Y4404358D01*
X7283105Y4404695D01*
X7283804Y4405231D01*
X7284341Y4405930D01*
X7284678Y4406744D01*
X7284792Y4407618D01*
X7284678Y4408492D01*
X7284341Y4409306D01*
X7283804Y4410005D01*
X7283105Y4410541D01*
X7282291Y4410878D01*
X7281417Y4410994D01*
D02*
G37*
G36*
X7284145Y4425650D02*
X7283385D01*
Y4424891D01*
X7283815Y4425220D01*
X7284145Y4425650D01*
D02*
G37*
G36*
X7279449D02*
X7278690D01*
X7279019Y4425220D01*
X7279449Y4424891D01*
Y4425650D01*
D02*
G37*
G36*
X7015465Y4435546D02*
X7014437Y4435411D01*
X7013479Y4435014D01*
X7012656Y4434383D01*
X7012025Y4433560D01*
X7011629Y4432603D01*
X7011494Y4431575D01*
X7011629Y4430547D01*
X7012025Y4429589D01*
X7012656Y4428767D01*
X7013479Y4428136D01*
X7014437Y4427739D01*
X7015465Y4427604D01*
X7016492Y4427739D01*
X7017450Y4428136D01*
X7018272Y4428767D01*
X7018903Y4429589D01*
X7019300Y4430547D01*
X7019435Y4431575D01*
X7019300Y4432603D01*
X7018903Y4433560D01*
X7018272Y4434383D01*
X7017450Y4435014D01*
X7016492Y4435411D01*
X7015465Y4435546D01*
D02*
G37*
G36*
X7281417Y4420993D02*
X7280544Y4420879D01*
X7279729Y4420541D01*
X7279031Y4420005D01*
X7278494Y4419306D01*
X7278157Y4418492D01*
X7278042Y4417618D01*
X7278157Y4416745D01*
X7278494Y4415931D01*
X7279031Y4415231D01*
X7279729Y4414695D01*
X7280544Y4414358D01*
X7281417Y4414243D01*
X7282291Y4414358D01*
X7283105Y4414695D01*
X7283804Y4415231D01*
X7284341Y4415931D01*
X7284678Y4416745D01*
X7284792Y4417618D01*
X7284678Y4418492D01*
X7284341Y4419306D01*
X7283804Y4420005D01*
X7283105Y4420541D01*
X7282291Y4420879D01*
X7281417Y4420993D01*
D02*
G37*
G36*
X7291417Y4425993D02*
X7290543Y4425879D01*
X7289729Y4425541D01*
X7289030Y4425005D01*
X7288494Y4424306D01*
X7288157Y4423492D01*
X7288042Y4422618D01*
X7288157Y4421745D01*
X7288494Y4420930D01*
X7289030Y4420231D01*
X7289729Y4419695D01*
X7290543Y4419358D01*
X7291417Y4419243D01*
X7292291Y4419358D01*
X7293105Y4419695D01*
X7293804Y4420231D01*
X7294341Y4420930D01*
X7294678Y4421745D01*
X7294793Y4422618D01*
X7294678Y4423492D01*
X7294341Y4424306D01*
X7293804Y4425005D01*
X7293105Y4425541D01*
X7292291Y4425879D01*
X7291417Y4425993D01*
D02*
G37*
%LPD*%
G36*
X7174394Y4266430D02*
X7186395Y4254430D01*
X7186395Y4254430D01*
X7186885Y4254102D01*
X7187465Y4253987D01*
X7188394D01*
X7188528Y4253593D01*
X7188157Y4253308D01*
X7187526Y4252486D01*
X7187129Y4251528D01*
X7186993Y4250500D01*
X7187129Y4249472D01*
X7187526Y4248515D01*
X7188157Y4247692D01*
X7188528Y4247407D01*
X7188394Y4247013D01*
X7187592D01*
X7173978Y4260627D01*
Y4266345D01*
X7174371Y4266464D01*
X7174394Y4266430D01*
D02*
G37*
G36*
X7164394Y4466930D02*
X7167394Y4463930D01*
X7167886Y4463602D01*
X7168465Y4463487D01*
X7168465Y4463487D01*
X7178465D01*
X7178465Y4463487D01*
X7179044Y4463602D01*
X7179535Y4463930D01*
X7179660Y4464055D01*
X7180125Y4463963D01*
X7180229Y4463709D01*
X7180640Y4463175D01*
X7181174Y4462765D01*
X7181796Y4462507D01*
X7182465Y4462419D01*
X7183133Y4462507D01*
X7183755Y4462765D01*
X7183871Y4462745D01*
X7184077Y4462424D01*
X7183971Y4462168D01*
X7183884Y4461500D01*
X7183971Y4460832D01*
X7184229Y4460209D01*
X7184447Y4459926D01*
X7184588Y4459705D01*
X7184737Y4459600D01*
X7184951Y4459436D01*
Y4452127D01*
X7164342Y4431517D01*
X7163978Y4431668D01*
Y4466845D01*
X7164371Y4466964D01*
X7164394Y4466930D01*
D02*
G37*
G36*
X7127451Y4447373D02*
Y4443500D01*
X7127451Y4443500D01*
X7127567Y4442921D01*
X7127895Y4442430D01*
X7135961Y4434363D01*
X7135961Y4434363D01*
X7136452Y4434035D01*
X7137032Y4433920D01*
X7153329D01*
X7153568Y4433608D01*
X7154103Y4433198D01*
X7154726Y4432940D01*
X7155252Y4432870D01*
X7155421Y4432483D01*
X7153941Y4431003D01*
X7140544D01*
X7140305Y4431315D01*
X7139770Y4431725D01*
X7139148Y4431983D01*
X7138480Y4432071D01*
X7137811Y4431983D01*
X7137189Y4431725D01*
X7136655Y4431315D01*
X7136244Y4430780D01*
X7135986Y4430158D01*
X7135971Y4430043D01*
X7133685Y4429040D01*
X7120628D01*
X7116105Y4433564D01*
X7116237Y4433736D01*
X7116495Y4434359D01*
X7116582Y4435027D01*
X7116495Y4435695D01*
X7116237Y4436317D01*
X7115826Y4436852D01*
X7115515Y4437091D01*
Y4452468D01*
X7115515Y4452468D01*
X7115400Y4453047D01*
X7115072Y4453538D01*
X7108039Y4460570D01*
X7107549Y4460898D01*
X7106969Y4461013D01*
X7106969Y4461013D01*
X7083980D01*
X7083401Y4460898D01*
X7082909Y4460570D01*
X7082909Y4460570D01*
X7079353Y4457013D01*
X7078029D01*
X7077790Y4457325D01*
X7077255Y4457735D01*
X7076633Y4457993D01*
X7076560Y4458003D01*
X7076450Y4458414D01*
X7076790Y4458675D01*
X7077200Y4459209D01*
X7077457Y4459832D01*
X7077546Y4460500D01*
X7077494Y4460890D01*
X7078091Y4461487D01*
X7113338D01*
X7127451Y4447373D01*
D02*
G37*
G36*
X7221452Y4491332D02*
Y4490627D01*
X7215838Y4485013D01*
X7175964D01*
X7175893Y4484999D01*
X7175663Y4485355D01*
X7175758Y4485487D01*
X7214465D01*
X7214465Y4485487D01*
X7215044Y4485602D01*
X7215535Y4485930D01*
X7221088Y4491483D01*
X7221452Y4491332D01*
D02*
G37*
G36*
X7214684Y4466641D02*
X7214533Y4466277D01*
X7201228D01*
X7200649Y4466162D01*
X7200436Y4466019D01*
X7199965Y4466081D01*
X7199297Y4465993D01*
X7198936Y4465844D01*
X7184885D01*
X7184700Y4466291D01*
X7184468Y4466593D01*
X7184662Y4466987D01*
X7214338D01*
X7214684Y4466641D01*
D02*
G37*
G36*
X7138966Y4458363D02*
Y4443054D01*
X7138654Y4442815D01*
X7138244Y4442280D01*
X7137987Y4441658D01*
X7137898Y4440990D01*
X7137987Y4440322D01*
X7138244Y4439699D01*
X7138654Y4439165D01*
X7139189Y4438754D01*
X7139812Y4438497D01*
X7140479Y4438409D01*
X7141148Y4438497D01*
X7141770Y4438754D01*
X7142305Y4439165D01*
X7142544Y4439476D01*
X7148817D01*
X7149274Y4439018D01*
X7149269Y4438976D01*
X7149357Y4438308D01*
X7149615Y4437686D01*
X7149880Y4437340D01*
X7149686Y4436946D01*
X7137658D01*
X7130478Y4444127D01*
Y4448000D01*
X7130363Y4448579D01*
X7130035Y4449070D01*
X7130035Y4449070D01*
X7115034Y4464070D01*
X7114960Y4464120D01*
X7115079Y4464513D01*
X7132816D01*
X7138966Y4458363D01*
D02*
G37*
G36*
X7216451Y4461373D02*
Y4456127D01*
X7211338Y4451013D01*
X7191633D01*
X7191482Y4451377D01*
X7197092Y4456987D01*
X7204964D01*
X7205128Y4457019D01*
X7205296Y4457023D01*
X7205415Y4457076D01*
X7205544Y4457102D01*
X7205682Y4457195D01*
X7205836Y4457262D01*
X7208233Y4458949D01*
X7208387Y4458885D01*
X7209055Y4458797D01*
X7209723Y4458885D01*
X7210345Y4459143D01*
X7210880Y4459553D01*
X7211291Y4460088D01*
X7211549Y4460710D01*
X7211636Y4461378D01*
X7211549Y4462046D01*
X7211291Y4462669D01*
X7211146Y4462857D01*
X7211340Y4463250D01*
X7214574D01*
X7216451Y4461373D01*
D02*
G37*
G36*
X7206964Y4462857D02*
X7206820Y4462669D01*
X7206562Y4462046D01*
X7206479Y4461416D01*
X7204485Y4460013D01*
X7196465D01*
X7196465Y4460014D01*
X7195885Y4459898D01*
X7195394Y4459570D01*
X7188342Y4452517D01*
X7187978Y4452668D01*
Y4459436D01*
X7188290Y4459675D01*
X7188700Y4460209D01*
X7188958Y4460832D01*
X7189046Y4461500D01*
X7188958Y4462168D01*
X7188852Y4462424D01*
X7189115Y4462817D01*
X7197478D01*
X7197729Y4462209D01*
X7198139Y4461675D01*
X7198674Y4461265D01*
X7199297Y4461007D01*
X7199965Y4460919D01*
X7200632Y4461007D01*
X7201255Y4461265D01*
X7201790Y4461675D01*
X7202200Y4462209D01*
X7202457Y4462832D01*
X7202513Y4463250D01*
X7206770D01*
X7206964Y4462857D01*
D02*
G37*
G36*
X7086429Y4354593D02*
X7086395Y4354570D01*
X7086395Y4354570D01*
X7082838Y4351013D01*
X7077529D01*
X7077290Y4351325D01*
X7076944Y4351590D01*
X7077100Y4351967D01*
X7077464Y4351919D01*
X7078133Y4352007D01*
X7078755Y4352265D01*
X7079290Y4352675D01*
X7079700Y4353209D01*
X7079958Y4353832D01*
X7080045Y4354500D01*
X7080030Y4354618D01*
X7080358Y4354987D01*
X7086309D01*
X7086429Y4354593D01*
D02*
G37*
G36*
X7138966Y4352363D02*
Y4337054D01*
X7138654Y4336815D01*
X7138244Y4336280D01*
X7137987Y4335658D01*
X7137898Y4334990D01*
X7137987Y4334322D01*
X7138244Y4333699D01*
X7138654Y4333165D01*
X7139189Y4332755D01*
X7139812Y4332497D01*
X7140479Y4332409D01*
X7141148Y4332497D01*
X7141770Y4332755D01*
X7142305Y4333165D01*
X7142544Y4333476D01*
X7152348D01*
X7153435Y4332390D01*
X7153384Y4332000D01*
X7153471Y4331332D01*
X7153729Y4330709D01*
X7154140Y4330175D01*
X7154674Y4329765D01*
X7155296Y4329507D01*
X7155965Y4329419D01*
X7156632Y4329507D01*
X7156967Y4329645D01*
X7157317Y4329412D01*
X7157340Y4329015D01*
X7156837Y4328513D01*
X7154092D01*
X7151035Y4331570D01*
X7150544Y4331898D01*
X7149965Y4332013D01*
X7149964Y4332013D01*
X7125591D01*
X7124478Y4333127D01*
Y4340500D01*
X7124478Y4340500D01*
X7124363Y4341079D01*
X7124035Y4341570D01*
X7124035Y4341570D01*
X7108035Y4357570D01*
X7107544Y4357898D01*
X7106965Y4358014D01*
X7106965Y4358013D01*
X7083464D01*
X7083246Y4358407D01*
X7083311Y4358514D01*
X7132816D01*
X7138966Y4352363D01*
D02*
G37*
G36*
X7121452Y4339873D02*
Y4332500D01*
X7121452Y4332500D01*
X7121567Y4331921D01*
X7121895Y4331430D01*
X7123895Y4329430D01*
X7123895Y4329430D01*
X7124386Y4329102D01*
X7124965Y4328987D01*
X7124965Y4328987D01*
X7149338D01*
X7152395Y4325930D01*
X7152395Y4325930D01*
X7152885Y4325602D01*
X7153465Y4325487D01*
X7153465Y4325487D01*
X7156422D01*
X7156631Y4325093D01*
X7156570Y4325003D01*
X7140544D01*
X7140305Y4325315D01*
X7139770Y4325725D01*
X7139148Y4325983D01*
X7138480Y4326071D01*
X7137811Y4325983D01*
X7137189Y4325725D01*
X7136655Y4325315D01*
X7136244Y4324780D01*
X7135986Y4324158D01*
X7135971Y4324043D01*
X7133685Y4323040D01*
X7120628D01*
X7116105Y4327564D01*
X7116237Y4327736D01*
X7116495Y4328359D01*
X7116582Y4329027D01*
X7116495Y4329695D01*
X7116237Y4330317D01*
X7115826Y4330852D01*
X7115515Y4331091D01*
Y4345295D01*
X7115879Y4345446D01*
X7121452Y4339873D01*
D02*
G37*
G36*
X7210951Y4532582D02*
Y4532127D01*
X7205838Y4527013D01*
X7200632D01*
X7200482Y4527377D01*
X7201092Y4527987D01*
X7202965D01*
X7203180Y4528030D01*
X7203398Y4528050D01*
X7203468Y4528087D01*
X7203544Y4528102D01*
X7203726Y4528224D01*
X7203920Y4528326D01*
X7207603Y4531326D01*
X7208268Y4531238D01*
X7208936Y4531326D01*
X7209558Y4531584D01*
X7210093Y4531994D01*
X7210503Y4532528D01*
X7210558Y4532660D01*
X7210951Y4532582D01*
D02*
G37*
G36*
X7182111Y4500784D02*
X7182285Y4500363D01*
X7182229Y4500291D01*
X7181972Y4499668D01*
X7181883Y4499000D01*
X7181972Y4498332D01*
X7182229Y4497709D01*
X7182639Y4497175D01*
X7182951Y4496936D01*
Y4495513D01*
X7177132D01*
X7176982Y4495877D01*
X7181915Y4500810D01*
X7182111Y4500784D01*
D02*
G37*
G36*
X7195951Y4522332D02*
Y4512500D01*
X7195951Y4512500D01*
X7196066Y4511921D01*
X7196394Y4511430D01*
X7199394Y4508430D01*
X7199394Y4508430D01*
X7199886Y4508102D01*
X7200465Y4507987D01*
X7200465Y4507987D01*
X7213338D01*
X7218951Y4502373D01*
Y4493627D01*
X7213837Y4488513D01*
X7174965D01*
X7174965Y4488514D01*
X7174386Y4488398D01*
X7173895Y4488070D01*
X7173895Y4488070D01*
X7167394Y4481570D01*
X7167371Y4481536D01*
X7166978Y4481655D01*
Y4482873D01*
X7176591Y4492487D01*
X7199464D01*
X7199464Y4492487D01*
X7200043Y4492602D01*
X7200535Y4492930D01*
X7204575Y4496970D01*
X7204964Y4496919D01*
X7205633Y4497007D01*
X7206255Y4497265D01*
X7206789Y4497675D01*
X7207200Y4498209D01*
X7207458Y4498832D01*
X7207545Y4499500D01*
X7207458Y4500168D01*
X7207200Y4500791D01*
X7206789Y4501325D01*
X7206255Y4501735D01*
X7205633Y4501993D01*
X7204964Y4502081D01*
X7204297Y4501993D01*
X7203674Y4501735D01*
X7203139Y4501325D01*
X7202729Y4500791D01*
X7202471Y4500168D01*
X7202383Y4499500D01*
X7202435Y4499110D01*
X7198838Y4495513D01*
X7185978D01*
Y4496936D01*
X7186290Y4497175D01*
X7186700Y4497709D01*
X7186958Y4498332D01*
X7187046Y4499000D01*
X7186958Y4499668D01*
X7186700Y4500291D01*
X7186468Y4500593D01*
X7186662Y4500987D01*
X7192338D01*
X7194434Y4498890D01*
X7194383Y4498500D01*
X7194472Y4497832D01*
X7194729Y4497210D01*
X7195139Y4496675D01*
X7195674Y4496265D01*
X7196297Y4496007D01*
X7196964Y4495919D01*
X7197633Y4496007D01*
X7198255Y4496265D01*
X7198790Y4496675D01*
X7199200Y4497210D01*
X7199458Y4497832D01*
X7199546Y4498500D01*
X7199458Y4499168D01*
X7199200Y4499791D01*
X7198790Y4500325D01*
X7198255Y4500735D01*
X7197633Y4500993D01*
X7196964Y4501081D01*
X7196575Y4501030D01*
X7194035Y4503570D01*
X7193544Y4503898D01*
X7192965Y4504013D01*
X7192964Y4504013D01*
X7182063D01*
X7181852Y4504407D01*
X7181905Y4504487D01*
X7206338D01*
X7211935Y4498890D01*
X7211884Y4498500D01*
X7211971Y4497832D01*
X7212229Y4497210D01*
X7212640Y4496675D01*
X7213174Y4496265D01*
X7213796Y4496007D01*
X7214465Y4495919D01*
X7215133Y4496007D01*
X7215755Y4496265D01*
X7216290Y4496675D01*
X7216700Y4497210D01*
X7216958Y4497832D01*
X7217046Y4498500D01*
X7216958Y4499168D01*
X7216700Y4499791D01*
X7216290Y4500325D01*
X7215755Y4500735D01*
X7215133Y4500993D01*
X7214465Y4501081D01*
X7214075Y4501030D01*
X7208035Y4507070D01*
X7207544Y4507398D01*
X7206965Y4507513D01*
X7206965Y4507513D01*
X7181175D01*
X7181012Y4507907D01*
X7195587Y4522483D01*
X7195951Y4522332D01*
D02*
G37*
G36*
X7214451Y4538373D02*
Y4529127D01*
X7209338Y4524013D01*
X7207619D01*
X7207500Y4524407D01*
X7207535Y4524430D01*
X7213535Y4530430D01*
X7213535Y4530430D01*
X7213863Y4530921D01*
X7213978Y4531500D01*
Y4537500D01*
X7213978Y4537500D01*
X7213863Y4538079D01*
X7213535Y4538570D01*
X7213535Y4538570D01*
X7211535Y4540570D01*
X7211044Y4540898D01*
X7210464Y4541013D01*
X7210464Y4541013D01*
X7183781D01*
X7183542Y4541325D01*
X7183007Y4541735D01*
X7182575Y4541914D01*
X7182462Y4542357D01*
X7183591Y4543487D01*
X7209338D01*
X7214451Y4538373D01*
D02*
G37*
G36*
X7269634Y4248105D02*
X7305838D01*
X7307069Y4246873D01*
Y4244190D01*
X7306757Y4243951D01*
X7306348Y4243417D01*
X7306090Y4242794D01*
X7306001Y4242126D01*
X7306090Y4241458D01*
X7306348Y4240836D01*
X7306757Y4240301D01*
X7307292Y4239891D01*
X7307915Y4239633D01*
X7308583Y4239545D01*
X7308972Y4239596D01*
X7310281Y4238287D01*
X7310267Y4238163D01*
X7309920Y4238000D01*
X7309824Y4238007D01*
X7309552Y4238216D01*
X7308929Y4238474D01*
X7308261Y4238562D01*
X7307593Y4238474D01*
X7306971Y4238216D01*
X7306436Y4237806D01*
X7306197Y4237494D01*
X7304916D01*
X7297340Y4245070D01*
X7296849Y4245398D01*
X7296270Y4245514D01*
X7296270Y4245513D01*
X7271591D01*
X7269344Y4247761D01*
X7269537Y4248124D01*
X7269634Y4248105D01*
D02*
G37*
G36*
X7298947Y4219877D02*
X7298797Y4219513D01*
X7267591D01*
X7265034Y4222070D01*
X7264561Y4222386D01*
X7264540Y4222406D01*
X7264423Y4222643D01*
X7264404Y4222828D01*
X7264597Y4223080D01*
X7264855Y4223702D01*
X7264943Y4224370D01*
X7264855Y4225038D01*
X7264597Y4225661D01*
X7264265Y4226093D01*
X7264410Y4226487D01*
X7292338D01*
X7298947Y4219877D01*
D02*
G37*
G36*
X7279374Y4179550D02*
X7278338Y4178513D01*
X7143907D01*
X7143668Y4178825D01*
X7143185Y4179195D01*
X7143201Y4179385D01*
X7143294Y4179589D01*
X7278317D01*
X7278317Y4179589D01*
X7278896Y4179704D01*
X7279123Y4179856D01*
X7279374Y4179550D01*
D02*
G37*
G36*
X7310455Y4226041D02*
X7310236Y4225849D01*
X7309568Y4225761D01*
X7308945Y4225503D01*
X7308411Y4225093D01*
X7308001Y4224558D01*
X7307743Y4223936D01*
X7307655Y4223268D01*
X7307743Y4222600D01*
X7308001Y4221977D01*
X7308411Y4221442D01*
X7308945Y4221032D01*
X7309568Y4220774D01*
X7310236Y4220687D01*
X7310904Y4220774D01*
X7311526Y4221032D01*
X7312061Y4221442D01*
X7312187Y4221607D01*
X7312581Y4221473D01*
Y4218999D01*
X7312187Y4218866D01*
X7312061Y4219030D01*
X7311526Y4219440D01*
X7310904Y4219698D01*
X7310236Y4219786D01*
X7309568Y4219698D01*
X7308945Y4219440D01*
X7308411Y4219030D01*
X7308172Y4218718D01*
X7304387D01*
X7304034Y4219070D01*
X7304034Y4219070D01*
X7294035Y4229070D01*
X7293544Y4229398D01*
X7292965Y4229514D01*
X7292964Y4229513D01*
X7265206D01*
X7265073Y4229907D01*
X7265329Y4230104D01*
X7265569Y4230416D01*
X7310455D01*
Y4226041D01*
D02*
G37*
%LPC*%
G36*
X7334646Y4506011D02*
X7333757Y4505894D01*
X7332928Y4505550D01*
X7332217Y4505005D01*
X7331671Y4504293D01*
X7331328Y4503465D01*
X7331211Y4502576D01*
X7331328Y4501687D01*
X7331671Y4500858D01*
X7332217Y4500147D01*
X7332928Y4499601D01*
X7333757Y4499258D01*
X7334646Y4499141D01*
X7335535Y4499258D01*
X7336363Y4499601D01*
X7337074Y4500147D01*
X7337621Y4500858D01*
X7337964Y4501687D01*
X7338081Y4502576D01*
X7337964Y4503465D01*
X7337621Y4504293D01*
X7337074Y4505005D01*
X7336363Y4505550D01*
X7335535Y4505894D01*
X7334646Y4506011D01*
D02*
G37*
G36*
Y4516011D02*
X7333757Y4515894D01*
X7332928Y4515551D01*
X7332217Y4515005D01*
X7331671Y4514293D01*
X7331328Y4513465D01*
X7331211Y4512576D01*
X7331328Y4511687D01*
X7331671Y4510859D01*
X7332217Y4510147D01*
X7332928Y4509601D01*
X7333757Y4509258D01*
X7334646Y4509141D01*
X7335535Y4509258D01*
X7336363Y4509601D01*
X7337074Y4510147D01*
X7337621Y4510859D01*
X7337964Y4511687D01*
X7338081Y4512576D01*
X7337964Y4513465D01*
X7337621Y4514293D01*
X7337074Y4515005D01*
X7336363Y4515551D01*
X7335535Y4515894D01*
X7334646Y4516011D01*
D02*
G37*
G36*
X7335709Y4536677D02*
X7334820Y4536560D01*
X7333991Y4536217D01*
X7333279Y4535671D01*
X7332734Y4534959D01*
X7332391Y4534131D01*
X7332274Y4533242D01*
X7332391Y4532353D01*
X7332734Y4531525D01*
X7333279Y4530813D01*
X7333991Y4530267D01*
X7334820Y4529924D01*
X7335709Y4529807D01*
X7336597Y4529924D01*
X7337426Y4530267D01*
X7338138Y4530813D01*
X7338683Y4531525D01*
X7339027Y4532353D01*
X7339143Y4533242D01*
X7339027Y4534131D01*
X7338683Y4534959D01*
X7338138Y4535671D01*
X7337426Y4536217D01*
X7336597Y4536560D01*
X7335709Y4536677D01*
D02*
G37*
G36*
X7335355Y4472408D02*
X7334465Y4472291D01*
X7333637Y4471948D01*
X7332925Y4471402D01*
X7332380Y4470691D01*
X7332037Y4469862D01*
X7331919Y4468974D01*
X7332037Y4468084D01*
X7332380Y4467256D01*
X7332925Y4466545D01*
X7333637Y4465999D01*
X7334465Y4465656D01*
X7335355Y4465538D01*
X7336243Y4465656D01*
X7337072Y4465999D01*
X7337783Y4466545D01*
X7338329Y4467256D01*
X7338672Y4468084D01*
X7338789Y4468974D01*
X7338672Y4469862D01*
X7338329Y4470691D01*
X7337783Y4471402D01*
X7337072Y4471948D01*
X7336243Y4472291D01*
X7335355Y4472408D01*
D02*
G37*
G36*
Y4462408D02*
X7334465Y4462291D01*
X7333637Y4461948D01*
X7332925Y4461402D01*
X7332380Y4460691D01*
X7332037Y4459863D01*
X7331919Y4458973D01*
X7332037Y4458084D01*
X7332380Y4457256D01*
X7332925Y4456544D01*
X7333637Y4455999D01*
X7334465Y4455656D01*
X7335355Y4455539D01*
X7336243Y4455656D01*
X7337072Y4455999D01*
X7337783Y4456544D01*
X7338329Y4457256D01*
X7338672Y4458084D01*
X7338789Y4458973D01*
X7338672Y4459863D01*
X7338329Y4460691D01*
X7337783Y4461402D01*
X7337072Y4461948D01*
X7336243Y4462291D01*
X7335355Y4462408D01*
D02*
G37*
G36*
X7335000Y4590279D02*
X7334111Y4590162D01*
X7333282Y4589819D01*
X7332571Y4589273D01*
X7332025Y4588562D01*
X7331682Y4587733D01*
X7331565Y4586845D01*
X7331682Y4585955D01*
X7332025Y4585127D01*
X7332571Y4584416D01*
X7333282Y4583870D01*
X7334111Y4583527D01*
X7335000Y4583410D01*
X7335889Y4583527D01*
X7336717Y4583870D01*
X7337429Y4584416D01*
X7337975Y4585127D01*
X7338318Y4585955D01*
X7338435Y4586845D01*
X7338318Y4587733D01*
X7337975Y4588562D01*
X7337429Y4589273D01*
X7336717Y4589819D01*
X7335889Y4590162D01*
X7335000Y4590279D01*
D02*
G37*
G36*
Y4580280D02*
X7334111Y4580162D01*
X7333282Y4579819D01*
X7332571Y4579273D01*
X7332025Y4578562D01*
X7331682Y4577734D01*
X7331565Y4576844D01*
X7331682Y4575956D01*
X7332025Y4575127D01*
X7332571Y4574416D01*
X7333282Y4573870D01*
X7334111Y4573527D01*
X7335000Y4573410D01*
X7335889Y4573527D01*
X7336717Y4573870D01*
X7337429Y4574416D01*
X7337975Y4575127D01*
X7338318Y4575956D01*
X7338435Y4576844D01*
X7338318Y4577734D01*
X7337975Y4578562D01*
X7337429Y4579273D01*
X7336717Y4579819D01*
X7335889Y4580162D01*
X7335000Y4580280D01*
D02*
G37*
G36*
X7335709Y4546677D02*
X7334820Y4546560D01*
X7333991Y4546217D01*
X7333279Y4545671D01*
X7332734Y4544960D01*
X7332391Y4544131D01*
X7332274Y4543242D01*
X7332391Y4542353D01*
X7332734Y4541525D01*
X7333279Y4540813D01*
X7333991Y4540268D01*
X7334820Y4539924D01*
X7335709Y4539807D01*
X7336597Y4539924D01*
X7337426Y4540268D01*
X7338138Y4540813D01*
X7338683Y4541525D01*
X7339027Y4542353D01*
X7339143Y4543242D01*
X7339027Y4544131D01*
X7338683Y4544960D01*
X7338138Y4545671D01*
X7337426Y4546217D01*
X7336597Y4546560D01*
X7335709Y4546677D01*
D02*
G37*
G36*
Y4397096D02*
X7334820Y4396979D01*
X7333991Y4396636D01*
X7333279Y4396090D01*
X7332734Y4395379D01*
X7332391Y4394550D01*
X7332274Y4393661D01*
X7332391Y4392772D01*
X7332734Y4391944D01*
X7333279Y4391233D01*
X7333991Y4390687D01*
X7334820Y4390343D01*
X7335709Y4390226D01*
X7336597Y4390343D01*
X7337426Y4390687D01*
X7338138Y4391233D01*
X7338683Y4391944D01*
X7339027Y4392772D01*
X7339143Y4393661D01*
X7339027Y4394550D01*
X7338683Y4395379D01*
X7338138Y4396090D01*
X7337426Y4396636D01*
X7336597Y4396979D01*
X7335709Y4397096D01*
D02*
G37*
G36*
Y4387096D02*
X7334820Y4386979D01*
X7333991Y4386636D01*
X7333279Y4386090D01*
X7332734Y4385379D01*
X7332391Y4384550D01*
X7332274Y4383661D01*
X7332391Y4382772D01*
X7332734Y4381944D01*
X7333279Y4381232D01*
X7333991Y4380687D01*
X7334820Y4380344D01*
X7335709Y4380227D01*
X7336597Y4380344D01*
X7337426Y4380687D01*
X7338138Y4381232D01*
X7338683Y4381944D01*
X7339027Y4382772D01*
X7339143Y4383661D01*
X7339027Y4384550D01*
X7338683Y4385379D01*
X7338138Y4386090D01*
X7337426Y4386636D01*
X7336597Y4386979D01*
X7335709Y4387096D01*
D02*
G37*
G36*
X7335000Y4440699D02*
X7334111Y4440582D01*
X7333282Y4440239D01*
X7332571Y4439693D01*
X7332025Y4438981D01*
X7331682Y4438153D01*
X7331565Y4437264D01*
X7331682Y4436375D01*
X7332025Y4435546D01*
X7332571Y4434835D01*
X7333282Y4434289D01*
X7334111Y4433946D01*
X7335000Y4433829D01*
X7335889Y4433946D01*
X7336717Y4434289D01*
X7337429Y4434835D01*
X7337975Y4435546D01*
X7338318Y4436375D01*
X7338435Y4437264D01*
X7338318Y4438153D01*
X7337975Y4438981D01*
X7337429Y4439693D01*
X7336717Y4440239D01*
X7335889Y4440582D01*
X7335000Y4440699D01*
D02*
G37*
G36*
Y4430699D02*
X7334111Y4430582D01*
X7333282Y4430238D01*
X7332571Y4429692D01*
X7332025Y4428981D01*
X7331682Y4428153D01*
X7331565Y4427264D01*
X7331682Y4426375D01*
X7332025Y4425546D01*
X7332571Y4424835D01*
X7333282Y4424289D01*
X7334111Y4423946D01*
X7335000Y4423829D01*
X7335889Y4423946D01*
X7336717Y4424289D01*
X7337429Y4424835D01*
X7337975Y4425546D01*
X7338318Y4426375D01*
X7338435Y4427264D01*
X7338318Y4428153D01*
X7337975Y4428981D01*
X7337429Y4429692D01*
X7336717Y4430238D01*
X7335889Y4430582D01*
X7335000Y4430699D01*
D02*
G37*
%LPD*%
D29*
X7186964Y4428028D02*
X7192008Y4433071D01*
X7138217Y4471753D02*
X7187465Y4521000D01*
X7149443Y4440990D02*
X7151850Y4438583D01*
X7138480Y4577500D02*
X7207465D01*
X7199134Y4464331D02*
X7199965Y4463500D01*
X7183134Y4464331D02*
X7199134D01*
X7182465Y4465000D02*
X7183134Y4464331D01*
X7215201Y4464764D02*
X7217965Y4462000D01*
X7201228Y4464764D02*
X7215201D01*
X7199965Y4463500D02*
X7201228Y4464764D01*
X7225405Y4392559D02*
X7252464Y4365500D01*
X7212008Y4392559D02*
X7225405D01*
X7310236Y4223268D02*
X7311968Y4225000D01*
Y4238740D01*
X7310787Y4231929D02*
X7311851Y4232992D01*
X7263504Y4231929D02*
X7310787D01*
X7304289Y4235980D02*
X7308261D01*
X7296270Y4244000D02*
X7304289Y4235980D01*
X7308583Y4242126D02*
X7311968Y4238740D01*
X7269634Y4249618D02*
X7306464D01*
X7264567Y4254685D02*
X7269634Y4249618D01*
X7310236Y4222441D02*
Y4223268D01*
X7310965Y4365500D02*
X7316023Y4360441D01*
Y4214059D02*
Y4360441D01*
X7278964Y4177000D02*
X7316023Y4214059D01*
X7314095Y4216879D02*
Y4356870D01*
X7278317Y4181102D02*
X7314095Y4216879D01*
X7303760Y4217205D02*
X7310236D01*
X7308465Y4362500D02*
X7314095Y4356870D01*
X7302965Y4218000D02*
X7303760Y4217205D01*
X7261992Y4224000D02*
X7262362Y4224370D01*
X7225964Y4224000D02*
X7261992D01*
X7263965Y4221000D02*
X7266965Y4218000D01*
X7215965Y4221000D02*
X7263965D01*
X7212465Y4224500D02*
X7215965Y4221000D01*
X7308583Y4247500D02*
Y4249618D01*
Y4242126D02*
Y4247500D01*
X7306464Y4249618D02*
X7308583Y4247500D01*
Y4249618D02*
X7309965Y4251000D01*
X7272441Y4270000D02*
X7275964D01*
X7255441Y4253000D02*
X7272441Y4270000D01*
X7247964Y4253000D02*
X7255441D01*
X7262992Y4238268D02*
Y4242472D01*
X7260965Y4244500D02*
X7262992Y4242472D01*
X7258900Y4256065D02*
X7270965Y4244000D01*
X7296270D01*
X7186964Y4393500D02*
Y4428028D01*
X7193744Y4441500D02*
X7214964D01*
X7181965Y4429721D02*
X7193744Y4441500D01*
X7181965Y4289500D02*
Y4429721D01*
X7192307Y4444000D02*
X7213965D01*
X7178964Y4430658D02*
X7192307Y4444000D01*
X7178964Y4280000D02*
Y4430658D01*
X7191764Y4447000D02*
X7212965D01*
X7175465Y4430701D02*
X7191764Y4447000D01*
X7175465Y4267500D02*
Y4430701D01*
X7190327Y4449500D02*
X7211964D01*
X7172465Y4431638D02*
X7190327Y4449500D01*
X7172465Y4260000D02*
Y4431638D01*
X7128964Y4443500D02*
X7137032Y4435433D01*
X7159965Y4432000D02*
Y4485000D01*
X7157964Y4430000D02*
X7159965Y4432000D01*
X7151850Y4438583D02*
Y4438976D01*
X7140479Y4440990D02*
X7149443D01*
X7138480Y4429490D02*
X7154568D01*
X7050275Y4174803D02*
X7056575Y4181102D01*
X7278317D01*
X7204964Y4458500D02*
X7209055Y4461378D01*
X7207465Y4577500D02*
X7213464Y4571500D01*
X7193964Y4574500D02*
X7196465Y4572000D01*
X7206965Y4506000D02*
X7214465Y4498500D01*
X7192965Y4502500D02*
X7196964Y4498500D01*
X7015965Y4551000D02*
X7022490D01*
X7200964Y4566500D02*
X7204465Y4570000D01*
Y4572500D01*
X7185681Y4460751D02*
X7186465Y4461500D01*
X7015465Y4339500D02*
X7022990D01*
X7022490Y4551000D02*
X7031979Y4560490D01*
X7029065Y4451575D02*
X7031979Y4454490D01*
X7015465Y4451575D02*
X7029065D01*
X7022990Y4339500D02*
X7031979Y4348490D01*
X7015465Y4236500D02*
X7025990D01*
X7114001Y4221527D02*
Y4223027D01*
Y4221527D02*
X7120001Y4215527D01*
X7134002D01*
X7138480Y4217490D01*
X7080943Y4254027D02*
X7133443D01*
X7140479Y4246990D01*
Y4228990D02*
Y4246990D01*
X7114001Y4223027D02*
Y4240468D01*
X7031979Y4211490D02*
Y4242490D01*
Y4211490D02*
X7044479Y4198990D01*
X7074480D01*
X7090038Y4214549D01*
X7090039Y4239370D01*
X7051479Y4211490D02*
Y4245490D01*
X7065479Y4259490D01*
X7138480D01*
X7140479Y4334990D02*
Y4352990D01*
X7031979Y4317490D02*
X7044479Y4304990D01*
X7074480D01*
X7090038Y4320549D01*
Y4347027D01*
X7031979Y4317490D02*
Y4348490D01*
X7051479Y4317490D02*
Y4351490D01*
X7065479Y4365490D01*
X7138480D01*
X7114001Y4327527D02*
X7120001Y4321527D01*
X7114001Y4327527D02*
Y4329027D01*
Y4346468D01*
X7120001Y4321527D02*
X7134002D01*
X7138480Y4323490D01*
X7080943Y4572027D02*
X7133443D01*
X7044479Y4516990D02*
X7074480D01*
X7031979Y4529490D02*
X7044479Y4516990D01*
X7074480D02*
X7090038Y4532549D01*
Y4559027D01*
X7031979Y4529490D02*
Y4560490D01*
X7051479Y4563490D02*
X7065479Y4577490D01*
X7051479Y4529490D02*
Y4563490D01*
X7065479Y4577490D02*
X7138480D01*
X7114001Y4539527D02*
X7120001Y4533527D01*
X7134002D01*
X7138480Y4535490D01*
X7140479Y4440990D02*
Y4458990D01*
X7133443Y4466027D02*
X7140479Y4458990D01*
X7031979Y4423490D02*
X7044479Y4410990D01*
X7074480D01*
X7031979Y4423490D02*
Y4454490D01*
X7074480Y4410990D02*
X7090038Y4426549D01*
Y4453027D01*
X7134002Y4427527D02*
X7138480Y4429490D01*
X7051479Y4423490D02*
Y4457490D01*
X7120001Y4427527D02*
X7134002D01*
X7051479Y4457490D02*
X7065479Y4471490D01*
X7114001Y4433527D02*
X7120001Y4427527D01*
X7065479Y4471490D02*
X7138480D01*
X7080943Y4466027D02*
X7133443D01*
X7114001Y4433527D02*
Y4435027D01*
Y4452468D01*
Y4539527D02*
Y4541027D01*
Y4558468D01*
X7217965Y4455500D02*
Y4462000D01*
X7211964Y4449500D02*
X7217965Y4455500D01*
X7220464Y4454500D02*
Y4463000D01*
X7212965Y4447000D02*
X7220464Y4454500D01*
X7185965Y4566500D02*
Y4571500D01*
Y4566500D02*
X7200964D01*
X7178964D02*
X7185965D01*
X7175465Y4542500D02*
X7180465D01*
X7182964Y4545000D01*
X7173465Y4544500D02*
X7175465Y4542500D01*
X7173465Y4544500D02*
Y4561000D01*
X7178964Y4566500D01*
X7202965Y4529500D02*
X7208268Y4533819D01*
X7181716Y4539500D02*
X7199464D01*
Y4535000D02*
Y4539500D01*
X7210464D01*
X7212465Y4537500D01*
X7213965Y4509500D02*
X7220464Y4503000D01*
Y4493000D02*
Y4503000D01*
X7214465Y4487000D02*
X7220464Y4493000D01*
X7174965Y4487000D02*
X7214465D01*
X7212465Y4531500D02*
Y4537500D01*
X7206464Y4525500D02*
X7212465Y4531500D01*
X7182964Y4545000D02*
X7209965D01*
X7215965Y4528500D02*
Y4539000D01*
X7209965Y4545000D02*
X7215965Y4539000D01*
X7197465Y4512500D02*
X7200465Y4509500D01*
X7213965D01*
X7197465Y4512500D02*
Y4523000D01*
X7199965Y4525500D01*
X7206464D01*
X7209965Y4522500D02*
X7215965Y4528500D01*
X7202464Y4522500D02*
X7209965D01*
X7199965Y4520000D02*
X7202464Y4522500D01*
X7199965Y4514000D02*
Y4520000D01*
Y4514000D02*
X7201465Y4512500D01*
X7216965D01*
X7222964Y4506500D01*
Y4490000D02*
Y4506500D01*
X7216464Y4483500D02*
X7222964Y4490000D01*
X7175964Y4483500D02*
X7216464D01*
X7184464Y4494000D02*
X7199464D01*
X7204964Y4499500D01*
X7175964Y4494000D02*
X7184464D01*
X7165465Y4483500D02*
X7175964Y4494000D01*
X7171964Y4479500D02*
X7175964Y4483500D01*
X7171964Y4472000D02*
Y4479500D01*
X7168465Y4480500D02*
X7174965Y4487000D01*
X7168465Y4471000D02*
Y4480500D01*
X7165465Y4468000D02*
Y4483500D01*
Y4468000D02*
X7168465Y4465000D01*
X7214964Y4468500D02*
X7220464Y4463000D01*
X7168465Y4465000D02*
X7178465D01*
X7181965Y4468500D01*
X7214964D01*
X7168465Y4471000D02*
X7171465Y4468000D01*
X7217965Y4471000D02*
X7222465Y4466500D01*
Y4452500D02*
Y4466500D01*
X7213965Y4444000D02*
X7222465Y4452500D01*
X7171465Y4468000D02*
X7177965D01*
X7180965Y4471000D01*
X7217965D01*
X7171964Y4472000D02*
X7173465Y4470500D01*
X7176465D01*
X7178964Y4473000D01*
X7219465D01*
X7224965Y4467500D01*
Y4451500D02*
Y4467500D01*
X7214964Y4441500D02*
X7224965Y4451500D01*
X7184464Y4494000D02*
Y4499000D01*
X7162465Y4483500D02*
X7181464Y4502500D01*
X7192965D01*
X7180965Y4506000D02*
X7206965D01*
X7159965Y4485000D02*
X7180965Y4506000D01*
X7165465Y4427500D02*
X7196465Y4458500D01*
X7204964D01*
X7162965Y4283975D02*
Y4428000D01*
X7186465Y4451500D01*
Y4461500D01*
X7162465Y4431000D02*
Y4483500D01*
X7200465Y4529500D02*
X7202965D01*
X7187465Y4521000D02*
Y4534500D01*
X7080943Y4360027D02*
X7133443D01*
X7140479Y4352990D01*
X7157964Y4384975D02*
Y4430000D01*
X7075465Y4243500D02*
X7110970D01*
X7114001Y4240468D01*
X7075465Y4561500D02*
X7078964D01*
X7106969Y4459500D02*
X7114001Y4452468D01*
X7075964Y4455500D02*
X7079980D01*
X7083980Y4459500D01*
X7106969D01*
X7068964Y4249000D02*
X7075964D01*
X7063965Y4244000D02*
X7068964Y4249000D01*
X7063965Y4213500D02*
Y4244000D01*
X7055965Y4205500D02*
X7063965Y4213500D01*
X7049464Y4205500D02*
X7055965D01*
X7043465Y4211500D02*
X7049464Y4205500D01*
X7043465Y4211500D02*
Y4265000D01*
X7098965Y4320500D01*
X7075465Y4349500D02*
X7083465D01*
X7072465Y4347000D02*
X7074464Y4345000D01*
X7083465Y4349500D02*
X7087465Y4353500D01*
X7106969D01*
X7114001Y4346468D01*
X7074464Y4345000D02*
X7082964D01*
X7098965Y4320500D02*
Y4344500D01*
X7082964Y4345000D02*
X7087965Y4350000D01*
X7093465D01*
X7098965Y4344500D01*
X7067464Y4460500D02*
X7074965D01*
X7063965Y4457000D02*
X7067464Y4460500D01*
X7063965Y4428000D02*
Y4457000D01*
X7053465Y4417500D02*
X7063965Y4428000D01*
X7046465Y4417500D02*
X7053465D01*
X7043964Y4420000D02*
X7046465Y4417500D01*
X7043964Y4420000D02*
Y4472000D01*
X7100964Y4529000D01*
Y4558000D01*
X7078964Y4561500D02*
X7084965Y4567500D01*
X7104969D01*
X7114001Y4558468D01*
X7095965Y4563000D02*
X7100964Y4558000D01*
X7086964Y4563000D02*
X7095965D01*
X7079964Y4556000D02*
X7086964Y4563000D01*
X7071465Y4556000D02*
X7079964D01*
X7068465Y4559000D02*
X7071465Y4556000D01*
X7068465Y4559000D02*
Y4562500D01*
X7072964Y4567000D01*
X7077464D01*
X7072465Y4347000D02*
Y4352500D01*
X7074464Y4354500D01*
X7077464D01*
X7195965Y4399000D02*
Y4428000D01*
Y4399000D02*
X7201965Y4393000D01*
X7208965Y4391500D02*
Y4429500D01*
Y4391500D02*
X7210965Y4389500D01*
X7141843Y4177000D02*
X7278964D01*
X7228964Y4275500D02*
X7231464D01*
X7231153Y4294689D02*
X7231464D01*
X7230965Y4236000D02*
X7250465D01*
X7172465Y4260000D02*
X7186964Y4245500D01*
X7195965D01*
X7200964Y4240500D01*
X7175465Y4267500D02*
X7187465Y4255500D01*
X7195965D01*
X7200964Y4250500D01*
X7178964Y4280000D02*
X7188464Y4270500D01*
X7190965D01*
X7181965Y4289500D02*
X7190965Y4280500D01*
X7199464Y4390500D02*
X7201965Y4393000D01*
X7199464Y4373500D02*
Y4390500D01*
Y4373500D02*
X7206965Y4366000D01*
X7210965Y4389500D02*
X7223965D01*
X7242965Y4244500D02*
X7260965D01*
X7280553Y4305088D02*
Y4313911D01*
X7275964Y4300500D02*
X7280553Y4305088D01*
X7221964Y4300500D02*
X7275964D01*
X7212465Y4291000D02*
X7221964Y4300500D01*
X7212465Y4224500D02*
Y4291000D01*
X7231464Y4294689D02*
X7242153Y4284000D01*
X7281965Y4280500D02*
X7285553Y4276912D01*
X7224464Y4271000D02*
X7228964Y4275500D01*
X7224464Y4254000D02*
Y4271000D01*
Y4254000D02*
X7226965Y4251500D01*
X7235965D01*
X7242965Y4244500D01*
X7286641Y4286000D02*
X7295553Y4277089D01*
X7242153Y4284000D02*
X7267464D01*
X7269465Y4286000D01*
X7286641D01*
X7231464Y4275500D02*
X7265965D01*
X7270965Y4280500D01*
X7281965D01*
X7231464Y4286138D02*
X7238103Y4279500D01*
X7266965D01*
X7270464Y4283000D01*
X7283965D01*
X7289465Y4277500D01*
Y4273500D02*
Y4277500D01*
X7231314Y4266740D02*
X7262704D01*
X7269965Y4274000D01*
X7281965D01*
X7285965Y4270000D01*
X7277502Y4261537D02*
X7285965Y4270000D01*
X7289465Y4273500D01*
X7216965Y4233000D02*
Y4280500D01*
X7231153Y4294689D01*
X7219827Y4274500D02*
X7231464Y4286138D01*
X7219827Y4234138D02*
X7226928Y4227037D01*
X7221289Y4247037D02*
X7231265D01*
X7219827Y4248500D02*
X7221289Y4247037D01*
X7219827Y4234138D02*
Y4248500D01*
Y4274500D01*
X7265928Y4287537D02*
X7271391Y4293000D01*
X7288464D01*
X7299965Y4281500D01*
X7289465Y4273500D02*
X7299965D01*
Y4281500D01*
Y4273500D02*
X7304465D01*
X7305465Y4272500D01*
X7250465Y4236000D02*
X7258465Y4228000D01*
X7292965D01*
X7216965Y4233000D02*
X7225964Y4224000D01*
X7292965Y4228000D02*
X7302965Y4218000D01*
X7266965D02*
X7302965D01*
X7074965Y4460500D02*
X7077464Y4463000D01*
X7113965D01*
X7128964Y4448000D01*
Y4443500D02*
Y4448000D01*
X7077464Y4354500D02*
X7079465Y4356500D01*
X7106965D01*
X7122964Y4340500D01*
Y4332500D02*
Y4340500D01*
Y4332500D02*
X7124965Y4330500D01*
X7149965D01*
X7200964Y4260500D02*
Y4270500D01*
Y4280500D01*
X7252464Y4365500D02*
X7310965D01*
X7223965Y4389500D02*
X7250964Y4362500D01*
X7308465D01*
X7309965Y4251000D02*
Y4352217D01*
X7305965Y4356216D02*
X7309965Y4352217D01*
X7185965Y4325500D02*
Y4373000D01*
X7187965Y4375000D01*
X7185965Y4325500D02*
X7196964Y4314500D01*
X7226465D01*
X7260464D01*
X7275964Y4330000D01*
X7177464Y4546000D02*
Y4548500D01*
X7182819Y4553854D01*
X7270094D01*
Y4516000D02*
Y4553854D01*
Y4573854D01*
Y4443000D02*
Y4480854D01*
Y4516000D01*
X7174965Y4474000D02*
X7179964Y4479000D01*
X7268240D01*
X7270094Y4480854D01*
X7258438Y4416698D02*
X7270094Y4428354D01*
X7275964Y4330000D02*
X7305465Y4300500D01*
Y4272500D02*
Y4300500D01*
X7202965Y4516788D02*
X7269306D01*
X7270094Y4516000D01*
X7226965Y4443000D02*
X7270094D01*
X7321964Y4309500D02*
X7325465Y4306000D01*
X7321964Y4309500D02*
Y4361500D01*
X7303448Y4370000D02*
X7313464D01*
X7321964Y4361500D01*
X7014964Y4403500D02*
X7144965D01*
X7012465Y4413500D02*
X7014964D01*
X7160464Y4429000D02*
X7162465Y4431000D01*
X7226928Y4227037D02*
X7230965D01*
X7138480Y4259490D02*
X7162965Y4283975D01*
X7138480Y4217490D02*
X7146465Y4225475D01*
Y4263000D01*
X7165465Y4282000D01*
Y4427500D01*
X7138480Y4365490D02*
X7157964Y4384975D01*
X7140479Y4546990D02*
Y4564990D01*
X7133443Y4572027D02*
X7140479Y4564990D01*
X7159464Y4574500D02*
X7193964D01*
X7140479Y4546990D02*
X7146474D01*
X7146874Y4546590D01*
X7144965Y4403500D02*
X7151965Y4396500D01*
X7140479Y4334990D02*
X7152975D01*
X7155965Y4332000D01*
X7138480Y4323490D02*
X7157455D01*
X7160464Y4326500D01*
Y4429000D01*
X7149965Y4330500D02*
X7153465Y4327000D01*
X7157465D01*
X7158874Y4328410D01*
X7156965Y4337500D02*
Y4345500D01*
Y4337500D02*
X7158874Y4335591D01*
Y4328410D02*
Y4335591D01*
X7208965Y4356000D02*
X7218964D01*
X7221964Y4353000D01*
X7157964Y4211505D02*
Y4243500D01*
Y4211505D02*
X7159464Y4210005D01*
X7031979Y4454490D02*
Y4529490D01*
Y4242490D02*
Y4317490D01*
X7008965Y4393500D02*
X7014964D01*
X7031979Y4376485D01*
Y4348490D02*
Y4376485D01*
X7006464Y4396000D02*
X7008965Y4393500D01*
X7006464Y4396000D02*
Y4442575D01*
X7015465Y4451575D01*
X7258438Y4371000D02*
Y4416698D01*
X7146874Y4546500D02*
Y4546590D01*
X7137032Y4435433D02*
X7155394D01*
X7154568Y4429490D02*
X7158059Y4432980D01*
Y4487094D01*
X7200465Y4529500D01*
X7151850Y4566886D02*
X7159464Y4574500D01*
X7141621Y4535490D02*
X7151850Y4545719D01*
X7138480Y4535490D02*
X7141621D01*
X7151850Y4545719D02*
Y4566886D01*
X7192008Y4433071D02*
X7215394D01*
X7219965Y4428500D01*
X7025990Y4236500D02*
X7031979Y4242490D01*
X7245377Y4255588D02*
X7247964Y4253000D01*
X7231464Y4255588D02*
X7245377D01*
X7270094Y4428354D02*
Y4443000D01*
X7291417Y4382032D02*
Y4392618D01*
Y4382032D02*
X7303448Y4370000D01*
D32*
X7131021Y4042036D02*
Y4089252D01*
X7029882Y4042036D02*
Y4065276D01*
X7045021Y4042036D02*
Y4088976D01*
X7108086Y4121315D02*
Y4144374D01*
X7097717Y4110945D02*
X7108086Y4121315D01*
X7076063Y4110945D02*
X7097717D01*
X7067480Y4102362D02*
X7076063Y4110945D01*
X7067480Y4066024D02*
Y4102362D01*
Y4066024D02*
X7091468Y4042036D01*
X7022086Y4120984D02*
Y4144374D01*
X7011299Y4110197D02*
X7022086Y4120984D01*
X6991929Y4110197D02*
X7011299D01*
X6982126Y4100394D02*
X6991929Y4110197D01*
X6982126Y4064212D02*
Y4100394D01*
Y4064212D02*
X7004302Y4042036D01*
X7006689Y4088469D02*
X7029882Y4065276D01*
X7116061Y4042036D02*
Y4064648D01*
X7092240Y4088469D02*
X7116061Y4064648D01*
X7004302Y4042036D02*
X7015100D01*
X7091468D02*
X7101100D01*
X7084464Y4088469D02*
X7092240D01*
X6998465D02*
X7006689D01*
D34*
X7045708Y4136500D02*
D03*
X7022086Y4144374D02*
D03*
X6998465Y4136500D02*
D03*
Y4088469D02*
D03*
X7045708D02*
D03*
X7131709Y4136500D02*
D03*
X7108086Y4144374D02*
D03*
X7084464Y4136500D02*
D03*
Y4088469D02*
D03*
X7131709D02*
D03*
D35*
X7320965Y4099815D02*
D03*
Y4119500D02*
D03*
X7015100Y4042036D02*
D03*
X7030061D02*
D03*
X7045021D02*
D03*
X7101100D02*
D03*
X7116061D02*
D03*
X7131021D02*
D03*
D36*
X7320965Y4139185D02*
D03*
D37*
X7219965Y4428500D02*
D03*
X7199464Y4535000D02*
D03*
X7181716Y4539500D02*
D03*
X7185965Y4571500D02*
D03*
X7204465Y4572500D02*
D03*
X7204964Y4499500D02*
D03*
X7184464Y4499000D02*
D03*
X7199965Y4463500D02*
D03*
X7182465Y4465000D02*
D03*
X7090039Y4239370D02*
D03*
X7031979Y4242490D02*
D03*
X7114001Y4223027D02*
D03*
X7138480Y4217490D02*
D03*
X7051479Y4211490D02*
D03*
X7138480Y4259490D02*
D03*
X7075465Y4243500D02*
D03*
X7080943Y4254027D02*
D03*
X7140479Y4228990D02*
D03*
X7080943Y4360027D02*
D03*
X7090038Y4347027D02*
D03*
X7138480Y4323490D02*
D03*
X7075465Y4349500D02*
D03*
X7140479Y4334990D02*
D03*
X7138480Y4365490D02*
D03*
X7031979Y4348490D02*
D03*
X7114001Y4329027D02*
D03*
X7051479Y4317490D02*
D03*
X7080943Y4572027D02*
D03*
X7090038Y4559027D02*
D03*
X7138480Y4535490D02*
D03*
X7075465Y4561500D02*
D03*
X7140479Y4546990D02*
D03*
X7138480Y4577490D02*
D03*
X7031979Y4560490D02*
D03*
X7114001Y4541027D02*
D03*
X7051479Y4529490D02*
D03*
X7080943Y4466027D02*
D03*
X7075964Y4455500D02*
D03*
X7138480Y4429490D02*
D03*
X7140479Y4440990D02*
D03*
X7138480Y4471490D02*
D03*
X7031979Y4454490D02*
D03*
X7090038Y4453027D02*
D03*
X7051479Y4423490D02*
D03*
X7114001Y4435027D02*
D03*
X7214465Y4498500D02*
D03*
X7209055Y4461378D02*
D03*
X7186465Y4461500D02*
D03*
X7196964Y4498500D02*
D03*
X7196465Y4572000D02*
D03*
X7213464Y4571500D02*
D03*
X7208268Y4533819D02*
D03*
X7187465Y4534500D02*
D03*
X7212008Y4392559D02*
D03*
X7308261Y4235980D02*
D03*
X7310236Y4223268D02*
D03*
Y4217205D02*
D03*
X7262362Y4224370D02*
D03*
X7308583Y4242126D02*
D03*
X7264567Y4254685D02*
D03*
X7263504Y4231929D02*
D03*
X7262992Y4238268D02*
D03*
X7190433Y4431102D02*
D03*
X7151850Y4438976D02*
D03*
X7030810Y4173110D02*
D03*
X7117809Y4175380D02*
D03*
X7050275Y4174803D02*
D03*
X7141843Y4177000D02*
D03*
X7279614Y4077000D02*
D03*
X7277115D02*
D03*
X7231464Y4275500D02*
D03*
X7231314Y4266740D02*
D03*
X7231464Y4294689D02*
D03*
Y4286138D02*
D03*
Y4255588D02*
D03*
X7231265Y4247037D02*
D03*
X7230965Y4236000D02*
D03*
X7177464Y4546000D02*
D03*
X7202965Y4516788D02*
D03*
X7174965Y4474000D02*
D03*
X7077464Y4567000D02*
D03*
X7074965Y4460500D02*
D03*
X7077464Y4354500D02*
D03*
X7075964Y4249000D02*
D03*
X7186964Y4393500D02*
D03*
X7201965Y4393000D02*
D03*
X7195965Y4428000D02*
D03*
X7208965Y4429500D02*
D03*
X7277502Y4261537D02*
D03*
X7265928Y4287537D02*
D03*
X7285553Y4276912D02*
D03*
X7295553Y4277089D02*
D03*
X7280553Y4313911D02*
D03*
X7226465Y4314500D02*
D03*
X7185965Y4325500D02*
D03*
X7275964Y4270000D02*
D03*
X7305465Y4272500D02*
D03*
X7262770Y4217305D02*
D03*
X7275964Y4330000D02*
D03*
X7187965Y4375000D02*
D03*
X7226965Y4443000D02*
D03*
X7230965Y4227037D02*
D03*
X7151965Y4396500D02*
D03*
X7155965Y4332000D02*
D03*
X7156965Y4345500D02*
D03*
X7208965Y4356000D02*
D03*
X7221964Y4353000D02*
D03*
X7157964Y4243500D02*
D03*
X7159464Y4210005D02*
D03*
X7258438Y4371000D02*
D03*
X7155394Y4435433D02*
D03*
X7147913Y4545551D02*
D03*
D38*
X7331555Y4338500D02*
D03*
Y4356216D02*
D03*
X7305965Y4338500D02*
D03*
Y4356216D02*
D03*
D39*
X7206965Y4366000D02*
D03*
X7015465Y4216500D02*
D03*
Y4226500D02*
D03*
Y4236500D02*
D03*
Y4246500D02*
D03*
X7014964Y4319000D02*
D03*
Y4329000D02*
D03*
Y4339000D02*
D03*
Y4349000D02*
D03*
Y4403500D02*
D03*
Y4393500D02*
D03*
X7015465Y4461575D02*
D03*
Y4451575D02*
D03*
Y4441575D02*
D03*
Y4431575D02*
D03*
X7015965Y4561000D02*
D03*
Y4551000D02*
D03*
Y4541000D02*
D03*
Y4531000D02*
D03*
X7190965Y4240500D02*
D03*
X7200964Y4250500D02*
D03*
X7190965D02*
D03*
X7200964Y4260500D02*
D03*
X7190965D02*
D03*
X7200964Y4270500D02*
D03*
X7190965D02*
D03*
X7200964Y4280500D02*
D03*
X7190965D02*
D03*
X7325465Y4246000D02*
D03*
Y4256000D02*
D03*
Y4266000D02*
D03*
Y4276000D02*
D03*
Y4296000D02*
D03*
Y4286000D02*
D03*
D40*
X7216965Y4366000D02*
D03*
D41*
X7321275Y4609322D02*
D03*
X6975964Y4607500D02*
D03*
Y4015000D02*
D03*
X7321275D02*
D03*
X7316417Y4432933D02*
D03*
Y4387264D02*
D03*
X7316063Y4462576D02*
D03*
Y4508245D02*
D03*
X7316417Y4582514D02*
D03*
Y4536845D02*
D03*
D42*
X7015465Y4256500D02*
D03*
X7014964Y4359000D02*
D03*
Y4413500D02*
D03*
X7015465Y4471575D02*
D03*
X7015965Y4571000D02*
D03*
X7200964Y4240500D02*
D03*
X7325465Y4306000D02*
D03*
D43*
X7304410Y4378760D02*
D03*
Y4441437D02*
D03*
X7304055Y4516749D02*
D03*
Y4454072D02*
D03*
X7304410Y4528341D02*
D03*
Y4591018D02*
D03*
D44*
X7281417Y4427618D02*
D03*
X7291417Y4422618D02*
D03*
X7281417Y4417618D02*
D03*
X7291417Y4412618D02*
D03*
X7281417Y4407618D02*
D03*
X7291417Y4402618D02*
D03*
X7281417Y4397618D02*
D03*
X7291417Y4392618D02*
D03*
X7291063Y4467930D02*
D03*
X7281063Y4472930D02*
D03*
X7291063Y4477930D02*
D03*
X7281063Y4482930D02*
D03*
X7291063Y4487930D02*
D03*
X7281063Y4492930D02*
D03*
X7291063Y4497930D02*
D03*
X7281063Y4502930D02*
D03*
X7281417Y4577199D02*
D03*
X7291417Y4572199D02*
D03*
X7281417Y4567199D02*
D03*
X7291417Y4562199D02*
D03*
X7281417Y4557199D02*
D03*
X7291417Y4552199D02*
D03*
X7281417Y4547199D02*
D03*
X7291417Y4542199D02*
D03*
D45*
X7335709Y4383661D02*
D03*
Y4393661D02*
D03*
X7335000Y4427264D02*
D03*
Y4437264D02*
D03*
X7334646Y4512576D02*
D03*
Y4502576D02*
D03*
X7335355Y4468974D02*
D03*
Y4458973D02*
D03*
X7335709Y4533242D02*
D03*
Y4543242D02*
D03*
X7335000Y4576844D02*
D03*
Y4586845D02*
D03*
D46*
X7329964Y4045000D02*
D03*
X7332465Y4083500D02*
D03*
Y4077500D02*
D03*
Y4071500D02*
D03*
D47*
X7165965Y4078000D02*
D03*
Y4091000D02*
D03*
Y4103500D02*
D03*
X7204964Y4131000D02*
D03*
Y4122000D02*
D03*
X7214964Y4117000D02*
D03*
X7165465Y4067500D02*
D03*
Y4055000D02*
D03*
Y4042500D02*
D03*
X7183307Y4037283D02*
D03*
X7195866Y4036732D02*
D03*
X7208465Y4037283D02*
D03*
X7220965D02*
D03*
X7285965D02*
D03*
X7253964D02*
D03*
X7272465D02*
D03*
X7155465Y4097500D02*
D03*
X7241965Y4119000D02*
D03*
X7254964D02*
D03*
X7268964D02*
D03*
X7285965D02*
D03*
X7155064Y4111400D02*
D03*
X7259865Y4097600D02*
D03*
Y4101600D02*
D03*
X7165965Y4116000D02*
D03*
X7167965Y4129000D02*
D03*
M02*
