M48
;Layer_Color=9474304
;FILE_FORMAT=2:5
INCH,LZ
;TYPE=PLATED
T9F00S00C0.07874
%
G90
G05
T09
G00X0237402Y0368701
M15
G01Y0370669
M16
G00X0257087Y0368701
M15
G01Y0370669
M16
G00X0276772Y0368701
M15
G01Y0370669
M16
G00X0276772Y039626
M15
G01Y0398228
M16
G00X0257087Y039626
M15
G01Y0398228
M16
G00X0237402Y039626
M15
G01Y0398228
M16
G00X0237402Y0418701
M15
G01Y0420669
M16
G00X0257087Y0418701
M15
G01Y0420669
M16
G00X0276772Y0418701
M15
G01Y0420669
M16
G00X0276772Y044626
M15
G01Y0448228
M16
G00X0257087Y044626
M15
G01Y0448228
M16
G00X0237402Y044626
M15
G01Y0448228
M16
G00X0438976Y0436417
M15
G01Y0434449
M16
G00X0458661Y0436417
M15
G01Y0434449
M16
G00X0458661Y0408858
M15
G01Y040689
M16
G00X0438976Y0408858
M15
G01Y040689
M16
G00X0478346Y0408858
M15
G01Y040689
M16
G00X0478346Y0436417
M15
G01Y0434449
M16
M17
M30
