G04 Layer_Color=65535*
%FSLAX25Y25*%
%MOIN*%
G70*
G01*
G75*
%ADD45C,0.00984*%
%ADD46C,0.02362*%
%ADD47C,0.01000*%
%ADD48C,0.00787*%
%ADD49C,0.00800*%
%ADD50C,0.00394*%
%ADD51C,0.01181*%
%ADD52C,0.00315*%
%ADD53R,0.02362X0.06693*%
D45*
X1966673Y1166732D02*
G03*
X1966673Y1166732I-492J0D01*
G01*
X1960217Y1203661D02*
G03*
X1960217Y1203661I-492J0D01*
G01*
X1869744Y1257835D02*
G03*
X1869744Y1257835I-492J0D01*
G01*
X2230965Y1254390D02*
G03*
X2230965Y1254390I-492J0D01*
G01*
X2258890Y1259772D02*
G03*
X2258890Y1259772I-492J0D01*
G01*
X2237563Y1268232D02*
G03*
X2237563Y1268232I-492J0D01*
G01*
X1975295Y1211850D02*
G03*
X1975295Y1211850I-492J0D01*
G01*
X2186122Y1213505D02*
G03*
X2186122Y1213505I-492J0D01*
G01*
X2171043Y1205316D02*
G03*
X2171043Y1205316I-492J0D01*
G01*
X2177500Y1168387D02*
G03*
X2177500Y1168387I-492J0D01*
G01*
X2080571Y1259489D02*
G03*
X2080571Y1259489I-492J0D01*
G01*
X1983209Y1033957D02*
G03*
X1983209Y1033957I-492J0D01*
G01*
X2194036Y1035611D02*
G03*
X2194036Y1035611I-492J0D01*
G01*
X2047805Y1257252D02*
G03*
X2047805Y1257252I-492J0D01*
G01*
X2019892Y1252579D02*
G03*
X2019892Y1252579I-492J0D01*
G01*
X1910138Y1208780D02*
G03*
X1910138Y1208780I-492J0D01*
G01*
X2120965Y1210434D02*
G03*
X2120965Y1210434I-492J0D01*
G01*
X2026479Y1265713D02*
G03*
X2026479Y1265713I-492J0D01*
G01*
D46*
X1961634Y1158366D02*
G03*
X1961634Y1158366I-1181J0D01*
G01*
X2172461Y1160021D02*
G03*
X2172461Y1160021I-1181J0D01*
G01*
X1904882Y1200413D02*
G03*
X1904882Y1200413I-1181J0D01*
G01*
X2115709Y1202068D02*
G03*
X2115709Y1202068I-1181J0D01*
G01*
D47*
X2163129Y1255639D02*
G03*
X2163129Y1255639I-1408J0D01*
G01*
X1952302Y1253985D02*
G03*
X1952302Y1253985I-1408J0D01*
G01*
X2248264Y1200347D02*
G03*
X2251008Y1200276I1366J-268D01*
G01*
X2245491Y1200233D02*
G03*
X2248239Y1200352I1383J-154D01*
G01*
X2242347Y1200276D02*
G03*
X2245102Y1200276I1378J-197D01*
G01*
X2239585Y1200233D02*
G03*
X2242346Y1200276I1383J-154D01*
G01*
X2236436Y1200233D02*
G03*
X2239197Y1200276I1383J-154D01*
G01*
X2233291D02*
G03*
X2236047Y1200276I1378J-197D01*
G01*
X2230136Y1200233D02*
G03*
X2232903Y1200233I1383J-154D01*
G01*
X2251013Y1178271D02*
G03*
X2248247Y1178271I-1383J154D01*
G01*
X2247858Y1178228D02*
G03*
X2245102Y1178228I-1378J197D01*
G01*
X2244714Y1178271D02*
G03*
X2241953Y1178228I-1383J154D01*
G01*
X2241565Y1178271D02*
G03*
X2238803Y1178228I-1383J154D01*
G01*
X2238803D02*
G03*
X2236047Y1178228I-1378J197D01*
G01*
X2235659Y1178271D02*
G03*
X2232911Y1178152I-1383J154D01*
G01*
X2232886Y1178157D02*
G03*
X2230142Y1178228I-1366J268D01*
G01*
X2021801Y1175638D02*
G03*
X2019057Y1175709I-1366J268D01*
G01*
X2024575Y1175752D02*
G03*
X2021826Y1175633I-1383J154D01*
G01*
X2027719Y1175709D02*
G03*
X2024963Y1175709I-1378J197D01*
G01*
X2030480Y1175752D02*
G03*
X2027719Y1175709I-1383J154D01*
G01*
X2033630Y1175752D02*
G03*
X2030869Y1175709I-1383J154D01*
G01*
X2036774D02*
G03*
X2034018Y1175709I-1378J197D01*
G01*
X2039929Y1175752D02*
G03*
X2037162Y1175752I-1383J154D01*
G01*
X2019052Y1197713D02*
G03*
X2021819Y1197713I1383J-154D01*
G01*
X2022207Y1197756D02*
G03*
X2024963Y1197756I1378J-197D01*
G01*
X2025351Y1197713D02*
G03*
X2028113Y1197756I1383J-154D01*
G01*
X2028501Y1197713D02*
G03*
X2031262Y1197756I1383J-154D01*
G01*
X2031262D02*
G03*
X2034018Y1197756I1378J-197D01*
G01*
X2034406Y1197713D02*
G03*
X2037155Y1197832I1383J-154D01*
G01*
X2037180Y1197827D02*
G03*
X2039924Y1197756I1366J-268D01*
G01*
X2105748Y1250080D02*
Y1256379D01*
X2099031Y1143418D02*
X2105331D01*
X2088661Y1143418D02*
X2094961D01*
X2098874Y1121871D02*
X2105173D01*
X2088504Y1121871D02*
X2094803D01*
X1940039Y1209331D02*
Y1215630D01*
X2328032Y866299D02*
Y904095D01*
X2327638Y904488D02*
X2328032Y904095D01*
X2276850Y865512D02*
Y904488D01*
X2327638D01*
X2276850Y865512D02*
X2327638D01*
X2328032Y865905D01*
X2327756Y958307D02*
Y996102D01*
X2327362Y996496D02*
X2327756Y996102D01*
X2276575Y957520D02*
Y996496D01*
X2327362D01*
X2276575Y957520D02*
X2327362D01*
X2327756Y957913D01*
X2107755Y958174D02*
X2233955Y958074D01*
X2107755Y907874D02*
X2234155D01*
X2107756D02*
Y957874D01*
X2234055Y907874D02*
Y957874D01*
X2234079Y1204213D02*
X2246677D01*
X2227780Y1174291D02*
X2250220D01*
X2252976D01*
Y1204213D01*
X2227780D02*
X2234079D01*
X2246677D02*
X2252976D01*
X2227780Y1174291D02*
Y1204213D01*
X2227780Y1204213D02*
X2227780Y1204213D01*
X2227780D02*
Y1204213D01*
X2240766Y1198701D02*
Y1204207D01*
X2230136Y1200233D02*
Y1203813D01*
X2251008Y1200276D02*
Y1203819D01*
X2230142Y1174685D02*
Y1178228D01*
X2251013Y1174691D02*
Y1178271D01*
X2240383Y1174297D02*
Y1179803D01*
X2234472Y1174291D02*
X2247071D01*
X2226874Y1154629D02*
X2233173D01*
X2246874D02*
X2253173D01*
X2042126Y905079D02*
Y987701D01*
X1872047Y905079D02*
Y987836D01*
Y905079D02*
X2042126D01*
X1872047Y987836D02*
X2042126Y987701D01*
X2150866Y1210985D02*
Y1217284D01*
X1936181Y1154606D02*
Y1160905D01*
X2147008Y1156261D02*
Y1162560D01*
X1894921Y1248425D02*
Y1254724D01*
X1931492Y1167354D02*
Y1173654D01*
X2142319Y1169009D02*
Y1175308D01*
X1877835Y1141764D02*
X1884134D01*
X1888205Y1141764D02*
X1894504D01*
X1860905Y948976D02*
X1861299Y949370D01*
X1810118Y948976D02*
X1860905D01*
X1810118Y987953D02*
X1860905D01*
X1810118Y948976D02*
Y987953D01*
X1860905D02*
X1861299Y987559D01*
Y949764D02*
Y987559D01*
X1863425Y865512D02*
X1863819Y865905D01*
X1812638Y865512D02*
X1863425D01*
X1812638Y904488D02*
X1863425D01*
X1812638Y865512D02*
Y904488D01*
X1863425D02*
X1863819Y904095D01*
Y866299D02*
Y904095D01*
X2117165Y968701D02*
X2117559Y969094D01*
X2066378Y968701D02*
X2117165D01*
X2066378Y1007677D02*
X2117165D01*
X2066378Y968701D02*
Y1007677D01*
X2117165D02*
X2117559Y1007283D01*
Y969488D02*
Y1007283D01*
X2035790Y1152110D02*
X2042089D01*
X2015790D02*
X2022089D01*
X2023388Y1171772D02*
X2035987D01*
X2029299Y1171777D02*
Y1177283D01*
X2039929Y1172171D02*
Y1175752D01*
X2019057Y1172165D02*
Y1175709D01*
X2039924Y1197756D02*
Y1201299D01*
X2019052Y1197713D02*
Y1201294D01*
X2029682Y1196181D02*
Y1201687D01*
X2016695Y1201693D02*
Y1201693D01*
X2016695Y1201693D01*
Y1171772D02*
Y1201693D01*
X2035593Y1201693D02*
X2041892D01*
X2016695D02*
X2022994D01*
X2041892Y1171772D02*
Y1201693D01*
X2039136Y1171772D02*
X2041892D01*
X2016695D02*
X2039136D01*
X2022994Y1201693D02*
X2035593D01*
X1888047Y1120216D02*
X1894346D01*
X1877677Y1120216D02*
X1883976D01*
X1932165Y1186693D02*
Y1192992D01*
X2142992Y1188347D02*
Y1194646D01*
D48*
X2431472Y1072638D02*
G03*
X2431472Y1072638I-71354J0D01*
G01*
Y1221142D02*
G03*
X2431472Y1221142I-71354J0D01*
G01*
X2582495Y1221063D02*
G03*
X2582495Y1221063I-71354J0D01*
G01*
X2585763Y1069606D02*
G03*
X2585763Y1069606I-71354J0D01*
G01*
X1945492Y1162303D02*
X1964390D01*
X1945492Y1149705D02*
X1964390D01*
Y1162303D01*
X1945492Y1149705D02*
Y1162303D01*
X1964252Y1202480D02*
X1966220D01*
Y1199331D02*
Y1202480D01*
X1964252Y1190669D02*
X1966220D01*
Y1193819D01*
X1876732Y1244449D02*
Y1247205D01*
X1872795Y1244449D02*
X1876732D01*
Y1253504D02*
Y1256260D01*
X1872795D02*
X1876732D01*
X2324465Y1070638D02*
Y1074638D01*
X2322465Y1072638D02*
X2326465D01*
X2236378Y1213858D02*
X2243465D01*
X2236378Y1253228D02*
X2243465D01*
Y1213858D02*
Y1253228D01*
X2236378Y1213858D02*
Y1253228D01*
X2268240Y1266268D02*
X2271390D01*
Y1264299D02*
Y1266268D01*
X2259579D02*
X2262728D01*
X2259579Y1264299D02*
Y1266268D01*
X2224079Y1261736D02*
X2227228D01*
X2224079D02*
Y1263705D01*
X2232740Y1261736D02*
X2235890D01*
Y1263705D01*
X2324465Y1219142D02*
Y1223142D01*
X2322465Y1221142D02*
X2326465D01*
X2475488Y1219063D02*
Y1223063D01*
X2473488Y1221063D02*
X2477488D01*
X2478756Y1067606D02*
Y1071606D01*
X2476756Y1069606D02*
X2480756D01*
X1806732Y1287441D02*
X1836732D01*
X1806732Y1277441D02*
Y1287441D01*
Y1277441D02*
X1836732D01*
Y1287441D01*
X1827126Y1216102D02*
X1837126D01*
X1827126D02*
Y1266102D01*
X1837126Y1216102D02*
Y1266102D01*
X1827126D02*
X1837126D01*
X1968307Y1213031D02*
X1970276D01*
X1968307D02*
Y1216181D01*
Y1224842D02*
X1970276D01*
X1968307Y1221693D02*
Y1224842D01*
X2179134Y1214686D02*
X2181102D01*
X2179134D02*
Y1217835D01*
Y1226497D02*
X2181102D01*
X2179134Y1223347D02*
Y1226497D01*
X2175079Y1204135D02*
X2177047D01*
Y1200985D02*
Y1204135D01*
X2175079Y1192324D02*
X2177047D01*
Y1195473D01*
X2156319Y1163958D02*
X2175216D01*
X2156319Y1151359D02*
X2175216D01*
Y1163958D01*
X2156319Y1151359D02*
Y1163958D01*
X2087559Y1246103D02*
Y1248859D01*
X2083622Y1246103D02*
X2087559D01*
Y1255158D02*
Y1257914D01*
X2083622D02*
X2087559D01*
X1981536Y1026968D02*
Y1030906D01*
X1978386Y1026968D02*
X1981536D01*
X1969724D02*
Y1030906D01*
Y1026968D02*
X1972874D01*
X2192362Y1028623D02*
Y1032560D01*
X2189213Y1028623D02*
X2192362D01*
X2180551D02*
Y1032560D01*
Y1028623D02*
X2183701D01*
X2048495Y1261780D02*
Y1263748D01*
X2051644D01*
X2060305Y1261780D02*
Y1263748D01*
X2057156D02*
X2060305D01*
X2025306Y1212047D02*
X2032392D01*
X2025306Y1251417D02*
X2032392D01*
Y1212047D02*
Y1251417D01*
X2025306Y1212047D02*
Y1251417D01*
X1874173Y1191752D02*
Y1204350D01*
X1907638Y1191752D02*
Y1204350D01*
X1874173Y1191752D02*
X1907638D01*
X1874173Y1204350D02*
X1907638D01*
X2085000Y1193406D02*
Y1206005D01*
X2118465Y1193406D02*
Y1206005D01*
X2085000Y1193406D02*
X2118465D01*
X2085000Y1206005D02*
X2118465D01*
X2024805Y1259216D02*
Y1261185D01*
X2021656Y1259216D02*
X2024805D01*
X2012995D02*
Y1261185D01*
Y1259216D02*
X2016144D01*
D49*
X2181185Y1185111D02*
X2191185D01*
X2181185Y1178111D02*
X2191185D01*
X2181194Y1174994D02*
X2191194D01*
X2181194Y1167994D02*
X2191194D01*
X2181169Y1157960D02*
X2191169D01*
X2181169Y1164960D02*
X2191169D01*
X2181169Y1147920D02*
X2191169D01*
X2181169Y1154920D02*
X2191169D01*
X2171076Y1264325D02*
X2181076D01*
X2171076Y1257325D02*
X2181076D01*
X2163147Y1270988D02*
Y1280988D01*
X2156147Y1270988D02*
Y1280988D01*
X2154147Y1270988D02*
Y1280988D01*
X2147147Y1270988D02*
Y1280988D01*
X2117035Y1256889D02*
X2127035D01*
X2117035Y1249889D02*
X2127035D01*
X2091576Y1229240D02*
Y1239240D01*
X2098576Y1229240D02*
Y1239240D01*
X2107789Y1229240D02*
Y1239240D01*
X2100789Y1229240D02*
Y1239240D01*
X2114239Y1177243D02*
X2124239D01*
X2114239Y1170243D02*
X2124239D01*
X2114239Y1160598D02*
X2124239D01*
X2114239Y1167598D02*
X2124239D01*
X2114239Y1157952D02*
X2124239D01*
X2114239Y1150952D02*
X2124239D01*
X2114121Y1148306D02*
X2124121D01*
X2114121Y1141306D02*
X2124121D01*
X2098191Y1159555D02*
Y1169555D01*
X2105191Y1159555D02*
Y1169555D01*
X2089140Y1159541D02*
Y1169541D01*
X2096140Y1159541D02*
Y1169541D01*
X2094996Y1026681D02*
Y1036681D01*
X2087996Y1026681D02*
Y1036681D01*
X2106216Y1026681D02*
Y1036681D01*
X2099216Y1026681D02*
Y1036681D01*
X2121518Y1022853D02*
Y1040826D01*
X2108382Y1022853D02*
Y1040826D01*
X2085471Y1026681D02*
Y1036681D01*
X2078471Y1026681D02*
Y1036681D01*
X2094996Y1049462D02*
Y1059462D01*
X2087996Y1049462D02*
Y1059462D01*
X2099216Y1049462D02*
Y1059462D01*
X2106216Y1049462D02*
Y1059462D01*
X2085471Y1049462D02*
Y1059462D01*
X2078471Y1049462D02*
Y1059462D01*
X2094996Y1070328D02*
Y1080328D01*
X2087996Y1070328D02*
Y1080328D01*
X2099216Y1070328D02*
Y1080328D01*
X2106216Y1070328D02*
Y1080328D01*
X2085471Y1070328D02*
Y1080328D01*
X2078471Y1070328D02*
Y1080328D01*
X2095112Y1092180D02*
Y1102180D01*
X2088112Y1092180D02*
Y1102180D01*
X2105904Y1092180D02*
Y1102180D01*
X2098904Y1092180D02*
Y1102180D01*
X2085471Y1092180D02*
Y1102180D01*
X2078471Y1092180D02*
Y1102180D01*
X2064274Y1136012D02*
Y1153984D01*
X2051138Y1136012D02*
Y1153984D01*
X1970342Y1146266D02*
X1980342D01*
X1970342Y1153266D02*
X1980342D01*
X1970342Y1156306D02*
X1980342D01*
X1970342Y1163305D02*
X1980342D01*
X1970367Y1173340D02*
X1980367D01*
X1970367Y1166340D02*
X1980367D01*
X1945794Y1193038D02*
Y1203038D01*
X1952794Y1193038D02*
Y1203038D01*
X1963069Y1209068D02*
Y1219068D01*
X1956069Y1209068D02*
Y1219068D01*
X1913806Y1195006D02*
X1923806D01*
X1913806Y1202006D02*
X1923806D01*
X1910691Y1021632D02*
Y1039605D01*
X1897555Y1021632D02*
Y1039605D01*
X1895390Y1025026D02*
Y1035026D01*
X1888390Y1025026D02*
Y1035026D01*
X1874644Y1025026D02*
Y1035026D01*
X1867644Y1025026D02*
Y1035026D01*
X1884169Y1047808D02*
Y1057808D01*
X1877169Y1047808D02*
Y1057808D01*
X1888390Y1047808D02*
Y1057808D01*
X1895390Y1047808D02*
Y1057808D01*
X1874644Y1047808D02*
Y1057808D01*
X1867644Y1047808D02*
Y1057808D01*
X1888390Y1068674D02*
Y1078674D01*
X1895390Y1068674D02*
Y1078674D01*
X1874644Y1068674D02*
Y1078674D01*
X1867644Y1068674D02*
Y1078674D01*
X1884285Y1090525D02*
Y1100525D01*
X1877285Y1090525D02*
Y1100525D01*
X1895077Y1090525D02*
Y1100525D01*
X1888077Y1090525D02*
Y1100525D01*
X1874644Y1090525D02*
Y1100525D01*
X1867644Y1090525D02*
Y1100525D01*
X1960249Y1242013D02*
X1970249D01*
X1960249Y1235013D02*
X1970249D01*
X1960249Y1262671D02*
X1970249D01*
X1960249Y1255671D02*
X1970249D01*
X1952435Y1269318D02*
Y1279318D01*
X1945435Y1269318D02*
Y1279318D01*
X1943183Y1269318D02*
Y1279318D01*
X1936183Y1269318D02*
Y1279318D01*
X1913280Y1234490D02*
X1923280D01*
X1913280Y1241490D02*
X1923280D01*
X1821017Y1242453D02*
Y1252454D01*
X1814017Y1242453D02*
Y1252454D01*
Y1220775D02*
Y1230775D01*
X1821017Y1220775D02*
Y1230775D01*
X2243449Y1264935D02*
X2253449D01*
X2243449Y1271935D02*
X2253449D01*
X2205984Y1250958D02*
X2215984D01*
X2205984Y1243958D02*
X2215984D01*
X2259958Y1201289D02*
X2269958D01*
X2259958Y1208289D02*
X2269958D01*
X2259958Y1210289D02*
X2269958D01*
X2259958Y1217289D02*
X2269958D01*
X2205993Y1232872D02*
X2215993D01*
X2205993Y1225872D02*
X2215993D01*
X2205984Y1259789D02*
X2215984D01*
X2205984Y1252789D02*
X2215984D01*
X2260011Y1199215D02*
X2270011D01*
X2260011Y1192215D02*
X2270011D01*
X2257151Y1235893D02*
Y1245893D01*
X2264151Y1235893D02*
Y1245893D01*
X2205984Y1234958D02*
X2215984D01*
X2205984Y1241958D02*
X2215984D01*
X2259698Y1219372D02*
X2269698D01*
X2259698Y1226372D02*
X2269698D01*
X2201347Y1202754D02*
X2211347D01*
X2201347Y1195754D02*
X2211347D01*
X2205984Y1268752D02*
X2215984D01*
X2205984Y1261752D02*
X2215984D01*
X2227922Y1142990D02*
X2237922D01*
X2227922Y1135991D02*
X2237922D01*
X2261190Y1171967D02*
X2271190D01*
X2261190Y1164967D02*
X2271190D01*
X2236484Y1152857D02*
Y1162858D01*
X2243484Y1152857D02*
Y1162858D01*
X1878313Y1157887D02*
Y1167887D01*
X1885313Y1157887D02*
Y1167887D01*
X1913688Y1204214D02*
X1923688D01*
X1913688Y1211214D02*
X1923688D01*
X2124515Y1205869D02*
X2134515D01*
X2124515Y1212868D02*
X2134515D01*
X2156620Y1194692D02*
Y1204692D01*
X2163621Y1194692D02*
Y1204692D01*
X1913280Y1232238D02*
X1923280D01*
X1913280Y1225238D02*
X1923280D01*
X2124107Y1233892D02*
X2134107D01*
X2124107Y1226892D02*
X2134107D01*
X1903413Y1158943D02*
X1913413D01*
X1903413Y1165943D02*
X1913413D01*
X1896962Y1227586D02*
Y1237586D01*
X1889962Y1227586D02*
Y1237586D01*
X2124633Y1196661D02*
X2134633D01*
X2124633Y1203661D02*
X2134633D01*
X1907238Y1222783D02*
Y1232783D01*
X1900238Y1222783D02*
Y1232783D01*
X2118065Y1224437D02*
Y1234437D01*
X2111065Y1224437D02*
Y1234437D01*
X2171076Y1243668D02*
X2181076D01*
X2171076Y1236668D02*
X2181076D01*
X1947507Y1232242D02*
X1957507D01*
X1947507Y1225243D02*
X1957507D01*
X2158334Y1233897D02*
X2168334D01*
X2158334Y1226897D02*
X2168334D01*
X1887364Y1157901D02*
Y1167901D01*
X1894364Y1157901D02*
Y1167901D01*
X1975164Y1194501D02*
Y1204501D01*
X1982164Y1194501D02*
Y1204501D01*
X2185991Y1196155D02*
Y1206155D01*
X2192990Y1196155D02*
Y1206155D01*
X2173896Y1210722D02*
Y1220722D01*
X2166896Y1210722D02*
Y1220722D01*
X1913688Y1213269D02*
X1923688D01*
X1913688Y1220269D02*
X1923688D01*
X2124515Y1214924D02*
X2134515D01*
X2124515Y1221924D02*
X2134515D01*
X1880750Y1227586D02*
Y1237586D01*
X1887750Y1227586D02*
Y1237586D01*
X1903413Y1156298D02*
X1913413D01*
X1903413Y1149298D02*
X1913413D01*
X2124107Y1236144D02*
X2134107D01*
X2124107Y1243144D02*
X2134107D01*
X1903295Y1146652D02*
X1913294D01*
X1903295Y1139652D02*
X1913294D01*
X1903413Y1175589D02*
X1913413D01*
X1903413Y1168589D02*
X1913413D01*
X1924144Y1137195D02*
X1942117D01*
X1924144Y1150331D02*
X1942117D01*
X2134971Y1138849D02*
X2152943D01*
X2134971Y1151985D02*
X2152943D01*
X1906208Y1255235D02*
X1916208D01*
X1906208Y1248235D02*
X1916208D01*
X2275101Y1137666D02*
Y1155639D01*
X2261965Y1137666D02*
Y1155639D01*
X1923255Y1183305D02*
X1933255D01*
X1923255Y1176305D02*
X1933255D01*
X2134082Y1184960D02*
X2144082D01*
X2134082Y1177960D02*
X2144082D01*
X1998368Y1021632D02*
Y1039605D01*
X1985232Y1021632D02*
Y1039605D01*
X2209195Y1023287D02*
Y1041259D01*
X2196059Y1023287D02*
Y1041259D01*
X2410097Y1280765D02*
X2428069D01*
X2410097Y1293902D02*
X2428069D01*
X2433916Y1280765D02*
X2451888D01*
X2433916Y1293902D02*
X2451888D01*
X2585214Y1143545D02*
Y1161517D01*
X2598350Y1143545D02*
Y1161517D01*
X2584781Y1119569D02*
Y1137541D01*
X2597917Y1119569D02*
Y1137541D01*
X2032400Y1150338D02*
Y1160338D01*
X2025400Y1150338D02*
Y1160338D01*
X2016838Y1133471D02*
X2026838D01*
X2016838Y1140471D02*
X2026838D01*
X2050105Y1162447D02*
X2060106D01*
X2050105Y1169447D02*
X2060106D01*
X1994900Y1266232D02*
X2004900D01*
X1994900Y1259232D02*
X2004900D01*
X1990263Y1193235D02*
X2000263D01*
X1990263Y1200235D02*
X2000263D01*
X1994900Y1232439D02*
X2004900D01*
X1994900Y1239439D02*
X2004900D01*
X2046067Y1233373D02*
Y1243373D01*
X2053067Y1233373D02*
Y1243373D01*
X2048927Y1196695D02*
X2058927D01*
X2048927Y1189695D02*
X2058927D01*
X1994900Y1257269D02*
X2004900D01*
X1994900Y1250269D02*
X2004900D01*
X1994909Y1230353D02*
X2004909D01*
X1994909Y1223353D02*
X2004909D01*
X2048873Y1207769D02*
X2058873D01*
X2048873Y1214769D02*
X2058873D01*
X2048873Y1198769D02*
X2058873D01*
X2048873Y1205769D02*
X2058873D01*
X1994900Y1248439D02*
X2004900D01*
X1994900Y1241439D02*
X2004900D01*
X2032365Y1262415D02*
X2042365D01*
X2032365Y1269415D02*
X2042365D01*
X2048873Y1216769D02*
X2058873D01*
X2048873Y1223769D02*
X2058873D01*
X1884169Y1068674D02*
Y1078674D01*
X1877169Y1068674D02*
Y1078674D01*
X1884169Y1025026D02*
Y1035026D01*
X1877169Y1025026D02*
Y1035026D01*
X1970358Y1183457D02*
X1980358D01*
X1970358Y1176457D02*
X1980358D01*
D50*
X2146268Y1257896D02*
X2164046D01*
Y1243263D02*
Y1257896D01*
X2164046Y1243263D02*
X2164046Y1243263D01*
X2146062Y1243263D02*
X2164046D01*
X2145994Y1243331D02*
X2146062Y1243263D01*
X2145994Y1243331D02*
Y1257896D01*
X1985641Y1142480D02*
X1985716Y1142404D01*
X1986543D01*
X1985641Y1142480D02*
Y1191079D01*
X1985642Y1191081D01*
X2011596D01*
X2011672Y1191156D01*
Y1142480D02*
Y1191156D01*
Y1142480D02*
X2011747Y1142404D01*
X1986543D02*
X2011747D01*
X1935441Y1256241D02*
X1953219D01*
Y1241608D02*
Y1256241D01*
X1953219Y1241608D02*
X1953219Y1241608D01*
X1935235Y1241608D02*
X1953219D01*
X1935167Y1241677D02*
X1935235Y1241608D01*
X1935167Y1241677D02*
Y1256241D01*
X2196267Y1144497D02*
X2196342Y1144421D01*
X2197170D01*
X2196267Y1144497D02*
Y1193096D01*
X2196269Y1193098D01*
X2222223D01*
X2222298Y1193173D01*
Y1144497D02*
Y1193173D01*
Y1144497D02*
X2222373Y1144421D01*
X2197170D02*
X2222373D01*
D51*
X1991811Y1042795D02*
Y1129409D01*
X2062677Y1042795D02*
Y1129409D01*
X1904535Y1042795D02*
Y1129409D01*
X1975402Y1042795D02*
Y1129409D01*
X2115394Y1043110D02*
Y1129724D01*
X2186260Y1043110D02*
Y1129724D01*
X2201969Y1043110D02*
Y1129724D01*
X2272835Y1043110D02*
Y1129724D01*
D52*
X1944700Y1176555D02*
Y1174259D01*
X1945159Y1173800D01*
X1946078D01*
X1946537Y1174259D01*
Y1176555D01*
X1947455Y1176096D02*
X1947914Y1176555D01*
X1948833D01*
X1949292Y1176096D01*
Y1175637D01*
X1948833Y1175177D01*
X1949292Y1174718D01*
Y1174259D01*
X1948833Y1173800D01*
X1947914D01*
X1947455Y1174259D01*
Y1174718D01*
X1947914Y1175177D01*
X1947455Y1175637D01*
Y1176096D01*
X1947914Y1175177D02*
X1948833D01*
X1950210Y1173800D02*
Y1174259D01*
X1950669D01*
Y1173800D01*
X1950210D01*
X1952506D02*
X1953424D01*
X1952965D01*
Y1176555D01*
X1952506Y1176096D01*
X1981535Y1139173D02*
Y1141928D01*
X1982913D01*
X1983372Y1141469D01*
Y1140551D01*
X1982913Y1140092D01*
X1981535D01*
X1982454D02*
X1983372Y1139173D01*
X1985668D02*
X1984750D01*
X1984291Y1139632D01*
Y1140551D01*
X1984750Y1141010D01*
X1985668D01*
X1986127Y1140551D01*
Y1140092D01*
X1984291D01*
X1987964Y1138255D02*
X1988423D01*
X1988882Y1138714D01*
Y1141010D01*
X1987505D01*
X1987045Y1140551D01*
Y1139632D01*
X1987505Y1139173D01*
X1988882D01*
X1989800D02*
X1990719D01*
X1990260D01*
Y1141928D01*
X1989800Y1141469D01*
X1992096Y1139173D02*
Y1139632D01*
X1992555D01*
Y1139173D01*
X1992096D01*
X1994392D02*
X1995311D01*
X1994851D01*
Y1141928D01*
X1994392Y1141469D01*
X2009773Y1265025D02*
X2011610D01*
X2012069Y1265484D01*
Y1266403D01*
X2011610Y1266862D01*
X2009773D01*
X2009314Y1266403D01*
Y1265484D01*
X2010232Y1265944D02*
X2009314Y1265025D01*
Y1265484D02*
X2009773Y1265025D01*
X2012069Y1262270D02*
Y1264107D01*
X2010691D01*
X2011151Y1263188D01*
Y1262729D01*
X2010691Y1262270D01*
X2009773D01*
X2009314Y1262729D01*
Y1263648D01*
X2009773Y1264107D01*
X2009314Y1261352D02*
X2009773D01*
Y1260893D01*
X2009314D01*
Y1261352D01*
Y1259056D02*
Y1258138D01*
Y1258597D01*
X2012069D01*
X2011610Y1259056D01*
X2084000Y1219455D02*
Y1217159D01*
X2084459Y1216700D01*
X2085378D01*
X2085837Y1217159D01*
Y1219455D01*
X2088592D02*
X2086755D01*
Y1218077D01*
X2087673Y1218537D01*
X2088132D01*
X2088592Y1218077D01*
Y1217159D01*
X2088132Y1216700D01*
X2087214D01*
X2086755Y1217159D01*
X2089510Y1216700D02*
Y1217159D01*
X2089969D01*
Y1216700D01*
X2089510D01*
X2093643D02*
X2091806D01*
X2093643Y1218537D01*
Y1218996D01*
X2093183Y1219455D01*
X2092265D01*
X2091806Y1218996D01*
X1867598Y1215590D02*
Y1213294D01*
X1868058Y1212835D01*
X1868976D01*
X1869435Y1213294D01*
Y1215590D01*
X1872190D02*
X1870354D01*
Y1214212D01*
X1871272Y1214671D01*
X1871731D01*
X1872190Y1214212D01*
Y1213294D01*
X1871731Y1212835D01*
X1870813D01*
X1870354Y1213294D01*
X1873108Y1212835D02*
Y1213294D01*
X1873568D01*
Y1212835D01*
X1873108D01*
X1875404D02*
X1876323D01*
X1875863D01*
Y1215590D01*
X1875404Y1215131D01*
X2180223Y1187965D02*
X2179763Y1188424D01*
X2178845D01*
X2178386Y1187965D01*
Y1186129D01*
X2178845Y1185669D01*
X2179763D01*
X2180223Y1186129D01*
X2182518Y1185669D02*
Y1188424D01*
X2181141Y1187047D01*
X2182977D01*
X2183896Y1188424D02*
X2185732D01*
Y1187965D01*
X2183896Y1186129D01*
Y1185669D01*
X2186651D02*
Y1186129D01*
X2187110D01*
Y1185669D01*
X2186651D01*
X2190783D02*
X2188947D01*
X2190783Y1187506D01*
Y1187965D01*
X2190324Y1188424D01*
X2189406D01*
X2188947Y1187965D01*
X1968937Y1188496D02*
X1968477Y1188955D01*
X1967559D01*
X1967100Y1188496D01*
Y1186659D01*
X1967559Y1186200D01*
X1968477D01*
X1968937Y1186659D01*
X1971232Y1186200D02*
Y1188955D01*
X1969855Y1187578D01*
X1971692D01*
X1972610Y1188955D02*
X1974447D01*
Y1188496D01*
X1972610Y1186659D01*
Y1186200D01*
X1975365D02*
Y1186659D01*
X1975824D01*
Y1186200D01*
X1975365D01*
X1977661D02*
X1978579D01*
X1978120D01*
Y1188955D01*
X1977661Y1188496D01*
X2131500Y1200255D02*
Y1197500D01*
X2132878D01*
X2133337Y1197959D01*
Y1199796D01*
X2132878Y1200255D01*
X2131500D01*
X2134255Y1197500D02*
X2135173D01*
X2134714D01*
Y1200255D01*
X2134255Y1199796D01*
X2138387Y1200255D02*
X2137469Y1199796D01*
X2136551Y1198878D01*
Y1197959D01*
X2137010Y1197500D01*
X2137928D01*
X2138387Y1197959D01*
Y1198418D01*
X2137928Y1198878D01*
X2136551D01*
X2139306Y1197500D02*
Y1197959D01*
X2139765D01*
Y1197500D01*
X2139306D01*
X2143438D02*
X2141602D01*
X2143438Y1199337D01*
Y1199796D01*
X2142979Y1200255D01*
X2142061D01*
X2141602Y1199796D01*
X1920945Y1195511D02*
Y1192756D01*
X1922322D01*
X1922782Y1193215D01*
Y1195052D01*
X1922322Y1195511D01*
X1920945D01*
X1923700Y1192756D02*
X1924618D01*
X1924159D01*
Y1195511D01*
X1923700Y1195052D01*
X1927832Y1195511D02*
X1926914Y1195052D01*
X1925996Y1194133D01*
Y1193215D01*
X1926455Y1192756D01*
X1927373D01*
X1927832Y1193215D01*
Y1193674D01*
X1927373Y1194133D01*
X1925996D01*
X1928751Y1192756D02*
Y1193215D01*
X1929210D01*
Y1192756D01*
X1928751D01*
X1931047D02*
X1931965D01*
X1931506D01*
Y1195511D01*
X1931047Y1195052D01*
X2086692Y1123583D02*
X2083937D01*
Y1122205D01*
X2084396Y1121746D01*
X2086233D01*
X2086692Y1122205D01*
Y1123583D01*
X2083937Y1120828D02*
Y1119909D01*
Y1120368D01*
X2086692D01*
X2086233Y1120828D01*
X2083937Y1116695D02*
Y1118532D01*
X2085774Y1116695D01*
X2086233D01*
X2086692Y1117154D01*
Y1118073D01*
X2086233Y1118532D01*
X2083937Y1115777D02*
X2084396D01*
Y1115318D01*
X2083937D01*
Y1115777D01*
Y1111644D02*
Y1113481D01*
X2085774Y1111644D01*
X2086233D01*
X2086692Y1112103D01*
Y1113022D01*
X2086233Y1113481D01*
X1877500Y1130755D02*
Y1128000D01*
X1878877D01*
X1879337Y1128459D01*
Y1130296D01*
X1878877Y1130755D01*
X1877500D01*
X1880255Y1128000D02*
X1881173D01*
X1880714D01*
Y1130755D01*
X1880255Y1130296D01*
X1884388Y1128000D02*
X1882551D01*
X1884388Y1129837D01*
Y1130296D01*
X1883928Y1130755D01*
X1883010D01*
X1882551Y1130296D01*
X1885306Y1128000D02*
Y1128459D01*
X1885765D01*
Y1128000D01*
X1885306D01*
X1887602D02*
X1888520D01*
X1888061D01*
Y1130755D01*
X1887602Y1130296D01*
X2109920Y1125669D02*
X2107165D01*
Y1124292D01*
X2107624Y1123833D01*
X2109461D01*
X2109920Y1124292D01*
Y1125669D01*
X2107165Y1122914D02*
Y1121996D01*
Y1122455D01*
X2109920D01*
X2109461Y1122914D01*
Y1120618D02*
X2109920Y1120159D01*
Y1119241D01*
X2109461Y1118782D01*
X2107624D01*
X2107165Y1119241D01*
Y1120159D01*
X2107624Y1120618D01*
X2109461D01*
X2107165Y1117863D02*
X2107624D01*
Y1117404D01*
X2107165D01*
Y1117863D01*
Y1113731D02*
Y1115567D01*
X2109002Y1113731D01*
X2109461D01*
X2109920Y1114190D01*
Y1115108D01*
X2109461Y1115567D01*
X1887900Y1130755D02*
Y1128000D01*
X1889277D01*
X1889737Y1128459D01*
Y1130296D01*
X1889277Y1130755D01*
X1887900D01*
X1890655Y1128000D02*
X1891573D01*
X1891114D01*
Y1130755D01*
X1890655Y1130296D01*
X1892951D02*
X1893410Y1130755D01*
X1894328D01*
X1894787Y1130296D01*
Y1128459D01*
X1894328Y1128000D01*
X1893410D01*
X1892951Y1128459D01*
Y1130296D01*
X1895706Y1128000D02*
Y1128459D01*
X1896165D01*
Y1128000D01*
X1895706D01*
X1898002D02*
X1898920D01*
X1898461D01*
Y1130755D01*
X1898002Y1130296D01*
X2180104Y1167611D02*
X2179645Y1168070D01*
X2178727D01*
X2178268Y1167611D01*
Y1165774D01*
X2178727Y1165315D01*
X2179645D01*
X2180104Y1165774D01*
X2182859Y1165315D02*
X2181023D01*
X2182859Y1167152D01*
Y1167611D01*
X2182400Y1168070D01*
X2181482D01*
X2181023Y1167611D01*
X2183778Y1165315D02*
X2184696D01*
X2184237D01*
Y1168070D01*
X2183778Y1167611D01*
X2186074Y1165315D02*
Y1165774D01*
X2186533D01*
Y1165315D01*
X2186074D01*
X2190206D02*
X2188370D01*
X2190206Y1167152D01*
Y1167611D01*
X2189747Y1168070D01*
X2188829D01*
X2188370Y1167611D01*
X1969199Y1166233D02*
X1968740Y1166692D01*
X1967821D01*
X1967362Y1166233D01*
Y1164396D01*
X1967821Y1163937D01*
X1968740D01*
X1969199Y1164396D01*
X1971954Y1163937D02*
X1970117D01*
X1971954Y1165774D01*
Y1166233D01*
X1971495Y1166692D01*
X1970576D01*
X1970117Y1166233D01*
X1972872Y1163937D02*
X1973791D01*
X1973331D01*
Y1166692D01*
X1972872Y1166233D01*
X1975168Y1163937D02*
Y1164396D01*
X1975627D01*
Y1163937D01*
X1975168D01*
X1977464D02*
X1978382D01*
X1977923D01*
Y1166692D01*
X1977464Y1166233D01*
X2090656Y1043634D02*
X2090196Y1044094D01*
X2089278D01*
X2088819Y1043634D01*
Y1041798D01*
X2089278Y1041339D01*
X2090196D01*
X2090656Y1041798D01*
X2091574Y1041339D02*
X2092492D01*
X2092033D01*
Y1044094D01*
X2091574Y1043634D01*
X2093870Y1041339D02*
X2094788D01*
X2094329D01*
Y1044094D01*
X2093870Y1043634D01*
X2096166Y1041339D02*
Y1041798D01*
X2096625D01*
Y1041339D01*
X2096166D01*
X2100298D02*
X2098462D01*
X2100298Y1043175D01*
Y1043634D01*
X2099839Y1044094D01*
X2098921D01*
X2098462Y1043634D01*
X1876732Y1041660D02*
X1876273Y1042120D01*
X1875354D01*
X1874895Y1041660D01*
Y1039824D01*
X1875354Y1039365D01*
X1876273D01*
X1876732Y1039824D01*
X1877650Y1039365D02*
X1878569D01*
X1878110D01*
Y1042120D01*
X1877650Y1041660D01*
X1879946Y1039365D02*
X1880865D01*
X1880405D01*
Y1042120D01*
X1879946Y1041660D01*
X1882242Y1039365D02*
Y1039824D01*
X1882701D01*
Y1039365D01*
X1882242D01*
X1884538D02*
X1885456D01*
X1884997D01*
Y1042120D01*
X1884538Y1041660D01*
X2089671Y1066272D02*
X2089212Y1066731D01*
X2088294D01*
X2087835Y1066272D01*
Y1064435D01*
X2088294Y1063976D01*
X2089212D01*
X2089671Y1064435D01*
X2090590Y1063976D02*
X2091508D01*
X2091049D01*
Y1066731D01*
X2090590Y1066272D01*
X2092886D02*
X2093345Y1066731D01*
X2094263D01*
X2094722Y1066272D01*
Y1064435D01*
X2094263Y1063976D01*
X2093345D01*
X2092886Y1064435D01*
Y1066272D01*
X2095641Y1063976D02*
Y1064435D01*
X2096100D01*
Y1063976D01*
X2095641D01*
X2099773D02*
X2097936D01*
X2099773Y1065813D01*
Y1066272D01*
X2099314Y1066731D01*
X2098396D01*
X2097936Y1066272D01*
X1878411Y1064973D02*
X1877952Y1065432D01*
X1877034D01*
X1876575Y1064973D01*
Y1063136D01*
X1877034Y1062677D01*
X1877952D01*
X1878411Y1063136D01*
X1879330Y1062677D02*
X1880248D01*
X1879789D01*
Y1065432D01*
X1879330Y1064973D01*
X1881626D02*
X1882085Y1065432D01*
X1883003D01*
X1883462Y1064973D01*
Y1063136D01*
X1883003Y1062677D01*
X1882085D01*
X1881626Y1063136D01*
Y1064973D01*
X1884381Y1062677D02*
Y1063136D01*
X1884840D01*
Y1062677D01*
X1884381D01*
X1886676D02*
X1887595D01*
X1887136D01*
Y1065432D01*
X1886676Y1064973D01*
X2089553Y1087257D02*
X2089094Y1087716D01*
X2088176D01*
X2087716Y1087257D01*
Y1085420D01*
X2088176Y1084961D01*
X2089094D01*
X2089553Y1085420D01*
X2090472D02*
X2090931Y1084961D01*
X2091849D01*
X2092308Y1085420D01*
Y1087257D01*
X2091849Y1087716D01*
X2090931D01*
X2090472Y1087257D01*
Y1086797D01*
X2090931Y1086338D01*
X2092308D01*
X2093227Y1084961D02*
Y1085420D01*
X2093686D01*
Y1084961D01*
X2093227D01*
X2097359D02*
X2095522D01*
X2097359Y1086797D01*
Y1087257D01*
X2096900Y1087716D01*
X2095982D01*
X2095522Y1087257D01*
X1877598Y1085575D02*
X1877139Y1086034D01*
X1876221D01*
X1875761Y1085575D01*
Y1083739D01*
X1876221Y1083280D01*
X1877139D01*
X1877598Y1083739D01*
X1878516D02*
X1878976Y1083280D01*
X1879894D01*
X1880353Y1083739D01*
Y1085575D01*
X1879894Y1086034D01*
X1878976D01*
X1878516Y1085575D01*
Y1085116D01*
X1878976Y1084657D01*
X1880353D01*
X1881272Y1083280D02*
Y1083739D01*
X1881731D01*
Y1083280D01*
X1881272D01*
X1883567D02*
X1884486D01*
X1884027D01*
Y1086034D01*
X1883567Y1085575D01*
X2087427Y1108241D02*
X2086968Y1108700D01*
X2086050D01*
X2085591Y1108241D01*
Y1106404D01*
X2086050Y1105945D01*
X2086968D01*
X2087427Y1106404D01*
X2088346Y1108241D02*
X2088805Y1108700D01*
X2089723D01*
X2090182Y1108241D01*
Y1107782D01*
X2089723Y1107322D01*
X2090182Y1106863D01*
Y1106404D01*
X2089723Y1105945D01*
X2088805D01*
X2088346Y1106404D01*
Y1106863D01*
X2088805Y1107322D01*
X2088346Y1107782D01*
Y1108241D01*
X2088805Y1107322D02*
X2089723D01*
X2091101Y1105945D02*
Y1106404D01*
X2091560D01*
Y1105945D01*
X2091101D01*
X2095233D02*
X2093396D01*
X2095233Y1107782D01*
Y1108241D01*
X2094774Y1108700D01*
X2093856D01*
X2093396Y1108241D01*
X1879002Y1106390D02*
X1878543Y1106849D01*
X1877625D01*
X1877165Y1106390D01*
Y1104554D01*
X1877625Y1104095D01*
X1878543D01*
X1879002Y1104554D01*
X1879920Y1106390D02*
X1880379Y1106849D01*
X1881298D01*
X1881757Y1106390D01*
Y1105931D01*
X1881298Y1105472D01*
X1881757Y1105013D01*
Y1104554D01*
X1881298Y1104095D01*
X1880379D01*
X1879920Y1104554D01*
Y1105013D01*
X1880379Y1105472D01*
X1879920Y1105931D01*
Y1106390D01*
X1880379Y1105472D02*
X1881298D01*
X1882675Y1104095D02*
Y1104554D01*
X1883135D01*
Y1104095D01*
X1882675D01*
X1884971D02*
X1885890D01*
X1885430D01*
Y1106849D01*
X1884971Y1106390D01*
X2014957Y1202551D02*
Y1200714D01*
Y1201633D01*
X2012202D01*
X2014039Y1199796D02*
X2012202D01*
X2013121D01*
X2013580Y1199337D01*
X2014039Y1198878D01*
Y1198419D01*
Y1196582D02*
Y1195664D01*
X2013580Y1195204D01*
X2012202D01*
Y1196582D01*
X2012662Y1197041D01*
X2013121Y1196582D01*
Y1195204D01*
X2012202Y1194286D02*
X2014039D01*
Y1192908D01*
X2013580Y1192449D01*
X2012202D01*
Y1191531D02*
Y1190154D01*
X2012662Y1189694D01*
X2013121Y1190154D01*
Y1191072D01*
X2013580Y1191531D01*
X2014039Y1191072D01*
Y1189694D01*
X2012202Y1188317D02*
X2014498D01*
X2013580D01*
Y1188776D01*
Y1187858D01*
Y1188317D01*
X2014498D01*
X2014957Y1187858D01*
X2012202Y1186021D02*
Y1185103D01*
X2012662Y1184643D01*
X2013580D01*
X2014039Y1185103D01*
Y1186021D01*
X2013580Y1186480D01*
X2012662D01*
X2012202Y1186021D01*
X2014039Y1183725D02*
X2012202D01*
X2013121D01*
X2013580Y1183266D01*
X2014039Y1182807D01*
Y1182348D01*
X2012202Y1180970D02*
X2014039D01*
Y1180511D01*
X2013580Y1180052D01*
X2012202D01*
X2013580D01*
X2014039Y1179593D01*
X2013580Y1179134D01*
X2012202D01*
Y1176838D02*
Y1177756D01*
X2012662Y1178215D01*
X2013580D01*
X2014039Y1177756D01*
Y1176838D01*
X2013580Y1176378D01*
X2013121D01*
Y1178215D01*
X2014039Y1175460D02*
X2012202D01*
X2013121D01*
X2013580Y1175001D01*
X2014039Y1174542D01*
Y1174083D01*
X2012202Y1172705D02*
Y1171787D01*
Y1172246D01*
X2014957D01*
X2014498Y1172705D01*
X2012202Y1170409D02*
X2012662D01*
Y1169950D01*
X2012202D01*
Y1170409D01*
Y1168113D02*
Y1167195D01*
Y1167654D01*
X2014957D01*
X2014498Y1168113D01*
X2065682Y1231313D02*
X2066141Y1231772D01*
Y1232690D01*
X2065682Y1233150D01*
X2063845D01*
X2063386Y1232690D01*
Y1231772D01*
X2063845Y1231313D01*
X2065682Y1230395D02*
X2066141Y1229935D01*
Y1229017D01*
X2065682Y1228558D01*
X2065223D01*
X2064763Y1229017D01*
Y1229476D01*
Y1229017D01*
X2064304Y1228558D01*
X2063845D01*
X2063386Y1229017D01*
Y1229935D01*
X2063845Y1230395D01*
X2065682Y1227640D02*
X2066141Y1227180D01*
Y1226262D01*
X2065682Y1225803D01*
X2065223D01*
X2064763Y1226262D01*
Y1226721D01*
Y1226262D01*
X2064304Y1225803D01*
X2063845D01*
X2063386Y1226262D01*
Y1227180D01*
X2063845Y1227640D01*
X2063386Y1224885D02*
X2063845D01*
Y1224425D01*
X2063386D01*
Y1224885D01*
Y1222589D02*
Y1221670D01*
Y1222130D01*
X2066141D01*
X2065682Y1222589D01*
X2023583Y1257755D02*
Y1255459D01*
X2024042Y1255000D01*
X2024960D01*
X2025419Y1255459D01*
Y1257755D01*
X2026338Y1255459D02*
X2026797Y1255000D01*
X2027715D01*
X2028174Y1255459D01*
Y1257296D01*
X2027715Y1257755D01*
X2026797D01*
X2026338Y1257296D01*
Y1256837D01*
X2026797Y1256378D01*
X2028174D01*
X2029093Y1255000D02*
Y1255459D01*
X2029552D01*
Y1255000D01*
X2029093D01*
X2031389D02*
X2032307D01*
X2031848D01*
Y1257755D01*
X2031389Y1257296D01*
X2031772Y1272520D02*
Y1275275D01*
X2033149D01*
X2033608Y1274815D01*
Y1273897D01*
X2033149Y1273438D01*
X2031772D01*
X2032690D02*
X2033608Y1272520D01*
X2035904D02*
Y1275275D01*
X2034527Y1273897D01*
X2036363D01*
X2037282Y1275275D02*
X2039118D01*
Y1274815D01*
X2037282Y1272979D01*
Y1272520D01*
X2040037D02*
Y1272979D01*
X2040496D01*
Y1272520D01*
X2040037D01*
X2042333D02*
X2043251D01*
X2042792D01*
Y1275275D01*
X2042333Y1274815D01*
X1978898Y1244409D02*
Y1247165D01*
X1980275D01*
X1980734Y1246705D01*
Y1245787D01*
X1980275Y1245328D01*
X1978898D01*
X1979816D02*
X1980734Y1244409D01*
X1983030D02*
Y1247165D01*
X1981653Y1245787D01*
X1983489D01*
X1986244Y1247165D02*
X1985326Y1246705D01*
X1984408Y1245787D01*
Y1244869D01*
X1984867Y1244409D01*
X1985785D01*
X1986244Y1244869D01*
Y1245328D01*
X1985785Y1245787D01*
X1984408D01*
X1987163Y1244409D02*
Y1244869D01*
X1987622D01*
Y1244409D01*
X1987163D01*
X1989459D02*
X1990377D01*
X1989918D01*
Y1247165D01*
X1989459Y1246705D01*
X2063701Y1205472D02*
X2066456D01*
Y1204095D01*
X2065997Y1203636D01*
X2065078D01*
X2064619Y1204095D01*
Y1205472D01*
Y1204554D02*
X2063701Y1203636D01*
Y1201340D02*
X2066456D01*
X2065078Y1202717D01*
Y1200881D01*
X2066456Y1198126D02*
Y1199962D01*
X2065078D01*
X2065537Y1199044D01*
Y1198585D01*
X2065078Y1198126D01*
X2064160D01*
X2063701Y1198585D01*
Y1199503D01*
X2064160Y1199962D01*
X2063701Y1197207D02*
X2064160D01*
Y1196748D01*
X2063701D01*
Y1197207D01*
Y1194911D02*
Y1193993D01*
Y1194452D01*
X2066456D01*
X2065997Y1194911D01*
X2063543Y1218858D02*
X2066298D01*
Y1217481D01*
X2065839Y1217022D01*
X2064921D01*
X2064462Y1217481D01*
Y1218858D01*
Y1217940D02*
X2063543Y1217022D01*
Y1214726D02*
X2066298D01*
X2064921Y1216103D01*
Y1214267D01*
X2063543Y1211971D02*
X2066298D01*
X2064921Y1213348D01*
Y1211512D01*
X2063543Y1210593D02*
X2064002D01*
Y1210134D01*
X2063543D01*
Y1210593D01*
Y1208297D02*
Y1207379D01*
Y1207838D01*
X2066298D01*
X2065839Y1208297D01*
X1992441Y1218858D02*
Y1221613D01*
X1993818D01*
X1994278Y1221154D01*
Y1220236D01*
X1993818Y1219777D01*
X1992441D01*
X1993359D02*
X1994278Y1218858D01*
X1996573D02*
Y1221613D01*
X1995196Y1220236D01*
X1997033D01*
X1997951Y1221154D02*
X1998410Y1221613D01*
X1999328D01*
X1999788Y1221154D01*
Y1220695D01*
X1999328Y1220236D01*
X1998869D01*
X1999328D01*
X1999788Y1219777D01*
Y1219317D01*
X1999328Y1218858D01*
X1998410D01*
X1997951Y1219317D01*
X2000706Y1218858D02*
Y1219317D01*
X2001165D01*
Y1218858D01*
X2000706D01*
X2003002D02*
X2003920D01*
X2003461D01*
Y1221613D01*
X2003002Y1221154D01*
X1979055Y1257165D02*
Y1259920D01*
X1980433D01*
X1980892Y1259461D01*
Y1258543D01*
X1980433Y1258084D01*
X1979055D01*
X1979973D02*
X1980892Y1257165D01*
X1983188D02*
Y1259920D01*
X1981810Y1258543D01*
X1983647D01*
X1986402Y1257165D02*
X1984565D01*
X1986402Y1259002D01*
Y1259461D01*
X1985943Y1259920D01*
X1985024D01*
X1984565Y1259461D01*
X1987320Y1257165D02*
Y1257625D01*
X1987779D01*
Y1257165D01*
X1987320D01*
X1989616D02*
X1990534D01*
X1990075D01*
Y1259920D01*
X1989616Y1259461D01*
X2053057Y1271325D02*
Y1273162D01*
X2052598Y1273621D01*
X2051680D01*
X2051221Y1273162D01*
Y1271325D01*
X2051680Y1270866D01*
X2052598D01*
X2052139Y1271784D02*
X2053057Y1270866D01*
X2052598D02*
X2053057Y1271325D01*
X2055812Y1273621D02*
X2054894Y1273162D01*
X2053975Y1272244D01*
Y1271325D01*
X2054435Y1270866D01*
X2055353D01*
X2055812Y1271325D01*
Y1271784D01*
X2055353Y1272244D01*
X2053975D01*
X2056730Y1270866D02*
Y1271325D01*
X2057190D01*
Y1270866D01*
X2056730D01*
X2059026D02*
X2059945D01*
X2059485D01*
Y1273621D01*
X2059026Y1273162D01*
X2025353Y1161142D02*
X2022598D01*
Y1159764D01*
X2023058Y1159305D01*
X2024894D01*
X2025353Y1159764D01*
Y1161142D01*
X2022598Y1158387D02*
Y1157468D01*
Y1157928D01*
X2025353D01*
X2024894Y1158387D01*
X2023058Y1156091D02*
X2022598Y1155632D01*
Y1154713D01*
X2023058Y1154254D01*
X2024894D01*
X2025353Y1154713D01*
Y1155632D01*
X2024894Y1156091D01*
X2024435D01*
X2023976Y1155632D01*
Y1154254D01*
X2022598Y1153336D02*
X2023058D01*
Y1152877D01*
X2022598D01*
Y1153336D01*
Y1151040D02*
Y1150122D01*
Y1150581D01*
X2025353D01*
X2024894Y1151040D01*
X2045511Y1161299D02*
X2042756D01*
Y1159922D01*
X2043215Y1159463D01*
X2045052D01*
X2045511Y1159922D01*
Y1161299D01*
X2042756Y1158544D02*
Y1157626D01*
Y1158085D01*
X2045511D01*
X2045052Y1158544D01*
Y1156248D02*
X2045511Y1155789D01*
Y1154871D01*
X2045052Y1154412D01*
X2044593D01*
X2044133Y1154871D01*
X2043674Y1154412D01*
X2043215D01*
X2042756Y1154871D01*
Y1155789D01*
X2043215Y1156248D01*
X2043674D01*
X2044133Y1155789D01*
X2044593Y1156248D01*
X2045052D01*
X2044133Y1155789D02*
Y1154871D01*
X2042756Y1153493D02*
X2043215D01*
Y1153034D01*
X2042756D01*
Y1153493D01*
Y1151198D02*
Y1150279D01*
Y1150738D01*
X2045511D01*
X2045052Y1151198D01*
X2065524Y1189777D02*
X2065983Y1190237D01*
Y1191155D01*
X2065524Y1191614D01*
X2063688D01*
X2063228Y1191155D01*
Y1190237D01*
X2063688Y1189777D01*
X2063228Y1188859D02*
Y1187941D01*
Y1188400D01*
X2065065D01*
Y1188859D01*
X2063228Y1186563D02*
X2065065D01*
Y1185186D01*
X2064606Y1184727D01*
X2063228D01*
Y1181972D02*
Y1183808D01*
X2065065Y1181972D01*
X2065524D01*
X2065983Y1182431D01*
Y1183349D01*
X2065524Y1183808D01*
X2063228Y1181053D02*
X2063688D01*
Y1180594D01*
X2063228D01*
Y1181053D01*
Y1178757D02*
Y1177839D01*
Y1178298D01*
X2065983D01*
X2065524Y1178757D01*
X2044876Y1249794D02*
X2044416Y1250253D01*
X2043498D01*
X2043039Y1249794D01*
Y1247958D01*
X2043498Y1247498D01*
X2044416D01*
X2044876Y1247958D01*
X2045794Y1247498D02*
X2046712D01*
X2046253D01*
Y1249335D01*
X2045794D01*
X2048090Y1247498D02*
Y1249335D01*
X2049467D01*
X2049926Y1248876D01*
Y1247498D01*
X2050845D02*
X2051763D01*
X2051304D01*
Y1250253D01*
X2050845Y1249794D01*
X2053141Y1247498D02*
Y1247958D01*
X2053600D01*
Y1247498D01*
X2053141D01*
X2055436D02*
X2056355D01*
X2055896D01*
Y1250253D01*
X2055436Y1249794D01*
X1980577Y1236981D02*
X1980118Y1237440D01*
X1979199D01*
X1978740Y1236981D01*
Y1235144D01*
X1979199Y1234685D01*
X1980118D01*
X1980577Y1235144D01*
X1981495Y1236981D02*
X1981954Y1237440D01*
X1982873D01*
X1983332Y1236981D01*
Y1236522D01*
X1982873Y1236063D01*
X1982413D01*
X1982873D01*
X1983332Y1235603D01*
Y1235144D01*
X1982873Y1234685D01*
X1981954D01*
X1981495Y1235144D01*
X1985628Y1234685D02*
Y1237440D01*
X1984250Y1236063D01*
X1986087D01*
X1987005Y1234685D02*
Y1235144D01*
X1987464D01*
Y1234685D01*
X1987005D01*
X1989301D02*
X1990219D01*
X1989760D01*
Y1237440D01*
X1989301Y1236981D01*
X1996758Y1204697D02*
X1996299Y1205157D01*
X1995380D01*
X1994921Y1204697D01*
Y1202861D01*
X1995380Y1202402D01*
X1996299D01*
X1996758Y1202861D01*
X1997676Y1204697D02*
X1998136Y1205157D01*
X1999054D01*
X1999513Y1204697D01*
Y1204238D01*
X1999054Y1203779D01*
X1998595D01*
X1999054D01*
X1999513Y1203320D01*
Y1202861D01*
X1999054Y1202402D01*
X1998136D01*
X1997676Y1202861D01*
X2002268Y1202402D02*
X2000431D01*
X2002268Y1204238D01*
Y1204697D01*
X2001809Y1205157D01*
X2000891D01*
X2000431Y1204697D01*
X2003186Y1202402D02*
Y1202861D01*
X2003646D01*
Y1202402D01*
X2003186D01*
X2005482D02*
X2006400D01*
X2005941D01*
Y1205157D01*
X2005482Y1204697D01*
X1990419Y1270997D02*
X1989960Y1271456D01*
X1989042D01*
X1988583Y1270997D01*
Y1269160D01*
X1989042Y1268701D01*
X1989960D01*
X1990419Y1269160D01*
X1991338Y1270997D02*
X1991797Y1271456D01*
X1992715D01*
X1993174Y1270997D01*
Y1270537D01*
X1992715Y1270078D01*
X1992256D01*
X1992715D01*
X1993174Y1269619D01*
Y1269160D01*
X1992715Y1268701D01*
X1991797D01*
X1991338Y1269160D01*
X1994093Y1268701D02*
X1995011D01*
X1994552D01*
Y1271456D01*
X1994093Y1270997D01*
X1996389Y1268701D02*
Y1269160D01*
X1996848D01*
Y1268701D01*
X1996389D01*
X1998684D02*
X1999603D01*
X1999144D01*
Y1271456D01*
X1998684Y1270997D01*
X2054907Y1174067D02*
X2054448Y1174527D01*
X2053530D01*
X2053071Y1174067D01*
Y1172231D01*
X2053530Y1171772D01*
X2054448D01*
X2054907Y1172231D01*
X2057663Y1171772D02*
X2055826D01*
X2057663Y1173608D01*
Y1174067D01*
X2057203Y1174527D01*
X2056285D01*
X2055826Y1174067D01*
X2058581Y1172231D02*
X2059040Y1171772D01*
X2059958D01*
X2060418Y1172231D01*
Y1174067D01*
X2059958Y1174527D01*
X2059040D01*
X2058581Y1174067D01*
Y1173608D01*
X2059040Y1173149D01*
X2060418D01*
X2061336Y1171772D02*
Y1172231D01*
X2061795D01*
Y1171772D01*
X2061336D01*
X2063632D02*
X2064550D01*
X2064091D01*
Y1174527D01*
X2063632Y1174067D01*
X2031130Y1137978D02*
X2030670Y1138437D01*
X2029752D01*
X2029293Y1137978D01*
Y1136141D01*
X2029752Y1135682D01*
X2030670D01*
X2031130Y1136141D01*
X2032048Y1137978D02*
X2032507Y1138437D01*
X2033426D01*
X2033885Y1137978D01*
Y1137518D01*
X2033426Y1137059D01*
X2032966D01*
X2033426D01*
X2033885Y1136600D01*
Y1136141D01*
X2033426Y1135682D01*
X2032507D01*
X2032048Y1136141D01*
X2034803Y1137978D02*
X2035262Y1138437D01*
X2036180D01*
X2036640Y1137978D01*
Y1136141D01*
X2036180Y1135682D01*
X2035262D01*
X2034803Y1136141D01*
Y1137978D01*
X2037558Y1135682D02*
Y1136141D01*
X2038017D01*
Y1135682D01*
X2037558D01*
X2039854D02*
X2040772D01*
X2040313D01*
Y1138437D01*
X2039854Y1137978D01*
X2035682Y1159187D02*
X2036141Y1159646D01*
Y1160565D01*
X2035682Y1161024D01*
X2033845D01*
X2033386Y1160565D01*
Y1159646D01*
X2033845Y1159187D01*
X2033386Y1156432D02*
Y1158269D01*
X2035222Y1156432D01*
X2035682D01*
X2036141Y1156891D01*
Y1157809D01*
X2035682Y1158269D01*
X2036141Y1155514D02*
Y1153677D01*
X2035682D01*
X2033845Y1155514D01*
X2033386D01*
Y1152759D02*
X2033845D01*
Y1152299D01*
X2033386D01*
Y1152759D01*
Y1150463D02*
Y1149544D01*
Y1150004D01*
X2036141D01*
X2035682Y1150463D01*
X2180300Y1042955D02*
Y1040659D01*
X2180759Y1040200D01*
X2181677D01*
X2182137Y1040659D01*
Y1042955D01*
X2183055D02*
X2184892D01*
Y1042496D01*
X2183055Y1040659D01*
Y1040200D01*
X2185810D02*
Y1040659D01*
X2186269D01*
Y1040200D01*
X2185810D01*
X2189943D02*
X2188106D01*
X2189943Y1042037D01*
Y1042496D01*
X2189483Y1042955D01*
X2188565D01*
X2188106Y1042496D01*
X1969400Y1041255D02*
Y1038959D01*
X1969859Y1038500D01*
X1970778D01*
X1971237Y1038959D01*
Y1041255D01*
X1972155D02*
X1973992D01*
Y1040796D01*
X1972155Y1038959D01*
Y1038500D01*
X1974910D02*
Y1038959D01*
X1975369D01*
Y1038500D01*
X1974910D01*
X1977206D02*
X1978124D01*
X1977665D01*
Y1041255D01*
X1977206Y1040796D01*
X2077400Y1265555D02*
Y1263259D01*
X2077859Y1262800D01*
X2078778D01*
X2079237Y1263259D01*
Y1265555D01*
X2081992D02*
X2081073Y1265096D01*
X2080155Y1264178D01*
Y1263259D01*
X2080614Y1262800D01*
X2081532D01*
X2081992Y1263259D01*
Y1263718D01*
X2081532Y1264178D01*
X2080155D01*
X2082910Y1262800D02*
Y1263259D01*
X2083369D01*
Y1262800D01*
X2082910D01*
X2087043D02*
X2085206D01*
X2087043Y1264637D01*
Y1265096D01*
X2086583Y1265555D01*
X2085665D01*
X2085206Y1265096D01*
X1866614Y1262361D02*
Y1260065D01*
X1867073Y1259606D01*
X1867992D01*
X1868451Y1260065D01*
Y1262361D01*
X1871206D02*
X1870288Y1261902D01*
X1869369Y1260984D01*
Y1260065D01*
X1869828Y1259606D01*
X1870747D01*
X1871206Y1260065D01*
Y1260525D01*
X1870747Y1260984D01*
X1869369D01*
X1872124Y1259606D02*
Y1260065D01*
X1872583D01*
Y1259606D01*
X1872124D01*
X1874420D02*
X1875338D01*
X1874879D01*
Y1262361D01*
X1874420Y1261902D01*
X2155600Y1178155D02*
Y1175859D01*
X2156059Y1175400D01*
X2156977D01*
X2157437Y1175859D01*
Y1178155D01*
X2158355Y1177696D02*
X2158814Y1178155D01*
X2159732D01*
X2160192Y1177696D01*
Y1177237D01*
X2159732Y1176777D01*
X2160192Y1176318D01*
Y1175859D01*
X2159732Y1175400D01*
X2158814D01*
X2158355Y1175859D01*
Y1176318D01*
X2158814Y1176777D01*
X2158355Y1177237D01*
Y1177696D01*
X2158814Y1176777D02*
X2159732D01*
X2161110Y1175400D02*
Y1175859D01*
X2161569D01*
Y1175400D01*
X2161110D01*
X2165243D02*
X2163406D01*
X2165243Y1177237D01*
Y1177696D01*
X2164783Y1178155D01*
X2163865D01*
X2163406Y1177696D01*
X2157244Y1285315D02*
Y1288070D01*
X2158622D01*
X2159081Y1287611D01*
Y1286693D01*
X2158622Y1286233D01*
X2157244D01*
X2158162D02*
X2159081Y1285315D01*
X2161377D02*
Y1288070D01*
X2159999Y1286693D01*
X2161836D01*
X2162754Y1287611D02*
X2163213Y1288070D01*
X2164132D01*
X2164591Y1287611D01*
Y1285774D01*
X2164132Y1285315D01*
X2163213D01*
X2162754Y1285774D01*
Y1287611D01*
X2165509Y1285315D02*
Y1285774D01*
X2165968D01*
Y1285315D01*
X2165509D01*
X2169642D02*
X2167805D01*
X2169642Y1287152D01*
Y1287611D01*
X2169183Y1288070D01*
X2168264D01*
X2167805Y1287611D01*
X2143819Y1285197D02*
Y1287952D01*
X2145196D01*
X2145656Y1287493D01*
Y1286574D01*
X2145196Y1286115D01*
X2143819D01*
X2144737D02*
X2145656Y1285197D01*
X2147951D02*
Y1287952D01*
X2146574Y1286574D01*
X2148411D01*
X2149329Y1285197D02*
X2150247D01*
X2149788D01*
Y1287952D01*
X2149329Y1287493D01*
X2151625Y1285197D02*
Y1285656D01*
X2152084D01*
Y1285197D01*
X2151625D01*
X2155757D02*
X2153921D01*
X2155757Y1287033D01*
Y1287493D01*
X2155298Y1287952D01*
X2154380D01*
X2153921Y1287493D01*
X1945866Y1283780D02*
Y1286535D01*
X1947244D01*
X1947703Y1286075D01*
Y1285157D01*
X1947244Y1284698D01*
X1945866D01*
X1946785D02*
X1947703Y1283780D01*
X1949999D02*
Y1286535D01*
X1948621Y1285157D01*
X1950458D01*
X1951376Y1286075D02*
X1951835Y1286535D01*
X1952754D01*
X1953213Y1286075D01*
Y1284239D01*
X1952754Y1283780D01*
X1951835D01*
X1951376Y1284239D01*
Y1286075D01*
X1954131Y1283780D02*
Y1284239D01*
X1954590D01*
Y1283780D01*
X1954131D01*
X1956427D02*
X1957345D01*
X1956886D01*
Y1286535D01*
X1956427Y1286075D01*
X1932559Y1283386D02*
Y1286141D01*
X1933937D01*
X1934396Y1285682D01*
Y1284763D01*
X1933937Y1284304D01*
X1932559D01*
X1933477D02*
X1934396Y1283386D01*
X1936692D02*
Y1286141D01*
X1935314Y1284763D01*
X1937151D01*
X1938069Y1283386D02*
X1938987D01*
X1938528D01*
Y1286141D01*
X1938069Y1285682D01*
X1940365Y1283386D02*
Y1283845D01*
X1940824D01*
Y1283386D01*
X1940365D01*
X1942661D02*
X1943579D01*
X1943120D01*
Y1286141D01*
X1942661Y1285682D01*
X2584700Y1140300D02*
Y1143055D01*
X2586077D01*
X2586537Y1142596D01*
Y1141677D01*
X2586077Y1141218D01*
X2584700D01*
X2585618D02*
X2586537Y1140300D01*
X2587455Y1142596D02*
X2587914Y1143055D01*
X2588832D01*
X2589292Y1142596D01*
Y1142137D01*
X2588832Y1141677D01*
X2589292Y1141218D01*
Y1140759D01*
X2588832Y1140300D01*
X2587914D01*
X2587455Y1140759D01*
Y1141218D01*
X2587914Y1141677D01*
X2587455Y1142137D01*
Y1142596D01*
X2587914Y1141677D02*
X2588832D01*
X2590210Y1140300D02*
X2591128D01*
X2590669D01*
Y1143055D01*
X2590210Y1142596D01*
X2585100Y1164200D02*
Y1166955D01*
X2586477D01*
X2586937Y1166496D01*
Y1165578D01*
X2586477Y1165118D01*
X2585100D01*
X2586018D02*
X2586937Y1164200D01*
X2587855Y1166955D02*
X2589692D01*
Y1166496D01*
X2587855Y1164659D01*
Y1164200D01*
X2590610Y1166496D02*
X2591069Y1166955D01*
X2591987D01*
X2592447Y1166496D01*
Y1166037D01*
X2591987Y1165578D01*
X2592447Y1165118D01*
Y1164659D01*
X2591987Y1164200D01*
X2591069D01*
X2590610Y1164659D01*
Y1165118D01*
X2591069Y1165578D01*
X2590610Y1166037D01*
Y1166496D01*
X2591069Y1165578D02*
X2591987D01*
X2433800Y1296600D02*
Y1299355D01*
X2435177D01*
X2435637Y1298896D01*
Y1297978D01*
X2435177Y1297518D01*
X2433800D01*
X2434718D02*
X2435637Y1296600D01*
X2436555Y1299355D02*
X2438392D01*
Y1298896D01*
X2436555Y1297059D01*
Y1296600D01*
X2439310Y1299355D02*
X2441147D01*
Y1298896D01*
X2439310Y1297059D01*
Y1296600D01*
X2410000D02*
Y1299355D01*
X2411378D01*
X2411837Y1298896D01*
Y1297978D01*
X2411378Y1297518D01*
X2410000D01*
X2410918D02*
X2411837Y1296600D01*
X2412755Y1299355D02*
X2414592D01*
Y1298896D01*
X2412755Y1297059D01*
Y1296600D01*
X2416887D02*
Y1299355D01*
X2415510Y1297978D01*
X2417347D01*
X2196000Y1044000D02*
Y1046755D01*
X2197378D01*
X2197837Y1046296D01*
Y1045378D01*
X2197378Y1044918D01*
X2196000D01*
X2196918D02*
X2197837Y1044000D01*
X2198755Y1046296D02*
X2199214Y1046755D01*
X2200133D01*
X2200592Y1046296D01*
Y1045837D01*
X2200133Y1045378D01*
X2200592Y1044918D01*
Y1044459D01*
X2200133Y1044000D01*
X2199214D01*
X2198755Y1044459D01*
Y1044918D01*
X2199214Y1045378D01*
X2198755Y1045837D01*
Y1046296D01*
X2199214Y1045378D02*
X2200133D01*
X2201510Y1046296D02*
X2201969Y1046755D01*
X2202888D01*
X2203347Y1046296D01*
Y1044459D01*
X2202888Y1044000D01*
X2201969D01*
X2201510Y1044459D01*
Y1046296D01*
X2112165Y1016142D02*
Y1018897D01*
X2113543D01*
X2114002Y1018438D01*
Y1017519D01*
X2113543Y1017060D01*
X2112165D01*
X2113084D02*
X2114002Y1016142D01*
X2114920Y1018897D02*
X2116757D01*
Y1018438D01*
X2114920Y1016601D01*
Y1016142D01*
X2117675Y1016601D02*
X2118135Y1016142D01*
X2119053D01*
X2119512Y1016601D01*
Y1018438D01*
X2119053Y1018897D01*
X2118135D01*
X2117675Y1018438D01*
Y1017978D01*
X2118135Y1017519D01*
X2119512D01*
X1902283Y1040827D02*
Y1043582D01*
X1903661D01*
X1904120Y1043123D01*
Y1042204D01*
X1903661Y1041745D01*
X1902283D01*
X1903202D02*
X1904120Y1040827D01*
X1905038Y1043582D02*
X1906875D01*
Y1043123D01*
X1905038Y1041286D01*
Y1040827D01*
X1909630Y1043582D02*
X1908712Y1043123D01*
X1907793Y1042204D01*
Y1041286D01*
X1908253Y1040827D01*
X1909171D01*
X1909630Y1041286D01*
Y1041745D01*
X1909171Y1042204D01*
X1907793D01*
X1985100Y1042300D02*
Y1045055D01*
X1986477D01*
X1986937Y1044596D01*
Y1043678D01*
X1986477Y1043218D01*
X1985100D01*
X1986018D02*
X1986937Y1042300D01*
X1987855Y1045055D02*
X1989692D01*
Y1044596D01*
X1987855Y1042759D01*
Y1042300D01*
X1992447Y1045055D02*
X1990610D01*
Y1043678D01*
X1991528Y1044137D01*
X1991987D01*
X1992447Y1043678D01*
Y1042759D01*
X1991987Y1042300D01*
X1991069D01*
X1990610Y1042759D01*
X2130800Y1187700D02*
Y1190455D01*
X2132178D01*
X2132637Y1189996D01*
Y1189077D01*
X2132178Y1188618D01*
X2130800D01*
X2131718D02*
X2132637Y1187700D01*
X2133555Y1189996D02*
X2134014Y1190455D01*
X2134933D01*
X2135392Y1189996D01*
Y1189537D01*
X2134933Y1189077D01*
X2134473D01*
X2134933D01*
X2135392Y1188618D01*
Y1188159D01*
X2134933Y1187700D01*
X2134014D01*
X2133555Y1188159D01*
X2136310Y1190455D02*
X2138147D01*
Y1189996D01*
X2136310Y1188159D01*
Y1187700D01*
X2139065D02*
Y1188159D01*
X2139524D01*
Y1187700D01*
X2139065D01*
X2143198D02*
X2141361D01*
X2143198Y1189537D01*
Y1189996D01*
X2142738Y1190455D01*
X2141820D01*
X2141361Y1189996D01*
X1920000Y1184449D02*
Y1187204D01*
X1921378D01*
X1921837Y1186745D01*
Y1185826D01*
X1921378Y1185367D01*
X1920000D01*
X1920918D02*
X1921837Y1184449D01*
X1922755Y1186745D02*
X1923214Y1187204D01*
X1924133D01*
X1924592Y1186745D01*
Y1186285D01*
X1924133Y1185826D01*
X1923673D01*
X1924133D01*
X1924592Y1185367D01*
Y1184908D01*
X1924133Y1184449D01*
X1923214D01*
X1922755Y1184908D01*
X1925510Y1187204D02*
X1927347D01*
Y1186745D01*
X1925510Y1184908D01*
Y1184449D01*
X1928265D02*
Y1184908D01*
X1928724D01*
Y1184449D01*
X1928265D01*
X1930561D02*
X1931479D01*
X1931020D01*
Y1187204D01*
X1930561Y1186745D01*
X2261900Y1158400D02*
Y1161155D01*
X2263277D01*
X2263737Y1160696D01*
Y1159778D01*
X2263277Y1159318D01*
X2261900D01*
X2262818D02*
X2263737Y1158400D01*
X2264655Y1160696D02*
X2265114Y1161155D01*
X2266032D01*
X2266492Y1160696D01*
Y1160237D01*
X2266032Y1159778D01*
X2265573D01*
X2266032D01*
X2266492Y1159318D01*
Y1158859D01*
X2266032Y1158400D01*
X2265114D01*
X2264655Y1158859D01*
X2267410D02*
X2267869Y1158400D01*
X2268788D01*
X2269247Y1158859D01*
Y1160696D01*
X2268788Y1161155D01*
X2267869D01*
X2267410Y1160696D01*
Y1160237D01*
X2267869Y1159778D01*
X2269247D01*
X2270165Y1158400D02*
Y1158859D01*
X2270624D01*
Y1158400D01*
X2270165D01*
X2274298D02*
X2272461D01*
X2274298Y1160237D01*
Y1160696D01*
X2273838Y1161155D01*
X2272920D01*
X2272461Y1160696D01*
X2052441Y1131614D02*
Y1134369D01*
X2053818D01*
X2054278Y1133910D01*
Y1132992D01*
X2053818Y1132533D01*
X2052441D01*
X2053359D02*
X2054278Y1131614D01*
X2055196Y1133910D02*
X2055655Y1134369D01*
X2056573D01*
X2057033Y1133910D01*
Y1133451D01*
X2056573Y1132992D01*
X2056114D01*
X2056573D01*
X2057033Y1132533D01*
Y1132073D01*
X2056573Y1131614D01*
X2055655D01*
X2055196Y1132073D01*
X2057951D02*
X2058410Y1131614D01*
X2059328D01*
X2059788Y1132073D01*
Y1133910D01*
X2059328Y1134369D01*
X2058410D01*
X2057951Y1133910D01*
Y1133451D01*
X2058410Y1132992D01*
X2059788D01*
X2060706Y1131614D02*
Y1132073D01*
X2061165D01*
Y1131614D01*
X2060706D01*
X2063002D02*
X2063920D01*
X2063461D01*
Y1134369D01*
X2063002Y1133910D01*
X2114803Y1258150D02*
Y1260905D01*
X2116181D01*
X2116640Y1260445D01*
Y1259527D01*
X2116181Y1259068D01*
X2114803D01*
X2115722D02*
X2116640Y1258150D01*
X2117558Y1260445D02*
X2118017Y1260905D01*
X2118936D01*
X2119395Y1260445D01*
Y1259986D01*
X2118936Y1259527D01*
X2118476D01*
X2118936D01*
X2119395Y1259068D01*
Y1258609D01*
X2118936Y1258150D01*
X2118017D01*
X2117558Y1258609D01*
X2122150Y1260905D02*
X2121231Y1260445D01*
X2120313Y1259527D01*
Y1258609D01*
X2120772Y1258150D01*
X2121691D01*
X2122150Y1258609D01*
Y1259068D01*
X2121691Y1259527D01*
X2120313D01*
X2123068Y1258150D02*
Y1258609D01*
X2123527D01*
Y1258150D01*
X2123068D01*
X2127201D02*
X2125364D01*
X2127201Y1259986D01*
Y1260445D01*
X2126742Y1260905D01*
X2125823D01*
X2125364Y1260445D01*
X1904291Y1256890D02*
Y1259645D01*
X1905669D01*
X1906128Y1259186D01*
Y1258267D01*
X1905669Y1257808D01*
X1904291D01*
X1905210D02*
X1906128Y1256890D01*
X1907046Y1259186D02*
X1907505Y1259645D01*
X1908424D01*
X1908883Y1259186D01*
Y1258726D01*
X1908424Y1258267D01*
X1907965D01*
X1908424D01*
X1908883Y1257808D01*
Y1257349D01*
X1908424Y1256890D01*
X1907505D01*
X1907046Y1257349D01*
X1911638Y1259645D02*
X1910720Y1259186D01*
X1909801Y1258267D01*
Y1257349D01*
X1910261Y1256890D01*
X1911179D01*
X1911638Y1257349D01*
Y1257808D01*
X1911179Y1258267D01*
X1909801D01*
X1912556Y1256890D02*
Y1257349D01*
X1913016D01*
Y1256890D01*
X1912556D01*
X1914852D02*
X1915771D01*
X1915311D01*
Y1259645D01*
X1914852Y1259186D01*
X2134900Y1154700D02*
Y1157455D01*
X2136278D01*
X2136737Y1156996D01*
Y1156077D01*
X2136278Y1155618D01*
X2134900D01*
X2135818D02*
X2136737Y1154700D01*
X2137655Y1156996D02*
X2138114Y1157455D01*
X2139033D01*
X2139492Y1156996D01*
Y1156537D01*
X2139033Y1156077D01*
X2138573D01*
X2139033D01*
X2139492Y1155618D01*
Y1155159D01*
X2139033Y1154700D01*
X2138114D01*
X2137655Y1155159D01*
X2140410Y1156996D02*
X2140869Y1157455D01*
X2141788D01*
X2142247Y1156996D01*
Y1156537D01*
X2141788Y1156077D01*
X2142247Y1155618D01*
Y1155159D01*
X2141788Y1154700D01*
X2140869D01*
X2140410Y1155159D01*
Y1155618D01*
X2140869Y1156077D01*
X2140410Y1156537D01*
Y1156996D01*
X2140869Y1156077D02*
X2141788D01*
X2143165Y1154700D02*
Y1155159D01*
X2143624D01*
Y1154700D01*
X2143165D01*
X2147298D02*
X2145461D01*
X2147298Y1156537D01*
Y1156996D01*
X2146838Y1157455D01*
X2145920D01*
X2145461Y1156996D01*
X1925709Y1151693D02*
Y1154448D01*
X1927086D01*
X1927545Y1153989D01*
Y1153070D01*
X1927086Y1152611D01*
X1925709D01*
X1926627D02*
X1927545Y1151693D01*
X1928464Y1153989D02*
X1928923Y1154448D01*
X1929841D01*
X1930300Y1153989D01*
Y1153530D01*
X1929841Y1153070D01*
X1929382D01*
X1929841D01*
X1930300Y1152611D01*
Y1152152D01*
X1929841Y1151693D01*
X1928923D01*
X1928464Y1152152D01*
X1931219Y1153989D02*
X1931678Y1154448D01*
X1932596D01*
X1933055Y1153989D01*
Y1153530D01*
X1932596Y1153070D01*
X1933055Y1152611D01*
Y1152152D01*
X1932596Y1151693D01*
X1931678D01*
X1931219Y1152152D01*
Y1152611D01*
X1931678Y1153070D01*
X1931219Y1153530D01*
Y1153989D01*
X1931678Y1153070D02*
X1932596D01*
X1933974Y1151693D02*
Y1152152D01*
X1934433D01*
Y1151693D01*
X1933974D01*
X1936270D02*
X1937188D01*
X1936729D01*
Y1154448D01*
X1936270Y1153989D01*
X2112047Y1178150D02*
Y1180905D01*
X2113425D01*
X2113884Y1180445D01*
Y1179527D01*
X2113425Y1179068D01*
X2112047D01*
X2112966D02*
X2113884Y1178150D01*
X2114802Y1180445D02*
X2115261Y1180905D01*
X2116180D01*
X2116639Y1180445D01*
Y1179986D01*
X2116180Y1179527D01*
X2115721D01*
X2116180D01*
X2116639Y1179068D01*
Y1178609D01*
X2116180Y1178150D01*
X2115261D01*
X2114802Y1178609D01*
X2119394Y1180905D02*
X2117557D01*
Y1179527D01*
X2118476Y1179986D01*
X2118935D01*
X2119394Y1179527D01*
Y1178609D01*
X2118935Y1178150D01*
X2118016D01*
X2117557Y1178609D01*
X2120312Y1178150D02*
Y1178609D01*
X2120771D01*
Y1178150D01*
X2120312D01*
X2124445D02*
X2122608D01*
X2124445Y1179986D01*
Y1180445D01*
X2123986Y1180905D01*
X2123067D01*
X2122608Y1180445D01*
X1900984Y1176968D02*
Y1179723D01*
X1902362D01*
X1902821Y1179264D01*
Y1178346D01*
X1902362Y1177887D01*
X1900984D01*
X1901903D02*
X1902821Y1176968D01*
X1903739Y1179264D02*
X1904198Y1179723D01*
X1905117D01*
X1905576Y1179264D01*
Y1178805D01*
X1905117Y1178346D01*
X1904658D01*
X1905117D01*
X1905576Y1177887D01*
Y1177428D01*
X1905117Y1176968D01*
X1904198D01*
X1903739Y1177428D01*
X1908331Y1179723D02*
X1906494D01*
Y1178346D01*
X1907413Y1178805D01*
X1907872D01*
X1908331Y1178346D01*
Y1177428D01*
X1907872Y1176968D01*
X1906953D01*
X1906494Y1177428D01*
X1909249Y1176968D02*
Y1177428D01*
X1909709D01*
Y1176968D01*
X1909249D01*
X1911545D02*
X1912464D01*
X1912004D01*
Y1179723D01*
X1911545Y1179264D01*
X2113898Y1137441D02*
Y1140196D01*
X2115275D01*
X2115734Y1139737D01*
Y1138818D01*
X2115275Y1138359D01*
X2113898D01*
X2114816D02*
X2115734Y1137441D01*
X2116653Y1139737D02*
X2117112Y1140196D01*
X2118030D01*
X2118489Y1139737D01*
Y1139278D01*
X2118030Y1138818D01*
X2117571D01*
X2118030D01*
X2118489Y1138359D01*
Y1137900D01*
X2118030Y1137441D01*
X2117112D01*
X2116653Y1137900D01*
X2119408Y1139737D02*
X2119867Y1140196D01*
X2120785D01*
X2121244Y1139737D01*
Y1139278D01*
X2120785Y1138818D01*
X2120326D01*
X2120785D01*
X2121244Y1138359D01*
Y1137900D01*
X2120785Y1137441D01*
X2119867D01*
X2119408Y1137900D01*
X2122163Y1137441D02*
Y1137900D01*
X2122622D01*
Y1137441D01*
X2122163D01*
X2126295D02*
X2124459D01*
X2126295Y1139278D01*
Y1139737D01*
X2125836Y1140196D01*
X2124918D01*
X2124459Y1139737D01*
X1900039Y1147441D02*
Y1150196D01*
X1901417D01*
X1901876Y1149737D01*
Y1148818D01*
X1901417Y1148359D01*
X1900039D01*
X1900958D02*
X1901876Y1147441D01*
X1902794Y1149737D02*
X1903254Y1150196D01*
X1904172D01*
X1904631Y1149737D01*
Y1149278D01*
X1904172Y1148818D01*
X1903713D01*
X1904172D01*
X1904631Y1148359D01*
Y1147900D01*
X1904172Y1147441D01*
X1903254D01*
X1902794Y1147900D01*
X1905549Y1149737D02*
X1906009Y1150196D01*
X1906927D01*
X1907386Y1149737D01*
Y1149278D01*
X1906927Y1148818D01*
X1906468D01*
X1906927D01*
X1907386Y1148359D01*
Y1147900D01*
X1906927Y1147441D01*
X1906009D01*
X1905549Y1147900D01*
X1908304Y1147441D02*
Y1147900D01*
X1908764D01*
Y1147441D01*
X1908304D01*
X1910600D02*
X1911519D01*
X1911060D01*
Y1150196D01*
X1910600Y1149737D01*
X2120900Y1245900D02*
Y1248655D01*
X2122277D01*
X2122737Y1248196D01*
Y1247278D01*
X2122277Y1246818D01*
X2120900D01*
X2121818D02*
X2122737Y1245900D01*
X2123655Y1248196D02*
X2124114Y1248655D01*
X2125032D01*
X2125492Y1248196D01*
Y1247737D01*
X2125032Y1247278D01*
X2124573D01*
X2125032D01*
X2125492Y1246818D01*
Y1246359D01*
X2125032Y1245900D01*
X2124114D01*
X2123655Y1246359D01*
X2127788Y1245900D02*
Y1248655D01*
X2126410Y1247278D01*
X2128247D01*
X2129165Y1245900D02*
Y1246359D01*
X2129624D01*
Y1245900D01*
X2129165D01*
X2133298D02*
X2131461D01*
X2133298Y1247737D01*
Y1248196D01*
X2132838Y1248655D01*
X2131920D01*
X2131461Y1248196D01*
X1916772Y1242835D02*
Y1245590D01*
X1918149D01*
X1918608Y1245131D01*
Y1244212D01*
X1918149Y1243753D01*
X1916772D01*
X1917690D02*
X1918608Y1242835D01*
X1919527Y1245131D02*
X1919986Y1245590D01*
X1920904D01*
X1921363Y1245131D01*
Y1244671D01*
X1920904Y1244212D01*
X1920445D01*
X1920904D01*
X1921363Y1243753D01*
Y1243294D01*
X1920904Y1242835D01*
X1919986D01*
X1919527Y1243294D01*
X1923659Y1242835D02*
Y1245590D01*
X1922282Y1244212D01*
X1924118D01*
X1925037Y1242835D02*
Y1243294D01*
X1925496D01*
Y1242835D01*
X1925037D01*
X1927333D02*
X1928251D01*
X1927792D01*
Y1245590D01*
X1927333Y1245131D01*
X2111339Y1158622D02*
Y1161377D01*
X2112716D01*
X2113175Y1160918D01*
Y1160000D01*
X2112716Y1159540D01*
X2111339D01*
X2112257D02*
X2113175Y1158622D01*
X2114094Y1160918D02*
X2114553Y1161377D01*
X2115471D01*
X2115930Y1160918D01*
Y1160459D01*
X2115471Y1160000D01*
X2115012D01*
X2115471D01*
X2115930Y1159540D01*
Y1159081D01*
X2115471Y1158622D01*
X2114553D01*
X2114094Y1159081D01*
X2116849Y1158622D02*
X2117767D01*
X2117308D01*
Y1161377D01*
X2116849Y1160918D01*
X2119144Y1158622D02*
Y1159081D01*
X2119604D01*
Y1158622D01*
X2119144D01*
X2123277D02*
X2121440D01*
X2123277Y1160459D01*
Y1160918D01*
X2122818Y1161377D01*
X2121899D01*
X2121440Y1160918D01*
X1900158Y1157126D02*
Y1159881D01*
X1901535D01*
X1901994Y1159422D01*
Y1158504D01*
X1901535Y1158044D01*
X1900158D01*
X1901076D02*
X1901994Y1157126D01*
X1902913Y1159422D02*
X1903372Y1159881D01*
X1904290D01*
X1904749Y1159422D01*
Y1158963D01*
X1904290Y1158504D01*
X1903831D01*
X1904290D01*
X1904749Y1158044D01*
Y1157585D01*
X1904290Y1157126D01*
X1903372D01*
X1902913Y1157585D01*
X1905667Y1157126D02*
X1906586D01*
X1906127D01*
Y1159881D01*
X1905667Y1159422D01*
X1907963Y1157126D02*
Y1157585D01*
X1908423D01*
Y1157126D01*
X1907963D01*
X1910259D02*
X1911178D01*
X1910718D01*
Y1159881D01*
X1910259Y1159422D01*
X2087874Y1243347D02*
Y1246101D01*
X2089252D01*
X2089711Y1245642D01*
Y1244724D01*
X2089252Y1244265D01*
X2087874D01*
X2088792D02*
X2089711Y1243347D01*
X2090629Y1245642D02*
X2091088Y1246101D01*
X2092007D01*
X2092466Y1245642D01*
Y1245183D01*
X2092007Y1244724D01*
X2091547D01*
X2092007D01*
X2092466Y1244265D01*
Y1243806D01*
X2092007Y1243347D01*
X2091088D01*
X2090629Y1243806D01*
X2095221Y1243347D02*
X2093384D01*
X2095221Y1245183D01*
Y1245642D01*
X2094762Y1246101D01*
X2093843D01*
X2093384Y1245642D01*
X2096139Y1243347D02*
Y1243806D01*
X2096598D01*
Y1243347D01*
X2096139D01*
X2100272D02*
X2098435D01*
X2100272Y1245183D01*
Y1245642D01*
X2099812Y1246101D01*
X2098894D01*
X2098435Y1245642D01*
X1877677Y1241811D02*
Y1244566D01*
X1879055D01*
X1879514Y1244107D01*
Y1243188D01*
X1879055Y1242729D01*
X1877677D01*
X1878596D02*
X1879514Y1241811D01*
X1880432Y1244107D02*
X1880891Y1244566D01*
X1881810D01*
X1882269Y1244107D01*
Y1243648D01*
X1881810Y1243188D01*
X1881351D01*
X1881810D01*
X1882269Y1242729D01*
Y1242270D01*
X1881810Y1241811D01*
X1880891D01*
X1880432Y1242270D01*
X1885024Y1241811D02*
X1883187D01*
X1885024Y1243648D01*
Y1244107D01*
X1884565Y1244566D01*
X1883646D01*
X1883187Y1244107D01*
X1885942Y1241811D02*
Y1242270D01*
X1886401D01*
Y1241811D01*
X1885942D01*
X1888238D02*
X1889156D01*
X1888697D01*
Y1244566D01*
X1888238Y1244107D01*
X2121300Y1224600D02*
Y1227355D01*
X2122677D01*
X2123137Y1226896D01*
Y1225978D01*
X2122677Y1225518D01*
X2121300D01*
X2122218D02*
X2123137Y1224600D01*
X2124055Y1226896D02*
X2124514Y1227355D01*
X2125433D01*
X2125892Y1226896D01*
Y1226437D01*
X2125433Y1225978D01*
X2124973D01*
X2125433D01*
X2125892Y1225518D01*
Y1225059D01*
X2125433Y1224600D01*
X2124514D01*
X2124055Y1225059D01*
X2126810Y1226896D02*
X2127269Y1227355D01*
X2128188D01*
X2128647Y1226896D01*
Y1225059D01*
X2128188Y1224600D01*
X2127269D01*
X2126810Y1225059D01*
Y1226896D01*
X2129565Y1224600D02*
Y1225059D01*
X2130024D01*
Y1224600D01*
X2129565D01*
X2133698D02*
X2131861D01*
X2133698Y1226437D01*
Y1226896D01*
X2133238Y1227355D01*
X2132320D01*
X2131861Y1226896D01*
X1910866Y1221772D02*
Y1224527D01*
X1912244D01*
X1912703Y1224067D01*
Y1223149D01*
X1912244Y1222690D01*
X1910866D01*
X1911785D02*
X1912703Y1221772D01*
X1913621Y1224067D02*
X1914080Y1224527D01*
X1914999D01*
X1915458Y1224067D01*
Y1223608D01*
X1914999Y1223149D01*
X1914540D01*
X1914999D01*
X1915458Y1222690D01*
Y1222231D01*
X1914999Y1221772D01*
X1914080D01*
X1913621Y1222231D01*
X1916376Y1224067D02*
X1916835Y1224527D01*
X1917754D01*
X1918213Y1224067D01*
Y1222231D01*
X1917754Y1221772D01*
X1916835D01*
X1916376Y1222231D01*
Y1224067D01*
X1919131Y1221772D02*
Y1222231D01*
X1919590D01*
Y1221772D01*
X1919131D01*
X1921427D02*
X1922345D01*
X1921886D01*
Y1224527D01*
X1921427Y1224067D01*
X2166800Y1226600D02*
Y1229355D01*
X2168177D01*
X2168637Y1228896D01*
Y1227977D01*
X2168177Y1227518D01*
X2166800D01*
X2167718D02*
X2168637Y1226600D01*
X2171392D02*
X2169555D01*
X2171392Y1228437D01*
Y1228896D01*
X2170933Y1229355D01*
X2170014D01*
X2169555Y1228896D01*
X2172310Y1227059D02*
X2172769Y1226600D01*
X2173688D01*
X2174147Y1227059D01*
Y1228896D01*
X2173688Y1229355D01*
X2172769D01*
X2172310Y1228896D01*
Y1228437D01*
X2172769Y1227977D01*
X2174147D01*
X2175065Y1226600D02*
Y1227059D01*
X2175524D01*
Y1226600D01*
X2175065D01*
X2179198D02*
X2177361D01*
X2179198Y1228437D01*
Y1228896D01*
X2178738Y1229355D01*
X2177820D01*
X2177361Y1228896D01*
X1951693Y1223779D02*
Y1226534D01*
X1953070D01*
X1953530Y1226075D01*
Y1225157D01*
X1953070Y1224698D01*
X1951693D01*
X1952611D02*
X1953530Y1223779D01*
X1956285D02*
X1954448D01*
X1956285Y1225616D01*
Y1226075D01*
X1955825Y1226534D01*
X1954907D01*
X1954448Y1226075D01*
X1957203Y1224239D02*
X1957662Y1223779D01*
X1958581D01*
X1959040Y1224239D01*
Y1226075D01*
X1958581Y1226534D01*
X1957662D01*
X1957203Y1226075D01*
Y1225616D01*
X1957662Y1225157D01*
X1959040D01*
X1959958Y1223779D02*
Y1224239D01*
X1960417D01*
Y1223779D01*
X1959958D01*
X1962254D02*
X1963172D01*
X1962713D01*
Y1226534D01*
X1962254Y1226075D01*
X2102953Y1106653D02*
Y1109409D01*
X2104330D01*
X2104789Y1108949D01*
Y1108031D01*
X2104330Y1107572D01*
X2102953D01*
X2103871D02*
X2104789Y1106653D01*
X2105708D02*
X2106626D01*
X2106167D01*
Y1109409D01*
X2105708Y1108949D01*
X2108004Y1107113D02*
X2108463Y1106653D01*
X2109381D01*
X2109840Y1107113D01*
Y1108949D01*
X2109381Y1109409D01*
X2108463D01*
X2108004Y1108949D01*
Y1108490D01*
X2108463Y1108031D01*
X2109840D01*
X2110759Y1106653D02*
Y1107113D01*
X2111218D01*
Y1106653D01*
X2110759D01*
X2114891D02*
X2113054D01*
X2114891Y1108490D01*
Y1108949D01*
X2114432Y1109409D01*
X2113514D01*
X2113054Y1108949D01*
X1889528Y1104449D02*
Y1107204D01*
X1890905D01*
X1891364Y1106745D01*
Y1105826D01*
X1890905Y1105367D01*
X1889528D01*
X1890446D02*
X1891364Y1104449D01*
X1892283D02*
X1893201D01*
X1892742D01*
Y1107204D01*
X1892283Y1106745D01*
X1894578Y1104908D02*
X1895038Y1104449D01*
X1895956D01*
X1896415Y1104908D01*
Y1106745D01*
X1895956Y1107204D01*
X1895038D01*
X1894578Y1106745D01*
Y1106285D01*
X1895038Y1105826D01*
X1896415D01*
X1897334Y1104449D02*
Y1104908D01*
X1897793D01*
Y1104449D01*
X1897334D01*
X1899629D02*
X1900548D01*
X1900089D01*
Y1107204D01*
X1899629Y1106745D01*
X2101260Y1084961D02*
Y1087716D01*
X2102637D01*
X2103097Y1087257D01*
Y1086338D01*
X2102637Y1085879D01*
X2101260D01*
X2102178D02*
X2103097Y1084961D01*
X2105852D02*
X2104015D01*
X2105852Y1086797D01*
Y1087257D01*
X2105392Y1087716D01*
X2104474D01*
X2104015Y1087257D01*
X2106770D02*
X2107229Y1087716D01*
X2108147D01*
X2108607Y1087257D01*
Y1085420D01*
X2108147Y1084961D01*
X2107229D01*
X2106770Y1085420D01*
Y1087257D01*
X2109525Y1084961D02*
Y1085420D01*
X2109984D01*
Y1084961D01*
X2109525D01*
X2113657D02*
X2111821D01*
X2113657Y1086797D01*
Y1087257D01*
X2113198Y1087716D01*
X2112280D01*
X2111821Y1087257D01*
X1888071Y1083150D02*
Y1085905D01*
X1889448D01*
X1889907Y1085445D01*
Y1084527D01*
X1889448Y1084068D01*
X1888071D01*
X1888989D02*
X1889907Y1083150D01*
X1892663D02*
X1890826D01*
X1892663Y1084986D01*
Y1085445D01*
X1892203Y1085905D01*
X1891285D01*
X1890826Y1085445D01*
X1893581D02*
X1894040Y1085905D01*
X1894958D01*
X1895418Y1085445D01*
Y1083609D01*
X1894958Y1083150D01*
X1894040D01*
X1893581Y1083609D01*
Y1085445D01*
X1896336Y1083150D02*
Y1083609D01*
X1896795D01*
Y1083150D01*
X1896336D01*
X1898632D02*
X1899550D01*
X1899091D01*
Y1085905D01*
X1898632Y1085445D01*
X2185900Y1212000D02*
Y1214755D01*
X2187277D01*
X2187737Y1214296D01*
Y1213377D01*
X2187277Y1212918D01*
X2185900D01*
X2186818D02*
X2187737Y1212000D01*
X2190492D02*
X2188655D01*
X2190492Y1213837D01*
Y1214296D01*
X2190033Y1214755D01*
X2189114D01*
X2188655Y1214296D01*
X2191410D02*
X2191869Y1214755D01*
X2192788D01*
X2193247Y1214296D01*
Y1213837D01*
X2192788Y1213377D01*
X2193247Y1212918D01*
Y1212459D01*
X2192788Y1212000D01*
X2191869D01*
X2191410Y1212459D01*
Y1212918D01*
X2191869Y1213377D01*
X2191410Y1213837D01*
Y1214296D01*
X2191869Y1213377D02*
X2192788D01*
X2194165Y1212000D02*
Y1212459D01*
X2194624D01*
Y1212000D01*
X2194165D01*
X2198298D02*
X2196461D01*
X2198298Y1213837D01*
Y1214296D01*
X2197838Y1214755D01*
X2196920D01*
X2196461Y1214296D01*
X1975100Y1210400D02*
Y1213155D01*
X1976477D01*
X1976937Y1212696D01*
Y1211777D01*
X1976477Y1211318D01*
X1975100D01*
X1976018D02*
X1976937Y1210400D01*
X1979692D02*
X1977855D01*
X1979692Y1212237D01*
Y1212696D01*
X1979232Y1213155D01*
X1978314D01*
X1977855Y1212696D01*
X1980610D02*
X1981069Y1213155D01*
X1981988D01*
X1982447Y1212696D01*
Y1212237D01*
X1981988Y1211777D01*
X1982447Y1211318D01*
Y1210859D01*
X1981988Y1210400D01*
X1981069D01*
X1980610Y1210859D01*
Y1211318D01*
X1981069Y1211777D01*
X1980610Y1212237D01*
Y1212696D01*
X1981069Y1211777D02*
X1981988D01*
X1983365Y1210400D02*
Y1210859D01*
X1983824D01*
Y1210400D01*
X1983365D01*
X1985661D02*
X1986579D01*
X1986120D01*
Y1213155D01*
X1985661Y1212696D01*
X2098386Y1175354D02*
Y1178109D01*
X2099763D01*
X2100223Y1177650D01*
Y1176732D01*
X2099763Y1176273D01*
X2098386D01*
X2099304D02*
X2100223Y1175354D01*
X2102978D02*
X2101141D01*
X2102978Y1177191D01*
Y1177650D01*
X2102518Y1178109D01*
X2101600D01*
X2101141Y1177650D01*
X2103896Y1178109D02*
X2105733D01*
Y1177650D01*
X2103896Y1175813D01*
Y1175354D01*
X2106651D02*
Y1175813D01*
X2107110D01*
Y1175354D01*
X2106651D01*
X2110783D02*
X2108947D01*
X2110783Y1177191D01*
Y1177650D01*
X2110324Y1178109D01*
X2109406D01*
X2108947Y1177650D01*
X1887300Y1173800D02*
Y1176555D01*
X1888677D01*
X1889137Y1176096D01*
Y1175177D01*
X1888677Y1174718D01*
X1887300D01*
X1888218D02*
X1889137Y1173800D01*
X1891892D02*
X1890055D01*
X1891892Y1175637D01*
Y1176096D01*
X1891433Y1176555D01*
X1890514D01*
X1890055Y1176096D01*
X1892810Y1176555D02*
X1894647D01*
Y1176096D01*
X1892810Y1174259D01*
Y1173800D01*
X1895565D02*
Y1174259D01*
X1896024D01*
Y1173800D01*
X1895565D01*
X1897861D02*
X1898779D01*
X1898320D01*
Y1176555D01*
X1897861Y1176096D01*
X2102244Y1064252D02*
Y1067007D01*
X2103622D01*
X2104081Y1066548D01*
Y1065629D01*
X2103622Y1065170D01*
X2102244D01*
X2103162D02*
X2104081Y1064252D01*
X2106836D02*
X2104999D01*
X2106836Y1066089D01*
Y1066548D01*
X2106377Y1067007D01*
X2105458D01*
X2104999Y1066548D01*
X2107754Y1064252D02*
X2108673D01*
X2108213D01*
Y1067007D01*
X2107754Y1066548D01*
X2110050Y1064252D02*
Y1064711D01*
X2110509D01*
Y1064252D01*
X2110050D01*
X2114182D02*
X2112346D01*
X2114182Y1066089D01*
Y1066548D01*
X2113723Y1067007D01*
X2112805D01*
X2112346Y1066548D01*
X1890118Y1063031D02*
Y1065786D01*
X1891496D01*
X1891955Y1065327D01*
Y1064409D01*
X1891496Y1063950D01*
X1890118D01*
X1891036D02*
X1891955Y1063031D01*
X1894710D02*
X1892873D01*
X1894710Y1064868D01*
Y1065327D01*
X1894251Y1065786D01*
X1893332D01*
X1892873Y1065327D01*
X1895628Y1063031D02*
X1896547D01*
X1896087D01*
Y1065786D01*
X1895628Y1065327D01*
X1897924Y1063031D02*
Y1063491D01*
X1898383D01*
Y1063031D01*
X1897924D01*
X1900220D02*
X1901138D01*
X1900679D01*
Y1065786D01*
X1900220Y1065327D01*
X2071772Y1106653D02*
Y1109409D01*
X2073149D01*
X2073608Y1108949D01*
Y1108031D01*
X2073149Y1107572D01*
X2071772D01*
X2072690D02*
X2073608Y1106653D01*
X2076363D02*
X2074527D01*
X2076363Y1108490D01*
Y1108949D01*
X2075904Y1109409D01*
X2074986D01*
X2074527Y1108949D01*
X2079118Y1109409D02*
X2078200Y1108949D01*
X2077282Y1108031D01*
Y1107113D01*
X2077741Y1106653D01*
X2078659D01*
X2079118Y1107113D01*
Y1107572D01*
X2078659Y1108031D01*
X2077282D01*
X2080037Y1106653D02*
Y1107113D01*
X2080496D01*
Y1106653D01*
X2080037D01*
X2084169D02*
X2082333D01*
X2084169Y1108490D01*
Y1108949D01*
X2083710Y1109409D01*
X2082792D01*
X2082333Y1108949D01*
X1864567Y1104803D02*
Y1107558D01*
X1865944D01*
X1866404Y1107099D01*
Y1106181D01*
X1865944Y1105721D01*
X1864567D01*
X1865485D02*
X1866404Y1104803D01*
X1869159D02*
X1867322D01*
X1869159Y1106640D01*
Y1107099D01*
X1868699Y1107558D01*
X1867781D01*
X1867322Y1107099D01*
X1871914Y1107558D02*
X1870995Y1107099D01*
X1870077Y1106181D01*
Y1105262D01*
X1870536Y1104803D01*
X1871454D01*
X1871914Y1105262D01*
Y1105721D01*
X1871454Y1106181D01*
X1870077D01*
X1872832Y1104803D02*
Y1105262D01*
X1873291D01*
Y1104803D01*
X1872832D01*
X1875128D02*
X1876046D01*
X1875587D01*
Y1107558D01*
X1875128Y1107099D01*
X2073583Y1085394D02*
Y1088149D01*
X2074960D01*
X2075419Y1087690D01*
Y1086771D01*
X2074960Y1086312D01*
X2073583D01*
X2074501D02*
X2075419Y1085394D01*
X2078174D02*
X2076338D01*
X2078174Y1087230D01*
Y1087690D01*
X2077715Y1088149D01*
X2076797D01*
X2076338Y1087690D01*
X2080929Y1088149D02*
X2079093D01*
Y1086771D01*
X2080011Y1087230D01*
X2080470D01*
X2080929Y1086771D01*
Y1085853D01*
X2080470Y1085394D01*
X2079552D01*
X2079093Y1085853D01*
X2081848Y1085394D02*
Y1085853D01*
X2082307D01*
Y1085394D01*
X2081848D01*
X2085980D02*
X2084144D01*
X2085980Y1087230D01*
Y1087690D01*
X2085521Y1088149D01*
X2084603D01*
X2084144Y1087690D01*
X1861496Y1083307D02*
Y1086062D01*
X1862874D01*
X1863333Y1085603D01*
Y1084685D01*
X1862874Y1084225D01*
X1861496D01*
X1862414D02*
X1863333Y1083307D01*
X1866088D02*
X1864251D01*
X1866088Y1085144D01*
Y1085603D01*
X1865629Y1086062D01*
X1864710D01*
X1864251Y1085603D01*
X1868843Y1086062D02*
X1867006D01*
Y1084685D01*
X1867924Y1085144D01*
X1868384D01*
X1868843Y1084685D01*
Y1083766D01*
X1868384Y1083307D01*
X1867465D01*
X1867006Y1083766D01*
X1869761Y1083307D02*
Y1083766D01*
X1870220D01*
Y1083307D01*
X1869761D01*
X1872057D02*
X1872975D01*
X1872516D01*
Y1086062D01*
X1872057Y1085603D01*
X2073150Y1064134D02*
Y1066889D01*
X2074527D01*
X2074986Y1066430D01*
Y1065511D01*
X2074527Y1065052D01*
X2073150D01*
X2074068D02*
X2074986Y1064134D01*
X2077741D02*
X2075905D01*
X2077741Y1065971D01*
Y1066430D01*
X2077282Y1066889D01*
X2076364D01*
X2075905Y1066430D01*
X2080037Y1064134D02*
Y1066889D01*
X2078660Y1065511D01*
X2080496D01*
X2081415Y1064134D02*
Y1064593D01*
X2081874D01*
Y1064134D01*
X2081415D01*
X2085547D02*
X2083710D01*
X2085547Y1065971D01*
Y1066430D01*
X2085088Y1066889D01*
X2084170D01*
X2083710Y1066430D01*
X1863858Y1062677D02*
Y1065432D01*
X1865236D01*
X1865695Y1064973D01*
Y1064055D01*
X1865236Y1063595D01*
X1863858D01*
X1864777D02*
X1865695Y1062677D01*
X1868450D02*
X1866613D01*
X1868450Y1064514D01*
Y1064973D01*
X1867991Y1065432D01*
X1867072D01*
X1866613Y1064973D01*
X1870746Y1062677D02*
Y1065432D01*
X1869368Y1064055D01*
X1871205D01*
X1872123Y1062677D02*
Y1063136D01*
X1872582D01*
Y1062677D01*
X1872123D01*
X1874419D02*
X1875337D01*
X1874878D01*
Y1065432D01*
X1874419Y1064973D01*
X2075945Y1041063D02*
Y1043818D01*
X2077322D01*
X2077782Y1043359D01*
Y1042441D01*
X2077322Y1041981D01*
X2075945D01*
X2076863D02*
X2077782Y1041063D01*
X2080537D02*
X2078700D01*
X2080537Y1042900D01*
Y1043359D01*
X2080077Y1043818D01*
X2079159D01*
X2078700Y1043359D01*
X2081455D02*
X2081914Y1043818D01*
X2082832D01*
X2083292Y1043359D01*
Y1042900D01*
X2082832Y1042441D01*
X2082373D01*
X2082832D01*
X2083292Y1041981D01*
Y1041522D01*
X2082832Y1041063D01*
X2081914D01*
X2081455Y1041522D01*
X2084210Y1041063D02*
Y1041522D01*
X2084669D01*
Y1041063D01*
X2084210D01*
X2088342D02*
X2086506D01*
X2088342Y1042900D01*
Y1043359D01*
X2087883Y1043818D01*
X2086965D01*
X2086506Y1043359D01*
X1862874Y1039134D02*
Y1041889D01*
X1864252D01*
X1864711Y1041430D01*
Y1040511D01*
X1864252Y1040052D01*
X1862874D01*
X1863792D02*
X1864711Y1039134D01*
X1867466D02*
X1865629D01*
X1867466Y1040971D01*
Y1041430D01*
X1867007Y1041889D01*
X1866088D01*
X1865629Y1041430D01*
X1868384D02*
X1868843Y1041889D01*
X1869762D01*
X1870221Y1041430D01*
Y1040971D01*
X1869762Y1040511D01*
X1869302D01*
X1869762D01*
X1870221Y1040052D01*
Y1039593D01*
X1869762Y1039134D01*
X1868843D01*
X1868384Y1039593D01*
X1871139Y1039134D02*
Y1039593D01*
X1871598D01*
Y1039134D01*
X1871139D01*
X1873435D02*
X1874353D01*
X1873894D01*
Y1041889D01*
X1873435Y1041430D01*
X2155100Y1236600D02*
Y1239355D01*
X2156478D01*
X2156937Y1238896D01*
Y1237978D01*
X2156478Y1237518D01*
X2155100D01*
X2156018D02*
X2156937Y1236600D01*
X2157855D02*
X2158773D01*
X2158314D01*
Y1239355D01*
X2157855Y1238896D01*
X2160151D02*
X2160610Y1239355D01*
X2161528D01*
X2161987Y1238896D01*
Y1238437D01*
X2161528Y1237978D01*
X2161987Y1237518D01*
Y1237059D01*
X2161528Y1236600D01*
X2160610D01*
X2160151Y1237059D01*
Y1237518D01*
X2160610Y1237978D01*
X2160151Y1238437D01*
Y1238896D01*
X2160610Y1237978D02*
X2161528D01*
X2162906Y1236600D02*
Y1237059D01*
X2163365D01*
Y1236600D01*
X2162906D01*
X2167038D02*
X2165202D01*
X2167038Y1238437D01*
Y1238896D01*
X2166579Y1239355D01*
X2165661D01*
X2165202Y1238896D01*
X1944300Y1235000D02*
Y1237755D01*
X1945678D01*
X1946137Y1237296D01*
Y1236378D01*
X1945678Y1235918D01*
X1944300D01*
X1945218D02*
X1946137Y1235000D01*
X1947055D02*
X1947973D01*
X1947514D01*
Y1237755D01*
X1947055Y1237296D01*
X1949351D02*
X1949810Y1237755D01*
X1950728D01*
X1951188Y1237296D01*
Y1236837D01*
X1950728Y1236378D01*
X1951188Y1235918D01*
Y1235459D01*
X1950728Y1235000D01*
X1949810D01*
X1949351Y1235459D01*
Y1235918D01*
X1949810Y1236378D01*
X1949351Y1236837D01*
Y1237296D01*
X1949810Y1236378D02*
X1950728D01*
X1952106Y1235000D02*
Y1235459D01*
X1952565D01*
Y1235000D01*
X1952106D01*
X1954402D02*
X1955320D01*
X1954861D01*
Y1237755D01*
X1954402Y1237296D01*
X2102677Y1041614D02*
Y1044369D01*
X2104055D01*
X2104514Y1043910D01*
Y1042992D01*
X2104055Y1042533D01*
X2102677D01*
X2103596D02*
X2104514Y1041614D01*
X2107269D02*
X2105432D01*
X2107269Y1043451D01*
Y1043910D01*
X2106810Y1044369D01*
X2105891D01*
X2105432Y1043910D01*
X2110024Y1041614D02*
X2108187D01*
X2110024Y1043451D01*
Y1043910D01*
X2109565Y1044369D01*
X2108646D01*
X2108187Y1043910D01*
X2110942Y1041614D02*
Y1042073D01*
X2111401D01*
Y1041614D01*
X2110942D01*
X2115075D02*
X2113238D01*
X2115075Y1043451D01*
Y1043910D01*
X2114616Y1044369D01*
X2113697D01*
X2113238Y1043910D01*
X1887913Y1039646D02*
Y1042401D01*
X1889291D01*
X1889750Y1041942D01*
Y1041023D01*
X1889291Y1040564D01*
X1887913D01*
X1888832D02*
X1889750Y1039646D01*
X1892505D02*
X1890668D01*
X1892505Y1041482D01*
Y1041942D01*
X1892046Y1042401D01*
X1891128D01*
X1890668Y1041942D01*
X1895260Y1039646D02*
X1893423D01*
X1895260Y1041482D01*
Y1041942D01*
X1894801Y1042401D01*
X1893883D01*
X1893423Y1041942D01*
X1896178Y1039646D02*
Y1040105D01*
X1896638D01*
Y1039646D01*
X1896178D01*
X1898474D02*
X1899393D01*
X1898933D01*
Y1042401D01*
X1898474Y1041942D01*
X2203537Y1133059D02*
Y1134896D01*
X2203078Y1135355D01*
X2202159D01*
X2201700Y1134896D01*
Y1133059D01*
X2202159Y1132600D01*
X2203078D01*
X2202618Y1133518D02*
X2203537Y1132600D01*
X2203078D02*
X2203537Y1133059D01*
X2204455Y1132600D02*
X2205373D01*
X2204914D01*
Y1135355D01*
X2204455Y1134896D01*
X2206751Y1132600D02*
X2207669D01*
X2207210D01*
Y1135355D01*
X2206751Y1134896D01*
X2116937Y1133059D02*
Y1134896D01*
X2116478Y1135355D01*
X2115559D01*
X2115100Y1134896D01*
Y1133059D01*
X2115559Y1132600D01*
X2116478D01*
X2116018Y1133518D02*
X2116937Y1132600D01*
X2116478D02*
X2116937Y1133059D01*
X2117855Y1132600D02*
X2118773D01*
X2118314D01*
Y1135355D01*
X2117855Y1134896D01*
X2120151D02*
X2120610Y1135355D01*
X2121528D01*
X2121988Y1134896D01*
Y1133059D01*
X2121528Y1132600D01*
X2120610D01*
X2120151Y1133059D01*
Y1134896D01*
X1906137Y1132759D02*
Y1134596D01*
X1905677Y1135055D01*
X1904759D01*
X1904300Y1134596D01*
Y1132759D01*
X1904759Y1132300D01*
X1905677D01*
X1905218Y1133218D02*
X1906137Y1132300D01*
X1905677D02*
X1906137Y1132759D01*
X1907055D02*
X1907514Y1132300D01*
X1908433D01*
X1908892Y1132759D01*
Y1134596D01*
X1908433Y1135055D01*
X1907514D01*
X1907055Y1134596D01*
Y1134137D01*
X1907514Y1133677D01*
X1908892D01*
X1993337Y1132759D02*
Y1134596D01*
X1992878Y1135055D01*
X1991959D01*
X1991500Y1134596D01*
Y1132759D01*
X1991959Y1132300D01*
X1992878D01*
X1992418Y1133218D02*
X1993337Y1132300D01*
X1992878D02*
X1993337Y1132759D01*
X1994255Y1134596D02*
X1994714Y1135055D01*
X1995633D01*
X1996092Y1134596D01*
Y1134137D01*
X1995633Y1133677D01*
X1996092Y1133218D01*
Y1132759D01*
X1995633Y1132300D01*
X1994714D01*
X1994255Y1132759D01*
Y1133218D01*
X1994714Y1133677D01*
X1994255Y1134137D01*
Y1134596D01*
X1994714Y1133677D02*
X1995633D01*
X2168537Y1209059D02*
Y1210896D01*
X2168077Y1211355D01*
X2167159D01*
X2166700Y1210896D01*
Y1209059D01*
X2167159Y1208600D01*
X2168077D01*
X2167618Y1209518D02*
X2168537Y1208600D01*
X2168077D02*
X2168537Y1209059D01*
X2170832Y1208600D02*
Y1211355D01*
X2169455Y1209978D01*
X2171292D01*
X2172210Y1208600D02*
Y1209059D01*
X2172669D01*
Y1208600D01*
X2172210D01*
X2176343D02*
X2174506D01*
X2176343Y1210437D01*
Y1210896D01*
X2175883Y1211355D01*
X2174965D01*
X2174506Y1210896D01*
X1957821Y1186247D02*
Y1188083D01*
X1957362Y1188542D01*
X1956443D01*
X1955984Y1188083D01*
Y1186247D01*
X1956443Y1185787D01*
X1957362D01*
X1956903Y1186706D02*
X1957821Y1185787D01*
X1957362D02*
X1957821Y1186247D01*
X1960117Y1185787D02*
Y1188542D01*
X1958739Y1187165D01*
X1960576D01*
X1961494Y1185787D02*
Y1186247D01*
X1961954D01*
Y1185787D01*
X1961494D01*
X1963790D02*
X1964709D01*
X1964249D01*
Y1188542D01*
X1963790Y1188083D01*
X2176137Y1230459D02*
Y1232296D01*
X2175677Y1232755D01*
X2174759D01*
X2174300Y1232296D01*
Y1230459D01*
X2174759Y1230000D01*
X2175677D01*
X2175218Y1230918D02*
X2176137Y1230000D01*
X2175677D02*
X2176137Y1230459D01*
X2177055Y1232296D02*
X2177514Y1232755D01*
X2178432D01*
X2178892Y1232296D01*
Y1231837D01*
X2178432Y1231378D01*
X2177973D01*
X2178432D01*
X2178892Y1230918D01*
Y1230459D01*
X2178432Y1230000D01*
X2177514D01*
X2177055Y1230459D01*
X2179810Y1230000D02*
Y1230459D01*
X2180269D01*
Y1230000D01*
X2179810D01*
X2183943D02*
X2182106D01*
X2183943Y1231837D01*
Y1232296D01*
X2183483Y1232755D01*
X2182565D01*
X2182106Y1232296D01*
X1965337Y1228759D02*
Y1230596D01*
X1964878Y1231055D01*
X1963959D01*
X1963500Y1230596D01*
Y1228759D01*
X1963959Y1228300D01*
X1964878D01*
X1964418Y1229218D02*
X1965337Y1228300D01*
X1964878D02*
X1965337Y1228759D01*
X1966255Y1230596D02*
X1966714Y1231055D01*
X1967632D01*
X1968092Y1230596D01*
Y1230137D01*
X1967632Y1229677D01*
X1967173D01*
X1967632D01*
X1968092Y1229218D01*
Y1228759D01*
X1967632Y1228300D01*
X1966714D01*
X1966255Y1228759D01*
X1969010Y1228300D02*
Y1228759D01*
X1969469D01*
Y1228300D01*
X1969010D01*
X1971306D02*
X1972224D01*
X1971765D01*
Y1231055D01*
X1971306Y1230596D01*
X2066200Y1011000D02*
Y1013755D01*
X2067578D01*
X2068037Y1013296D01*
Y1012377D01*
X2067578Y1011918D01*
X2066200D01*
X2068955Y1011000D02*
X2069873D01*
X2069414D01*
Y1012837D01*
X2068955D01*
X2071251Y1011000D02*
Y1012837D01*
X2072628D01*
X2073088Y1012377D01*
Y1011000D01*
X2074006Y1010541D02*
X2075843D01*
X2076761Y1011000D02*
Y1012837D01*
X2077679Y1013755D01*
X2078598Y1012837D01*
Y1011000D01*
Y1012377D01*
X2076761D01*
X2079516Y1011000D02*
X2080434D01*
X2079975D01*
Y1013755D01*
X2079516Y1013296D01*
X1812500Y907800D02*
Y910555D01*
X1813877D01*
X1814337Y910096D01*
Y909177D01*
X1813877Y908718D01*
X1812500D01*
X1815255Y907800D02*
X1816173D01*
X1815714D01*
Y909637D01*
X1815255D01*
X1817551Y907800D02*
Y909637D01*
X1818928D01*
X1819387Y909177D01*
Y907800D01*
X1820306Y907341D02*
X1822143D01*
X1823061Y909177D02*
X1824898D01*
X1825816Y907800D02*
X1826734D01*
X1826275D01*
Y910555D01*
X1825816Y910096D01*
X1809900Y991200D02*
Y993955D01*
X1811278D01*
X1811737Y993496D01*
Y992577D01*
X1811278Y992118D01*
X1809900D01*
X1812655Y991200D02*
X1813573D01*
X1813114D01*
Y993037D01*
X1812655D01*
X1814951Y991200D02*
Y993037D01*
X1816328D01*
X1816788Y992577D01*
Y991200D01*
X1817706Y990741D02*
X1819543D01*
X1820461Y992577D02*
X1822298D01*
X1821379Y993496D02*
Y991659D01*
X1823216Y991200D02*
X1824134D01*
X1823675D01*
Y993955D01*
X1823216Y993496D01*
X1827000Y1268800D02*
Y1271555D01*
X1828378D01*
X1828837Y1271096D01*
Y1270177D01*
X1828378Y1269718D01*
X1827000D01*
X1831592Y1271555D02*
X1829755D01*
Y1270177D01*
X1830673Y1270637D01*
X1831133D01*
X1831592Y1270177D01*
Y1269259D01*
X1831133Y1268800D01*
X1830214D01*
X1829755Y1269259D01*
X1806700Y1290100D02*
Y1292855D01*
X1808077D01*
X1808537Y1292396D01*
Y1291477D01*
X1808077Y1291018D01*
X1806700D01*
X1810832Y1290100D02*
Y1292855D01*
X1809455Y1291477D01*
X1811292D01*
X2146811Y1268306D02*
Y1265551D01*
X2148189D01*
X2148648Y1266010D01*
Y1267847D01*
X2148189Y1268306D01*
X2146811D01*
X2149566D02*
X2150484D01*
X2150025D01*
Y1265551D01*
X2149566D01*
X2150484D01*
X2151862D02*
X2152780D01*
X2152321D01*
Y1268306D01*
X2151862Y1267847D01*
X2154158Y1265551D02*
Y1266010D01*
X2154617D01*
Y1265551D01*
X2154158D01*
X2158290D02*
X2156454D01*
X2158290Y1267388D01*
Y1267847D01*
X2157831Y1268306D01*
X2156913D01*
X2156454Y1267847D01*
X1922087Y1257243D02*
Y1254488D01*
X1923464D01*
X1923923Y1254947D01*
Y1256784D01*
X1923464Y1257243D01*
X1922087D01*
X1924842D02*
X1925760D01*
X1925301D01*
Y1254488D01*
X1924842D01*
X1925760D01*
X1927138D02*
X1928056D01*
X1927597D01*
Y1257243D01*
X1927138Y1256784D01*
X1929433Y1254488D02*
Y1254947D01*
X1929893D01*
Y1254488D01*
X1929433D01*
X1931729D02*
X1932648D01*
X1932188D01*
Y1257243D01*
X1931729Y1256784D01*
X2109723Y1144961D02*
X2106968D01*
Y1143583D01*
X2107428Y1143124D01*
X2109264D01*
X2109723Y1143583D01*
Y1144961D01*
X2107428Y1142206D02*
X2106968Y1141746D01*
Y1140828D01*
X2107428Y1140369D01*
X2109264D01*
X2109723Y1140828D01*
Y1141746D01*
X2109264Y1142206D01*
X2108805D01*
X2108346Y1141746D01*
Y1140369D01*
X2106968Y1139451D02*
X2107428D01*
Y1138991D01*
X2106968D01*
Y1139451D01*
Y1135318D02*
Y1137155D01*
X2108805Y1135318D01*
X2109264D01*
X2109723Y1135777D01*
Y1136696D01*
X2109264Y1137155D01*
X2086456Y1146142D02*
X2083701D01*
Y1144764D01*
X2084160Y1144305D01*
X2085997D01*
X2086456Y1144764D01*
Y1146142D01*
X2083701Y1143387D02*
Y1142468D01*
Y1142927D01*
X2086456D01*
X2085997Y1143387D01*
X2083701Y1141091D02*
Y1140172D01*
Y1140632D01*
X2086456D01*
X2085997Y1141091D01*
X2083701Y1138795D02*
X2084160D01*
Y1138336D01*
X2083701D01*
Y1138795D01*
Y1134663D02*
Y1136499D01*
X2085538Y1134663D01*
X2085997D01*
X2086456Y1135122D01*
Y1136040D01*
X2085997Y1136499D01*
X1887992Y1149802D02*
Y1147047D01*
X1889370D01*
X1889829Y1147506D01*
Y1149343D01*
X1889370Y1149802D01*
X1887992D01*
X1890747Y1147506D02*
X1891206Y1147047D01*
X1892125D01*
X1892584Y1147506D01*
Y1149343D01*
X1892125Y1149802D01*
X1891206D01*
X1890747Y1149343D01*
Y1148884D01*
X1891206Y1148425D01*
X1892584D01*
X1893502Y1147047D02*
Y1147506D01*
X1893961D01*
Y1147047D01*
X1893502D01*
X1895798D02*
X1896716D01*
X1896257D01*
Y1149802D01*
X1895798Y1149343D01*
X1876339Y1154999D02*
Y1152244D01*
X1877716D01*
X1878175Y1152703D01*
Y1154540D01*
X1877716Y1154999D01*
X1876339D01*
X1879094Y1152244D02*
X1880012D01*
X1879553D01*
Y1154999D01*
X1879094Y1154540D01*
X1881389Y1152244D02*
X1882308D01*
X1881849D01*
Y1154999D01*
X1881389Y1154540D01*
X1883685Y1152244D02*
Y1152703D01*
X1884145D01*
Y1152244D01*
X1883685D01*
X1885981D02*
X1886900D01*
X1886440D01*
Y1154999D01*
X1885981Y1154540D01*
X2130900Y1180855D02*
Y1178100D01*
X2132277D01*
X2132737Y1178559D01*
Y1180396D01*
X2132277Y1180855D01*
X2130900D01*
X2133655Y1178100D02*
X2134573D01*
X2134114D01*
Y1180855D01*
X2133655Y1180396D01*
X2137787Y1180855D02*
X2135951D01*
Y1179478D01*
X2136869Y1179937D01*
X2137328D01*
X2137787Y1179478D01*
Y1178559D01*
X2137328Y1178100D01*
X2136410D01*
X2135951Y1178559D01*
X2138706Y1178100D02*
Y1178559D01*
X2139165D01*
Y1178100D01*
X2138706D01*
X2142838D02*
X2141002D01*
X2142838Y1179937D01*
Y1180396D01*
X2142379Y1180855D01*
X2141461D01*
X2141002Y1180396D01*
X1920512Y1176613D02*
Y1173858D01*
X1921889D01*
X1922349Y1174317D01*
Y1176154D01*
X1921889Y1176613D01*
X1920512D01*
X1923267Y1173858D02*
X1924185D01*
X1923726D01*
Y1176613D01*
X1923267Y1176154D01*
X1927399Y1176613D02*
X1925563D01*
Y1175236D01*
X1926481Y1175695D01*
X1926940D01*
X1927399Y1175236D01*
Y1174317D01*
X1926940Y1173858D01*
X1926022D01*
X1925563Y1174317D01*
X1928318Y1173858D02*
Y1174317D01*
X1928777D01*
Y1173858D01*
X1928318D01*
X1930614D02*
X1931532D01*
X1931073D01*
Y1176613D01*
X1930614Y1176154D01*
X2095512Y1259723D02*
Y1256968D01*
X2096889D01*
X2097349Y1257428D01*
Y1259264D01*
X2096889Y1259723D01*
X2095512D01*
X2098267Y1256968D02*
X2099185D01*
X2098726D01*
Y1259723D01*
X2098267Y1259264D01*
X2101940Y1256968D02*
Y1259723D01*
X2100563Y1258346D01*
X2102399D01*
X2103318Y1256968D02*
Y1257428D01*
X2103777D01*
Y1256968D01*
X2103318D01*
X2107450D02*
X2105614D01*
X2107450Y1258805D01*
Y1259264D01*
X2106991Y1259723D01*
X2106073D01*
X2105614Y1259264D01*
X1884882Y1258109D02*
Y1255354D01*
X1886259D01*
X1886719Y1255814D01*
Y1257650D01*
X1886259Y1258109D01*
X1884882D01*
X1887637Y1255354D02*
X1888555D01*
X1888096D01*
Y1258109D01*
X1887637Y1257650D01*
X1891310Y1255354D02*
Y1258109D01*
X1889933Y1256732D01*
X1891769D01*
X1892688Y1255354D02*
Y1255814D01*
X1893147D01*
Y1255354D01*
X1892688D01*
X1894984D02*
X1895902D01*
X1895443D01*
Y1258109D01*
X1894984Y1257650D01*
X2135500Y1168155D02*
Y1165400D01*
X2136877D01*
X2137337Y1165859D01*
Y1167696D01*
X2136877Y1168155D01*
X2135500D01*
X2138255Y1165400D02*
X2139173D01*
X2138714D01*
Y1168155D01*
X2138255Y1167696D01*
X2140551Y1168155D02*
X2142388D01*
Y1167696D01*
X2140551Y1165859D01*
Y1165400D01*
X2143306D02*
Y1165859D01*
X2143765D01*
Y1165400D01*
X2143306D01*
X2147438D02*
X2145602D01*
X2147438Y1167237D01*
Y1167696D01*
X2146979Y1168155D01*
X2146061D01*
X2145602Y1167696D01*
X1926457Y1164448D02*
Y1161693D01*
X1927834D01*
X1928293Y1162152D01*
Y1163989D01*
X1927834Y1164448D01*
X1926457D01*
X1929212Y1161693D02*
X1930130D01*
X1929671D01*
Y1164448D01*
X1929212Y1163989D01*
X1931508Y1164448D02*
X1933344D01*
Y1163989D01*
X1931508Y1162152D01*
Y1161693D01*
X1934263D02*
Y1162152D01*
X1934722D01*
Y1161693D01*
X1934263D01*
X1936559D02*
X1937477D01*
X1937018D01*
Y1164448D01*
X1936559Y1163989D01*
X2145700Y1222855D02*
Y1220100D01*
X2147078D01*
X2147537Y1220559D01*
Y1222396D01*
X2147078Y1222855D01*
X2145700D01*
X2148455Y1220100D02*
X2149373D01*
X2148914D01*
Y1222855D01*
X2148455Y1222396D01*
X2150751D02*
X2151210Y1222855D01*
X2152128D01*
X2152588Y1222396D01*
Y1221937D01*
X2152128Y1221478D01*
X2151669D01*
X2152128D01*
X2152588Y1221018D01*
Y1220559D01*
X2152128Y1220100D01*
X2151210D01*
X2150751Y1220559D01*
X2153506Y1220100D02*
Y1220559D01*
X2153965D01*
Y1220100D01*
X2153506D01*
X2157638D02*
X2155802D01*
X2157638Y1221937D01*
Y1222396D01*
X2157179Y1222855D01*
X2156261D01*
X2155802Y1222396D01*
X1935079Y1219448D02*
Y1216693D01*
X1936456D01*
X1936915Y1217152D01*
Y1218989D01*
X1936456Y1219448D01*
X1935079D01*
X1937834Y1216693D02*
X1938752D01*
X1938293D01*
Y1219448D01*
X1937834Y1218989D01*
X1940130D02*
X1940589Y1219448D01*
X1941507D01*
X1941966Y1218989D01*
Y1218530D01*
X1941507Y1218070D01*
X1941048D01*
X1941507D01*
X1941966Y1217611D01*
Y1217152D01*
X1941507Y1216693D01*
X1940589D01*
X1940130Y1217152D01*
X1942885Y1216693D02*
Y1217152D01*
X1943344D01*
Y1216693D01*
X1942885D01*
X1945181D02*
X1946099D01*
X1945640D01*
Y1219448D01*
X1945181Y1218989D01*
X1873737Y992996D02*
X1873277Y993455D01*
X1872359D01*
X1871900Y992996D01*
Y991159D01*
X1872359Y990700D01*
X1873277D01*
X1873737Y991159D01*
X1875114Y992537D02*
X1876032D01*
X1876492Y992078D01*
Y990700D01*
X1875114D01*
X1874655Y991159D01*
X1875114Y991618D01*
X1876492D01*
X1877410Y990700D02*
X1878328D01*
X1877869D01*
Y993455D01*
X1877410Y992996D01*
X2171679Y1268280D02*
X2171220Y1268739D01*
X2170302D01*
X2169843Y1268280D01*
Y1266443D01*
X2170302Y1265984D01*
X2171220D01*
X2171679Y1266443D01*
X2174434Y1265984D02*
X2172598D01*
X2174434Y1267821D01*
Y1268280D01*
X2173975Y1268739D01*
X2173057D01*
X2172598Y1268280D01*
X2177189Y1268739D02*
X2175353D01*
Y1267362D01*
X2176271Y1267821D01*
X2176730D01*
X2177189Y1267362D01*
Y1266443D01*
X2176730Y1265984D01*
X2175812D01*
X2175353Y1266443D01*
X2178108Y1265984D02*
Y1266443D01*
X2178567D01*
Y1265984D01*
X2178108D01*
X2182240D02*
X2180403D01*
X2182240Y1267821D01*
Y1268280D01*
X2181781Y1268739D01*
X2180863D01*
X2180403Y1268280D01*
X2169637Y1248696D02*
X2169177Y1249155D01*
X2168259D01*
X2167800Y1248696D01*
Y1246859D01*
X2168259Y1246400D01*
X2169177D01*
X2169637Y1246859D01*
X2172392Y1246400D02*
X2170555D01*
X2172392Y1248237D01*
Y1248696D01*
X2171932Y1249155D01*
X2171014D01*
X2170555Y1248696D01*
X2175147Y1249155D02*
X2174228Y1248696D01*
X2173310Y1247777D01*
Y1246859D01*
X2173769Y1246400D01*
X2174688D01*
X2175147Y1246859D01*
Y1247318D01*
X2174688Y1247777D01*
X2173310D01*
X2176065Y1246400D02*
Y1246859D01*
X2176524D01*
Y1246400D01*
X2176065D01*
X2180198D02*
X2178361D01*
X2180198Y1248237D01*
Y1248696D01*
X2179738Y1249155D01*
X2178820D01*
X2178361Y1248696D01*
X2179632Y1157768D02*
X2179173Y1158228D01*
X2178254D01*
X2177795Y1157768D01*
Y1155932D01*
X2178254Y1155472D01*
X2179173D01*
X2179632Y1155932D01*
X2182387Y1155472D02*
X2180550D01*
X2182387Y1157309D01*
Y1157768D01*
X2181928Y1158228D01*
X2181009D01*
X2180550Y1157768D01*
X2183305D02*
X2183764Y1158228D01*
X2184683D01*
X2185142Y1157768D01*
Y1155932D01*
X2184683Y1155472D01*
X2183764D01*
X2183305Y1155932D01*
Y1157768D01*
X2186060Y1155472D02*
Y1155932D01*
X2186519D01*
Y1155472D01*
X2186060D01*
X2190193D02*
X2188356D01*
X2190193Y1157309D01*
Y1157768D01*
X2189734Y1158228D01*
X2188815D01*
X2188356Y1157768D01*
X2179868Y1178004D02*
X2179409Y1178464D01*
X2178491D01*
X2178032Y1178004D01*
Y1176168D01*
X2178491Y1175709D01*
X2179409D01*
X2179868Y1176168D01*
X2180787Y1175709D02*
X2181705D01*
X2181246D01*
Y1178464D01*
X2180787Y1178004D01*
X2183082Y1176168D02*
X2183541Y1175709D01*
X2184460D01*
X2184919Y1176168D01*
Y1178004D01*
X2184460Y1178464D01*
X2183541D01*
X2183082Y1178004D01*
Y1177545D01*
X2183541Y1177086D01*
X2184919D01*
X2185837Y1175709D02*
Y1176168D01*
X2186297D01*
Y1175709D01*
X2185837D01*
X2189970D02*
X2188133D01*
X2189970Y1177545D01*
Y1178004D01*
X2189511Y1178464D01*
X2188592D01*
X2188133Y1178004D01*
X2112837Y1242596D02*
X2112378Y1243055D01*
X2111459D01*
X2111000Y1242596D01*
Y1240759D01*
X2111459Y1240300D01*
X2112378D01*
X2112837Y1240759D01*
X2115592Y1240300D02*
X2113755D01*
X2115592Y1242137D01*
Y1242596D01*
X2115133Y1243055D01*
X2114214D01*
X2113755Y1242596D01*
X2117887Y1240300D02*
Y1243055D01*
X2116510Y1241677D01*
X2118347D01*
X2119265Y1240300D02*
Y1240759D01*
X2119724D01*
Y1240300D01*
X2119265D01*
X2123398D02*
X2121561D01*
X2123398Y1242137D01*
Y1242596D01*
X2122938Y1243055D01*
X2122020D01*
X2121561Y1242596D01*
X1969829Y1265800D02*
X1969370Y1266259D01*
X1968451D01*
X1967992Y1265800D01*
Y1263963D01*
X1968451Y1263504D01*
X1969370D01*
X1969829Y1263963D01*
X1972584Y1263504D02*
X1970747D01*
X1972584Y1265341D01*
Y1265800D01*
X1972125Y1266259D01*
X1971206D01*
X1970747Y1265800D01*
X1975339Y1266259D02*
X1973502D01*
Y1264882D01*
X1974421Y1265341D01*
X1974880D01*
X1975339Y1264882D01*
Y1263963D01*
X1974880Y1263504D01*
X1973961D01*
X1973502Y1263963D01*
X1976257Y1263504D02*
Y1263963D01*
X1976716D01*
Y1263504D01*
X1976257D01*
X1978553D02*
X1979471D01*
X1979012D01*
Y1266259D01*
X1978553Y1265800D01*
X1959553Y1246154D02*
X1959094Y1246613D01*
X1958176D01*
X1957717Y1246154D01*
Y1244317D01*
X1958176Y1243858D01*
X1959094D01*
X1959553Y1244317D01*
X1962308Y1243858D02*
X1960472D01*
X1962308Y1245695D01*
Y1246154D01*
X1961849Y1246613D01*
X1960931D01*
X1960472Y1246154D01*
X1965063Y1246613D02*
X1964145Y1246154D01*
X1963227Y1245236D01*
Y1244317D01*
X1963686Y1243858D01*
X1964604D01*
X1965063Y1244317D01*
Y1244777D01*
X1964604Y1245236D01*
X1963227D01*
X1965982Y1243858D02*
Y1244317D01*
X1966441D01*
Y1243858D01*
X1965982D01*
X1968277D02*
X1969196D01*
X1968737D01*
Y1246613D01*
X1968277Y1246154D01*
X1968451Y1156233D02*
X1967992Y1156692D01*
X1967073D01*
X1966614Y1156233D01*
Y1154396D01*
X1967073Y1153937D01*
X1967992D01*
X1968451Y1154396D01*
X1971206Y1153937D02*
X1969369D01*
X1971206Y1155774D01*
Y1156233D01*
X1970747Y1156692D01*
X1969828D01*
X1969369Y1156233D01*
X1972124D02*
X1972583Y1156692D01*
X1973502D01*
X1973961Y1156233D01*
Y1154396D01*
X1973502Y1153937D01*
X1972583D01*
X1972124Y1154396D01*
Y1156233D01*
X1974879Y1153937D02*
Y1154396D01*
X1975338D01*
Y1153937D01*
X1974879D01*
X1977175D02*
X1978093D01*
X1977634D01*
Y1156692D01*
X1977175Y1156233D01*
X1969514Y1176548D02*
X1969055Y1177007D01*
X1968136D01*
X1967677Y1176548D01*
Y1174711D01*
X1968136Y1174252D01*
X1969055D01*
X1969514Y1174711D01*
X1970432Y1174252D02*
X1971350D01*
X1970891D01*
Y1177007D01*
X1970432Y1176548D01*
X1972728Y1174711D02*
X1973187Y1174252D01*
X1974105D01*
X1974565Y1174711D01*
Y1176548D01*
X1974105Y1177007D01*
X1973187D01*
X1972728Y1176548D01*
Y1176089D01*
X1973187Y1175630D01*
X1974565D01*
X1975483Y1174252D02*
Y1174711D01*
X1975942D01*
Y1174252D01*
X1975483D01*
X1977779D02*
X1978697D01*
X1978238D01*
Y1177007D01*
X1977779Y1176548D01*
X1903057Y1244934D02*
X1902598Y1245393D01*
X1901680D01*
X1901221Y1244934D01*
Y1243097D01*
X1901680Y1242638D01*
X1902598D01*
X1903057Y1243097D01*
X1905812Y1242638D02*
X1903975D01*
X1905812Y1244475D01*
Y1244934D01*
X1905353Y1245393D01*
X1904435D01*
X1903975Y1244934D01*
X1908108Y1242638D02*
Y1245393D01*
X1906730Y1244015D01*
X1908567D01*
X1909485Y1242638D02*
Y1243097D01*
X1909945D01*
Y1242638D01*
X1909485D01*
X1911781D02*
X1912700D01*
X1912241D01*
Y1245393D01*
X1911781Y1244934D01*
X2444837Y1145996D02*
X2444378Y1146455D01*
X2443459D01*
X2443000Y1145996D01*
Y1144159D01*
X2443459Y1143700D01*
X2444378D01*
X2444837Y1144159D01*
X2447132Y1143700D02*
Y1146455D01*
X2445755Y1145078D01*
X2447592D01*
X2450347Y1146455D02*
X2449428Y1145996D01*
X2448510Y1145078D01*
Y1144159D01*
X2448969Y1143700D01*
X2449887D01*
X2450347Y1144159D01*
Y1144618D01*
X2449887Y1145078D01*
X2448510D01*
X2441537Y1297396D02*
X2441077Y1297855D01*
X2440159D01*
X2439700Y1297396D01*
Y1295559D01*
X2440159Y1295100D01*
X2441077D01*
X2441537Y1295559D01*
X2443833Y1295100D02*
Y1297855D01*
X2442455Y1296478D01*
X2444292D01*
X2447047Y1297855D02*
X2445210D01*
Y1296478D01*
X2446128Y1296937D01*
X2446588D01*
X2447047Y1296478D01*
Y1295559D01*
X2446588Y1295100D01*
X2445669D01*
X2445210Y1295559D01*
X2290537Y1297496D02*
X2290078Y1297955D01*
X2289159D01*
X2288700Y1297496D01*
Y1295659D01*
X2289159Y1295200D01*
X2290078D01*
X2290537Y1295659D01*
X2292833Y1295200D02*
Y1297955D01*
X2291455Y1296577D01*
X2293292D01*
X2294210Y1297496D02*
X2294669Y1297955D01*
X2295588D01*
X2296047Y1297496D01*
Y1297037D01*
X2295588Y1296577D01*
X2295128D01*
X2295588D01*
X2296047Y1296118D01*
Y1295659D01*
X2295588Y1295200D01*
X2294669D01*
X2294210Y1295659D01*
X2123237Y1208696D02*
X2122778Y1209155D01*
X2121859D01*
X2121400Y1208696D01*
Y1206859D01*
X2121859Y1206400D01*
X2122778D01*
X2123237Y1206859D01*
X2125992Y1206400D02*
X2124155D01*
X2125992Y1208237D01*
Y1208696D01*
X2125533Y1209155D01*
X2124614D01*
X2124155Y1208696D01*
X2128747Y1206400D02*
X2126910D01*
X2128747Y1208237D01*
Y1208696D01*
X2128288Y1209155D01*
X2127369D01*
X2126910Y1208696D01*
X2129665Y1206400D02*
Y1206859D01*
X2130124D01*
Y1206400D01*
X2129665D01*
X2133798D02*
X2131961D01*
X2133798Y1208237D01*
Y1208696D01*
X2133338Y1209155D01*
X2132420D01*
X2131961Y1208696D01*
X1928726Y1199343D02*
X1928267Y1199802D01*
X1927349D01*
X1926890Y1199343D01*
Y1197506D01*
X1927349Y1197047D01*
X1928267D01*
X1928726Y1197506D01*
X1931482Y1197047D02*
X1929645D01*
X1931482Y1198884D01*
Y1199343D01*
X1931022Y1199802D01*
X1930104D01*
X1929645Y1199343D01*
X1934237Y1197047D02*
X1932400D01*
X1934237Y1198884D01*
Y1199343D01*
X1933777Y1199802D01*
X1932859D01*
X1932400Y1199343D01*
X1935155Y1197047D02*
Y1197506D01*
X1935614D01*
Y1197047D01*
X1935155D01*
X1937451D02*
X1938369D01*
X1937910D01*
Y1199802D01*
X1937451Y1199343D01*
X2103923Y1245760D02*
X2103464Y1246220D01*
X2102546D01*
X2102087Y1245760D01*
Y1243924D01*
X2102546Y1243465D01*
X2103464D01*
X2103923Y1243924D01*
X2104842Y1243465D02*
X2105760D01*
X2105301D01*
Y1246220D01*
X2104842Y1245760D01*
X2107137D02*
X2107597Y1246220D01*
X2108515D01*
X2108974Y1245760D01*
Y1245301D01*
X2108515Y1244842D01*
X2108974Y1244383D01*
Y1243924D01*
X2108515Y1243465D01*
X2107597D01*
X2107137Y1243924D01*
Y1244383D01*
X2107597Y1244842D01*
X2107137Y1245301D01*
Y1245760D01*
X2107597Y1244842D02*
X2108515D01*
X2109892Y1243465D02*
Y1243924D01*
X2110352D01*
Y1243465D01*
X2109892D01*
X2114025D02*
X2112188D01*
X2114025Y1245301D01*
Y1245760D01*
X2113566Y1246220D01*
X2112647D01*
X2112188Y1245760D01*
X1891364Y1243910D02*
X1890905Y1244369D01*
X1889987D01*
X1889528Y1243910D01*
Y1242073D01*
X1889987Y1241614D01*
X1890905D01*
X1891364Y1242073D01*
X1892283Y1241614D02*
X1893201D01*
X1892742D01*
Y1244369D01*
X1892283Y1243910D01*
X1894578D02*
X1895038Y1244369D01*
X1895956D01*
X1896415Y1243910D01*
Y1243451D01*
X1895956Y1242992D01*
X1896415Y1242533D01*
Y1242073D01*
X1895956Y1241614D01*
X1895038D01*
X1894578Y1242073D01*
Y1242533D01*
X1895038Y1242992D01*
X1894578Y1243451D01*
Y1243910D01*
X1895038Y1242992D02*
X1895956D01*
X1897334Y1241614D02*
Y1242073D01*
X1897793D01*
Y1241614D01*
X1897334D01*
X1899629D02*
X1900548D01*
X1900089D01*
Y1244369D01*
X1899629Y1243910D01*
X2112821Y1170367D02*
X2112362Y1170826D01*
X2111443D01*
X2110984Y1170367D01*
Y1168530D01*
X2111443Y1168071D01*
X2112362D01*
X2112821Y1168530D01*
X2113739Y1168071D02*
X2114658D01*
X2114198D01*
Y1170826D01*
X2113739Y1170367D01*
X2116035Y1170826D02*
X2117872D01*
Y1170367D01*
X2116035Y1168530D01*
Y1168071D01*
X2118790D02*
Y1168530D01*
X2119249D01*
Y1168071D01*
X2118790D01*
X2122923D02*
X2121086D01*
X2122923Y1169908D01*
Y1170367D01*
X2122463Y1170826D01*
X2121545D01*
X2121086Y1170367D01*
X1902388Y1168871D02*
X1901929Y1169330D01*
X1901010D01*
X1900551Y1168871D01*
Y1167034D01*
X1901010Y1166575D01*
X1901929D01*
X1902388Y1167034D01*
X1903306Y1166575D02*
X1904225D01*
X1903765D01*
Y1169330D01*
X1903306Y1168871D01*
X1905602Y1169330D02*
X1907439D01*
Y1168871D01*
X1905602Y1167034D01*
Y1166575D01*
X1908357D02*
Y1167034D01*
X1908816D01*
Y1166575D01*
X1908357D01*
X1910653D02*
X1911571D01*
X1911112D01*
Y1169330D01*
X1910653Y1168871D01*
X2122737Y1238896D02*
X2122277Y1239355D01*
X2121359D01*
X2120900Y1238896D01*
Y1237059D01*
X2121359Y1236600D01*
X2122277D01*
X2122737Y1237059D01*
X2123655Y1236600D02*
X2124573D01*
X2124114D01*
Y1239355D01*
X2123655Y1238896D01*
X2127788Y1239355D02*
X2126869Y1238896D01*
X2125951Y1237978D01*
Y1237059D01*
X2126410Y1236600D01*
X2127328D01*
X2127788Y1237059D01*
Y1237518D01*
X2127328Y1237978D01*
X2125951D01*
X2128706Y1236600D02*
Y1237059D01*
X2129165D01*
Y1236600D01*
X2128706D01*
X2132838D02*
X2131002D01*
X2132838Y1238437D01*
Y1238896D01*
X2132379Y1239355D01*
X2131461D01*
X2131002Y1238896D01*
X1929120Y1229973D02*
X1928661Y1230432D01*
X1927743D01*
X1927283Y1229973D01*
Y1228136D01*
X1927743Y1227677D01*
X1928661D01*
X1929120Y1228136D01*
X1930038Y1227677D02*
X1930957D01*
X1930498D01*
Y1230432D01*
X1930038Y1229973D01*
X1934171Y1230432D02*
X1933253Y1229973D01*
X1932334Y1229055D01*
Y1228136D01*
X1932793Y1227677D01*
X1933712D01*
X1934171Y1228136D01*
Y1228596D01*
X1933712Y1229055D01*
X1932334D01*
X1935089Y1227677D02*
Y1228136D01*
X1935549D01*
Y1227677D01*
X1935089D01*
X1937385D02*
X1938304D01*
X1937844D01*
Y1230432D01*
X1937385Y1229973D01*
X2158337Y1212896D02*
X2157878Y1213355D01*
X2156959D01*
X2156500Y1212896D01*
Y1211059D01*
X2156959Y1210600D01*
X2157878D01*
X2158337Y1211059D01*
X2159255Y1210600D02*
X2160173D01*
X2159714D01*
Y1213355D01*
X2159255Y1212896D01*
X2163387Y1213355D02*
X2161551D01*
Y1211977D01*
X2162469Y1212437D01*
X2162928D01*
X2163387Y1211977D01*
Y1211059D01*
X2162928Y1210600D01*
X2162010D01*
X2161551Y1211059D01*
X2164306Y1210600D02*
Y1211059D01*
X2164765D01*
Y1210600D01*
X2164306D01*
X2168438D02*
X2166602D01*
X2168438Y1212437D01*
Y1212896D01*
X2167979Y1213355D01*
X2167061D01*
X2166602Y1212896D01*
X1943530Y1208831D02*
X1943070Y1209291D01*
X1942152D01*
X1941693Y1208831D01*
Y1206995D01*
X1942152Y1206535D01*
X1943070D01*
X1943530Y1206995D01*
X1944448Y1206535D02*
X1945366D01*
X1944907D01*
Y1209291D01*
X1944448Y1208831D01*
X1948581Y1209291D02*
X1946744D01*
Y1207913D01*
X1947662Y1208372D01*
X1948121D01*
X1948581Y1207913D01*
Y1206995D01*
X1948121Y1206535D01*
X1947203D01*
X1946744Y1206995D01*
X1949499Y1206535D02*
Y1206995D01*
X1949958D01*
Y1206535D01*
X1949499D01*
X1951795D02*
X1952713D01*
X1952254D01*
Y1209291D01*
X1951795Y1208831D01*
X2123137Y1217896D02*
X2122677Y1218355D01*
X2121759D01*
X2121300Y1217896D01*
Y1216059D01*
X2121759Y1215600D01*
X2122677D01*
X2123137Y1216059D01*
X2124055Y1215600D02*
X2124973D01*
X2124514D01*
Y1218355D01*
X2124055Y1217896D01*
X2127728Y1215600D02*
Y1218355D01*
X2126351Y1216978D01*
X2128188D01*
X2129106Y1215600D02*
Y1216059D01*
X2129565D01*
Y1215600D01*
X2129106D01*
X2133238D02*
X2131402D01*
X2133238Y1217437D01*
Y1217896D01*
X2132779Y1218355D01*
X2131861D01*
X2131402Y1217896D01*
X1929514Y1211705D02*
X1929055Y1212164D01*
X1928136D01*
X1927677Y1211705D01*
Y1209869D01*
X1928136Y1209409D01*
X1929055D01*
X1929514Y1209869D01*
X1930432Y1209409D02*
X1931351D01*
X1930891D01*
Y1212164D01*
X1930432Y1211705D01*
X1934105Y1209409D02*
Y1212164D01*
X1932728Y1210787D01*
X1934565D01*
X1935483Y1209409D02*
Y1209869D01*
X1935942D01*
Y1209409D01*
X1935483D01*
X1937779D02*
X1938697D01*
X1938238D01*
Y1212164D01*
X1937779Y1211705D01*
X2085222Y1177886D02*
X2084763Y1178346D01*
X2083845D01*
X2083386Y1177886D01*
Y1176050D01*
X2083845Y1175591D01*
X2084763D01*
X2085222Y1176050D01*
X2086141Y1175591D02*
X2087059D01*
X2086600D01*
Y1178346D01*
X2086141Y1177886D01*
X2088437D02*
X2088896Y1178346D01*
X2089814D01*
X2090273Y1177886D01*
Y1177427D01*
X2089814Y1176968D01*
X2089355D01*
X2089814D01*
X2090273Y1176509D01*
Y1176050D01*
X2089814Y1175591D01*
X2088896D01*
X2088437Y1176050D01*
X2091192Y1175591D02*
Y1176050D01*
X2091651D01*
Y1175591D01*
X2091192D01*
X2095324D02*
X2093488D01*
X2095324Y1177427D01*
Y1177886D01*
X2094865Y1178346D01*
X2093947D01*
X2093488Y1177886D01*
X1880037Y1176096D02*
X1879577Y1176555D01*
X1878659D01*
X1878200Y1176096D01*
Y1174259D01*
X1878659Y1173800D01*
X1879577D01*
X1880037Y1174259D01*
X1880955Y1173800D02*
X1881873D01*
X1881414D01*
Y1176555D01*
X1880955Y1176096D01*
X1883251D02*
X1883710Y1176555D01*
X1884628D01*
X1885088Y1176096D01*
Y1175637D01*
X1884628Y1175177D01*
X1884169D01*
X1884628D01*
X1885088Y1174718D01*
Y1174259D01*
X1884628Y1173800D01*
X1883710D01*
X1883251Y1174259D01*
X1886006Y1173800D02*
Y1174259D01*
X1886465D01*
Y1173800D01*
X1886006D01*
X1888302D02*
X1889220D01*
X1888761D01*
Y1176555D01*
X1888302Y1176096D01*
X2154700Y1188200D02*
X2155618D01*
X2155159D01*
Y1190955D01*
X2154700Y1190496D01*
X2156996Y1188200D02*
Y1188659D01*
X2157455D01*
Y1188200D01*
X2156996D01*
X2161128D02*
X2159292D01*
X2161128Y1190037D01*
Y1190496D01*
X2160669Y1190955D01*
X2159751D01*
X2159292Y1190496D01*
X1943900Y1186600D02*
X1944818D01*
X1944359D01*
Y1189355D01*
X1943900Y1188896D01*
X1946196Y1186600D02*
Y1187059D01*
X1946655D01*
Y1186600D01*
X1946196D01*
X1948492D02*
X1949410D01*
X1948951D01*
Y1189355D01*
X1948492Y1188896D01*
X2246705Y1163833D02*
X2247165Y1164292D01*
Y1165210D01*
X2246705Y1165669D01*
X2244869D01*
X2244409Y1165210D01*
Y1164292D01*
X2244869Y1163833D01*
X2244409Y1161078D02*
Y1162914D01*
X2246246Y1161078D01*
X2246705D01*
X2247165Y1161537D01*
Y1162455D01*
X2246705Y1162914D01*
X2247165Y1160159D02*
Y1158323D01*
X2246705D01*
X2244869Y1160159D01*
X2244409D01*
Y1157404D02*
X2244869D01*
Y1156945D01*
X2244409D01*
Y1157404D01*
Y1153272D02*
Y1155108D01*
X2246246Y1153272D01*
X2246705D01*
X2247165Y1153731D01*
Y1154649D01*
X2246705Y1155108D01*
X2278241Y1172966D02*
X2278700Y1173426D01*
Y1174344D01*
X2278241Y1174803D01*
X2276404D01*
X2275945Y1174344D01*
Y1173426D01*
X2276404Y1172966D01*
X2275945Y1170211D02*
Y1172048D01*
X2277782Y1170211D01*
X2278241D01*
X2278700Y1170671D01*
Y1171589D01*
X2278241Y1172048D01*
X2276404Y1169293D02*
X2275945Y1168834D01*
Y1167916D01*
X2276404Y1167456D01*
X2278241D01*
X2278700Y1167916D01*
Y1168834D01*
X2278241Y1169293D01*
X2277782D01*
X2277322Y1168834D01*
Y1167456D01*
X2275945Y1166538D02*
X2276404D01*
Y1166079D01*
X2275945D01*
Y1166538D01*
Y1162406D02*
Y1164242D01*
X2277782Y1162406D01*
X2278241D01*
X2278700Y1162865D01*
Y1163783D01*
X2278241Y1164242D01*
X2228766Y1147256D02*
X2228307Y1147716D01*
X2227388D01*
X2226929Y1147256D01*
Y1145420D01*
X2227388Y1144961D01*
X2228307D01*
X2228766Y1145420D01*
X2229684Y1147256D02*
X2230143Y1147716D01*
X2231062D01*
X2231521Y1147256D01*
Y1146797D01*
X2231062Y1146338D01*
X2230602D01*
X2231062D01*
X2231521Y1145879D01*
Y1145420D01*
X2231062Y1144961D01*
X2230143D01*
X2229684Y1145420D01*
X2232439Y1147256D02*
X2232898Y1147716D01*
X2233817D01*
X2234276Y1147256D01*
Y1145420D01*
X2233817Y1144961D01*
X2232898D01*
X2232439Y1145420D01*
Y1147256D01*
X2235194Y1144961D02*
Y1145420D01*
X2235653D01*
Y1144961D01*
X2235194D01*
X2239327D02*
X2237490D01*
X2239327Y1146797D01*
Y1147256D01*
X2238868Y1147716D01*
X2237949D01*
X2237490Y1147256D01*
X2203923Y1273359D02*
X2203464Y1273818D01*
X2202546D01*
X2202087Y1273359D01*
Y1271522D01*
X2202546Y1271063D01*
X2203464D01*
X2203923Y1271522D01*
X2204842Y1273359D02*
X2205301Y1273818D01*
X2206219D01*
X2206678Y1273359D01*
Y1272900D01*
X2206219Y1272441D01*
X2205760D01*
X2206219D01*
X2206678Y1271981D01*
Y1271522D01*
X2206219Y1271063D01*
X2205301D01*
X2204842Y1271522D01*
X2207597Y1271063D02*
X2208515D01*
X2208056D01*
Y1273818D01*
X2207597Y1273359D01*
X2209892Y1271063D02*
Y1271522D01*
X2210352D01*
Y1271063D01*
X2209892D01*
X2214025D02*
X2212188D01*
X2214025Y1272900D01*
Y1273359D01*
X2213566Y1273818D01*
X2212647D01*
X2212188Y1273359D01*
X2206561Y1205760D02*
X2206102Y1206220D01*
X2205184D01*
X2204724Y1205760D01*
Y1203924D01*
X2205184Y1203465D01*
X2206102D01*
X2206561Y1203924D01*
X2207479Y1205760D02*
X2207939Y1206220D01*
X2208857D01*
X2209316Y1205760D01*
Y1205301D01*
X2208857Y1204842D01*
X2208398D01*
X2208857D01*
X2209316Y1204383D01*
Y1203924D01*
X2208857Y1203465D01*
X2207939D01*
X2207479Y1203924D01*
X2212071Y1203465D02*
X2210234D01*
X2212071Y1205301D01*
Y1205760D01*
X2211612Y1206220D01*
X2210694D01*
X2210234Y1205760D01*
X2212989Y1203465D02*
Y1203924D01*
X2213449D01*
Y1203465D01*
X2212989D01*
X2217122D02*
X2215285D01*
X2217122Y1205301D01*
Y1205760D01*
X2216663Y1206220D01*
X2215745D01*
X2215285Y1205760D01*
X2276509Y1233045D02*
X2276968Y1233504D01*
Y1234423D01*
X2276509Y1234882D01*
X2274672D01*
X2274213Y1234423D01*
Y1233504D01*
X2274672Y1233045D01*
X2276509Y1232127D02*
X2276968Y1231668D01*
Y1230749D01*
X2276509Y1230290D01*
X2276049D01*
X2275590Y1230749D01*
Y1231209D01*
Y1230749D01*
X2275131Y1230290D01*
X2274672D01*
X2274213Y1230749D01*
Y1231668D01*
X2274672Y1232127D01*
X2276509Y1229372D02*
X2276968Y1228913D01*
Y1227994D01*
X2276509Y1227535D01*
X2276049D01*
X2275590Y1227994D01*
Y1228454D01*
Y1227994D01*
X2275131Y1227535D01*
X2274672D01*
X2274213Y1227994D01*
Y1228913D01*
X2274672Y1229372D01*
X2274213Y1226617D02*
X2274672D01*
Y1226158D01*
X2274213D01*
Y1226617D01*
Y1222484D02*
Y1224321D01*
X2276049Y1222484D01*
X2276509D01*
X2276968Y1222943D01*
Y1223862D01*
X2276509Y1224321D01*
X2190734Y1239737D02*
X2190275Y1240196D01*
X2189357D01*
X2188898Y1239737D01*
Y1237900D01*
X2189357Y1237441D01*
X2190275D01*
X2190734Y1237900D01*
X2191653Y1239737D02*
X2192112Y1240196D01*
X2193030D01*
X2193489Y1239737D01*
Y1239278D01*
X2193030Y1238818D01*
X2192571D01*
X2193030D01*
X2193489Y1238359D01*
Y1237900D01*
X2193030Y1237441D01*
X2192112D01*
X2191653Y1237900D01*
X2195785Y1237441D02*
Y1240196D01*
X2194408Y1238818D01*
X2196244D01*
X2197163Y1237441D02*
Y1237900D01*
X2197622D01*
Y1237441D01*
X2197163D01*
X2201295D02*
X2199459D01*
X2201295Y1239278D01*
Y1239737D01*
X2200836Y1240196D01*
X2199918D01*
X2199459Y1239737D01*
X2255960Y1252314D02*
X2255501Y1252773D01*
X2254582D01*
X2254123Y1252314D01*
Y1250477D01*
X2254582Y1250018D01*
X2255501D01*
X2255960Y1250477D01*
X2256878Y1250018D02*
X2257796D01*
X2257337D01*
Y1251855D01*
X2256878D01*
X2259174Y1250018D02*
Y1251855D01*
X2260551D01*
X2261011Y1251396D01*
Y1250018D01*
X2261929D02*
X2262847D01*
X2262388D01*
Y1252773D01*
X2261929Y1252314D01*
X2264225Y1250018D02*
Y1250477D01*
X2264684D01*
Y1250018D01*
X2264225D01*
X2268357D02*
X2266521D01*
X2268357Y1251855D01*
Y1252314D01*
X2267898Y1252773D01*
X2266980D01*
X2266521Y1252314D01*
X2277532Y1198045D02*
X2277991Y1198504D01*
Y1199423D01*
X2277532Y1199882D01*
X2275695D01*
X2275236Y1199423D01*
Y1198504D01*
X2275695Y1198045D01*
X2275236Y1197127D02*
Y1196208D01*
Y1196668D01*
X2277073D01*
Y1197127D01*
X2275236Y1194831D02*
X2277073D01*
Y1193454D01*
X2276614Y1192994D01*
X2275236D01*
Y1190239D02*
Y1192076D01*
X2277073Y1190239D01*
X2277532D01*
X2277991Y1190699D01*
Y1191617D01*
X2277532Y1192076D01*
X2275236Y1189321D02*
X2275695D01*
Y1188862D01*
X2275236D01*
Y1189321D01*
Y1185188D02*
Y1187025D01*
X2277073Y1185188D01*
X2277532D01*
X2277991Y1185648D01*
Y1186566D01*
X2277532Y1187025D01*
X2256062Y1165197D02*
X2253307D01*
Y1163819D01*
X2253766Y1163360D01*
X2255603D01*
X2256062Y1163819D01*
Y1165197D01*
X2253307Y1162442D02*
Y1161524D01*
Y1161983D01*
X2256062D01*
X2255603Y1162442D01*
Y1160146D02*
X2256062Y1159687D01*
Y1158768D01*
X2255603Y1158309D01*
X2255144D01*
X2254685Y1158768D01*
X2254225Y1158309D01*
X2253766D01*
X2253307Y1158768D01*
Y1159687D01*
X2253766Y1160146D01*
X2254225D01*
X2254685Y1159687D01*
X2255144Y1160146D01*
X2255603D01*
X2254685Y1159687D02*
Y1158768D01*
X2253307Y1157391D02*
X2253766D01*
Y1156932D01*
X2253307D01*
Y1157391D01*
Y1153258D02*
Y1155095D01*
X2255144Y1153258D01*
X2255603D01*
X2256062Y1153718D01*
Y1154636D01*
X2255603Y1155095D01*
X2226189Y1168206D02*
X2223434D01*
Y1166828D01*
X2223893Y1166369D01*
X2225730D01*
X2226189Y1166828D01*
Y1168206D01*
X2223434Y1165451D02*
Y1164532D01*
Y1164991D01*
X2226189D01*
X2225730Y1165451D01*
X2223893Y1163155D02*
X2223434Y1162696D01*
Y1161777D01*
X2223893Y1161318D01*
X2225730D01*
X2226189Y1161777D01*
Y1162696D01*
X2225730Y1163155D01*
X2225271D01*
X2224812Y1162696D01*
Y1161318D01*
X2223434Y1160400D02*
X2223893D01*
Y1159941D01*
X2223434D01*
Y1160400D01*
Y1156267D02*
Y1158104D01*
X2225271Y1156267D01*
X2225730D01*
X2226189Y1156726D01*
Y1157645D01*
X2225730Y1158104D01*
X2220857Y1268594D02*
X2222694D01*
X2223153Y1269053D01*
Y1269972D01*
X2222694Y1270431D01*
X2220857D01*
X2220398Y1269972D01*
Y1269053D01*
X2221316Y1269513D02*
X2220398Y1268594D01*
Y1269053D02*
X2220857Y1268594D01*
X2223153Y1265839D02*
Y1267676D01*
X2221776D01*
X2222235Y1266758D01*
Y1266298D01*
X2221776Y1265839D01*
X2220857D01*
X2220398Y1266298D01*
Y1267217D01*
X2220857Y1267676D01*
X2220398Y1264921D02*
X2220857D01*
Y1264462D01*
X2220398D01*
Y1264921D01*
Y1260789D02*
Y1262625D01*
X2222235Y1260789D01*
X2222694D01*
X2223153Y1261248D01*
Y1262166D01*
X2222694Y1262625D01*
X2273309Y1263273D02*
X2275146D01*
X2275605Y1263732D01*
Y1264651D01*
X2275146Y1265110D01*
X2273309D01*
X2272850Y1264651D01*
Y1263732D01*
X2273768Y1264192D02*
X2272850Y1263273D01*
Y1263732D02*
X2273309Y1263273D01*
X2275605Y1260518D02*
X2275146Y1261436D01*
X2274228Y1262355D01*
X2273309D01*
X2272850Y1261896D01*
Y1260977D01*
X2273309Y1260518D01*
X2273768D01*
X2274228Y1260977D01*
Y1262355D01*
X2272850Y1259600D02*
X2273309D01*
Y1259141D01*
X2272850D01*
Y1259600D01*
Y1255467D02*
Y1257304D01*
X2274687Y1255467D01*
X2275146D01*
X2275605Y1255927D01*
Y1256845D01*
X2275146Y1257304D01*
X2189961Y1258937D02*
Y1261692D01*
X2191338D01*
X2191797Y1261233D01*
Y1260314D01*
X2191338Y1259855D01*
X2189961D01*
X2190879D02*
X2191797Y1258937D01*
X2194093D02*
Y1261692D01*
X2192716Y1260314D01*
X2194552D01*
X2197307Y1258937D02*
X2195471D01*
X2197307Y1260774D01*
Y1261233D01*
X2196848Y1261692D01*
X2195930D01*
X2195471Y1261233D01*
X2198226Y1258937D02*
Y1259396D01*
X2198685D01*
Y1258937D01*
X2198226D01*
X2202358D02*
X2200521D01*
X2202358Y1260774D01*
Y1261233D01*
X2201899Y1261692D01*
X2200981D01*
X2200521Y1261233D01*
X2202677Y1218937D02*
Y1221692D01*
X2204055D01*
X2204514Y1221233D01*
Y1220315D01*
X2204055Y1219855D01*
X2202677D01*
X2203596D02*
X2204514Y1218937D01*
X2206810D02*
Y1221692D01*
X2205432Y1220315D01*
X2207269D01*
X2208187Y1221233D02*
X2208646Y1221692D01*
X2209565D01*
X2210024Y1221233D01*
Y1220774D01*
X2209565Y1220315D01*
X2209105D01*
X2209565D01*
X2210024Y1219855D01*
Y1219396D01*
X2209565Y1218937D01*
X2208646D01*
X2208187Y1219396D01*
X2210942Y1218937D02*
Y1219396D01*
X2211401D01*
Y1218937D01*
X2210942D01*
X2215075D02*
X2213238D01*
X2215075Y1220774D01*
Y1221233D01*
X2214616Y1221692D01*
X2213697D01*
X2213238Y1221233D01*
X2274803Y1220354D02*
X2277558D01*
Y1218977D01*
X2277099Y1218518D01*
X2276181D01*
X2275722Y1218977D01*
Y1220354D01*
Y1219436D02*
X2274803Y1218518D01*
Y1216222D02*
X2277558D01*
X2276181Y1217599D01*
Y1215763D01*
X2274803Y1213467D02*
X2277558D01*
X2276181Y1214844D01*
Y1213008D01*
X2274803Y1212089D02*
X2275262D01*
Y1211630D01*
X2274803D01*
Y1212089D01*
Y1207957D02*
Y1209793D01*
X2276640Y1207957D01*
X2277099D01*
X2277558Y1208416D01*
Y1209334D01*
X2277099Y1209793D01*
X2253542Y1211594D02*
X2256297D01*
Y1210216D01*
X2255837Y1209757D01*
X2254919D01*
X2254460Y1210216D01*
Y1211594D01*
Y1210675D02*
X2253542Y1209757D01*
Y1207461D02*
X2256297D01*
X2254919Y1208838D01*
Y1207002D01*
X2256297Y1204247D02*
Y1206083D01*
X2254919D01*
X2255378Y1205165D01*
Y1204706D01*
X2254919Y1204247D01*
X2254001D01*
X2253542Y1204706D01*
Y1205624D01*
X2254001Y1206083D01*
X2253542Y1203329D02*
X2254001D01*
Y1202869D01*
X2253542D01*
Y1203329D01*
Y1199196D02*
Y1201033D01*
X2255378Y1199196D01*
X2255837D01*
X2256297Y1199655D01*
Y1200574D01*
X2255837Y1201033D01*
X2189961Y1246575D02*
Y1249330D01*
X2191338D01*
X2191797Y1248871D01*
Y1247952D01*
X2191338Y1247493D01*
X2189961D01*
X2190879D02*
X2191797Y1246575D01*
X2194093D02*
Y1249330D01*
X2192716Y1247952D01*
X2194552D01*
X2197307Y1249330D02*
X2196389Y1248871D01*
X2195471Y1247952D01*
Y1247034D01*
X2195930Y1246575D01*
X2196848D01*
X2197307Y1247034D01*
Y1247493D01*
X2196848Y1247952D01*
X2195471D01*
X2198226Y1246575D02*
Y1247034D01*
X2198685D01*
Y1246575D01*
X2198226D01*
X2202358D02*
X2200521D01*
X2202358Y1248411D01*
Y1248871D01*
X2201899Y1249330D01*
X2200981D01*
X2200521Y1248871D01*
X2243150Y1274685D02*
Y1277440D01*
X2244527D01*
X2244986Y1276981D01*
Y1276062D01*
X2244527Y1275603D01*
X2243150D01*
X2244068D02*
X2244986Y1274685D01*
X2247282D02*
Y1277440D01*
X2245905Y1276062D01*
X2247741D01*
X2248660Y1277440D02*
X2250496D01*
Y1276981D01*
X2248660Y1275144D01*
Y1274685D01*
X2251415D02*
Y1275144D01*
X2251874D01*
Y1274685D01*
X2251415D01*
X2255547D02*
X2253711D01*
X2255547Y1276522D01*
Y1276981D01*
X2255088Y1277440D01*
X2254170D01*
X2253711Y1276981D01*
X1813900Y1236600D02*
Y1239355D01*
X1815277D01*
X1815737Y1238896D01*
Y1237978D01*
X1815277Y1237518D01*
X1813900D01*
X1814818D02*
X1815737Y1236600D01*
X1816655Y1238896D02*
X1817114Y1239355D01*
X1818032D01*
X1818492Y1238896D01*
Y1238437D01*
X1818032Y1237978D01*
X1818492Y1237518D01*
Y1237059D01*
X1818032Y1236600D01*
X1817114D01*
X1816655Y1237059D01*
Y1237518D01*
X1817114Y1237978D01*
X1816655Y1238437D01*
Y1238896D01*
X1817114Y1237978D02*
X1818032D01*
X1819410Y1238896D02*
X1819869Y1239355D01*
X1820787D01*
X1821247Y1238896D01*
Y1238437D01*
X1820787Y1237978D01*
X1820328D01*
X1820787D01*
X1821247Y1237518D01*
Y1237059D01*
X1820787Y1236600D01*
X1819869D01*
X1819410Y1237059D01*
X1813900Y1258300D02*
Y1261055D01*
X1815277D01*
X1815737Y1260596D01*
Y1259678D01*
X1815277Y1259218D01*
X1813900D01*
X1814818D02*
X1815737Y1258300D01*
X1816655Y1260596D02*
X1817114Y1261055D01*
X1818032D01*
X1818492Y1260596D01*
Y1260137D01*
X1818032Y1259678D01*
X1818492Y1259218D01*
Y1258759D01*
X1818032Y1258300D01*
X1817114D01*
X1816655Y1258759D01*
Y1259218D01*
X1817114Y1259678D01*
X1816655Y1260137D01*
Y1260596D01*
X1817114Y1259678D02*
X1818032D01*
X1821247Y1258300D02*
X1819410D01*
X1821247Y1260137D01*
Y1260596D01*
X1820787Y1261055D01*
X1819869D01*
X1819410Y1260596D01*
X2195827Y1140354D02*
Y1143109D01*
X2197204D01*
X2197663Y1142650D01*
Y1141732D01*
X2197204Y1141273D01*
X2195827D01*
X2196745D02*
X2197663Y1140354D01*
X2199959D02*
X2199041D01*
X2198582Y1140814D01*
Y1141732D01*
X2199041Y1142191D01*
X2199959D01*
X2200418Y1141732D01*
Y1141273D01*
X2198582D01*
X2202255Y1139436D02*
X2202714D01*
X2203173Y1139895D01*
Y1142191D01*
X2201796D01*
X2201337Y1141732D01*
Y1140814D01*
X2201796Y1140354D01*
X2203173D01*
X2204092D02*
X2205010D01*
X2204551D01*
Y1143109D01*
X2204092Y1142650D01*
X2206388Y1140354D02*
Y1140814D01*
X2206847D01*
Y1140354D01*
X2206388D01*
X2210520D02*
X2208684D01*
X2210520Y1142191D01*
Y1142650D01*
X2210061Y1143109D01*
X2209143D01*
X2208684Y1142650D01*
X2226042Y1206120D02*
Y1204284D01*
Y1205202D01*
X2223287D01*
X2225123Y1203365D02*
X2223287D01*
X2224205D01*
X2224664Y1202906D01*
X2225123Y1202447D01*
Y1201988D01*
Y1200151D02*
Y1199233D01*
X2224664Y1198774D01*
X2223287D01*
Y1200151D01*
X2223746Y1200610D01*
X2224205Y1200151D01*
Y1198774D01*
X2223287Y1197855D02*
X2225123D01*
Y1196478D01*
X2224664Y1196019D01*
X2223287D01*
Y1195100D02*
Y1193723D01*
X2223746Y1193264D01*
X2224205Y1193723D01*
Y1194641D01*
X2224664Y1195100D01*
X2225123Y1194641D01*
Y1193264D01*
X2223287Y1191886D02*
X2225583D01*
X2224664D01*
Y1192345D01*
Y1191427D01*
Y1191886D01*
X2225583D01*
X2226042Y1191427D01*
X2223287Y1189590D02*
Y1188672D01*
X2223746Y1188213D01*
X2224664D01*
X2225123Y1188672D01*
Y1189590D01*
X2224664Y1190049D01*
X2223746D01*
X2223287Y1189590D01*
X2225123Y1187294D02*
X2223287D01*
X2224205D01*
X2224664Y1186835D01*
X2225123Y1186376D01*
Y1185917D01*
X2223287Y1184539D02*
X2225123D01*
Y1184080D01*
X2224664Y1183621D01*
X2223287D01*
X2224664D01*
X2225123Y1183162D01*
X2224664Y1182703D01*
X2223287D01*
Y1180407D02*
Y1181325D01*
X2223746Y1181784D01*
X2224664D01*
X2225123Y1181325D01*
Y1180407D01*
X2224664Y1179948D01*
X2224205D01*
Y1181784D01*
X2225123Y1179029D02*
X2223287D01*
X2224205D01*
X2224664Y1178570D01*
X2225123Y1178111D01*
Y1177652D01*
X2223287Y1176274D02*
Y1175356D01*
Y1175815D01*
X2226042D01*
X2225583Y1176274D01*
X2223287Y1173979D02*
X2223746D01*
Y1173519D01*
X2223287D01*
Y1173979D01*
Y1169846D02*
Y1171683D01*
X2225123Y1169846D01*
X2225583D01*
X2226042Y1170305D01*
Y1171223D01*
X2225583Y1171683D01*
X2232638Y1259015D02*
Y1256719D01*
X2233097Y1256260D01*
X2234015D01*
X2234475Y1256719D01*
Y1259015D01*
X2235393Y1256719D02*
X2235852Y1256260D01*
X2236770D01*
X2237230Y1256719D01*
Y1258556D01*
X2236770Y1259015D01*
X2235852D01*
X2235393Y1258556D01*
Y1258097D01*
X2235852Y1257637D01*
X2237230D01*
X2238148Y1256260D02*
Y1256719D01*
X2238607D01*
Y1256260D01*
X2238148D01*
X2242280D02*
X2240444D01*
X2242280Y1258097D01*
Y1258556D01*
X2241821Y1259015D01*
X2240903D01*
X2240444Y1258556D01*
X2109437Y963296D02*
X2108978Y963755D01*
X2108059D01*
X2107600Y963296D01*
Y961459D01*
X2108059Y961000D01*
X2108978D01*
X2109437Y961459D01*
X2110814Y962837D02*
X2111732D01*
X2112192Y962377D01*
Y961000D01*
X2110814D01*
X2110355Y961459D01*
X2110814Y961918D01*
X2112192D01*
X2114947Y961000D02*
X2113110D01*
X2114947Y962837D01*
Y963296D01*
X2114487Y963755D01*
X2113569D01*
X2113110Y963296D01*
X2276400Y999800D02*
Y1002555D01*
X2277777D01*
X2278237Y1002096D01*
Y1001178D01*
X2277777Y1000718D01*
X2276400D01*
X2279155Y999800D02*
X2280073D01*
X2279614D01*
Y1001637D01*
X2279155D01*
X2281451Y999800D02*
Y1001637D01*
X2282828D01*
X2283287Y1001178D01*
Y999800D01*
X2284206Y999341D02*
X2286043D01*
X2286961Y1001178D02*
X2288798D01*
X2287879Y1002096D02*
Y1000259D01*
X2291553Y999800D02*
X2289716D01*
X2291553Y1001637D01*
Y1002096D01*
X2291093Y1002555D01*
X2290175D01*
X2289716Y1002096D01*
X2276700Y907800D02*
Y910555D01*
X2278078D01*
X2278537Y910096D01*
Y909177D01*
X2278078Y908718D01*
X2276700D01*
X2279455Y907800D02*
X2280373D01*
X2279914D01*
Y909637D01*
X2279455D01*
X2281751Y907800D02*
Y909637D01*
X2283128D01*
X2283587Y909177D01*
Y907800D01*
X2284506Y907341D02*
X2286343D01*
X2287261Y909177D02*
X2289098D01*
X2291853Y907800D02*
X2290016D01*
X2291853Y909637D01*
Y910096D01*
X2291393Y910555D01*
X2290475D01*
X2290016Y910096D01*
X2290537Y1148996D02*
X2290078Y1149455D01*
X2289159D01*
X2288700Y1148996D01*
Y1147159D01*
X2289159Y1146700D01*
X2290078D01*
X2290537Y1147159D01*
X2292833Y1146700D02*
Y1149455D01*
X2291455Y1148077D01*
X2293292D01*
X2295588Y1146700D02*
Y1149455D01*
X2294210Y1148077D01*
X2296047D01*
X1943874Y1182405D02*
Y1182865D01*
X1944333D01*
Y1182405D01*
X1943874D01*
X2154701Y1184060D02*
Y1184519D01*
X2155160D01*
Y1184060D01*
X2154701D01*
X2040656Y1025012D02*
X2040196Y1025471D01*
X2039278D01*
X2038819Y1025012D01*
Y1024553D01*
X2039278Y1024094D01*
X2040196D01*
X2040656Y1023635D01*
Y1023176D01*
X2040196Y1022717D01*
X2039278D01*
X2038819Y1023176D01*
X2015118Y1025275D02*
Y1022520D01*
X2016496D01*
X2016955Y1022979D01*
Y1024815D01*
X2016496Y1025275D01*
X2015118D01*
X1996640Y1025012D02*
X1996181Y1025471D01*
X1995262D01*
X1994803Y1025012D01*
Y1023176D01*
X1995262Y1022717D01*
X1996181D01*
X1996640Y1023176D01*
Y1024094D01*
X1995721D01*
X1953380Y1025012D02*
X1952921Y1025471D01*
X1952003D01*
X1951543Y1025012D01*
Y1024553D01*
X1952003Y1024094D01*
X1952921D01*
X1953380Y1023635D01*
Y1023176D01*
X1952921Y1022717D01*
X1952003D01*
X1951543Y1023176D01*
X1927843Y1025275D02*
Y1022520D01*
X1929220D01*
X1929679Y1022979D01*
Y1024815D01*
X1929220Y1025275D01*
X1927843D01*
X1909364Y1025012D02*
X1908905Y1025471D01*
X1907987D01*
X1907528Y1025012D01*
Y1023176D01*
X1907987Y1022717D01*
X1908905D01*
X1909364Y1023176D01*
Y1024094D01*
X1908446D01*
X2164238Y1025327D02*
X2163779Y1025786D01*
X2162861D01*
X2162402Y1025327D01*
Y1024868D01*
X2162861Y1024409D01*
X2163779D01*
X2164238Y1023950D01*
Y1023491D01*
X2163779Y1023032D01*
X2162861D01*
X2162402Y1023491D01*
X2138701Y1025590D02*
Y1022835D01*
X2140078D01*
X2140537Y1023294D01*
Y1025130D01*
X2140078Y1025590D01*
X2138701D01*
X2120222Y1025327D02*
X2119763Y1025786D01*
X2118845D01*
X2118386Y1025327D01*
Y1023491D01*
X2118845Y1023032D01*
X2119763D01*
X2120222Y1023491D01*
Y1024409D01*
X2119304D01*
X2250813Y1025327D02*
X2250354Y1025786D01*
X2249436D01*
X2248976Y1025327D01*
Y1024868D01*
X2249436Y1024409D01*
X2250354D01*
X2250813Y1023950D01*
Y1023491D01*
X2250354Y1023032D01*
X2249436D01*
X2248976Y1023491D01*
X2225276Y1025590D02*
Y1022835D01*
X2226653D01*
X2227112Y1023294D01*
Y1025130D01*
X2226653Y1025590D01*
X2225276D01*
X2206797Y1025327D02*
X2206338Y1025786D01*
X2205420D01*
X2204961Y1025327D01*
Y1023491D01*
X2205420Y1023032D01*
X2206338D01*
X2206797Y1023491D01*
Y1024409D01*
X2205879D01*
D53*
X1951846Y1179846D02*
D03*
X2162673Y1181501D02*
D03*
M02*
