M48
;Layer_Color=9474304
;FILE_FORMAT=2:5
INCH,LZ
;TYPE=PLATED
T1F00S00C0.02800
T2F00S00C0.03543
T3F00S00C0.05906
T4F00S00C0.07598
T5F00S00C0.07874
%
T01
X2064882Y0920827
X2059842
X2054803
X2049764
X2044724
X2039685
X2034646
Y0925866
Y0930906
X2039685
Y0925866
X2044724
Y0930906
Y0935945
X2039685
X2049764
Y0930906
Y0925866
X2054803
Y0930906
Y0935945
X2059842
Y0930906
Y0925866
X2064882
Y0930906
Y0935945
X2024567
Y0930906
Y0925866
Y0920827
X2029606
Y0925866
Y0930906
X198063Y102063
X2191457Y1022284
X221185Y1141654
X224374Y1144843
X2268504Y115815
X2258465Y1175709
X221874Y1195749
X2220428Y1220887
X2201614Y1206143
X2188386Y1189213
X2189016Y1230434
X2270672Y1228938
X2182008Y1233465
X2181772Y1207048
X2152441Y1202166
X214248Y1206221
X2124921Y1194135
X2125984Y118193
X213252Y1165473
X2131339Y1157599
X2129685Y1144804
X2101535Y1153032
X2093268Y1150906
X2085236Y1129213
X209689Y1109922
X2057677Y1156496
X2047638Y1174055
X2032913Y1143189
X2059845Y1227283
X2078858Y1229922
X2084094Y1240513
X2091339Y1220434
X2101732Y1220709
X2109173Y1219686
X2114724Y1241418
X2142008Y1239528
X2157835Y1222442
X2152362Y1181536
X2152716Y1165985
X2171807Y117614
X2169449Y1135867
X2180508Y1139369
X2001024Y114
X1969681Y1137714
X1958622Y1134213
X196098Y1174486
X1941536Y1179882
X194189Y1164331
X1921693Y1163819
X1920512Y1155945
X1918858Y114315
X1890709Y1151378
X1882441Y1149252
X1886063Y1108268
X1915158Y1180276
X1914095Y119248
X1931654Y1204567
X1941614Y1200512
X1947008Y1220787
X1931181Y1237874
X1903898Y1239764
X1898347Y1218032
X1890906Y1219055
X1880512Y1218779
X1971181Y1231811
X1978189Y122878
X1970945Y1205394
X1990787Y1204488
X2007913Y1194094
X2009601Y1219232
X1977559Y1187559
X1868032Y1228268
X1873268Y1238858
X1874409Y1127559
X1930473Y126378
X1963543Y1268465
X1971378Y1292087
X1989055Y1254449
X2008152Y127
X2032628Y1255369
X2042677Y1254409
X2065236Y1275433
X2065472Y1299213
X2141299Y1265434
X2199882Y1256103
X2219646Y1273779
X2243454Y1257024
X2253504Y1256064
T02
X1832126Y1221102
Y1231102
Y1241102
Y1251102
Y1261102
X1831732Y1282441
X1821732
X1811732
T03
X2224055Y0932874
X2117756
X188252Y0946417
X2032126
T04
X2322126Y0871417
X2302441
X2282756
Y0898976
X2302441
X2322126
X1857913
X1838228
X1818543
Y0871417
X1838228
X1857913
X1855394Y0954882
X1835709
X1816024
Y0982441
X1835709
X1855394
X2072284Y0974606
X2091969
X2111654
Y1002165
X2091969
X2072284
X228248Y0990984
X2302165
X232185
Y0963425
X2302165
X228248
T05
X2338465Y1072638
X2381772
X2492756Y1069606
X2536063
X2532795Y1221063
X2489488
X2381772Y1221142
X2338465
M30
