G04 Layer_Color=32768*
%FSLAX25Y25*%
%MOIN*%
G70*
G01*
G75*
%ADD58C,0.00394*%
%ADD91C,0.00197*%
%ADD92C,0.01969*%
%ADD93C,0.00300*%
D58*
X366998Y164598D02*
X370935D01*
X368967Y162629D02*
Y166566D01*
X362077Y156921D02*
Y172275D01*
X375857Y156921D02*
Y172275D01*
X362077Y156921D02*
X375857D01*
X362077Y172275D02*
X375857D01*
X385896Y180346D02*
Y184283D01*
X383927Y182314D02*
X387864D01*
X378219Y175424D02*
X393573D01*
X378219Y189204D02*
X393573D01*
Y175424D02*
Y189204D01*
X378219Y175424D02*
Y189204D01*
X305187Y121291D02*
X309124D01*
X307156Y119322D02*
Y123259D01*
X314046Y113613D02*
Y128968D01*
X300266Y113613D02*
Y128968D01*
X314046D01*
X300266Y113613D02*
X314046D01*
X271723Y128771D02*
X275660D01*
X273691Y126802D02*
Y130739D01*
X266802Y121094D02*
Y136448D01*
X280581Y121094D02*
Y136448D01*
X266802Y121094D02*
X280581D01*
X266802Y136448D02*
X280581D01*
X407550Y207353D02*
X411487D01*
X409518Y205385D02*
Y209322D01*
X440620Y177590D02*
X444557D01*
X442589Y175621D02*
Y179558D01*
X434715Y168141D02*
Y187039D01*
X450463Y168141D02*
Y187039D01*
X434715Y168141D02*
X450463D01*
X434715Y187039D02*
X450463D01*
X278022Y344519D02*
Y348456D01*
X276054Y346487D02*
X279991D01*
X271723Y340188D02*
X284321D01*
X271723Y352787D02*
X284321D01*
Y340188D02*
Y352787D01*
X271723Y340188D02*
Y352787D01*
X347707Y225621D02*
Y229558D01*
X345739Y227590D02*
X349676D01*
X407480Y145276D02*
Y149213D01*
X405512Y147244D02*
X409449D01*
X315748Y662992D02*
Y666929D01*
X313779Y664961D02*
X317717D01*
X356299Y651181D02*
X360236D01*
X358268Y649213D02*
Y653150D01*
X365158Y643504D02*
Y658858D01*
X351378Y643504D02*
Y658858D01*
X365158D01*
X351378Y643504D02*
X365158D01*
X379528Y586221D02*
Y590158D01*
X377559Y588189D02*
X381496D01*
X417323Y696850D02*
X421260D01*
X419291Y694882D02*
Y698819D01*
X412402Y689173D02*
Y704528D01*
X426181Y689173D02*
Y704528D01*
X412402Y689173D02*
X426181D01*
X412402Y704528D02*
X426181D01*
X315748Y608425D02*
X319685D01*
X317717Y606457D02*
Y610394D01*
X450787Y689370D02*
X454724D01*
X452756Y687402D02*
Y691339D01*
X459646Y681693D02*
Y697047D01*
X445866Y681693D02*
Y697047D01*
X459646D01*
X445866Y681693D02*
X459646D01*
X449213Y467323D02*
Y471260D01*
X447244Y469291D02*
X451181D01*
X442913Y475591D02*
X455512D01*
X442913Y462992D02*
X455512D01*
X442913D02*
Y475591D01*
X455512Y462992D02*
Y475591D01*
X282677Y638189D02*
X286614D01*
X284646Y636221D02*
Y640158D01*
X292520Y628740D02*
Y647638D01*
X276772Y628740D02*
Y647638D01*
X292520D01*
X276772Y628740D02*
X292520D01*
X341339Y631496D02*
Y635433D01*
X339370Y633465D02*
X343307D01*
X333661Y640354D02*
X349016D01*
X333661Y626575D02*
X349016D01*
X333661D02*
Y640354D01*
X349016Y626575D02*
Y640354D01*
X377756Y618110D02*
Y649607D01*
X404921Y618110D02*
Y649607D01*
X377756Y618110D02*
X404921D01*
X377756Y649607D02*
X404921D01*
X322244Y166142D02*
X349410D01*
X322244Y197638D02*
X349410D01*
X322244Y166142D02*
Y197638D01*
X349410Y166142D02*
Y197638D01*
X429528Y663780D02*
Y667717D01*
X427559Y665748D02*
X431496D01*
X412992Y644095D02*
X446063D01*
X412992Y687402D02*
X446063D01*
Y644095D02*
Y687402D01*
X412992Y644095D02*
Y687402D01*
X313455Y130739D02*
Y174047D01*
X280384Y130739D02*
Y174047D01*
Y130739D02*
X313455D01*
X280384Y174047D02*
X313455D01*
X294951Y152393D02*
X298888D01*
X296920Y150424D02*
Y154361D01*
D91*
X424085Y189440D02*
Y225267D01*
X394951Y189440D02*
Y225267D01*
Y189440D02*
X424085D01*
X394951Y225267D02*
X424085D01*
X337274Y212235D02*
X358140D01*
X337274Y242944D02*
X358140D01*
X337274Y212235D02*
Y242944D01*
X358140Y212235D02*
Y242944D01*
X397047Y131890D02*
X417913D01*
X397047Y162598D02*
X417913D01*
X397047Y131890D02*
Y162598D01*
X417913Y131890D02*
Y162598D01*
X305315Y680315D02*
X326181D01*
X305315Y649607D02*
X326181D01*
Y680315D01*
X305315Y649607D02*
Y680315D01*
X369094Y603544D02*
X389961D01*
X369094Y572835D02*
X389961D01*
Y603544D01*
X369094Y572835D02*
Y603544D01*
X303150Y590512D02*
Y626339D01*
X332283Y590512D02*
Y626339D01*
X303150D02*
X332283D01*
X303150Y590512D02*
X332283D01*
D92*
X350857Y206724D02*
D03*
X376378Y609055D02*
D03*
D93*
X344164Y210858D02*
X357550D01*
X344164Y202590D02*
X357550D01*
X344164D02*
Y210858D01*
X357550Y202590D02*
Y210858D01*
X369685Y604921D02*
Y613189D01*
X383071Y604921D02*
Y613189D01*
X369685D02*
X383071D01*
X369685Y604921D02*
X383071D01*
M02*
