G04 Layer_Color=255*
%FSLAX25Y25*%
%MOIN*%
G70*
G01*
G75*
%ADD36R,0.15748X0.15748*%
%ADD37C,0.15748*%
%ADD38C,0.09843*%
%ADD39R,0.05906X0.05906*%
%ADD40C,0.05906*%
%ADD41R,0.05906X0.05906*%
%ADD42R,0.09843X0.09055*%
%ADD43R,0.15748X0.09055*%
D36*
X2338465Y1072638D02*
D03*
Y1221142D02*
D03*
X2489488Y1221063D02*
D03*
X2492756Y1069606D02*
D03*
D37*
X2381772Y1072638D02*
D03*
X2117756Y932874D02*
D03*
X2224055D02*
D03*
X2381772Y1221142D02*
D03*
X2532795Y1221063D02*
D03*
X2536063Y1069606D02*
D03*
X2032126Y946417D02*
D03*
X1882520D02*
D03*
D38*
X2322126Y871417D02*
D03*
X2302441D02*
D03*
X2282756D02*
D03*
X2322126Y898976D02*
D03*
X2302441D02*
D03*
X2282756D02*
D03*
X2321850Y963425D02*
D03*
X2302165D02*
D03*
X2282480D02*
D03*
X2321850Y990984D02*
D03*
X2302165D02*
D03*
X2282480D02*
D03*
X1816024Y982441D02*
D03*
X1835709D02*
D03*
X1855394D02*
D03*
X1816024Y954882D02*
D03*
X1835709D02*
D03*
X1855394D02*
D03*
X1818543Y898976D02*
D03*
X1838228D02*
D03*
X1857913D02*
D03*
X1818543Y871417D02*
D03*
X1838228D02*
D03*
X1857913D02*
D03*
X2072284Y1002165D02*
D03*
X2091969D02*
D03*
X2111654D02*
D03*
X2072284Y974606D02*
D03*
X2091969D02*
D03*
X2111654D02*
D03*
D39*
X1831732Y1282441D02*
D03*
D40*
X1821732D02*
D03*
X1811732D02*
D03*
X1832126Y1261102D02*
D03*
Y1251102D02*
D03*
Y1241102D02*
D03*
Y1231102D02*
D03*
D41*
Y1221102D02*
D03*
D42*
X2171929Y1012756D02*
D03*
X2259567Y1013937D02*
D03*
D43*
X1939992Y1012484D02*
D03*
X2027271D02*
D03*
M02*
