G04*
G04 #@! TF.GenerationSoftware,Altium Limited,Altium Designer,18.0.12 (696)*
G04*
G04 Layer_Color=65535*
%FSLAX23Y23*%
%MOIN*%
G70*
G01*
G75*
%ADD10C,0.010*%
%ADD11C,0.008*%
%ADD12C,0.024*%
%ADD13C,0.002*%
%ADD14C,0.004*%
%ADD15C,0.008*%
%ADD16C,0.005*%
%ADD17C,0.003*%
G36*
X5134Y2633D02*
X5132D01*
Y2498D01*
X5122D01*
Y2501D01*
X5120D01*
Y2505D01*
X5118D01*
Y2512D01*
X5116D01*
Y2519D01*
X5113D01*
Y2523D01*
X5111D01*
Y2530D01*
X5109D01*
Y2535D01*
X5106D01*
Y2542D01*
X5104D01*
Y2546D01*
X5102D01*
Y2553D01*
X5100D01*
Y2558D01*
X5097D01*
Y2562D01*
X5095D01*
Y2567D01*
X5093D01*
Y2574D01*
X5091D01*
Y2578D01*
X5088D01*
Y2585D01*
X5086D01*
Y2590D01*
X5084D01*
Y2596D01*
X5081D01*
Y2601D01*
X5079D01*
Y2606D01*
X5077D01*
Y2612D01*
X5075D01*
Y2617D01*
X5072D01*
Y2619D01*
X5075D01*
Y2621D01*
X5079D01*
Y2624D01*
X5086D01*
Y2626D01*
X5095D01*
Y2628D01*
X5102D01*
Y2631D01*
X5113D01*
Y2633D01*
X5122D01*
Y2635D01*
X5125D01*
Y2633D01*
X5129D01*
Y2635D01*
X5134D01*
Y2633D01*
D02*
G37*
G36*
X5218Y2637D02*
X5225D01*
Y2635D01*
X5227D01*
Y2631D01*
X5230D01*
Y2626D01*
X5232D01*
Y2621D01*
X5230D01*
Y2617D01*
X5227D01*
Y2615D01*
X5225D01*
Y2612D01*
X5223D01*
Y2610D01*
X5218D01*
Y2608D01*
X5214D01*
Y2610D01*
X5209D01*
Y2612D01*
X5207D01*
Y2615D01*
X5204D01*
Y2619D01*
X5202D01*
Y2631D01*
X5204D01*
Y2633D01*
X5207D01*
Y2637D01*
X5214D01*
Y2640D01*
X5218D01*
Y2637D01*
D02*
G37*
G36*
X5236Y2603D02*
X5241D01*
Y2601D01*
X5243D01*
Y2599D01*
X5245D01*
Y2596D01*
X5250D01*
Y2594D01*
X5252D01*
Y2592D01*
X5255D01*
Y2590D01*
X5257D01*
Y2587D01*
X5259D01*
Y2583D01*
X5261D01*
Y2580D01*
X5264D01*
Y2578D01*
X5266D01*
Y2576D01*
X5264D01*
Y2574D01*
X5261D01*
Y2571D01*
X5259D01*
Y2569D01*
X5257D01*
Y2567D01*
X5255D01*
Y2565D01*
X5252D01*
Y2562D01*
X5250D01*
Y2558D01*
X5245D01*
Y2555D01*
X5243D01*
Y2553D01*
X5241D01*
Y2551D01*
X5239D01*
Y2549D01*
X5236D01*
Y2546D01*
X5234D01*
Y2544D01*
X5232D01*
Y2542D01*
X5230D01*
Y2539D01*
X5227D01*
Y2537D01*
X5225D01*
Y2535D01*
X5223D01*
Y2533D01*
X5220D01*
Y2528D01*
X5218D01*
Y2526D01*
X5216D01*
Y2523D01*
X5214D01*
Y2521D01*
X5211D01*
Y2519D01*
X5209D01*
Y2517D01*
X5207D01*
Y2514D01*
X5204D01*
Y2512D01*
X5202D01*
Y2510D01*
X5200D01*
Y2508D01*
X5198D01*
Y2505D01*
X5195D01*
Y2503D01*
X5193D01*
Y2501D01*
X5191D01*
Y2498D01*
X5189D01*
Y2496D01*
X5186D01*
Y2494D01*
X5184D01*
Y2492D01*
X5182D01*
Y2489D01*
X5179D01*
Y2487D01*
X5175D01*
Y2489D01*
X5173D01*
Y2492D01*
X5168D01*
Y2498D01*
X5170D01*
Y2503D01*
X5173D01*
Y2510D01*
X5175D01*
Y2514D01*
X5177D01*
Y2519D01*
X5179D01*
Y2526D01*
X5182D01*
Y2530D01*
X5184D01*
Y2537D01*
X5186D01*
Y2542D01*
X5189D01*
Y2546D01*
X5191D01*
Y2553D01*
X5193D01*
Y2558D01*
X5195D01*
Y2562D01*
X5198D01*
Y2569D01*
X5200D01*
Y2574D01*
X5202D01*
Y2578D01*
X5204D01*
Y2585D01*
X5207D01*
Y2592D01*
X5209D01*
Y2599D01*
X5211D01*
Y2601D01*
X5214D01*
Y2599D01*
X5223D01*
Y2601D01*
X5227D01*
Y2603D01*
X5230D01*
Y2606D01*
X5236D01*
Y2603D01*
D02*
G37*
G36*
X5150Y2633D02*
X5173D01*
Y2631D01*
X5175D01*
Y2633D01*
X5177D01*
Y2631D01*
X5184D01*
Y2628D01*
X5186D01*
Y2631D01*
X5189D01*
Y2628D01*
X5193D01*
Y2626D01*
X5191D01*
Y2617D01*
X5193D01*
Y2612D01*
X5195D01*
Y2610D01*
X5198D01*
Y2608D01*
X5200D01*
Y2606D01*
X5202D01*
Y2601D01*
X5200D01*
Y2596D01*
X5198D01*
Y2592D01*
X5195D01*
Y2585D01*
X5193D01*
Y2580D01*
X5191D01*
Y2576D01*
X5189D01*
Y2569D01*
X5186D01*
Y2565D01*
X5184D01*
Y2558D01*
X5182D01*
Y2553D01*
X5179D01*
Y2549D01*
X5177D01*
Y2544D01*
X5175D01*
Y2537D01*
X5173D01*
Y2533D01*
X5170D01*
Y2526D01*
X5168D01*
Y2521D01*
X5166D01*
Y2514D01*
X5163D01*
Y2510D01*
X5161D01*
Y2505D01*
X5159D01*
Y2498D01*
X5145D01*
Y2635D01*
X5150D01*
Y2633D01*
D02*
G37*
G36*
X5063Y2612D02*
X5065D01*
Y2606D01*
X5068D01*
Y2599D01*
X5070D01*
Y2594D01*
X5072D01*
Y2587D01*
X5075D01*
Y2583D01*
X5077D01*
Y2576D01*
X5079D01*
Y2571D01*
X5081D01*
Y2565D01*
X5084D01*
Y2560D01*
X5086D01*
Y2553D01*
X5088D01*
Y2549D01*
X5091D01*
Y2544D01*
X5093D01*
Y2537D01*
X5095D01*
Y2533D01*
X5097D01*
Y2526D01*
X5100D01*
Y2521D01*
X5102D01*
Y2514D01*
X5104D01*
Y2510D01*
X5106D01*
Y2505D01*
X5109D01*
Y2498D01*
X5111D01*
Y2492D01*
X5106D01*
Y2487D01*
X5100D01*
Y2489D01*
X5097D01*
Y2492D01*
X5095D01*
Y2494D01*
X5093D01*
Y2496D01*
X5091D01*
Y2498D01*
X5088D01*
Y2501D01*
X5086D01*
Y2503D01*
X5084D01*
Y2505D01*
X5081D01*
Y2508D01*
X5079D01*
Y2510D01*
X5077D01*
Y2512D01*
X5075D01*
Y2514D01*
X5072D01*
Y2517D01*
X5070D01*
Y2519D01*
X5068D01*
Y2521D01*
X5065D01*
Y2523D01*
X5063D01*
Y2526D01*
X5061D01*
Y2528D01*
X5059D01*
Y2530D01*
X5056D01*
Y2533D01*
X5054D01*
Y2535D01*
X5052D01*
Y2537D01*
X5050D01*
Y2539D01*
X5047D01*
Y2542D01*
X5045D01*
Y2544D01*
X5043D01*
Y2546D01*
X5040D01*
Y2549D01*
X5038D01*
Y2551D01*
X5036D01*
Y2553D01*
X5034D01*
Y2555D01*
X5031D01*
Y2558D01*
X5029D01*
Y2560D01*
X5027D01*
Y2562D01*
X5024D01*
Y2565D01*
X5022D01*
Y2567D01*
X5020D01*
Y2569D01*
X5018D01*
Y2571D01*
X5015D01*
Y2574D01*
X5013D01*
Y2576D01*
X5015D01*
Y2578D01*
X5018D01*
Y2583D01*
X5020D01*
Y2585D01*
X5022D01*
Y2587D01*
X5024D01*
Y2590D01*
X5029D01*
Y2592D01*
X5031D01*
Y2594D01*
X5034D01*
Y2596D01*
X5036D01*
Y2599D01*
X5040D01*
Y2601D01*
X5045D01*
Y2603D01*
X5050D01*
Y2606D01*
X5052D01*
Y2608D01*
X5056D01*
Y2610D01*
X5059D01*
Y2612D01*
X5061D01*
Y2615D01*
X5063D01*
Y2612D01*
D02*
G37*
G36*
X5273Y2565D02*
X5275D01*
Y2562D01*
X5277D01*
Y2558D01*
X5280D01*
Y2555D01*
X5282D01*
Y2551D01*
X5284D01*
Y2549D01*
X5287D01*
Y2544D01*
X5289D01*
Y2539D01*
X5291D01*
Y2533D01*
X5293D01*
Y2528D01*
X5296D01*
Y2521D01*
X5298D01*
Y2517D01*
X5300D01*
Y2512D01*
X5296D01*
Y2510D01*
X5289D01*
Y2508D01*
X5284D01*
Y2505D01*
X5277D01*
Y2503D01*
X5273D01*
Y2501D01*
X5268D01*
Y2498D01*
X5261D01*
Y2496D01*
X5257D01*
Y2494D01*
X5252D01*
Y2492D01*
X5248D01*
Y2489D01*
X5241D01*
Y2487D01*
X5236D01*
Y2485D01*
X5230D01*
Y2482D01*
X5225D01*
Y2480D01*
X5220D01*
Y2478D01*
X5214D01*
Y2476D01*
X5209D01*
Y2473D01*
X5204D01*
Y2471D01*
X5195D01*
Y2469D01*
X5191D01*
Y2471D01*
X5189D01*
Y2476D01*
X5186D01*
Y2478D01*
X5184D01*
Y2480D01*
X5186D01*
Y2482D01*
X5189D01*
Y2485D01*
X5191D01*
Y2487D01*
X5193D01*
Y2489D01*
X5195D01*
Y2492D01*
X5198D01*
Y2494D01*
X5200D01*
Y2496D01*
X5202D01*
Y2498D01*
X5204D01*
Y2501D01*
X5207D01*
Y2503D01*
X5209D01*
Y2505D01*
X5211D01*
Y2508D01*
X5214D01*
Y2510D01*
X5216D01*
Y2512D01*
X5218D01*
Y2514D01*
X5220D01*
Y2517D01*
X5223D01*
Y2519D01*
X5225D01*
Y2521D01*
X5227D01*
Y2523D01*
X5230D01*
Y2526D01*
X5232D01*
Y2528D01*
X5234D01*
Y2530D01*
X5236D01*
Y2533D01*
X5239D01*
Y2535D01*
X5241D01*
Y2537D01*
X5243D01*
Y2539D01*
X5245D01*
Y2542D01*
X5248D01*
Y2544D01*
X5250D01*
Y2546D01*
X5252D01*
Y2549D01*
X5255D01*
Y2551D01*
X5257D01*
Y2553D01*
X5259D01*
Y2555D01*
X5261D01*
Y2558D01*
X5264D01*
Y2560D01*
X5266D01*
Y2562D01*
X5268D01*
Y2565D01*
X5271D01*
Y2567D01*
X5273D01*
Y2565D01*
D02*
G37*
G36*
X5008D02*
X5011D01*
Y2562D01*
X5013D01*
Y2560D01*
X5015D01*
Y2558D01*
X5018D01*
Y2555D01*
X5020D01*
Y2553D01*
X5022D01*
Y2551D01*
X5024D01*
Y2549D01*
X5027D01*
Y2546D01*
X5029D01*
Y2544D01*
X5031D01*
Y2542D01*
X5034D01*
Y2539D01*
X5036D01*
Y2537D01*
X5038D01*
Y2535D01*
X5040D01*
Y2533D01*
X5043D01*
Y2530D01*
X5045D01*
Y2528D01*
X5047D01*
Y2526D01*
X5050D01*
Y2523D01*
X5052D01*
Y2521D01*
X5054D01*
Y2519D01*
X5056D01*
Y2517D01*
X5059D01*
Y2514D01*
X5061D01*
Y2512D01*
X5063D01*
Y2510D01*
X5065D01*
Y2508D01*
X5068D01*
Y2505D01*
X5070D01*
Y2503D01*
X5072D01*
Y2501D01*
X5075D01*
Y2498D01*
X5077D01*
Y2496D01*
X5079D01*
Y2494D01*
X5081D01*
Y2492D01*
X5084D01*
Y2489D01*
X5086D01*
Y2487D01*
X5088D01*
Y2485D01*
X5091D01*
Y2482D01*
X5093D01*
Y2480D01*
X5095D01*
Y2478D01*
X5093D01*
Y2476D01*
X5091D01*
Y2471D01*
X5088D01*
Y2469D01*
X5086D01*
Y2471D01*
X5079D01*
Y2473D01*
X5072D01*
Y2476D01*
X5070D01*
Y2478D01*
X5063D01*
Y2480D01*
X5059D01*
Y2482D01*
X5052D01*
Y2485D01*
X5047D01*
Y2487D01*
X5043D01*
Y2489D01*
X5036D01*
Y2492D01*
X5031D01*
Y2494D01*
X5027D01*
Y2496D01*
X5022D01*
Y2498D01*
X5018D01*
Y2501D01*
X5011D01*
Y2503D01*
X5006D01*
Y2505D01*
X4999D01*
Y2508D01*
X4995D01*
Y2510D01*
X4990D01*
Y2512D01*
X4983D01*
Y2514D01*
X4979D01*
Y2523D01*
X4981D01*
Y2530D01*
X4983D01*
Y2535D01*
X4986D01*
Y2539D01*
X4988D01*
Y2544D01*
X4990D01*
Y2549D01*
X4993D01*
Y2551D01*
X4995D01*
Y2555D01*
X4997D01*
Y2558D01*
X4999D01*
Y2560D01*
X5002D01*
Y2562D01*
X5004D01*
Y2567D01*
X5008D01*
Y2565D01*
D02*
G37*
G36*
X5305Y2501D02*
X5307D01*
Y2492D01*
X5309D01*
Y2487D01*
X5312D01*
Y2482D01*
X5314D01*
Y2478D01*
X5316D01*
Y2469D01*
X5318D01*
Y2460D01*
X5316D01*
Y2457D01*
X5314D01*
Y2455D01*
X5312D01*
Y2451D01*
X5309D01*
Y2448D01*
X5200D01*
Y2446D01*
X5198D01*
Y2455D01*
X5195D01*
Y2457D01*
X5198D01*
Y2460D01*
X5202D01*
Y2462D01*
X5207D01*
Y2464D01*
X5211D01*
Y2467D01*
X5218D01*
Y2469D01*
X5225D01*
Y2471D01*
X5232D01*
Y2473D01*
X5236D01*
Y2476D01*
X5241D01*
Y2478D01*
X5248D01*
Y2480D01*
X5252D01*
Y2482D01*
X5257D01*
Y2485D01*
X5264D01*
Y2487D01*
X5268D01*
Y2489D01*
X5273D01*
Y2492D01*
X5280D01*
Y2494D01*
X5284D01*
Y2496D01*
X5291D01*
Y2498D01*
X5296D01*
Y2501D01*
X5300D01*
Y2503D01*
X5305D01*
Y2501D01*
D02*
G37*
G36*
X4977Y2503D02*
X4981D01*
Y2501D01*
X4986D01*
Y2498D01*
X4993D01*
Y2496D01*
X4997D01*
Y2494D01*
X5002D01*
Y2492D01*
X5008D01*
Y2489D01*
X5013D01*
Y2487D01*
X5018D01*
Y2485D01*
X5024D01*
Y2482D01*
X5029D01*
Y2480D01*
X5034D01*
Y2478D01*
X5038D01*
Y2476D01*
X5045D01*
Y2473D01*
X5050D01*
Y2471D01*
X5054D01*
Y2469D01*
X5063D01*
Y2467D01*
X5068D01*
Y2464D01*
X5072D01*
Y2462D01*
X5077D01*
Y2460D01*
X5081D01*
Y2457D01*
X5084D01*
Y2455D01*
X5081D01*
Y2451D01*
X5079D01*
Y2446D01*
X5077D01*
Y2448D01*
X4979D01*
Y2446D01*
X4977D01*
Y2451D01*
X4974D01*
Y2453D01*
X4977D01*
Y2457D01*
X4974D01*
Y2480D01*
X4972D01*
Y2485D01*
X4974D01*
Y2505D01*
X4977D01*
Y2503D01*
D02*
G37*
G36*
X5307Y2435D02*
X5309D01*
Y2430D01*
X5312D01*
Y2425D01*
X5314D01*
Y2423D01*
X5312D01*
Y2421D01*
X5309D01*
Y2419D01*
X5307D01*
Y2416D01*
X5305D01*
Y2414D01*
X5302D01*
Y2412D01*
X5300D01*
Y2410D01*
X5298D01*
Y2407D01*
X5296D01*
Y2405D01*
X5293D01*
Y2403D01*
X5291D01*
Y2400D01*
X5287D01*
Y2398D01*
X5284D01*
Y2396D01*
X5280D01*
Y2394D01*
X5277D01*
Y2391D01*
X5275D01*
Y2389D01*
X5271D01*
Y2387D01*
X5268D01*
Y2384D01*
X5264D01*
Y2382D01*
X5259D01*
Y2380D01*
X5257D01*
Y2378D01*
X5255D01*
Y2375D01*
X5250D01*
Y2373D01*
X5248D01*
Y2371D01*
X5243D01*
Y2369D01*
X5239D01*
Y2366D01*
X5236D01*
Y2364D01*
X5232D01*
Y2362D01*
X5225D01*
Y2364D01*
X5223D01*
Y2366D01*
X5220D01*
Y2369D01*
X5218D01*
Y2371D01*
X5216D01*
Y2373D01*
X5214D01*
Y2375D01*
X5211D01*
Y2378D01*
X5209D01*
Y2382D01*
X5207D01*
Y2384D01*
X5202D01*
Y2387D01*
X5200D01*
Y2389D01*
X5198D01*
Y2391D01*
X5195D01*
Y2394D01*
X5193D01*
Y2396D01*
X5191D01*
Y2398D01*
X5189D01*
Y2400D01*
X5186D01*
Y2403D01*
X5184D01*
Y2405D01*
X5186D01*
Y2407D01*
X5189D01*
Y2412D01*
X5191D01*
Y2414D01*
X5193D01*
Y2419D01*
X5195D01*
Y2428D01*
X5198D01*
Y2437D01*
X5200D01*
Y2435D01*
X5305D01*
Y2437D01*
X5307D01*
Y2435D01*
D02*
G37*
G36*
X5341Y2455D02*
X5346D01*
Y2451D01*
X5348D01*
Y2446D01*
X5350D01*
Y2441D01*
X5348D01*
Y2435D01*
X5346D01*
Y2432D01*
X5341D01*
Y2430D01*
X5339D01*
Y2428D01*
X5337D01*
Y2430D01*
X5330D01*
Y2432D01*
X5325D01*
Y2437D01*
X5323D01*
Y2441D01*
X5321D01*
Y2446D01*
X5323D01*
Y2451D01*
X5325D01*
Y2453D01*
X5328D01*
Y2455D01*
X5330D01*
Y2457D01*
X5341D01*
Y2455D01*
D02*
G37*
G36*
X5079Y2432D02*
X5081D01*
Y2425D01*
X5079D01*
Y2423D01*
X5075D01*
Y2421D01*
X5070D01*
Y2419D01*
X5065D01*
Y2416D01*
X5059D01*
Y2414D01*
X5054D01*
Y2412D01*
X5050D01*
Y2410D01*
X5043D01*
Y2407D01*
X5038D01*
Y2405D01*
X5034D01*
Y2403D01*
X5027D01*
Y2400D01*
X5022D01*
Y2398D01*
X5018D01*
Y2396D01*
X5013D01*
Y2394D01*
X5006D01*
Y2391D01*
X5002D01*
Y2394D01*
X4999D01*
Y2398D01*
X4997D01*
Y2400D01*
X4995D01*
Y2405D01*
X4993D01*
Y2410D01*
X4990D01*
Y2414D01*
X4988D01*
Y2419D01*
X4986D01*
Y2423D01*
X4983D01*
Y2428D01*
X4981D01*
Y2432D01*
X4979D01*
Y2435D01*
X5077D01*
Y2437D01*
X5079D01*
Y2432D01*
D02*
G37*
G36*
X5088Y2410D02*
X5091D01*
Y2407D01*
X5093D01*
Y2405D01*
X5095D01*
Y2403D01*
X5093D01*
Y2400D01*
X5091D01*
Y2398D01*
X5088D01*
Y2396D01*
X5086D01*
Y2394D01*
X5084D01*
Y2391D01*
X5081D01*
Y2389D01*
X5079D01*
Y2387D01*
X5077D01*
Y2384D01*
X5075D01*
Y2382D01*
X5072D01*
Y2380D01*
X5070D01*
Y2378D01*
X5068D01*
Y2375D01*
X5065D01*
Y2373D01*
X5063D01*
Y2371D01*
X5061D01*
Y2369D01*
X5059D01*
Y2366D01*
X5056D01*
Y2364D01*
X5054D01*
Y2362D01*
X5052D01*
Y2359D01*
X5050D01*
Y2357D01*
X5047D01*
Y2355D01*
X5043D01*
Y2357D01*
X5040D01*
Y2359D01*
X5036D01*
Y2362D01*
X5034D01*
Y2364D01*
X5031D01*
Y2366D01*
X5027D01*
Y2369D01*
X5024D01*
Y2371D01*
X5022D01*
Y2373D01*
X5020D01*
Y2375D01*
X5018D01*
Y2378D01*
X5013D01*
Y2380D01*
X5011D01*
Y2382D01*
X5015D01*
Y2384D01*
X5020D01*
Y2387D01*
X5024D01*
Y2389D01*
X5029D01*
Y2391D01*
X5036D01*
Y2394D01*
X5040D01*
Y2396D01*
X5045D01*
Y2398D01*
X5052D01*
Y2400D01*
X5056D01*
Y2403D01*
X5063D01*
Y2405D01*
X5068D01*
Y2407D01*
X5072D01*
Y2410D01*
X5077D01*
Y2412D01*
X5084D01*
Y2414D01*
X5088D01*
Y2410D01*
D02*
G37*
G36*
X5177Y2394D02*
X5179D01*
Y2391D01*
X5182D01*
Y2389D01*
X5184D01*
Y2387D01*
X5186D01*
Y2384D01*
X5189D01*
Y2382D01*
X5193D01*
Y2380D01*
X5195D01*
Y2378D01*
X5198D01*
Y2375D01*
X5200D01*
Y2373D01*
X5202D01*
Y2371D01*
X5204D01*
Y2369D01*
X5207D01*
Y2366D01*
X5209D01*
Y2364D01*
X5211D01*
Y2362D01*
X5214D01*
Y2359D01*
X5216D01*
Y2355D01*
X5214D01*
Y2353D01*
X5209D01*
Y2350D01*
X5207D01*
Y2348D01*
X5202D01*
Y2350D01*
X5200D01*
Y2353D01*
X5198D01*
Y2355D01*
X5195D01*
Y2357D01*
X5189D01*
Y2359D01*
X5179D01*
Y2362D01*
X5177D01*
Y2366D01*
X5175D01*
Y2371D01*
X5173D01*
Y2378D01*
X5170D01*
Y2382D01*
X5168D01*
Y2387D01*
X5166D01*
Y2389D01*
X5168D01*
Y2391D01*
X5173D01*
Y2394D01*
X5175D01*
Y2396D01*
X5177D01*
Y2394D01*
D02*
G37*
G36*
X5104D02*
X5106D01*
Y2391D01*
X5111D01*
Y2389D01*
X5116D01*
Y2387D01*
X5120D01*
Y2384D01*
X5129D01*
Y2382D01*
X5148D01*
Y2384D01*
X5157D01*
Y2382D01*
X5159D01*
Y2375D01*
X5161D01*
Y2371D01*
X5163D01*
Y2364D01*
X5166D01*
Y2359D01*
X5168D01*
Y2353D01*
X5163D01*
Y2348D01*
X5161D01*
Y2346D01*
X5159D01*
Y2332D01*
X5150D01*
Y2330D01*
X5148D01*
Y2332D01*
X5138D01*
Y2330D01*
X5125D01*
Y2332D01*
X5116D01*
Y2330D01*
X5113D01*
Y2332D01*
X5102D01*
Y2334D01*
X5093D01*
Y2337D01*
X5084D01*
Y2339D01*
X5075D01*
Y2341D01*
X5070D01*
Y2343D01*
X5063D01*
Y2346D01*
X5059D01*
Y2348D01*
X5056D01*
Y2350D01*
X5059D01*
Y2353D01*
X5061D01*
Y2355D01*
X5063D01*
Y2357D01*
X5065D01*
Y2359D01*
X5068D01*
Y2362D01*
X5070D01*
Y2364D01*
X5072D01*
Y2366D01*
X5075D01*
Y2369D01*
X5077D01*
Y2371D01*
X5079D01*
Y2375D01*
X5081D01*
Y2378D01*
X5084D01*
Y2380D01*
X5086D01*
Y2382D01*
X5091D01*
Y2384D01*
X5093D01*
Y2387D01*
X5095D01*
Y2389D01*
X5097D01*
Y2391D01*
X5100D01*
Y2394D01*
X5102D01*
Y2396D01*
X5104D01*
Y2394D01*
D02*
G37*
G36*
X5189Y2346D02*
X5191D01*
Y2343D01*
X5193D01*
Y2341D01*
X5195D01*
Y2337D01*
X5198D01*
Y2332D01*
X5195D01*
Y2328D01*
X5193D01*
Y2325D01*
X5191D01*
Y2323D01*
X5189D01*
Y2321D01*
X5177D01*
Y2323D01*
X5173D01*
Y2325D01*
X5170D01*
Y2328D01*
X5168D01*
Y2341D01*
X5170D01*
Y2343D01*
X5173D01*
Y2346D01*
X5177D01*
Y2348D01*
X5189D01*
Y2346D01*
D02*
G37*
G36*
X5287Y2214D02*
X5284D01*
Y2216D01*
X5280D01*
Y2214D01*
X5277D01*
Y2232D01*
X5273D01*
Y2230D01*
X5271D01*
Y2225D01*
X5268D01*
Y2223D01*
X5266D01*
Y2218D01*
X5264D01*
Y2216D01*
X5252D01*
Y2214D01*
X5250D01*
Y2216D01*
X5248D01*
Y2220D01*
X5245D01*
Y2223D01*
X5243D01*
Y2227D01*
X5241D01*
Y2230D01*
X5239D01*
Y2234D01*
X5234D01*
Y2214D01*
X5232D01*
Y2216D01*
X5227D01*
Y2214D01*
X5225D01*
Y2255D01*
X5227D01*
Y2252D01*
X5236D01*
Y2250D01*
X5239D01*
Y2248D01*
X5241D01*
Y2243D01*
X5243D01*
Y2241D01*
X5245D01*
Y2236D01*
X5248D01*
Y2234D01*
X5250D01*
Y2230D01*
X5252D01*
Y2225D01*
X5255D01*
Y2223D01*
X5259D01*
Y2227D01*
X5261D01*
Y2232D01*
X5264D01*
Y2236D01*
X5266D01*
Y2239D01*
X5268D01*
Y2243D01*
X5271D01*
Y2248D01*
X5273D01*
Y2252D01*
X5275D01*
Y2255D01*
X5277D01*
Y2252D01*
X5284D01*
Y2255D01*
X5287D01*
Y2214D01*
D02*
G37*
G36*
X5150Y2252D02*
X5154D01*
Y2250D01*
X5157D01*
Y2239D01*
X5154D01*
Y2241D01*
X5148D01*
Y2243D01*
X5143D01*
Y2245D01*
X5129D01*
Y2243D01*
X5127D01*
Y2241D01*
X5125D01*
Y2225D01*
X5127D01*
Y2223D01*
X5132D01*
Y2220D01*
X5141D01*
Y2223D01*
X5145D01*
Y2225D01*
X5148D01*
Y2227D01*
X5159D01*
Y2225D01*
X5157D01*
Y2218D01*
X5154D01*
Y2216D01*
X5152D01*
Y2214D01*
X5150D01*
Y2216D01*
X5125D01*
Y2214D01*
X5122D01*
Y2216D01*
X5118D01*
Y2220D01*
X5116D01*
Y2245D01*
X5118D01*
Y2250D01*
X5120D01*
Y2252D01*
X5125D01*
Y2255D01*
X5127D01*
Y2252D01*
X5148D01*
Y2255D01*
X5150D01*
Y2252D01*
D02*
G37*
G36*
X5104Y2214D02*
X5102D01*
Y2216D01*
X5097D01*
Y2214D01*
X5095D01*
Y2255D01*
X5097D01*
Y2252D01*
X5102D01*
Y2255D01*
X5104D01*
Y2214D01*
D02*
G37*
G36*
X4986Y2223D02*
X4990D01*
Y2220D01*
X5008D01*
Y2223D01*
X5013D01*
Y2225D01*
X5015D01*
Y2250D01*
X5013D01*
Y2252D01*
X5024D01*
Y2223D01*
X5022D01*
Y2216D01*
X4983D01*
Y2214D01*
X4981D01*
Y2216D01*
X4979D01*
Y2220D01*
X4977D01*
Y2255D01*
X4979D01*
Y2252D01*
X4983D01*
Y2255D01*
X4986D01*
Y2223D01*
D02*
G37*
G36*
X5084Y2250D02*
X5081D01*
Y2214D01*
X5079D01*
Y2216D01*
X5070D01*
Y2214D01*
X5068D01*
Y2216D01*
X5065D01*
Y2218D01*
X5063D01*
Y2220D01*
X5061D01*
Y2223D01*
X5059D01*
Y2225D01*
X5056D01*
Y2227D01*
X5054D01*
Y2230D01*
X5052D01*
Y2234D01*
X5050D01*
Y2236D01*
X5047D01*
Y2239D01*
X5043D01*
Y2214D01*
X5040D01*
Y2216D01*
X5036D01*
Y2214D01*
X5034D01*
Y2252D01*
X5052D01*
Y2248D01*
X5054D01*
Y2245D01*
X5056D01*
Y2243D01*
X5059D01*
Y2241D01*
X5061D01*
Y2239D01*
X5063D01*
Y2234D01*
X5065D01*
Y2232D01*
X5068D01*
Y2227D01*
X5072D01*
Y2252D01*
X5084D01*
Y2250D01*
D02*
G37*
G36*
X5300Y2252D02*
X5334D01*
Y2250D01*
X5339D01*
Y2232D01*
X5341D01*
Y2230D01*
X5339D01*
Y2225D01*
X5334D01*
Y2223D01*
X5307D01*
Y2214D01*
X5305D01*
Y2216D01*
X5300D01*
Y2214D01*
X5298D01*
Y2255D01*
X5300D01*
Y2252D01*
D02*
G37*
G36*
X5200Y2248D02*
X5202D01*
Y2243D01*
X5204D01*
Y2234D01*
X5207D01*
Y2230D01*
X5209D01*
Y2225D01*
X5211D01*
Y2218D01*
X5214D01*
Y2214D01*
X5211D01*
Y2216D01*
X5207D01*
Y2214D01*
X5204D01*
Y2218D01*
X5202D01*
Y2220D01*
X5179D01*
Y2218D01*
X5177D01*
Y2216D01*
X5168D01*
Y2223D01*
X5170D01*
Y2227D01*
X5173D01*
Y2234D01*
X5175D01*
Y2239D01*
X5177D01*
Y2243D01*
X5179D01*
Y2250D01*
X5182D01*
Y2252D01*
X5200D01*
Y2248D01*
D02*
G37*
G36*
X1289Y2104D02*
X1289Y2103D01*
X1290Y2102D01*
Y2101D01*
Y2100D01*
X1289Y2099D01*
X1289Y2098D01*
X1287Y2098D01*
X1286D01*
X1285Y2098D01*
X1284Y2099D01*
X1284Y2100D01*
Y2101D01*
Y2102D01*
X1284Y2103D01*
X1285Y2104D01*
X1286Y2104D01*
X1287D01*
X1289Y2104D01*
D02*
G37*
G36*
X2956Y2095D02*
X2957Y2094D01*
X2957Y2093D01*
Y2092D01*
Y2092D01*
X2957Y2091D01*
X2956Y2090D01*
X2955Y2089D01*
X2954D01*
X2953Y2090D01*
X2952Y2091D01*
X2951Y2092D01*
Y2092D01*
Y2093D01*
X2952Y2094D01*
X2953Y2095D01*
X2954Y2095D01*
X2955D01*
X2956Y2095D01*
D02*
G37*
G36*
X2449Y2084D02*
X2449Y2083D01*
X2450Y2082D01*
Y2081D01*
Y2080D01*
X2449Y2079D01*
X2449Y2078D01*
X2447Y2078D01*
X2446D01*
X2445Y2078D01*
X2444Y2079D01*
X2444Y2080D01*
Y2081D01*
Y2082D01*
X2444Y2083D01*
X2445Y2084D01*
X2446Y2084D01*
X2447D01*
X2449Y2084D01*
D02*
G37*
G36*
X1289Y2080D02*
X1289Y2079D01*
X1290Y2078D01*
Y2077D01*
Y2077D01*
X1289Y2076D01*
X1289Y2075D01*
X1287Y2074D01*
X1286D01*
X1285Y2075D01*
X1284Y2076D01*
X1284Y2077D01*
Y2077D01*
Y2078D01*
X1284Y2079D01*
X1285Y2080D01*
X1286Y2081D01*
X1287D01*
X1289Y2080D01*
D02*
G37*
G36*
X4116Y2075D02*
X4117Y2074D01*
X4117Y2073D01*
Y2072D01*
Y2072D01*
X4117Y2071D01*
X4116Y2070D01*
X4115Y2069D01*
X4114D01*
X4113Y2070D01*
X4112Y2071D01*
X4111Y2072D01*
Y2072D01*
Y2073D01*
X4112Y2074D01*
X4113Y2075D01*
X4114Y2075D01*
X4115D01*
X4116Y2075D01*
D02*
G37*
G36*
X3023Y2061D02*
X3024Y2060D01*
X3024Y2059D01*
Y2058D01*
Y2058D01*
X3024Y2057D01*
X3023Y2056D01*
X3022Y2055D01*
X3021D01*
X3019Y2056D01*
X3019Y2057D01*
X3018Y2058D01*
Y2058D01*
Y2059D01*
X3019Y2060D01*
X3019Y2061D01*
X3021Y2062D01*
X3022D01*
X3023Y2061D01*
D02*
G37*
G36*
X2449Y2060D02*
X2449Y2059D01*
X2450Y2058D01*
Y2057D01*
Y2057D01*
X2449Y2056D01*
X2449Y2055D01*
X2447Y2054D01*
X2446D01*
X2445Y2055D01*
X2444Y2056D01*
X2444Y2057D01*
Y2057D01*
Y2058D01*
X2444Y2059D01*
X2445Y2060D01*
X2446Y2061D01*
X2447D01*
X2449Y2060D01*
D02*
G37*
G36*
X1355Y2046D02*
X1356Y2045D01*
X1357Y2044D01*
Y2044D01*
Y2043D01*
X1356Y2042D01*
X1355Y2041D01*
X1354Y2040D01*
X1353D01*
X1352Y2041D01*
X1351Y2042D01*
X1351Y2043D01*
Y2044D01*
Y2044D01*
X1351Y2045D01*
X1352Y2046D01*
X1353Y2047D01*
X1354D01*
X1355Y2046D01*
D02*
G37*
G36*
X4183Y2041D02*
X4184Y2040D01*
X4184Y2039D01*
Y2038D01*
Y2038D01*
X4184Y2037D01*
X4183Y2036D01*
X4182Y2035D01*
X4181D01*
X4179Y2036D01*
X4179Y2037D01*
X4178Y2038D01*
Y2038D01*
Y2039D01*
X4179Y2040D01*
X4179Y2041D01*
X4181Y2042D01*
X4182D01*
X4183Y2041D01*
D02*
G37*
G36*
X3023Y2038D02*
X3024Y2037D01*
X3024Y2035D01*
Y2035D01*
Y2034D01*
X3024Y2033D01*
X3023Y2032D01*
X3022Y2032D01*
X3021D01*
X3019Y2032D01*
X3019Y2033D01*
X3018Y2034D01*
Y2035D01*
Y2035D01*
X3019Y2037D01*
X3019Y2038D01*
X3021Y2038D01*
X3022D01*
X3023Y2038D01*
D02*
G37*
G36*
X2515Y2026D02*
X2516Y2025D01*
X2517Y2024D01*
Y2024D01*
Y2023D01*
X2516Y2022D01*
X2515Y2021D01*
X2514Y2020D01*
X2513D01*
X2512Y2021D01*
X2511Y2022D01*
X2511Y2023D01*
Y2024D01*
Y2024D01*
X2511Y2025D01*
X2512Y2026D01*
X2513Y2027D01*
X2514D01*
X2515Y2026D01*
D02*
G37*
G36*
X4183Y2018D02*
X4184Y2017D01*
X4184Y2015D01*
Y2015D01*
Y2014D01*
X4184Y2013D01*
X4183Y2012D01*
X4182Y2012D01*
X4181D01*
X4179Y2012D01*
X4179Y2013D01*
X4178Y2014D01*
Y2015D01*
Y2015D01*
X4179Y2017D01*
X4179Y2018D01*
X4181Y2018D01*
X4182D01*
X4183Y2018D01*
D02*
G37*
%LPC*%
G36*
X5325Y2245D02*
X5309D01*
Y2243D01*
X5307D01*
Y2241D01*
Y2239D01*
Y2236D01*
Y2234D01*
X5309D01*
Y2232D01*
X5325D01*
Y2234D01*
X5330D01*
Y2236D01*
X5332D01*
Y2239D01*
X5330D01*
Y2241D01*
Y2243D01*
X5325D01*
Y2245D01*
D02*
G37*
G36*
X5191D02*
X5189D01*
Y2243D01*
Y2241D01*
X5186D01*
Y2239D01*
Y2236D01*
Y2234D01*
X5184D01*
Y2232D01*
Y2230D01*
Y2227D01*
X5198D01*
Y2230D01*
Y2232D01*
X5195D01*
Y2234D01*
Y2236D01*
Y2239D01*
X5193D01*
Y2241D01*
Y2243D01*
X5191D01*
Y2245D01*
D02*
G37*
%LPD*%
D10*
X1684Y1248D02*
G03*
X1684Y1248I-5J0D01*
G01*
X3817Y1257D02*
G03*
X3817Y1257I-5J0D01*
G01*
X2461Y611D02*
G03*
X2461Y611I-5J0D01*
G01*
X3051Y491D02*
G03*
X3051Y491I-5J0D01*
G01*
X1853Y1571D02*
G03*
X1853Y1571I-5J0D01*
G01*
X1076Y512D02*
G03*
X1076Y512I-5J0D01*
G01*
X445Y747D02*
G03*
X445Y747I-5J0D01*
G01*
X947Y1132D02*
G03*
X947Y1132I-5J0D01*
G01*
X4474Y987D02*
G03*
X4474Y987I-5J0D01*
G01*
X4532Y1575D02*
G03*
X4532Y1575I-5J0D01*
G01*
X4954Y667D02*
G03*
X4954Y667I-5J0D01*
G01*
X4227Y391D02*
G03*
X4227Y391I-5J0D01*
G01*
X4467Y656D02*
G03*
X4467Y656I-5J0D01*
G01*
X641Y1532D02*
G03*
X641Y1532I-5J0D01*
G01*
X955Y624D02*
G03*
X955Y624I-5J0D01*
G01*
X3790Y1102D02*
G03*
X3790Y1102I-5J0D01*
G01*
X1853Y1083D02*
G03*
X1853Y1083I-5J0D01*
G01*
X885Y2166D02*
G03*
X885Y2166I-5J0D01*
G01*
X4386Y2137D02*
G03*
X4386Y2137I-5J0D01*
G01*
X3488Y1621D02*
G03*
X3488Y1621I-5J0D01*
G01*
X2847Y1272D02*
G03*
X2847Y1272I-5J0D01*
G01*
X2846Y807D02*
G03*
X2846Y807I-5J0D01*
G01*
D11*
X1758Y1583D02*
G03*
X1725Y1583I-17J3D01*
G01*
X3773Y1013D02*
G03*
X3773Y979I-3J-17D01*
G01*
X1836Y994D02*
G03*
X1836Y960I-3J-17D01*
G01*
X3572Y1609D02*
G03*
X3606Y1609I17J-3D01*
G01*
X1733Y1150D02*
Y1236D01*
X1710Y1150D02*
Y1236D01*
Y1150D02*
X1733D01*
X1710Y1236D02*
X1733D01*
X3714Y1203D02*
X3800D01*
X3714Y1226D02*
X3800D01*
X3714Y1203D02*
Y1226D01*
X3800Y1203D02*
Y1226D01*
X2391Y717D02*
Y743D01*
X2423D01*
X2391Y628D02*
Y654D01*
Y628D02*
X2423D01*
X2832Y406D02*
Y606D01*
Y406D02*
X2932D01*
Y606D01*
X2832D02*
X2932D01*
X2981Y597D02*
Y623D01*
X3013D01*
X2981Y508D02*
Y534D01*
Y508D02*
X3013D01*
X1681Y1583D02*
X1725D01*
X1758D02*
X1803D01*
Y1776D01*
X1681Y1583D02*
Y1776D01*
X1803D01*
X1136Y380D02*
Y406D01*
X1104Y380D02*
X1136D01*
Y469D02*
Y494D01*
X1104D02*
X1136D01*
X505Y615D02*
Y641D01*
X473Y615D02*
X505D01*
Y704D02*
Y730D01*
X473D02*
X505D01*
X1007Y1000D02*
Y1026D01*
X975Y1000D02*
X1007D01*
Y1089D02*
Y1115D01*
X975D02*
X1007D01*
X4404Y1093D02*
Y1119D01*
X4436D01*
X4404Y1004D02*
Y1030D01*
Y1004D02*
X4436D01*
X4572Y1219D02*
Y1565D01*
X4698Y1219D02*
Y1565D01*
X4572Y1219D02*
X4698D01*
X4572Y1565D02*
X4698D01*
X4884Y684D02*
X4916D01*
X4884D02*
Y710D01*
Y799D02*
X4916D01*
X4884Y773D02*
Y799D01*
X4157Y498D02*
Y524D01*
X4189D01*
X4157Y409D02*
Y435D01*
Y409D02*
X4189D01*
X4330Y591D02*
X4356D01*
X4330D02*
Y623D01*
X4419Y591D02*
X4445D01*
Y623D01*
X680Y1522D02*
X806D01*
X680Y1175D02*
X806D01*
Y1522D01*
X680Y1175D02*
Y1522D01*
X933Y559D02*
Y591D01*
X907Y559D02*
X933D01*
X818D02*
Y591D01*
Y559D02*
X844D01*
X4018Y1879D02*
Y2115D01*
X3246Y1879D02*
Y2115D01*
X4018D01*
X3246Y1879D02*
X4018D01*
X1450Y2001D02*
Y2237D01*
X2222Y2001D02*
Y2237D01*
X1450Y2001D02*
X2222D01*
X1450Y2237D02*
X2222D01*
X3580Y935D02*
Y1057D01*
Y935D02*
X3773D01*
X3580Y1057D02*
X3773D01*
Y1013D02*
Y1057D01*
Y935D02*
Y979D01*
X1643Y916D02*
Y1038D01*
Y916D02*
X1836D01*
X1643Y1038D02*
X1836D01*
Y994D02*
Y1038D01*
Y916D02*
Y960D01*
X2892Y941D02*
X3092D01*
Y1041D01*
X2892D02*
X3092D01*
X2892Y941D02*
Y1041D01*
X3528Y1416D02*
X3650D01*
Y1609D01*
X3528Y1416D02*
Y1609D01*
X3572D01*
X3606D02*
X3650D01*
X2457Y421D02*
Y621D01*
Y421D02*
X2557D01*
Y621D01*
X2457D02*
X2557D01*
X2671Y1283D02*
X2797D01*
X2671Y1629D02*
X2797D01*
X2671Y1283D02*
Y1629D01*
X2797Y1283D02*
Y1629D01*
X2671Y818D02*
X2797D01*
X2671Y1164D02*
X2797D01*
X2671Y818D02*
Y1164D01*
X2797Y818D02*
Y1164D01*
X2567Y1021D02*
Y1121D01*
X2367Y1021D02*
X2567D01*
X2367D02*
Y1121D01*
X2567D01*
D12*
X4623Y1526D02*
G03*
X4623Y1526I-12J0D01*
G01*
X731Y1482D02*
G03*
X731Y1482I-12J0D01*
G01*
X2770Y1322D02*
G03*
X2770Y1322I-12J0D01*
G01*
X2769Y857D02*
G03*
X2769Y857I-12J0D01*
G01*
D13*
X1283Y2068D02*
G03*
X1271Y2068I-6J0D01*
G01*
D02*
G03*
X1259Y2068I-6J0D01*
G01*
D02*
G03*
X1247Y2068I-6J0D01*
G01*
D02*
G03*
X1236Y2068I-6J0D01*
G01*
X1271Y2111D02*
G03*
X1283Y2111I6J0D01*
G01*
X1259D02*
G03*
X1271Y2111I6J0D01*
G01*
X1247D02*
G03*
X1259Y2111I6J0D01*
G01*
X1236D02*
G03*
X1247Y2111I6J0D01*
G01*
X2396Y2091D02*
G03*
X2407Y2091I6J0D01*
G01*
D02*
G03*
X2419Y2091I6J0D01*
G01*
D02*
G03*
X2431Y2091I6J0D01*
G01*
D02*
G03*
X2443Y2091I6J0D01*
G01*
X2407Y2048D02*
G03*
X2396Y2048I-6J0D01*
G01*
X2419D02*
G03*
X2407Y2048I-6J0D01*
G01*
X2431D02*
G03*
X2419Y2048I-6J0D01*
G01*
X2443D02*
G03*
X2431Y2048I-6J0D01*
G01*
X4232Y2005D02*
G03*
X4221Y2005I-6J0D01*
G01*
D02*
G03*
X4209Y2005I-6J0D01*
G01*
D02*
G03*
X4197Y2005I-6J0D01*
G01*
D02*
G03*
X4185Y2005I-6J0D01*
G01*
X4221Y2048D02*
G03*
X4232Y2048I6J0D01*
G01*
X4209D02*
G03*
X4221Y2048I6J0D01*
G01*
X4197D02*
G03*
X4209Y2048I6J0D01*
G01*
X4185D02*
G03*
X4197Y2048I6J0D01*
G01*
X3072Y2025D02*
G03*
X3061Y2025I-6J0D01*
G01*
D02*
G03*
X3049Y2025I-6J0D01*
G01*
D02*
G03*
X3037Y2025I-6J0D01*
G01*
D02*
G03*
X3025Y2025I-6J0D01*
G01*
X3061Y2068D02*
G03*
X3072Y2068I6J0D01*
G01*
X3049D02*
G03*
X3061Y2068I6J0D01*
G01*
X3037D02*
G03*
X3049Y2068I6J0D01*
G01*
X3025D02*
G03*
X3037Y2068I6J0D01*
G01*
X1241Y2083D02*
X1277D01*
X1241Y2095D02*
X1277D01*
X2401Y2075D02*
X2437D01*
X2401Y2063D02*
X2437D01*
X4191Y2021D02*
X4226D01*
X4191Y2033D02*
X4226D01*
X3031Y2041D02*
X3066D01*
X3031Y2053D02*
X3066D01*
D14*
X3935Y547D02*
Y577D01*
X3861Y547D02*
Y577D01*
X3886Y555D02*
X3890Y570D01*
X3898Y555D01*
X3902Y570D01*
X3910Y555D01*
X3913Y570D01*
X3917Y562D01*
X3882D02*
X3886Y555D01*
X3917Y562D02*
X3925D01*
X3874D02*
X3882D01*
X4544Y1149D02*
X4552D01*
X4501D02*
X4509Y1149D01*
X4540Y1156D02*
X4544Y1149D01*
X4509Y1149D02*
X4513Y1141D01*
X4517Y1156D01*
X4525Y1141D01*
X4529Y1156D01*
X4536Y1141D01*
X4540Y1156D01*
X4566Y1134D02*
Y1164D01*
X4492Y1134D02*
Y1164D01*
X4616Y1157D02*
X4624D01*
X4573D02*
X4581Y1157D01*
X4612Y1165D02*
X4616Y1157D01*
X4581Y1157D02*
X4585Y1150D01*
X4589Y1165D01*
X4596Y1150D01*
X4600Y1165D01*
X4608Y1150D01*
X4612Y1165D01*
X4637Y1142D02*
Y1172D01*
X4563Y1142D02*
Y1172D01*
X885Y1113D02*
X893D01*
X842D02*
X849Y1113D01*
X881Y1121D02*
X885Y1113D01*
X849Y1113D02*
X853Y1105D01*
X857Y1121D01*
X865Y1105D01*
X869Y1121D01*
X877Y1105D01*
X881Y1121D01*
X906Y1098D02*
Y1128D01*
X832Y1098D02*
Y1128D01*
X719Y1098D02*
X727D01*
X676D02*
X684Y1098D01*
X716Y1106D02*
X719Y1098D01*
X684Y1098D02*
X688Y1091D01*
X692Y1106D01*
X700Y1091D01*
X704Y1106D01*
X712Y1091D01*
X716Y1106D01*
X741Y1083D02*
Y1113D01*
X667Y1083D02*
Y1113D01*
X3645Y1216D02*
X3653D01*
X3688Y1216D02*
X3696Y1216D01*
X3653D02*
X3656Y1208D01*
X3684Y1223D02*
X3688Y1216D01*
X3680Y1208D02*
X3684Y1223D01*
X3672D02*
X3680Y1208D01*
X3668D02*
X3672Y1223D01*
X3660D02*
X3668Y1208D01*
X3656D02*
X3660Y1223D01*
X3631Y1201D02*
Y1231D01*
X3705Y1201D02*
Y1231D01*
X3563Y1215D02*
X3571D01*
X3606Y1215D02*
X3614Y1215D01*
X3571D02*
X3575Y1207D01*
X3602Y1222D02*
X3606Y1215D01*
X3598Y1207D02*
X3602Y1222D01*
X3591D02*
X3598Y1207D01*
X3587D02*
X3591Y1222D01*
X3579D02*
X3587Y1207D01*
X3575D02*
X3579Y1222D01*
X3550Y1200D02*
Y1230D01*
X3624Y1200D02*
Y1230D01*
X1812Y1237D02*
X1834D01*
X1812Y1229D02*
Y1245D01*
X1804Y1229D02*
Y1245D01*
X1773Y1222D02*
Y1252D01*
X1847Y1222D02*
Y1252D01*
X1786Y1237D02*
X1804D01*
X3885Y1194D02*
Y1215D01*
X3877D02*
X3893D01*
X3877Y1224D02*
X3893D01*
X3870Y1254D02*
X3900D01*
X3870Y1181D02*
X3900D01*
X3885Y1224D02*
Y1241D01*
X1676Y1259D02*
Y1267D01*
X1676Y1302D02*
X1676Y1310D01*
Y1267D02*
X1684Y1271D01*
X1668Y1298D02*
X1676Y1302D01*
X1668Y1298D02*
X1684Y1294D01*
X1668Y1286D02*
X1684Y1294D01*
X1668Y1286D02*
X1684Y1282D01*
X1668Y1275D02*
X1684Y1282D01*
X1668Y1275D02*
X1684Y1271D01*
X1661Y1246D02*
X1691D01*
X1661Y1319D02*
X1691D01*
X1536Y1170D02*
X1544D01*
X1580Y1170D02*
X1588Y1170D01*
X1544D02*
X1548Y1162D01*
X1576Y1178D02*
X1580Y1170D01*
X1572Y1162D02*
X1576Y1178D01*
X1564D02*
X1572Y1162D01*
X1560D02*
X1564Y1178D01*
X1552D02*
X1560Y1162D01*
X1548D02*
X1552Y1178D01*
X1523Y1155D02*
Y1185D01*
X1597Y1155D02*
Y1185D01*
X5026Y471D02*
Y501D01*
X5100Y471D02*
Y501D01*
X5071Y478D02*
X5075Y494D01*
X5063D02*
X5071Y478D01*
X5059D02*
X5063Y494D01*
X5051D02*
X5059Y478D01*
X5047D02*
X5051Y494D01*
X5043Y486D02*
X5047Y478D01*
X5075Y494D02*
X5079Y486D01*
X5035D02*
X5043D01*
X5079D02*
X5086D01*
X5259Y522D02*
X5267D01*
X5216D02*
X5223D01*
X5255Y530D02*
X5259Y522D01*
X5223D02*
X5227Y514D01*
X5231Y530D01*
X5239Y514D01*
X5243Y530D01*
X5251Y514D01*
X5255Y530D01*
X5280Y507D02*
Y537D01*
X5206Y507D02*
Y537D01*
X5026Y341D02*
Y371D01*
X5100Y341D02*
Y371D01*
X5071Y348D02*
X5075Y364D01*
X5063D02*
X5071Y348D01*
X5059D02*
X5063Y364D01*
X5051D02*
X5059Y348D01*
X5047D02*
X5051Y364D01*
X5043Y356D02*
X5047Y348D01*
X5075Y364D02*
X5079Y356D01*
X5035D02*
X5043D01*
X5079D02*
X5086D01*
X4978Y50D02*
Y58D01*
Y94D02*
Y101D01*
Y58D02*
X4986Y62D01*
X4970Y90D02*
X4978Y94D01*
X4970Y90D02*
X4986Y86D01*
X4970Y78D02*
X4986Y86D01*
X4970Y78D02*
X4986Y74D01*
X4970Y66D02*
X4986Y74D01*
X4970Y66D02*
X4986Y62D01*
X4963Y37D02*
X4993D01*
X4963Y111D02*
X4993D01*
X5107Y50D02*
Y58D01*
Y94D02*
Y101D01*
Y58D02*
X5115Y62D01*
X5099Y90D02*
X5107Y94D01*
X5099Y90D02*
X5115Y86D01*
X5099Y78D02*
X5115Y86D01*
X5099Y78D02*
X5115Y74D01*
X5099Y66D02*
X5115Y74D01*
X5099Y66D02*
X5115Y62D01*
X5092Y37D02*
X5122D01*
X5092Y111D02*
X5122D01*
X4967Y287D02*
X4997D01*
X4967Y213D02*
X4997D01*
X4974Y242D02*
X4990Y238D01*
X4974Y242D02*
X4990Y250D01*
X4974Y254D02*
X4990Y250D01*
X4974Y254D02*
X4990Y262D01*
X4974Y266D02*
X4990Y262D01*
X4974Y266D02*
X4982Y270D01*
Y234D02*
X4990Y238D01*
X4982Y270D02*
Y278D01*
Y226D02*
Y234D01*
X4805Y181D02*
X4835D01*
X4805Y107D02*
X4835D01*
X4812Y136D02*
X4828Y132D01*
X4812Y136D02*
X4828Y144D01*
X4812Y148D02*
X4828Y144D01*
X4812Y148D02*
X4828Y156D01*
X4812Y159D02*
X4828Y156D01*
X4812Y159D02*
X4820Y163D01*
Y128D02*
X4828Y132D01*
X4820Y163D02*
Y171D01*
Y120D02*
Y128D01*
X2528Y1371D02*
X2550D01*
Y1363D02*
Y1379D01*
X2558Y1363D02*
Y1379D01*
X2589Y1356D02*
Y1386D01*
X2515Y1356D02*
Y1386D01*
X2558Y1371D02*
X2575D01*
X2622Y1212D02*
Y1234D01*
X2614D02*
X2630D01*
X2614Y1242D02*
X2630D01*
X2607Y1273D02*
X2637D01*
X2607Y1199D02*
X2637D01*
X2622Y1242D02*
Y1260D01*
X1998Y528D02*
Y558D01*
X1924Y528D02*
Y558D01*
X1949Y535D02*
X1953Y551D01*
X1961Y535D01*
X1965Y551D01*
X1972Y535D01*
X1976Y551D01*
X1980Y543D01*
X1945D02*
X1949Y535D01*
X1980Y543D02*
X1988D01*
X1937D02*
X1945D01*
X474Y945D02*
Y963D01*
X459Y902D02*
X489D01*
X459Y976D02*
X489D01*
X466Y945D02*
X482D01*
X466Y937D02*
X482D01*
X474Y915D02*
Y937D01*
X341Y764D02*
Y772D01*
Y807D02*
Y815D01*
Y772D02*
X349Y776D01*
X333Y803D02*
X341Y807D01*
X333Y803D02*
X349Y799D01*
X333Y791D02*
X349Y799D01*
X333Y791D02*
X349Y787D01*
X333Y780D02*
X349Y787D01*
X333Y780D02*
X349Y776D01*
X326Y750D02*
X356D01*
X326Y824D02*
X356D01*
X574Y160D02*
X582D01*
X531D02*
X538D01*
X570Y168D02*
X574Y160D01*
X538D02*
X542Y153D01*
X546Y168D01*
X554Y153D01*
X558Y168D01*
X566Y153D01*
X570Y168D01*
X595Y145D02*
Y175D01*
X521Y145D02*
Y175D01*
X469Y263D02*
X476D01*
X425D02*
X433D01*
X465Y271D02*
X469Y263D01*
X433D02*
X437Y255D01*
X441Y271D01*
X449Y255D01*
X453Y271D01*
X461Y255D01*
X465Y271D01*
X490Y248D02*
Y278D01*
X416Y248D02*
Y278D01*
X402Y353D02*
X409D01*
X358D02*
X366D01*
X398Y361D02*
X402Y353D01*
X366D02*
X370Y345D01*
X374Y361D01*
X382Y345D01*
X386Y361D01*
X394Y345D01*
X398Y361D01*
X423Y338D02*
Y368D01*
X349Y338D02*
Y368D01*
X401Y492D02*
X408D01*
X357D02*
X365D01*
X397Y500D02*
X401Y492D01*
X365D02*
X369Y484D01*
X373Y500D01*
X381Y484D01*
X385Y500D01*
X393Y484D01*
X397Y500D01*
X422Y477D02*
Y507D01*
X348Y477D02*
Y507D01*
X324Y678D02*
X332D01*
X281D02*
X289D01*
X320Y686D02*
X324Y678D01*
X289D02*
X293Y671D01*
X297Y686D01*
X305Y671D01*
X308Y686D01*
X316Y671D01*
X320Y686D01*
X345Y663D02*
Y693D01*
X271Y663D02*
Y693D01*
X437Y24D02*
X467D01*
X437Y98D02*
X467D01*
X444Y73D02*
X460Y69D01*
X444Y61D02*
X460Y69D01*
X444Y61D02*
X460Y57D01*
X444Y49D02*
X460Y57D01*
X444Y49D02*
X460Y45D01*
X452Y41D02*
X460Y45D01*
X444Y73D02*
X452Y77D01*
Y33D02*
Y41D01*
Y77D02*
Y85D01*
X102Y584D02*
Y614D01*
X176Y584D02*
Y614D01*
X147Y592D02*
X151Y607D01*
X139Y607D02*
X147Y592D01*
X135D02*
X139Y607D01*
X127Y607D02*
X135Y592D01*
X123D02*
X127Y607D01*
X119Y599D02*
X123Y592D01*
X151Y607D02*
X155Y599D01*
X111D02*
X119D01*
X155D02*
X162D01*
X174Y409D02*
Y439D01*
X248Y409D02*
Y439D01*
X219Y416D02*
X222Y432D01*
X211D02*
X219Y416D01*
X207D02*
X211Y432D01*
X199D02*
X207Y416D01*
X195D02*
X199Y432D01*
X191Y424D02*
X195Y416D01*
X222Y432D02*
X226Y424D01*
X183D02*
X191D01*
X226D02*
X234D01*
X173Y260D02*
Y290D01*
X247Y260D02*
Y290D01*
X218Y267D02*
X221Y282D01*
X210D02*
X218Y267D01*
X206D02*
X210Y282D01*
X198D02*
X206Y267D01*
X194D02*
X198Y282D01*
X190Y275D02*
X194Y267D01*
X221Y282D02*
X225Y275D01*
X182D02*
X190D01*
X225D02*
X233D01*
X252Y89D02*
Y119D01*
X326Y89D02*
Y119D01*
X297Y96D02*
X301Y112D01*
X289D02*
X297Y96D01*
X285D02*
X289Y112D01*
X278D02*
X285Y96D01*
X274D02*
X278Y112D01*
X270Y104D02*
X274Y96D01*
X301Y112D02*
X305Y104D01*
X262D02*
X270D01*
X305D02*
X313D01*
X341Y837D02*
Y845D01*
Y881D02*
Y889D01*
Y845D02*
X349Y849D01*
X333Y877D02*
X341Y881D01*
X333Y877D02*
X349Y873D01*
X333Y865D02*
X349Y873D01*
X333Y865D02*
X349Y861D01*
X333Y853D02*
X349Y861D01*
X333Y853D02*
X349Y849D01*
X326Y824D02*
X356D01*
X326Y898D02*
X356D01*
X2287Y417D02*
Y439D01*
X2279D02*
X2295D01*
X2279Y447D02*
X2295D01*
X2272Y478D02*
X2302D01*
X2272Y404D02*
X2302D01*
X2287Y447D02*
Y465D01*
X2287Y335D02*
Y356D01*
X2279D02*
X2295D01*
X2279Y364D02*
X2295D01*
X2272Y395D02*
X2302D01*
X2272Y321D02*
X2302D01*
X2287Y364D02*
Y382D01*
Y238D02*
Y260D01*
X2279D02*
X2295D01*
X2279Y268D02*
X2295D01*
X2272Y299D02*
X2302D01*
X2272Y225D02*
X2302D01*
X2287Y268D02*
Y286D01*
X2740Y256D02*
Y286D01*
X2814Y256D02*
Y286D01*
X2785Y263D02*
X2788Y279D01*
X2777D02*
X2785Y263D01*
X2773D02*
X2777Y279D01*
X2765D02*
X2773Y263D01*
X2761D02*
X2765Y279D01*
X2757Y271D02*
X2761Y263D01*
X2788Y279D02*
X2792Y271D01*
X2749D02*
X2757D01*
X2792D02*
X2800D01*
X2560Y391D02*
Y421D01*
X2634Y391D02*
Y421D01*
X2605Y398D02*
X2608Y414D01*
X2597D02*
X2605Y398D01*
X2593D02*
X2597Y414D01*
X2585D02*
X2593Y398D01*
X2581D02*
X2585Y414D01*
X2577Y406D02*
X2581Y398D01*
X2608Y414D02*
X2612Y406D01*
X2569D02*
X2577D01*
X2612D02*
X2620D01*
X2599Y536D02*
X2620D01*
X2599Y528D02*
Y544D01*
X2591Y528D02*
Y544D01*
X2560Y521D02*
Y551D01*
X2634Y521D02*
Y551D01*
X2573Y536D02*
X2591D01*
X2572Y713D02*
X2602D01*
X2572Y639D02*
X2602D01*
X2579Y668D02*
X2595Y664D01*
X2579Y668D02*
X2595Y676D01*
X2579Y680D02*
X2595Y676D01*
X2579Y680D02*
X2595Y688D01*
X2579Y692D02*
X2595Y688D01*
X2579Y692D02*
X2587Y696D01*
Y660D02*
X2595Y664D01*
X2587Y696D02*
Y703D01*
Y652D02*
Y660D01*
X2552Y763D02*
Y785D01*
X2544Y763D02*
X2560D01*
X2544Y755D02*
X2560D01*
X2537Y724D02*
X2567D01*
X2537Y798D02*
X2567D01*
X2552Y737D02*
Y755D01*
X2492Y858D02*
Y880D01*
X2484Y858D02*
X2500D01*
X2484Y850D02*
X2500D01*
X2477Y819D02*
X2507D01*
X2477Y893D02*
X2507D01*
X2492Y832D02*
Y850D01*
X2937Y878D02*
X2967D01*
X2937Y804D02*
X2967D01*
X2944Y833D02*
X2960Y829D01*
X2944Y833D02*
X2960Y841D01*
X2944Y845D02*
X2960Y841D01*
X2944Y845D02*
X2960Y853D01*
X2944Y857D02*
X2960Y853D01*
X2944Y857D02*
X2952Y861D01*
Y825D02*
X2960Y829D01*
X2952Y861D02*
Y868D01*
Y817D02*
Y825D01*
X2902Y619D02*
X2932D01*
X2902Y693D02*
X2932D01*
X2909Y668D02*
X2925Y664D01*
X2909Y656D02*
X2925Y664D01*
X2909Y656D02*
X2925Y652D01*
X2909Y644D02*
X2925Y652D01*
X2909Y644D02*
X2925Y640D01*
X2917Y636D02*
X2925Y640D01*
X2909Y668D02*
X2917Y672D01*
Y628D02*
Y636D01*
Y672D02*
Y680D01*
Y733D02*
Y755D01*
X2909Y733D02*
X2925D01*
X2909Y725D02*
X2925D01*
X2902Y694D02*
X2932D01*
X2902Y768D02*
X2932D01*
X2917Y707D02*
Y725D01*
X2779Y536D02*
X2800D01*
X2779Y528D02*
Y544D01*
X2771Y528D02*
Y544D01*
X2740Y521D02*
Y551D01*
X2814Y521D02*
Y551D01*
X2753Y536D02*
X2771D01*
X2740Y391D02*
Y421D01*
X2814Y391D02*
Y421D01*
X2785Y398D02*
X2788Y414D01*
X2777D02*
X2785Y398D01*
X2773D02*
X2777Y414D01*
X2765D02*
X2773Y398D01*
X2761D02*
X2765Y414D01*
X2757Y406D02*
X2761Y398D01*
X2788Y414D02*
X2792Y406D01*
X2749D02*
X2757D01*
X2792D02*
X2800D01*
X1474Y1524D02*
Y1545D01*
X1467Y1524D02*
X1482D01*
X1467Y1516D02*
X1482D01*
X1459Y1485D02*
X1489D01*
X1459Y1559D02*
X1489D01*
X1474Y1498D02*
Y1516D01*
X1612Y1550D02*
Y1568D01*
X1597Y1507D02*
X1627D01*
X1597Y1581D02*
X1627D01*
X1604Y1550D02*
X1619D01*
X1604Y1542D02*
X1619D01*
X1612Y1521D02*
Y1542D01*
X1486Y1728D02*
Y1736D01*
Y1772D02*
Y1780D01*
Y1736D02*
X1494Y1740D01*
X1478Y1768D02*
X1486Y1772D01*
X1478Y1768D02*
X1494Y1764D01*
X1478Y1756D02*
X1494Y1764D01*
X1478Y1756D02*
X1494Y1752D01*
X1478Y1744D02*
X1494Y1752D01*
X1478Y1744D02*
X1494Y1740D01*
X1471Y1715D02*
X1501D01*
X1471Y1789D02*
X1501D01*
X1877Y1516D02*
Y1533D01*
X1862Y1576D02*
X1892D01*
X1862Y1502D02*
X1892D01*
X1869Y1533D02*
X1884D01*
X1869Y1541D02*
X1884D01*
X1877D02*
Y1563D01*
X2064Y1493D02*
Y1515D01*
X2056Y1493D02*
X2072D01*
X2056Y1485D02*
X2072D01*
X2049Y1454D02*
X2079D01*
X2049Y1528D02*
X2079D01*
X2064Y1468D02*
Y1485D01*
X2017Y1750D02*
Y1758D01*
Y1707D02*
Y1715D01*
X2009Y1746D02*
X2017Y1750D01*
Y1715D02*
X2024Y1719D01*
X2009Y1722D02*
X2024Y1719D01*
X2009Y1722D02*
X2024Y1730D01*
X2009Y1734D02*
X2024Y1730D01*
X2009Y1734D02*
X2024Y1742D01*
X2009Y1746D02*
X2024Y1742D01*
X2002Y1771D02*
X2032D01*
X2002Y1697D02*
X2032D01*
X2197Y1852D02*
X2227D01*
X2197Y1782D02*
X2227D01*
X1092Y180D02*
Y198D01*
X1077Y241D02*
X1107D01*
X1077Y167D02*
X1107D01*
X1084Y198D02*
X1099D01*
X1084Y206D02*
X1099D01*
X1092D02*
Y227D01*
X2085Y5D02*
X2179D01*
X2132Y91D02*
Y112D01*
Y53D02*
Y75D01*
X2122D02*
X2142D01*
X2122Y91D02*
X2142D01*
X2085Y162D02*
X2179D01*
X2643Y2069D02*
X2660D01*
X2703Y2054D02*
Y2084D01*
X2629Y2054D02*
Y2084D01*
X2660Y2061D02*
Y2077D01*
X2668Y2061D02*
Y2077D01*
Y2069D02*
X2690D01*
X2558D02*
X2575D01*
X2618Y2054D02*
Y2084D01*
X2544Y2054D02*
Y2084D01*
X2575Y2061D02*
Y2077D01*
X2583Y2061D02*
Y2077D01*
Y2069D02*
X2605D01*
X5301Y861D02*
X5309D01*
X5258D02*
X5266D01*
X5297Y869D02*
X5301Y861D01*
X5266D02*
X5270Y853D01*
X5274Y869D01*
X5281Y853D01*
X5285Y869D01*
X5293Y853D01*
X5297Y869D01*
X5322Y846D02*
Y876D01*
X5248Y846D02*
Y876D01*
X5203Y344D02*
Y374D01*
X5277Y344D02*
Y374D01*
X5248Y351D02*
X5252Y367D01*
X5240D02*
X5248Y351D01*
X5236D02*
X5240Y367D01*
X5228D02*
X5236Y351D01*
X5224D02*
X5228Y367D01*
X5220Y359D02*
X5224Y351D01*
X5252Y367D02*
X5256Y359D01*
X5213D02*
X5220D01*
X5256D02*
X5264D01*
X1038Y693D02*
Y710D01*
X1023Y754D02*
X1053D01*
X1023Y680D02*
X1053D01*
X1030Y710D02*
X1046D01*
X1030Y719D02*
X1046D01*
X1038D02*
Y740D01*
X1038Y768D02*
Y786D01*
X1023Y829D02*
X1053D01*
X1023Y755D02*
X1053D01*
X1030Y786D02*
X1046D01*
X1030Y794D02*
X1046D01*
X1038D02*
Y816D01*
X963Y579D02*
Y609D01*
X1037Y579D02*
Y609D01*
X1008Y587D02*
X1012Y602D01*
X1000D02*
X1008Y587D01*
X996D02*
X1000Y602D01*
X989D02*
X996Y587D01*
X985D02*
X989Y602D01*
X981Y594D02*
X985Y587D01*
X1012Y602D02*
X1016Y594D01*
X973D02*
X981D01*
X1016D02*
X1024D01*
X1094Y592D02*
X1124D01*
X1094Y666D02*
X1124D01*
X1101Y641D02*
X1117Y637D01*
X1101Y629D02*
X1117Y637D01*
X1101Y629D02*
X1117Y625D01*
X1101Y617D02*
X1117Y625D01*
X1101Y617D02*
X1117Y613D01*
X1109Y609D02*
X1117Y613D01*
X1101Y641D02*
X1109Y645D01*
Y601D02*
Y609D01*
Y645D02*
Y653D01*
X1095Y508D02*
X1125D01*
X1095Y582D02*
X1125D01*
X1102Y557D02*
X1118Y553D01*
X1102Y545D02*
X1118Y553D01*
X1102Y545D02*
X1118Y541D01*
X1102Y533D02*
X1118Y541D01*
X1102Y533D02*
X1118Y530D01*
X1110Y526D02*
X1118Y530D01*
X1102Y557D02*
X1110Y561D01*
Y518D02*
Y526D01*
Y561D02*
Y569D01*
X473Y806D02*
Y814D01*
Y762D02*
Y770D01*
X465Y802D02*
X473Y806D01*
Y770D02*
X481Y774D01*
X465Y778D02*
X481Y774D01*
X465Y778D02*
X481Y786D01*
X465Y790D02*
X481Y786D01*
X465Y790D02*
X481Y798D01*
X465Y802D02*
X481Y798D01*
X458Y827D02*
X488D01*
X458Y753D02*
X488D01*
X473Y881D02*
Y889D01*
Y837D02*
Y845D01*
X465Y877D02*
X473Y881D01*
Y845D02*
X481Y849D01*
X465Y853D02*
X481Y849D01*
X465Y853D02*
X481Y861D01*
X465Y865D02*
X481Y861D01*
X465Y865D02*
X481Y873D01*
X465Y877D02*
X481Y873D01*
X458Y902D02*
X488D01*
X458Y828D02*
X488D01*
X1111Y1037D02*
Y1058D01*
X1103Y1037D02*
X1119D01*
X1103Y1029D02*
X1119D01*
X1096Y998D02*
X1126D01*
X1096Y1072D02*
X1126D01*
X1111Y1011D02*
Y1029D01*
Y1112D02*
Y1133D01*
X1103Y1112D02*
X1119D01*
X1103Y1104D02*
X1119D01*
X1096Y1073D02*
X1126D01*
X1096Y1147D02*
X1126D01*
X1111Y1086D02*
Y1104D01*
Y966D02*
Y987D01*
X1103Y966D02*
X1119D01*
X1103Y958D02*
X1119D01*
X1096Y927D02*
X1126D01*
X1096Y1001D02*
X1126D01*
X1111Y940D02*
Y958D01*
X989Y1151D02*
Y1172D01*
X981D02*
X997D01*
X981Y1180D02*
X997D01*
X974Y1211D02*
X1004D01*
X974Y1137D02*
X1004D01*
X989Y1180D02*
Y1198D01*
X1098Y926D02*
X1128D01*
X1098Y852D02*
X1128D01*
X1106Y881D02*
X1121Y877D01*
X1106Y881D02*
X1121Y889D01*
X1106Y893D02*
X1121Y889D01*
X1106Y893D02*
X1121Y900D01*
X1106Y904D02*
X1121Y900D01*
X1106Y904D02*
X1113Y908D01*
Y873D02*
X1121Y877D01*
X1113Y908D02*
Y916D01*
Y865D02*
Y873D01*
X4813Y1057D02*
X4821D01*
X4770D02*
X4778D01*
X4809Y1065D02*
X4813Y1057D01*
X4778D02*
X4782Y1049D01*
X4786Y1065D01*
X4794Y1049D01*
X4798Y1065D01*
X4805Y1049D01*
X4809Y1065D01*
X4835Y1042D02*
Y1072D01*
X4761Y1042D02*
Y1072D01*
X4695Y463D02*
X4703D01*
X4652D02*
X4659D01*
X4691Y470D02*
X4695Y463D01*
X4659D02*
X4663Y455D01*
X4667Y470D01*
X4675Y455D01*
X4679Y470D01*
X4687Y455D01*
X4691Y470D01*
X4716Y448D02*
Y478D01*
X4642Y448D02*
Y478D01*
X4855Y1268D02*
Y1276D01*
Y1311D02*
Y1319D01*
Y1276D02*
X4863Y1280D01*
X4847Y1308D02*
X4855Y1311D01*
X4847Y1308D02*
X4863Y1304D01*
X4847Y1296D02*
X4863Y1304D01*
X4847Y1296D02*
X4863Y1292D01*
X4847Y1284D02*
X4863Y1292D01*
X4847Y1284D02*
X4863Y1280D01*
X4840Y1255D02*
X4870D01*
X4840Y1329D02*
X4870D01*
X4290Y850D02*
X4320D01*
X4290Y924D02*
X4320D01*
X4297Y899D02*
X4313Y895D01*
X4297Y887D02*
X4313Y895D01*
X4297Y887D02*
X4313Y883D01*
X4297Y875D02*
X4313Y883D01*
X4297Y875D02*
X4313Y871D01*
X4305Y867D02*
X4313Y871D01*
X4297Y899D02*
X4305Y903D01*
Y859D02*
Y867D01*
Y903D02*
Y910D01*
X5055Y938D02*
Y945D01*
Y894D02*
Y902D01*
X5047Y934D02*
X5055Y938D01*
Y902D02*
X5063Y906D01*
X5047Y910D02*
X5063Y906D01*
X5047Y910D02*
X5063Y918D01*
X5047Y922D02*
X5063Y918D01*
X5047Y922D02*
X5063Y930D01*
X5047Y934D02*
X5063Y930D01*
X5040Y959D02*
X5070D01*
X5040Y885D02*
X5070D01*
X4910Y898D02*
Y906D01*
Y941D02*
Y949D01*
Y906D02*
X4918Y910D01*
X4902Y938D02*
X4910Y941D01*
X4902Y938D02*
X4918Y934D01*
X4902Y926D02*
X4918Y934D01*
X4902Y926D02*
X4918Y922D01*
X4902Y914D02*
X4918Y922D01*
X4902Y914D02*
X4918Y910D01*
X4895Y885D02*
X4925D01*
X4895Y959D02*
X4925D01*
X5055Y864D02*
Y872D01*
Y821D02*
Y829D01*
X5047Y860D02*
X5055Y864D01*
Y829D02*
X5063Y832D01*
X5047Y836D02*
X5063Y832D01*
X5047Y836D02*
X5063Y844D01*
X5047Y848D02*
X5063Y844D01*
X5047Y848D02*
X5063Y856D01*
X5047Y860D02*
X5063Y856D01*
X5040Y885D02*
X5070D01*
X5040Y811D02*
X5070D01*
X4910Y823D02*
Y831D01*
Y866D02*
Y874D01*
Y831D02*
X4918Y835D01*
X4902Y863D02*
X4910Y866D01*
X4902Y863D02*
X4918Y859D01*
X4902Y851D02*
X4918Y859D01*
X4902Y851D02*
X4918Y847D01*
X4902Y839D02*
X4918Y847D01*
X4902Y839D02*
X4918Y835D01*
X4895Y810D02*
X4925D01*
X4895Y884D02*
X4925D01*
X4659Y275D02*
X4689D01*
X4659Y349D02*
X4689D01*
X4666Y324D02*
X4682Y320D01*
X4666Y312D02*
X4682Y320D01*
X4666Y312D02*
X4682Y308D01*
X4666Y300D02*
X4682Y308D01*
X4666Y300D02*
X4682Y296D01*
X4674Y292D02*
X4682Y296D01*
X4666Y324D02*
X4674Y328D01*
Y284D02*
Y292D01*
Y328D02*
Y336D01*
X5079Y616D02*
X5086D01*
X5035D02*
X5043D01*
X5075Y624D02*
X5079Y616D01*
X5043D02*
X5047Y608D01*
X5051Y624D01*
X5059Y608D01*
X5063Y624D01*
X5071Y608D01*
X5075Y624D01*
X5100Y601D02*
Y631D01*
X5026Y601D02*
Y631D01*
X4324Y451D02*
Y481D01*
X4250Y451D02*
Y481D01*
X4276Y458D02*
X4280Y474D01*
X4287Y458D01*
X4291Y474D01*
X4299Y458D01*
X4303Y474D01*
X4307Y466D01*
X4272D02*
X4276Y458D01*
X4307Y466D02*
X4315D01*
X4264D02*
X4272D01*
X4469D02*
X4476D01*
X4425D02*
X4433D01*
X4465Y474D02*
X4469Y466D01*
X4433D02*
X4437Y458D01*
X4441Y474D01*
X4449Y458D01*
X4453Y474D01*
X4461Y458D01*
X4465Y474D01*
X4490Y451D02*
Y481D01*
X4416Y451D02*
Y481D01*
X4658Y875D02*
Y905D01*
X4732Y875D02*
Y905D01*
X4703Y882D02*
X4707Y898D01*
X4695D02*
X4703Y882D01*
X4691D02*
X4695Y898D01*
X4683D02*
X4691Y882D01*
X4679D02*
X4683Y898D01*
X4675Y890D02*
X4679Y882D01*
X4707Y898D02*
X4710Y890D01*
X4667D02*
X4675D01*
X4710D02*
X4718D01*
X4183Y548D02*
Y555D01*
Y591D02*
Y599D01*
Y555D02*
X4191Y559D01*
X4175Y587D02*
X4183Y591D01*
X4175Y587D02*
X4191Y583D01*
X4175Y575D02*
X4191Y583D01*
X4175Y575D02*
X4191Y571D01*
X4175Y563D02*
X4191Y571D01*
X4175Y563D02*
X4191Y559D01*
X4168Y534D02*
X4198D01*
X4168Y608D02*
X4198D01*
X4304Y611D02*
X4311D01*
X4260D02*
X4268D01*
X4300Y619D02*
X4304Y611D01*
X4268D02*
X4272Y603D01*
X4276Y619D01*
X4284Y603D01*
X4288Y619D01*
X4296Y603D01*
X4300Y619D01*
X4325Y596D02*
Y626D01*
X4251Y596D02*
Y626D01*
X5327Y1665D02*
Y1695D01*
X5253Y1665D02*
Y1695D01*
X5278Y1672D02*
X5282Y1688D01*
X5290Y1672D01*
X5294Y1688D01*
X5302Y1672D01*
X5305Y1688D01*
X5309Y1680D01*
X5274D02*
X5278Y1672D01*
X5309Y1680D02*
X5317D01*
X5266D02*
X5274D01*
X5257Y660D02*
X5265D01*
X5214D02*
X5221D01*
X5253Y668D02*
X5257Y660D01*
X5221D02*
X5225Y653D01*
X5229Y668D01*
X5237Y653D01*
X5241Y668D01*
X5249Y653D01*
X5253Y668D01*
X5278Y645D02*
Y675D01*
X5204Y645D02*
Y675D01*
X4183Y628D02*
Y635D01*
Y671D02*
Y679D01*
Y635D02*
X4191Y639D01*
X4175Y667D02*
X4183Y671D01*
X4175Y667D02*
X4191Y663D01*
X4175Y655D02*
X4191Y663D01*
X4175Y655D02*
X4191Y651D01*
X4175Y643D02*
X4191Y651D01*
X4175Y643D02*
X4191Y639D01*
X4168Y614D02*
X4198D01*
X4168Y688D02*
X4198D01*
X4945Y1736D02*
X4962D01*
X4902Y1721D02*
Y1751D01*
X4976Y1721D02*
Y1751D01*
X4945Y1728D02*
Y1744D01*
X4937Y1728D02*
Y1744D01*
X4915Y1736D02*
X4937D01*
X4248Y708D02*
Y729D01*
X4240D02*
X4256D01*
X4240Y737D02*
X4256D01*
X4233Y768D02*
X4263D01*
X4233Y694D02*
X4263D01*
X4248Y737D02*
Y755D01*
X5010Y1291D02*
Y1308D01*
X4995Y1248D02*
X5025D01*
X4995Y1322D02*
X5025D01*
X5002Y1291D02*
X5018D01*
X5002Y1282D02*
X5018D01*
X5010Y1261D02*
Y1282D01*
X4250Y783D02*
Y805D01*
X4242D02*
X4258D01*
X4242Y813D02*
X4258D01*
X4235Y844D02*
X4265D01*
X4235Y770D02*
X4265D01*
X4250Y813D02*
Y830D01*
X4822Y1422D02*
X4843D01*
X4822Y1414D02*
Y1430D01*
X4814Y1414D02*
Y1430D01*
X4783Y1407D02*
Y1437D01*
X4857Y1407D02*
Y1437D01*
X4796Y1422D02*
X4814D01*
X4813Y511D02*
Y529D01*
X4798Y468D02*
X4828D01*
X4798Y542D02*
X4828D01*
X4805Y511D02*
X4821D01*
X4805Y503D02*
X4821D01*
X4813Y481D02*
Y503D01*
X4430Y1143D02*
Y1161D01*
X4415Y1204D02*
X4445D01*
X4415Y1130D02*
X4445D01*
X4422Y1161D02*
X4438D01*
X4422Y1169D02*
X4438D01*
X4430D02*
Y1190D01*
X4302Y938D02*
Y960D01*
X4294D02*
X4310D01*
X4294Y968D02*
X4310D01*
X4287Y999D02*
X4317D01*
X4287Y925D02*
X4317D01*
X4302Y968D02*
Y985D01*
Y1084D02*
Y1106D01*
X4294D02*
X4310D01*
X4294Y1114D02*
X4310D01*
X4287Y1145D02*
X4317D01*
X4287Y1071D02*
X4317D01*
X4302Y1114D02*
Y1131D01*
Y1009D02*
Y1031D01*
X4294D02*
X4310D01*
X4294Y1039D02*
X4310D01*
X4287Y1070D02*
X4317D01*
X4287Y996D02*
X4317D01*
X4302Y1039D02*
Y1056D01*
X4910Y999D02*
Y1020D01*
X4902Y999D02*
X4918D01*
X4902Y991D02*
X4918D01*
X4895Y960D02*
X4925D01*
X4895Y1034D02*
X4925D01*
X4910Y973D02*
Y991D01*
X4349Y466D02*
X4366D01*
X4409Y451D02*
Y481D01*
X4335Y451D02*
Y481D01*
X4366Y458D02*
Y474D01*
X4375Y458D02*
Y474D01*
Y466D02*
X4396D01*
X4658Y1040D02*
Y1061D01*
X4651Y1040D02*
X4666D01*
X4651Y1031D02*
X4666D01*
X4643Y1000D02*
X4673D01*
X4643Y1074D02*
X4673D01*
X4658Y1014D02*
Y1031D01*
X5217Y1680D02*
X5238D01*
X5217Y1672D02*
Y1688D01*
X5209Y1672D02*
Y1688D01*
X5178Y1665D02*
Y1695D01*
X5252Y1665D02*
Y1695D01*
X5191Y1680D02*
X5209D01*
X4640Y1593D02*
Y1615D01*
X4632D02*
X4648D01*
X4632Y1623D02*
X4648D01*
X4625Y1654D02*
X4655D01*
X4625Y1580D02*
X4655D01*
X4640Y1623D02*
Y1640D01*
Y1698D02*
Y1715D01*
X4625Y1655D02*
X4655D01*
X4625Y1729D02*
X4655D01*
X4632Y1698D02*
X4648D01*
X4632Y1690D02*
X4648D01*
X4640Y1668D02*
Y1690D01*
X4285Y1253D02*
Y1275D01*
X4277D02*
X4293D01*
X4277Y1283D02*
X4293D01*
X4270Y1314D02*
X4300D01*
X4270Y1240D02*
X4300D01*
X4285Y1283D02*
Y1300D01*
X640Y955D02*
X648D01*
X597D02*
X605D01*
X636Y963D02*
X640Y955D01*
X605D02*
X609Y947D01*
X613Y963D01*
X620Y947D01*
X624Y963D01*
X632Y947D01*
X636Y963D01*
X661Y940D02*
Y970D01*
X587Y940D02*
Y970D01*
X732Y386D02*
X740D01*
X688D02*
X696D01*
X728Y394D02*
X732Y386D01*
X696D02*
X700Y378D01*
X704Y394D01*
X712Y378D01*
X716Y394D01*
X724Y378D01*
X728Y394D01*
X753Y371D02*
Y401D01*
X679Y371D02*
Y401D01*
X599Y1080D02*
Y1088D01*
Y1036D02*
Y1044D01*
X591Y1076D02*
X599Y1080D01*
Y1044D02*
X607Y1048D01*
X591Y1052D02*
X607Y1048D01*
X591Y1052D02*
X607Y1060D01*
X591Y1064D02*
X607Y1060D01*
X591Y1064D02*
X607Y1072D01*
X591Y1076D02*
X607Y1072D01*
X584Y1101D02*
X614D01*
X584Y1027D02*
X614D01*
X921Y216D02*
Y223D01*
Y259D02*
Y267D01*
Y223D02*
X929Y227D01*
X913Y255D02*
X921Y259D01*
X913Y255D02*
X929Y251D01*
X913Y243D02*
X929Y251D01*
X913Y243D02*
X929Y239D01*
X913Y231D02*
X929Y239D01*
X913Y231D02*
X929Y227D01*
X906Y202D02*
X936D01*
X906Y276D02*
X936D01*
X978Y437D02*
X986D01*
X1021D02*
X1029D01*
X986D02*
X990Y429D01*
X1017Y445D02*
X1021Y437D01*
X1013Y429D02*
X1017Y445D01*
X1005D02*
X1013Y429D01*
X1001D02*
X1005Y445D01*
X994D02*
X1001Y429D01*
X990D02*
X994Y445D01*
X964Y422D02*
Y452D01*
X1038Y422D02*
Y452D01*
X854Y437D02*
X862D01*
X810D02*
X818D01*
X850Y445D02*
X854Y437D01*
X818D02*
X822Y429D01*
X826Y445D01*
X834Y429D01*
X838Y445D01*
X846Y429D01*
X850Y445D01*
X875Y422D02*
Y452D01*
X801Y422D02*
Y452D01*
X780Y876D02*
X788D01*
X737D02*
X744D01*
X776Y884D02*
X780Y876D01*
X744D02*
X748Y868D01*
X752Y884D01*
X760Y868D01*
X764Y884D01*
X772Y868D01*
X776Y884D01*
X801Y861D02*
Y891D01*
X727Y861D02*
Y891D01*
X161Y1491D02*
X169D01*
X204D02*
X212D01*
X169D02*
X173Y1483D01*
X200Y1499D02*
X204Y1491D01*
X196Y1483D02*
X200Y1499D01*
X188D02*
X196Y1483D01*
X184D02*
X188Y1499D01*
X177D02*
X184Y1483D01*
X173D02*
X177Y1499D01*
X147Y1476D02*
Y1506D01*
X221Y1476D02*
Y1506D01*
X125Y1358D02*
X133D01*
X82D02*
X90D01*
X121Y1366D02*
X125Y1358D01*
X90D02*
X94Y1350D01*
X98Y1366D01*
X106Y1350D01*
X110Y1366D01*
X118Y1350D01*
X121Y1366D01*
X147Y1343D02*
Y1373D01*
X73Y1343D02*
Y1373D01*
X332Y1624D02*
Y1646D01*
X324Y1624D02*
X340D01*
X324Y1616D02*
X340D01*
X317Y1585D02*
X347D01*
X317Y1659D02*
X347D01*
X332Y1598D02*
Y1616D01*
X471Y1060D02*
X492D01*
Y1052D02*
Y1068D01*
X501Y1052D02*
Y1068D01*
X531Y1045D02*
Y1075D01*
X458Y1045D02*
Y1075D01*
X501Y1060D02*
X518D01*
X930Y1379D02*
X952D01*
X930Y1371D02*
Y1386D01*
X922Y1371D02*
Y1386D01*
X891Y1364D02*
Y1394D01*
X965Y1364D02*
Y1394D01*
X905Y1379D02*
X922D01*
X593Y458D02*
X610D01*
X653Y443D02*
Y473D01*
X579Y443D02*
Y473D01*
X610Y450D02*
Y466D01*
X618Y450D02*
Y466D01*
Y458D02*
X640D01*
X896Y439D02*
X914D01*
X957Y424D02*
Y454D01*
X883Y424D02*
Y454D01*
X914Y431D02*
Y447D01*
X922Y431D02*
Y447D01*
Y439D02*
X943D01*
X798Y993D02*
Y1011D01*
X783Y950D02*
X813D01*
X783Y1024D02*
X813D01*
X790Y993D02*
X806D01*
X790Y985D02*
X806D01*
X798Y964D02*
Y985D01*
X86Y1491D02*
X103D01*
X146Y1476D02*
Y1506D01*
X72Y1476D02*
Y1506D01*
X103Y1483D02*
Y1499D01*
X112Y1483D02*
Y1499D01*
Y1491D02*
X133D01*
X748Y1580D02*
Y1597D01*
X733Y1537D02*
X763D01*
X733Y1611D02*
X763D01*
X740Y1580D02*
X756D01*
X740Y1571D02*
X756D01*
X748Y1550D02*
Y1571D01*
Y1655D02*
Y1672D01*
X733Y1612D02*
X763D01*
X733Y1686D02*
X763D01*
X740Y1655D02*
X756D01*
X740Y1646D02*
X756D01*
X748Y1625D02*
Y1646D01*
X529Y1471D02*
Y1489D01*
X514Y1532D02*
X544D01*
X514Y1458D02*
X544D01*
X521Y1489D02*
X537D01*
X521Y1497D02*
X537D01*
X529D02*
Y1519D01*
X3315Y1651D02*
X3336D01*
Y1643D02*
Y1659D01*
X3344Y1643D02*
Y1659D01*
X3375Y1636D02*
Y1666D01*
X3301Y1636D02*
Y1666D01*
X3344Y1651D02*
X3362D01*
X798Y2211D02*
X815D01*
X858Y2196D02*
Y2226D01*
X784Y2196D02*
Y2226D01*
X815Y2203D02*
Y2218D01*
X823Y2203D02*
Y2218D01*
Y2211D02*
X845D01*
X1179Y2034D02*
X1344D01*
X1179D02*
Y2144D01*
X1344D01*
Y2034D02*
Y2144D01*
X841Y2056D02*
X863D01*
X841Y2048D02*
Y2063D01*
X833Y2048D02*
Y2063D01*
X802Y2041D02*
Y2071D01*
X876Y2041D02*
Y2071D01*
X816Y2056D02*
X833D01*
X927D02*
X948D01*
X927Y2048D02*
Y2063D01*
X918Y2048D02*
Y2063D01*
X888Y2041D02*
Y2071D01*
X961Y2041D02*
Y2071D01*
X901Y2056D02*
X918D01*
X1012D02*
X1034D01*
X1012Y2048D02*
Y2063D01*
X1004Y2048D02*
Y2063D01*
X973Y2041D02*
Y2071D01*
X1047Y2041D02*
Y2071D01*
X986Y2056D02*
X1004D01*
X1097D02*
X1119D01*
X1097Y2048D02*
Y2063D01*
X1089Y2048D02*
Y2063D01*
X1058Y2041D02*
Y2071D01*
X1132Y2041D02*
Y2071D01*
X1072Y2056D02*
X1089D01*
X688Y2185D02*
Y2203D01*
X673Y2246D02*
X703D01*
X673Y2172D02*
X703D01*
X681Y2203D02*
X696D01*
X681Y2211D02*
X696D01*
X688D02*
Y2232D01*
X4744Y2177D02*
X4761D01*
X4804Y2162D02*
Y2192D01*
X4730Y2162D02*
Y2192D01*
X4761Y2169D02*
Y2185D01*
X4769Y2169D02*
Y2185D01*
Y2177D02*
X4791D01*
X1923Y2263D02*
Y2280D01*
X1908Y2323D02*
X1938D01*
X1908Y2249D02*
X1938D01*
X1915Y2280D02*
X1931D01*
X1915Y2289D02*
X1931D01*
X1923D02*
Y2310D01*
X3532Y2258D02*
Y2275D01*
X3517Y2215D02*
X3547D01*
X3517Y2289D02*
X3547D01*
X3524Y2258D02*
X3540D01*
X3524Y2250D02*
X3540D01*
X3532Y2228D02*
Y2250D01*
X3362Y2173D02*
Y2190D01*
X3347Y2130D02*
X3377D01*
X3347Y2204D02*
X3377D01*
X3354Y2173D02*
X3370D01*
X3354Y2165D02*
X3370D01*
X3362Y2143D02*
Y2165D01*
Y2258D02*
Y2275D01*
X3347Y2215D02*
X3377D01*
X3347Y2289D02*
X3377D01*
X3354Y2258D02*
X3370D01*
X3354Y2250D02*
X3370D01*
X3362Y2228D02*
Y2250D01*
X3979Y562D02*
X3996D01*
X3936Y547D02*
Y577D01*
X4009Y547D02*
Y577D01*
X3979Y555D02*
Y570D01*
X3970Y555D02*
Y570D01*
X3949Y562D02*
X3970D01*
X3896Y100D02*
X3917D01*
Y93D02*
Y108D01*
X3925Y93D02*
Y108D01*
X3956Y85D02*
Y115D01*
X3882Y85D02*
Y115D01*
X3925Y100D02*
X3943D01*
X3843Y859D02*
Y881D01*
X3835D02*
X3851D01*
X3835Y889D02*
X3851D01*
X3828Y920D02*
X3858D01*
X3828Y846D02*
X3858D01*
X3843Y889D02*
Y906D01*
X3914Y1100D02*
X3936D01*
Y1093D02*
Y1108D01*
X3944Y1093D02*
Y1108D01*
X3975Y1085D02*
Y1115D01*
X3901Y1085D02*
Y1115D01*
X3944Y1100D02*
X3962D01*
X3844Y999D02*
Y1021D01*
X3836D02*
X3851D01*
X3836Y1029D02*
X3851D01*
X3829Y1060D02*
X3859D01*
X3829Y986D02*
X3859D01*
X3844Y1029D02*
Y1046D01*
Y929D02*
Y951D01*
X3836D02*
X3851D01*
X3836Y959D02*
X3851D01*
X3829Y990D02*
X3859D01*
X3829Y916D02*
X3859D01*
X3844Y959D02*
Y976D01*
X3634Y776D02*
X3655D01*
X3634Y768D02*
Y784D01*
X3625Y768D02*
Y784D01*
X3595Y761D02*
Y791D01*
X3668Y761D02*
Y791D01*
X3608Y776D02*
X3625D01*
X3368Y547D02*
X3390D01*
Y539D02*
Y555D01*
X3398Y539D02*
Y555D01*
X3429Y532D02*
Y562D01*
X3355Y532D02*
Y562D01*
X3398Y547D02*
X3415D01*
X3769Y342D02*
Y372D01*
X3699Y342D02*
Y372D01*
X3579Y458D02*
Y488D01*
X3509Y458D02*
Y488D01*
X3664Y342D02*
Y372D01*
X3594Y342D02*
Y372D01*
X3856Y608D02*
Y639D01*
X3803Y616D02*
X3807Y631D01*
X3815Y616D01*
X3819Y631D01*
X3827Y616D01*
X3831Y631D01*
X3835Y623D01*
X3799D02*
X3803Y616D01*
X3835Y623D02*
X3847D01*
X3787D02*
X3799D01*
X3778Y608D02*
Y639D01*
X3911Y412D02*
X3941D01*
X3911Y486D02*
X3941D01*
X3918Y461D02*
X3934Y457D01*
X3918Y449D02*
X3934Y457D01*
X3918Y449D02*
X3934Y445D01*
X3918Y437D02*
X3934Y445D01*
X3918Y437D02*
X3934Y433D01*
X3926Y430D02*
X3934Y433D01*
X3918Y461D02*
X3926Y465D01*
Y422D02*
Y430D01*
Y465D02*
Y473D01*
X3520Y761D02*
Y791D01*
X3594Y761D02*
Y791D01*
X3565Y768D02*
X3569Y784D01*
X3557D02*
X3565Y768D01*
X3553D02*
X3557Y784D01*
X3545D02*
X3553Y768D01*
X3541D02*
X3545Y784D01*
X3537Y776D02*
X3541Y768D01*
X3569Y784D02*
X3573Y776D01*
X3530D02*
X3537D01*
X3573D02*
X3581D01*
X3583Y608D02*
Y639D01*
X3530Y616D02*
X3534Y631D01*
X3541Y616D01*
X3545Y631D01*
X3553Y616D01*
X3557Y631D01*
X3561Y623D01*
X3526D02*
X3530Y616D01*
X3561Y623D02*
X3573D01*
X3514D02*
X3526D01*
X3504Y608D02*
Y639D01*
X3503Y534D02*
Y564D01*
X3429Y534D02*
Y564D01*
X3454Y541D02*
X3458Y556D01*
X3466Y541D01*
X3470Y556D01*
X3477Y541D01*
X3481Y556D01*
X3485Y549D01*
X3450D02*
X3454Y541D01*
X3485Y549D02*
X3493D01*
X3442D02*
X3450D01*
X3426Y486D02*
X3456D01*
X3426Y412D02*
X3456D01*
X3433Y441D02*
X3449Y437D01*
X3433Y441D02*
X3449Y449D01*
X3433Y453D02*
X3449Y449D01*
X3433Y453D02*
X3449Y461D01*
X3433Y465D02*
X3449Y461D01*
X3433Y465D02*
X3441Y469D01*
Y433D02*
X3449Y437D01*
X3441Y469D02*
Y477D01*
Y426D02*
Y433D01*
X3844Y1067D02*
Y1088D01*
X3836D02*
X3851D01*
X3836Y1097D02*
X3851D01*
X3829Y1128D02*
X3859D01*
X3829Y1054D02*
X3859D01*
X3844Y1097D02*
Y1114D01*
X1697Y757D02*
X1718D01*
X1697Y749D02*
Y765D01*
X1688Y749D02*
Y765D01*
X1657Y742D02*
Y772D01*
X1731Y742D02*
Y772D01*
X1671Y757D02*
X1688D01*
X1583Y742D02*
Y772D01*
X1657Y742D02*
Y772D01*
X1628Y749D02*
X1632Y765D01*
X1620D02*
X1628Y749D01*
X1616D02*
X1620Y765D01*
X1608D02*
X1616Y749D01*
X1604D02*
X1608Y765D01*
X1600Y757D02*
X1604Y749D01*
X1632Y765D02*
X1636Y757D01*
X1593D02*
X1600D01*
X1636D02*
X1644D01*
X1832Y323D02*
Y353D01*
X1762Y323D02*
Y353D01*
X1727Y323D02*
Y353D01*
X1657Y323D02*
Y353D01*
X1642Y439D02*
Y469D01*
X1572Y439D02*
Y469D01*
X1489Y467D02*
X1519D01*
X1489Y393D02*
X1519D01*
X1496Y422D02*
X1512Y418D01*
X1496Y422D02*
X1512Y430D01*
X1496Y434D02*
X1512Y430D01*
X1496Y434D02*
X1512Y442D01*
X1496Y446D02*
X1512Y442D01*
X1496Y446D02*
X1504Y450D01*
Y414D02*
X1512Y418D01*
X1504Y450D02*
Y458D01*
Y406D02*
Y414D01*
X1566Y515D02*
Y545D01*
X1492Y515D02*
Y545D01*
X1517Y522D02*
X1521Y537D01*
X1529Y522D01*
X1532Y537D01*
X1540Y522D01*
X1544Y537D01*
X1548Y530D01*
X1513Y530D02*
X1517Y522D01*
X1548Y530D02*
X1556Y530D01*
X1505D02*
X1513D01*
X1431Y528D02*
X1453D01*
Y520D02*
Y536D01*
X1461Y520D02*
Y536D01*
X1492Y513D02*
Y543D01*
X1418Y513D02*
Y543D01*
X1461Y528D02*
X1478D01*
X1646Y589D02*
Y620D01*
X1593Y596D02*
X1596Y612D01*
X1604Y596D01*
X1608Y612D01*
X1616Y596D01*
X1620Y612D01*
X1624Y604D01*
X1589D02*
X1593Y596D01*
X1624Y604D02*
X1636D01*
X1577D02*
X1589D01*
X1567Y589D02*
Y620D01*
X1919Y589D02*
Y620D01*
X1866Y596D02*
X1870Y612D01*
X1878Y596D01*
X1882Y612D01*
X1890Y596D01*
X1894Y612D01*
X1898Y604D01*
X1862D02*
X1866Y596D01*
X1898Y604D02*
X1909D01*
X1850D02*
X1862D01*
X1841Y589D02*
Y620D01*
X1974Y393D02*
X2004D01*
X1974Y467D02*
X2004D01*
X1981Y442D02*
X1997Y438D01*
X1981Y430D02*
X1997Y438D01*
X1981Y430D02*
X1997Y426D01*
X1981Y418D02*
X1997Y426D01*
X1981Y418D02*
X1997Y414D01*
X1989Y410D02*
X1997Y414D01*
X1981Y442D02*
X1989Y446D01*
Y403D02*
Y410D01*
Y446D02*
Y454D01*
X2012Y543D02*
X2033D01*
Y535D02*
Y551D01*
X2041Y535D02*
Y551D01*
X2072Y528D02*
Y558D01*
X1998Y528D02*
Y558D01*
X2041Y543D02*
X2059D01*
X1904Y1148D02*
Y1169D01*
X1896D02*
X1911D01*
X1896Y1177D02*
X1911D01*
X1889Y1208D02*
X1919D01*
X1889Y1134D02*
X1919D01*
X1904Y1177D02*
Y1195D01*
X1904Y862D02*
Y884D01*
X1896D02*
X1911D01*
X1896Y892D02*
X1911D01*
X1889Y923D02*
X1919D01*
X1889Y849D02*
X1919D01*
X1904Y892D02*
Y909D01*
Y1076D02*
Y1097D01*
X1896D02*
X1911D01*
X1896Y1105D02*
X1911D01*
X1889Y1136D02*
X1919D01*
X1889Y1062D02*
X1919D01*
X1904Y1105D02*
Y1123D01*
Y933D02*
Y955D01*
X1896D02*
X1911D01*
X1896Y963D02*
X1911D01*
X1889Y994D02*
X1919D01*
X1889Y920D02*
X1919D01*
X1904Y963D02*
Y980D01*
Y1005D02*
Y1026D01*
X1896D02*
X1911D01*
X1896Y1035D02*
X1911D01*
X1889Y1066D02*
X1919D01*
X1889Y992D02*
X1919D01*
X1904Y1035D02*
Y1052D01*
X4347Y2027D02*
X4364D01*
X4304Y2012D02*
Y2042D01*
X4378Y2012D02*
Y2042D01*
X4347Y2019D02*
Y2035D01*
X4339Y2019D02*
Y2035D01*
X4317Y2027D02*
X4339D01*
X4432D02*
X4450D01*
X4389Y2012D02*
Y2042D01*
X4463Y2012D02*
Y2042D01*
X4432Y2019D02*
Y2035D01*
X4424Y2019D02*
Y2035D01*
X4402Y2027D02*
X4424D01*
X4517D02*
X4535D01*
X4474Y2012D02*
Y2042D01*
X4548Y2012D02*
Y2042D01*
X4517Y2019D02*
Y2035D01*
X4509Y2019D02*
Y2035D01*
X4488Y2027D02*
X4509D01*
X4603D02*
X4620D01*
X4560Y2012D02*
Y2042D01*
X4634Y2012D02*
Y2042D01*
X4603Y2019D02*
Y2035D01*
X4595Y2019D02*
Y2035D01*
X4573Y2027D02*
X4595D01*
X3020Y167D02*
X3041D01*
X3020Y159D02*
Y175D01*
X3012Y159D02*
Y175D01*
X2981Y152D02*
Y182D01*
X3055Y152D02*
Y182D01*
X2994Y167D02*
X3012D01*
X2093Y2289D02*
Y2310D01*
X2086Y2289D02*
X2101D01*
X2086Y2280D02*
X2101D01*
X2078Y2249D02*
X2108D01*
X2078Y2323D02*
X2108D01*
X2093Y2263D02*
Y2280D01*
X2288Y2086D02*
X2310D01*
X2288Y2078D02*
Y2094D01*
X2280Y2078D02*
Y2094D01*
X2249Y2071D02*
Y2101D01*
X2323Y2071D02*
Y2101D01*
X2263Y2086D02*
X2280D01*
X2091Y1959D02*
Y1980D01*
X2083Y1959D02*
X2099D01*
X2083Y1951D02*
X2099D01*
X2076Y1920D02*
X2106D01*
X2076Y1994D02*
X2106D01*
X2091Y1933D02*
Y1951D01*
X1189Y2236D02*
X1210D01*
X1189Y2228D02*
Y2244D01*
X1180Y2228D02*
Y2244D01*
X1150Y2221D02*
Y2251D01*
X1223Y2221D02*
Y2251D01*
X1163Y2236D02*
X1180D01*
X1738Y1930D02*
Y1952D01*
X1730D02*
X1746D01*
X1730Y1960D02*
X1746D01*
X1723Y1991D02*
X1753D01*
X1723Y1917D02*
X1753D01*
X1738Y1960D02*
Y1977D01*
X1738Y2263D02*
Y2284D01*
X1731D02*
X1746D01*
X1731Y2292D02*
X1746D01*
X1723Y2323D02*
X1753D01*
X1723Y2249D02*
X1753D01*
X1738Y2292D02*
Y2310D01*
X1398Y2094D02*
X1420D01*
X1398Y2086D02*
Y2102D01*
X1390Y2086D02*
Y2102D01*
X1359Y2079D02*
Y2109D01*
X1433Y2079D02*
Y2109D01*
X1373Y2094D02*
X1390D01*
X2504Y2014D02*
Y2124D01*
X2339D02*
X2504D01*
X2339Y2014D02*
Y2124D01*
Y2014D02*
X2504D01*
X879Y2219D02*
X1143D01*
X879Y2342D02*
X1143D01*
X879Y2219D02*
Y2342D01*
X1143Y2219D02*
Y2342D01*
X4325Y2182D02*
X4346D01*
X4325Y2174D02*
Y2190D01*
X4317Y2174D02*
Y2190D01*
X4286Y2167D02*
Y2197D01*
X4360Y2167D02*
Y2197D01*
X4299Y2182D02*
X4317D01*
X4380Y2191D02*
X4644D01*
X4380Y2313D02*
X4644D01*
X4380Y2191D02*
Y2313D01*
X4644Y2191D02*
Y2313D01*
X4690Y2177D02*
X4711D01*
X4690Y2169D02*
Y2185D01*
X4682Y2169D02*
Y2185D01*
X4651Y2162D02*
Y2192D01*
X4725Y2162D02*
Y2192D01*
X4664Y2177D02*
X4682D01*
X3188Y2030D02*
X3205D01*
X3145Y2015D02*
Y2045D01*
X3219Y2015D02*
Y2045D01*
X3188Y2022D02*
Y2038D01*
X3180Y2022D02*
Y2038D01*
X3158Y2030D02*
X3180D01*
X4048Y2022D02*
X4070D01*
Y2014D02*
Y2030D01*
X4078Y2014D02*
Y2030D01*
X4109Y2007D02*
Y2037D01*
X4035Y2007D02*
Y2037D01*
X4078Y2022D02*
X4095D01*
X4124Y1972D02*
Y2082D01*
Y1972D02*
X4289D01*
Y2082D01*
X4124D02*
X4289D01*
X2778Y2047D02*
X2800D01*
Y2039D02*
Y2055D01*
X2808Y2039D02*
Y2055D01*
X2839Y2032D02*
Y2062D01*
X2765Y2032D02*
Y2062D01*
X2808Y2047D02*
X2825D01*
X2863D02*
X2885D01*
Y2039D02*
Y2055D01*
X2893Y2039D02*
Y2055D01*
X2924Y2032D02*
Y2062D01*
X2850Y2032D02*
Y2062D01*
X2893Y2047D02*
X2910D01*
X3717Y2163D02*
Y2184D01*
X3709Y2163D02*
X3725D01*
X3709Y2155D02*
X3725D01*
X3702Y2124D02*
X3732D01*
X3702Y2198D02*
X3732D01*
X3717Y2137D02*
Y2155D01*
Y2254D02*
Y2275D01*
X3709Y2254D02*
X3725D01*
X3709Y2246D02*
X3725D01*
X3702Y2215D02*
X3732D01*
X3702Y2289D02*
X3732D01*
X3717Y2228D02*
Y2246D01*
X2964Y1992D02*
Y2102D01*
Y1992D02*
X3129D01*
Y2102D01*
X2964D02*
X3129D01*
X2227Y1397D02*
X2249D01*
Y1389D02*
Y1405D01*
X2257Y1389D02*
Y1405D01*
X2288Y1382D02*
Y1412D01*
X2214Y1382D02*
Y1412D01*
X2257Y1397D02*
X2275D01*
X2328Y1469D02*
X2349D01*
X2328Y1462D02*
Y1477D01*
X2320Y1462D02*
Y1477D01*
X2289Y1454D02*
Y1484D01*
X2363Y1454D02*
Y1484D01*
X2302Y1469D02*
X2320D01*
X1132Y1467D02*
X1153D01*
Y1459D02*
Y1474D01*
X1162Y1459D02*
Y1474D01*
X1192Y1452D02*
Y1482D01*
X1119Y1452D02*
Y1482D01*
X1162Y1467D02*
X1179D01*
X1205D02*
X1226D01*
Y1459D02*
Y1474D01*
X1234Y1459D02*
Y1474D01*
X1265Y1452D02*
Y1482D01*
X1191Y1452D02*
Y1482D01*
X1234Y1467D02*
X1252D01*
X2197Y1474D02*
X2227D01*
X2197Y1544D02*
X2227D01*
X1306Y1424D02*
X1336D01*
X1306Y1494D02*
X1336D01*
X2196Y1586D02*
X2226D01*
X2196Y1656D02*
X2226D01*
X1321Y1556D02*
X1351D01*
X1321Y1626D02*
X1351D01*
X2194Y1677D02*
X2224D01*
X2194Y1747D02*
X2224D01*
X1282Y1776D02*
X1312D01*
X1282Y1706D02*
X1312D01*
X1280Y1871D02*
X1310D01*
X1280Y1801D02*
X1310D01*
X2002Y1602D02*
X2032D01*
X2002Y1676D02*
X2032D01*
X2009Y1651D02*
X2024Y1647D01*
X2009Y1639D02*
X2024Y1647D01*
X2009Y1639D02*
X2024Y1635D01*
X2009Y1627D02*
X2024Y1635D01*
X2009Y1627D02*
X2024Y1624D01*
X2017Y1620D02*
X2024Y1624D01*
X2009Y1651D02*
X2017Y1655D01*
Y1612D02*
Y1620D01*
Y1655D02*
Y1663D01*
X1470Y1715D02*
X1500D01*
X1470Y1641D02*
X1500D01*
X1477Y1670D02*
X1493Y1666D01*
X1477Y1670D02*
X1493Y1678D01*
X1477Y1682D02*
X1493Y1678D01*
X1477Y1682D02*
X1493Y1690D01*
X1477Y1694D02*
X1493Y1690D01*
X1477Y1694D02*
X1485Y1698D01*
Y1662D02*
X1493Y1666D01*
X1485Y1698D02*
Y1706D01*
Y1655D02*
Y1662D01*
X3454Y1629D02*
Y1651D01*
X3446D02*
X3462D01*
X3446Y1659D02*
X3462D01*
X3439Y1690D02*
X3469D01*
X3439Y1616D02*
X3469D01*
X3454Y1659D02*
Y1676D01*
X3719Y1650D02*
Y1671D01*
X3711Y1650D02*
X3727D01*
X3711Y1642D02*
X3727D01*
X3704Y1611D02*
X3734D01*
X3704Y1685D02*
X3734D01*
X3719Y1624D02*
Y1642D01*
X3219Y1688D02*
X3249D01*
X3219Y1618D02*
X3249D01*
X3136Y1688D02*
X3158D01*
X3136Y1680D02*
Y1696D01*
X3128Y1680D02*
Y1696D01*
X3097Y1673D02*
Y1703D01*
X3171Y1673D02*
Y1703D01*
X3110Y1688D02*
X3128D01*
X3051D02*
X3073D01*
X3051Y1680D02*
Y1696D01*
X3043Y1680D02*
Y1696D01*
X3012Y1673D02*
Y1703D01*
X3086Y1673D02*
Y1703D01*
X3025Y1688D02*
X3043D01*
X4178Y1687D02*
X4200D01*
X4178Y1679D02*
Y1695D01*
X4170Y1679D02*
Y1695D01*
X4139Y1672D02*
Y1702D01*
X4213Y1672D02*
Y1702D01*
X4153Y1687D02*
X4170D01*
X4093D02*
X4115D01*
X4093Y1679D02*
Y1695D01*
X4085Y1679D02*
Y1695D01*
X4054Y1672D02*
Y1702D01*
X4128Y1672D02*
Y1702D01*
X4068Y1687D02*
X4085D01*
X3966Y1687D02*
X3996D01*
X3966Y1617D02*
X3996D01*
X3813Y1651D02*
X3834D01*
Y1643D02*
Y1658D01*
X3843Y1643D02*
Y1658D01*
X3874Y1636D02*
Y1666D01*
X3800Y1636D02*
Y1666D01*
X3843Y1651D02*
X3860D01*
X3967Y1440D02*
X3997D01*
X3967Y1510D02*
X3997D01*
X3965Y1362D02*
X3995D01*
X3965Y1432D02*
X3995D01*
X3966Y1605D02*
X3996D01*
X3966Y1535D02*
X3996D01*
X3331Y1519D02*
X3361D01*
X3331Y1445D02*
X3361D01*
X3338Y1474D02*
X3354Y1470D01*
X3338Y1474D02*
X3354Y1482D01*
X3338Y1486D02*
X3354Y1482D01*
X3338Y1486D02*
X3354Y1494D01*
X3338Y1498D02*
X3354Y1494D01*
X3338Y1498D02*
X3346Y1501D01*
Y1466D02*
X3354Y1470D01*
X3346Y1501D02*
Y1509D01*
Y1458D02*
Y1466D01*
X3828Y1440D02*
X3858D01*
X3828Y1514D02*
X3858D01*
X3835Y1489D02*
X3850Y1485D01*
X3835Y1477D02*
X3850Y1485D01*
X3835Y1477D02*
X3850Y1473D01*
X3835Y1466D02*
X3850Y1473D01*
X3835Y1466D02*
X3850Y1462D01*
X3843Y1458D02*
X3850Y1462D01*
X3835Y1489D02*
X3843Y1493D01*
Y1450D02*
Y1458D01*
Y1493D02*
Y1501D01*
X3828Y1359D02*
X3858D01*
X3828Y1433D02*
X3858D01*
X3835Y1407D02*
X3850Y1404D01*
X3835Y1396D02*
X3850Y1404D01*
X3835Y1396D02*
X3850Y1392D01*
X3835Y1384D02*
X3850Y1392D01*
X3835Y1384D02*
X3850Y1380D01*
X3843Y1376D02*
X3850Y1380D01*
X3835Y1407D02*
X3843Y1411D01*
Y1368D02*
Y1376D01*
Y1411D02*
Y1419D01*
X3201Y1442D02*
X3231D01*
X3201Y1372D02*
X3231D01*
X3212Y1603D02*
X3242D01*
X3212Y1533D02*
X3242D01*
X3201Y1517D02*
X3231D01*
X3201Y1447D02*
X3231D01*
X3331Y1444D02*
X3361D01*
X3331Y1370D02*
X3361D01*
X3338Y1399D02*
X3354Y1395D01*
X3338Y1399D02*
X3354Y1407D01*
X3338Y1411D02*
X3354Y1407D01*
X3338Y1411D02*
X3354Y1419D01*
X3338Y1423D02*
X3354Y1419D01*
X3338Y1423D02*
X3346Y1426D01*
Y1391D02*
X3354Y1395D01*
X3346Y1426D02*
Y1434D01*
Y1383D02*
Y1391D01*
X2427Y335D02*
Y352D01*
X2412Y395D02*
X2442D01*
X2412Y321D02*
X2442D01*
X2419Y352D02*
X2435D01*
X2419Y360D02*
X2435D01*
X2427D02*
Y382D01*
Y238D02*
Y256D01*
X2412Y299D02*
X2442D01*
X2412Y225D02*
X2442D01*
X2419Y256D02*
X2435D01*
X2419Y264D02*
X2435D01*
X2427D02*
Y286D01*
X3701Y776D02*
X3718D01*
X3761Y761D02*
Y791D01*
X3688Y761D02*
Y791D01*
X3718Y768D02*
Y784D01*
X3727Y768D02*
Y784D01*
Y776D02*
X3748D01*
X3781Y458D02*
Y488D01*
X3851Y458D02*
Y488D01*
X3814Y776D02*
X3822D01*
X3771D02*
X3779D01*
X3810Y784D02*
X3814Y776D01*
X3779D02*
X3783Y768D01*
X3786Y784D01*
X3794Y768D01*
X3798Y784D01*
X3806Y768D01*
X3810Y784D01*
X3835Y761D02*
Y791D01*
X3761Y761D02*
Y791D01*
X2867Y1212D02*
Y1230D01*
X2852Y1273D02*
X2882D01*
X2852Y1199D02*
X2882D01*
X2859Y1230D02*
X2875D01*
X2859Y1238D02*
X2875D01*
X2867D02*
Y1260D01*
X2889Y1758D02*
Y1766D01*
Y1801D02*
Y1809D01*
Y1766D02*
X2897Y1770D01*
X2881Y1797D02*
X2889Y1801D01*
X2881Y1797D02*
X2897Y1793D01*
X2881Y1785D02*
X2897Y1793D01*
X2881Y1785D02*
X2897Y1781D01*
X2881Y1774D02*
X2897Y1781D01*
X2881Y1774D02*
X2897Y1770D01*
X2874Y1745D02*
X2904D01*
X2874Y1818D02*
X2904D01*
X2512Y962D02*
Y970D01*
Y918D02*
Y926D01*
X2504Y958D02*
X2512Y962D01*
Y926D02*
X2520Y930D01*
X2504Y934D02*
X2520Y930D01*
X2504Y934D02*
X2520Y942D01*
X2504Y946D02*
X2520Y942D01*
X2504Y946D02*
X2520Y954D01*
X2504Y958D02*
X2520Y954D01*
X2497Y983D02*
X2527D01*
X2497Y909D02*
X2527D01*
X2612Y271D02*
X2620D01*
X2569D02*
X2577D01*
X2608Y279D02*
X2612Y271D01*
X2577D02*
X2581Y263D01*
X2585Y279D01*
X2593Y263D01*
X2597Y279D01*
X2605Y263D01*
X2608Y279D01*
X2634Y256D02*
Y286D01*
X2560Y256D02*
Y286D01*
X1877Y757D02*
X1885D01*
X1834D02*
X1842D01*
X1873Y765D02*
X1877Y757D01*
X1842D02*
X1845Y749D01*
X1849Y765D01*
X1857Y749D01*
X1861Y765D01*
X1869Y749D01*
X1873Y765D01*
X1898Y742D02*
Y772D01*
X1824Y742D02*
Y772D01*
X1844Y439D02*
Y469D01*
X1914Y439D02*
Y469D01*
X1764Y757D02*
X1781D01*
X1824Y742D02*
Y772D01*
X1750Y742D02*
Y772D01*
X1781Y749D02*
Y765D01*
X1790Y749D02*
Y765D01*
Y757D02*
X1811D01*
X3141Y2625D02*
Y2586D01*
X3167D01*
X3180D02*
Y2592D01*
X3187D01*
Y2586D01*
X3180D01*
X3252Y2625D02*
Y2586D01*
Y2605D01*
X3278D01*
Y2625D01*
Y2586D01*
X3292D02*
Y2592D01*
X3298D01*
Y2586D01*
X3292D01*
X3364Y2625D02*
Y2586D01*
X3383D01*
X3390Y2592D01*
Y2618D01*
X3383Y2625D01*
X3364D01*
X3403Y2586D02*
Y2592D01*
X3410D01*
Y2586D01*
X3403D01*
X3475D02*
Y2625D01*
X3495D01*
X3502Y2618D01*
Y2605D01*
X3495Y2599D01*
X3475D01*
X3521Y2586D02*
X3534D01*
X3541Y2592D01*
Y2605D01*
X3534Y2612D01*
X3521D01*
X3515Y2605D01*
Y2592D01*
X3521Y2586D01*
X3554D02*
X3574D01*
X3580Y2592D01*
X3574Y2599D01*
X3561D01*
X3554Y2605D01*
X3561Y2612D01*
X3580D01*
X3593Y2586D02*
X3613D01*
X3620Y2592D01*
X3613Y2599D01*
X3600D01*
X3593Y2605D01*
X3600Y2612D01*
X3620D01*
X3639D02*
X3652D01*
X3659Y2605D01*
Y2586D01*
X3639D01*
X3633Y2592D01*
X3639Y2599D01*
X3659D01*
X3679Y2618D02*
Y2612D01*
X3672D01*
X3685D01*
X3679D01*
Y2592D01*
X3685Y2586D01*
X3711Y2618D02*
Y2612D01*
X3705D01*
X3718D01*
X3711D01*
Y2592D01*
X3718Y2586D01*
X3738D02*
X3751D01*
X3744D01*
Y2612D01*
X3738D01*
X3777Y2579D02*
X3784Y2586D01*
Y2592D01*
X3777D01*
Y2586D01*
X3784D01*
X3777Y2579D01*
X3770Y2573D01*
X3875Y2625D02*
X3862D01*
X3869D01*
Y2592D01*
X3862Y2586D01*
X3856D01*
X3849Y2592D01*
X3889Y2586D02*
Y2592D01*
X3895D01*
Y2586D01*
X3889D01*
X3987Y2625D02*
X3961D01*
Y2605D01*
X3974D01*
X3961D01*
Y2586D01*
X4000D02*
Y2592D01*
X4007D01*
Y2586D01*
X4000D01*
X4098Y2618D02*
X4092Y2625D01*
X4079D01*
X4072Y2618D01*
Y2592D01*
X4079Y2586D01*
X4092D01*
X4098Y2592D01*
Y2605D01*
X4085D01*
X4112Y2612D02*
Y2592D01*
X4118Y2586D01*
X4138D01*
Y2612D01*
X4171Y2586D02*
X4157D01*
X4151Y2592D01*
Y2605D01*
X4157Y2612D01*
X4171D01*
X4177Y2605D01*
Y2599D01*
X4151D01*
X4190Y2612D02*
Y2586D01*
Y2599D01*
X4197Y2605D01*
X4203Y2612D01*
X4210D01*
X4230D02*
Y2586D01*
Y2599D01*
X4236Y2605D01*
X4243Y2612D01*
X4249D01*
X4289Y2586D02*
X4276D01*
X4269Y2592D01*
Y2605D01*
X4276Y2612D01*
X4289D01*
X4295Y2605D01*
Y2599D01*
X4269D01*
X4308Y2586D02*
X4321D01*
X4315D01*
Y2612D01*
X4308D01*
X4341D02*
Y2586D01*
Y2599D01*
X4348Y2605D01*
X4354Y2612D01*
X4361D01*
X4387Y2586D02*
X4400D01*
X4407Y2592D01*
Y2605D01*
X4400Y2612D01*
X4387D01*
X4381Y2605D01*
Y2592D01*
X4387Y2586D01*
X4426Y2579D02*
X4433Y2586D01*
Y2592D01*
X4426D01*
Y2586D01*
X4433D01*
X4426Y2579D01*
X4420Y2573D01*
X4499Y2625D02*
Y2586D01*
Y2605D01*
X4525D01*
Y2625D01*
Y2586D01*
X4538D02*
Y2592D01*
X4544D01*
Y2586D01*
X4538D01*
X4636Y2618D02*
X4630Y2625D01*
X4617D01*
X4610Y2618D01*
Y2592D01*
X4617Y2586D01*
X4630D01*
X4636Y2592D01*
Y2605D01*
X4623D01*
X4649Y2586D02*
Y2592D01*
X4656D01*
Y2586D01*
X4649D01*
X4748Y2625D02*
X4735D01*
X4741D01*
Y2592D01*
X4735Y2586D01*
X4728D01*
X4722Y2592D01*
X4761Y2612D02*
Y2592D01*
X4768Y2586D01*
X4787D01*
Y2612D01*
X4800Y2586D02*
Y2612D01*
X4820D01*
X4827Y2605D01*
Y2586D01*
X4840D02*
X4853D01*
X4846D01*
Y2612D01*
X4840D01*
X4879Y2586D02*
X4892D01*
X4899Y2592D01*
Y2605D01*
X4892Y2612D01*
X4879D01*
X4872Y2605D01*
Y2592D01*
X4879Y2586D01*
X4912Y2612D02*
Y2586D01*
Y2599D01*
X4918Y2605D01*
X4925Y2612D01*
X4932D01*
X857Y1983D02*
X873D01*
X865D01*
Y1960D01*
X880D02*
Y1983D01*
X892D01*
X896Y1979D01*
Y1971D01*
X892Y1968D01*
X880D01*
X904Y1956D02*
X920D01*
X928Y1960D02*
X935D01*
X932D01*
Y1983D01*
X928Y1979D01*
X963Y1960D02*
X947D01*
X963Y1975D01*
Y1979D01*
X959Y1983D01*
X951D01*
X947Y1979D01*
X971Y1983D02*
Y1968D01*
X979Y1960D01*
X987Y1968D01*
Y1983D01*
X444Y1977D02*
X460D01*
X452D01*
Y1954D01*
X468D02*
Y1977D01*
X480D01*
X484Y1973D01*
Y1966D01*
X480Y1962D01*
X468D01*
X492Y1950D02*
X507D01*
X515Y1973D02*
X519Y1977D01*
X527D01*
X531Y1973D01*
Y1958D01*
X527Y1954D01*
X519D01*
X515Y1958D01*
Y1973D01*
X539Y1977D02*
Y1962D01*
X547Y1954D01*
X555Y1962D01*
Y1977D01*
X4749Y2014D02*
X4765D01*
X4757D01*
Y1990D01*
X4773D02*
Y2014D01*
X4784D01*
X4788Y2010D01*
Y2002D01*
X4784Y1998D01*
X4773D01*
X4796Y1986D02*
X4812D01*
X4820Y1990D02*
X4828D01*
X4824D01*
Y2014D01*
X4820Y2010D01*
X4855Y1990D02*
X4840D01*
X4855Y2006D01*
Y2010D01*
X4851Y2014D01*
X4843D01*
X4840Y2010D01*
X4863Y2014D02*
Y1998D01*
X4871Y1990D01*
X4879Y1998D01*
Y2014D01*
X4753Y2082D02*
X4769D01*
X4761D01*
Y2058D01*
X4777D02*
Y2082D01*
X4788D01*
X4792Y2078D01*
Y2070D01*
X4788Y2066D01*
X4777D01*
X4800Y2054D02*
X4816D01*
X4824Y2078D02*
X4828Y2082D01*
X4836D01*
X4840Y2078D01*
Y2062D01*
X4836Y2058D01*
X4828D01*
X4824Y2062D01*
Y2078D01*
X4847Y2082D02*
Y2066D01*
X4855Y2058D01*
X4863Y2066D01*
Y2082D01*
X643Y1918D02*
X659D01*
X651D01*
Y1895D01*
X667D02*
Y1918D01*
X679D01*
X683Y1914D01*
Y1906D01*
X679Y1903D01*
X667D01*
X690Y1891D02*
X706D01*
X730Y1918D02*
X714D01*
Y1906D01*
X722Y1910D01*
X726D01*
X730Y1906D01*
Y1899D01*
X726Y1895D01*
X718D01*
X714Y1899D01*
X738Y1918D02*
Y1903D01*
X746Y1895D01*
X753Y1903D01*
Y1918D01*
X4871Y2156D02*
X4887D01*
X4879D01*
Y2132D01*
X4895D02*
Y2156D01*
X4906D01*
X4910Y2152D01*
Y2144D01*
X4906Y2140D01*
X4895D01*
X4918Y2128D02*
X4934D01*
X4958Y2156D02*
X4942D01*
Y2144D01*
X4950Y2148D01*
X4954D01*
X4958Y2144D01*
Y2136D01*
X4954Y2132D01*
X4946D01*
X4942Y2136D01*
X4966Y2156D02*
Y2140D01*
X4973Y2132D01*
X4981Y2140D01*
Y2156D01*
X2031Y829D02*
X2047D01*
X2039D01*
Y805D01*
X2055D02*
Y829D01*
X2067D01*
X2071Y825D01*
Y817D01*
X2067Y813D01*
X2055D01*
X2079Y801D02*
X2094D01*
X2102Y805D02*
X2110D01*
X2106D01*
Y829D01*
X2102Y825D01*
X2138Y805D02*
X2122D01*
X2138Y821D01*
Y825D01*
X2134Y829D01*
X2126D01*
X2122Y825D01*
X2146Y829D02*
Y813D01*
X2154Y805D01*
X2161Y813D01*
Y829D01*
X2047Y899D02*
X2063D01*
X2055D01*
Y875D01*
X2071D02*
Y899D01*
X2083D01*
X2087Y895D01*
Y887D01*
X2083Y883D01*
X2071D01*
X2094Y871D02*
X2110D01*
X2134Y895D02*
X2130Y899D01*
X2122D01*
X2118Y895D01*
Y879D01*
X2122Y875D01*
X2130D01*
X2134Y879D01*
Y887D01*
X2126D01*
X2142Y875D02*
Y899D01*
X2157Y875D01*
Y899D01*
X2165D02*
Y875D01*
X2177D01*
X2181Y879D01*
Y895D01*
X2177Y899D01*
X2165D01*
X1775Y204D02*
X1790D01*
X1782D01*
Y180D01*
X1798D02*
Y204D01*
X1810D01*
X1814Y200D01*
Y192D01*
X1810Y188D01*
X1798D01*
X1822Y176D02*
X1838D01*
X1861Y200D02*
X1857Y204D01*
X1849D01*
X1845Y200D01*
Y184D01*
X1849Y180D01*
X1857D01*
X1861Y184D01*
Y192D01*
X1853D01*
X1869Y180D02*
X1877D01*
X1873D01*
Y204D01*
X1869Y200D01*
X1921Y199D02*
X1937D01*
X1929D01*
Y175D01*
X1945D02*
Y199D01*
X1957D01*
X1961Y195D01*
Y187D01*
X1957Y183D01*
X1945D01*
X1968Y171D02*
X1984D01*
X2008Y195D02*
X2004Y199D01*
X1996D01*
X1992Y195D01*
Y191D01*
X1996Y187D01*
X2004D01*
X2008Y183D01*
Y179D01*
X2004Y175D01*
X1996D01*
X1992Y179D01*
X2016Y175D02*
X2024D01*
X2020D01*
Y199D01*
X2016Y195D01*
X1589Y200D02*
X1604D01*
X1596D01*
Y176D01*
X1612D02*
Y200D01*
X1624D01*
X1628Y196D01*
Y188D01*
X1624Y184D01*
X1612D01*
X1636Y172D02*
X1652D01*
X1675Y196D02*
X1671Y200D01*
X1663D01*
X1659Y196D01*
Y180D01*
X1663Y176D01*
X1671D01*
X1675Y180D01*
Y188D01*
X1667D01*
X1699Y176D02*
X1683D01*
X1699Y192D01*
Y196D01*
X1695Y200D01*
X1687D01*
X1683Y196D01*
X1437Y200D02*
X1453D01*
X1445D01*
Y176D01*
X1461D02*
Y200D01*
X1472D01*
X1476Y196D01*
Y188D01*
X1472Y184D01*
X1461D01*
X1484Y172D02*
X1500D01*
X1524Y196D02*
X1520Y200D01*
X1512D01*
X1508Y196D01*
Y192D01*
X1512Y188D01*
X1520D01*
X1524Y184D01*
Y180D01*
X1520Y176D01*
X1512D01*
X1508Y180D01*
X1547Y176D02*
X1531D01*
X1547Y192D01*
Y196D01*
X1543Y200D01*
X1535D01*
X1531Y196D01*
X3292Y214D02*
X3308D01*
X3300D01*
Y190D01*
X3316D02*
Y214D01*
X3328D01*
X3332Y210D01*
Y202D01*
X3328Y198D01*
X3316D01*
X3340Y186D02*
X3355D01*
X3379Y210D02*
X3375Y214D01*
X3367D01*
X3363Y210D01*
Y206D01*
X3367Y202D01*
X3375D01*
X3379Y198D01*
Y194D01*
X3375Y190D01*
X3367D01*
X3363Y194D01*
X3403Y190D02*
X3387D01*
X3403Y206D01*
Y210D01*
X3399Y214D01*
X3391D01*
X3387Y210D01*
X3500Y218D02*
X3516D01*
X3508D01*
Y195D01*
X3524D02*
Y218D01*
X3535D01*
X3539Y215D01*
Y207D01*
X3535Y203D01*
X3524D01*
X3547Y191D02*
X3563D01*
X3587Y215D02*
X3583Y218D01*
X3575D01*
X3571Y215D01*
Y199D01*
X3575Y195D01*
X3583D01*
X3587Y199D01*
Y207D01*
X3579D01*
X3610Y195D02*
X3594D01*
X3610Y211D01*
Y215D01*
X3606Y218D01*
X3598D01*
X3594Y215D01*
X3901Y222D02*
X3916D01*
X3909D01*
Y199D01*
X3924D02*
Y222D01*
X3936D01*
X3940Y218D01*
Y210D01*
X3936Y206D01*
X3924D01*
X3948Y195D02*
X3964D01*
X3987Y218D02*
X3983Y222D01*
X3975D01*
X3972Y218D01*
Y214D01*
X3975Y210D01*
X3983D01*
X3987Y206D01*
Y203D01*
X3983Y199D01*
X3975D01*
X3972Y203D01*
X3995Y199D02*
X4003D01*
X3999D01*
Y222D01*
X3995Y218D01*
X3679Y217D02*
X3695D01*
X3687D01*
Y193D01*
X3703D02*
Y217D01*
X3715D01*
X3718Y213D01*
Y205D01*
X3715Y201D01*
X3703D01*
X3726Y189D02*
X3742D01*
X3766Y213D02*
X3762Y217D01*
X3754D01*
X3750Y213D01*
Y197D01*
X3754Y193D01*
X3762D01*
X3766Y197D01*
Y205D01*
X3758D01*
X3774Y193D02*
X3781D01*
X3778D01*
Y217D01*
X3774Y213D01*
X3964Y942D02*
X3979D01*
X3971D01*
Y918D01*
X3987D02*
Y942D01*
X3999D01*
X4003Y938D01*
Y930D01*
X3999Y926D01*
X3987D01*
X4011Y914D02*
X4027D01*
X4050Y938D02*
X4046Y942D01*
X4038D01*
X4034Y938D01*
Y922D01*
X4038Y918D01*
X4046D01*
X4050Y922D01*
Y930D01*
X4042D01*
X4058Y918D02*
Y942D01*
X4074Y918D01*
Y942D01*
X4082D02*
Y918D01*
X4093D01*
X4097Y922D01*
Y938D01*
X4093Y942D01*
X4082D01*
X3921Y833D02*
X3937D01*
X3929D01*
Y809D01*
X3945D02*
Y833D01*
X3957D01*
X3961Y829D01*
Y821D01*
X3957Y817D01*
X3945D01*
X3968Y805D02*
X3984D01*
X3992Y809D02*
X4000D01*
X3996D01*
Y833D01*
X3992Y829D01*
X4028Y809D02*
X4012D01*
X4028Y825D01*
Y829D01*
X4024Y833D01*
X4016D01*
X4012Y829D01*
X4035Y833D02*
Y817D01*
X4043Y809D01*
X4051Y817D01*
Y833D01*
X2907Y1081D02*
X2903Y1085D01*
X2896D01*
X2892Y1081D01*
Y1065D01*
X2896Y1061D01*
X2903D01*
X2907Y1065D01*
X2915Y1061D02*
X2923D01*
X2919D01*
Y1085D01*
X2915D01*
X2939Y1061D02*
X2947D01*
X2951Y1065D01*
Y1073D01*
X2947Y1077D01*
X2939D01*
X2935Y1073D01*
Y1065D01*
X2939Y1061D01*
X2959D02*
X2970D01*
X2974Y1065D01*
X2970Y1069D01*
X2962D01*
X2959Y1073D01*
X2962Y1077D01*
X2974D01*
X2994Y1061D02*
X2986D01*
X2982Y1065D01*
Y1073D01*
X2986Y1077D01*
X2994D01*
X2998Y1073D01*
Y1069D01*
X2982D01*
X3033Y1081D02*
Y1077D01*
X3029D01*
X3037D01*
X3033D01*
Y1065D01*
X3037Y1061D01*
X3053D02*
X3061D01*
X3065Y1065D01*
Y1073D01*
X3061Y1077D01*
X3053D01*
X3049Y1073D01*
Y1065D01*
X3053Y1061D01*
X3112Y1085D02*
Y1061D01*
X3100D01*
X3096Y1065D01*
Y1073D01*
X3100Y1077D01*
X3112D01*
X3120Y1061D02*
X3128D01*
X3124D01*
Y1077D01*
X3120D01*
X3140Y1061D02*
X3151D01*
X3155Y1065D01*
X3151Y1069D01*
X3144D01*
X3140Y1073D01*
X3144Y1077D01*
X3155D01*
X3167D02*
X3175D01*
X3179Y1073D01*
Y1061D01*
X3167D01*
X3163Y1065D01*
X3167Y1069D01*
X3179D01*
X3187Y1085D02*
Y1061D01*
X3199D01*
X3203Y1065D01*
Y1069D01*
Y1073D01*
X3199Y1077D01*
X3187D01*
X3210Y1061D02*
X3218D01*
X3214D01*
Y1085D01*
X3210D01*
X3242Y1061D02*
X3234D01*
X3230Y1065D01*
Y1073D01*
X3234Y1077D01*
X3242D01*
X3246Y1073D01*
Y1069D01*
X3230D01*
X3277Y1085D02*
Y1061D01*
Y1073D01*
X3293D01*
Y1085D01*
Y1061D01*
X3317Y1081D02*
X3313Y1085D01*
X3305D01*
X3301Y1081D01*
Y1077D01*
X3305Y1073D01*
X3313D01*
X3317Y1069D01*
Y1065D01*
X3313Y1061D01*
X3305D01*
X3301Y1065D01*
X3364Y1085D02*
Y1061D01*
X3352D01*
X3348Y1065D01*
Y1073D01*
X3352Y1077D01*
X3364D01*
X3384Y1061D02*
X3376D01*
X3372Y1065D01*
Y1073D01*
X3376Y1077D01*
X3384D01*
X3388Y1073D01*
Y1069D01*
X3372D01*
X3399Y1077D02*
X3407D01*
X3411Y1073D01*
Y1061D01*
X3399D01*
X3395Y1065D01*
X3399Y1069D01*
X3411D01*
X3435Y1085D02*
Y1061D01*
X3423D01*
X3419Y1065D01*
Y1073D01*
X3423Y1077D01*
X3435D01*
X3447Y1081D02*
Y1077D01*
X3443D01*
X3451D01*
X3447D01*
Y1065D01*
X3451Y1061D01*
X3462D02*
X3470D01*
X3466D01*
Y1077D01*
X3462D01*
X3482Y1061D02*
Y1077D01*
X3486D01*
X3490Y1073D01*
Y1061D01*
Y1073D01*
X3494Y1077D01*
X3498Y1073D01*
Y1061D01*
X3517D02*
X3510D01*
X3506Y1065D01*
Y1073D01*
X3510Y1077D01*
X3517D01*
X3521Y1073D01*
Y1069D01*
X3506D01*
X2017Y1161D02*
X2013Y1165D01*
X2006D01*
X2002Y1161D01*
Y1145D01*
X2006Y1141D01*
X2013D01*
X2017Y1145D01*
X2025Y1141D02*
X2033D01*
X2029D01*
Y1165D01*
X2025D01*
X2049Y1141D02*
X2057D01*
X2061Y1145D01*
Y1153D01*
X2057Y1157D01*
X2049D01*
X2045Y1153D01*
Y1145D01*
X2049Y1141D01*
X2069D02*
X2080D01*
X2084Y1145D01*
X2080Y1149D01*
X2072D01*
X2069Y1153D01*
X2072Y1157D01*
X2084D01*
X2104Y1141D02*
X2096D01*
X2092Y1145D01*
Y1153D01*
X2096Y1157D01*
X2104D01*
X2108Y1153D01*
Y1149D01*
X2092D01*
X2143Y1161D02*
Y1157D01*
X2139D01*
X2147D01*
X2143D01*
Y1145D01*
X2147Y1141D01*
X2163D02*
X2171D01*
X2175Y1145D01*
Y1153D01*
X2171Y1157D01*
X2163D01*
X2159Y1153D01*
Y1145D01*
X2163Y1141D01*
X2222Y1165D02*
Y1141D01*
X2210D01*
X2206Y1145D01*
Y1153D01*
X2210Y1157D01*
X2222D01*
X2230Y1141D02*
X2238D01*
X2234D01*
Y1157D01*
X2230D01*
X2250Y1141D02*
X2261D01*
X2265Y1145D01*
X2261Y1149D01*
X2254D01*
X2250Y1153D01*
X2254Y1157D01*
X2265D01*
X2277D02*
X2285D01*
X2289Y1153D01*
Y1141D01*
X2277D01*
X2273Y1145D01*
X2277Y1149D01*
X2289D01*
X2297Y1165D02*
Y1141D01*
X2309D01*
X2313Y1145D01*
Y1149D01*
Y1153D01*
X2309Y1157D01*
X2297D01*
X2320Y1141D02*
X2328D01*
X2324D01*
Y1165D01*
X2320D01*
X2352Y1141D02*
X2344D01*
X2340Y1145D01*
Y1153D01*
X2344Y1157D01*
X2352D01*
X2356Y1153D01*
Y1149D01*
X2340D01*
X2387Y1165D02*
Y1141D01*
X2403D01*
X2427Y1161D02*
X2423Y1165D01*
X2415D01*
X2411Y1161D01*
Y1157D01*
X2415Y1153D01*
X2423D01*
X2427Y1149D01*
Y1145D01*
X2423Y1141D01*
X2415D01*
X2411Y1145D01*
X2474Y1165D02*
Y1141D01*
X2462D01*
X2458Y1145D01*
Y1153D01*
X2462Y1157D01*
X2474D01*
X2494Y1141D02*
X2486D01*
X2482Y1145D01*
Y1153D01*
X2486Y1157D01*
X2494D01*
X2498Y1153D01*
Y1149D01*
X2482D01*
X2509Y1157D02*
X2517D01*
X2521Y1153D01*
Y1141D01*
X2509D01*
X2505Y1145D01*
X2509Y1149D01*
X2521D01*
X2545Y1165D02*
Y1141D01*
X2533D01*
X2529Y1145D01*
Y1153D01*
X2533Y1157D01*
X2545D01*
X2557Y1161D02*
Y1157D01*
X2553D01*
X2561D01*
X2557D01*
Y1145D01*
X2561Y1141D01*
X2572D02*
X2580D01*
X2576D01*
Y1157D01*
X2572D01*
X2592Y1141D02*
Y1157D01*
X2596D01*
X2600Y1153D01*
Y1141D01*
Y1153D01*
X2604Y1157D01*
X2608Y1153D01*
Y1141D01*
X2627D02*
X2620D01*
X2616Y1145D01*
Y1153D01*
X2620Y1157D01*
X2627D01*
X2631Y1153D01*
Y1149D01*
X2616D01*
X713Y1188D02*
X690D01*
Y1200D01*
X694Y1204D01*
X702D01*
X706Y1200D01*
Y1188D01*
Y1196D02*
X713Y1204D01*
X717Y1212D02*
Y1228D01*
X713Y1235D02*
Y1243D01*
Y1239D01*
X690D01*
Y1235D01*
X713Y1255D02*
Y1267D01*
X710Y1271D01*
X706Y1267D01*
Y1259D01*
X702Y1255D01*
X698Y1259D01*
Y1271D01*
X717Y1279D02*
Y1294D01*
X713Y1318D02*
Y1302D01*
X698Y1318D01*
X694D01*
X690Y1314D01*
Y1306D01*
X694Y1302D01*
X710Y1326D02*
X713Y1330D01*
Y1338D01*
X710Y1342D01*
X694D01*
X690Y1338D01*
Y1330D01*
X694Y1326D01*
X698D01*
X702Y1330D01*
Y1342D01*
X878Y1203D02*
X855D01*
Y1215D01*
X859Y1219D01*
X867D01*
X871Y1215D01*
Y1203D01*
Y1211D02*
X878Y1219D01*
X882Y1227D02*
Y1242D01*
X878Y1250D02*
Y1258D01*
Y1254D01*
X855D01*
Y1250D01*
X878Y1270D02*
Y1282D01*
X875Y1286D01*
X871Y1282D01*
Y1274D01*
X867Y1270D01*
X863Y1274D01*
Y1286D01*
X882Y1294D02*
Y1309D01*
X878Y1317D02*
Y1325D01*
Y1321D01*
X855D01*
X859Y1317D01*
X878Y1353D02*
Y1337D01*
X863Y1353D01*
X859D01*
X855Y1349D01*
Y1341D01*
X859Y1337D01*
X1791Y1352D02*
X1787Y1356D01*
X1779D01*
X1775Y1352D01*
Y1337D01*
X1779Y1333D01*
X1787D01*
X1791Y1337D01*
X1815Y1333D02*
X1799D01*
X1815Y1348D01*
Y1352D01*
X1811Y1356D01*
X1803D01*
X1799Y1352D01*
X1823Y1333D02*
X1830D01*
X1827D01*
Y1356D01*
X1823Y1352D01*
X1842Y1329D02*
X1858D01*
X1882Y1333D02*
X1866D01*
X1882Y1348D01*
Y1352D01*
X1878Y1356D01*
X1870D01*
X1866Y1352D01*
X3836Y1304D02*
X3832Y1308D01*
X3824D01*
X3820Y1304D01*
Y1289D01*
X3824Y1285D01*
X3832D01*
X3836Y1289D01*
X3860Y1285D02*
X3844D01*
X3860Y1300D01*
Y1304D01*
X3856Y1308D01*
X3848D01*
X3844Y1304D01*
X3868Y1285D02*
X3876D01*
X3872D01*
Y1308D01*
X3868Y1304D01*
X3887Y1281D02*
X3903D01*
X3911Y1285D02*
X3919D01*
X3915D01*
Y1308D01*
X3911Y1304D01*
X1657Y1310D02*
Y1290D01*
X1661Y1286D01*
X1669D01*
X1672Y1290D01*
Y1310D01*
X1680D02*
X1696D01*
Y1306D01*
X1680Y1290D01*
Y1286D01*
X1704Y1282D02*
X1720D01*
X1743Y1286D02*
X1728D01*
X1743Y1302D01*
Y1306D01*
X1739Y1310D01*
X1732D01*
X1728Y1306D01*
X3707Y1335D02*
Y1315D01*
X3711Y1311D01*
X3718D01*
X3722Y1315D01*
Y1335D01*
X3730D02*
X3746D01*
Y1331D01*
X3730Y1315D01*
Y1311D01*
X3754Y1307D02*
X3770D01*
X3778Y1311D02*
X3785D01*
X3781D01*
Y1335D01*
X3778Y1331D01*
X1525Y1265D02*
Y1288D01*
X1536D01*
X1540Y1284D01*
Y1276D01*
X1536Y1272D01*
X1525D01*
X1533D02*
X1540Y1265D01*
X1548Y1268D02*
X1552Y1265D01*
X1560D01*
X1564Y1268D01*
Y1284D01*
X1560Y1288D01*
X1552D01*
X1548Y1284D01*
Y1280D01*
X1552Y1276D01*
X1564D01*
X1572Y1261D02*
X1588D01*
X1611Y1265D02*
X1595D01*
X1611Y1280D01*
Y1284D01*
X1607Y1288D01*
X1599D01*
X1595Y1284D01*
X3492Y1184D02*
X3469D01*
Y1196D01*
X3472Y1200D01*
X3480D01*
X3484Y1196D01*
Y1184D01*
Y1192D02*
X3492Y1200D01*
X3488Y1208D02*
X3492Y1212D01*
Y1219D01*
X3488Y1223D01*
X3472D01*
X3469Y1219D01*
Y1212D01*
X3472Y1208D01*
X3476D01*
X3480Y1212D01*
Y1223D01*
X3496Y1231D02*
Y1247D01*
X3492Y1255D02*
Y1263D01*
Y1259D01*
X3469D01*
X3472Y1255D01*
X1614Y1349D02*
Y1373D01*
X1625D01*
X1629Y1369D01*
Y1361D01*
X1625Y1357D01*
X1614D01*
X1622D02*
X1629Y1349D01*
X1637Y1369D02*
X1641Y1373D01*
X1649D01*
X1653Y1369D01*
Y1365D01*
X1649Y1361D01*
X1645D01*
X1649D01*
X1653Y1357D01*
Y1353D01*
X1649Y1349D01*
X1641D01*
X1637Y1353D01*
X1661Y1345D02*
X1677D01*
X1700Y1349D02*
X1685D01*
X1700Y1365D01*
Y1369D01*
X1696Y1373D01*
X1688D01*
X1685Y1369D01*
X3535Y1185D02*
X3512D01*
Y1197D01*
X3516Y1201D01*
X3524D01*
X3528Y1197D01*
Y1185D01*
Y1193D02*
X3535Y1201D01*
X3516Y1209D02*
X3512Y1213D01*
Y1220D01*
X3516Y1224D01*
X3520D01*
X3524Y1220D01*
Y1217D01*
Y1220D01*
X3528Y1224D01*
X3531D01*
X3535Y1220D01*
Y1213D01*
X3531Y1209D01*
X3539Y1232D02*
Y1248D01*
X3535Y1256D02*
Y1264D01*
Y1260D01*
X3512D01*
X3516Y1256D01*
X1180Y196D02*
X1176Y192D01*
Y184D01*
X1180Y180D01*
X1196D01*
X1200Y184D01*
Y192D01*
X1196Y196D01*
X1204Y204D02*
Y219D01*
X1200Y227D02*
Y235D01*
Y231D01*
X1176D01*
Y227D01*
X1200Y247D02*
Y259D01*
X1196Y263D01*
X1192Y259D01*
Y251D01*
X1188Y247D01*
X1184Y251D01*
Y263D01*
X1204Y271D02*
Y286D01*
X1200Y294D02*
Y302D01*
Y298D01*
X1176D01*
X1180Y294D01*
Y314D02*
X1176Y318D01*
Y326D01*
X1180Y330D01*
X1184D01*
X1188Y326D01*
X1192Y330D01*
X1196D01*
X1200Y326D01*
Y318D01*
X1196Y314D01*
X1192D01*
X1188Y318D01*
X1184Y314D01*
X1180D01*
X1188Y318D02*
Y326D01*
X3844Y64D02*
X3842Y61D01*
Y56D01*
X3844Y53D01*
X3855D01*
X3857Y56D01*
Y61D01*
X3855Y64D01*
X3860Y69D02*
Y79D01*
X3842Y85D02*
X3857D01*
X3849D01*
X3847Y87D01*
Y93D01*
X3849Y95D01*
X3857D01*
Y100D02*
Y108D01*
X3855Y111D01*
X3852Y108D01*
Y103D01*
X3849Y100D01*
X3847Y103D01*
Y111D01*
X3860Y116D02*
Y127D01*
X3857Y132D02*
Y137D01*
Y134D01*
X3842D01*
X3844Y132D01*
Y145D02*
X3842Y148D01*
Y153D01*
X3844Y155D01*
X3847D01*
X3849Y153D01*
X3852Y155D01*
X3855D01*
X3857Y153D01*
Y148D01*
X3855Y145D01*
X3852D01*
X3849Y148D01*
X3847Y145D01*
X3844D01*
X3849Y148D02*
Y153D01*
X4330Y781D02*
X4327Y785D01*
X4319D01*
X4315Y781D01*
Y766D01*
X4319Y762D01*
X4327D01*
X4330Y766D01*
X4338Y758D02*
X4354D01*
X4362Y785D02*
Y762D01*
Y774D01*
X4366Y778D01*
X4374D01*
X4378Y774D01*
Y762D01*
X4386D02*
X4397D01*
X4401Y766D01*
X4397Y770D01*
X4390D01*
X4386Y774D01*
X4390Y778D01*
X4401D01*
X4409Y758D02*
X4425D01*
X4433Y762D02*
X4441D01*
X4437D01*
Y785D01*
X4433Y781D01*
X4464Y762D02*
Y785D01*
X4452Y774D01*
X4468D01*
X1899Y2378D02*
X1895Y2382D01*
X1887D01*
X1884Y2378D01*
Y2363D01*
X1887Y2359D01*
X1895D01*
X1899Y2363D01*
X1907Y2359D02*
X1915D01*
X1911D01*
Y2382D01*
X1907Y2378D01*
X1927Y2355D02*
X1943D01*
X1966Y2359D02*
X1950D01*
X1966Y2375D01*
Y2378D01*
X1962Y2382D01*
X1954D01*
X1950Y2378D01*
X3508Y2344D02*
X3504Y2348D01*
X3497D01*
X3493Y2344D01*
Y2328D01*
X3497Y2324D01*
X3504D01*
X3508Y2328D01*
X3516Y2324D02*
X3524D01*
X3520D01*
Y2348D01*
X3516Y2344D01*
X3536Y2320D02*
X3552D01*
X3560Y2324D02*
X3567D01*
X3563D01*
Y2348D01*
X3560Y2344D01*
X2781Y739D02*
X2777Y743D01*
X2770D01*
X2766Y739D01*
Y723D01*
X2770Y719D01*
X2777D01*
X2781Y723D01*
X2789Y719D02*
X2797D01*
X2793D01*
Y743D01*
X2789Y739D01*
X2809D02*
X2813Y743D01*
X2821D01*
X2825Y739D01*
Y735D01*
X2821Y731D01*
X2817D01*
X2821D01*
X2825Y727D01*
Y723D01*
X2821Y719D01*
X2813D01*
X2809Y723D01*
X2339Y627D02*
Y643D01*
X2335Y647D01*
X2327D01*
X2323Y643D01*
Y627D01*
X2327Y623D01*
X2335D01*
X2331Y631D02*
X2339Y623D01*
X2335D02*
X2339Y627D01*
X2362Y623D02*
X2346D01*
X2362Y639D01*
Y643D01*
X2358Y647D01*
X2350D01*
X2346Y643D01*
X3025Y645D02*
Y660D01*
X3021Y664D01*
X3013D01*
X3009Y660D01*
Y645D01*
X3013Y641D01*
X3021D01*
X3017Y649D02*
X3025Y641D01*
X3021D02*
X3025Y645D01*
X3032Y641D02*
X3040D01*
X3036D01*
Y664D01*
X3032Y660D01*
X309Y1711D02*
X305Y1715D01*
X297D01*
X293Y1711D01*
Y1695D01*
X297Y1691D01*
X305D01*
X309Y1695D01*
X317Y1687D02*
X333D01*
X341Y1691D02*
X348D01*
X344D01*
Y1715D01*
X341D01*
X360Y1691D02*
X372D01*
X376Y1695D01*
X372Y1699D01*
X364D01*
X360Y1703D01*
X364Y1707D01*
X376D01*
X384Y1687D02*
X400D01*
X407Y1691D02*
X415D01*
X411D01*
Y1715D01*
X407Y1711D01*
X427Y1715D02*
X443D01*
Y1711D01*
X427Y1695D01*
Y1691D01*
X1135Y828D02*
X1131Y832D01*
X1123D01*
X1119Y828D01*
Y812D01*
X1123Y808D01*
X1131D01*
X1135Y812D01*
X1143Y804D02*
X1158D01*
X1166Y808D02*
X1174D01*
X1170D01*
Y832D01*
X1166D01*
X1186Y808D02*
X1198D01*
X1202Y812D01*
X1198Y816D01*
X1190D01*
X1186Y820D01*
X1190Y824D01*
X1202D01*
X1210Y804D02*
X1225D01*
X1233Y808D02*
X1241D01*
X1237D01*
Y832D01*
X1233Y828D01*
X1269Y832D02*
X1261Y828D01*
X1253Y820D01*
Y812D01*
X1257Y808D01*
X1265D01*
X1269Y812D01*
Y816D01*
X1265Y820D01*
X1253D01*
X4825Y1846D02*
X4822Y1850D01*
X4814D01*
X4810Y1846D01*
Y1831D01*
X4814Y1827D01*
X4822D01*
X4825Y1831D01*
X4833Y1823D02*
X4849D01*
X4857Y1850D02*
Y1827D01*
Y1839D01*
X4861Y1843D01*
X4869D01*
X4873Y1839D01*
Y1827D01*
X4881D02*
X4892D01*
X4896Y1831D01*
X4892Y1835D01*
X4885D01*
X4881Y1839D01*
X4885Y1843D01*
X4896D01*
X4904Y1823D02*
X4920D01*
X4928Y1827D02*
X4936D01*
X4932D01*
Y1850D01*
X4928Y1846D01*
X4947Y1850D02*
X4963D01*
Y1846D01*
X4947Y1831D01*
Y1827D01*
X4340Y711D02*
X4337Y715D01*
X4329D01*
X4325Y711D01*
Y696D01*
X4329Y692D01*
X4337D01*
X4340Y696D01*
X4348Y688D02*
X4364D01*
X4372Y715D02*
Y692D01*
Y704D01*
X4376Y708D01*
X4384D01*
X4388Y704D01*
Y692D01*
X4396D02*
X4407D01*
X4411Y696D01*
X4407Y700D01*
X4400D01*
X4396Y704D01*
X4400Y708D01*
X4411D01*
X4419Y688D02*
X4435D01*
X4443Y692D02*
X4451D01*
X4447D01*
Y715D01*
X4443Y711D01*
X4478Y715D02*
X4470Y711D01*
X4462Y704D01*
Y696D01*
X4466Y692D01*
X4474D01*
X4478Y696D01*
Y700D01*
X4474Y704D01*
X4462D01*
X313Y1103D02*
X309Y1107D01*
X301D01*
X297Y1103D01*
Y1088D01*
X301Y1084D01*
X309D01*
X313Y1088D01*
X321Y1080D02*
X337D01*
X344Y1084D02*
X352D01*
X348D01*
Y1107D01*
X344D01*
X364Y1084D02*
X376D01*
X380Y1088D01*
X376Y1092D01*
X368D01*
X364Y1095D01*
X368Y1099D01*
X380D01*
X388Y1080D02*
X404D01*
X411Y1084D02*
X419D01*
X415D01*
Y1107D01*
X411Y1103D01*
X447Y1107D02*
X431D01*
Y1095D01*
X439Y1099D01*
X443D01*
X447Y1095D01*
Y1088D01*
X443Y1084D01*
X435D01*
X431Y1088D01*
X909Y1488D02*
X905Y1492D01*
X897D01*
X893Y1488D01*
Y1473D01*
X897Y1469D01*
X905D01*
X909Y1473D01*
X917Y1465D02*
X933D01*
X940Y1469D02*
X948D01*
X944D01*
Y1492D01*
X940D01*
X960Y1469D02*
X972D01*
X976Y1473D01*
X972Y1476D01*
X964D01*
X960Y1480D01*
X964Y1484D01*
X976D01*
X984Y1465D02*
X1000D01*
X1007Y1469D02*
X1015D01*
X1011D01*
Y1492D01*
X1007Y1488D01*
X1027D02*
X1031Y1492D01*
X1039D01*
X1043Y1488D01*
Y1484D01*
X1039Y1480D01*
X1035D01*
X1039D01*
X1043Y1476D01*
Y1473D01*
X1039Y1469D01*
X1031D01*
X1027Y1473D01*
X5001Y1354D02*
X4997Y1358D01*
X4989D01*
X4985Y1354D01*
Y1339D01*
X4989Y1335D01*
X4997D01*
X5001Y1339D01*
X5009Y1331D02*
X5025D01*
X5032Y1358D02*
Y1335D01*
Y1346D01*
X5036Y1350D01*
X5044D01*
X5048Y1346D01*
Y1335D01*
X5056D02*
X5068D01*
X5072Y1339D01*
X5068Y1343D01*
X5060D01*
X5056Y1346D01*
X5060Y1350D01*
X5072D01*
X5080Y1331D02*
X5095D01*
X5103Y1335D02*
X5111D01*
X5107D01*
Y1358D01*
X5103Y1354D01*
X5139Y1358D02*
X5123D01*
Y1346D01*
X5131Y1350D01*
X5135D01*
X5139Y1346D01*
Y1339D01*
X5135Y1335D01*
X5127D01*
X5123Y1339D01*
X4800Y1531D02*
X4797Y1535D01*
X4789D01*
X4785Y1531D01*
Y1516D01*
X4789Y1512D01*
X4797D01*
X4800Y1516D01*
X4808Y1508D02*
X4824D01*
X4832Y1535D02*
Y1512D01*
Y1524D01*
X4836Y1528D01*
X4844D01*
X4848Y1524D01*
Y1512D01*
X4856D02*
X4867D01*
X4871Y1516D01*
X4867Y1520D01*
X4860D01*
X4856Y1524D01*
X4860Y1528D01*
X4871D01*
X4879Y1508D02*
X4895D01*
X4903Y1512D02*
X4911D01*
X4907D01*
Y1535D01*
X4903Y1531D01*
X4922D02*
X4926Y1535D01*
X4934D01*
X4938Y1531D01*
Y1528D01*
X4934Y1524D01*
X4930D01*
X4934D01*
X4938Y1520D01*
Y1516D01*
X4934Y1512D01*
X4926D01*
X4922Y1516D01*
X4154Y2131D02*
X4150Y2135D01*
X4142D01*
X4138Y2131D01*
Y2116D01*
X4142Y2112D01*
X4150D01*
X4154Y2116D01*
X4162Y2112D02*
Y2135D01*
X4170Y2127D01*
X4178Y2135D01*
Y2112D01*
X4201Y2131D02*
X4197Y2135D01*
X4189D01*
X4185Y2131D01*
Y2116D01*
X4189Y2112D01*
X4197D01*
X4201Y2116D01*
X4225Y2112D02*
X4209D01*
X4225Y2127D01*
Y2131D01*
X4221Y2135D01*
X4213D01*
X4209Y2131D01*
X4233Y2108D02*
X4248D01*
X4256Y2112D02*
X4264D01*
X4260D01*
Y2135D01*
X4256Y2131D01*
X2643Y773D02*
X2639Y777D01*
X2631D01*
X2627Y773D01*
Y757D01*
X2631Y753D01*
X2639D01*
X2643Y757D01*
X2651Y753D02*
X2658D01*
X2655D01*
Y777D01*
X2651Y773D01*
X2686Y753D02*
X2670D01*
X2686Y769D01*
Y773D01*
X2682Y777D01*
X2674D01*
X2670Y773D01*
X909Y1216D02*
X890D01*
X886Y1212D01*
Y1204D01*
X890Y1200D01*
X909D01*
X882Y1192D02*
Y1176D01*
X886Y1168D02*
Y1160D01*
Y1164D01*
X909D01*
Y1168D01*
X886Y1149D02*
Y1137D01*
X890Y1133D01*
X894Y1137D01*
Y1145D01*
X898Y1149D01*
X902Y1145D01*
Y1133D01*
X882Y1125D02*
Y1109D01*
X886Y1090D02*
X909D01*
X898Y1101D01*
Y1086D01*
X483Y1577D02*
Y1558D01*
X487Y1554D01*
X495D01*
X499Y1558D01*
Y1577D01*
X507Y1550D02*
X523D01*
X530Y1554D02*
X538D01*
X534D01*
Y1577D01*
X530D01*
X550Y1554D02*
X562D01*
X566Y1558D01*
X562Y1561D01*
X554D01*
X550Y1565D01*
X554Y1569D01*
X566D01*
X574Y1550D02*
X590D01*
X597Y1554D02*
X605D01*
X601D01*
Y1577D01*
X597Y1573D01*
X4401Y842D02*
X4421D01*
X4425Y846D01*
Y854D01*
X4421Y858D01*
X4401D01*
X4429Y865D02*
Y881D01*
X4401Y889D02*
X4425D01*
X4413D01*
X4409Y893D01*
Y901D01*
X4413Y905D01*
X4425D01*
Y913D02*
Y924D01*
X4421Y928D01*
X4417Y924D01*
Y917D01*
X4413Y913D01*
X4409Y917D01*
Y928D01*
X4429Y936D02*
Y952D01*
X4425Y972D02*
X4401D01*
X4413Y960D01*
Y976D01*
X4375Y1620D02*
Y1601D01*
X4379Y1597D01*
X4387D01*
X4390Y1601D01*
Y1620D01*
X4398Y1593D02*
X4414D01*
X4422Y1620D02*
Y1597D01*
Y1609D01*
X4426Y1613D01*
X4434D01*
X4438Y1609D01*
Y1597D01*
X4446D02*
X4457D01*
X4461Y1601D01*
X4457Y1605D01*
X4450D01*
X4446Y1609D01*
X4450Y1613D01*
X4461D01*
X4469Y1593D02*
X4485D01*
X4493Y1597D02*
X4501D01*
X4497D01*
Y1620D01*
X4493Y1616D01*
X1702Y1560D02*
Y1540D01*
X1706Y1536D01*
X1714D01*
X1718Y1540D01*
Y1560D01*
X1741D02*
X1733Y1556D01*
X1725Y1548D01*
Y1540D01*
X1729Y1536D01*
X1737D01*
X1741Y1540D01*
Y1544D01*
X1737Y1548D01*
X1725D01*
X1749Y1532D02*
X1765D01*
X1788Y1536D02*
X1773D01*
X1788Y1552D01*
Y1556D01*
X1784Y1560D01*
X1777D01*
X1773Y1556D01*
X3550Y1381D02*
Y1362D01*
X3554Y1358D01*
X3562D01*
X3566Y1362D01*
Y1381D01*
X3589D02*
X3581Y1377D01*
X3574Y1369D01*
Y1362D01*
X3577Y1358D01*
X3585D01*
X3589Y1362D01*
Y1365D01*
X3585Y1369D01*
X3574D01*
X3597Y1354D02*
X3613D01*
X3621Y1358D02*
X3629D01*
X3625D01*
Y1381D01*
X3621Y1377D01*
X1160Y2333D02*
Y2313D01*
X1164Y2309D01*
X1172D01*
X1176Y2313D01*
Y2333D01*
X1199D02*
X1184D01*
Y2321D01*
X1191Y2325D01*
X1195D01*
X1199Y2321D01*
Y2313D01*
X1195Y2309D01*
X1187D01*
X1184Y2313D01*
X1207Y2305D02*
X1223D01*
X1247Y2309D02*
X1231D01*
X1247Y2325D01*
Y2329D01*
X1243Y2333D01*
X1235D01*
X1231Y2329D01*
X4262Y2347D02*
Y2328D01*
X4266Y2324D01*
X4274D01*
X4278Y2328D01*
Y2347D01*
X4301D02*
X4285D01*
Y2336D01*
X4293Y2340D01*
X4297D01*
X4301Y2336D01*
Y2328D01*
X4297Y2324D01*
X4289D01*
X4285Y2328D01*
X4309Y2320D02*
X4325D01*
X4333Y2324D02*
X4341D01*
X4337D01*
Y2347D01*
X4333Y2343D01*
X1512Y2281D02*
Y2261D01*
X1516Y2257D01*
X1524D01*
X1528Y2261D01*
Y2281D01*
X1548Y2257D02*
Y2281D01*
X1536Y2269D01*
X1552D01*
X1560Y2253D02*
X1575D01*
X1599Y2257D02*
X1583D01*
X1599Y2273D01*
Y2277D01*
X1595Y2281D01*
X1587D01*
X1583Y2277D01*
X3571Y1846D02*
Y1827D01*
X3575Y1823D01*
X3583D01*
X3587Y1827D01*
Y1846D01*
X3606Y1823D02*
Y1846D01*
X3594Y1835D01*
X3610D01*
X3618Y1819D02*
X3634D01*
X3642Y1823D02*
X3650D01*
X3646D01*
Y1846D01*
X3642Y1843D01*
X3458Y1010D02*
Y991D01*
X3462Y987D01*
X3470D01*
X3474Y991D01*
Y1010D01*
X3482Y1006D02*
X3486Y1010D01*
X3494D01*
X3498Y1006D01*
Y1002D01*
X3494Y998D01*
X3490D01*
X3494D01*
X3498Y995D01*
Y991D01*
X3494Y987D01*
X3486D01*
X3482Y991D01*
X3506Y983D02*
X3521D01*
X3529Y987D02*
X3537D01*
X3533D01*
Y1010D01*
X3529Y1006D01*
X1521Y991D02*
Y972D01*
X1525Y968D01*
X1533D01*
X1537Y972D01*
Y991D01*
X1545Y987D02*
X1549Y991D01*
X1557D01*
X1561Y987D01*
Y983D01*
X1557Y979D01*
X1553D01*
X1557D01*
X1561Y975D01*
Y972D01*
X1557Y968D01*
X1549D01*
X1545Y972D01*
X1569Y964D02*
X1584D01*
X1608Y968D02*
X1592D01*
X1608Y983D01*
Y987D01*
X1604Y991D01*
X1596D01*
X1592Y987D01*
X2591Y1223D02*
Y1203D01*
X2595Y1199D01*
X2603D01*
X2607Y1203D01*
Y1223D01*
X2630Y1199D02*
X2615D01*
X2630Y1215D01*
Y1219D01*
X2626Y1223D01*
X2618D01*
X2615Y1219D01*
X2592Y1688D02*
Y1668D01*
X2596Y1664D01*
X2603D01*
X2607Y1668D01*
Y1688D01*
X2615Y1664D02*
X2623D01*
X2619D01*
Y1688D01*
X2615Y1684D01*
X534Y1122D02*
Y1146D01*
X546D01*
X550Y1142D01*
Y1134D01*
X546Y1130D01*
X534D01*
X542D02*
X550Y1122D01*
X558Y1118D02*
X574D01*
X582Y1122D02*
X590D01*
X586D01*
Y1146D01*
X582D01*
X601Y1122D02*
X613D01*
X617Y1126D01*
X613Y1130D01*
X605D01*
X601Y1134D01*
X605Y1138D01*
X617D01*
X625Y1118D02*
X641D01*
X664Y1122D02*
X649D01*
X664Y1138D01*
Y1142D01*
X660Y1146D01*
X653D01*
X649Y1142D01*
X688Y1146D02*
X680Y1142D01*
X672Y1134D01*
Y1126D01*
X676Y1122D01*
X684D01*
X688Y1126D01*
Y1130D01*
X684Y1134D01*
X672D01*
X279Y919D02*
Y935D01*
X286D01*
X289Y932D01*
Y927D01*
X286Y925D01*
X279D01*
X284D02*
X289Y919D01*
X294Y917D02*
X305D01*
X310Y919D02*
X315D01*
X313D01*
Y935D01*
X310D01*
X323Y919D02*
X331D01*
X334Y922D01*
X331Y925D01*
X326D01*
X323Y927D01*
X326Y930D01*
X334D01*
X339Y917D02*
X349D01*
X365Y919D02*
X355D01*
X365Y930D01*
Y932D01*
X363Y935D01*
X357D01*
X355Y932D01*
X378Y919D02*
Y935D01*
X370Y927D01*
X381D01*
X566Y840D02*
Y855D01*
X574D01*
X576Y853D01*
Y847D01*
X574Y845D01*
X566D01*
X571D02*
X576Y840D01*
X582Y837D02*
X592D01*
X597Y840D02*
X603D01*
X600D01*
Y855D01*
X597D01*
X611Y840D02*
X618D01*
X621Y842D01*
X618Y845D01*
X613D01*
X611Y847D01*
X613Y850D01*
X621D01*
X626Y837D02*
X637D01*
X653Y840D02*
X642D01*
X653Y850D01*
Y853D01*
X650Y855D01*
X645D01*
X642Y853D01*
X658D02*
X660Y855D01*
X666D01*
X668Y853D01*
Y850D01*
X666Y847D01*
X663D01*
X666D01*
X668Y845D01*
Y842D01*
X666Y840D01*
X660D01*
X658Y842D01*
X161Y807D02*
Y823D01*
X169D01*
X172Y820D01*
Y815D01*
X169Y812D01*
X161D01*
X167D02*
X172Y807D01*
X177Y804D02*
X188D01*
X193Y807D02*
X198D01*
X196D01*
Y823D01*
X193D01*
X206Y807D02*
X214D01*
X217Y810D01*
X214Y812D01*
X209D01*
X206Y815D01*
X209Y818D01*
X217D01*
X222Y804D02*
X232D01*
X248Y807D02*
X238D01*
X248Y818D01*
Y820D01*
X245Y823D01*
X240D01*
X238Y820D01*
X264Y807D02*
X253D01*
X264Y818D01*
Y820D01*
X261Y823D01*
X256D01*
X253Y820D01*
X570Y783D02*
Y799D01*
X578D01*
X581Y797D01*
Y791D01*
X578Y789D01*
X570D01*
X576D02*
X581Y783D01*
X586Y781D02*
X597D01*
X602Y783D02*
X607D01*
X604D01*
Y799D01*
X602D01*
X615Y783D02*
X623D01*
X625Y786D01*
X623Y789D01*
X618D01*
X615Y791D01*
X618Y794D01*
X625D01*
X631Y781D02*
X641D01*
X657Y783D02*
X646D01*
X657Y794D01*
Y797D01*
X654Y799D01*
X649D01*
X646Y797D01*
X662Y783D02*
X667D01*
X665D01*
Y799D01*
X662Y797D01*
X860Y156D02*
Y180D01*
X871D01*
X875Y176D01*
Y168D01*
X871Y164D01*
X860D01*
X867D02*
X875Y156D01*
X883Y153D02*
X899D01*
X907Y156D02*
X915D01*
X911D01*
Y180D01*
X907D01*
X927Y156D02*
X938D01*
X942Y160D01*
X938Y164D01*
X930D01*
X927Y168D01*
X930Y172D01*
X942D01*
X950Y153D02*
X966D01*
X989Y156D02*
X974D01*
X989Y172D01*
Y176D01*
X986Y180D01*
X978D01*
X974Y176D01*
X997D02*
X1001Y180D01*
X1009D01*
X1013Y176D01*
Y160D01*
X1009Y156D01*
X1001D01*
X997Y160D01*
Y176D01*
X255Y598D02*
X231D01*
Y610D01*
X235Y614D01*
X243D01*
X247Y610D01*
Y598D01*
Y606D02*
X255Y614D01*
X259Y622D02*
Y638D01*
X255Y646D02*
Y654D01*
Y650D01*
X231D01*
Y646D01*
X255Y665D02*
Y677D01*
X251Y681D01*
X247Y677D01*
Y669D01*
X243Y665D01*
X239Y669D01*
Y681D01*
X259Y689D02*
Y705D01*
X255Y713D02*
Y720D01*
Y716D01*
X231D01*
X235Y713D01*
X251Y732D02*
X255Y736D01*
Y744D01*
X251Y748D01*
X235D01*
X231Y744D01*
Y736D01*
X235Y732D01*
X239D01*
X243Y736D01*
Y748D01*
X467Y395D02*
X443D01*
Y406D01*
X447Y410D01*
X455D01*
X459Y406D01*
Y395D01*
Y403D02*
X467Y410D01*
X470Y418D02*
Y434D01*
X467Y442D02*
Y450D01*
Y446D01*
X443D01*
Y442D01*
X467Y462D02*
Y473D01*
X463Y477D01*
X459Y473D01*
Y466D01*
X455Y462D01*
X451Y466D01*
Y477D01*
X470Y485D02*
Y501D01*
X467Y509D02*
Y517D01*
Y513D01*
X443D01*
X447Y509D01*
Y529D02*
X443Y532D01*
Y540D01*
X447Y544D01*
X451D01*
X455Y540D01*
X459Y544D01*
X463D01*
X467Y540D01*
Y532D01*
X463Y529D01*
X459D01*
X455Y532D01*
X451Y529D01*
X447D01*
X455Y532D02*
Y540D01*
X334Y250D02*
X310D01*
Y262D01*
X314Y266D01*
X322D01*
X326Y262D01*
Y250D01*
Y258D02*
X334Y266D01*
X338Y274D02*
Y289D01*
X334Y297D02*
Y305D01*
Y301D01*
X310D01*
Y297D01*
X334Y317D02*
Y329D01*
X330Y333D01*
X326Y329D01*
Y321D01*
X322Y317D01*
X318Y321D01*
Y333D01*
X338Y341D02*
Y356D01*
X334Y364D02*
Y372D01*
Y368D01*
X310D01*
X314Y364D01*
X310Y384D02*
Y400D01*
X314D01*
X330Y384D01*
X334D01*
X527Y238D02*
X503D01*
Y250D01*
X507Y254D01*
X515D01*
X519Y250D01*
Y238D01*
Y246D02*
X527Y254D01*
X531Y262D02*
Y278D01*
X527Y285D02*
Y293D01*
Y289D01*
X503D01*
Y285D01*
X527Y305D02*
Y317D01*
X523Y321D01*
X519Y317D01*
Y309D01*
X515Y305D01*
X511Y309D01*
Y321D01*
X531Y329D02*
Y344D01*
X527Y352D02*
Y360D01*
Y356D01*
X503D01*
X507Y352D01*
X503Y388D02*
X507Y380D01*
X515Y372D01*
X523D01*
X527Y376D01*
Y384D01*
X523Y388D01*
X519D01*
X515Y384D01*
Y372D01*
X633Y92D02*
X609D01*
Y103D01*
X613Y107D01*
X621D01*
X625Y103D01*
Y92D01*
Y99D02*
X633Y107D01*
X637Y115D02*
Y131D01*
X633Y139D02*
Y147D01*
Y143D01*
X609D01*
Y139D01*
X633Y158D02*
Y170D01*
X629Y174D01*
X625Y170D01*
Y162D01*
X621Y158D01*
X617Y162D01*
Y174D01*
X637Y182D02*
Y198D01*
X633Y206D02*
Y214D01*
Y210D01*
X609D01*
X613Y206D01*
X609Y241D02*
Y225D01*
X621D01*
X617Y233D01*
Y237D01*
X621Y241D01*
X629D01*
X633Y237D01*
Y229D01*
X629Y225D01*
X773Y656D02*
X749D01*
Y667D01*
X753Y671D01*
X761D01*
X765Y667D01*
Y656D01*
Y663D02*
X773Y671D01*
X777Y679D02*
Y695D01*
X773Y703D02*
Y711D01*
Y707D01*
X749D01*
Y703D01*
X773Y722D02*
Y734D01*
X769Y738D01*
X765Y734D01*
Y726D01*
X761Y722D01*
X757Y726D01*
Y738D01*
X777Y746D02*
Y762D01*
X773Y770D02*
Y778D01*
Y774D01*
X749D01*
X753Y770D01*
X773Y789D02*
Y797D01*
Y793D01*
X749D01*
X753Y789D01*
X1186Y532D02*
Y556D01*
X1198D01*
X1202Y552D01*
Y544D01*
X1198Y540D01*
X1186D01*
X1194D02*
X1202Y532D01*
X1210Y529D02*
X1226D01*
X1234Y532D02*
X1242D01*
X1238D01*
Y556D01*
X1234D01*
X1253Y532D02*
X1265D01*
X1269Y536D01*
X1265Y540D01*
X1257D01*
X1253Y544D01*
X1257Y548D01*
X1269D01*
X1277Y529D02*
X1293D01*
X1301Y532D02*
X1308D01*
X1304D01*
Y556D01*
X1301Y552D01*
X1320D02*
X1324Y556D01*
X1332D01*
X1336Y552D01*
Y536D01*
X1332Y532D01*
X1324D01*
X1320Y536D01*
Y552D01*
X171Y1583D02*
X147D01*
Y1595D01*
X151Y1599D01*
X159D01*
X163Y1595D01*
Y1583D01*
Y1591D02*
X171Y1599D01*
X175Y1607D02*
Y1623D01*
X171Y1631D02*
Y1638D01*
Y1634D01*
X147D01*
Y1631D01*
X171Y1650D02*
Y1662D01*
X167Y1666D01*
X163Y1662D01*
Y1654D01*
X159Y1650D01*
X155Y1654D01*
Y1666D01*
X175Y1674D02*
Y1690D01*
X151Y1697D02*
X147Y1701D01*
Y1709D01*
X151Y1713D01*
X155D01*
X159Y1709D01*
X163Y1713D01*
X167D01*
X171Y1709D01*
Y1701D01*
X167Y1697D01*
X163D01*
X159Y1701D01*
X155Y1697D01*
X151D01*
X159Y1701D02*
Y1709D01*
X48Y1304D02*
X25D01*
Y1316D01*
X29Y1320D01*
X36D01*
X40Y1316D01*
Y1304D01*
Y1312D02*
X48Y1320D01*
X52Y1328D02*
Y1343D01*
X48Y1351D02*
Y1359D01*
Y1355D01*
X25D01*
Y1351D01*
X48Y1371D02*
Y1383D01*
X44Y1387D01*
X40Y1383D01*
Y1375D01*
X36Y1371D01*
X32Y1375D01*
Y1387D01*
X52Y1395D02*
Y1410D01*
X25Y1418D02*
Y1434D01*
X29D01*
X44Y1418D01*
X48D01*
X78Y536D02*
X54D01*
Y548D01*
X58Y552D01*
X66D01*
X70Y548D01*
Y536D01*
Y544D02*
X78Y552D01*
X82Y560D02*
Y576D01*
X78Y584D02*
Y592D01*
Y588D01*
X54D01*
Y584D01*
X78Y603D02*
Y615D01*
X74Y619D01*
X70Y615D01*
Y607D01*
X66Y603D01*
X62Y607D01*
Y619D01*
X82Y627D02*
Y643D01*
X54Y666D02*
X58Y658D01*
X66Y651D01*
X74D01*
X78Y654D01*
Y662D01*
X74Y666D01*
X70D01*
X66Y662D01*
Y651D01*
X152Y354D02*
X128D01*
Y366D01*
X132Y370D01*
X140D01*
X144Y366D01*
Y354D01*
Y362D02*
X152Y370D01*
X156Y378D02*
Y394D01*
X152Y402D02*
Y409D01*
Y405D01*
X128D01*
Y402D01*
X152Y421D02*
Y433D01*
X148Y437D01*
X144Y433D01*
Y425D01*
X140Y421D01*
X136Y425D01*
Y437D01*
X156Y445D02*
Y461D01*
X128Y484D02*
Y468D01*
X140D01*
X136Y476D01*
Y480D01*
X140Y484D01*
X148D01*
X152Y480D01*
Y472D01*
X148Y468D01*
X155Y199D02*
X131D01*
Y211D01*
X135Y215D01*
X143D01*
X147Y211D01*
Y199D01*
Y207D02*
X155Y215D01*
X158Y222D02*
Y238D01*
X155Y246D02*
Y254D01*
Y250D01*
X131D01*
Y246D01*
X155Y266D02*
Y278D01*
X151Y281D01*
X147Y278D01*
Y270D01*
X143Y266D01*
X139Y270D01*
Y281D01*
X158Y289D02*
Y305D01*
X155Y325D02*
X131D01*
X143Y313D01*
Y329D01*
X234Y45D02*
X210D01*
Y56D01*
X214Y60D01*
X222D01*
X226Y56D01*
Y45D01*
Y52D02*
X234Y60D01*
X238Y68D02*
Y84D01*
X234Y92D02*
Y100D01*
Y96D01*
X210D01*
Y92D01*
X234Y112D02*
Y123D01*
X230Y127D01*
X226Y123D01*
Y115D01*
X222Y112D01*
X218Y115D01*
Y127D01*
X238Y135D02*
Y151D01*
X214Y159D02*
X210Y163D01*
Y171D01*
X214Y174D01*
X218D01*
X222Y171D01*
Y167D01*
Y171D01*
X226Y174D01*
X230D01*
X234Y171D01*
Y163D01*
X230Y159D01*
X375Y123D02*
Y147D01*
X387D01*
X391Y143D01*
Y135D01*
X387Y131D01*
X375D01*
X383D02*
X391Y123D01*
X399Y119D02*
X414D01*
X422Y123D02*
X430D01*
X426D01*
Y147D01*
X422D01*
X442Y123D02*
X454D01*
X458Y127D01*
X454Y131D01*
X446D01*
X442Y135D01*
X446Y139D01*
X458D01*
X466Y119D02*
X481D01*
X505Y123D02*
X489D01*
X505Y139D01*
Y143D01*
X501Y147D01*
X493D01*
X489Y143D01*
X1190Y622D02*
Y646D01*
X1202D01*
X1206Y642D01*
Y634D01*
X1202Y630D01*
X1190D01*
X1198D02*
X1206Y622D01*
X1214Y618D02*
X1230D01*
X1238Y622D02*
X1245D01*
X1242D01*
Y646D01*
X1238D01*
X1257Y622D02*
X1269D01*
X1273Y626D01*
X1269Y630D01*
X1261D01*
X1257Y634D01*
X1261Y638D01*
X1273D01*
X1281Y618D02*
X1297D01*
X1304Y622D02*
X1312D01*
X1308D01*
Y646D01*
X1304Y642D01*
X4732Y413D02*
Y437D01*
X4744D01*
X4748Y433D01*
Y425D01*
X4744Y421D01*
X4732D01*
X4740D02*
X4748Y413D01*
X4756Y409D02*
X4772D01*
X4780Y437D02*
Y413D01*
Y425D01*
X4783Y429D01*
X4791D01*
X4795Y425D01*
Y413D01*
X4803D02*
X4815D01*
X4819Y417D01*
X4815Y421D01*
X4807D01*
X4803Y425D01*
X4807Y429D01*
X4819D01*
X4827Y409D02*
X4842D01*
X4866Y413D02*
X4850D01*
X4866Y429D01*
Y433D01*
X4862Y437D01*
X4854D01*
X4850Y433D01*
X4874Y437D02*
X4890D01*
Y433D01*
X4874Y417D01*
Y413D01*
X4803Y1334D02*
Y1357D01*
X4815D01*
X4819Y1353D01*
Y1345D01*
X4815Y1342D01*
X4803D01*
X4811D02*
X4819Y1334D01*
X4827Y1330D02*
X4843D01*
X4850Y1357D02*
Y1334D01*
Y1345D01*
X4854Y1349D01*
X4862D01*
X4866Y1345D01*
Y1334D01*
X4874D02*
X4886D01*
X4890Y1338D01*
X4886Y1342D01*
X4878D01*
X4874Y1345D01*
X4878Y1349D01*
X4890D01*
X4898Y1330D02*
X4913D01*
X4937Y1334D02*
X4921D01*
X4937Y1349D01*
Y1353D01*
X4933Y1357D01*
X4925D01*
X4921Y1353D01*
X4961Y1357D02*
X4953Y1353D01*
X4945Y1345D01*
Y1338D01*
X4949Y1334D01*
X4957D01*
X4961Y1338D01*
Y1342D01*
X4957Y1345D01*
X4945D01*
X5015Y972D02*
Y988D01*
X5023D01*
X5025Y985D01*
Y980D01*
X5023Y977D01*
X5015D01*
X5020D02*
X5025Y972D01*
X5030Y969D02*
X5041D01*
X5046Y988D02*
Y972D01*
Y980D01*
X5049Y982D01*
X5054D01*
X5057Y980D01*
Y972D01*
X5062D02*
X5070D01*
X5072Y974D01*
X5070Y977D01*
X5065D01*
X5062Y980D01*
X5065Y982D01*
X5072D01*
X5078Y969D02*
X5088D01*
X5104Y972D02*
X5093D01*
X5104Y982D01*
Y985D01*
X5101Y988D01*
X5096D01*
X5093Y985D01*
X5117Y972D02*
Y988D01*
X5109Y980D01*
X5120D01*
X4737Y947D02*
Y963D01*
X4745D01*
X4748Y960D01*
Y955D01*
X4745Y952D01*
X4737D01*
X4742D02*
X4748Y947D01*
X4753Y944D02*
X4763D01*
X4769Y963D02*
Y947D01*
Y955D01*
X4771Y957D01*
X4777D01*
X4779Y955D01*
Y947D01*
X4784D02*
X4792D01*
X4795Y949D01*
X4792Y952D01*
X4787D01*
X4784Y955D01*
X4787Y957D01*
X4795D01*
X4800Y944D02*
X4811D01*
X4826Y947D02*
X4816D01*
X4826Y957D01*
Y960D01*
X4824Y963D01*
X4819D01*
X4816Y960D01*
X4832D02*
X4834Y963D01*
X4840D01*
X4842Y960D01*
Y957D01*
X4840Y955D01*
X4837D01*
X4840D01*
X4842Y952D01*
Y949D01*
X4840Y947D01*
X4834D01*
X4832Y949D01*
X5115Y797D02*
Y813D01*
X5123D01*
X5125Y810D01*
Y805D01*
X5123Y802D01*
X5115D01*
X5120D02*
X5125Y797D01*
X5130Y794D02*
X5141D01*
X5146Y813D02*
Y797D01*
Y805D01*
X5149Y807D01*
X5154D01*
X5157Y805D01*
Y797D01*
X5162D02*
X5170D01*
X5172Y799D01*
X5170Y802D01*
X5165D01*
X5162Y805D01*
X5165Y807D01*
X5172D01*
X5178Y794D02*
X5188D01*
X5204Y797D02*
X5193D01*
X5204Y807D01*
Y810D01*
X5201Y813D01*
X5196D01*
X5193Y810D01*
X5220Y797D02*
X5209D01*
X5220Y807D01*
Y810D01*
X5217Y813D01*
X5212D01*
X5209Y810D01*
X4739Y792D02*
Y808D01*
X4747D01*
X4750Y805D01*
Y800D01*
X4747Y798D01*
X4739D01*
X4744D02*
X4750Y792D01*
X4755Y790D02*
X4765D01*
X4771Y808D02*
Y792D01*
Y800D01*
X4773Y803D01*
X4779D01*
X4781Y800D01*
Y792D01*
X4786D02*
X4794D01*
X4797Y795D01*
X4794Y798D01*
X4789D01*
X4786Y800D01*
X4789Y803D01*
X4797D01*
X4802Y790D02*
X4813D01*
X4828Y792D02*
X4818D01*
X4828Y803D01*
Y805D01*
X4826Y808D01*
X4821D01*
X4818Y805D01*
X4834Y792D02*
X4839D01*
X4836D01*
Y808D01*
X4834Y805D01*
X4593Y240D02*
Y264D01*
X4604D01*
X4608Y260D01*
Y252D01*
X4604Y248D01*
X4593D01*
X4600D02*
X4608Y240D01*
X4616Y236D02*
X4632D01*
X4640Y264D02*
Y240D01*
Y252D01*
X4644Y256D01*
X4652D01*
X4655Y252D01*
Y240D01*
X4663D02*
X4675D01*
X4679Y244D01*
X4675Y248D01*
X4667D01*
X4663Y252D01*
X4667Y256D01*
X4679D01*
X4687Y236D02*
X4703D01*
X4726Y240D02*
X4711D01*
X4726Y256D01*
Y260D01*
X4722Y264D01*
X4715D01*
X4711Y260D01*
X4734D02*
X4738Y264D01*
X4746D01*
X4750Y260D01*
Y244D01*
X4746Y240D01*
X4738D01*
X4734Y244D01*
Y260D01*
X5121Y568D02*
Y591D01*
X5133D01*
X5137Y587D01*
Y579D01*
X5133Y575D01*
X5121D01*
X5129D02*
X5137Y568D01*
X5145Y564D02*
X5161D01*
X5169Y591D02*
Y568D01*
Y579D01*
X5173Y583D01*
X5180D01*
X5184Y579D01*
Y568D01*
X5192D02*
X5204D01*
X5208Y571D01*
X5204Y575D01*
X5196D01*
X5192Y579D01*
X5196Y583D01*
X5208D01*
X5216Y564D02*
X5232D01*
X5239Y568D02*
X5247D01*
X5243D01*
Y591D01*
X5239Y587D01*
X5259Y571D02*
X5263Y568D01*
X5271D01*
X5275Y571D01*
Y587D01*
X5271Y591D01*
X5263D01*
X5259Y587D01*
Y583D01*
X5263Y579D01*
X5275D01*
X5141Y390D02*
X5117D01*
Y402D01*
X5121Y406D01*
X5129D01*
X5133Y402D01*
Y390D01*
Y398D02*
X5141Y406D01*
X5145Y413D02*
Y429D01*
X5117Y437D02*
X5141D01*
X5129D01*
X5125Y441D01*
Y449D01*
X5129Y453D01*
X5141D01*
Y461D02*
Y472D01*
X5137Y476D01*
X5133Y472D01*
Y465D01*
X5129Y461D01*
X5125Y465D01*
Y476D01*
X5145Y484D02*
Y500D01*
X5141Y508D02*
Y516D01*
Y512D01*
X5117D01*
X5121Y508D01*
Y528D02*
X5117Y531D01*
Y539D01*
X5121Y543D01*
X5125D01*
X5129Y539D01*
X5133Y543D01*
X5137D01*
X5141Y539D01*
Y531D01*
X5137Y528D01*
X5133D01*
X5129Y531D01*
X5125Y528D01*
X5121D01*
X5129Y531D02*
Y539D01*
X5010Y324D02*
X4986D01*
Y336D01*
X4990Y340D01*
X4998D01*
X5002Y336D01*
Y324D01*
Y332D02*
X5010Y340D01*
X5014Y347D02*
Y363D01*
X4986Y371D02*
X5010D01*
X4998D01*
X4994Y375D01*
Y383D01*
X4998Y387D01*
X5010D01*
Y395D02*
Y406D01*
X5006Y410D01*
X5002Y406D01*
Y399D01*
X4998Y395D01*
X4994Y399D01*
Y410D01*
X5014Y418D02*
Y434D01*
X5010Y442D02*
Y450D01*
Y446D01*
X4986D01*
X4990Y442D01*
X4986Y462D02*
Y477D01*
X4990D01*
X5006Y462D01*
X5010D01*
X4806Y303D02*
Y327D01*
X4818D01*
X4822Y323D01*
Y315D01*
X4818Y311D01*
X4806D01*
X4814D02*
X4822Y303D01*
X4830Y299D02*
X4845D01*
X4853Y327D02*
Y303D01*
Y315D01*
X4857Y319D01*
X4865D01*
X4869Y315D01*
Y303D01*
X4877D02*
X4889D01*
X4893Y307D01*
X4889Y311D01*
X4881D01*
X4877Y315D01*
X4881Y319D01*
X4893D01*
X4901Y299D02*
X4916D01*
X4924Y303D02*
X4932D01*
X4928D01*
Y327D01*
X4924Y323D01*
X4960Y327D02*
X4952Y323D01*
X4944Y315D01*
Y307D01*
X4948Y303D01*
X4956D01*
X4960Y307D01*
Y311D01*
X4956Y315D01*
X4944D01*
X4723Y201D02*
Y224D01*
X4735D01*
X4739Y220D01*
Y213D01*
X4735Y209D01*
X4723D01*
X4731D02*
X4739Y201D01*
X4747Y197D02*
X4763D01*
X4771Y224D02*
Y201D01*
Y213D01*
X4775Y217D01*
X4782D01*
X4786Y213D01*
Y201D01*
X4794D02*
X4806D01*
X4810Y205D01*
X4806Y209D01*
X4798D01*
X4794Y213D01*
X4798Y217D01*
X4810D01*
X4818Y197D02*
X4834D01*
X4841Y201D02*
X4849D01*
X4845D01*
Y224D01*
X4841Y220D01*
X4877Y224D02*
X4861D01*
Y213D01*
X4869Y217D01*
X4873D01*
X4877Y213D01*
Y205D01*
X4873Y201D01*
X4865D01*
X4861Y205D01*
X4438Y235D02*
X4414D01*
Y247D01*
X4418Y251D01*
X4426D01*
X4430Y247D01*
Y235D01*
Y243D02*
X4438Y251D01*
X4442Y259D02*
Y275D01*
X4414Y282D02*
X4438D01*
X4426D01*
X4422Y286D01*
Y294D01*
X4426Y298D01*
X4438D01*
Y306D02*
Y318D01*
X4434Y322D01*
X4430Y318D01*
Y310D01*
X4426Y306D01*
X4422Y310D01*
Y322D01*
X4442Y330D02*
Y345D01*
X4438Y353D02*
Y361D01*
Y357D01*
X4414D01*
X4418Y353D01*
X4438Y385D02*
X4414D01*
X4426Y373D01*
Y389D01*
X4516Y248D02*
X4492D01*
Y260D01*
X4496Y264D01*
X4504D01*
X4508Y260D01*
Y248D01*
Y256D02*
X4516Y264D01*
X4520Y272D02*
Y287D01*
X4492Y295D02*
X4516D01*
X4504D01*
X4500Y299D01*
Y307D01*
X4504Y311D01*
X4516D01*
Y319D02*
Y331D01*
X4512Y335D01*
X4508Y331D01*
Y323D01*
X4504Y319D01*
X4500Y323D01*
Y335D01*
X4520Y342D02*
Y358D01*
X4516Y366D02*
Y374D01*
Y370D01*
X4492D01*
X4496Y366D01*
Y386D02*
X4492Y390D01*
Y398D01*
X4496Y402D01*
X4500D01*
X4504Y398D01*
Y394D01*
Y398D01*
X4508Y402D01*
X4512D01*
X4516Y398D01*
Y390D01*
X4512Y386D01*
X4705Y672D02*
X4681D01*
Y684D01*
X4685Y688D01*
X4693D01*
X4697Y684D01*
Y672D01*
Y680D02*
X4705Y688D01*
X4709Y695D02*
Y711D01*
X4681Y719D02*
X4705D01*
X4693D01*
X4689Y723D01*
Y731D01*
X4693Y735D01*
X4705D01*
Y743D02*
Y754D01*
X4701Y758D01*
X4697Y754D01*
Y747D01*
X4693Y743D01*
X4689Y747D01*
Y758D01*
X4709Y766D02*
Y782D01*
X4705Y790D02*
Y798D01*
Y794D01*
X4681D01*
X4685Y790D01*
X4705Y810D02*
Y817D01*
Y813D01*
X4681D01*
X4685Y810D01*
X4113Y592D02*
X4090D01*
Y603D01*
X4094Y607D01*
X4101D01*
X4105Y603D01*
Y592D01*
Y599D02*
X4113Y607D01*
X4117Y615D02*
Y631D01*
X4090Y639D02*
X4113D01*
X4101D01*
X4097Y643D01*
Y651D01*
X4101Y655D01*
X4113D01*
Y662D02*
Y674D01*
X4109Y678D01*
X4105Y674D01*
Y666D01*
X4101Y662D01*
X4097Y666D01*
Y678D01*
X4117Y686D02*
Y702D01*
X4113Y710D02*
Y717D01*
Y714D01*
X4090D01*
X4094Y710D01*
Y729D02*
X4090Y733D01*
Y741D01*
X4094Y745D01*
X4109D01*
X4113Y741D01*
Y733D01*
X4109Y729D01*
X4094D01*
X4298Y701D02*
X4274D01*
Y713D01*
X4278Y717D01*
X4286D01*
X4290Y713D01*
Y701D01*
Y709D02*
X4298Y717D01*
X4302Y725D02*
Y740D01*
X4274Y748D02*
X4298D01*
X4286D01*
X4282Y752D01*
Y760D01*
X4286Y764D01*
X4298D01*
Y772D02*
Y784D01*
X4294Y787D01*
X4290Y784D01*
Y776D01*
X4286Y772D01*
X4282Y776D01*
Y787D01*
X4302Y795D02*
Y811D01*
X4294Y819D02*
X4298Y823D01*
Y831D01*
X4294Y835D01*
X4278D01*
X4274Y831D01*
Y823D01*
X4278Y819D01*
X4282D01*
X4286Y823D01*
Y835D01*
X5299Y1771D02*
X5275D01*
Y1783D01*
X5279Y1787D01*
X5287D01*
X5291Y1783D01*
Y1771D01*
Y1779D02*
X5299Y1787D01*
X5303Y1795D02*
Y1811D01*
X5275Y1819D02*
X5299D01*
X5287D01*
X5283Y1823D01*
Y1830D01*
X5287Y1834D01*
X5299D01*
Y1842D02*
Y1854D01*
X5295Y1858D01*
X5291Y1854D01*
Y1846D01*
X5287Y1842D01*
X5283Y1846D01*
Y1858D01*
X5303Y1866D02*
Y1882D01*
X5279Y1889D02*
X5275Y1893D01*
Y1901D01*
X5279Y1905D01*
X5283D01*
X5287Y1901D01*
X5291Y1905D01*
X5295D01*
X5299Y1901D01*
Y1893D01*
X5295Y1889D01*
X5291D01*
X5287Y1893D01*
X5283Y1889D01*
X5279D01*
X5287Y1893D02*
Y1901D01*
X5218Y794D02*
X5195D01*
Y806D01*
X5199Y810D01*
X5207D01*
X5210Y806D01*
Y794D01*
Y802D02*
X5218Y810D01*
X5222Y817D02*
Y833D01*
X5195Y841D02*
X5218D01*
X5207D01*
X5203Y845D01*
Y853D01*
X5207Y857D01*
X5218D01*
Y865D02*
Y877D01*
X5214Y880D01*
X5210Y877D01*
Y869D01*
X5207Y865D01*
X5203Y869D01*
Y880D01*
X5222Y888D02*
Y904D01*
X5195Y912D02*
Y928D01*
X5199D01*
X5214Y912D01*
X5218D01*
X5328Y593D02*
X5304D01*
Y605D01*
X5308Y609D01*
X5316D01*
X5320Y605D01*
Y593D01*
Y601D02*
X5328Y609D01*
X5332Y617D02*
Y632D01*
X5304Y640D02*
X5328D01*
X5316D01*
X5312Y644D01*
Y652D01*
X5316Y656D01*
X5328D01*
Y664D02*
Y676D01*
X5324Y680D01*
X5320Y676D01*
Y668D01*
X5316Y664D01*
X5312Y668D01*
Y680D01*
X5332Y688D02*
Y703D01*
X5304Y727D02*
X5308Y719D01*
X5316Y711D01*
X5324D01*
X5328Y715D01*
Y723D01*
X5324Y727D01*
X5320D01*
X5316Y723D01*
Y711D01*
X5322Y466D02*
X5298D01*
Y477D01*
X5302Y481D01*
X5310D01*
X5314Y477D01*
Y466D01*
Y473D02*
X5322Y481D01*
X5326Y489D02*
Y505D01*
X5298Y513D02*
X5322D01*
X5310D01*
X5306Y517D01*
Y525D01*
X5310Y529D01*
X5322D01*
Y536D02*
Y548D01*
X5318Y552D01*
X5314Y548D01*
Y540D01*
X5310Y536D01*
X5306Y540D01*
Y552D01*
X5326Y560D02*
Y576D01*
X5298Y599D02*
Y584D01*
X5310D01*
X5306Y591D01*
Y595D01*
X5310Y599D01*
X5318D01*
X5322Y595D01*
Y588D01*
X5318Y584D01*
X5327Y292D02*
X5303D01*
Y304D01*
X5307Y308D01*
X5315D01*
X5319Y304D01*
Y292D01*
Y300D02*
X5327Y308D01*
X5331Y315D02*
Y331D01*
X5303Y339D02*
X5327D01*
X5315D01*
X5311Y343D01*
Y351D01*
X5315Y355D01*
X5327D01*
Y363D02*
Y375D01*
X5323Y378D01*
X5319Y375D01*
Y367D01*
X5315Y363D01*
X5311Y367D01*
Y378D01*
X5331Y386D02*
Y402D01*
X5327Y422D02*
X5303D01*
X5315Y410D01*
Y426D01*
X5035Y135D02*
Y158D01*
X5047D01*
X5051Y155D01*
Y147D01*
X5047Y143D01*
X5035D01*
X5043D02*
X5051Y135D01*
X5059Y131D02*
X5075D01*
X5083Y158D02*
Y135D01*
Y147D01*
X5087Y151D01*
X5094D01*
X5098Y147D01*
Y135D01*
X5106D02*
X5118D01*
X5122Y139D01*
X5118Y143D01*
X5110D01*
X5106Y147D01*
X5110Y151D01*
X5122D01*
X5130Y131D02*
X5146D01*
X5154Y155D02*
X5157Y158D01*
X5165D01*
X5169Y155D01*
Y151D01*
X5165Y147D01*
X5161D01*
X5165D01*
X5169Y143D01*
Y139D01*
X5165Y135D01*
X5157D01*
X5154Y139D01*
X4758Y25D02*
Y48D01*
X4770D01*
X4774Y44D01*
Y36D01*
X4770Y32D01*
X4758D01*
X4766D02*
X4774Y25D01*
X4781Y21D02*
X4797D01*
X4805Y48D02*
Y25D01*
Y36D01*
X4809Y40D01*
X4817D01*
X4821Y36D01*
Y25D01*
X4829D02*
X4841D01*
X4844Y29D01*
X4841Y32D01*
X4833D01*
X4829Y36D01*
X4833Y40D01*
X4844D01*
X4852Y21D02*
X4868D01*
X4892Y25D02*
X4876D01*
X4892Y40D01*
Y44D01*
X4888Y48D01*
X4880D01*
X4876Y44D01*
X4181Y699D02*
X4157D01*
Y711D01*
X4161Y715D01*
X4169D01*
X4173Y711D01*
Y699D01*
Y707D02*
X4181Y715D01*
X4185Y722D02*
Y738D01*
X4157Y746D02*
X4181D01*
X4169D01*
X4165Y750D01*
Y758D01*
X4169Y762D01*
X4181D01*
Y770D02*
Y781D01*
X4177Y785D01*
X4173Y781D01*
Y774D01*
X4169Y770D01*
X4165Y774D01*
Y785D01*
X4185Y793D02*
Y809D01*
X4181Y817D02*
Y825D01*
Y821D01*
X4157D01*
X4161Y817D01*
X1429Y1807D02*
Y1831D01*
X1441D01*
X1445Y1827D01*
Y1819D01*
X1441Y1815D01*
X1429D01*
X1437D02*
X1445Y1807D01*
X1468D02*
X1453D01*
X1468Y1823D01*
Y1827D01*
X1465Y1831D01*
X1457D01*
X1453Y1827D01*
X1476D02*
X1480Y1831D01*
X1488D01*
X1492Y1827D01*
Y1823D01*
X1488Y1819D01*
X1484D01*
X1488D01*
X1492Y1815D01*
Y1811D01*
X1488Y1807D01*
X1480D01*
X1476Y1811D01*
X1500Y1803D02*
X1516D01*
X1539Y1807D02*
X1524D01*
X1539Y1823D01*
Y1827D01*
X1535Y1831D01*
X1528D01*
X1524Y1827D01*
X3792Y1310D02*
Y1333D01*
X3803D01*
X3807Y1329D01*
Y1321D01*
X3803Y1318D01*
X3792D01*
X3799D02*
X3807Y1310D01*
X3831D02*
X3815D01*
X3831Y1325D01*
Y1329D01*
X3827Y1333D01*
X3819D01*
X3815Y1329D01*
X3839D02*
X3843Y1333D01*
X3851D01*
X3855Y1329D01*
Y1325D01*
X3851Y1321D01*
X3847D01*
X3851D01*
X3855Y1318D01*
Y1314D01*
X3851Y1310D01*
X3843D01*
X3839Y1314D01*
X3862Y1306D02*
X3878D01*
X3886Y1310D02*
X3894D01*
X3890D01*
Y1333D01*
X3886Y1329D01*
X1958Y1792D02*
Y1816D01*
X1969D01*
X1973Y1812D01*
Y1804D01*
X1969Y1800D01*
X1958D01*
X1966D02*
X1973Y1792D01*
X1997D02*
X1981D01*
X1997Y1808D01*
Y1812D01*
X1993Y1816D01*
X1985D01*
X1981Y1812D01*
X2021Y1792D02*
X2005D01*
X2021Y1808D01*
Y1812D01*
X2017Y1816D01*
X2009D01*
X2005Y1812D01*
X2029Y1788D02*
X2044D01*
X2068Y1792D02*
X2052D01*
X2068Y1808D01*
Y1812D01*
X2064Y1816D01*
X2056D01*
X2052Y1812D01*
X3295Y1321D02*
Y1344D01*
X3307D01*
X3311Y1340D01*
Y1333D01*
X3307Y1329D01*
X3295D01*
X3303D02*
X3311Y1321D01*
X3335D02*
X3319D01*
X3335Y1337D01*
Y1340D01*
X3331Y1344D01*
X3323D01*
X3319Y1340D01*
X3358Y1321D02*
X3342D01*
X3358Y1337D01*
Y1340D01*
X3354Y1344D01*
X3346D01*
X3342Y1340D01*
X3366Y1317D02*
X3382D01*
X3390Y1321D02*
X3398D01*
X3394D01*
Y1344D01*
X3390Y1340D01*
X1471Y1604D02*
Y1628D01*
X1483D01*
X1487Y1624D01*
Y1616D01*
X1483Y1612D01*
X1471D01*
X1479D02*
X1487Y1604D01*
X1511D02*
X1495D01*
X1511Y1620D01*
Y1624D01*
X1507Y1628D01*
X1499D01*
X1495Y1624D01*
X1519Y1604D02*
X1527D01*
X1523D01*
Y1628D01*
X1519Y1624D01*
X1538Y1600D02*
X1554D01*
X1578Y1604D02*
X1562D01*
X1578Y1620D01*
Y1624D01*
X1574Y1628D01*
X1566D01*
X1562Y1624D01*
X3799Y1527D02*
Y1551D01*
X3811D01*
X3815Y1547D01*
Y1539D01*
X3811Y1535D01*
X3799D01*
X3807D02*
X3815Y1527D01*
X3839D02*
X3823D01*
X3839Y1543D01*
Y1547D01*
X3835Y1551D01*
X3827D01*
X3823Y1547D01*
X3847Y1527D02*
X3855D01*
X3851D01*
Y1551D01*
X3847Y1547D01*
X3866Y1523D02*
X3882D01*
X3890Y1527D02*
X3898D01*
X3894D01*
Y1551D01*
X3890Y1547D01*
X1948Y1563D02*
Y1587D01*
X1960D01*
X1964Y1583D01*
Y1575D01*
X1960Y1571D01*
X1948D01*
X1956D02*
X1964Y1563D01*
X1987D02*
X1971D01*
X1987Y1579D01*
Y1583D01*
X1983Y1587D01*
X1975D01*
X1971Y1583D01*
X1995D02*
X1999Y1587D01*
X2007D01*
X2011Y1583D01*
Y1567D01*
X2007Y1563D01*
X1999D01*
X1995Y1567D01*
Y1583D01*
X2019Y1559D02*
X2034D01*
X2058Y1563D02*
X2042D01*
X2058Y1579D01*
Y1583D01*
X2054Y1587D01*
X2046D01*
X2042Y1583D01*
X3309Y1532D02*
Y1555D01*
X3321D01*
X3325Y1551D01*
Y1544D01*
X3321Y1540D01*
X3309D01*
X3317D02*
X3325Y1532D01*
X3348D02*
X3333D01*
X3348Y1548D01*
Y1551D01*
X3345Y1555D01*
X3337D01*
X3333Y1551D01*
X3356D02*
X3360Y1555D01*
X3368D01*
X3372Y1551D01*
Y1536D01*
X3368Y1532D01*
X3360D01*
X3356Y1536D01*
Y1551D01*
X3380Y1528D02*
X3396D01*
X3404Y1532D02*
X3411D01*
X3407D01*
Y1555D01*
X3404Y1551D01*
X3205Y440D02*
Y464D01*
X3217D01*
X3221Y460D01*
Y452D01*
X3217Y448D01*
X3205D01*
X3213D02*
X3221Y440D01*
X3228D02*
X3236D01*
X3232D01*
Y464D01*
X3228Y460D01*
X3248Y444D02*
X3252Y440D01*
X3260D01*
X3264Y444D01*
Y460D01*
X3260Y464D01*
X3252D01*
X3248Y460D01*
Y456D01*
X3252Y452D01*
X3264D01*
X3272Y436D02*
X3287D01*
X3295Y440D02*
X3303D01*
X3299D01*
Y464D01*
X3295Y460D01*
X1389Y392D02*
X1365D01*
Y404D01*
X1369Y407D01*
X1377D01*
X1381Y404D01*
Y392D01*
Y400D02*
X1389Y407D01*
Y415D02*
Y423D01*
Y419D01*
X1365D01*
X1369Y415D01*
X1385Y435D02*
X1389Y439D01*
Y447D01*
X1385Y451D01*
X1369D01*
X1365Y447D01*
Y439D01*
X1369Y435D01*
X1373D01*
X1377Y439D01*
Y451D01*
X1393Y459D02*
Y474D01*
X1389Y498D02*
Y482D01*
X1373Y498D01*
X1369D01*
X1365Y494D01*
Y486D01*
X1369Y482D01*
X3291Y511D02*
X3268D01*
Y523D01*
X3272Y527D01*
X3280D01*
X3284Y523D01*
Y511D01*
Y519D02*
X3291Y527D01*
Y535D02*
Y543D01*
Y539D01*
X3268D01*
X3272Y535D01*
Y555D02*
X3268Y558D01*
Y566D01*
X3272Y570D01*
X3276D01*
X3280Y566D01*
X3284Y570D01*
X3287D01*
X3291Y566D01*
Y558D01*
X3287Y555D01*
X3284D01*
X3280Y558D01*
X3276Y555D01*
X3272D01*
X3280Y558D02*
Y566D01*
X3295Y578D02*
Y594D01*
X3291Y602D02*
Y610D01*
Y606D01*
X3268D01*
X3272Y602D01*
X3499Y647D02*
X3475D01*
Y659D01*
X3479Y663D01*
X3487D01*
X3491Y659D01*
Y647D01*
Y655D02*
X3499Y663D01*
Y671D02*
Y679D01*
Y675D01*
X3475D01*
X3479Y671D01*
X3475Y690D02*
Y706D01*
X3479D01*
X3495Y690D01*
X3499D01*
X3503Y714D02*
Y730D01*
X3499Y738D02*
Y745D01*
Y742D01*
X3475D01*
X3479Y738D01*
X1557Y604D02*
X1533D01*
Y616D01*
X1537Y620D01*
X1545D01*
X1549Y616D01*
Y604D01*
Y612D02*
X1557Y620D01*
Y628D02*
Y636D01*
Y632D01*
X1533D01*
X1537Y628D01*
X1533Y648D02*
Y663D01*
X1537D01*
X1553Y648D01*
X1557D01*
X1561Y671D02*
Y687D01*
X1557Y711D02*
Y695D01*
X1541Y711D01*
X1537D01*
X1533Y707D01*
Y699D01*
X1537Y695D01*
X4074Y417D02*
X4050D01*
Y429D01*
X4054Y433D01*
X4062D01*
X4066Y429D01*
Y417D01*
Y425D02*
X4074Y433D01*
Y441D02*
Y449D01*
Y445D01*
X4050D01*
X4054Y441D01*
X4050Y476D02*
Y461D01*
X4062D01*
X4058Y468D01*
Y472D01*
X4062Y476D01*
X4070D01*
X4074Y472D01*
Y465D01*
X4070Y461D01*
X4078Y484D02*
Y500D01*
X4074Y508D02*
Y516D01*
Y512D01*
X4050D01*
X4054Y508D01*
X2143Y383D02*
X2119D01*
Y395D01*
X2123Y399D01*
X2131D01*
X2135Y395D01*
Y383D01*
Y391D02*
X2143Y399D01*
Y406D02*
Y414D01*
Y410D01*
X2119D01*
X2123Y406D01*
X2119Y442D02*
Y426D01*
X2131D01*
X2127Y434D01*
Y438D01*
X2131Y442D01*
X2139D01*
X2143Y438D01*
Y430D01*
X2139Y426D01*
X2147Y450D02*
Y466D01*
X2143Y489D02*
Y473D01*
X2127Y489D01*
X2123D01*
X2119Y485D01*
Y477D01*
X2123Y473D01*
X3923Y639D02*
X3900D01*
Y651D01*
X3904Y655D01*
X3911D01*
X3915Y651D01*
Y639D01*
Y647D02*
X3923Y655D01*
Y662D02*
Y670D01*
Y666D01*
X3900D01*
X3904Y662D01*
X3923Y694D02*
X3900D01*
X3911Y682D01*
Y698D01*
X3927Y706D02*
Y721D01*
X3923Y729D02*
Y737D01*
Y733D01*
X3900D01*
X3904Y729D01*
X2096Y581D02*
Y604D01*
X2108D01*
X2112Y600D01*
Y593D01*
X2108Y589D01*
X2096D01*
X2104D02*
X2112Y581D01*
X2120D02*
X2128D01*
X2124D01*
Y604D01*
X2120Y600D01*
X2152Y581D02*
Y604D01*
X2140Y593D01*
X2155D01*
X2163Y577D02*
X2179D01*
X2203Y581D02*
X2187D01*
X2203Y596D01*
Y600D01*
X2199Y604D01*
X2191D01*
X2187Y600D01*
X3888Y639D02*
X3864D01*
Y651D01*
X3868Y655D01*
X3876D01*
X3880Y651D01*
Y639D01*
Y647D02*
X3888Y655D01*
Y662D02*
Y670D01*
Y666D01*
X3864D01*
X3868Y662D01*
Y682D02*
X3864Y686D01*
Y694D01*
X3868Y698D01*
X3872D01*
X3876Y694D01*
Y690D01*
Y694D01*
X3880Y698D01*
X3884D01*
X3888Y694D01*
Y686D01*
X3884Y682D01*
X3892Y706D02*
Y721D01*
X3888Y729D02*
Y737D01*
Y733D01*
X3864D01*
X3868Y729D01*
X1960Y604D02*
X1936D01*
Y616D01*
X1940Y620D01*
X1948D01*
X1952Y616D01*
Y604D01*
Y612D02*
X1960Y620D01*
Y628D02*
Y636D01*
Y632D01*
X1936D01*
X1940Y628D01*
Y648D02*
X1936Y652D01*
Y659D01*
X1940Y663D01*
X1944D01*
X1948Y659D01*
Y655D01*
Y659D01*
X1952Y663D01*
X1956D01*
X1960Y659D01*
Y652D01*
X1956Y648D01*
X1964Y671D02*
Y687D01*
X1960Y711D02*
Y695D01*
X1944Y711D01*
X1940D01*
X1936Y707D01*
Y699D01*
X1940Y695D01*
X2665Y382D02*
X2642D01*
Y394D01*
X2646Y398D01*
X2654D01*
X2657Y394D01*
Y382D01*
Y390D02*
X2665Y398D01*
Y406D02*
Y413D01*
Y409D01*
X2642D01*
X2646Y406D01*
X2665Y425D02*
Y433D01*
Y429D01*
X2642D01*
X2646Y425D01*
X2562Y360D02*
Y384D01*
X2573D01*
X2577Y380D01*
Y372D01*
X2573Y368D01*
X2562D01*
X2570D02*
X2577Y360D01*
X2585D02*
X2593D01*
X2589D01*
Y384D01*
X2585Y380D01*
X2605D02*
X2609Y384D01*
X2617D01*
X2621Y380D01*
Y364D01*
X2617Y360D01*
X2609D01*
X2605Y364D01*
Y380D01*
X2659Y660D02*
Y684D01*
X2671D01*
X2675Y680D01*
Y672D01*
X2671Y668D01*
X2659D01*
X2667D02*
X2675Y660D01*
X2683Y680D02*
X2687Y684D01*
X2695D01*
X2699Y680D01*
Y676D01*
X2695Y672D01*
X2699Y668D01*
Y664D01*
X2695Y660D01*
X2687D01*
X2683Y664D01*
Y668D01*
X2687Y672D01*
X2683Y676D01*
Y680D01*
X2687Y672D02*
X2695D01*
X2450Y1009D02*
Y1033D01*
X2461D01*
X2465Y1029D01*
Y1021D01*
X2461Y1017D01*
X2450D01*
X2458D02*
X2465Y1009D01*
X2473Y1033D02*
X2489D01*
Y1029D01*
X2473Y1013D01*
Y1009D01*
X2827Y1845D02*
Y1868D01*
X2839D01*
X2842Y1864D01*
Y1856D01*
X2839Y1853D01*
X2827D01*
X2835D02*
X2842Y1845D01*
X2866Y1868D02*
X2858Y1864D01*
X2850Y1856D01*
Y1849D01*
X2854Y1845D01*
X2862D01*
X2866Y1849D01*
Y1853D01*
X2862Y1856D01*
X2850D01*
X2726Y387D02*
X2703D01*
Y399D01*
X2707Y403D01*
X2715D01*
X2719Y399D01*
Y387D01*
Y395D02*
X2726Y403D01*
X2703Y426D02*
Y410D01*
X2715D01*
X2711Y418D01*
Y422D01*
X2715Y426D01*
X2722D01*
X2726Y422D01*
Y414D01*
X2722Y410D01*
X2727Y251D02*
X2704D01*
Y263D01*
X2708Y267D01*
X2716D01*
X2719Y263D01*
Y251D01*
Y259D02*
X2727Y267D01*
Y286D02*
X2704D01*
X2716Y275D01*
Y290D01*
X2788Y644D02*
Y668D01*
X2799D01*
X2803Y664D01*
Y656D01*
X2799Y652D01*
X2788D01*
X2796D02*
X2803Y644D01*
X2827D02*
X2811D01*
X2827Y660D01*
Y664D01*
X2823Y668D01*
X2815D01*
X2811Y664D01*
X2937Y897D02*
Y920D01*
X2949D01*
X2953Y916D01*
Y908D01*
X2949Y905D01*
X2937D01*
X2945D02*
X2953Y897D01*
X2961D02*
X2968D01*
X2965D01*
Y920D01*
X2961Y916D01*
X432Y577D02*
Y593D01*
X429Y596D01*
X421D01*
X417Y593D01*
Y577D01*
X421Y573D01*
X429D01*
X425Y581D02*
X432Y573D01*
X429D02*
X432Y577D01*
X440Y569D02*
X456D01*
X464Y573D02*
X472D01*
X468D01*
Y596D01*
X464D01*
X484Y573D02*
X495D01*
X499Y577D01*
X495Y581D01*
X488D01*
X484Y585D01*
X488Y589D01*
X499D01*
X507Y569D02*
X523D01*
X531Y593D02*
X535Y596D01*
X543D01*
X547Y593D01*
Y589D01*
X543Y585D01*
X539D01*
X543D01*
X547Y581D01*
Y577D01*
X543Y573D01*
X535D01*
X531Y577D01*
X1196Y436D02*
Y446D01*
X1193Y449D01*
X1188D01*
X1185Y446D01*
Y436D01*
X1188Y433D01*
X1193D01*
X1191Y438D02*
X1196Y433D01*
X1193D02*
X1196Y436D01*
X1201Y430D02*
X1212D01*
X1217Y433D02*
X1222D01*
X1220D01*
Y449D01*
X1217D01*
X1230Y433D02*
X1238D01*
X1241Y436D01*
X1238Y438D01*
X1233D01*
X1230Y441D01*
X1233Y444D01*
X1241D01*
X1246Y430D02*
X1256D01*
X1272Y433D02*
X1262D01*
X1272Y444D01*
Y446D01*
X1269Y449D01*
X1264D01*
X1262Y446D01*
X684Y588D02*
Y603D01*
X681Y607D01*
X673D01*
X669Y603D01*
Y588D01*
X673Y584D01*
X681D01*
X677Y592D02*
X684Y584D01*
X681D02*
X684Y588D01*
X692Y580D02*
X708D01*
X716Y584D02*
X724D01*
X720D01*
Y607D01*
X716D01*
X736Y584D02*
X747D01*
X751Y588D01*
X747Y592D01*
X740D01*
X736Y595D01*
X740Y599D01*
X751D01*
X759Y580D02*
X775D01*
X783Y584D02*
X791D01*
X787D01*
Y607D01*
X783Y603D01*
X5016Y680D02*
X5000D01*
X4996Y676D01*
Y668D01*
X5000Y664D01*
X5016D01*
X5020Y668D01*
Y676D01*
X5012Y672D02*
X5020Y680D01*
Y676D02*
X5016Y680D01*
X5024Y688D02*
Y703D01*
X4996Y711D02*
X5020D01*
X5008D01*
X5004Y715D01*
Y723D01*
X5008Y727D01*
X5020D01*
Y735D02*
Y747D01*
X5016Y750D01*
X5012Y747D01*
Y739D01*
X5008Y735D01*
X5004Y739D01*
Y750D01*
X5024Y758D02*
Y774D01*
X5000Y782D02*
X4996Y786D01*
Y794D01*
X5000Y798D01*
X5004D01*
X5008Y794D01*
Y790D01*
Y794D01*
X5012Y798D01*
X5016D01*
X5020Y794D01*
Y786D01*
X5016Y782D01*
X4130Y347D02*
X4120D01*
X4117Y344D01*
Y339D01*
X4120Y337D01*
X4130D01*
X4133Y339D01*
Y344D01*
X4128Y342D02*
X4133Y347D01*
Y344D02*
X4130Y347D01*
X4135Y352D02*
Y363D01*
X4117Y368D02*
X4133D01*
X4125D01*
X4122Y371D01*
Y376D01*
X4125Y379D01*
X4133D01*
Y384D02*
Y392D01*
X4130Y394D01*
X4128Y392D01*
Y386D01*
X4125Y384D01*
X4122Y386D01*
Y394D01*
X4135Y400D02*
Y410D01*
X4133Y426D02*
Y415D01*
X4122Y426D01*
X4120D01*
X4117Y423D01*
Y418D01*
X4120Y415D01*
X4480Y606D02*
Y621D01*
X4477Y625D01*
X4469D01*
X4465Y621D01*
Y606D01*
X4469Y602D01*
X4477D01*
X4473Y610D02*
X4480Y602D01*
X4477D02*
X4480Y606D01*
X4488Y598D02*
X4504D01*
X4512Y625D02*
Y602D01*
Y614D01*
X4516Y618D01*
X4524D01*
X4528Y614D01*
Y602D01*
X4536D02*
X4547D01*
X4551Y606D01*
X4547Y610D01*
X4540D01*
X4536Y614D01*
X4540Y618D01*
X4551D01*
X4559Y598D02*
X4575D01*
X4583Y602D02*
X4591D01*
X4587D01*
Y625D01*
X4583Y621D01*
X2360Y509D02*
Y533D01*
X2372D01*
X2376Y529D01*
Y521D01*
X2372Y517D01*
X2360D01*
X2400Y533D02*
X2392Y529D01*
X2384Y521D01*
Y513D01*
X2388Y509D01*
X2396D01*
X2400Y513D01*
Y517D01*
X2396Y521D01*
X2384D01*
X2367Y1749D02*
Y1773D01*
X2378D01*
X2382Y1769D01*
Y1761D01*
X2378Y1757D01*
X2367D01*
X2402Y1749D02*
Y1773D01*
X2390Y1761D01*
X2406D01*
X2970Y426D02*
X2947D01*
Y438D01*
X2951Y442D01*
X2959D01*
X2963Y438D01*
Y426D01*
X2951Y450D02*
X2947Y454D01*
Y462D01*
X2951Y466D01*
X2955D01*
X2959Y462D01*
Y458D01*
Y462D01*
X2963Y466D01*
X2967D01*
X2970Y462D01*
Y454D01*
X2967Y450D01*
X3112Y976D02*
Y1000D01*
X3123D01*
X3127Y996D01*
Y988D01*
X3123Y984D01*
X3112D01*
X3135Y976D02*
X3143D01*
X3139D01*
Y1000D01*
X3135Y996D01*
X3241Y665D02*
X3225D01*
Y653D01*
X3233D01*
X3225D01*
Y641D01*
X3249Y665D02*
Y641D01*
X3261D01*
X3265Y645D01*
Y649D01*
X3261Y653D01*
X3249D01*
X3261D01*
X3265Y657D01*
Y661D01*
X3261Y665D01*
X3249D01*
X3273Y661D02*
X3277Y665D01*
X3285D01*
X3288Y661D01*
Y657D01*
X3285Y653D01*
X3281D01*
X3285D01*
X3288Y649D01*
Y645D01*
X3285Y641D01*
X3277D01*
X3273Y645D01*
X3296Y637D02*
X3312D01*
X3320Y641D02*
X3328D01*
X3324D01*
Y665D01*
X3320Y661D01*
X3797Y590D02*
X3781D01*
Y578D01*
X3789D01*
X3781D01*
Y567D01*
X3805Y590D02*
Y567D01*
X3817D01*
X3821Y571D01*
Y575D01*
X3817Y578D01*
X3805D01*
X3817D01*
X3821Y582D01*
Y586D01*
X3817Y590D01*
X3805D01*
X3829Y567D02*
X3837D01*
X3833D01*
Y590D01*
X3829Y586D01*
X3848Y563D02*
X3864D01*
X3872Y567D02*
X3880D01*
X3876D01*
Y590D01*
X3872Y586D01*
X1860Y571D02*
X1844D01*
Y559D01*
X1852D01*
X1844D01*
Y548D01*
X1868Y571D02*
Y548D01*
X1880D01*
X1884Y552D01*
Y555D01*
X1880Y559D01*
X1868D01*
X1880D01*
X1884Y563D01*
Y567D01*
X1880Y571D01*
X1868D01*
X1892Y548D02*
X1899D01*
X1896D01*
Y571D01*
X1892Y567D01*
X1911Y544D02*
X1927D01*
X1951Y548D02*
X1935D01*
X1951Y563D01*
Y567D01*
X1947Y571D01*
X1939D01*
X1935Y567D01*
X965Y766D02*
X941D01*
Y754D01*
X945Y750D01*
X961D01*
X965Y754D01*
Y766D01*
X937Y742D02*
Y726D01*
X941Y718D02*
Y711D01*
Y715D01*
X965D01*
Y718D01*
X941Y699D02*
Y687D01*
X945Y683D01*
X949Y687D01*
Y695D01*
X953Y699D01*
X957Y695D01*
Y683D01*
X937Y675D02*
Y659D01*
X965Y636D02*
X961Y644D01*
X953Y652D01*
X945D01*
X941Y648D01*
Y640D01*
X945Y636D01*
X949D01*
X953Y640D01*
Y652D01*
X276Y1262D02*
X252D01*
Y1250D01*
X256Y1246D01*
X272D01*
X276Y1250D01*
Y1262D01*
X248Y1238D02*
Y1222D01*
X252Y1215D02*
Y1207D01*
Y1211D01*
X276D01*
Y1215D01*
X252Y1195D02*
Y1183D01*
X256Y1179D01*
X260Y1183D01*
Y1191D01*
X264Y1195D01*
X268Y1191D01*
Y1179D01*
X248Y1171D02*
Y1156D01*
X276Y1132D02*
Y1148D01*
X264D01*
X268Y1140D01*
Y1136D01*
X264Y1132D01*
X256D01*
X252Y1136D01*
Y1144D01*
X256Y1148D01*
X391Y1371D02*
Y1347D01*
X403D01*
X406Y1351D01*
Y1367D01*
X403Y1371D01*
X391D01*
X414Y1344D02*
X430D01*
X438Y1347D02*
X446D01*
X442D01*
Y1371D01*
X438D01*
X458Y1347D02*
X469D01*
X473Y1351D01*
X469Y1355D01*
X462D01*
X458Y1359D01*
X462Y1363D01*
X473D01*
X481Y1344D02*
X497D01*
X517Y1347D02*
Y1371D01*
X505Y1359D01*
X521D01*
X946Y269D02*
Y245D01*
X958D01*
X962Y249D01*
Y265D01*
X958Y269D01*
X946D01*
X969Y241D02*
X985D01*
X993Y245D02*
X1001D01*
X997D01*
Y269D01*
X993D01*
X1013Y245D02*
X1025D01*
X1029Y249D01*
X1025Y253D01*
X1017D01*
X1013Y257D01*
X1017Y261D01*
X1029D01*
X1036Y241D02*
X1052D01*
X1060Y265D02*
X1064Y269D01*
X1072D01*
X1076Y265D01*
Y261D01*
X1072Y257D01*
X1068D01*
X1072D01*
X1076Y253D01*
Y249D01*
X1072Y245D01*
X1064D01*
X1060Y249D01*
X205Y1588D02*
X228D01*
Y1599D01*
X224Y1603D01*
X209D01*
X205Y1599D01*
Y1588D01*
X232Y1611D02*
Y1627D01*
X228Y1635D02*
Y1643D01*
Y1639D01*
X205D01*
Y1635D01*
X228Y1655D02*
Y1666D01*
X224Y1670D01*
X220Y1666D01*
Y1658D01*
X217Y1655D01*
X213Y1658D01*
Y1670D01*
X232Y1678D02*
Y1694D01*
X228Y1717D02*
Y1702D01*
X213Y1717D01*
X209D01*
X205Y1714D01*
Y1706D01*
X209Y1702D01*
X430Y1431D02*
X454D01*
Y1443D01*
X450Y1447D01*
X434D01*
X430Y1443D01*
Y1431D01*
X458Y1455D02*
Y1470D01*
X454Y1478D02*
Y1486D01*
Y1482D01*
X430D01*
Y1478D01*
X454Y1498D02*
Y1510D01*
X450Y1514D01*
X446Y1510D01*
Y1502D01*
X442Y1498D01*
X438Y1502D01*
Y1514D01*
X458Y1522D02*
Y1537D01*
X454Y1545D02*
Y1553D01*
Y1549D01*
X430D01*
X434Y1545D01*
X4558Y830D02*
X4535D01*
Y818D01*
X4539Y815D01*
X4554D01*
X4558Y818D01*
Y830D01*
X4531Y807D02*
Y791D01*
X4558Y783D02*
X4535D01*
X4547D01*
X4550Y779D01*
Y771D01*
X4547Y767D01*
X4535D01*
Y759D02*
Y748D01*
X4539Y744D01*
X4543Y748D01*
Y755D01*
X4547Y759D01*
X4550Y755D01*
Y744D01*
X4531Y736D02*
Y720D01*
X4558Y696D02*
X4554Y704D01*
X4547Y712D01*
X4539D01*
X4535Y708D01*
Y700D01*
X4539Y696D01*
X4543D01*
X4547Y700D01*
Y712D01*
X5058Y1197D02*
X5035D01*
Y1185D01*
X5039Y1181D01*
X5054D01*
X5058Y1185D01*
Y1197D01*
X5031Y1173D02*
Y1157D01*
X5058Y1150D02*
X5035D01*
X5047D01*
X5050Y1146D01*
Y1138D01*
X5047Y1134D01*
X5035D01*
Y1126D02*
Y1114D01*
X5039Y1110D01*
X5043Y1114D01*
Y1122D01*
X5047Y1126D01*
X5050Y1122D01*
Y1110D01*
X5031Y1102D02*
Y1087D01*
X5058Y1063D02*
Y1079D01*
X5047D01*
X5050Y1071D01*
Y1067D01*
X5047Y1063D01*
X5039D01*
X5035Y1067D01*
Y1075D01*
X5039Y1079D01*
X4801Y1132D02*
X4825D01*
Y1144D01*
X4821Y1148D01*
X4805D01*
X4801Y1144D01*
Y1132D01*
X4829Y1155D02*
Y1171D01*
X4801Y1179D02*
X4825D01*
X4813D01*
X4809Y1183D01*
Y1191D01*
X4813Y1195D01*
X4825D01*
Y1203D02*
Y1214D01*
X4821Y1218D01*
X4817Y1214D01*
Y1207D01*
X4813Y1203D01*
X4809Y1207D01*
Y1218D01*
X4829Y1226D02*
Y1242D01*
X4825Y1262D02*
X4801D01*
X4813Y1250D01*
Y1266D01*
X4161Y239D02*
X4185D01*
Y251D01*
X4181Y255D01*
X4165D01*
X4161Y251D01*
Y239D01*
X4189Y263D02*
Y279D01*
X4161Y287D02*
X4185D01*
X4173D01*
X4169Y291D01*
Y298D01*
X4173Y302D01*
X4185D01*
Y310D02*
Y322D01*
X4181Y326D01*
X4177Y322D01*
Y314D01*
X4173Y310D01*
X4169Y314D01*
Y326D01*
X4189Y334D02*
Y350D01*
X4165Y357D02*
X4161Y361D01*
Y369D01*
X4165Y373D01*
X4169D01*
X4173Y369D01*
Y365D01*
Y369D01*
X4177Y373D01*
X4181D01*
X4185Y369D01*
Y361D01*
X4181Y357D01*
X5116Y1827D02*
X5140D01*
Y1839D01*
X5136Y1843D01*
X5120D01*
X5116Y1839D01*
Y1827D01*
X5144Y1851D02*
Y1866D01*
X5116Y1874D02*
X5140D01*
X5128D01*
X5124Y1878D01*
Y1886D01*
X5128Y1890D01*
X5140D01*
Y1898D02*
Y1910D01*
X5136Y1913D01*
X5132Y1910D01*
Y1902D01*
X5128Y1898D01*
X5124Y1902D01*
Y1913D01*
X5144Y1921D02*
Y1937D01*
X5140Y1961D02*
Y1945D01*
X5124Y1961D01*
X5120D01*
X5116Y1957D01*
Y1949D01*
X5120Y1945D01*
X5025Y1840D02*
X5049D01*
Y1852D01*
X5045Y1856D01*
X5029D01*
X5025Y1852D01*
Y1840D01*
X5053Y1864D02*
Y1879D01*
X5025Y1887D02*
X5049D01*
X5037D01*
X5033Y1891D01*
Y1899D01*
X5037Y1903D01*
X5049D01*
Y1911D02*
Y1923D01*
X5045Y1926D01*
X5041Y1923D01*
Y1915D01*
X5037Y1911D01*
X5033Y1915D01*
Y1926D01*
X5053Y1934D02*
Y1950D01*
X5049Y1958D02*
Y1966D01*
Y1962D01*
X5025D01*
X5029Y1958D01*
X3214Y360D02*
Y337D01*
X3226D01*
X3230Y341D01*
Y356D01*
X3226Y360D01*
X3214D01*
X3238Y337D02*
X3246D01*
X3242D01*
Y360D01*
X3238Y356D01*
X3258D02*
X3262Y360D01*
X3270D01*
X3273Y356D01*
Y341D01*
X3270Y337D01*
X3262D01*
X3258Y341D01*
Y356D01*
X3281Y333D02*
X3297D01*
X3305Y337D02*
X3313D01*
X3309D01*
Y360D01*
X3305Y356D01*
X1369Y257D02*
X1393D01*
Y269D01*
X1389Y273D01*
X1373D01*
X1369Y269D01*
Y257D01*
X1393Y281D02*
Y288D01*
Y284D01*
X1369D01*
X1373Y281D01*
Y300D02*
X1369Y304D01*
Y312D01*
X1373Y316D01*
X1389D01*
X1393Y312D01*
Y304D01*
X1389Y300D01*
X1373D01*
X1397Y324D02*
Y340D01*
X1393Y363D02*
Y347D01*
X1377Y363D01*
X1373D01*
X1369Y359D01*
Y351D01*
X1373Y347D01*
X3274Y747D02*
Y724D01*
X3286D01*
X3290Y728D01*
Y743D01*
X3286Y747D01*
X3274D01*
X3298Y728D02*
X3302Y724D01*
X3310D01*
X3314Y728D01*
Y743D01*
X3310Y747D01*
X3302D01*
X3298Y743D01*
Y739D01*
X3302Y735D01*
X3314D01*
X3322Y720D02*
X3337D01*
X3345Y724D02*
X3353D01*
X3349D01*
Y747D01*
X3345Y743D01*
X1337Y728D02*
Y705D01*
X1349D01*
X1353Y709D01*
Y724D01*
X1349Y728D01*
X1337D01*
X1361Y709D02*
X1365Y705D01*
X1373D01*
X1377Y709D01*
Y724D01*
X1373Y728D01*
X1365D01*
X1361Y724D01*
Y720D01*
X1365Y716D01*
X1377D01*
X1385Y701D02*
X1400D01*
X1424Y705D02*
X1408D01*
X1424Y720D01*
Y724D01*
X1420Y728D01*
X1412D01*
X1408Y724D01*
X3589Y756D02*
Y733D01*
X3601D01*
X3605Y737D01*
Y752D01*
X3601Y756D01*
X3589D01*
X3613Y752D02*
X3617Y756D01*
X3625D01*
X3629Y752D01*
Y748D01*
X3625Y744D01*
X3629Y741D01*
Y737D01*
X3625Y733D01*
X3617D01*
X3613Y737D01*
Y741D01*
X3617Y744D01*
X3613Y748D01*
Y752D01*
X3617Y744D02*
X3625D01*
X3637Y729D02*
X3652D01*
X3660Y733D02*
X3668D01*
X3664D01*
Y756D01*
X3660Y752D01*
X4052Y309D02*
X4076D01*
Y321D01*
X4072Y325D01*
X4056D01*
X4052Y321D01*
Y309D01*
Y333D02*
Y348D01*
X4056D01*
X4072Y333D01*
X4076D01*
X4080Y356D02*
Y372D01*
X4076Y380D02*
Y388D01*
Y384D01*
X4052D01*
X4056Y380D01*
X2118Y272D02*
X2142D01*
Y283D01*
X2138Y287D01*
X2122D01*
X2118Y283D01*
Y272D01*
Y295D02*
Y311D01*
X2122D01*
X2138Y295D01*
X2142D01*
X2146Y319D02*
Y335D01*
X2142Y358D02*
Y342D01*
X2126Y358D01*
X2122D01*
X2118Y354D01*
Y346D01*
X2122Y342D01*
X4028Y681D02*
X4052D01*
Y693D01*
X4048Y696D01*
X4032D01*
X4028Y693D01*
Y681D01*
Y720D02*
X4032Y712D01*
X4040Y704D01*
X4048D01*
X4052Y708D01*
Y716D01*
X4048Y720D01*
X4044D01*
X4040Y716D01*
Y704D01*
X4056Y728D02*
Y744D01*
X4052Y752D02*
Y759D01*
Y755D01*
X4028D01*
X4032Y752D01*
X2106Y706D02*
Y682D01*
X2118D01*
X2122Y686D01*
Y702D01*
X2118Y706D01*
X2106D01*
X2145D02*
X2137Y702D01*
X2129Y694D01*
Y686D01*
X2133Y682D01*
X2141D01*
X2145Y686D01*
Y690D01*
X2141Y694D01*
X2129D01*
X2153Y678D02*
X2169D01*
X2192Y682D02*
X2177D01*
X2192Y698D01*
Y702D01*
X2188Y706D01*
X2181D01*
X2177Y702D01*
X3690Y756D02*
Y733D01*
X3702D01*
X3706Y737D01*
Y752D01*
X3702Y756D01*
X3690D01*
X3730D02*
X3714D01*
Y744D01*
X3722Y748D01*
X3726D01*
X3730Y744D01*
Y737D01*
X3726Y733D01*
X3718D01*
X3714Y737D01*
X3738Y729D02*
X3753D01*
X3761Y733D02*
X3769D01*
X3765D01*
Y756D01*
X3761Y752D01*
X2627Y1877D02*
Y1853D01*
X2639D01*
X2643Y1857D01*
Y1873D01*
X2639Y1877D01*
X2627D01*
X2650Y1873D02*
X2654Y1877D01*
X2662D01*
X2666Y1873D01*
Y1869D01*
X2662Y1865D01*
X2658D01*
X2662D01*
X2666Y1861D01*
Y1857D01*
X2662Y1853D01*
X2654D01*
X2650Y1857D01*
X2764Y1789D02*
Y1765D01*
X2776D01*
X2780Y1769D01*
Y1785D01*
X2776Y1789D01*
X2764D01*
X2803Y1765D02*
X2788D01*
X2803Y1781D01*
Y1785D01*
X2799Y1789D01*
X2792D01*
X2788Y1785D01*
X1307Y2016D02*
X1303Y2020D01*
X1295D01*
X1291Y2016D01*
Y2000D01*
X1295Y1996D01*
X1303D01*
X1307Y2000D01*
X1314Y1996D02*
Y2020D01*
X1322Y2012D01*
X1330Y2020D01*
Y1996D01*
X1354Y2016D02*
X1350Y2020D01*
X1342D01*
X1338Y2016D01*
Y2000D01*
X1342Y1996D01*
X1350D01*
X1354Y2000D01*
X1377Y1996D02*
X1362D01*
X1377Y2012D01*
Y2016D01*
X1373Y2020D01*
X1366D01*
X1362Y2016D01*
X1385Y1992D02*
X1401D01*
X1425Y1996D02*
X1409D01*
X1425Y2012D01*
Y2016D01*
X1421Y2020D01*
X1413D01*
X1409Y2016D01*
X2377Y2174D02*
X2373Y2178D01*
X2365D01*
X2361Y2174D01*
Y2158D01*
X2365Y2155D01*
X2373D01*
X2377Y2158D01*
X2385Y2155D02*
Y2178D01*
X2393Y2170D01*
X2401Y2178D01*
Y2155D01*
X2424Y2174D02*
X2420Y2178D01*
X2413D01*
X2409Y2174D01*
Y2158D01*
X2413Y2155D01*
X2420D01*
X2424Y2158D01*
X2432Y2155D02*
X2440D01*
X2436D01*
Y2178D01*
X2432Y2174D01*
X2452Y2151D02*
X2468D01*
X2491Y2155D02*
X2475D01*
X2491Y2170D01*
Y2174D01*
X2487Y2178D01*
X2479D01*
X2475Y2174D01*
X2996Y2151D02*
X2992Y2155D01*
X2984D01*
X2980Y2151D01*
Y2136D01*
X2984Y2132D01*
X2992D01*
X2996Y2136D01*
X3004Y2132D02*
Y2155D01*
X3012Y2147D01*
X3020Y2155D01*
Y2132D01*
X3043Y2151D02*
X3039Y2155D01*
X3031D01*
X3027Y2151D01*
Y2136D01*
X3031Y2132D01*
X3039D01*
X3043Y2136D01*
X3051Y2132D02*
X3059D01*
X3055D01*
Y2155D01*
X3051Y2151D01*
X3071Y2128D02*
X3087D01*
X3094Y2132D02*
X3102D01*
X3098D01*
Y2155D01*
X3094Y2151D01*
X696Y514D02*
X700Y518D01*
Y526D01*
X696Y530D01*
X680D01*
X676Y526D01*
Y518D01*
X680Y514D01*
X672Y507D02*
Y491D01*
X676Y483D02*
Y475D01*
Y479D01*
X700D01*
Y483D01*
X676Y463D02*
Y451D01*
X680Y447D01*
X684Y451D01*
Y459D01*
X688Y463D01*
X692Y459D01*
Y447D01*
X672Y440D02*
Y424D01*
X676Y416D02*
Y408D01*
Y412D01*
X700D01*
X696Y416D01*
X676Y381D02*
Y396D01*
X692Y381D01*
X696D01*
X700Y384D01*
Y392D01*
X696Y396D01*
X946Y1253D02*
X942Y1257D01*
X934D01*
X930Y1253D01*
Y1237D01*
X934Y1233D01*
X942D01*
X946Y1237D01*
X954Y1229D02*
X969D01*
X977Y1233D02*
X985D01*
X981D01*
Y1257D01*
X977D01*
X997Y1233D02*
X1009D01*
X1013Y1237D01*
X1009Y1241D01*
X1001D01*
X997Y1245D01*
X1001Y1249D01*
X1013D01*
X1021Y1229D02*
X1036D01*
X1044Y1233D02*
X1052D01*
X1048D01*
Y1257D01*
X1044Y1253D01*
X1064Y1233D02*
X1072D01*
X1068D01*
Y1257D01*
X1064Y1253D01*
X338Y1008D02*
X334Y1012D01*
X326D01*
X322Y1008D01*
Y992D01*
X326Y988D01*
X334D01*
X338Y992D01*
X345Y984D02*
X361D01*
X369Y988D02*
X377D01*
X373D01*
Y1012D01*
X369D01*
X389Y988D02*
X401D01*
X405Y992D01*
X401Y996D01*
X393D01*
X389Y1000D01*
X393Y1004D01*
X405D01*
X412Y984D02*
X428D01*
X436Y1012D02*
X452D01*
Y1008D01*
X436Y992D01*
Y988D01*
X76Y1599D02*
X72Y1595D01*
Y1587D01*
X76Y1583D01*
X92D01*
X96Y1587D01*
Y1595D01*
X92Y1599D01*
X100Y1607D02*
Y1623D01*
X96Y1631D02*
Y1638D01*
Y1634D01*
X72D01*
Y1631D01*
X96Y1650D02*
Y1662D01*
X92Y1666D01*
X88Y1662D01*
Y1654D01*
X84Y1650D01*
X80Y1654D01*
Y1666D01*
X100Y1674D02*
Y1690D01*
X96Y1709D02*
X72D01*
X84Y1697D01*
Y1713D01*
X856Y1583D02*
X852Y1587D01*
X844D01*
X840Y1583D01*
Y1568D01*
X844Y1564D01*
X852D01*
X856Y1568D01*
X864Y1560D02*
X880D01*
X887Y1564D02*
X895D01*
X891D01*
Y1587D01*
X887D01*
X907Y1564D02*
X919D01*
X923Y1568D01*
X919Y1572D01*
X911D01*
X907Y1576D01*
X911Y1579D01*
X923D01*
X931Y1560D02*
X946D01*
X954Y1583D02*
X958Y1587D01*
X966D01*
X970Y1583D01*
Y1579D01*
X966Y1576D01*
X962D01*
X966D01*
X970Y1572D01*
Y1568D01*
X966Y1564D01*
X958D01*
X954Y1568D01*
X856Y1658D02*
X852Y1662D01*
X844D01*
X840Y1658D01*
Y1643D01*
X844Y1639D01*
X852D01*
X856Y1643D01*
X864Y1635D02*
X880D01*
X887Y1639D02*
X895D01*
X891D01*
Y1662D01*
X887D01*
X907Y1639D02*
X919D01*
X923Y1643D01*
X919Y1647D01*
X911D01*
X907Y1651D01*
X911Y1654D01*
X923D01*
X931Y1635D02*
X946D01*
X970Y1639D02*
X954D01*
X970Y1654D01*
Y1658D01*
X966Y1662D01*
X958D01*
X954Y1658D01*
X639Y1529D02*
X643Y1533D01*
Y1541D01*
X639Y1545D01*
X623D01*
X619Y1541D01*
Y1533D01*
X623Y1529D01*
X615Y1521D02*
Y1506D01*
X619Y1498D02*
Y1490D01*
Y1494D01*
X643D01*
Y1498D01*
X619Y1478D02*
Y1466D01*
X623Y1462D01*
X627Y1466D01*
Y1474D01*
X631Y1478D01*
X635Y1474D01*
Y1462D01*
X615Y1455D02*
Y1439D01*
X619Y1431D02*
Y1423D01*
Y1427D01*
X643D01*
X639Y1431D01*
X4799Y594D02*
X4795Y598D01*
X4787D01*
X4783Y594D01*
Y579D01*
X4787Y575D01*
X4795D01*
X4799Y579D01*
X4807Y571D02*
X4823D01*
X4831Y598D02*
Y575D01*
Y587D01*
X4835Y591D01*
X4843D01*
X4846Y587D01*
Y575D01*
X4854D02*
X4866D01*
X4870Y579D01*
X4866Y583D01*
X4858D01*
X4854Y587D01*
X4858Y591D01*
X4870D01*
X4878Y571D02*
X4894D01*
X4902Y575D02*
X4909D01*
X4905D01*
Y598D01*
X4902Y594D01*
X4937Y575D02*
X4921D01*
X4937Y591D01*
Y594D01*
X4933Y598D01*
X4925D01*
X4921Y594D01*
X4335Y1231D02*
X4332Y1235D01*
X4324D01*
X4320Y1231D01*
Y1216D01*
X4324Y1212D01*
X4332D01*
X4335Y1216D01*
X4343Y1208D02*
X4359D01*
X4367Y1235D02*
Y1212D01*
Y1224D01*
X4371Y1228D01*
X4379D01*
X4383Y1224D01*
Y1212D01*
X4391D02*
X4402D01*
X4406Y1216D01*
X4402Y1220D01*
X4395D01*
X4391Y1224D01*
X4395Y1228D01*
X4406D01*
X4414Y1208D02*
X4430D01*
X4438Y1212D02*
X4446D01*
X4442D01*
Y1235D01*
X4438Y1231D01*
X4457Y1212D02*
X4465D01*
X4461D01*
Y1235D01*
X4457Y1231D01*
X5000Y1026D02*
X4997Y1030D01*
X4989D01*
X4985Y1026D01*
Y1011D01*
X4989Y1007D01*
X4997D01*
X5000Y1011D01*
X5008Y1003D02*
X5024D01*
X5032Y1030D02*
Y1007D01*
Y1019D01*
X5036Y1023D01*
X5044D01*
X5048Y1019D01*
Y1007D01*
X5056D02*
X5067D01*
X5071Y1011D01*
X5067Y1015D01*
X5060D01*
X5056Y1019D01*
X5060Y1023D01*
X5071D01*
X5079Y1003D02*
X5095D01*
X5103Y1030D02*
X5119D01*
Y1026D01*
X5103Y1011D01*
Y1007D01*
X4453Y271D02*
X4449Y267D01*
Y259D01*
X4453Y255D01*
X4469D01*
X4472Y259D01*
Y267D01*
X4469Y271D01*
X4476Y279D02*
Y294D01*
X4449Y302D02*
X4472D01*
X4461D01*
X4457Y306D01*
Y314D01*
X4461Y318D01*
X4472D01*
Y326D02*
Y338D01*
X4469Y342D01*
X4465Y338D01*
Y330D01*
X4461Y326D01*
X4457Y330D01*
Y342D01*
X4476Y349D02*
Y365D01*
X4449Y389D02*
X4453Y381D01*
X4461Y373D01*
X4469D01*
X4472Y377D01*
Y385D01*
X4469Y389D01*
X4465D01*
X4461Y385D01*
Y373D01*
X4613Y854D02*
X4609Y850D01*
Y843D01*
X4613Y839D01*
X4629D01*
X4633Y843D01*
Y850D01*
X4629Y854D01*
X4637Y862D02*
Y878D01*
X4609Y886D02*
X4633D01*
X4621D01*
X4617Y890D01*
Y898D01*
X4621Y902D01*
X4633D01*
Y909D02*
Y921D01*
X4629Y925D01*
X4625Y921D01*
Y913D01*
X4621Y909D01*
X4617Y913D01*
Y925D01*
X4637Y933D02*
Y949D01*
X4609Y972D02*
Y957D01*
X4621D01*
X4617Y965D01*
Y968D01*
X4621Y972D01*
X4629D01*
X4633Y968D01*
Y961D01*
X4629Y957D01*
X5204Y1787D02*
X5200Y1783D01*
Y1775D01*
X5204Y1771D01*
X5220D01*
X5224Y1775D01*
Y1783D01*
X5220Y1787D01*
X5228Y1795D02*
Y1811D01*
X5200Y1819D02*
X5224D01*
X5212D01*
X5208Y1823D01*
Y1830D01*
X5212Y1834D01*
X5224D01*
Y1842D02*
Y1854D01*
X5220Y1858D01*
X5216Y1854D01*
Y1846D01*
X5212Y1842D01*
X5208Y1846D01*
Y1858D01*
X5228Y1866D02*
Y1882D01*
X5224Y1901D02*
X5200D01*
X5212Y1889D01*
Y1905D01*
X4747Y1627D02*
X4743Y1631D01*
X4736D01*
X4732Y1627D01*
Y1611D01*
X4736Y1607D01*
X4743D01*
X4747Y1611D01*
X4755Y1603D02*
X4771D01*
X4779Y1631D02*
Y1607D01*
Y1619D01*
X4783Y1623D01*
X4791D01*
X4795Y1619D01*
Y1607D01*
X4802D02*
X4814D01*
X4818Y1611D01*
X4814Y1615D01*
X4806D01*
X4802Y1619D01*
X4806Y1623D01*
X4818D01*
X4826Y1603D02*
X4842D01*
X4850Y1627D02*
X4854Y1631D01*
X4862D01*
X4865Y1627D01*
Y1623D01*
X4862Y1619D01*
X4858D01*
X4862D01*
X4865Y1615D01*
Y1611D01*
X4862Y1607D01*
X4854D01*
X4850Y1611D01*
X4747Y1702D02*
X4743Y1706D01*
X4736D01*
X4732Y1702D01*
Y1686D01*
X4736Y1682D01*
X4743D01*
X4747Y1686D01*
X4755Y1678D02*
X4771D01*
X4779Y1706D02*
Y1682D01*
Y1694D01*
X4783Y1698D01*
X4791D01*
X4795Y1694D01*
Y1682D01*
X4802D02*
X4814D01*
X4818Y1686D01*
X4814Y1690D01*
X4806D01*
X4802Y1694D01*
X4806Y1698D01*
X4818D01*
X4826Y1678D02*
X4842D01*
X4865Y1682D02*
X4850D01*
X4865Y1698D01*
Y1702D01*
X4862Y1706D01*
X4854D01*
X4850Y1702D01*
X4175Y1243D02*
X4171Y1239D01*
Y1231D01*
X4175Y1227D01*
X4191D01*
X4195Y1231D01*
Y1239D01*
X4191Y1243D01*
X4199Y1250D02*
Y1266D01*
X4171Y1274D02*
X4195D01*
X4183D01*
X4179Y1278D01*
Y1286D01*
X4183Y1290D01*
X4195D01*
Y1298D02*
Y1309D01*
X4191Y1313D01*
X4187Y1309D01*
Y1302D01*
X4183Y1298D01*
X4179Y1302D01*
Y1313D01*
X4199Y1321D02*
Y1337D01*
X4195Y1345D02*
Y1353D01*
Y1349D01*
X4171D01*
X4175Y1345D01*
X2113Y195D02*
X2109Y199D01*
X2101D01*
X2097Y195D01*
Y179D01*
X2101Y175D01*
X2109D01*
X2113Y179D01*
X2137Y199D02*
X2121D01*
Y187D01*
X2129Y191D01*
X2133D01*
X2137Y187D01*
Y179D01*
X2133Y175D01*
X2125D01*
X2121Y179D01*
X2145Y195D02*
X2149Y199D01*
X2156D01*
X2160Y195D01*
Y179D01*
X2156Y175D01*
X2149D01*
X2145Y179D01*
Y195D01*
X1238Y1336D02*
X1242Y1340D01*
Y1348D01*
X1238Y1352D01*
X1222D01*
X1218Y1348D01*
Y1340D01*
X1222Y1336D01*
X1218Y1316D02*
X1242D01*
X1230Y1328D01*
Y1312D01*
X1222Y1304D02*
X1218Y1300D01*
Y1292D01*
X1222Y1289D01*
X1238D01*
X1242Y1292D01*
Y1300D01*
X1238Y1304D01*
X1234D01*
X1230Y1300D01*
Y1289D01*
X1214Y1281D02*
Y1265D01*
X1218Y1241D02*
Y1257D01*
X1234Y1241D01*
X1238D01*
X1242Y1245D01*
Y1253D01*
X1238Y1257D01*
X4082Y1825D02*
X4078Y1821D01*
Y1813D01*
X4082Y1810D01*
X4097D01*
X4101Y1813D01*
Y1821D01*
X4097Y1825D01*
X4101Y1845D02*
X4078D01*
X4089Y1833D01*
Y1849D01*
X4097Y1857D02*
X4101Y1861D01*
Y1869D01*
X4097Y1872D01*
X4082D01*
X4078Y1869D01*
Y1861D01*
X4082Y1857D01*
X4085D01*
X4089Y1861D01*
Y1872D01*
X4105Y1880D02*
Y1896D01*
X4101Y1904D02*
Y1912D01*
Y1908D01*
X4078D01*
X4082Y1904D01*
X1165Y1336D02*
X1169Y1340D01*
Y1348D01*
X1165Y1352D01*
X1149D01*
X1146Y1348D01*
Y1340D01*
X1149Y1336D01*
X1146Y1316D02*
X1169D01*
X1157Y1328D01*
Y1312D01*
X1165Y1304D02*
X1169Y1300D01*
Y1292D01*
X1165Y1289D01*
X1161D01*
X1157Y1292D01*
X1153Y1289D01*
X1149D01*
X1146Y1292D01*
Y1300D01*
X1149Y1304D01*
X1153D01*
X1157Y1300D01*
X1161Y1304D01*
X1165D01*
X1157Y1300D02*
Y1292D01*
X1142Y1281D02*
Y1265D01*
X1146Y1241D02*
Y1257D01*
X1161Y1241D01*
X1165D01*
X1169Y1245D01*
Y1253D01*
X1165Y1257D01*
X4167Y1825D02*
X4163Y1821D01*
Y1813D01*
X4167Y1810D01*
X4182D01*
X4186Y1813D01*
Y1821D01*
X4182Y1825D01*
X4186Y1845D02*
X4163D01*
X4174Y1833D01*
Y1849D01*
X4167Y1857D02*
X4163Y1861D01*
Y1869D01*
X4167Y1872D01*
X4170D01*
X4174Y1869D01*
X4178Y1872D01*
X4182D01*
X4186Y1869D01*
Y1861D01*
X4182Y1857D01*
X4178D01*
X4174Y1861D01*
X4170Y1857D01*
X4167D01*
X4174Y1861D02*
Y1869D01*
X4190Y1880D02*
Y1896D01*
X4186Y1904D02*
Y1912D01*
Y1908D01*
X4163D01*
X4167Y1904D01*
X1581Y1490D02*
X1577Y1494D01*
X1569D01*
X1565Y1490D01*
Y1474D01*
X1569Y1470D01*
X1577D01*
X1581Y1474D01*
X1600Y1470D02*
Y1494D01*
X1589Y1482D01*
X1604D01*
X1612Y1494D02*
X1628D01*
Y1490D01*
X1612Y1474D01*
Y1470D01*
X1636Y1467D02*
X1652D01*
X1675Y1470D02*
X1659D01*
X1675Y1486D01*
Y1490D01*
X1671Y1494D01*
X1663D01*
X1659Y1490D01*
X3684Y1734D02*
X3680Y1738D01*
X3672D01*
X3668Y1734D01*
Y1719D01*
X3672Y1715D01*
X3680D01*
X3684Y1719D01*
X3703Y1715D02*
Y1738D01*
X3692Y1726D01*
X3707D01*
X3715Y1738D02*
X3731D01*
Y1734D01*
X3715Y1719D01*
Y1715D01*
X3739Y1711D02*
X3755D01*
X3762Y1715D02*
X3770D01*
X3766D01*
Y1738D01*
X3762Y1734D01*
X1445Y1463D02*
X1441Y1467D01*
X1433D01*
X1429Y1463D01*
Y1447D01*
X1433Y1443D01*
X1441D01*
X1445Y1447D01*
X1465Y1443D02*
Y1467D01*
X1453Y1455D01*
X1468D01*
X1492Y1467D02*
X1484Y1463D01*
X1476Y1455D01*
Y1447D01*
X1480Y1443D01*
X1488D01*
X1492Y1447D01*
Y1451D01*
X1488Y1455D01*
X1476D01*
X1500Y1439D02*
X1516D01*
X1539Y1443D02*
X1524D01*
X1539Y1459D01*
Y1463D01*
X1535Y1467D01*
X1528D01*
X1524Y1463D01*
X3817Y1766D02*
X3813Y1770D01*
X3805D01*
X3801Y1766D01*
Y1750D01*
X3805Y1746D01*
X3813D01*
X3817Y1750D01*
X3837Y1746D02*
Y1770D01*
X3825Y1758D01*
X3841D01*
X3864Y1770D02*
X3856Y1766D01*
X3849Y1758D01*
Y1750D01*
X3852Y1746D01*
X3860D01*
X3864Y1750D01*
Y1754D01*
X3860Y1758D01*
X3849D01*
X3872Y1742D02*
X3888D01*
X3896Y1746D02*
X3904D01*
X3900D01*
Y1770D01*
X3896Y1766D01*
X1842Y1482D02*
X1838Y1486D01*
X1830D01*
X1826Y1482D01*
Y1467D01*
X1830Y1463D01*
X1838D01*
X1842Y1467D01*
X1861Y1463D02*
Y1486D01*
X1849Y1474D01*
X1865D01*
X1889Y1486D02*
X1873D01*
Y1474D01*
X1881Y1478D01*
X1885D01*
X1889Y1474D01*
Y1467D01*
X1885Y1463D01*
X1877D01*
X1873Y1467D01*
X1897Y1459D02*
X1912D01*
X1936Y1463D02*
X1920D01*
X1936Y1478D01*
Y1482D01*
X1932Y1486D01*
X1924D01*
X1920Y1482D01*
X3419Y1739D02*
X3415Y1743D01*
X3407D01*
X3403Y1739D01*
Y1724D01*
X3407Y1720D01*
X3415D01*
X3419Y1724D01*
X3438Y1720D02*
Y1743D01*
X3427Y1731D01*
X3442D01*
X3466Y1743D02*
X3450D01*
Y1731D01*
X3458Y1735D01*
X3462D01*
X3466Y1731D01*
Y1724D01*
X3462Y1720D01*
X3454D01*
X3450Y1724D01*
X3474Y1716D02*
X3490D01*
X3497Y1720D02*
X3505D01*
X3501D01*
Y1743D01*
X3497Y1739D01*
X2018Y1437D02*
X2014Y1441D01*
X2006D01*
X2002Y1437D01*
Y1421D01*
X2006Y1417D01*
X2014D01*
X2018Y1421D01*
X2037Y1417D02*
Y1441D01*
X2026Y1429D01*
X2041D01*
X2061Y1417D02*
Y1441D01*
X2049Y1429D01*
X2065D01*
X2073Y1413D02*
X2089D01*
X2112Y1417D02*
X2096D01*
X2112Y1433D01*
Y1437D01*
X2108Y1441D01*
X2100D01*
X2096Y1437D01*
X3319Y1767D02*
X3315Y1771D01*
X3307D01*
X3304Y1767D01*
Y1751D01*
X3307Y1747D01*
X3315D01*
X3319Y1751D01*
X3339Y1747D02*
Y1771D01*
X3327Y1759D01*
X3343D01*
X3363Y1747D02*
Y1771D01*
X3351Y1759D01*
X3367D01*
X3374Y1743D02*
X3390D01*
X3398Y1747D02*
X3406D01*
X3402D01*
Y1771D01*
X3398Y1767D01*
X2316Y1590D02*
X2312Y1586D01*
Y1578D01*
X2316Y1574D01*
X2332D01*
X2336Y1578D01*
Y1586D01*
X2332Y1590D01*
X2336Y1610D02*
X2312D01*
X2324Y1598D01*
Y1614D01*
X2316Y1622D02*
X2312Y1626D01*
Y1634D01*
X2316Y1637D01*
X2320D01*
X2324Y1634D01*
Y1630D01*
Y1634D01*
X2328Y1637D01*
X2332D01*
X2336Y1634D01*
Y1626D01*
X2332Y1622D01*
X2340Y1645D02*
Y1661D01*
X2336Y1685D02*
Y1669D01*
X2320Y1685D01*
X2316D01*
X2312Y1681D01*
Y1673D01*
X2316Y1669D01*
X3033Y1783D02*
X3030Y1780D01*
Y1772D01*
X3033Y1768D01*
X3049D01*
X3053Y1772D01*
Y1780D01*
X3049Y1783D01*
X3053Y1803D02*
X3030D01*
X3041Y1791D01*
Y1807D01*
X3033Y1815D02*
X3030Y1819D01*
Y1827D01*
X3033Y1831D01*
X3037D01*
X3041Y1827D01*
Y1823D01*
Y1827D01*
X3045Y1831D01*
X3049D01*
X3053Y1827D01*
Y1819D01*
X3049Y1815D01*
X3057Y1839D02*
Y1854D01*
X3053Y1862D02*
Y1870D01*
Y1866D01*
X3030D01*
X3033Y1862D01*
X2261Y1276D02*
X2265Y1280D01*
Y1288D01*
X2261Y1292D01*
X2245D01*
X2241Y1288D01*
Y1280D01*
X2245Y1276D01*
X2241Y1256D02*
X2265D01*
X2253Y1268D01*
Y1252D01*
X2241Y1229D02*
Y1245D01*
X2257Y1229D01*
X2261D01*
X2265Y1233D01*
Y1241D01*
X2261Y1245D01*
X2237Y1221D02*
Y1205D01*
X2241Y1182D02*
Y1197D01*
X2257Y1182D01*
X2261D01*
X2265Y1186D01*
Y1193D01*
X2261Y1197D01*
X3123Y1774D02*
X3119Y1770D01*
Y1762D01*
X3123Y1758D01*
X3139D01*
X3143Y1762D01*
Y1770D01*
X3139Y1774D01*
X3143Y1793D02*
X3119D01*
X3131Y1781D01*
Y1797D01*
X3143Y1821D02*
Y1805D01*
X3127Y1821D01*
X3123D01*
X3119Y1817D01*
Y1809D01*
X3123Y1805D01*
X3147Y1829D02*
Y1844D01*
X3143Y1852D02*
Y1860D01*
Y1856D01*
X3119D01*
X3123Y1852D01*
X1187Y1899D02*
X1184Y1895D01*
Y1887D01*
X1187Y1883D01*
X1203D01*
X1207Y1887D01*
Y1895D01*
X1203Y1899D01*
X1207Y1918D02*
X1184D01*
X1195Y1906D01*
Y1922D01*
X1187Y1930D02*
X1184Y1934D01*
Y1942D01*
X1187Y1946D01*
X1203D01*
X1207Y1942D01*
Y1934D01*
X1203Y1930D01*
X1187D01*
X1211Y1954D02*
Y1969D01*
X1207Y1993D02*
Y1977D01*
X1191Y1993D01*
X1187D01*
X1184Y1989D01*
Y1981D01*
X1187Y1977D01*
X4587Y1848D02*
X4583Y1844D01*
Y1837D01*
X4587Y1833D01*
X4602D01*
X4606Y1837D01*
Y1844D01*
X4602Y1848D01*
X4606Y1868D02*
X4583D01*
X4594Y1856D01*
Y1872D01*
X4587Y1880D02*
X4583Y1884D01*
Y1892D01*
X4587Y1896D01*
X4602D01*
X4606Y1892D01*
Y1884D01*
X4602Y1880D01*
X4587D01*
X4610Y1903D02*
Y1919D01*
X4606Y1927D02*
Y1935D01*
Y1931D01*
X4583D01*
X4587Y1927D01*
X1146Y1899D02*
X1142Y1895D01*
Y1887D01*
X1146Y1883D01*
X1162D01*
X1166Y1887D01*
Y1895D01*
X1162Y1899D01*
X1146Y1906D02*
X1142Y1910D01*
Y1918D01*
X1146Y1922D01*
X1150D01*
X1154Y1918D01*
Y1914D01*
Y1918D01*
X1158Y1922D01*
X1162D01*
X1166Y1918D01*
Y1910D01*
X1162Y1906D01*
Y1930D02*
X1166Y1934D01*
Y1942D01*
X1162Y1946D01*
X1146D01*
X1142Y1942D01*
Y1934D01*
X1146Y1930D01*
X1150D01*
X1154Y1934D01*
Y1946D01*
X1170Y1954D02*
Y1969D01*
X1166Y1993D02*
Y1977D01*
X1150Y1993D01*
X1146D01*
X1142Y1989D01*
Y1981D01*
X1146Y1977D01*
X4502Y1848D02*
X4498Y1844D01*
Y1837D01*
X4502Y1833D01*
X4517D01*
X4521Y1837D01*
Y1844D01*
X4517Y1848D01*
X4502Y1856D02*
X4498Y1860D01*
Y1868D01*
X4502Y1872D01*
X4506D01*
X4509Y1868D01*
Y1864D01*
Y1868D01*
X4513Y1872D01*
X4517D01*
X4521Y1868D01*
Y1860D01*
X4517Y1856D01*
Y1880D02*
X4521Y1884D01*
Y1892D01*
X4517Y1896D01*
X4502D01*
X4498Y1892D01*
Y1884D01*
X4502Y1880D01*
X4506D01*
X4509Y1884D01*
Y1896D01*
X4525Y1903D02*
Y1919D01*
X4521Y1927D02*
Y1935D01*
Y1931D01*
X4498D01*
X4502Y1927D01*
X1100Y1899D02*
X1096Y1895D01*
Y1887D01*
X1100Y1883D01*
X1116D01*
X1120Y1887D01*
Y1895D01*
X1116Y1899D01*
X1100Y1906D02*
X1096Y1910D01*
Y1918D01*
X1100Y1922D01*
X1104D01*
X1108Y1918D01*
Y1914D01*
Y1918D01*
X1112Y1922D01*
X1116D01*
X1120Y1918D01*
Y1910D01*
X1116Y1906D01*
X1100Y1930D02*
X1096Y1934D01*
Y1942D01*
X1100Y1946D01*
X1104D01*
X1108Y1942D01*
X1112Y1946D01*
X1116D01*
X1120Y1942D01*
Y1934D01*
X1116Y1930D01*
X1112D01*
X1108Y1934D01*
X1104Y1930D01*
X1100D01*
X1108Y1934D02*
Y1942D01*
X1124Y1954D02*
Y1969D01*
X1120Y1993D02*
Y1977D01*
X1104Y1993D01*
X1100D01*
X1096Y1989D01*
Y1981D01*
X1100Y1977D01*
X4417Y1848D02*
X4413Y1844D01*
Y1837D01*
X4417Y1833D01*
X4432D01*
X4436Y1837D01*
Y1844D01*
X4432Y1848D01*
X4417Y1856D02*
X4413Y1860D01*
Y1868D01*
X4417Y1872D01*
X4421D01*
X4424Y1868D01*
Y1864D01*
Y1868D01*
X4428Y1872D01*
X4432D01*
X4436Y1868D01*
Y1860D01*
X4432Y1856D01*
X4417Y1880D02*
X4413Y1884D01*
Y1892D01*
X4417Y1896D01*
X4421D01*
X4424Y1892D01*
X4428Y1896D01*
X4432D01*
X4436Y1892D01*
Y1884D01*
X4432Y1880D01*
X4428D01*
X4424Y1884D01*
X4421Y1880D01*
X4417D01*
X4424Y1884D02*
Y1892D01*
X4440Y1903D02*
Y1919D01*
X4436Y1927D02*
Y1935D01*
Y1931D01*
X4413D01*
X4417Y1927D01*
X1047Y1899D02*
X1043Y1895D01*
Y1887D01*
X1047Y1883D01*
X1062D01*
X1066Y1887D01*
Y1895D01*
X1062Y1899D01*
X1047Y1906D02*
X1043Y1910D01*
Y1918D01*
X1047Y1922D01*
X1051D01*
X1055Y1918D01*
Y1914D01*
Y1918D01*
X1059Y1922D01*
X1062D01*
X1066Y1918D01*
Y1910D01*
X1062Y1906D01*
X1043Y1930D02*
Y1946D01*
X1047D01*
X1062Y1930D01*
X1066D01*
X1070Y1954D02*
Y1969D01*
X1066Y1993D02*
Y1977D01*
X1051Y1993D01*
X1047D01*
X1043Y1989D01*
Y1981D01*
X1047Y1977D01*
X4331Y1848D02*
X4327Y1844D01*
Y1837D01*
X4331Y1833D01*
X4346D01*
X4350Y1837D01*
Y1844D01*
X4346Y1848D01*
X4331Y1856D02*
X4327Y1860D01*
Y1868D01*
X4331Y1872D01*
X4335D01*
X4338Y1868D01*
Y1864D01*
Y1868D01*
X4342Y1872D01*
X4346D01*
X4350Y1868D01*
Y1860D01*
X4346Y1856D01*
X4327Y1880D02*
Y1896D01*
X4331D01*
X4346Y1880D01*
X4350D01*
X4354Y1903D02*
Y1919D01*
X4350Y1927D02*
Y1935D01*
Y1931D01*
X4327D01*
X4331Y1927D01*
X1387Y2201D02*
X1383Y2197D01*
Y2189D01*
X1387Y2186D01*
X1402D01*
X1406Y2189D01*
Y2197D01*
X1402Y2201D01*
X1387Y2209D02*
X1383Y2213D01*
Y2221D01*
X1387Y2225D01*
X1391D01*
X1395Y2221D01*
Y2217D01*
Y2221D01*
X1398Y2225D01*
X1402D01*
X1406Y2221D01*
Y2213D01*
X1402Y2209D01*
X1383Y2249D02*
X1387Y2241D01*
X1395Y2233D01*
X1402D01*
X1406Y2237D01*
Y2245D01*
X1402Y2249D01*
X1398D01*
X1395Y2245D01*
Y2233D01*
X1410Y2256D02*
Y2272D01*
X1406Y2296D02*
Y2280D01*
X1391Y2296D01*
X1387D01*
X1383Y2292D01*
Y2284D01*
X1387Y2280D01*
X4062Y2129D02*
X4058Y2125D01*
Y2118D01*
X4062Y2114D01*
X4077D01*
X4081Y2118D01*
Y2125D01*
X4077Y2129D01*
X4062Y2137D02*
X4058Y2141D01*
Y2149D01*
X4062Y2153D01*
X4066D01*
X4069Y2149D01*
Y2145D01*
Y2149D01*
X4073Y2153D01*
X4077D01*
X4081Y2149D01*
Y2141D01*
X4077Y2137D01*
X4058Y2177D02*
X4062Y2169D01*
X4069Y2161D01*
X4077D01*
X4081Y2165D01*
Y2173D01*
X4077Y2177D01*
X4073D01*
X4069Y2173D01*
Y2161D01*
X4085Y2184D02*
Y2200D01*
X4081Y2208D02*
Y2216D01*
Y2212D01*
X4058D01*
X4062Y2208D01*
X1653Y2363D02*
X1649Y2367D01*
X1641D01*
X1637Y2363D01*
Y2347D01*
X1641Y2344D01*
X1649D01*
X1653Y2347D01*
X1661Y2363D02*
X1665Y2367D01*
X1673D01*
X1677Y2363D01*
Y2359D01*
X1673Y2355D01*
X1669D01*
X1673D01*
X1677Y2351D01*
Y2347D01*
X1673Y2344D01*
X1665D01*
X1661Y2347D01*
X1700Y2367D02*
X1685D01*
Y2355D01*
X1692Y2359D01*
X1696D01*
X1700Y2355D01*
Y2347D01*
X1696Y2344D01*
X1688D01*
X1685Y2347D01*
X1708Y2340D02*
X1724D01*
X1747Y2344D02*
X1732D01*
X1747Y2359D01*
Y2363D01*
X1744Y2367D01*
X1736D01*
X1732Y2363D01*
X3683Y2321D02*
X3679Y2325D01*
X3671D01*
X3667Y2321D01*
Y2306D01*
X3671Y2302D01*
X3679D01*
X3683Y2306D01*
X3690Y2321D02*
X3694Y2325D01*
X3702D01*
X3706Y2321D01*
Y2317D01*
X3702Y2313D01*
X3698D01*
X3702D01*
X3706Y2310D01*
Y2306D01*
X3702Y2302D01*
X3694D01*
X3690Y2306D01*
X3730Y2325D02*
X3714D01*
Y2313D01*
X3722Y2317D01*
X3726D01*
X3730Y2313D01*
Y2306D01*
X3726Y2302D01*
X3718D01*
X3714Y2306D01*
X3738Y2298D02*
X3753D01*
X3761Y2302D02*
X3769D01*
X3765D01*
Y2325D01*
X3761Y2321D01*
X1562Y1953D02*
X1559Y1957D01*
X1551D01*
X1547Y1953D01*
Y1937D01*
X1551Y1933D01*
X1559D01*
X1562Y1937D01*
X1570Y1953D02*
X1574Y1957D01*
X1582D01*
X1586Y1953D01*
Y1949D01*
X1582Y1945D01*
X1578D01*
X1582D01*
X1586Y1941D01*
Y1937D01*
X1582Y1933D01*
X1574D01*
X1570Y1937D01*
X1606Y1933D02*
Y1957D01*
X1594Y1945D01*
X1610D01*
X1618Y1929D02*
X1633D01*
X1657Y1933D02*
X1641D01*
X1657Y1949D01*
Y1953D01*
X1653Y1957D01*
X1645D01*
X1641Y1953D01*
X3800Y2172D02*
X3796Y2176D01*
X3788D01*
X3784Y2172D01*
Y2157D01*
X3788Y2153D01*
X3796D01*
X3800Y2157D01*
X3807Y2172D02*
X3811Y2176D01*
X3819D01*
X3823Y2172D01*
Y2168D01*
X3819Y2164D01*
X3815D01*
X3819D01*
X3823Y2161D01*
Y2157D01*
X3819Y2153D01*
X3811D01*
X3807Y2157D01*
X3843Y2153D02*
Y2176D01*
X3831Y2164D01*
X3847D01*
X3855Y2149D02*
X3870D01*
X3878Y2153D02*
X3886D01*
X3882D01*
Y2176D01*
X3878Y2172D01*
X1244Y2192D02*
X1240Y2188D01*
Y2180D01*
X1244Y2176D01*
X1259D01*
X1263Y2180D01*
Y2188D01*
X1259Y2192D01*
X1244Y2200D02*
X1240Y2204D01*
Y2212D01*
X1244Y2216D01*
X1248D01*
X1251Y2212D01*
Y2208D01*
Y2212D01*
X1255Y2216D01*
X1259D01*
X1263Y2212D01*
Y2204D01*
X1259Y2200D01*
X1244Y2223D02*
X1240Y2227D01*
Y2235D01*
X1244Y2239D01*
X1248D01*
X1251Y2235D01*
Y2231D01*
Y2235D01*
X1255Y2239D01*
X1259D01*
X1263Y2235D01*
Y2227D01*
X1259Y2223D01*
X1267Y2247D02*
Y2263D01*
X1263Y2286D02*
Y2271D01*
X1248Y2286D01*
X1244D01*
X1240Y2282D01*
Y2275D01*
X1244Y2271D01*
X4823Y2270D02*
X4819Y2266D01*
Y2258D01*
X4823Y2254D01*
X4839D01*
X4843Y2258D01*
Y2266D01*
X4839Y2270D01*
X4823Y2278D02*
X4819Y2281D01*
Y2289D01*
X4823Y2293D01*
X4827D01*
X4831Y2289D01*
Y2285D01*
Y2289D01*
X4835Y2293D01*
X4839D01*
X4843Y2289D01*
Y2281D01*
X4839Y2278D01*
X4823Y2301D02*
X4819Y2305D01*
Y2313D01*
X4823Y2317D01*
X4827D01*
X4831Y2313D01*
Y2309D01*
Y2313D01*
X4835Y2317D01*
X4839D01*
X4843Y2313D01*
Y2305D01*
X4839Y2301D01*
X4846Y2325D02*
Y2341D01*
X4843Y2348D02*
Y2356D01*
Y2352D01*
X4819D01*
X4823Y2348D01*
X604Y2156D02*
X600Y2159D01*
X592D01*
X588Y2156D01*
Y2140D01*
X592Y2136D01*
X600D01*
X604Y2140D01*
X612Y2156D02*
X616Y2159D01*
X623D01*
X627Y2156D01*
Y2152D01*
X623Y2148D01*
X620D01*
X623D01*
X627Y2144D01*
Y2140D01*
X623Y2136D01*
X616D01*
X612Y2140D01*
X651Y2136D02*
X635D01*
X651Y2152D01*
Y2156D01*
X647Y2159D01*
X639D01*
X635Y2156D01*
X659Y2132D02*
X675D01*
X698Y2136D02*
X683D01*
X698Y2152D01*
Y2156D01*
X694Y2159D01*
X686D01*
X683Y2156D01*
X4771Y2269D02*
X4767Y2265D01*
Y2257D01*
X4771Y2253D01*
X4786D01*
X4790Y2257D01*
Y2265D01*
X4786Y2269D01*
X4771Y2277D02*
X4767Y2281D01*
Y2288D01*
X4771Y2292D01*
X4775D01*
X4779Y2288D01*
Y2284D01*
Y2288D01*
X4782Y2292D01*
X4786D01*
X4790Y2288D01*
Y2281D01*
X4786Y2277D01*
X4790Y2316D02*
Y2300D01*
X4775Y2316D01*
X4771D01*
X4767Y2312D01*
Y2304D01*
X4771Y2300D01*
X4794Y2324D02*
Y2340D01*
X4790Y2347D02*
Y2355D01*
Y2351D01*
X4767D01*
X4771Y2347D01*
X747Y2306D02*
X743Y2310D01*
X735D01*
X731Y2306D01*
Y2290D01*
X735Y2286D01*
X743D01*
X747Y2290D01*
X754Y2306D02*
X758Y2310D01*
X766D01*
X770Y2306D01*
Y2302D01*
X766Y2298D01*
X762D01*
X766D01*
X770Y2294D01*
Y2290D01*
X766Y2286D01*
X758D01*
X754Y2290D01*
X778Y2286D02*
X786D01*
X782D01*
Y2310D01*
X778Y2306D01*
X798Y2282D02*
X813D01*
X837Y2286D02*
X821D01*
X837Y2302D01*
Y2306D01*
X833Y2310D01*
X825D01*
X821Y2306D01*
X4401Y2191D02*
X4397Y2195D01*
X4389D01*
X4385Y2191D01*
Y2176D01*
X4389Y2172D01*
X4397D01*
X4401Y2176D01*
X4409Y2191D02*
X4413Y2195D01*
X4421D01*
X4425Y2191D01*
Y2187D01*
X4421Y2183D01*
X4417D01*
X4421D01*
X4425Y2180D01*
Y2176D01*
X4421Y2172D01*
X4413D01*
X4409Y2176D01*
X4432Y2172D02*
X4440D01*
X4436D01*
Y2195D01*
X4432Y2191D01*
X4452Y2168D02*
X4468D01*
X4476Y2172D02*
X4484D01*
X4480D01*
Y2195D01*
X4476Y2191D01*
X2572Y2189D02*
X2568Y2185D01*
Y2177D01*
X2572Y2173D01*
X2588D01*
X2592Y2177D01*
Y2185D01*
X2588Y2189D01*
X2572Y2197D02*
X2568Y2201D01*
Y2209D01*
X2572Y2213D01*
X2576D01*
X2580Y2209D01*
Y2205D01*
Y2209D01*
X2584Y2213D01*
X2588D01*
X2592Y2209D01*
Y2201D01*
X2588Y2197D01*
X2572Y2220D02*
X2568Y2224D01*
Y2232D01*
X2572Y2236D01*
X2588D01*
X2592Y2232D01*
Y2224D01*
X2588Y2220D01*
X2572D01*
X2596Y2244D02*
Y2260D01*
X2592Y2283D02*
Y2268D01*
X2576Y2283D01*
X2572D01*
X2568Y2279D01*
Y2272D01*
X2572Y2268D01*
X2877Y2154D02*
X2873Y2150D01*
Y2143D01*
X2877Y2139D01*
X2892D01*
X2896Y2143D01*
Y2150D01*
X2892Y2154D01*
X2877Y2162D02*
X2873Y2166D01*
Y2174D01*
X2877Y2178D01*
X2881D01*
X2884Y2174D01*
Y2170D01*
Y2174D01*
X2888Y2178D01*
X2892D01*
X2896Y2174D01*
Y2166D01*
X2892Y2162D01*
X2877Y2186D02*
X2873Y2190D01*
Y2198D01*
X2877Y2202D01*
X2892D01*
X2896Y2198D01*
Y2190D01*
X2892Y2186D01*
X2877D01*
X2900Y2209D02*
Y2225D01*
X2896Y2233D02*
Y2241D01*
Y2237D01*
X2873D01*
X2877Y2233D01*
X2659Y2186D02*
X2655Y2182D01*
Y2174D01*
X2659Y2170D01*
X2675D01*
X2679Y2174D01*
Y2182D01*
X2675Y2186D01*
X2679Y2210D02*
Y2194D01*
X2663Y2210D01*
X2659D01*
X2655Y2206D01*
Y2198D01*
X2659Y2194D01*
X2675Y2218D02*
X2679Y2221D01*
Y2229D01*
X2675Y2233D01*
X2659D01*
X2655Y2229D01*
Y2221D01*
X2659Y2218D01*
X2663D01*
X2667Y2221D01*
Y2233D01*
X2683Y2241D02*
Y2257D01*
X2679Y2280D02*
Y2265D01*
X2663Y2280D01*
X2659D01*
X2655Y2277D01*
Y2269D01*
X2659Y2265D01*
X2792Y2154D02*
X2788Y2150D01*
Y2143D01*
X2792Y2139D01*
X2807D01*
X2811Y2143D01*
Y2150D01*
X2807Y2154D01*
X2811Y2178D02*
Y2162D01*
X2796Y2178D01*
X2792D01*
X2788Y2174D01*
Y2166D01*
X2792Y2162D01*
X2807Y2186D02*
X2811Y2190D01*
Y2198D01*
X2807Y2202D01*
X2792D01*
X2788Y2198D01*
Y2190D01*
X2792Y2186D01*
X2796D01*
X2799Y2190D01*
Y2202D01*
X2815Y2209D02*
Y2225D01*
X2811Y2233D02*
Y2241D01*
Y2237D01*
X2788D01*
X2792Y2233D01*
X1912Y1958D02*
X1908Y1962D01*
X1900D01*
X1896Y1958D01*
Y1942D01*
X1900Y1938D01*
X1908D01*
X1912Y1942D01*
X1936Y1938D02*
X1920D01*
X1936Y1954D01*
Y1958D01*
X1932Y1962D01*
X1924D01*
X1920Y1958D01*
X1943D02*
X1947Y1962D01*
X1955D01*
X1959Y1958D01*
Y1954D01*
X1955Y1950D01*
X1959Y1946D01*
Y1942D01*
X1955Y1938D01*
X1947D01*
X1943Y1942D01*
Y1946D01*
X1947Y1950D01*
X1943Y1954D01*
Y1958D01*
X1947Y1950D02*
X1955D01*
X1967Y1934D02*
X1983D01*
X2006Y1938D02*
X1991D01*
X2006Y1954D01*
Y1958D01*
X2002Y1962D01*
X1995D01*
X1991Y1958D01*
X3468Y2171D02*
X3464Y2175D01*
X3456D01*
X3452Y2171D01*
Y2156D01*
X3456Y2152D01*
X3464D01*
X3468Y2156D01*
X3491Y2152D02*
X3475D01*
X3491Y2167D01*
Y2171D01*
X3487Y2175D01*
X3479D01*
X3475Y2171D01*
X3499D02*
X3503Y2175D01*
X3511D01*
X3515Y2171D01*
Y2167D01*
X3511Y2163D01*
X3515Y2159D01*
Y2156D01*
X3511Y2152D01*
X3503D01*
X3499Y2156D01*
Y2159D01*
X3503Y2163D01*
X3499Y2167D01*
Y2171D01*
X3503Y2163D02*
X3511D01*
X3523Y2148D02*
X3538D01*
X3546Y2152D02*
X3554D01*
X3550D01*
Y2175D01*
X3546Y2171D01*
X2277Y2193D02*
X2273Y2189D01*
Y2181D01*
X2277Y2178D01*
X2292D01*
X2296Y2181D01*
Y2189D01*
X2292Y2193D01*
X2296Y2217D02*
Y2201D01*
X2281Y2217D01*
X2277D01*
X2273Y2213D01*
Y2205D01*
X2277Y2201D01*
X2273Y2225D02*
Y2241D01*
X2277D01*
X2292Y2225D01*
X2296D01*
X2300Y2248D02*
Y2264D01*
X2296Y2288D02*
Y2272D01*
X2281Y2288D01*
X2277D01*
X2273Y2284D01*
Y2276D01*
X2277Y2272D01*
X3172Y2137D02*
X3168Y2133D01*
Y2126D01*
X3172Y2122D01*
X3187D01*
X3191Y2126D01*
Y2133D01*
X3187Y2137D01*
X3191Y2161D02*
Y2145D01*
X3176Y2161D01*
X3172D01*
X3168Y2157D01*
Y2149D01*
X3172Y2145D01*
X3168Y2169D02*
Y2185D01*
X3172D01*
X3187Y2169D01*
X3191D01*
X3195Y2192D02*
Y2208D01*
X3191Y2216D02*
Y2224D01*
Y2220D01*
X3168D01*
X3172Y2216D01*
X2140Y2358D02*
X2136Y2362D01*
X2128D01*
X2124Y2358D01*
Y2343D01*
X2128Y2339D01*
X2136D01*
X2140Y2343D01*
X2164Y2339D02*
X2148D01*
X2164Y2354D01*
Y2358D01*
X2160Y2362D01*
X2152D01*
X2148Y2358D01*
X2187Y2362D02*
X2180Y2358D01*
X2172Y2350D01*
Y2343D01*
X2176Y2339D01*
X2184D01*
X2187Y2343D01*
Y2346D01*
X2184Y2350D01*
X2172D01*
X2195Y2335D02*
X2211D01*
X2235Y2339D02*
X2219D01*
X2235Y2354D01*
Y2358D01*
X2231Y2362D01*
X2223D01*
X2219Y2358D01*
X3323Y2326D02*
X3319Y2330D01*
X3311D01*
X3307Y2326D01*
Y2311D01*
X3311Y2307D01*
X3319D01*
X3323Y2311D01*
X3346Y2307D02*
X3330D01*
X3346Y2322D01*
Y2326D01*
X3342Y2330D01*
X3334D01*
X3330Y2326D01*
X3370Y2330D02*
X3362Y2326D01*
X3354Y2318D01*
Y2311D01*
X3358Y2307D01*
X3366D01*
X3370Y2311D01*
Y2315D01*
X3366Y2318D01*
X3354D01*
X3378Y2303D02*
X3393D01*
X3401Y2307D02*
X3409D01*
X3405D01*
Y2330D01*
X3401Y2326D01*
X3223Y525D02*
X3219Y521D01*
Y513D01*
X3223Y509D01*
X3238D01*
X3242Y513D01*
Y521D01*
X3238Y525D01*
X3242Y549D02*
Y533D01*
X3226Y549D01*
X3223D01*
X3219Y545D01*
Y537D01*
X3223Y533D01*
X3219Y572D02*
Y556D01*
X3230D01*
X3226Y564D01*
Y568D01*
X3230Y572D01*
X3238D01*
X3242Y568D01*
Y560D01*
X3238Y556D01*
X3246Y580D02*
Y596D01*
X3242Y604D02*
Y612D01*
Y608D01*
X3219D01*
X3223Y604D01*
X4025Y569D02*
X4021Y565D01*
Y557D01*
X4025Y553D01*
X4040D01*
X4044Y557D01*
Y565D01*
X4040Y569D01*
X4044Y593D02*
Y577D01*
X4029Y593D01*
X4025D01*
X4021Y589D01*
Y581D01*
X4025Y577D01*
Y600D02*
X4021Y604D01*
Y612D01*
X4025Y616D01*
X4029D01*
X4032Y612D01*
Y608D01*
Y612D01*
X4036Y616D01*
X4040D01*
X4044Y612D01*
Y604D01*
X4040Y600D01*
X4048Y624D02*
Y640D01*
X4044Y648D02*
Y655D01*
Y652D01*
X4021D01*
X4025Y648D01*
X2114Y553D02*
X2110Y557D01*
X2102D01*
X2098Y553D01*
Y538D01*
X2102Y534D01*
X2110D01*
X2114Y538D01*
X2138Y534D02*
X2122D01*
X2138Y549D01*
Y553D01*
X2134Y557D01*
X2126D01*
X2122Y553D01*
X2146D02*
X2150Y557D01*
X2157D01*
X2161Y553D01*
Y549D01*
X2157Y545D01*
X2153D01*
X2157D01*
X2161Y541D01*
Y538D01*
X2157Y534D01*
X2150D01*
X2146Y538D01*
X2169Y530D02*
X2185D01*
X2209Y534D02*
X2193D01*
X2209Y549D01*
Y553D01*
X2205Y557D01*
X2197D01*
X2193Y553D01*
X2502Y345D02*
X2498Y341D01*
Y333D01*
X2502Y329D01*
X2518D01*
X2522Y333D01*
Y341D01*
X2518Y345D01*
X2522Y353D02*
Y360D01*
Y356D01*
X2498D01*
X2502Y353D01*
X2498Y388D02*
Y372D01*
X2510D01*
X2506Y380D01*
Y384D01*
X2510Y388D01*
X2518D01*
X2522Y384D01*
Y376D01*
X2518Y372D01*
X2517Y249D02*
X2513Y245D01*
Y237D01*
X2517Y233D01*
X2532D01*
X2536Y237D01*
Y245D01*
X2532Y249D01*
X2536Y257D02*
Y265D01*
Y261D01*
X2513D01*
X2517Y257D01*
X2536Y288D02*
X2513D01*
X2525Y277D01*
Y292D01*
X2199Y353D02*
X2195Y349D01*
Y341D01*
X2199Y337D01*
X2214D01*
X2218Y341D01*
Y349D01*
X2214Y353D01*
X2218Y361D02*
Y369D01*
Y365D01*
X2195D01*
X2199Y361D01*
X2218Y381D02*
Y389D01*
Y385D01*
X2195D01*
X2199Y381D01*
Y253D02*
X2195Y249D01*
Y241D01*
X2199Y237D01*
X2214D01*
X2218Y241D01*
Y249D01*
X2214Y253D01*
X2218Y261D02*
Y269D01*
Y265D01*
X2195D01*
X2199Y261D01*
Y281D02*
X2195Y285D01*
Y292D01*
X2199Y296D01*
X2214D01*
X2218Y292D01*
Y285D01*
X2214Y281D01*
X2199D01*
Y441D02*
X2195Y437D01*
Y430D01*
X2199Y426D01*
X2214D01*
X2218Y430D01*
Y437D01*
X2214Y441D01*
X2199Y449D02*
X2195Y453D01*
Y461D01*
X2199Y465D01*
X2203D01*
X2206Y461D01*
X2210Y465D01*
X2214D01*
X2218Y461D01*
Y453D01*
X2214Y449D01*
X2210D01*
X2206Y453D01*
X2203Y449D01*
X2199D01*
X2206Y453D02*
Y461D01*
X2649Y536D02*
X2645Y532D01*
Y525D01*
X2649Y521D01*
X2664D01*
X2668Y525D01*
Y532D01*
X2664Y536D01*
X2645Y544D02*
Y560D01*
X2649D01*
X2664Y544D01*
X2668D01*
X2999Y279D02*
X2995Y283D01*
X2987D01*
X2983Y279D01*
Y263D01*
X2987Y259D01*
X2995D01*
X2999Y263D01*
X3022Y283D02*
X3014Y279D01*
X3007Y271D01*
Y263D01*
X3010Y259D01*
X3018D01*
X3022Y263D01*
Y267D01*
X3018Y271D01*
X3007D01*
X2703Y535D02*
X2699Y531D01*
Y524D01*
X2703Y520D01*
X2719D01*
X2722Y524D01*
Y531D01*
X2719Y535D01*
X2699Y559D02*
Y543D01*
X2711D01*
X2707Y551D01*
Y555D01*
X2711Y559D01*
X2719D01*
X2722Y555D01*
Y547D01*
X2719Y543D01*
X2818Y1319D02*
X2814Y1323D01*
X2807D01*
X2803Y1319D01*
Y1303D01*
X2807Y1299D01*
X2814D01*
X2818Y1303D01*
X2838Y1299D02*
Y1323D01*
X2826Y1311D01*
X2842D01*
X2545Y1470D02*
X2541Y1474D01*
X2533D01*
X2530Y1470D01*
Y1455D01*
X2533Y1451D01*
X2541D01*
X2545Y1455D01*
X2553Y1470D02*
X2557Y1474D01*
X2565D01*
X2569Y1470D01*
Y1467D01*
X2565Y1463D01*
X2561D01*
X2565D01*
X2569Y1459D01*
Y1455D01*
X2565Y1451D01*
X2557D01*
X2553Y1455D01*
X2368Y869D02*
X2364Y873D01*
X2356D01*
X2352Y869D01*
Y853D01*
X2356Y849D01*
X2364D01*
X2368Y853D01*
X2392Y849D02*
X2376D01*
X2392Y865D01*
Y869D01*
X2388Y873D01*
X2380D01*
X2376Y869D01*
X2526Y1240D02*
X2522Y1244D01*
X2514D01*
X2510Y1240D01*
Y1224D01*
X2514Y1220D01*
X2522D01*
X2526Y1224D01*
X2533Y1220D02*
X2541D01*
X2537D01*
Y1244D01*
X2533Y1240D01*
D15*
X3973Y719D02*
X3998D01*
X3948Y688D02*
X3998D01*
X3948D02*
X3973Y719D01*
X3998Y688D01*
X3948Y719D02*
X3973D01*
X3932Y803D02*
X4013D01*
Y644D02*
Y803D01*
X3932Y644D02*
Y803D01*
X369Y1483D02*
X394D01*
X344Y1452D02*
X394D01*
X344D02*
X369Y1483D01*
X394Y1452D01*
X344Y1483D02*
X369D01*
X328Y1567D02*
X409D01*
Y1408D02*
Y1567D01*
X328Y1408D02*
Y1567D01*
X249Y1457D02*
X274D01*
X249Y1488D02*
X299D01*
X274Y1457D02*
X299Y1488D01*
X249D02*
X274Y1457D01*
X299D01*
X234Y1374D02*
X315D01*
X234D02*
Y1533D01*
X315Y1374D02*
Y1533D01*
X1535Y303D02*
Y328D01*
X1504Y303D02*
Y353D01*
X1535Y328D01*
X1504Y303D02*
X1535Y328D01*
Y353D01*
X1641Y269D02*
Y387D01*
X1434Y269D02*
X1641D01*
X1434Y387D02*
X1641D01*
X1952Y328D02*
Y353D01*
X1983Y303D02*
Y353D01*
X1952Y328D02*
X1983Y303D01*
X1952Y328D02*
X1983Y353D01*
X1952Y303D02*
Y328D01*
X1846Y269D02*
Y387D01*
X2053D01*
X1846Y269D02*
X2053D01*
X392Y1288D02*
Y1313D01*
X423Y1263D02*
Y1313D01*
X392Y1288D02*
X423Y1263D01*
X392Y1288D02*
X423Y1313D01*
X392Y1263D02*
Y1288D01*
X309Y1247D02*
Y1328D01*
X468D01*
X309Y1247D02*
X468D01*
X408Y1172D02*
Y1197D01*
X377Y1172D02*
Y1222D01*
X408Y1197D01*
X377Y1172D02*
X408Y1197D01*
Y1222D01*
X492Y1157D02*
Y1238D01*
X332Y1157D02*
X492D01*
X332Y1238D02*
X492D01*
X4510Y944D02*
X4535D01*
X4510Y975D02*
X4560D01*
X4535Y944D02*
X4560Y975D01*
X4510D02*
X4535Y944D01*
X4560D01*
X4495Y860D02*
X4576D01*
X4495D02*
Y1019D01*
X4576Y860D02*
Y1019D01*
X5016Y1055D02*
Y1214D01*
X4935Y1055D02*
Y1214D01*
Y1055D02*
X5016D01*
X4975Y1138D02*
X5000D01*
X4950Y1169D02*
X4975Y1138D01*
X5000Y1169D01*
X4950D02*
X5000D01*
X4950Y1138D02*
X4975D01*
X4880Y1168D02*
X4905D01*
X4855Y1137D02*
X4905D01*
X4855D02*
X4880Y1168D01*
X4905Y1137D01*
X4855Y1168D02*
X4880D01*
X4839Y1252D02*
X4920D01*
Y1093D02*
Y1252D01*
X4839Y1093D02*
Y1252D01*
X4298Y349D02*
Y374D01*
X4329Y324D02*
Y374D01*
X4298Y349D02*
X4329Y324D01*
X4298Y349D02*
X4329Y374D01*
X4298Y324D02*
Y349D01*
X4215Y308D02*
Y389D01*
X4374D01*
X4215Y308D02*
X4374D01*
X5105Y1695D02*
X5130D01*
X5105Y1726D02*
X5155D01*
X5130Y1695D02*
X5155Y1726D01*
X5105D02*
X5130Y1695D01*
X5155D01*
X5090Y1612D02*
X5171D01*
X5090D02*
Y1771D01*
X5171Y1612D02*
Y1771D01*
X5040Y1728D02*
X5065D01*
X5015Y1697D02*
X5065D01*
X5015D02*
X5040Y1728D01*
X5065Y1697D01*
X5015Y1728D02*
X5040D01*
X4999Y1812D02*
X5080D01*
Y1653D02*
Y1812D01*
X4999Y1653D02*
Y1812D01*
X982Y800D02*
Y959D01*
X901Y800D02*
Y959D01*
Y800D02*
X982D01*
X941Y883D02*
X966D01*
X916Y914D02*
X941Y883D01*
X966Y914D01*
X916D02*
X966D01*
X916Y883D02*
X941D01*
X932Y367D02*
X1091D01*
X932Y286D02*
X1091D01*
Y367D01*
X1008Y326D02*
Y351D01*
X977Y301D02*
X1008Y326D01*
X977Y351D02*
X1008Y326D01*
X977Y301D02*
Y351D01*
X1008Y301D02*
Y326D01*
X3889Y347D02*
Y372D01*
X3920Y322D02*
Y372D01*
X3889Y347D02*
X3920Y322D01*
X3889Y347D02*
X3920Y372D01*
X3889Y322D02*
Y347D01*
X3784Y288D02*
Y406D01*
X3990D01*
X3784Y288D02*
X3990D01*
X3430Y744D02*
X3455D01*
X3405Y713D02*
X3455D01*
X3405D02*
X3430Y744D01*
X3455Y713D01*
X3405Y744D02*
X3430D01*
X3389Y828D02*
X3470D01*
Y669D02*
Y828D01*
X3389Y669D02*
Y828D01*
X3371Y406D02*
X3578D01*
X3371Y288D02*
X3578D01*
Y406D01*
X3472Y347D02*
Y372D01*
X3441Y322D02*
X3472Y347D01*
X3441Y372D02*
X3472Y347D01*
X3441Y322D02*
Y372D01*
X3472Y322D02*
Y347D01*
X2037Y703D02*
X2062D01*
X2012Y672D02*
X2062D01*
X2012D02*
X2037Y703D01*
X2062Y672D01*
X2012Y703D02*
X2037D01*
X1996Y786D02*
X2077D01*
Y627D02*
Y786D01*
X1996Y627D02*
Y786D01*
X1493Y725D02*
X1518D01*
X1468Y694D02*
X1518D01*
X1468D02*
X1493Y725D01*
X1518Y694D01*
X1468Y725D02*
X1493D01*
X1452Y809D02*
X1533D01*
Y650D02*
Y809D01*
X1452Y650D02*
Y809D01*
X3690Y542D02*
Y701D01*
X3771Y542D02*
Y701D01*
X3690D02*
X3771D01*
X3706Y617D02*
X3731D01*
X3756Y586D01*
X3706D02*
X3731Y617D01*
X3706Y586D02*
X3756D01*
X3731Y617D02*
X3756D01*
X3590Y542D02*
Y701D01*
X3671Y542D02*
Y701D01*
X3590D02*
X3671D01*
X3606Y617D02*
X3631D01*
X3656Y586D01*
X3606D02*
X3631Y617D01*
X3606Y586D02*
X3656D01*
X3631Y617D02*
X3656D01*
X2792Y1737D02*
X2951D01*
X2792Y1656D02*
X2951D01*
Y1737D01*
X2868Y1696D02*
Y1721D01*
X2837Y1671D02*
X2868Y1696D01*
X2837Y1721D02*
X2868Y1696D01*
X2837Y1671D02*
Y1721D01*
X2868Y1671D02*
Y1696D01*
X2627Y1744D02*
X2786D01*
X2627Y1825D02*
X2786D01*
X2627Y1744D02*
Y1825D01*
X2711Y1760D02*
Y1785D01*
X2742Y1810D01*
X2711Y1785D02*
X2742Y1760D01*
Y1810D01*
X2711Y1785D02*
Y1810D01*
X1653Y523D02*
Y682D01*
X1734Y523D02*
Y682D01*
X1653D02*
X1734D01*
X1669Y598D02*
X1694D01*
X1719Y567D01*
X1669D02*
X1694Y598D01*
X1669Y567D02*
X1719D01*
X1694Y598D02*
X1719D01*
X1753Y523D02*
Y682D01*
X1834Y523D02*
Y682D01*
X1753D02*
X1834D01*
X1769Y598D02*
X1794D01*
X1819Y567D01*
X1769D02*
X1794Y598D01*
X1769Y567D02*
X1819D01*
X1794Y598D02*
X1819D01*
D16*
X3161Y2530D02*
X3148D01*
X3141Y2523D01*
Y2496D01*
X3148Y2489D01*
X3161D01*
X3168Y2496D01*
Y2523D01*
X3161Y2530D01*
X3209Y2517D02*
X3189D01*
X3182Y2510D01*
Y2496D01*
X3189Y2489D01*
X3209D01*
X3230Y2523D02*
Y2517D01*
X3223D01*
X3237D01*
X3230D01*
Y2496D01*
X3237Y2489D01*
X3264D02*
X3278D01*
X3285Y2496D01*
Y2510D01*
X3278Y2517D01*
X3264D01*
X3257Y2510D01*
Y2496D01*
X3264Y2489D01*
X3299Y2530D02*
Y2489D01*
X3319D01*
X3326Y2496D01*
Y2503D01*
Y2510D01*
X3319Y2517D01*
X3299D01*
X3360Y2489D02*
X3347D01*
X3340Y2496D01*
Y2510D01*
X3347Y2517D01*
X3360D01*
X3367Y2510D01*
Y2503D01*
X3340D01*
X3381Y2517D02*
Y2489D01*
Y2503D01*
X3388Y2510D01*
X3395Y2517D01*
X3401D01*
X3491Y2489D02*
X3463D01*
X3491Y2517D01*
Y2523D01*
X3484Y2530D01*
X3470D01*
X3463Y2523D01*
X3504D02*
X3511Y2530D01*
X3525D01*
X3532Y2523D01*
Y2496D01*
X3525Y2489D01*
X3511D01*
X3504Y2496D01*
Y2523D01*
X3546Y2489D02*
X3559D01*
X3552D01*
Y2530D01*
X3546Y2523D01*
X3580D02*
X3587Y2530D01*
X3600D01*
X3607Y2523D01*
Y2517D01*
X3600Y2510D01*
X3607Y2503D01*
Y2496D01*
X3600Y2489D01*
X3587D01*
X3580Y2496D01*
Y2503D01*
X3587Y2510D01*
X3580Y2517D01*
Y2523D01*
X3587Y2510D02*
X3600D01*
D17*
X692Y913D02*
X676D01*
Y921D01*
X679Y924D01*
X684D01*
X687Y921D01*
Y913D01*
Y919D02*
X692Y924D01*
X695Y929D02*
Y940D01*
X692Y945D02*
Y950D01*
Y947D01*
X676D01*
Y945D01*
X692Y958D02*
Y966D01*
X689Y968D01*
X687Y966D01*
Y961D01*
X684Y958D01*
X681Y961D01*
Y968D01*
X695Y974D02*
Y984D01*
X692Y1000D02*
Y989D01*
X681Y1000D01*
X679D01*
X676Y997D01*
Y992D01*
X679Y989D01*
Y1005D02*
X676Y1008D01*
Y1013D01*
X679Y1016D01*
X681D01*
X684Y1013D01*
X687Y1016D01*
X689D01*
X692Y1013D01*
Y1008D01*
X689Y1005D01*
X687D01*
X684Y1008D01*
X681Y1005D01*
X679D01*
X684Y1008D02*
Y1013D01*
X4749Y999D02*
X4733D01*
Y1007D01*
X4736Y1010D01*
X4741D01*
X4744Y1007D01*
Y999D01*
Y1004D02*
X4749Y1010D01*
X4752Y1015D02*
Y1025D01*
X4733Y1031D02*
X4749D01*
X4741D01*
X4739Y1033D01*
Y1038D01*
X4741Y1041D01*
X4749D01*
Y1046D02*
Y1054D01*
X4746Y1057D01*
X4744Y1054D01*
Y1049D01*
X4741Y1046D01*
X4739Y1049D01*
Y1057D01*
X4752Y1062D02*
Y1072D01*
X4749Y1088D02*
Y1078D01*
X4739Y1088D01*
X4736D01*
X4733Y1086D01*
Y1080D01*
X4736Y1078D01*
Y1093D02*
X4733Y1096D01*
Y1101D01*
X4736Y1104D01*
X4739D01*
X4741Y1101D01*
X4744Y1104D01*
X4746D01*
X4749Y1101D01*
Y1096D01*
X4746Y1093D01*
X4744D01*
X4741Y1096D01*
X4739Y1093D01*
X4736D01*
X4741Y1096D02*
Y1101D01*
M02*
