G04*
G04 #@! TF.GenerationSoftware,Altium Limited,Altium Designer,18.0.12 (696)*
G04*
G04 Layer_Physical_Order=1*
G04 Layer_Color=255*
%FSLAX23Y23*%
%MOIN*%
G70*
G01*
G75*
%ADD43C,0.020*%
%ADD44R,0.055X0.037*%
%ADD45R,0.026X0.038*%
%ADD46R,0.055X0.035*%
%ADD47R,0.035X0.055*%
%ADD48R,0.031X0.016*%
%ADD49R,0.037X0.055*%
%ADD50R,0.016X0.031*%
%ADD51R,0.060X0.066*%
%ADD52R,0.035X0.031*%
%ADD53O,0.059X0.024*%
G04:AMPARAMS|DCode=54|XSize=71mil|YSize=150mil|CornerRadius=18mil|HoleSize=0mil|Usage=FLASHONLY|Rotation=0.000|XOffset=0mil|YOffset=0mil|HoleType=Round|Shape=RoundedRectangle|*
%AMROUNDEDRECTD54*
21,1,0.071,0.114,0,0,0.0*
21,1,0.035,0.150,0,0,0.0*
1,1,0.035,0.018,-0.057*
1,1,0.035,-0.018,-0.057*
1,1,0.035,-0.018,0.057*
1,1,0.035,0.018,0.057*
%
%ADD54ROUNDEDRECTD54*%
%ADD55R,0.038X0.026*%
%ADD56O,0.057X0.024*%
%ADD57R,0.031X0.035*%
G04:AMPARAMS|DCode=58|XSize=35mil|YSize=16mil|CornerRadius=4mil|HoleSize=0mil|Usage=FLASHONLY|Rotation=180.000|XOffset=0mil|YOffset=0mil|HoleType=Round|Shape=RoundedRectangle|*
%AMROUNDEDRECTD58*
21,1,0.035,0.008,0,0,180.0*
21,1,0.028,0.016,0,0,180.0*
1,1,0.008,-0.014,0.004*
1,1,0.008,0.014,0.004*
1,1,0.008,0.014,-0.004*
1,1,0.008,-0.014,-0.004*
%
%ADD58ROUNDEDRECTD58*%
%ADD59R,0.045X0.071*%
%ADD60R,0.069X0.049*%
%ADD61O,0.024X0.059*%
%ADD62R,0.037X0.085*%
%ADD63R,0.128X0.085*%
%ADD64C,0.030*%
%ADD65C,0.012*%
%ADD66C,0.016*%
%ADD67C,0.010*%
%ADD68C,0.050*%
%ADD69C,0.060*%
%ADD70C,0.059*%
%ADD71R,0.059X0.059*%
%ADD72C,0.043*%
%ADD73R,0.059X0.059*%
%ADD74C,0.024*%
G36*
X1236Y2516D02*
X1236Y2339D01*
X1089D01*
X1085Y2342D01*
X1085Y2344D01*
Y2385D01*
X1011D01*
X937D01*
Y2344D01*
X937Y2342D01*
X933Y2339D01*
X846D01*
Y2496D01*
X896Y2546D01*
X1206Y2546D01*
X1236Y2516D01*
D02*
G37*
G36*
X2079Y2350D02*
Y2250D01*
X2067Y2238D01*
X1999D01*
X1993Y2245D01*
Y2349D01*
X2002Y2358D01*
X2071D01*
X2079Y2350D01*
D02*
G37*
G36*
X1849Y2352D02*
X1853Y2348D01*
Y2245D01*
X1846Y2238D01*
X1778D01*
X1767Y2250D01*
X1767Y2343D01*
X1776Y2352D01*
X1849Y2352D01*
D02*
G37*
G36*
X1149Y2281D02*
X1186D01*
Y2271D01*
X1196D01*
Y2244D01*
X1213D01*
X1215Y2239D01*
X1203Y2227D01*
X1151D01*
Y2226D01*
X1086D01*
X1077Y2217D01*
X1075D01*
Y2214D01*
X1064Y2203D01*
X1066Y2201D01*
Y2126D01*
X1075Y2117D01*
Y2116D01*
X1075D01*
X1077Y2114D01*
X1128D01*
X1133Y2109D01*
Y2072D01*
X1126Y2065D01*
X808D01*
X802Y2071D01*
Y2107D01*
X811Y2116D01*
X894D01*
Y2116D01*
X947D01*
Y2122D01*
X956Y2131D01*
Y2216D01*
X946Y2226D01*
X859D01*
Y2236D01*
X821D01*
Y2246D01*
X811D01*
Y2273D01*
X801D01*
X799Y2278D01*
X807Y2286D01*
X1149D01*
Y2281D01*
D02*
G37*
G36*
X2164Y1655D02*
X2199Y1655D01*
X2199Y1585D01*
X2162Y1585D01*
X2128Y1551D01*
X2077D01*
X2070Y1558D01*
Y1594D01*
X2095Y1619D01*
Y1653D01*
X2109Y1666D01*
X2153D01*
X2164Y1655D01*
D02*
G37*
G36*
X1316Y1628D02*
X1309D01*
Y1591D01*
Y1553D01*
X1316D01*
Y1540D01*
X1252Y1540D01*
X1228D01*
X1215Y1553D01*
Y1647D01*
X1228Y1660D01*
X1247D01*
X1316Y1660D01*
X1316Y1628D01*
D02*
G37*
G36*
X1422Y1643D02*
Y1643D01*
X1423D01*
X1435Y1630D01*
X1454D01*
X1476Y1607D01*
Y1512D01*
X1465Y1501D01*
X1400D01*
X1389Y1512D01*
Y1534D01*
X1376Y1547D01*
X1349D01*
X1341Y1556D01*
Y1637D01*
X1347Y1644D01*
X1422D01*
X1422Y1643D01*
D02*
G37*
G36*
X1991Y1208D02*
X1991Y1208D01*
X1993Y1207D01*
X1997Y1206D01*
X1997Y1205D01*
X1998Y1205D01*
X1999Y1204D01*
X2000Y1202D01*
X2001Y1201D01*
X2001Y1199D01*
X2001Y1198D01*
X2001Y861D01*
X2001Y861D01*
X2001Y860D01*
X2000Y856D01*
X1999Y853D01*
X1997Y851D01*
X1995Y849D01*
X1994Y848D01*
X1992Y847D01*
X1990Y846D01*
X1989Y846D01*
X1928D01*
X1927Y846D01*
X1924Y847D01*
X1921Y848D01*
X1919Y850D01*
X1918Y851D01*
X1918Y851D01*
X1918Y1126D01*
X1918Y1127D01*
X1917Y1128D01*
Y1128D01*
X1917Y1130D01*
X1917Y1130D01*
X1917Y1131D01*
X1916Y1132D01*
X1916Y1133D01*
Y1201D01*
X1916Y1202D01*
X1917Y1204D01*
X1918Y1205D01*
X1918Y1206D01*
X1919Y1206D01*
X1920Y1207D01*
X1921Y1207D01*
X1922Y1208D01*
X1923Y1208D01*
X1986Y1208D01*
X1991Y1208D01*
D02*
G37*
G36*
X1900Y1134D02*
X1900Y1134D01*
X1903Y1133D01*
X1906Y1132D01*
X1907Y1132D01*
X1908Y1130D01*
X1909Y1129D01*
X1909Y1128D01*
X1909Y1127D01*
X1909Y1126D01*
X1909Y840D01*
X1909Y840D01*
X1909Y838D01*
X1909Y835D01*
X1908Y832D01*
X1906Y829D01*
X1905Y828D01*
X1904Y827D01*
X1903Y827D01*
X1902Y826D01*
X1900Y826D01*
X1811D01*
X1810Y826D01*
X1809Y826D01*
X1809Y826D01*
X1809Y826D01*
X1808Y826D01*
X1806D01*
X1802Y827D01*
X1801Y827D01*
X1790Y838D01*
X1789Y840D01*
Y1127D01*
X1790Y1132D01*
X1794Y1134D01*
X1795Y1134D01*
X1896Y1134D01*
X1900Y1134D01*
D02*
G37*
G36*
X1757Y1047D02*
X1764Y1045D01*
X1772Y1047D01*
X1772Y1047D01*
X1777Y1045D01*
Y909D01*
X1773Y906D01*
X1772Y907D01*
X1764Y909D01*
X1757Y907D01*
X1751Y903D01*
X1728D01*
X1722Y907D01*
X1714Y909D01*
X1707Y907D01*
X1701Y903D01*
X1681D01*
X1680Y904D01*
X1673Y909D01*
X1664Y911D01*
X1656Y909D01*
X1649Y904D01*
X1648Y903D01*
X1624D01*
X1614Y913D01*
Y1033D01*
X1629Y1048D01*
X1651D01*
X1656Y1045D01*
X1664Y1043D01*
X1673Y1045D01*
X1678Y1048D01*
X1704D01*
X1707Y1047D01*
X1714Y1045D01*
X1722Y1047D01*
X1724Y1048D01*
X1754D01*
X1757Y1047D01*
D02*
G37*
G36*
X1111Y1207D02*
Y957D01*
X1086Y932D01*
X1031D01*
X996Y967D01*
Y1031D01*
X1011D01*
Y1057D01*
Y1083D01*
X996D01*
Y1207D01*
X1016Y1227D01*
X1091D01*
X1111Y1207D01*
D02*
G37*
G36*
X1909Y729D02*
Y710D01*
X1923Y696D01*
X1923Y632D01*
X1909Y618D01*
X1782D01*
X1770Y631D01*
Y672D01*
X1752Y690D01*
Y743D01*
X1760Y751D01*
X1888D01*
X1909Y729D01*
D02*
G37*
G36*
X1734Y743D02*
Y690D01*
X1717Y672D01*
Y631D01*
X1704Y618D01*
X1577D01*
X1563Y632D01*
X1563Y696D01*
X1577Y710D01*
Y729D01*
X1598Y751D01*
X1726D01*
X1734Y743D01*
D02*
G37*
G36*
X2114Y503D02*
Y282D01*
X2109Y278D01*
X2015D01*
X1994Y298D01*
Y460D01*
X2004Y469D01*
Y519D01*
X2018Y532D01*
X2085D01*
X2114Y503D01*
D02*
G37*
G36*
X1484Y519D02*
Y469D01*
X1494Y460D01*
Y298D01*
X1473Y278D01*
X1379D01*
X1374Y282D01*
Y503D01*
X1404Y532D01*
X1470D01*
X1484Y519D01*
D02*
G37*
G36*
X2350Y488D02*
Y453D01*
X2416Y387D01*
Y227D01*
X2405Y216D01*
X2313D01*
X2295Y233D01*
Y489D01*
X2301Y495D01*
X2344D01*
X2350Y488D01*
D02*
G37*
G36*
X4738Y2487D02*
X4738Y2239D01*
X4730D01*
X4730Y2239D01*
Y2239D01*
X4725D01*
Y2239D01*
X4698D01*
Y2212D01*
X4688D01*
Y2202D01*
X4650D01*
Y2197D01*
X4588D01*
X4579Y2188D01*
X4576D01*
Y2185D01*
X4565Y2174D01*
X4567Y2172D01*
Y2097D01*
X4557Y2087D01*
X4547D01*
Y2087D01*
X4541D01*
Y2127D01*
X4512D01*
X4484D01*
Y2087D01*
X4476D01*
Y2087D01*
X4471Y2088D01*
X4457Y2102D01*
Y2187D01*
X4448Y2197D01*
X4360D01*
Y2207D01*
X4323D01*
Y2217D01*
X4313D01*
Y2244D01*
X4302D01*
X4300Y2249D01*
X4348Y2297D01*
Y2467D01*
X4398Y2517D01*
X4708Y2517D01*
X4738Y2487D01*
D02*
G37*
G36*
X3689Y2288D02*
Y2138D01*
X3680Y2129D01*
X3605D01*
X3602Y2132D01*
Y2293D01*
X3609Y2300D01*
X3677D01*
X3689Y2288D01*
D02*
G37*
G36*
X3462Y2293D02*
Y2132D01*
X3460Y2129D01*
X3385D01*
X3376Y2138D01*
Y2288D01*
X3388Y2300D01*
X3456D01*
X3462Y2293D01*
D02*
G37*
G36*
X2718Y2138D02*
Y2093D01*
X2709Y2084D01*
X2704Y2086D01*
Y2094D01*
X2666D01*
X2629D01*
Y2079D01*
X2619D01*
Y2094D01*
X2581D01*
X2544D01*
Y2079D01*
X2516D01*
X2511Y2084D01*
Y2109D01*
X2531Y2129D01*
Y2154D01*
X2556Y2179D01*
X2676D01*
X2718Y2138D01*
D02*
G37*
G36*
X2957Y2032D02*
Y2007D01*
X2937Y1987D01*
Y1962D01*
X2912Y1937D01*
X2792D01*
X2762Y1967D01*
Y1980D01*
X2764Y1984D01*
X2792D01*
Y2012D01*
X2802D01*
Y2022D01*
X2839D01*
Y2037D01*
X2849D01*
Y2022D01*
X2924D01*
Y2037D01*
X2952D01*
X2957Y2032D01*
D02*
G37*
G36*
X4607Y1964D02*
X4615D01*
X4619Y1954D01*
X4602Y1937D01*
X4337D01*
X4320Y1954D01*
X4324Y1964D01*
X4331D01*
Y1992D01*
X4351D01*
Y1964D01*
X4378D01*
Y1964D01*
X4389D01*
Y1964D01*
X4416D01*
Y1992D01*
X4436D01*
Y1964D01*
X4463D01*
Y1964D01*
X4474D01*
Y1964D01*
X4501D01*
Y1992D01*
X4521D01*
Y1964D01*
X4549D01*
Y1964D01*
X4559D01*
Y1964D01*
X4587D01*
Y1992D01*
X4607D01*
Y1964D01*
D02*
G37*
G36*
X3372Y1621D02*
Y1578D01*
X3362Y1568D01*
Y1553D01*
X3343Y1534D01*
X3328Y1534D01*
X3308D01*
X3238Y1534D01*
X3238Y1604D01*
X3245Y1610D01*
X3290D01*
X3309Y1629D01*
X3364D01*
X3372Y1621D01*
D02*
G37*
G36*
X3918Y1616D02*
X3933D01*
X3948Y1601D01*
Y1544D01*
X3929Y1526D01*
X3811D01*
X3807Y1530D01*
Y1609D01*
X3815Y1617D01*
X3918D01*
Y1616D01*
D02*
G37*
G36*
X3837Y1153D02*
X3837Y1153D01*
X3840Y1152D01*
X3843Y1151D01*
X3844Y1151D01*
X3845Y1150D01*
X3846Y1148D01*
X3846Y1147D01*
X3847Y1146D01*
X3847Y1145D01*
Y1127D01*
X3846Y1126D01*
X3845Y1125D01*
X3845Y1124D01*
X3844Y1123D01*
X3844Y1122D01*
X3844Y1121D01*
X3843Y1120D01*
X3843Y1119D01*
X3843Y1118D01*
X3843Y1117D01*
Y1116D01*
X3843Y1116D01*
Y863D01*
X3843Y863D01*
X3843Y860D01*
X3845Y857D01*
X3845Y857D01*
X3846Y856D01*
X3846Y854D01*
X3845Y851D01*
X3843Y848D01*
X3842Y847D01*
X3841Y846D01*
X3840Y846D01*
X3839Y845D01*
X3838Y845D01*
X3748D01*
X3747Y845D01*
X3747Y845D01*
X3746Y845D01*
X3746Y845D01*
X3745Y845D01*
X3743D01*
X3739Y846D01*
X3738Y846D01*
X3727Y857D01*
X3726Y859D01*
Y1147D01*
X3728Y1148D01*
X3747D01*
Y1153D01*
X3767Y1153D01*
Y1148D01*
X3798D01*
Y1153D01*
X3833Y1153D01*
X3837Y1153D01*
D02*
G37*
G36*
X3880Y1125D02*
X3880Y1125D01*
X3880D01*
X3885Y1124D01*
X3885Y1124D01*
X3888Y1123D01*
X3891Y1121D01*
X3903Y1110D01*
Y1110D01*
X3904Y1109D01*
X3907Y1107D01*
X3910Y1105D01*
X3914Y1104D01*
X3916Y1104D01*
X3967D01*
X3967Y1104D01*
X3967Y1104D01*
X3967D01*
X3972Y1104D01*
X3972Y1104D01*
X3975Y1102D01*
X3978Y1101D01*
X3979Y1099D01*
X3981Y1098D01*
X3982Y1095D01*
X3984Y1092D01*
X3984Y1089D01*
X3984Y1088D01*
X3984Y1060D01*
X3984Y1060D01*
X3984Y1058D01*
X3983Y1053D01*
X3981Y1048D01*
X3978Y1043D01*
X3976Y1041D01*
X3948Y1013D01*
X3947Y1012D01*
X3945Y1009D01*
X3944Y1006D01*
X3943Y1002D01*
X3943Y1000D01*
Y859D01*
X3943Y859D01*
X3943Y858D01*
X3942Y854D01*
X3941Y851D01*
X3939Y849D01*
X3938Y847D01*
X3937Y847D01*
X3936Y846D01*
X3934Y845D01*
X3932Y844D01*
X3931Y844D01*
X3904Y844D01*
X3870D01*
X3851Y863D01*
Y1116D01*
X3851D01*
Y1117D01*
X3851Y1119D01*
X3852Y1120D01*
X3853Y1121D01*
X3854Y1123D01*
X3856Y1124D01*
X3858Y1125D01*
X3859Y1125D01*
X3860Y1125D01*
X3880Y1125D01*
X3880Y1125D01*
D02*
G37*
G36*
X3694Y1066D02*
X3701Y1064D01*
X3709Y1066D01*
X3710Y1066D01*
X3715Y1064D01*
Y928D01*
X3710Y925D01*
X3709Y926D01*
X3701Y928D01*
X3694Y926D01*
X3688Y922D01*
X3665D01*
X3659Y926D01*
X3651Y928D01*
X3644Y926D01*
X3638Y922D01*
X3618D01*
X3617Y923D01*
X3610Y928D01*
X3601Y930D01*
X3593Y928D01*
X3586Y923D01*
X3585Y922D01*
X3561D01*
X3551Y932D01*
Y1052D01*
X3566Y1067D01*
X3588D01*
X3593Y1064D01*
X3601Y1062D01*
X3610Y1064D01*
X3615Y1067D01*
X3642D01*
X3644Y1066D01*
X3651Y1064D01*
X3659Y1066D01*
X3661Y1067D01*
X3692D01*
X3694Y1066D01*
D02*
G37*
G36*
X4425Y1202D02*
Y962D01*
X4390Y927D01*
X4335D01*
X4310Y952D01*
Y1188D01*
X4334Y1213D01*
X4352D01*
X4357Y1214D01*
X4359Y1214D01*
X4364Y1218D01*
X4368Y1222D01*
X4405D01*
X4425Y1202D01*
D02*
G37*
G36*
X3847Y748D02*
Y729D01*
X3860Y715D01*
X3860Y651D01*
X3847Y637D01*
X3720D01*
X3707Y650D01*
Y691D01*
X3689Y709D01*
Y762D01*
X3697Y770D01*
X3825D01*
X3847Y748D01*
D02*
G37*
G36*
X3671Y762D02*
Y709D01*
X3654Y691D01*
Y650D01*
X3641Y637D01*
X3514D01*
X3500Y651D01*
X3500Y715D01*
X3514Y729D01*
Y748D01*
X3536Y770D01*
X3663D01*
X3671Y762D01*
D02*
G37*
G36*
X4051Y522D02*
Y302D01*
X4046Y297D01*
X3952D01*
X3931Y317D01*
Y479D01*
X3941Y489D01*
Y538D01*
X3955Y552D01*
X4022D01*
X4051Y522D01*
D02*
G37*
G36*
X3421Y538D02*
Y489D01*
X3431Y479D01*
Y317D01*
X3411Y297D01*
X3316D01*
X3311Y302D01*
Y522D01*
X3341Y552D01*
X3408D01*
X3421Y538D01*
D02*
G37*
%LPC*%
G36*
X1085Y2447D02*
X1021D01*
Y2405D01*
X1085D01*
Y2447D01*
D02*
G37*
G36*
X1001D02*
X937D01*
Y2405D01*
X1001D01*
Y2447D01*
D02*
G37*
G36*
X859Y2273D02*
X831D01*
Y2256D01*
X859D01*
Y2273D01*
D02*
G37*
G36*
X1176Y2261D02*
X1149D01*
Y2244D01*
X1176D01*
Y2261D01*
D02*
G37*
G36*
X1040Y2219D02*
X1021D01*
Y2176D01*
X1040D01*
Y2219D01*
D02*
G37*
G36*
X1001D02*
X982D01*
Y2176D01*
X1001D01*
Y2219D01*
D02*
G37*
G36*
X1040Y2156D02*
X1021D01*
Y2114D01*
X1040D01*
Y2156D01*
D02*
G37*
G36*
X1001D02*
X982D01*
Y2114D01*
X1001D01*
Y2156D01*
D02*
G37*
G36*
X1289Y1628D02*
X1271D01*
Y1601D01*
X1289D01*
Y1628D01*
D02*
G37*
G36*
Y1581D02*
X1271D01*
Y1553D01*
X1289D01*
Y1581D01*
D02*
G37*
G36*
X1049Y1083D02*
X1031D01*
Y1067D01*
X1049D01*
Y1083D01*
D02*
G37*
G36*
Y1047D02*
X1031D01*
Y1031D01*
X1049D01*
Y1047D01*
D02*
G37*
G36*
X4586Y2418D02*
X4522D01*
Y2376D01*
X4586D01*
Y2418D01*
D02*
G37*
G36*
X4502D02*
X4438D01*
Y2376D01*
X4502D01*
Y2418D01*
D02*
G37*
G36*
X4586Y2356D02*
X4522D01*
Y2314D01*
X4586D01*
Y2356D01*
D02*
G37*
G36*
X4502D02*
X4438D01*
Y2314D01*
X4502D01*
Y2356D01*
D02*
G37*
G36*
X4360Y2244D02*
X4333D01*
Y2227D01*
X4360D01*
Y2244D01*
D02*
G37*
G36*
X4678Y2239D02*
X4650D01*
Y2222D01*
X4678D01*
Y2239D01*
D02*
G37*
G36*
X4541Y2190D02*
X4522D01*
Y2147D01*
X4541D01*
Y2190D01*
D02*
G37*
G36*
X4502D02*
X4484D01*
Y2147D01*
X4502D01*
Y2190D01*
D02*
G37*
G36*
X2704Y2132D02*
X2676D01*
Y2114D01*
X2704D01*
Y2132D01*
D02*
G37*
G36*
X2619D02*
X2591D01*
Y2114D01*
X2619D01*
Y2132D01*
D02*
G37*
G36*
X2656D02*
X2629D01*
Y2114D01*
X2656D01*
Y2132D01*
D02*
G37*
G36*
X2571D02*
X2544D01*
Y2114D01*
X2571D01*
Y2132D01*
D02*
G37*
G36*
X2924Y2002D02*
X2897D01*
Y1984D01*
X2924D01*
Y2002D01*
D02*
G37*
G36*
X2877D02*
X2849D01*
Y1984D01*
X2877D01*
Y2002D01*
D02*
G37*
G36*
X2839D02*
X2812D01*
Y1984D01*
X2839D01*
Y2002D01*
D02*
G37*
%LPD*%
D43*
X1127Y204D02*
G03*
X1125Y201I3J-3D01*
G01*
X1398Y2160D02*
G03*
X1396Y2157I4J-4D01*
G01*
X2286Y2147D02*
G03*
X2284Y2152I-6J0D01*
G01*
X3025Y1555D02*
X3106D01*
X3023D02*
X3025D01*
X3808Y880D02*
Y883D01*
Y880D02*
X3876Y812D01*
X3798Y740D02*
X3942D01*
X3973Y771D01*
X3920Y1218D02*
X3949D01*
X3782Y1172D02*
X3828Y1218D01*
X3850D01*
X3834Y1144D02*
X3930D01*
X3938Y1135D01*
X3601Y954D02*
X3601Y954D01*
X3601Y890D02*
Y954D01*
X3600Y1034D02*
X3601Y1035D01*
Y1102D01*
X4037Y1135D02*
X4055Y1117D01*
X3938Y1135D02*
X4037D01*
X4422Y2092D02*
Y2137D01*
X4392Y2062D02*
X4422Y2092D01*
X3808Y1091D02*
Y1119D01*
X3834Y1144D01*
X3895Y1172D02*
X4004D01*
X3850Y1217D02*
X3895Y1172D01*
X3850Y1217D02*
Y1218D01*
X4004Y1172D02*
X4011Y1165D01*
X4267Y1108D02*
Y1172D01*
X4327Y1231D01*
X4352D02*
X4395Y1275D01*
X4327Y1231D02*
X4352D01*
X4395Y1275D02*
Y1387D01*
X3751Y890D02*
X3751D01*
X4068Y1222D02*
Y1259D01*
X4176Y1367D01*
X4000Y1248D02*
Y1249D01*
Y1248D02*
X4100Y1149D01*
X4146Y651D02*
Y763D01*
X4178Y795D01*
Y1149D01*
X4100D02*
X4178D01*
Y1276D01*
X4314Y1412D01*
X3392Y582D02*
X3463D01*
X3466Y585D01*
X3973Y527D02*
X4017D01*
X1970Y914D02*
X2000Y884D01*
X2015D01*
X1949Y1011D02*
X1987D01*
X971Y2186D02*
X1051D01*
X831Y2255D02*
X841Y2245D01*
X297Y787D02*
Y861D01*
X1869Y873D02*
Y886D01*
Y873D02*
X1932Y809D01*
X1149Y890D02*
Y1199D01*
X780Y1919D02*
Y1996D01*
X1970Y1028D02*
X1987Y1011D01*
X1869Y1099D02*
X1869Y1099D01*
X1869Y1099D02*
Y1171D01*
Y1302D01*
X1833Y1338D02*
X1869Y1302D01*
X1806Y1268D02*
X1810Y1272D01*
X1806Y1240D02*
Y1268D01*
X1228Y1504D02*
X1239D01*
X1226Y1502D02*
X1228Y1504D01*
X1002Y1386D02*
Y1696D01*
X1127Y204D02*
X1127D01*
X1125Y131D02*
Y201D01*
X724Y1767D02*
Y1987D01*
X999Y1757D02*
X1001Y1759D01*
X2825Y131D02*
Y215D01*
X3002Y391D01*
X2967Y1522D02*
X3138Y1350D01*
Y243D02*
Y1350D01*
X3028Y132D02*
X3138Y243D01*
X776Y391D02*
Y828D01*
X735Y349D02*
X776Y391D01*
X764Y840D02*
X776Y828D01*
X617Y422D02*
X716D01*
X483Y638D02*
X558Y563D01*
X519Y672D02*
X556D01*
X678Y458D02*
Y938D01*
X1396Y2129D02*
Y2157D01*
X2286Y2121D02*
Y2147D01*
X4010Y1396D02*
X4017Y1389D01*
X4213Y731D02*
Y1240D01*
X4219Y651D02*
X4288D01*
X4346D01*
X4880Y1262D02*
X4903Y1285D01*
X4604Y2137D02*
X4688D01*
X4176Y1367D02*
Y1652D01*
X323Y1197D02*
X360D01*
X780Y2037D02*
Y2134D01*
Y1996D02*
Y2037D01*
Y1996D02*
X807Y1969D01*
X780Y1919D02*
X904Y1795D01*
X821Y2175D02*
X911D01*
X920Y2166D01*
X780Y2134D02*
X821Y2175D01*
X797Y2020D02*
X839D01*
X1094Y1420D02*
X1177Y1337D01*
X1322Y1282D02*
X1640D01*
X1307Y1297D02*
X1322Y1282D01*
X1288Y1297D02*
X1307D01*
X1285Y1299D02*
X1288Y1297D01*
X1061Y1414D02*
X1175Y1299D01*
X1285D01*
X1358Y1207D02*
X1560D01*
X1296Y1269D02*
X1358Y1207D01*
X1251Y1269D02*
X1296D01*
X1251Y814D02*
Y1269D01*
X1158D02*
X1251D01*
X1177Y1337D02*
X1625D01*
X714Y1757D02*
X724Y1767D01*
Y1987D02*
Y2209D01*
X701Y1965D02*
X724Y1987D01*
X3924Y131D02*
X4025D01*
X3919Y135D02*
X3924Y131D01*
X3919Y65D02*
X3922Y68D01*
X3965Y65D02*
X3967Y64D01*
X3919Y65D02*
X3965D01*
X1815Y2298D02*
X1827Y2286D01*
X1864D01*
X2005D02*
X2020Y2302D01*
X1982Y2286D02*
X2005D01*
X3628Y2252D02*
X3640Y2240D01*
X3591Y2252D02*
X3628D01*
X3435Y2236D02*
X3450Y2252D01*
X3473D01*
X593Y2209D02*
X625D01*
X625Y2209D01*
X653D01*
X4315Y806D02*
X4347D01*
X4315Y807D02*
X4315Y806D01*
X763Y987D02*
Y1145D01*
Y987D02*
X764Y986D01*
Y912D02*
Y986D01*
X866Y1414D02*
X928D01*
X851Y1399D02*
X866Y1414D01*
X893Y1299D02*
X894Y1299D01*
X851Y1299D02*
X893D01*
X954Y1174D02*
Y1318D01*
X928Y1344D02*
X954Y1318D01*
X704Y1031D02*
Y1062D01*
Y1135D02*
Y1204D01*
X749Y1249D01*
X851D01*
X890D01*
X915Y1223D01*
Y1196D02*
Y1223D01*
X869Y1150D02*
X915Y1196D01*
X869Y1077D02*
X887Y1094D01*
X942D01*
X833Y987D02*
X854Y1008D01*
X872D01*
X833Y987D02*
X844Y976D01*
X871D01*
X4527Y1242D02*
X4529Y1241D01*
Y1185D02*
Y1241D01*
X4594Y1155D02*
X4600Y1148D01*
Y1121D02*
Y1148D01*
X4537Y1194D02*
X4600D01*
X4529Y1185D02*
X4537Y1194D01*
X4516Y1099D02*
X4529Y1112D01*
X4469Y1099D02*
X4516D01*
X4694Y1037D02*
Y1173D01*
X4627Y1240D02*
X4694Y1173D01*
X4627Y1240D02*
Y1242D01*
X4577Y1292D02*
X4627Y1242D01*
X4527Y1292D02*
X4577D01*
X4694Y928D02*
X4695Y927D01*
X4694Y928D02*
Y1037D01*
X4465Y1167D02*
Y1307D01*
X1773Y1338D02*
X1833D01*
X1628Y1340D02*
X1699D01*
X1625Y1337D02*
X1628Y1340D01*
X1061Y1689D02*
X1112Y1740D01*
X1061Y1414D02*
Y1689D01*
X1112Y1740D02*
X1260D01*
X1261Y1741D01*
X1094Y1420D02*
Y1582D01*
X1156Y1502D02*
X1226D01*
X1156D02*
Y1563D01*
X1123Y1595D02*
X1156Y1563D01*
X1451Y1459D02*
X1512Y1519D01*
X1357Y1459D02*
X1451D01*
X1093Y1583D02*
X1094Y1582D01*
X1093Y1583D02*
Y1679D01*
X1122Y1708D01*
X1048Y1728D02*
X1156Y1836D01*
X1049Y1775D02*
X1053D01*
X1048Y1728D02*
X1048D01*
X1156Y1836D02*
X1259D01*
X1029Y1795D02*
X1049Y1775D01*
X904Y1795D02*
X1029D01*
X714Y1757D02*
X999D01*
X826Y1728D02*
X1048D01*
X1000Y1698D02*
X1002Y1696D01*
X903Y1510D02*
Y1698D01*
Y1510D02*
X974Y1439D01*
X825Y1727D02*
X826Y1728D01*
X1048D02*
X1048Y1727D01*
X4314Y1412D02*
X4332D01*
X4462Y1542D01*
X4527D01*
X110Y1265D02*
X139Y1236D01*
Y636D02*
Y1236D01*
Y532D02*
Y563D01*
Y532D02*
X211Y461D01*
X210Y387D02*
X211Y388D01*
X210Y311D02*
Y387D01*
Y238D02*
X289Y158D01*
Y141D02*
Y158D01*
Y68D02*
X296Y61D01*
X415D01*
X308Y605D02*
Y642D01*
Y605D02*
X385Y529D01*
Y456D02*
X386Y455D01*
Y390D02*
Y455D01*
Y317D02*
X404Y299D01*
X453D01*
Y226D02*
X482Y197D01*
X558D01*
X495Y61D02*
X558Y124D01*
X488Y61D02*
X495D01*
X719Y124D02*
X725Y131D01*
X558Y124D02*
X719D01*
X483Y638D02*
Y667D01*
X558Y408D02*
Y563D01*
Y408D02*
X673Y293D01*
X440Y710D02*
X483Y667D01*
X673Y293D02*
X800D01*
X678Y458D02*
X713Y422D01*
X616Y423D02*
X617Y422D01*
X5144Y74D02*
X5219Y150D01*
Y302D01*
X5240Y323D01*
X5130Y1643D02*
X5289D01*
X5290Y902D02*
Y1644D01*
X5285Y898D02*
X5290Y902D01*
X5285Y741D02*
Y825D01*
X5241Y697D02*
X5285Y741D01*
X5063Y653D02*
Y743D01*
X5018Y788D02*
Y848D01*
Y788D02*
X5063Y743D01*
Y523D02*
Y580D01*
Y393D02*
Y450D01*
Y294D02*
Y320D01*
X5019Y250D02*
X5063Y294D01*
X5241Y624D02*
X5243Y622D01*
Y558D02*
Y622D01*
X5240Y482D02*
X5243Y485D01*
X5240Y396D02*
Y482D01*
X5015Y74D02*
X5071D01*
X4946Y233D02*
Y250D01*
X4856Y144D02*
X4946Y233D01*
X4807Y74D02*
X4942D01*
X4783Y97D02*
X4807Y74D01*
X4783Y97D02*
Y144D01*
X4525Y131D02*
X4538Y144D01*
X4783D01*
X4025Y231D02*
X4100Y305D01*
X4025Y131D02*
Y231D01*
X4441Y310D02*
X4539D01*
X4610Y340D02*
X4638Y312D01*
X4431Y340D02*
X4610D01*
X4410Y319D02*
X4431Y340D01*
X4422Y291D02*
X4441Y310D01*
X4538Y370D02*
Y651D01*
X4345Y291D02*
X4422D01*
X4331Y305D02*
X4345Y291D01*
X4326Y349D02*
X4357Y319D01*
X4410D01*
X4246Y349D02*
X4326D01*
X4472Y717D02*
X4538Y651D01*
X4350Y656D02*
X4411Y717D01*
X4472D01*
X800Y293D02*
X854Y239D01*
X885D01*
X838Y401D02*
X1001D01*
X838D02*
X913Y326D01*
X923D01*
X1228Y305D02*
Y718D01*
X1127Y204D02*
X1228Y305D01*
X1022Y204D02*
X1056D01*
X1025Y173D02*
X1056Y204D01*
X1025Y131D02*
Y173D01*
X2517Y1071D02*
X2547Y1041D01*
X2627D01*
X2577Y80D02*
X2856D01*
X2525Y131D02*
X2577Y80D01*
X2856D02*
X2877Y101D01*
X3716Y1648D02*
X3718D01*
X3684D02*
X3716D01*
X3684Y1648D02*
X3684Y1648D01*
X3695Y1588D02*
X3736D01*
X3754Y1605D01*
Y1648D01*
X3460Y1488D02*
X3483D01*
X3383Y1410D02*
X3460Y1488D01*
X3383Y1407D02*
Y1410D01*
X3475Y1430D02*
X3483Y1438D01*
X3446Y1430D02*
X3475D01*
X3438Y1538D02*
X3483D01*
X3383Y1482D02*
X3438Y1538D01*
X3457Y1653D02*
X3489D01*
X3419Y1622D02*
Y1653D01*
X3454Y1588D02*
X3478D01*
X3419Y1622D02*
X3454Y1588D01*
X3489Y1653D02*
X3489Y1653D01*
X1614Y1544D02*
X1647D01*
X1647Y1544D01*
X1594Y1604D02*
X1635D01*
X1577Y1586D02*
X1594Y1604D01*
X1577Y1544D02*
Y1586D01*
X1800Y1592D02*
X1842Y1551D01*
Y1539D02*
Y1551D01*
Y1539D02*
X1872D01*
X3106Y1555D02*
X3180Y1482D01*
X3131Y1407D02*
X3180D01*
X2995Y1543D02*
X3131Y1407D01*
X3270Y1653D02*
X3304Y1686D01*
X3338D01*
X3386D02*
X3419Y1653D01*
X3338Y1686D02*
X3386D01*
X3837Y1686D02*
X3911D01*
X3945Y1652D01*
X4094Y1724D02*
Y1759D01*
Y1724D02*
X4179D01*
X4094Y1759D02*
X4094Y1759D01*
X4176Y1652D02*
X4366D01*
X4091D02*
X4176D01*
X4091Y1652D02*
X4091Y1652D01*
X4018Y1652D02*
X4091D01*
X4049Y1570D02*
X4051Y1568D01*
X4018Y1570D02*
X4049D01*
X4366Y1652D02*
X4555Y1841D01*
X4605Y1692D02*
Y1732D01*
X4605Y1792D02*
X4767Y1954D01*
Y2142D01*
X4605Y1792D02*
X4918D01*
X4939Y1771D01*
X3879Y1396D02*
X3943D01*
X3944Y1397D01*
X3879Y1477D02*
X3944D01*
X3946Y1475D01*
X3754Y1648D02*
X3792Y1686D01*
X3837D01*
X3695Y1537D02*
X3732D01*
X3792Y1477D01*
X3806D01*
X3727Y1438D02*
X3741Y1423D01*
X3695Y1438D02*
X3727D01*
X3722Y1488D02*
X3806Y1404D01*
Y1396D02*
Y1404D01*
X3695Y1488D02*
X3722D01*
X3695Y1538D02*
X3695Y1537D01*
X1334Y1741D02*
X1397Y1678D01*
X1449D01*
X1532Y1544D02*
X1577D01*
X1509Y1522D02*
X1532Y1544D01*
X1033Y1394D02*
Y1712D01*
X1048Y1727D01*
X1033Y1394D02*
X1158Y1269D01*
X1546Y1654D02*
X1635D01*
X1522Y1678D02*
X1546Y1654D01*
X1570Y1704D02*
X1635D01*
X1522Y1752D02*
X1570Y1704D01*
X1239Y1504D02*
X1284Y1459D01*
X1348Y1836D02*
X1449Y1734D01*
X1332Y1836D02*
X1348D01*
X1048Y1727D02*
X1049Y1728D01*
X2776Y1829D02*
X2878D01*
X2460Y1671D02*
X2691D01*
X2750Y1803D02*
X2776Y1829D01*
X2750Y1729D02*
Y1803D01*
X2691Y1671D02*
X2750Y1729D01*
X2459Y1672D02*
X2460Y1671D01*
X2248Y1817D02*
X2426D01*
X2458Y1785D02*
X2659D01*
X2426Y1817D02*
X2458Y1785D01*
X2486Y1627D02*
X2606D01*
X2878Y1829D02*
X2925Y1781D01*
X1998Y1492D02*
X1999Y1491D01*
X2029D01*
X1912Y1544D02*
X2047D01*
X2099Y1492D01*
Y1491D02*
Y1492D01*
Y1491D02*
X2157D01*
X2175Y1509D01*
X2329Y1627D02*
X2430D01*
X2245Y1712D02*
X2329Y1627D01*
X2125Y1712D02*
X2172D01*
X2053Y1639D02*
X2125Y1712D01*
X2136Y1817D02*
X2175D01*
X2053Y1734D02*
X2136Y1817D01*
X2485Y1627D02*
X2486Y1627D01*
X2430Y1627D02*
X2485D01*
X2430Y1627D02*
X2430Y1627D01*
X1189Y794D02*
Y1199D01*
X1002Y1386D02*
X1189Y1199D01*
X974Y1374D02*
Y1439D01*
X1170Y776D02*
X1189Y794D01*
X974Y1374D02*
X1149Y1199D01*
X367Y1622D02*
X502Y1757D01*
X715Y1650D02*
Y1697D01*
X502Y1757D02*
X714D01*
X714Y1757D01*
X1145Y708D02*
X1251Y814D01*
X1154Y792D02*
X1170Y776D01*
X1145Y629D02*
Y708D01*
X1073Y792D02*
X1154D01*
X526Y1064D02*
X562D01*
X494Y1095D02*
X526Y1064D01*
X520Y1251D02*
X564D01*
X518Y1249D02*
X520Y1251D01*
X564Y1251D02*
X634D01*
X564Y1251D02*
X564Y1251D01*
X494Y1095D02*
X551Y1152D01*
Y1221D01*
X424Y1365D02*
X506D01*
X551Y1320D01*
Y1281D02*
Y1320D01*
X634Y1251D02*
X636Y1249D01*
X340Y1288D02*
X347D01*
X424Y1365D01*
X184Y1398D02*
X538D01*
X587Y1349D01*
X423Y1433D02*
Y1479D01*
X369Y1533D02*
X423Y1479D01*
X369Y1533D02*
Y1535D01*
X587Y1349D02*
X636D01*
X672Y1727D02*
X825D01*
X851Y1701D01*
X713Y1649D02*
X715Y1650D01*
X596Y1399D02*
X636D01*
X564Y1430D02*
X596Y1399D01*
X564Y1430D02*
Y1495D01*
X636Y1691D02*
X672Y1727D01*
X636Y1499D02*
Y1691D01*
X448Y1496D02*
X449Y1495D01*
X494D01*
X367Y1537D02*
X369Y1535D01*
X367Y1537D02*
Y1622D01*
X257D02*
X297D01*
X1521Y127D02*
X1525Y131D01*
X377Y861D02*
X433D01*
X377Y787D02*
X434D01*
X370D02*
X377D01*
X368Y775D02*
Y787D01*
X377Y796D01*
Y861D01*
X267Y860D02*
X268Y861D01*
X267Y785D02*
X269Y787D01*
X297D01*
X268Y861D02*
X297D01*
X297Y787D02*
X297Y787D01*
X4592Y1762D02*
X4695D01*
X1145Y629D02*
X1146Y628D01*
Y545D02*
Y628D01*
Y545D02*
X1150Y541D01*
Y437D02*
Y541D01*
X1072Y629D02*
X1073Y630D01*
Y717D01*
X1073Y717D01*
Y792D01*
X992Y558D02*
X1000D01*
X926Y624D02*
X992Y558D01*
X913Y624D02*
X926D01*
X838D02*
Y651D01*
X859Y671D01*
X960D01*
X1000Y631D01*
X1002Y629D01*
X1072D01*
X1060Y558D02*
X1073Y545D01*
X1000Y558D02*
X1060D01*
X838Y508D02*
X875Y545D01*
X838Y473D02*
Y508D01*
X1001Y508D02*
X1001Y508D01*
Y473D02*
Y508D01*
X920Y509D02*
X920Y509D01*
X920Y474D02*
Y509D01*
X1000Y474D02*
X1001Y473D01*
X920Y474D02*
X1000D01*
X1071Y409D02*
X1095Y433D01*
X1071Y400D02*
Y409D01*
Y470D02*
Y474D01*
X1001Y401D02*
X1071Y470D01*
X968Y717D02*
X968Y717D01*
X1001D01*
X967Y793D02*
X968Y792D01*
X1003D01*
X517Y1249D02*
X518D01*
X407Y1138D02*
X518Y1249D01*
X477Y1288D02*
X517Y1249D01*
X407Y970D02*
Y1138D01*
X941Y1019D02*
X942Y1020D01*
X941Y968D02*
Y1019D01*
Y831D02*
X999Y889D01*
X1077D01*
X817Y1199D02*
X851D01*
X763Y1145D02*
X817Y1199D01*
X624Y991D02*
X678Y938D01*
X636Y1003D02*
Y1199D01*
X871Y976D02*
X872Y977D01*
X954Y1106D02*
Y1174D01*
X942Y1094D02*
X954Y1106D01*
X942Y1020D02*
Y1094D01*
X407Y970D02*
X439Y939D01*
X434Y787D02*
X437Y790D01*
X433Y861D02*
X437Y865D01*
X308Y715D02*
X368Y775D01*
X512Y1008D02*
X546D01*
X494Y1025D02*
X512Y1008D01*
X4870Y1582D02*
Y1742D01*
Y1582D02*
X4950Y1502D01*
X4870Y1742D02*
X4899Y1771D01*
X4939D01*
X624Y991D02*
X636Y1003D01*
X851Y1499D02*
Y1701D01*
X636Y1449D02*
Y1499D01*
X851Y1349D02*
X856Y1344D01*
X928D01*
X764Y1349D02*
X851D01*
X714Y1299D02*
X764Y1349D01*
X636Y1299D02*
X714D01*
X510Y790D02*
X546D01*
X509Y939D02*
Y980D01*
X510Y865D02*
X543D01*
X616Y493D02*
Y527D01*
X308Y715D02*
X316D01*
X396Y635D01*
X440D01*
X624Y880D02*
Y918D01*
X437Y937D02*
X439Y939D01*
X437Y865D02*
Y937D01*
X110Y1456D02*
X168Y1398D01*
X109Y1456D02*
X110Y1456D01*
X168Y1398D02*
X184D01*
X110Y1395D02*
Y1456D01*
X109Y1526D02*
X259D01*
X274Y1542D01*
X1149Y890D02*
X1150Y889D01*
X783Y1649D02*
X818D01*
X713Y1574D02*
Y1649D01*
X783Y1574D02*
X818D01*
X783Y1429D02*
Y1574D01*
X813Y1399D02*
X851D01*
X783Y1429D02*
X813Y1399D01*
X713Y1424D02*
Y1574D01*
X688Y1399D02*
X713Y1424D01*
X636Y1399D02*
X688D01*
X110Y1265D02*
Y1322D01*
X184Y1455D02*
X184Y1455D01*
X184Y1454D02*
X184Y1455D01*
Y1398D02*
Y1455D01*
X1643Y2013D02*
Y2051D01*
Y2013D02*
X1703Y1954D01*
X1843Y2010D02*
Y2051D01*
X1787Y1954D02*
X1843Y2010D01*
X1773Y1954D02*
X1787D01*
X2143Y1974D02*
Y2051D01*
X2126Y1957D02*
X2143Y1974D01*
X2043Y1970D02*
Y2051D01*
Y1970D02*
X2056Y1957D01*
X2128Y2066D02*
Y2286D01*
Y2066D02*
X2143Y2051D01*
X1703Y2111D02*
Y2286D01*
X1643Y2051D02*
X1703Y2111D01*
X1095Y2020D02*
X1161D01*
X1206Y2066D01*
X1199Y2106D02*
X1206Y2113D01*
X1111Y2106D02*
X1199D01*
X1095Y2091D02*
X1111Y2106D01*
X724Y2209D02*
Y2258D01*
X772Y2307D01*
X1235D01*
X1249Y2293D01*
Y2232D02*
Y2293D01*
X1217Y2201D02*
X1249Y2232D01*
X1186Y2201D02*
X1217D01*
X1152Y2166D02*
X1186Y2201D01*
X1101Y2166D02*
X1152D01*
X842Y2246D02*
X874D01*
X841Y2245D02*
X842Y2246D01*
X926Y2526D02*
X986D01*
X1046D01*
X1173Y2356D02*
X1218Y2401D01*
X1173Y2356D02*
X1221D01*
X1168Y2406D02*
X1173Y2401D01*
X1126Y2406D02*
X1168D01*
X1126Y2446D02*
X1173D01*
X1221Y2401D02*
Y2446D01*
X1173Y2401D02*
Y2446D01*
X1218Y2401D02*
X1221D01*
X1173Y2446D02*
X1221D01*
X1126Y2486D02*
X1156Y2516D01*
X1046Y2526D02*
X1101D01*
X1156D01*
X1173Y2446D02*
Y2486D01*
X1156Y2516D02*
Y2526D01*
X1126Y2486D02*
X1173D01*
X1010Y2020D02*
X1095D01*
X925D02*
X1010D01*
X839D02*
X925D01*
X780Y2037D02*
X797Y2020D01*
X821Y2246D02*
X831Y2255D01*
X2239Y2121D02*
X2286D01*
Y2051D02*
X2292Y2046D01*
X2666Y2104D02*
Y2149D01*
X2570Y2093D02*
X2581Y2104D01*
X2666D01*
X1396Y2059D02*
X1404Y2051D01*
X1396Y2129D02*
X1437D01*
X2476Y2093D02*
X2570D01*
X2338Y2121D02*
X2366Y2093D01*
X2286Y2121D02*
X2338D01*
X2292Y2046D02*
X2366D01*
X2143Y2051D02*
X2286D01*
X1404D02*
X1643D01*
X1011Y2486D02*
X1071D01*
X1011Y2395D02*
Y2486D01*
X977Y2361D02*
X1011Y2395D01*
X943Y2493D02*
X951Y2486D01*
X911Y2361D02*
Y2411D01*
Y2361D02*
X977D01*
X888Y2483D02*
X911Y2461D01*
X888Y2493D02*
X943D01*
X866Y2461D02*
X911D01*
X888Y2483D02*
Y2493D01*
X866Y2361D02*
X911D01*
X866Y2411D02*
X911D01*
X866D02*
Y2461D01*
Y2361D02*
Y2366D01*
X1051Y2136D02*
Y2186D01*
X971Y2136D02*
Y2186D01*
X1333Y2129D02*
X1396D01*
X1316Y2113D02*
X1333Y2129D01*
X1316Y2066D02*
X1390D01*
X1396Y2059D01*
X4675Y2417D02*
Y2457D01*
Y2417D02*
X4722D01*
X4675Y2372D02*
Y2417D01*
X4341Y1988D02*
Y1992D01*
Y1988D02*
X4377Y1952D01*
X4428D01*
X4480D01*
X4531D01*
X4582D02*
X4597Y1967D01*
Y1992D01*
X4552Y2107D02*
Y2157D01*
X4472Y2107D02*
Y2157D01*
X4552D01*
X4427Y2497D02*
X4487D01*
X4547D01*
X4602D01*
X4657D01*
X4512Y2366D02*
Y2457D01*
X4367Y2332D02*
X4412D01*
X4367D02*
Y2337D01*
X4657Y2487D02*
Y2497D01*
X4670Y2377D02*
X4675Y2372D01*
X4445Y2464D02*
X4452Y2457D01*
X4512D02*
X4572D01*
X4390Y2464D02*
X4445D01*
X4390Y2454D02*
Y2464D01*
Y2454D02*
X4412Y2432D01*
X4367D02*
X4412D01*
X4367Y2382D02*
Y2432D01*
Y2382D02*
X4412D01*
Y2332D02*
Y2382D01*
X4478Y2332D02*
X4512Y2366D01*
X4412Y2332D02*
X4478D01*
X4323Y2217D02*
X4332Y2226D01*
Y2262D01*
X4675Y2282D02*
X4722D01*
Y2327D01*
X4675D02*
X4722D01*
X4675D02*
X4720Y2372D01*
X4722D01*
Y2417D01*
X4627Y2377D02*
X4670D01*
X4627Y2417D02*
X4675D01*
X4627Y2457D02*
X4675D01*
X4627D02*
X4657Y2487D01*
X4834Y2142D02*
X4835Y2141D01*
X4767Y2142D02*
X4834D01*
X3182Y1995D02*
X3229D01*
X2606Y1627D02*
X2627Y1606D01*
X2377Y741D02*
X2442Y806D01*
X2592D01*
X2442Y1166D02*
X2442Y1166D01*
X2517D01*
X2587Y1236D01*
X2587Y761D02*
Y801D01*
X2592Y806D01*
X2627Y841D01*
X2542Y1506D02*
X2627D01*
X2412Y1375D02*
X2542Y1506D01*
X2412Y1076D02*
Y1375D01*
X2925Y131D02*
X2927Y132D01*
X3018D01*
X3028D01*
X2877Y168D02*
X3032Y322D01*
X2877Y101D02*
Y168D01*
X2863Y1696D02*
X2967Y1592D01*
Y1522D02*
Y1592D01*
X2783Y1696D02*
X2863D01*
X2995Y1543D02*
Y1621D01*
X2920Y1696D02*
X2995Y1621D01*
X2843Y1555D02*
X2937D01*
X2842Y1556D02*
X2843Y1555D01*
X2783Y1696D02*
Y1772D01*
X2796Y1785D01*
X2800Y1781D01*
X2852D01*
X2995Y1672D02*
X3015Y1653D01*
X2995Y1672D02*
Y1712D01*
X2925Y1781D02*
X2995Y1712D01*
X3015Y1653D02*
X3049D01*
X4031Y1987D02*
X4072D01*
X4848Y505D02*
Y554D01*
X4749Y1045D02*
X4798Y1093D01*
X4749Y534D02*
Y1045D01*
Y534D02*
X4778Y505D01*
X4679Y499D02*
X4772D01*
X4778Y505D01*
X4695Y691D02*
Y854D01*
X4634Y630D02*
X4695Y691D01*
X4634Y451D02*
Y630D01*
Y451D02*
X4658Y426D01*
X4679D01*
X4917Y673D02*
X4949Y704D01*
X4917Y457D02*
Y673D01*
X4773Y312D02*
X4917Y457D01*
X4711Y312D02*
X4773D01*
X4179Y1724D02*
Y1758D01*
X4688Y2142D02*
X4767D01*
X4100Y305D02*
X4331D01*
X4222Y429D02*
X4372D01*
X4375D02*
X4452D01*
X4375D02*
X4383Y420D01*
X4372Y431D02*
X4375Y429D01*
X4383Y349D02*
Y420D01*
X4267Y1033D02*
Y1108D01*
Y962D02*
Y1033D01*
Y888D02*
Y962D01*
Y888D02*
X4268Y887D01*
X4190Y471D02*
X4222Y504D01*
X1526Y563D02*
X1529Y566D01*
X1455Y563D02*
X1526D01*
X2035Y508D02*
X2080D01*
X2537Y261D02*
Y354D01*
X2437Y454D02*
X2537Y354D01*
X2563Y234D02*
X2597D01*
X2537Y261D02*
X2563Y234D01*
X2437Y454D02*
Y629D01*
X2456Y649D01*
X2577Y501D02*
X2597D01*
X2507Y571D02*
X2577Y501D01*
X2507Y446D02*
X2583Y369D01*
X2507Y446D02*
Y471D01*
X4939Y1642D02*
Y1701D01*
X4623Y1074D02*
X4625Y1075D01*
X4623Y995D02*
Y1074D01*
X4581Y995D02*
X4623D01*
X4581Y1075D02*
X4625D01*
X5045Y1285D02*
X5082D01*
X4835Y922D02*
X4873D01*
X4875Y997D02*
Y1042D01*
X4835Y847D02*
X4873D01*
X4945Y997D02*
X4946Y995D01*
Y922D02*
Y995D01*
X4685Y1222D02*
X4747Y1159D01*
X4685Y1222D02*
Y1272D01*
X4745Y1157D02*
X4747Y1159D01*
X4705Y1292D02*
X4742D01*
X4685Y1272D02*
X4705Y1292D01*
X4747Y1159D02*
X4798Y1109D01*
X4742Y1221D02*
X4880Y1083D01*
X4742Y1221D02*
Y1242D01*
X4830Y742D02*
X4870D01*
X4946Y847D02*
X4949Y844D01*
Y779D02*
Y844D01*
X4920Y1472D02*
X4985D01*
X4895Y1447D02*
X4920Y1472D01*
X4985D02*
X5015Y1502D01*
X4895Y1377D02*
Y1447D01*
X5015Y1502D02*
Y1618D01*
X4950Y1442D02*
X4975Y1417D01*
Y1285D02*
Y1417D01*
X5015Y1618D02*
X5040Y1643D01*
X4742Y1342D02*
X4860D01*
X4895Y1377D01*
X4465Y1392D02*
X4527D01*
X4350Y1384D02*
X4408Y1442D01*
X4527D01*
X4327Y1384D02*
X4350D01*
X4250Y1307D02*
X4327Y1384D01*
X4320Y1277D02*
X4355D01*
X4320Y1277D02*
X4320Y1277D01*
X4213Y658D02*
X4219Y651D01*
X4213Y658D02*
Y731D01*
Y1240D02*
X4250Y1277D01*
Y1307D01*
X4880Y1220D02*
Y1262D01*
Y1208D02*
Y1220D01*
X4695Y1762D02*
X4742Y1714D01*
X4530Y1699D02*
X4592Y1762D01*
X4530Y1544D02*
Y1699D01*
X4386Y617D02*
X4425Y656D01*
X4360Y617D02*
X4386D01*
X4318Y575D02*
X4360Y617D01*
X4288Y575D02*
X4318D01*
X4284Y571D02*
X4288Y575D01*
X4219Y571D02*
X4284D01*
X4285Y807D02*
X4315D01*
Y731D02*
X4345D01*
X4283D02*
X4315D01*
X4288Y648D02*
Y651D01*
X4346D02*
X4350Y656D01*
X4453Y503D02*
Y512D01*
X4388Y577D02*
X4453Y512D01*
X4372Y429D02*
Y431D01*
X4452Y429D02*
X4453Y430D01*
X4373Y502D02*
Y536D01*
X4372Y501D02*
X4373Y502D01*
X4287Y503D02*
Y536D01*
X4371Y503D02*
X4372Y501D01*
X4287Y503D02*
X4371D01*
X4286Y504D02*
X4287Y503D01*
X4222Y504D02*
X4286D01*
X4143Y466D02*
X4146Y469D01*
Y571D01*
Y651D01*
X4527Y1542D02*
X4530Y1544D01*
X4742Y1542D02*
Y1714D01*
Y1492D02*
Y1542D01*
X4805Y1442D02*
X4820Y1457D01*
X4742Y1442D02*
X4805D01*
X4815Y1392D02*
X4820Y1387D01*
X4742Y1392D02*
X4815D01*
X4660D02*
X4742D01*
X4610Y1342D02*
X4660Y1392D01*
X4527Y1342D02*
X4610D01*
X4469Y1099D02*
Y1162D01*
Y1024D02*
Y1099D01*
X4465Y1167D02*
X4469Y1162D01*
Y1024D02*
X4474Y1029D01*
X4535D01*
X4530Y887D02*
X4535Y892D01*
X4341Y887D02*
X4530D01*
X4500Y1342D02*
X4527D01*
X4465Y1307D02*
X4500Y1342D01*
X4605Y1617D02*
Y1692D01*
X4675D02*
X4710D01*
X4675Y1617D02*
X4710D01*
X4705Y1442D02*
X4742D01*
X4675Y1472D02*
X4705Y1442D01*
X4675Y1472D02*
Y1617D01*
X4527Y1442D02*
X4580D01*
X4605Y1467D01*
Y1617D01*
X5031Y1771D02*
X5040Y1780D01*
X4939Y1771D02*
X5031D01*
X5130Y1780D02*
X5150D01*
X5215Y1715D01*
X5289Y1643D02*
X5290Y1644D01*
X5290Y1644D01*
X5040Y1643D02*
X5130D01*
X5215Y1715D02*
X5216Y1717D01*
X5290D01*
X5290Y1587D02*
Y1644D01*
X4798Y979D02*
X4800Y977D01*
X4798Y979D02*
Y1020D01*
X4742Y1292D02*
X4818D01*
X5017Y847D02*
X5018Y848D01*
X4946Y847D02*
X5017D01*
X4946Y922D02*
X5018D01*
X4946Y847D02*
Y922D01*
X4945Y997D02*
X4975Y1027D01*
Y1086D01*
X4873Y847D02*
Y922D01*
X4870Y927D02*
Y992D01*
X4875Y997D01*
X4880Y1083D02*
X4883Y1086D01*
X4975D01*
X5091Y848D02*
X5128D01*
X5091Y922D02*
X5125D01*
X4937Y1239D02*
X4959D01*
X4975Y1223D01*
X4903Y1285D02*
X4975D01*
X4341Y2062D02*
X4392D01*
X4426D01*
X4722Y2282D02*
X4767Y2237D01*
Y2212D02*
Y2237D01*
X4688Y2212D02*
X4767D01*
X4511Y2062D02*
X4597D01*
X4426D02*
X4511D01*
X3198Y1653D02*
X3198Y1653D01*
X3134Y1653D02*
X3198D01*
X3253Y1407D02*
X3310D01*
X3253Y1482D02*
X3310D01*
X3338Y1576D02*
Y1606D01*
X3333Y1611D02*
X3338Y1606D01*
X3333Y1611D02*
X3338Y1616D01*
X3489Y1617D02*
X3513D01*
X1848Y1754D02*
X1907D01*
X1582D02*
X1635D01*
X2842Y731D02*
X2882D01*
X2997D02*
X3087Y641D01*
X2952Y731D02*
X2997D01*
X3087Y566D02*
Y641D01*
Y476D02*
Y566D01*
X2967D02*
X3087D01*
X3032Y421D02*
X3087Y476D01*
X2993Y656D02*
X3046Y603D01*
X2953Y656D02*
X2993D01*
X3046Y504D02*
Y529D01*
X2777Y234D02*
X3046Y504D01*
X3032Y322D02*
Y421D01*
X2880Y557D02*
X2882Y556D01*
X2880Y557D02*
Y656D01*
X2731Y521D02*
X2752Y501D01*
X2777D01*
X2827D01*
X2882Y556D01*
X2795Y369D02*
X2882Y456D01*
X2777Y369D02*
X2795D01*
X2822Y941D02*
X2841D01*
X2757D02*
X2822D01*
X2747Y931D02*
X2757Y941D01*
X2797Y891D02*
X2841D01*
X2775Y869D02*
X2797Y891D01*
X2775Y689D02*
Y869D01*
X2731Y646D02*
X2775Y689D01*
X2747Y701D02*
Y931D01*
X2703Y657D02*
X2747Y701D01*
X2703Y309D02*
Y657D01*
Y309D02*
X2777Y236D01*
Y234D02*
Y236D01*
X2731Y521D02*
Y646D01*
X2777Y571D02*
Y621D01*
X2725Y131D02*
X2777Y182D01*
Y234D01*
Y307D02*
Y369D01*
X2777Y442D02*
X2777Y442D01*
X2777Y442D02*
Y501D01*
X2675Y276D02*
Y671D01*
X2634Y234D02*
X2675Y276D01*
X2597Y234D02*
X2634D01*
X2597Y160D02*
Y234D01*
Y160D02*
X2625Y131D01*
X2527Y856D02*
X2612D01*
X2417D02*
X2457D01*
X2841Y1141D02*
X2887D01*
X2841Y1091D02*
Y1141D01*
Y1041D02*
Y1091D01*
X2627Y1141D02*
Y1176D01*
Y1091D02*
Y1141D01*
X2552Y1301D02*
Y1336D01*
X2657Y1236D02*
X2692D01*
X2797D02*
X2832D01*
X2647Y1556D02*
X2687Y1516D01*
X2627Y1556D02*
X2647D01*
X2687Y1496D02*
Y1516D01*
X2647Y1456D02*
X2687Y1496D01*
X2627Y1456D02*
X2647D01*
X2412Y1076D02*
X2417Y1071D01*
Y1004D02*
X2475Y946D01*
X2417Y1004D02*
Y1071D01*
X2548Y946D02*
X2603Y891D01*
X2627D01*
X2841Y991D02*
X2942D01*
X3042Y894D02*
Y1261D01*
X2912Y1391D02*
X3042Y1261D01*
X2988Y841D02*
X3042Y894D01*
X2612Y856D02*
X2627Y841D01*
X2597Y307D02*
Y369D01*
X2597Y501D02*
X2597Y501D01*
Y442D02*
Y501D01*
X2717Y941D02*
Y981D01*
X2667Y991D02*
X2717Y941D01*
X2627Y941D02*
X2642D01*
X2682Y901D01*
Y726D02*
Y901D01*
X2632Y676D02*
X2682Y726D01*
X2623Y676D02*
X2632D01*
X2642Y549D02*
X2644Y547D01*
X2642Y549D02*
Y657D01*
X2623Y676D02*
X2642Y657D01*
X2597Y501D02*
X2644Y547D01*
X2675Y671D02*
X2717Y713D01*
X2597Y501D02*
X2597D01*
X2817Y1306D02*
X2842D01*
X2767Y1031D02*
Y1256D01*
X2817Y1306D01*
X2717Y981D02*
X2767Y1031D01*
X2627Y991D02*
X2667D01*
X2772D02*
X2822Y941D01*
X2717Y713D02*
Y941D01*
X2597Y571D02*
Y611D01*
X2472Y766D02*
X2512D01*
X2517Y761D01*
X2503Y676D02*
X2550D01*
X2456Y723D02*
X2503Y676D01*
X2583Y369D02*
X2597D01*
X3049Y1653D02*
X3134D01*
X2248Y1509D02*
X2248Y1509D01*
X2587Y1236D02*
Y1265D01*
X2627Y1306D01*
X2898Y2070D02*
X2992D01*
X2887Y2082D02*
X2898Y2070D01*
X2802Y2082D02*
X2887D01*
X4603Y2137D02*
X4604Y2137D01*
X4262Y2050D02*
X4329D01*
X4341Y2062D01*
X2902Y1236D02*
Y1321D01*
X2867Y1356D02*
X2902Y1321D01*
X2842Y1356D02*
X2867D01*
X2797D02*
X2842D01*
X2747Y1406D02*
X2797Y1356D01*
X2627Y1406D02*
X2747D01*
X2552D02*
X2627D01*
X2552Y1406D02*
X2552Y1406D01*
X3644Y1608D02*
X3684Y1648D01*
X3644Y1458D02*
Y1608D01*
Y1458D02*
X3664Y1438D01*
X3695D01*
X3489Y1617D02*
Y1653D01*
X3513Y1617D02*
X3530Y1600D01*
Y1464D02*
Y1600D01*
X3504Y1438D02*
X3530Y1464D01*
X3483Y1438D02*
X3504D01*
X4329Y2003D02*
X4341Y1992D01*
X4262Y2003D02*
X4329D01*
X2802Y2012D02*
X2887D01*
X2898Y2023D01*
X2992D01*
X2802Y1967D02*
Y2012D01*
X2627Y1356D02*
X2675D01*
X2727Y1304D01*
Y1036D02*
Y1304D01*
X3182Y2065D02*
X3325D01*
X3176Y2070D02*
X3182Y2065D01*
X3102Y2070D02*
X3176D01*
X3325Y2065D02*
X3327Y2067D01*
Y2167D01*
Y2252D01*
X3130Y1995D02*
X3182D01*
X3102Y2023D02*
X3130Y1995D01*
X3397Y2093D02*
X3425Y2065D01*
X3397Y2093D02*
Y2167D01*
Y2252D01*
X3752Y2138D02*
Y2161D01*
Y2138D02*
X3825Y2065D01*
X3752Y2161D02*
Y2252D01*
X3825Y2065D02*
X4064D01*
X4072Y2057D01*
X4078Y2050D01*
X4152D01*
X3625Y2065D02*
X3682Y2122D01*
Y2161D01*
Y2252D01*
X4072Y1987D02*
X4135D01*
X4152Y2003D01*
X2912Y1391D02*
Y1476D01*
X2882Y1506D02*
X2912Y1476D01*
X2842Y1506D02*
X2882D01*
X1848Y1654D02*
X1965D01*
X1980Y1639D01*
X1970Y1704D02*
X1980Y1714D01*
X1848Y1704D02*
X1970D01*
X2842Y1406D02*
Y1456D01*
X2841Y841D02*
X2915D01*
X1800Y1592D02*
Y1728D01*
X1827Y1754D01*
X1848D01*
X1851Y1604D02*
X1912Y1544D01*
X1848Y1604D02*
X1851D01*
X1647Y1544D02*
X1687Y1584D01*
Y1734D01*
X1667Y1754D02*
X1687Y1734D01*
X1635Y1754D02*
X1667D01*
D44*
X3898Y526D02*
D03*
Y599D02*
D03*
X4529Y1112D02*
D03*
Y1185D02*
D03*
X4600Y1121D02*
D03*
Y1194D02*
D03*
X869Y1077D02*
D03*
Y1150D02*
D03*
X704Y1062D02*
D03*
Y1135D02*
D03*
X3668Y1252D02*
D03*
Y1179D02*
D03*
X3587Y1251D02*
D03*
Y1178D02*
D03*
X1560Y1207D02*
D03*
Y1134D02*
D03*
X5063Y523D02*
D03*
Y450D02*
D03*
X5243Y485D02*
D03*
Y558D02*
D03*
X5063Y393D02*
D03*
Y320D02*
D03*
X1961Y507D02*
D03*
Y580D02*
D03*
X558Y124D02*
D03*
Y197D02*
D03*
X453Y226D02*
D03*
Y299D02*
D03*
X386Y317D02*
D03*
Y390D02*
D03*
X385Y456D02*
D03*
Y529D02*
D03*
X308Y642D02*
D03*
Y715D02*
D03*
X139Y636D02*
D03*
Y563D02*
D03*
X211Y461D02*
D03*
Y388D02*
D03*
X210Y311D02*
D03*
Y238D02*
D03*
X289Y141D02*
D03*
Y68D02*
D03*
X2777Y307D02*
D03*
Y234D02*
D03*
X2597Y442D02*
D03*
Y369D02*
D03*
X2777Y442D02*
D03*
Y369D02*
D03*
X5285Y825D02*
D03*
Y898D02*
D03*
X5240Y396D02*
D03*
Y323D02*
D03*
X1000Y631D02*
D03*
Y558D02*
D03*
X4798Y1020D02*
D03*
Y1093D02*
D03*
X4679Y426D02*
D03*
Y499D02*
D03*
X5063Y580D02*
D03*
Y653D02*
D03*
X4287Y430D02*
D03*
Y503D02*
D03*
X4453Y430D02*
D03*
Y503D02*
D03*
X4695Y927D02*
D03*
Y854D02*
D03*
X4288Y575D02*
D03*
Y648D02*
D03*
X5290Y1644D02*
D03*
Y1717D02*
D03*
X5241Y624D02*
D03*
Y697D02*
D03*
X624Y918D02*
D03*
Y991D02*
D03*
X716Y349D02*
D03*
Y422D02*
D03*
X1001Y473D02*
D03*
Y401D02*
D03*
X838D02*
D03*
Y473D02*
D03*
X764Y840D02*
D03*
Y912D02*
D03*
X184Y1528D02*
D03*
Y1455D02*
D03*
X110Y1322D02*
D03*
Y1395D02*
D03*
X3734Y320D02*
D03*
Y393D02*
D03*
X3544Y436D02*
D03*
Y509D02*
D03*
X3629Y320D02*
D03*
Y393D02*
D03*
X3557Y812D02*
D03*
Y740D02*
D03*
X3466Y512D02*
D03*
Y585D02*
D03*
X1620Y793D02*
D03*
Y720D02*
D03*
X1797Y301D02*
D03*
Y374D02*
D03*
X1692Y301D02*
D03*
Y374D02*
D03*
X1607Y417D02*
D03*
Y490D02*
D03*
X1529Y493D02*
D03*
Y566D02*
D03*
X3816Y509D02*
D03*
Y436D02*
D03*
X3798Y740D02*
D03*
Y812D02*
D03*
X2597Y234D02*
D03*
Y307D02*
D03*
X1861Y720D02*
D03*
Y793D02*
D03*
X1879Y490D02*
D03*
Y417D02*
D03*
D45*
X3973Y771D02*
D03*
Y634D02*
D03*
X369Y1535D02*
D03*
Y1398D02*
D03*
X274Y1405D02*
D03*
Y1542D02*
D03*
X4535Y892D02*
D03*
Y1029D02*
D03*
X4975Y1223D02*
D03*
Y1086D02*
D03*
X4880Y1220D02*
D03*
Y1083D02*
D03*
X5130Y1643D02*
D03*
Y1780D02*
D03*
X5040D02*
D03*
Y1643D02*
D03*
X941Y968D02*
D03*
Y831D02*
D03*
X3430Y796D02*
D03*
Y659D02*
D03*
X2037Y755D02*
D03*
Y618D02*
D03*
X1493Y777D02*
D03*
Y640D02*
D03*
X3731Y532D02*
D03*
Y669D02*
D03*
X3631Y532D02*
D03*
Y669D02*
D03*
X1694Y513D02*
D03*
Y650D02*
D03*
X1794Y513D02*
D03*
Y650D02*
D03*
D46*
X1810Y1272D02*
D03*
Y1202D02*
D03*
X2552Y1336D02*
D03*
Y1406D02*
D03*
X2597Y571D02*
D03*
Y501D02*
D03*
X2777Y571D02*
D03*
Y501D02*
D03*
X2666Y2034D02*
D03*
Y2104D02*
D03*
X2581Y2034D02*
D03*
Y2104D02*
D03*
X4939Y1771D02*
D03*
Y1701D02*
D03*
X4820Y1457D02*
D03*
Y1387D02*
D03*
X4372Y431D02*
D03*
Y501D02*
D03*
X5215Y1715D02*
D03*
Y1645D02*
D03*
X494Y1025D02*
D03*
Y1095D02*
D03*
X928Y1414D02*
D03*
Y1344D02*
D03*
X616Y423D02*
D03*
Y493D02*
D03*
X920Y404D02*
D03*
Y474D02*
D03*
X109Y1456D02*
D03*
Y1526D02*
D03*
X3338Y1616D02*
D03*
Y1686D02*
D03*
X821Y2175D02*
D03*
Y2246D02*
D03*
X839Y2091D02*
D03*
Y2020D02*
D03*
X925Y2091D02*
D03*
Y2020D02*
D03*
X1010Y2091D02*
D03*
Y2020D02*
D03*
X1095Y2091D02*
D03*
Y2020D02*
D03*
X4767Y2142D02*
D03*
Y2212D02*
D03*
X3973Y597D02*
D03*
Y527D02*
D03*
X3919Y65D02*
D03*
Y135D02*
D03*
X3938Y1065D02*
D03*
Y1135D02*
D03*
X3632Y811D02*
D03*
Y741D02*
D03*
X3392Y512D02*
D03*
Y582D02*
D03*
X1694Y792D02*
D03*
Y722D02*
D03*
X1455Y493D02*
D03*
Y563D02*
D03*
X2035Y508D02*
D03*
Y578D02*
D03*
X4341Y2062D02*
D03*
Y1992D02*
D03*
X4426Y2062D02*
D03*
Y1992D02*
D03*
X4511Y2062D02*
D03*
Y1992D02*
D03*
X4597Y2062D02*
D03*
Y1992D02*
D03*
X3018Y202D02*
D03*
Y132D02*
D03*
X2286Y2121D02*
D03*
Y2051D02*
D03*
X1186Y2271D02*
D03*
Y2201D02*
D03*
X1396Y2129D02*
D03*
Y2059D02*
D03*
X4323Y2217D02*
D03*
Y2147D02*
D03*
X4688Y2212D02*
D03*
Y2142D02*
D03*
X3182Y2065D02*
D03*
Y1995D02*
D03*
X4072Y1987D02*
D03*
Y2057D02*
D03*
X2802Y2012D02*
D03*
Y2082D02*
D03*
X2887Y2012D02*
D03*
Y2082D02*
D03*
X2251Y1362D02*
D03*
Y1432D02*
D03*
X2326Y1505D02*
D03*
Y1434D02*
D03*
X1156Y1431D02*
D03*
Y1502D02*
D03*
X1228Y1431D02*
D03*
Y1502D02*
D03*
X3134Y1723D02*
D03*
Y1653D02*
D03*
X3049Y1723D02*
D03*
Y1653D02*
D03*
X4176Y1722D02*
D03*
Y1652D02*
D03*
X4091Y1722D02*
D03*
Y1652D02*
D03*
X3837Y1616D02*
D03*
Y1686D02*
D03*
X3724Y741D02*
D03*
Y811D02*
D03*
X1787Y722D02*
D03*
Y792D02*
D03*
D47*
X3920Y1218D02*
D03*
X3850D02*
D03*
X2657Y1236D02*
D03*
X2587D02*
D03*
X439Y939D02*
D03*
X509D02*
D03*
X2322Y441D02*
D03*
X2252D02*
D03*
X2322Y358D02*
D03*
X2252D02*
D03*
X2322Y262D02*
D03*
X2252D02*
D03*
X2517Y761D02*
D03*
X2587D02*
D03*
X2457Y856D02*
D03*
X2527D02*
D03*
X2882Y731D02*
D03*
X2952D02*
D03*
X1439Y1522D02*
D03*
X1509D02*
D03*
X1577Y1544D02*
D03*
X1647D02*
D03*
X1912Y1539D02*
D03*
X1842D02*
D03*
X2029Y1491D02*
D03*
X2099D02*
D03*
X1127Y204D02*
D03*
X1056D02*
D03*
X1073Y717D02*
D03*
X1003D02*
D03*
X1073Y792D02*
D03*
X1003D02*
D03*
X1076Y1035D02*
D03*
X1146D02*
D03*
X1076Y1110D02*
D03*
X1146D02*
D03*
X1076Y964D02*
D03*
X1146D02*
D03*
X1024Y1174D02*
D03*
X954D02*
D03*
X4283Y731D02*
D03*
X4213D02*
D03*
X4975Y1285D02*
D03*
X5045D02*
D03*
X4285Y807D02*
D03*
X4215D02*
D03*
X4778Y505D02*
D03*
X4848D02*
D03*
X4465Y1167D02*
D03*
X4395D02*
D03*
X4337Y962D02*
D03*
X4267D02*
D03*
X4337Y1108D02*
D03*
X4267D02*
D03*
X4337Y1033D02*
D03*
X4267D02*
D03*
X4875Y997D02*
D03*
X4945D02*
D03*
X4623Y1037D02*
D03*
X4694D02*
D03*
X4675Y1617D02*
D03*
X4605D02*
D03*
Y1692D02*
D03*
X4675D02*
D03*
X4320Y1277D02*
D03*
X4250D02*
D03*
X297Y1622D02*
D03*
X367D02*
D03*
X763Y987D02*
D03*
X833D02*
D03*
X713Y1574D02*
D03*
X783D02*
D03*
X713Y1649D02*
D03*
X783D02*
D03*
X564Y1495D02*
D03*
X494D02*
D03*
X724Y2209D02*
D03*
X653D02*
D03*
X3327Y2167D02*
D03*
X3397D02*
D03*
X3327Y2252D02*
D03*
X3397D02*
D03*
X3878Y883D02*
D03*
X3808D02*
D03*
X3879Y1023D02*
D03*
X3808D02*
D03*
X3879Y953D02*
D03*
X3808D02*
D03*
X3879Y1091D02*
D03*
X3808D02*
D03*
X1939Y1171D02*
D03*
X1869D02*
D03*
X1939Y886D02*
D03*
X1869D02*
D03*
X1939Y1099D02*
D03*
X1869D02*
D03*
X1939Y957D02*
D03*
X1869D02*
D03*
X1939Y1029D02*
D03*
X1869D02*
D03*
X2058Y2286D02*
D03*
X2128D02*
D03*
X2056Y1957D02*
D03*
X2126D02*
D03*
X1773Y1954D02*
D03*
X1703D02*
D03*
X1773Y2286D02*
D03*
X1703D02*
D03*
X3682Y2161D02*
D03*
X3752D02*
D03*
X3682Y2252D02*
D03*
X3752D02*
D03*
X3489Y1653D02*
D03*
X3419D02*
D03*
X3684Y1648D02*
D03*
X3754D02*
D03*
X2462Y358D02*
D03*
X2392D02*
D03*
X2462Y262D02*
D03*
X2392D02*
D03*
X2902Y1236D02*
D03*
X2832D02*
D03*
D48*
X1764Y1219D02*
D03*
Y1167D02*
D03*
X1679D02*
D03*
Y1193D02*
D03*
Y1219D02*
D03*
D49*
X1640Y1282D02*
D03*
X1713D02*
D03*
X4942Y74D02*
D03*
X5015D02*
D03*
X5071D02*
D03*
X5144D02*
D03*
X5019Y250D02*
D03*
X4946D02*
D03*
X4856Y144D02*
D03*
X4783D02*
D03*
X304Y787D02*
D03*
X377D02*
D03*
X415Y61D02*
D03*
X488D02*
D03*
X304Y861D02*
D03*
X377D02*
D03*
X2623Y676D02*
D03*
X2550D02*
D03*
X2988Y841D02*
D03*
X2915D02*
D03*
X2880Y656D02*
D03*
X2953D02*
D03*
X1449Y1752D02*
D03*
X1522D02*
D03*
X2053Y1734D02*
D03*
X1980D02*
D03*
X2248Y1817D02*
D03*
X2175D02*
D03*
X1072Y629D02*
D03*
X1145D02*
D03*
X1073Y545D02*
D03*
X1146D02*
D03*
X510Y790D02*
D03*
X437D02*
D03*
X510Y865D02*
D03*
X437D02*
D03*
X1150Y889D02*
D03*
X1077D02*
D03*
X4818Y1292D02*
D03*
X4891D02*
D03*
X4268Y887D02*
D03*
X4341D02*
D03*
X5091Y922D02*
D03*
X5018D02*
D03*
X4873D02*
D03*
X4946D02*
D03*
X5091Y848D02*
D03*
X5018D02*
D03*
X4873Y847D02*
D03*
X4946D02*
D03*
X4638Y312D02*
D03*
X4711D02*
D03*
X4146Y571D02*
D03*
X4219D02*
D03*
X4146Y651D02*
D03*
X4219D02*
D03*
X635Y1064D02*
D03*
X562D02*
D03*
X885Y239D02*
D03*
X958D02*
D03*
X3890Y449D02*
D03*
X3963D02*
D03*
X3477D02*
D03*
X3405D02*
D03*
X1540Y430D02*
D03*
X1468D02*
D03*
X1953Y430D02*
D03*
X2026D02*
D03*
X2175Y1509D02*
D03*
X2248D02*
D03*
X1284Y1459D02*
D03*
X1357D02*
D03*
X2174Y1621D02*
D03*
X2247D02*
D03*
X1299Y1591D02*
D03*
X1372D02*
D03*
X2172Y1712D02*
D03*
X2245D02*
D03*
X1334Y1741D02*
D03*
X1261D02*
D03*
X1332Y1836D02*
D03*
X1259D02*
D03*
X1980Y1639D02*
D03*
X2053D02*
D03*
X1522Y1678D02*
D03*
X1449D02*
D03*
X3270Y1653D02*
D03*
X3198D02*
D03*
X4018Y1652D02*
D03*
X3945D02*
D03*
X3946Y1475D02*
D03*
X4019D02*
D03*
X3944Y1397D02*
D03*
X4017D02*
D03*
X4018Y1570D02*
D03*
X3945D02*
D03*
X3383Y1482D02*
D03*
X3310D02*
D03*
X3806Y1477D02*
D03*
X3879D02*
D03*
X3806Y1396D02*
D03*
X3879D02*
D03*
X3253Y1407D02*
D03*
X3180D02*
D03*
X3263Y1568D02*
D03*
X3191D02*
D03*
X3253Y1482D02*
D03*
X3180D02*
D03*
X3383Y1407D02*
D03*
X3310D02*
D03*
X2852Y1781D02*
D03*
X2925D02*
D03*
X2548Y946D02*
D03*
X2475D02*
D03*
D50*
X3782Y1172D02*
D03*
X3731D02*
D03*
Y1257D02*
D03*
X3757D02*
D03*
X3782D02*
D03*
D51*
X1596Y328D02*
D03*
X1441D02*
D03*
X1891Y328D02*
D03*
X2046D02*
D03*
X3828Y347D02*
D03*
X3983D02*
D03*
X3378D02*
D03*
X3533D02*
D03*
D52*
X2377Y686D02*
D03*
X2456Y723D02*
D03*
Y649D02*
D03*
X2967Y566D02*
D03*
X3046Y603D02*
D03*
Y529D02*
D03*
X1150Y437D02*
D03*
X1071Y400D02*
D03*
Y474D02*
D03*
X519Y672D02*
D03*
X440Y635D02*
D03*
Y710D02*
D03*
X1021Y1057D02*
D03*
X942Y1020D02*
D03*
Y1094D02*
D03*
X4390Y1062D02*
D03*
X4469Y1099D02*
D03*
Y1024D02*
D03*
X4949Y704D02*
D03*
Y779D02*
D03*
X4870Y742D02*
D03*
X4143Y466D02*
D03*
X4222Y504D02*
D03*
Y429D02*
D03*
D53*
X1848Y1604D02*
D03*
Y1654D02*
D03*
Y1704D02*
D03*
Y1754D02*
D03*
X1635Y1604D02*
D03*
Y1654D02*
D03*
Y1704D02*
D03*
Y1754D02*
D03*
X3695Y1438D02*
D03*
Y1488D02*
D03*
Y1538D02*
D03*
Y1588D02*
D03*
X3483Y1438D02*
D03*
Y1488D02*
D03*
Y1538D02*
D03*
Y1588D02*
D03*
D54*
X2037Y84D02*
D03*
X2226D02*
D03*
D55*
X340Y1288D02*
D03*
X477D02*
D03*
X460Y1197D02*
D03*
X323D02*
D03*
X4246Y349D02*
D03*
X4383D02*
D03*
X923Y326D02*
D03*
X1060D02*
D03*
X2783Y1696D02*
D03*
X2920D02*
D03*
X2796Y1785D02*
D03*
X2659D02*
D03*
D56*
X4527Y1542D02*
D03*
Y1492D02*
D03*
Y1442D02*
D03*
Y1392D02*
D03*
Y1342D02*
D03*
Y1292D02*
D03*
Y1242D02*
D03*
X4742Y1542D02*
D03*
Y1492D02*
D03*
Y1442D02*
D03*
Y1392D02*
D03*
Y1342D02*
D03*
Y1292D02*
D03*
Y1242D02*
D03*
X851Y1199D02*
D03*
Y1249D02*
D03*
Y1299D02*
D03*
Y1349D02*
D03*
Y1399D02*
D03*
Y1449D02*
D03*
Y1499D02*
D03*
X636Y1199D02*
D03*
Y1249D02*
D03*
Y1299D02*
D03*
Y1349D02*
D03*
Y1399D02*
D03*
Y1449D02*
D03*
Y1499D02*
D03*
X2627Y1606D02*
D03*
Y1556D02*
D03*
Y1506D02*
D03*
Y1456D02*
D03*
Y1406D02*
D03*
Y1356D02*
D03*
Y1306D02*
D03*
X2842Y1606D02*
D03*
Y1556D02*
D03*
Y1506D02*
D03*
Y1456D02*
D03*
Y1406D02*
D03*
Y1356D02*
D03*
Y1306D02*
D03*
X2627Y1141D02*
D03*
Y1091D02*
D03*
Y1041D02*
D03*
Y991D02*
D03*
Y941D02*
D03*
Y891D02*
D03*
Y841D02*
D03*
X2841Y1141D02*
D03*
Y1091D02*
D03*
Y1041D02*
D03*
Y991D02*
D03*
Y941D02*
D03*
Y891D02*
D03*
Y841D02*
D03*
D57*
X4388Y577D02*
D03*
X4350Y656D02*
D03*
X4425D02*
D03*
X913Y624D02*
D03*
X838D02*
D03*
X875Y545D02*
D03*
D58*
X1316Y2113D02*
D03*
X1206D02*
D03*
Y2066D02*
D03*
X1316D02*
D03*
X2476Y2046D02*
D03*
X2366D02*
D03*
Y2093D02*
D03*
X2476D02*
D03*
X4152Y2050D02*
D03*
X4262D02*
D03*
Y2003D02*
D03*
X4152D02*
D03*
X2992Y2070D02*
D03*
X3102D02*
D03*
Y2023D02*
D03*
X2992D02*
D03*
D59*
X1982Y2286D02*
D03*
X1864D02*
D03*
X3473Y2252D02*
D03*
X3591D02*
D03*
D60*
X3817Y569D02*
D03*
Y678D02*
D03*
X3543Y569D02*
D03*
Y678D02*
D03*
X1606Y550D02*
D03*
Y658D02*
D03*
X1880Y550D02*
D03*
Y658D02*
D03*
D61*
X3601Y890D02*
D03*
X3651D02*
D03*
X3701D02*
D03*
X3751D02*
D03*
X3601Y1102D02*
D03*
X3651D02*
D03*
X3701D02*
D03*
X3751D02*
D03*
X1664Y871D02*
D03*
X1714D02*
D03*
X1764D02*
D03*
X1814D02*
D03*
X1664Y1083D02*
D03*
X1714D02*
D03*
X1764D02*
D03*
X1814D02*
D03*
D62*
X920Y2166D02*
D03*
X1011D02*
D03*
X1101D02*
D03*
X4422Y2137D02*
D03*
X4512D02*
D03*
X4603D02*
D03*
D63*
X1011Y2395D02*
D03*
X4512Y2366D02*
D03*
D64*
X3973Y597D02*
X3973Y598D01*
Y634D01*
X3971Y599D02*
X3973Y597D01*
X4679Y1969D02*
Y2009D01*
X4327Y1454D02*
X4330Y1456D01*
X4313Y1445D02*
X4330Y1462D01*
X4119Y1182D02*
Y1263D01*
X4301Y1445D01*
X4313D01*
X4330Y1462D02*
Y1566D01*
Y1456D02*
Y1462D01*
Y1566D02*
X4679Y1915D01*
Y1969D01*
X4708Y1998D01*
X4626Y2062D02*
X4679Y2009D01*
X4597Y2062D02*
X4626D01*
X3630Y812D02*
X3632Y811D01*
X3651Y831D02*
Y890D01*
X3651D02*
X3701D01*
X3701D01*
X3724Y811D02*
Y826D01*
X3701Y849D02*
X3724Y826D01*
X3701Y849D02*
Y890D01*
X3525Y143D02*
X3629Y246D01*
X3624Y251D02*
X3629Y246D01*
Y320D01*
X3596Y251D02*
X3624D01*
X3625Y131D02*
X3734Y240D01*
X3747Y253D01*
X3734Y240D02*
Y320D01*
X3747Y253D02*
X3767D01*
X3490Y436D02*
X3544D01*
X3477Y449D02*
X3490Y436D01*
X3477Y449D02*
Y500D01*
X3466Y512D02*
X3477Y500D01*
X3544Y509D02*
Y568D01*
X3543Y569D02*
X3544Y568D01*
X3557Y812D02*
X3630D01*
X3487Y740D02*
X3557D01*
X3430Y796D02*
X3487Y740D01*
X3877Y436D02*
X3890Y449D01*
X3816Y436D02*
X3877D01*
X3890Y449D02*
X3898Y457D01*
Y526D01*
Y599D02*
X3971D01*
X3816Y509D02*
X3817Y510D01*
Y569D01*
X3797Y811D02*
X3798Y812D01*
X3724Y811D02*
X3797D01*
X3533Y347D02*
X3602D01*
X3629Y320D01*
X3586Y436D02*
X3629Y393D01*
X3631Y395D01*
X3544Y436D02*
X3586D01*
X3631Y395D02*
Y532D01*
X3734Y320D02*
X3761Y347D01*
X3828D01*
X3731Y396D02*
X3734Y393D01*
X3778Y436D01*
X3731Y396D02*
Y532D01*
X3778Y436D02*
X3816D01*
X3392Y582D02*
Y621D01*
X3430Y659D01*
X3632Y811D02*
X3651Y831D01*
X1961Y580D02*
X2034D01*
X2040Y586D01*
X2037Y589D02*
Y618D01*
Y589D02*
X2040Y586D01*
X2003Y720D02*
X2037Y755D01*
X1861Y720D02*
X2003D01*
X1664Y871D02*
Y957D01*
X2281Y1582D02*
Y1610D01*
X1714Y871D02*
X1764D01*
X1692Y203D02*
Y301D01*
Y197D02*
Y203D01*
X1663Y231D02*
X1692Y203D01*
X1797D02*
X1823Y228D01*
X1725Y131D02*
X1797Y203D01*
Y301D01*
X1823Y228D02*
Y231D01*
X4413Y2147D02*
X4422Y2137D01*
X4323Y2147D02*
X4413D01*
X3156Y1568D02*
X3157Y1568D01*
X3191D01*
X3134Y1758D02*
X3134Y1758D01*
Y1723D02*
Y1758D01*
X3048Y1756D02*
X3049Y1755D01*
Y1723D02*
Y1755D01*
X2843Y1607D02*
X2888D01*
X2842Y1606D02*
X2843Y1607D01*
X2271Y1621D02*
X2281Y1610D01*
X2247Y1621D02*
X2271D01*
X2326Y1505D02*
Y1540D01*
X2251Y1327D02*
Y1362D01*
X3018Y202D02*
Y238D01*
X1797Y301D02*
X1824Y328D01*
X1891D01*
X1625Y131D02*
X1692Y197D01*
X1665Y328D02*
X1692Y301D01*
X1596Y328D02*
X1665D01*
X3146Y115D02*
Y146D01*
Y84D02*
Y115D01*
Y60D02*
Y84D01*
X3145Y147D02*
X3146Y146D01*
X3116Y31D02*
X3146Y60D01*
X2280Y31D02*
X3116D01*
X2226Y84D02*
X2280Y31D01*
X2251Y398D02*
Y441D01*
X2325Y131D02*
Y169D01*
X2252Y242D02*
X2325Y169D01*
X2252Y242D02*
Y262D01*
X2252Y441D02*
Y489D01*
X2305Y542D01*
Y1317D01*
X2251Y398D02*
X2252Y399D01*
X2563Y1704D02*
X2589Y1729D01*
X2677D01*
X2705Y1757D01*
Y1996D01*
X2666Y2034D02*
X2705Y1996D01*
X2666Y2034D02*
X2747D01*
X2794Y2082D01*
X2802D01*
X2560Y1574D02*
Y1594D01*
X2252Y358D02*
Y399D01*
X2362Y1376D02*
X2560Y1574D01*
X2459Y1533D02*
Y1594D01*
X2360Y1434D02*
X2459Y1533D01*
X2326Y1434D02*
X2360D01*
X1664Y957D02*
X1683Y975D01*
X1663Y1015D02*
X1664Y1016D01*
X2581Y2034D02*
X2666D01*
X2488D02*
X2581D01*
X2476Y2046D02*
X2488Y2034D01*
X2323Y1432D02*
X2324Y1433D01*
X2251Y1432D02*
X2323D01*
X2324Y1433D02*
X2326Y1434D01*
X2324Y1354D02*
Y1433D01*
Y1354D02*
X2379Y1299D01*
X2364Y1148D02*
X2379Y1163D01*
X2364Y893D02*
Y1148D01*
Y893D02*
X2377Y880D01*
X2379Y1163D02*
Y1299D01*
X2377Y686D02*
Y741D01*
Y880D01*
X2248Y1433D02*
Y1509D01*
X2462Y358D02*
Y382D01*
X2377Y466D02*
X2462Y382D01*
X2377Y466D02*
Y686D01*
X2462Y262D02*
Y358D01*
Y195D02*
Y262D01*
Y195D02*
X2525Y131D01*
X2252Y262D02*
Y358D01*
X3525Y131D02*
Y143D01*
X1664Y1016D02*
Y1083D01*
X1692Y374D02*
X1694Y376D01*
Y513D01*
X1794Y377D02*
X1797Y374D01*
X1794Y377D02*
Y513D01*
X1797Y374D02*
X1841Y417D01*
X1879D01*
X1649D02*
X1692Y374D01*
X1607Y417D02*
X1649D01*
X1455Y602D02*
X1493Y640D01*
X1455Y563D02*
Y602D01*
X1550Y720D02*
X1620D01*
X1493Y777D02*
X1550Y720D01*
X1553Y417D02*
X1607D01*
X1540Y430D02*
X1553Y417D01*
X1529Y493D02*
X1540Y481D01*
Y430D02*
Y481D01*
X1606Y550D02*
X1607Y549D01*
Y490D02*
Y549D01*
X1693Y793D02*
X1694Y792D01*
X1620Y793D02*
X1693D01*
X1694Y792D02*
X1714Y812D01*
Y871D01*
X1961Y438D02*
Y507D01*
X1953Y430D02*
X1961Y438D01*
X1940Y417D02*
X1953Y430D01*
X1879Y417D02*
X1940D01*
X1879Y490D02*
X1880Y491D01*
Y550D01*
X1860Y792D02*
X1861Y793D01*
X1787Y792D02*
X1860D01*
X1787D02*
Y807D01*
X1764Y830D02*
X1787Y807D01*
X1764Y830D02*
Y871D01*
D65*
X3771Y1287D02*
X3964D01*
X3782Y1261D02*
X3952D01*
X3782Y1257D02*
Y1261D01*
X3587Y1178D02*
X3651Y1113D01*
Y1102D02*
Y1113D01*
X3701Y1102D02*
Y1142D01*
X3731Y1172D01*
X3668Y1179D02*
X3724D01*
X3731Y1172D01*
Y1257D02*
Y1287D01*
X3732Y1288D01*
X3757Y1257D02*
X3761Y1261D01*
X3587Y1251D02*
Y1277D01*
X3761Y1261D02*
Y1278D01*
X3762Y1295D02*
X3765Y1292D01*
X3587Y1277D02*
X3613Y1303D01*
X3761Y1278D02*
X3769Y1287D01*
X3771D01*
X3765Y1292D02*
X3771Y1287D01*
X3964D02*
X4017Y1340D01*
X3700Y1220D02*
X3767D01*
X3782Y1236D01*
X3668Y1252D02*
X3700Y1220D01*
X4017Y1195D02*
X4018D01*
X4067Y1146D01*
X3782Y1236D02*
Y1257D01*
X3952Y1261D02*
X4017Y1195D01*
X3952Y1261D02*
X3974D01*
X4049Y1336D01*
X4084Y1128D02*
Y1129D01*
X4086Y397D02*
Y839D01*
X4067Y1146D02*
X4067D01*
X4084Y1129D01*
X4086Y397D02*
X4133Y349D01*
X4246D01*
X4084Y1128D02*
X4138Y1075D01*
X4086Y839D02*
X4138Y891D01*
Y1075D01*
X1764Y1219D02*
X1780Y1202D01*
X1810D01*
X1764Y1219D02*
Y1310D01*
X735Y349D02*
X844D01*
X4049Y1336D02*
Y1472D01*
X4017Y1340D02*
Y1389D01*
X4046Y1475D02*
X4049Y1472D01*
X1302Y1361D02*
X1615D01*
X1284Y1379D02*
X1302Y1361D01*
X1284Y1379D02*
Y1459D01*
X1284Y811D02*
Y1239D01*
X1228Y1431D02*
Y1463D01*
X1156Y1431D02*
Y1462D01*
X1725Y1349D02*
X1764Y1310D01*
X1725Y1349D02*
Y1350D01*
X1710Y1365D02*
X1725Y1350D01*
X1620Y1365D02*
X1710D01*
X1615Y1361D02*
X1620Y1365D01*
X1060Y326D02*
X1149D01*
X1204Y381D01*
Y706D01*
X1202Y707D02*
Y730D01*
X1284Y811D01*
X1202Y707D02*
X1204Y706D01*
X1640Y1258D02*
X1679Y1219D01*
X1640Y1258D02*
Y1282D01*
X1560Y1207D02*
X1574Y1193D01*
X1627D01*
X1627Y1193D01*
X1679D01*
X1679Y1193D01*
X1638Y1167D02*
X1679D01*
X1714Y1083D02*
Y1119D01*
X1700Y1134D02*
X1714Y1119D01*
X1560Y1134D02*
X1700D01*
X1737Y1167D02*
X1764D01*
X1724Y1180D02*
X1737Y1167D01*
X1724Y1180D02*
Y1274D01*
X1707Y1291D02*
X1724Y1274D01*
X1764Y1084D02*
X1764Y1083D01*
X1764Y1084D02*
Y1167D01*
X3613Y1303D02*
X3711D01*
X3722Y1314D01*
X3743D02*
X3762Y1295D01*
X3722Y1314D02*
X3743D01*
X4017Y1389D02*
Y1397D01*
X4019Y1475D02*
X4046D01*
X844Y349D02*
X924Y269D01*
X716Y349D02*
X735D01*
X924Y122D02*
Y269D01*
X958Y274D02*
X1010Y326D01*
X958Y239D02*
Y274D01*
X1010Y326D02*
X1060D01*
X924Y122D02*
X974Y72D01*
X1166D01*
X1225Y131D01*
D66*
X3058Y391D02*
Y392D01*
X3113Y447D01*
Y652D01*
X2989Y776D02*
X3113Y652D01*
X2972Y776D02*
X2989D01*
X2953Y794D02*
X2972Y776D01*
X2953Y794D02*
Y875D01*
X2983Y904D01*
X2987D01*
Y971D01*
X2987Y972D01*
Y1201D01*
X2952Y1236D02*
X2987Y1201D01*
X2902Y1236D02*
X2952D01*
D67*
X3058Y391D02*
X3062D01*
X4162Y268D02*
X4431D01*
X4125Y231D02*
X4162Y268D01*
X4436Y272D02*
X4584D01*
X4431Y268D02*
X4436Y272D01*
X4670Y271D02*
X4679Y280D01*
X4585Y271D02*
X4670D01*
X4584Y272D02*
X4585Y271D01*
X4125Y131D02*
Y231D01*
X4679Y345D02*
Y426D01*
X4679Y345D02*
X4679Y345D01*
X4679Y280D02*
Y345D01*
D68*
X2037Y84D02*
X2037Y84D01*
X1960Y84D02*
X2037D01*
D69*
X5374Y131D02*
D03*
X4225D02*
D03*
X1025D02*
D03*
X3425D02*
D03*
X3625D02*
D03*
X3725D02*
D03*
X4025D02*
D03*
X1525D02*
D03*
X1625D02*
D03*
X1725D02*
D03*
X1825D02*
D03*
X4525D02*
D03*
X4125D02*
D03*
X3525D02*
D03*
X2925D02*
D03*
X2825D02*
D03*
X2725D02*
D03*
X2625D02*
D03*
X2525D02*
D03*
X2425D02*
D03*
X2325D02*
D03*
X1225D02*
D03*
X1125D02*
D03*
X725D02*
D03*
X56D02*
D03*
X1960Y84D02*
D03*
X3325Y2065D02*
D03*
X3425D02*
D03*
X3625D02*
D03*
X3825D02*
D03*
X2143Y2051D02*
D03*
X2043D02*
D03*
X1843D02*
D03*
X1643D02*
D03*
D70*
X2882Y556D02*
D03*
X2942Y991D02*
D03*
X2507Y571D02*
D03*
X2517Y1071D02*
D03*
D71*
X2882Y456D02*
D03*
X2507Y471D02*
D03*
D72*
X807Y1969D02*
D03*
X601Y1966D02*
D03*
X4708Y1998D02*
D03*
X4711Y2078D02*
D03*
X701Y1965D02*
D03*
X4835Y2141D02*
D03*
X1932Y809D02*
D03*
X2015Y884D02*
D03*
X1823Y231D02*
D03*
X1935Y230D02*
D03*
X1663Y231D02*
D03*
X1541Y229D02*
D03*
X3401Y243D02*
D03*
X3596Y251D02*
D03*
X3953Y252D02*
D03*
X3767Y253D02*
D03*
X3989Y875D02*
D03*
X3876Y812D02*
D03*
D73*
X3042Y991D02*
D03*
X2417Y1071D02*
D03*
D74*
X2886Y1965D02*
D03*
X3679Y955D02*
D03*
X3949Y1218D02*
D03*
X3915Y989D02*
D03*
Y951D02*
D03*
Y914D02*
D03*
Y876D02*
D03*
X3939Y1027D02*
D03*
X3640Y955D02*
D03*
X3561D02*
D03*
X3679Y1034D02*
D03*
X3659Y994D02*
D03*
X3701D02*
D03*
X3601Y954D02*
D03*
X3600Y1034D02*
D03*
X3620Y994D02*
D03*
X3561Y1034D02*
D03*
X3580Y994D02*
D03*
X3640Y1034D02*
D03*
X4055Y1117D02*
D03*
X4119Y1182D02*
D03*
X4330Y1452D02*
D03*
X4395Y1387D02*
D03*
X4011Y1165D02*
D03*
X4068Y1222D02*
D03*
X3732Y1288D02*
D03*
X4000Y1249D02*
D03*
X3964Y1287D02*
D03*
X4017Y527D02*
D03*
X1970Y1028D02*
D03*
Y876D02*
D03*
Y914D02*
D03*
Y952D02*
D03*
Y990D02*
D03*
Y1065D02*
D03*
Y1103D02*
D03*
Y1141D02*
D03*
Y1179D02*
D03*
X1806Y1240D02*
D03*
X2281Y1582D02*
D03*
X3002Y391D02*
D03*
X3062D02*
D03*
X556Y672D02*
D03*
X2284Y2152D02*
D03*
X1398Y2160D02*
D03*
X360Y1197D02*
D03*
X1285Y1299D02*
D03*
X1284Y1239D02*
D03*
X3967Y64D02*
D03*
X593Y2209D02*
D03*
X625Y2209D02*
D03*
X4347Y806D02*
D03*
X894Y1299D02*
D03*
X704Y1031D02*
D03*
X872Y1008D02*
D03*
X4594Y1155D02*
D03*
X3156Y1568D02*
D03*
X3134Y1758D02*
D03*
X3048Y1756D02*
D03*
X2888Y1607D02*
D03*
X2281Y1610D02*
D03*
X2326Y1540D02*
D03*
X2251Y1327D02*
D03*
X1228Y1463D02*
D03*
X1156Y1462D02*
D03*
X1773Y1338D02*
D03*
X1699Y1340D02*
D03*
X1123Y1595D02*
D03*
X1122Y1708D02*
D03*
X1053Y1775D02*
D03*
X904Y1795D02*
D03*
X1000Y1698D02*
D03*
X1001Y1758D02*
D03*
X903Y1698D02*
D03*
X1638Y1167D02*
D03*
X3018Y238D02*
D03*
X4539Y310D02*
D03*
X4538Y370D02*
D03*
X1022Y204D02*
D03*
X3145Y147D02*
D03*
X3146Y84D02*
D03*
Y115D02*
D03*
X3716Y1648D02*
D03*
X3446Y1430D02*
D03*
X3457Y1653D02*
D03*
X1614Y1544D02*
D03*
X1872Y1539D02*
D03*
X3301Y1588D02*
D03*
X4051Y1568D02*
D03*
X4555Y1841D02*
D03*
X4605Y1732D02*
D03*
X4605Y1792D02*
D03*
X3891Y1590D02*
D03*
X3741Y1423D02*
D03*
X1232Y1601D02*
D03*
X1254Y1569D02*
D03*
Y1633D02*
D03*
X1002Y1593D02*
D03*
X2563Y1704D02*
D03*
X2560Y1594D02*
D03*
X1998Y1492D02*
D03*
X2114Y1603D02*
D03*
X2581Y2149D02*
D03*
X2305Y1317D02*
D03*
X2362Y1376D02*
D03*
X2459Y1672D02*
D03*
Y1594D02*
D03*
X715Y1697D02*
D03*
X714Y1757D02*
D03*
X1228Y718D02*
D03*
X1170Y776D02*
D03*
X551Y1221D02*
D03*
X551Y1281D02*
D03*
X424Y1365D02*
D03*
X423Y1433D02*
D03*
X1703Y1015D02*
D03*
X1643Y975D02*
D03*
X1624Y1015D02*
D03*
X1683Y975D02*
D03*
X1663Y1015D02*
D03*
X448Y1496D02*
D03*
X257Y1622D02*
D03*
X267Y860D02*
D03*
Y785D02*
D03*
X1001Y508D02*
D03*
X920Y509D02*
D03*
X1095Y433D02*
D03*
X968Y717D02*
D03*
X967Y793D02*
D03*
X872Y977D02*
D03*
X1036Y967D02*
D03*
Y1112D02*
D03*
Y1012D02*
D03*
X546Y1008D02*
D03*
X4950Y1502D02*
D03*
X546Y790D02*
D03*
X509Y980D02*
D03*
X543Y865D02*
D03*
X616Y527D02*
D03*
X624Y880D02*
D03*
X818Y1649D02*
D03*
Y1574D02*
D03*
X874Y2246D02*
D03*
X924D02*
D03*
X973D02*
D03*
X1023D02*
D03*
X1072D02*
D03*
X1123Y2269D02*
D03*
X926Y2526D02*
D03*
X986D02*
D03*
X1173Y2356D02*
D03*
X1221D02*
D03*
X1126Y2406D02*
D03*
X1173Y2401D02*
D03*
X1126Y2446D02*
D03*
X1173D02*
D03*
X1221Y2401D02*
D03*
Y2446D02*
D03*
X1126Y2486D02*
D03*
X1046Y2526D02*
D03*
X1101D02*
D03*
X1173Y2486D02*
D03*
X1156Y2526D02*
D03*
X1053Y2092D02*
D03*
X967Y2091D02*
D03*
X880D02*
D03*
X1815Y2259D02*
D03*
Y2337D02*
D03*
X2020Y2341D02*
D03*
X1815Y2298D02*
D03*
X2239Y2121D02*
D03*
X2666Y2149D02*
D03*
X1437Y2129D02*
D03*
X1071Y2486D02*
D03*
X1011D02*
D03*
X951D02*
D03*
X911Y2461D02*
D03*
Y2411D02*
D03*
Y2361D02*
D03*
X888Y2493D02*
D03*
X866Y2411D02*
D03*
Y2461D02*
D03*
Y2361D02*
D03*
X1051Y2186D02*
D03*
Y2136D02*
D03*
X971Y2186D02*
D03*
Y2136D02*
D03*
X2020Y2262D02*
D03*
Y2302D02*
D03*
X4582Y1952D02*
D03*
X4428D02*
D03*
X4480D02*
D03*
X4531D02*
D03*
X4472Y2157D02*
D03*
X4552D02*
D03*
X4427Y2497D02*
D03*
X4412Y2332D02*
D03*
Y2382D02*
D03*
X4367D02*
D03*
Y2432D02*
D03*
X4412D02*
D03*
X4390Y2464D02*
D03*
X4452Y2457D02*
D03*
X4367Y2332D02*
D03*
X4512Y2457D02*
D03*
X4572D02*
D03*
X3229Y1995D02*
D03*
X3640Y2240D02*
D03*
Y2201D02*
D03*
Y2161D02*
D03*
X3435Y2157D02*
D03*
Y2197D02*
D03*
Y2236D02*
D03*
X3640Y2280D02*
D03*
X3435Y2276D02*
D03*
X2379Y1163D02*
D03*
X2442Y1166D02*
D03*
X3025Y1555D02*
D03*
X2937Y1555D02*
D03*
X4031Y1987D02*
D03*
X2358Y261D02*
D03*
Y356D02*
D03*
Y404D02*
D03*
Y308D02*
D03*
X4848Y554D02*
D03*
X4179Y1758D02*
D03*
X4094Y1759D02*
D03*
X4190Y471D02*
D03*
X4035Y373D02*
D03*
X4008Y427D02*
D03*
X4006Y483D02*
D03*
X4036Y456D02*
D03*
X3356Y483D02*
D03*
X3354Y427D02*
D03*
X1664Y935D02*
D03*
X3345Y527D02*
D03*
X4036Y322D02*
D03*
X1408Y508D02*
D03*
X1419Y464D02*
D03*
X1417Y407D02*
D03*
X2098Y437D02*
D03*
X2097Y354D02*
D03*
X2099Y303D02*
D03*
X2071Y407D02*
D03*
X2069Y464D02*
D03*
X2080Y508D02*
D03*
X1764Y975D02*
D03*
X1721D02*
D03*
X1742Y1015D02*
D03*
X1624Y936D02*
D03*
X1742D02*
D03*
X1703D02*
D03*
X3892Y1545D02*
D03*
X4939Y1672D02*
D03*
Y1642D02*
D03*
X4581Y995D02*
D03*
Y1075D02*
D03*
X5082Y1285D02*
D03*
X4875Y1042D02*
D03*
X4835Y922D02*
D03*
Y847D02*
D03*
X4830Y742D02*
D03*
X4950Y1442D02*
D03*
X4465Y1392D02*
D03*
X4355Y1277D02*
D03*
X4315Y807D02*
D03*
X4345Y731D02*
D03*
X4315D02*
D03*
X4373Y536D02*
D03*
X4287Y536D02*
D03*
X4340Y1177D02*
D03*
X4385Y1107D02*
D03*
Y1007D02*
D03*
Y962D02*
D03*
X4710Y1692D02*
D03*
Y1617D02*
D03*
X4800Y977D02*
D03*
X5128Y848D02*
D03*
X5125Y922D02*
D03*
X4937Y1239D02*
D03*
X4552Y2107D02*
D03*
X4472D02*
D03*
X4722Y2417D02*
D03*
Y2372D02*
D03*
Y2327D02*
D03*
Y2282D02*
D03*
X4675D02*
D03*
Y2327D02*
D03*
Y2372D02*
D03*
Y2417D02*
D03*
X4627Y2377D02*
D03*
Y2417D02*
D03*
X4675Y2457D02*
D03*
X4627D02*
D03*
X4657Y2497D02*
D03*
X4602D02*
D03*
X4547D02*
D03*
X4487D02*
D03*
X4332Y2262D02*
D03*
X4377Y1952D02*
D03*
X3839Y1563D02*
D03*
X3337Y1568D02*
D03*
X3300Y1551D02*
D03*
X2117Y1649D02*
D03*
X2089Y1571D02*
D03*
X1907Y1754D02*
D03*
X1452Y1592D02*
D03*
X1418Y1569D02*
D03*
Y1614D02*
D03*
X1582Y1754D02*
D03*
X2842Y731D02*
D03*
X2777Y621D02*
D03*
X2417Y856D02*
D03*
X2887Y1141D02*
D03*
X2627Y1176D02*
D03*
X2552Y1301D02*
D03*
X2692Y1236D02*
D03*
X2797D02*
D03*
X2772Y991D02*
D03*
X2597Y611D02*
D03*
X2472Y766D02*
D03*
X2802Y1967D02*
D03*
X2727Y1036D02*
D03*
M02*
