G04*
G04 #@! TF.GenerationSoftware,Altium Limited,Altium Designer,18.0.12 (696)*
G04*
G04 Layer_Color=8388736*
%FSLAX23Y23*%
%MOIN*%
G70*
G01*
G75*
%ADD18R,0.063X0.045*%
%ADD19R,0.034X0.046*%
%ADD20R,0.063X0.043*%
%ADD21R,0.043X0.063*%
%ADD22R,0.039X0.024*%
%ADD23R,0.045X0.063*%
%ADD24R,0.024X0.039*%
%ADD25R,0.068X0.074*%
%ADD26R,0.043X0.039*%
%ADD27O,0.067X0.032*%
G04:AMPARAMS|DCode=28|XSize=79mil|YSize=158mil|CornerRadius=22mil|HoleSize=0mil|Usage=FLASHONLY|Rotation=0.000|XOffset=0mil|YOffset=0mil|HoleType=Round|Shape=RoundedRectangle|*
%AMROUNDEDRECTD28*
21,1,0.079,0.114,0,0,0.0*
21,1,0.035,0.158,0,0,0.0*
1,1,0.043,0.018,-0.057*
1,1,0.043,-0.018,-0.057*
1,1,0.043,-0.018,0.057*
1,1,0.043,0.018,0.057*
%
%ADD28ROUNDEDRECTD28*%
%ADD29R,0.046X0.034*%
%ADD30O,0.065X0.032*%
%ADD31R,0.039X0.043*%
G04:AMPARAMS|DCode=32|XSize=43mil|YSize=24mil|CornerRadius=8mil|HoleSize=0mil|Usage=FLASHONLY|Rotation=180.000|XOffset=0mil|YOffset=0mil|HoleType=Round|Shape=RoundedRectangle|*
%AMROUNDEDRECTD32*
21,1,0.043,0.008,0,0,180.0*
21,1,0.028,0.024,0,0,180.0*
1,1,0.016,-0.014,0.004*
1,1,0.016,0.014,0.004*
1,1,0.016,0.014,-0.004*
1,1,0.016,-0.014,-0.004*
%
%ADD32ROUNDEDRECTD32*%
%ADD33R,0.053X0.079*%
%ADD34R,0.077X0.057*%
%ADD35O,0.032X0.067*%
%ADD36R,0.045X0.093*%
%ADD37R,0.136X0.093*%
%ADD38C,0.068*%
%ADD39C,0.067*%
%ADD40R,0.067X0.067*%
%ADD41C,0.051*%
%ADD42R,0.067X0.067*%
D18*
X3898Y526D02*
D03*
Y599D02*
D03*
X4529Y1112D02*
D03*
Y1185D02*
D03*
X4600Y1121D02*
D03*
Y1194D02*
D03*
X869Y1077D02*
D03*
Y1150D02*
D03*
X704Y1062D02*
D03*
Y1135D02*
D03*
X3668Y1252D02*
D03*
Y1179D02*
D03*
X3587Y1251D02*
D03*
Y1178D02*
D03*
X1560Y1207D02*
D03*
Y1134D02*
D03*
X5063Y523D02*
D03*
Y450D02*
D03*
X5243Y485D02*
D03*
Y558D02*
D03*
X5063Y393D02*
D03*
Y320D02*
D03*
X1961Y507D02*
D03*
Y580D02*
D03*
X558Y124D02*
D03*
Y197D02*
D03*
X453Y226D02*
D03*
Y299D02*
D03*
X386Y317D02*
D03*
Y390D02*
D03*
X385Y456D02*
D03*
Y529D02*
D03*
X308Y642D02*
D03*
Y715D02*
D03*
X139Y636D02*
D03*
Y563D02*
D03*
X211Y461D02*
D03*
Y388D02*
D03*
X210Y311D02*
D03*
Y238D02*
D03*
X289Y141D02*
D03*
Y68D02*
D03*
X2777Y307D02*
D03*
Y234D02*
D03*
X2597Y442D02*
D03*
Y369D02*
D03*
X2777Y442D02*
D03*
Y369D02*
D03*
X5285Y825D02*
D03*
Y898D02*
D03*
X5240Y396D02*
D03*
Y323D02*
D03*
X1000Y631D02*
D03*
Y558D02*
D03*
X4798Y1020D02*
D03*
Y1093D02*
D03*
X4679Y426D02*
D03*
Y499D02*
D03*
X5063Y580D02*
D03*
Y653D02*
D03*
X4287Y430D02*
D03*
Y503D02*
D03*
X4453Y430D02*
D03*
Y503D02*
D03*
X4695Y927D02*
D03*
Y854D02*
D03*
X4288Y575D02*
D03*
Y648D02*
D03*
X5290Y1644D02*
D03*
Y1717D02*
D03*
X5241Y624D02*
D03*
Y697D02*
D03*
X624Y918D02*
D03*
Y991D02*
D03*
X716Y349D02*
D03*
Y422D02*
D03*
X1001Y473D02*
D03*
Y401D02*
D03*
X838D02*
D03*
Y473D02*
D03*
X764Y840D02*
D03*
Y912D02*
D03*
X184Y1528D02*
D03*
Y1455D02*
D03*
X110Y1322D02*
D03*
Y1395D02*
D03*
X3734Y320D02*
D03*
Y393D02*
D03*
X3544Y436D02*
D03*
Y509D02*
D03*
X3629Y320D02*
D03*
Y393D02*
D03*
X3557Y812D02*
D03*
Y740D02*
D03*
X3466Y512D02*
D03*
Y585D02*
D03*
X1620Y793D02*
D03*
Y720D02*
D03*
X1797Y301D02*
D03*
Y374D02*
D03*
X1692Y301D02*
D03*
Y374D02*
D03*
X1607Y417D02*
D03*
Y490D02*
D03*
X1529Y493D02*
D03*
Y566D02*
D03*
X3816Y509D02*
D03*
Y436D02*
D03*
X3798Y740D02*
D03*
Y812D02*
D03*
X2597Y234D02*
D03*
Y307D02*
D03*
X1861Y720D02*
D03*
Y793D02*
D03*
X1879Y490D02*
D03*
Y417D02*
D03*
D19*
X3973Y771D02*
D03*
Y634D02*
D03*
X369Y1535D02*
D03*
Y1398D02*
D03*
X274Y1405D02*
D03*
Y1542D02*
D03*
X4535Y892D02*
D03*
Y1029D02*
D03*
X4975Y1223D02*
D03*
Y1086D02*
D03*
X4880Y1220D02*
D03*
Y1083D02*
D03*
X5130Y1643D02*
D03*
Y1780D02*
D03*
X5040D02*
D03*
Y1643D02*
D03*
X941Y968D02*
D03*
Y831D02*
D03*
X3430Y796D02*
D03*
Y659D02*
D03*
X2037Y755D02*
D03*
Y618D02*
D03*
X1493Y777D02*
D03*
Y640D02*
D03*
X3731Y532D02*
D03*
Y669D02*
D03*
X3631Y532D02*
D03*
Y669D02*
D03*
X1694Y513D02*
D03*
Y650D02*
D03*
X1794Y513D02*
D03*
Y650D02*
D03*
D20*
X1810Y1272D02*
D03*
Y1202D02*
D03*
X2552Y1336D02*
D03*
Y1406D02*
D03*
X2597Y571D02*
D03*
Y501D02*
D03*
X2777Y571D02*
D03*
Y501D02*
D03*
X2666Y2034D02*
D03*
Y2104D02*
D03*
X2581Y2034D02*
D03*
Y2104D02*
D03*
X4939Y1771D02*
D03*
Y1701D02*
D03*
X4820Y1457D02*
D03*
Y1387D02*
D03*
X4372Y431D02*
D03*
Y501D02*
D03*
X5215Y1715D02*
D03*
Y1645D02*
D03*
X494Y1025D02*
D03*
Y1095D02*
D03*
X928Y1414D02*
D03*
Y1344D02*
D03*
X616Y423D02*
D03*
Y493D02*
D03*
X920Y404D02*
D03*
Y474D02*
D03*
X109Y1456D02*
D03*
Y1526D02*
D03*
X3338Y1616D02*
D03*
Y1686D02*
D03*
X821Y2175D02*
D03*
Y2246D02*
D03*
X839Y2091D02*
D03*
Y2020D02*
D03*
X925Y2091D02*
D03*
Y2020D02*
D03*
X1010Y2091D02*
D03*
Y2020D02*
D03*
X1095Y2091D02*
D03*
Y2020D02*
D03*
X4767Y2142D02*
D03*
Y2212D02*
D03*
X3973Y597D02*
D03*
Y527D02*
D03*
X3919Y65D02*
D03*
Y135D02*
D03*
X3938Y1065D02*
D03*
Y1135D02*
D03*
X3632Y811D02*
D03*
Y741D02*
D03*
X3392Y512D02*
D03*
Y582D02*
D03*
X1694Y792D02*
D03*
Y722D02*
D03*
X1455Y493D02*
D03*
Y563D02*
D03*
X2035Y508D02*
D03*
Y578D02*
D03*
X4341Y2062D02*
D03*
Y1992D02*
D03*
X4426Y2062D02*
D03*
Y1992D02*
D03*
X4511Y2062D02*
D03*
Y1992D02*
D03*
X4597Y2062D02*
D03*
Y1992D02*
D03*
X3018Y202D02*
D03*
Y132D02*
D03*
X2286Y2121D02*
D03*
Y2051D02*
D03*
X1186Y2271D02*
D03*
Y2201D02*
D03*
X1396Y2129D02*
D03*
Y2059D02*
D03*
X4323Y2217D02*
D03*
Y2147D02*
D03*
X4688Y2212D02*
D03*
Y2142D02*
D03*
X3182Y2065D02*
D03*
Y1995D02*
D03*
X4072Y1987D02*
D03*
Y2057D02*
D03*
X2802Y2012D02*
D03*
Y2082D02*
D03*
X2887Y2012D02*
D03*
Y2082D02*
D03*
X2251Y1362D02*
D03*
Y1432D02*
D03*
X2326Y1505D02*
D03*
Y1434D02*
D03*
X1156Y1431D02*
D03*
Y1502D02*
D03*
X1228Y1431D02*
D03*
Y1502D02*
D03*
X3134Y1723D02*
D03*
Y1653D02*
D03*
X3049Y1723D02*
D03*
Y1653D02*
D03*
X4176Y1722D02*
D03*
Y1652D02*
D03*
X4091Y1722D02*
D03*
Y1652D02*
D03*
X3837Y1616D02*
D03*
Y1686D02*
D03*
X3724Y741D02*
D03*
Y811D02*
D03*
X1787Y722D02*
D03*
Y792D02*
D03*
D21*
X3920Y1218D02*
D03*
X3850D02*
D03*
X2657Y1236D02*
D03*
X2587D02*
D03*
X439Y939D02*
D03*
X509D02*
D03*
X2322Y441D02*
D03*
X2252D02*
D03*
X2322Y358D02*
D03*
X2252D02*
D03*
X2322Y262D02*
D03*
X2252D02*
D03*
X2517Y761D02*
D03*
X2587D02*
D03*
X2457Y856D02*
D03*
X2527D02*
D03*
X2882Y731D02*
D03*
X2952D02*
D03*
X1439Y1522D02*
D03*
X1509D02*
D03*
X1577Y1544D02*
D03*
X1647D02*
D03*
X1912Y1539D02*
D03*
X1842D02*
D03*
X2029Y1491D02*
D03*
X2099D02*
D03*
X1127Y204D02*
D03*
X1056D02*
D03*
X1073Y717D02*
D03*
X1003D02*
D03*
X1073Y792D02*
D03*
X1003D02*
D03*
X1076Y1035D02*
D03*
X1146D02*
D03*
X1076Y1110D02*
D03*
X1146D02*
D03*
X1076Y964D02*
D03*
X1146D02*
D03*
X1024Y1174D02*
D03*
X954D02*
D03*
X4283Y731D02*
D03*
X4213D02*
D03*
X4975Y1285D02*
D03*
X5045D02*
D03*
X4285Y807D02*
D03*
X4215D02*
D03*
X4778Y505D02*
D03*
X4848D02*
D03*
X4465Y1167D02*
D03*
X4395D02*
D03*
X4337Y962D02*
D03*
X4267D02*
D03*
X4337Y1108D02*
D03*
X4267D02*
D03*
X4337Y1033D02*
D03*
X4267D02*
D03*
X4875Y997D02*
D03*
X4945D02*
D03*
X4623Y1037D02*
D03*
X4694D02*
D03*
X4675Y1617D02*
D03*
X4605D02*
D03*
Y1692D02*
D03*
X4675D02*
D03*
X4320Y1277D02*
D03*
X4250D02*
D03*
X297Y1622D02*
D03*
X367D02*
D03*
X763Y987D02*
D03*
X833D02*
D03*
X713Y1574D02*
D03*
X783D02*
D03*
X713Y1649D02*
D03*
X783D02*
D03*
X564Y1495D02*
D03*
X494D02*
D03*
X724Y2209D02*
D03*
X653D02*
D03*
X3327Y2167D02*
D03*
X3397D02*
D03*
X3327Y2252D02*
D03*
X3397D02*
D03*
X3878Y883D02*
D03*
X3808D02*
D03*
X3879Y1023D02*
D03*
X3808D02*
D03*
X3879Y953D02*
D03*
X3808D02*
D03*
X3879Y1091D02*
D03*
X3808D02*
D03*
X1939Y1171D02*
D03*
X1869D02*
D03*
X1939Y886D02*
D03*
X1869D02*
D03*
X1939Y1099D02*
D03*
X1869D02*
D03*
X1939Y957D02*
D03*
X1869D02*
D03*
X1939Y1029D02*
D03*
X1869D02*
D03*
X2058Y2286D02*
D03*
X2128D02*
D03*
X2056Y1957D02*
D03*
X2126D02*
D03*
X1773Y1954D02*
D03*
X1703D02*
D03*
X1773Y2286D02*
D03*
X1703D02*
D03*
X3682Y2161D02*
D03*
X3752D02*
D03*
X3682Y2252D02*
D03*
X3752D02*
D03*
X3489Y1653D02*
D03*
X3419D02*
D03*
X3684Y1648D02*
D03*
X3754D02*
D03*
X2462Y358D02*
D03*
X2392D02*
D03*
X2462Y262D02*
D03*
X2392D02*
D03*
X2902Y1236D02*
D03*
X2832D02*
D03*
D22*
X1764Y1219D02*
D03*
Y1167D02*
D03*
X1679D02*
D03*
Y1193D02*
D03*
Y1219D02*
D03*
D23*
X1640Y1282D02*
D03*
X1713D02*
D03*
X4942Y74D02*
D03*
X5015D02*
D03*
X5071D02*
D03*
X5144D02*
D03*
X5019Y250D02*
D03*
X4946D02*
D03*
X4856Y144D02*
D03*
X4783D02*
D03*
X304Y787D02*
D03*
X377D02*
D03*
X415Y61D02*
D03*
X488D02*
D03*
X304Y861D02*
D03*
X377D02*
D03*
X2623Y676D02*
D03*
X2550D02*
D03*
X2988Y841D02*
D03*
X2915D02*
D03*
X2880Y656D02*
D03*
X2953D02*
D03*
X1449Y1752D02*
D03*
X1522D02*
D03*
X2053Y1734D02*
D03*
X1980D02*
D03*
X2248Y1817D02*
D03*
X2175D02*
D03*
X1072Y629D02*
D03*
X1145D02*
D03*
X1073Y545D02*
D03*
X1146D02*
D03*
X510Y790D02*
D03*
X437D02*
D03*
X510Y865D02*
D03*
X437D02*
D03*
X1150Y889D02*
D03*
X1077D02*
D03*
X4818Y1292D02*
D03*
X4891D02*
D03*
X4268Y887D02*
D03*
X4341D02*
D03*
X5091Y922D02*
D03*
X5018D02*
D03*
X4873D02*
D03*
X4946D02*
D03*
X5091Y848D02*
D03*
X5018D02*
D03*
X4873Y847D02*
D03*
X4946D02*
D03*
X4638Y312D02*
D03*
X4711D02*
D03*
X4146Y571D02*
D03*
X4219D02*
D03*
X4146Y651D02*
D03*
X4219D02*
D03*
X635Y1064D02*
D03*
X562D02*
D03*
X885Y239D02*
D03*
X958D02*
D03*
X3890Y449D02*
D03*
X3963D02*
D03*
X3477D02*
D03*
X3405D02*
D03*
X1540Y430D02*
D03*
X1468D02*
D03*
X1953Y430D02*
D03*
X2026D02*
D03*
X2175Y1509D02*
D03*
X2248D02*
D03*
X1284Y1459D02*
D03*
X1357D02*
D03*
X2174Y1621D02*
D03*
X2247D02*
D03*
X1299Y1591D02*
D03*
X1372D02*
D03*
X2172Y1712D02*
D03*
X2245D02*
D03*
X1334Y1741D02*
D03*
X1261D02*
D03*
X1332Y1836D02*
D03*
X1259D02*
D03*
X1980Y1639D02*
D03*
X2053D02*
D03*
X1522Y1678D02*
D03*
X1449D02*
D03*
X3270Y1653D02*
D03*
X3198D02*
D03*
X4018Y1652D02*
D03*
X3945D02*
D03*
X3946Y1475D02*
D03*
X4019D02*
D03*
X3944Y1397D02*
D03*
X4017D02*
D03*
X4018Y1570D02*
D03*
X3945D02*
D03*
X3383Y1482D02*
D03*
X3310D02*
D03*
X3806Y1477D02*
D03*
X3879D02*
D03*
X3806Y1396D02*
D03*
X3879D02*
D03*
X3253Y1407D02*
D03*
X3180D02*
D03*
X3263Y1568D02*
D03*
X3191D02*
D03*
X3253Y1482D02*
D03*
X3180D02*
D03*
X3383Y1407D02*
D03*
X3310D02*
D03*
X2852Y1781D02*
D03*
X2925D02*
D03*
X2548Y946D02*
D03*
X2475D02*
D03*
D24*
X3782Y1172D02*
D03*
X3731D02*
D03*
Y1257D02*
D03*
X3757D02*
D03*
X3782D02*
D03*
D25*
X1596Y328D02*
D03*
X1441D02*
D03*
X1891Y328D02*
D03*
X2046D02*
D03*
X3828Y347D02*
D03*
X3983D02*
D03*
X3378D02*
D03*
X3533D02*
D03*
D26*
X2377Y686D02*
D03*
X2456Y723D02*
D03*
Y649D02*
D03*
X2967Y566D02*
D03*
X3046Y603D02*
D03*
Y529D02*
D03*
X1150Y437D02*
D03*
X1071Y400D02*
D03*
Y474D02*
D03*
X519Y672D02*
D03*
X440Y635D02*
D03*
Y710D02*
D03*
X1021Y1057D02*
D03*
X942Y1020D02*
D03*
Y1094D02*
D03*
X4390Y1062D02*
D03*
X4469Y1099D02*
D03*
Y1024D02*
D03*
X4949Y704D02*
D03*
Y779D02*
D03*
X4870Y742D02*
D03*
X4143Y466D02*
D03*
X4222Y504D02*
D03*
Y429D02*
D03*
D27*
X1848Y1604D02*
D03*
Y1654D02*
D03*
Y1704D02*
D03*
Y1754D02*
D03*
X1635Y1604D02*
D03*
Y1654D02*
D03*
Y1704D02*
D03*
Y1754D02*
D03*
X3695Y1438D02*
D03*
Y1488D02*
D03*
Y1538D02*
D03*
Y1588D02*
D03*
X3483Y1438D02*
D03*
Y1488D02*
D03*
Y1538D02*
D03*
Y1588D02*
D03*
D28*
X2037Y84D02*
D03*
X2226D02*
D03*
D29*
X340Y1288D02*
D03*
X477D02*
D03*
X460Y1197D02*
D03*
X323D02*
D03*
X4246Y349D02*
D03*
X4383D02*
D03*
X923Y326D02*
D03*
X1060D02*
D03*
X2783Y1696D02*
D03*
X2920D02*
D03*
X2796Y1785D02*
D03*
X2659D02*
D03*
D30*
X4527Y1542D02*
D03*
Y1492D02*
D03*
Y1442D02*
D03*
Y1392D02*
D03*
Y1342D02*
D03*
Y1292D02*
D03*
Y1242D02*
D03*
X4742Y1542D02*
D03*
Y1492D02*
D03*
Y1442D02*
D03*
Y1392D02*
D03*
Y1342D02*
D03*
Y1292D02*
D03*
Y1242D02*
D03*
X851Y1199D02*
D03*
Y1249D02*
D03*
Y1299D02*
D03*
Y1349D02*
D03*
Y1399D02*
D03*
Y1449D02*
D03*
Y1499D02*
D03*
X636Y1199D02*
D03*
Y1249D02*
D03*
Y1299D02*
D03*
Y1349D02*
D03*
Y1399D02*
D03*
Y1449D02*
D03*
Y1499D02*
D03*
X2627Y1606D02*
D03*
Y1556D02*
D03*
Y1506D02*
D03*
Y1456D02*
D03*
Y1406D02*
D03*
Y1356D02*
D03*
Y1306D02*
D03*
X2842Y1606D02*
D03*
Y1556D02*
D03*
Y1506D02*
D03*
Y1456D02*
D03*
Y1406D02*
D03*
Y1356D02*
D03*
Y1306D02*
D03*
X2627Y1141D02*
D03*
Y1091D02*
D03*
Y1041D02*
D03*
Y991D02*
D03*
Y941D02*
D03*
Y891D02*
D03*
Y841D02*
D03*
X2841Y1141D02*
D03*
Y1091D02*
D03*
Y1041D02*
D03*
Y991D02*
D03*
Y941D02*
D03*
Y891D02*
D03*
Y841D02*
D03*
D31*
X4388Y577D02*
D03*
X4350Y656D02*
D03*
X4425D02*
D03*
X913Y624D02*
D03*
X838D02*
D03*
X875Y545D02*
D03*
D32*
X1316Y2113D02*
D03*
X1206D02*
D03*
Y2066D02*
D03*
X1316D02*
D03*
X2476Y2046D02*
D03*
X2366D02*
D03*
Y2093D02*
D03*
X2476D02*
D03*
X4152Y2050D02*
D03*
X4262D02*
D03*
Y2003D02*
D03*
X4152D02*
D03*
X2992Y2070D02*
D03*
X3102D02*
D03*
Y2023D02*
D03*
X2992D02*
D03*
D33*
X1982Y2286D02*
D03*
X1864D02*
D03*
X3473Y2252D02*
D03*
X3591D02*
D03*
D34*
X3817Y569D02*
D03*
Y678D02*
D03*
X3543Y569D02*
D03*
Y678D02*
D03*
X1606Y550D02*
D03*
Y658D02*
D03*
X1880Y550D02*
D03*
Y658D02*
D03*
D35*
X3601Y890D02*
D03*
X3651D02*
D03*
X3701D02*
D03*
X3751D02*
D03*
X3601Y1102D02*
D03*
X3651D02*
D03*
X3701D02*
D03*
X3751D02*
D03*
X1664Y871D02*
D03*
X1714D02*
D03*
X1764D02*
D03*
X1814D02*
D03*
X1664Y1083D02*
D03*
X1714D02*
D03*
X1764D02*
D03*
X1814D02*
D03*
D36*
X920Y2166D02*
D03*
X1011D02*
D03*
X1101D02*
D03*
X4422Y2137D02*
D03*
X4512D02*
D03*
X4603D02*
D03*
D37*
X1011Y2395D02*
D03*
X4512Y2366D02*
D03*
D38*
X5374Y131D02*
D03*
X4225D02*
D03*
X1025D02*
D03*
X3425D02*
D03*
X3625D02*
D03*
X3725D02*
D03*
X4025D02*
D03*
X1525D02*
D03*
X1625D02*
D03*
X1725D02*
D03*
X1825D02*
D03*
X4525D02*
D03*
X4125D02*
D03*
X3525D02*
D03*
X2925D02*
D03*
X2825D02*
D03*
X2725D02*
D03*
X2625D02*
D03*
X2525D02*
D03*
X2425D02*
D03*
X2325D02*
D03*
X1225D02*
D03*
X1125D02*
D03*
X725D02*
D03*
X56D02*
D03*
X1960Y84D02*
D03*
X3325Y2065D02*
D03*
X3425D02*
D03*
X3625D02*
D03*
X3825D02*
D03*
X2143Y2051D02*
D03*
X2043D02*
D03*
X1843D02*
D03*
X1643D02*
D03*
D39*
X2882Y556D02*
D03*
X2942Y991D02*
D03*
X2507Y571D02*
D03*
X2517Y1071D02*
D03*
D40*
X2882Y456D02*
D03*
X2507Y471D02*
D03*
D41*
X807Y1969D02*
D03*
X601Y1966D02*
D03*
X4708Y1998D02*
D03*
X4711Y2078D02*
D03*
X701Y1965D02*
D03*
X4835Y2141D02*
D03*
X1932Y809D02*
D03*
X2015Y884D02*
D03*
X1823Y231D02*
D03*
X1935Y230D02*
D03*
X1663Y231D02*
D03*
X1541Y229D02*
D03*
X3401Y243D02*
D03*
X3596Y251D02*
D03*
X3953Y252D02*
D03*
X3767Y253D02*
D03*
X3989Y875D02*
D03*
X3876Y812D02*
D03*
D42*
X3042Y991D02*
D03*
X2417Y1071D02*
D03*
M02*
