G04 Layer_Color=255*
%FSLAX25Y25*%
%MOIN*%
G70*
G01*
G75*
%ADD34C,0.11024*%
%ADD35C,0.09843*%
%ADD36R,0.09843X0.09843*%
%ADD37C,0.03150*%
%ADD38C,0.05118*%
%ADD39C,0.05906*%
%ADD40R,0.05906X0.05906*%
%ADD41C,0.13780*%
%ADD42R,0.05906X0.05906*%
%ADD43C,0.07874*%
%ADD44C,0.04724*%
%ADD45C,0.04843*%
D34*
X7045708Y4136500D02*
D03*
X7022086Y4144374D02*
D03*
X6998465Y4136500D02*
D03*
Y4088469D02*
D03*
X7045708D02*
D03*
X7131709Y4136500D02*
D03*
X7108086Y4144374D02*
D03*
X7084464Y4136500D02*
D03*
Y4088469D02*
D03*
X7131709D02*
D03*
D35*
X7320965Y4099815D02*
D03*
Y4119500D02*
D03*
X7015100Y4042036D02*
D03*
X7030061D02*
D03*
X7045021D02*
D03*
X7101100D02*
D03*
X7116061D02*
D03*
X7131021D02*
D03*
D36*
X7320965Y4139185D02*
D03*
D37*
X7219965Y4428500D02*
D03*
X7199464Y4535000D02*
D03*
X7181716Y4539500D02*
D03*
X7185965Y4571500D02*
D03*
X7204465Y4572500D02*
D03*
X7204964Y4499500D02*
D03*
X7184464Y4499000D02*
D03*
X7199965Y4463500D02*
D03*
X7182465Y4465000D02*
D03*
X7090039Y4239370D02*
D03*
X7031979Y4242490D02*
D03*
X7114001Y4223027D02*
D03*
X7138480Y4217490D02*
D03*
X7051479Y4211490D02*
D03*
X7138480Y4259490D02*
D03*
X7075465Y4243500D02*
D03*
X7080943Y4254027D02*
D03*
X7140479Y4228990D02*
D03*
X7080943Y4360027D02*
D03*
X7090038Y4347027D02*
D03*
X7138480Y4323490D02*
D03*
X7075465Y4349500D02*
D03*
X7140479Y4334990D02*
D03*
X7138480Y4365490D02*
D03*
X7031979Y4348490D02*
D03*
X7114001Y4329027D02*
D03*
X7051479Y4317490D02*
D03*
X7080943Y4572027D02*
D03*
X7090038Y4559027D02*
D03*
X7138480Y4535490D02*
D03*
X7075465Y4561500D02*
D03*
X7140479Y4546990D02*
D03*
X7138480Y4577490D02*
D03*
X7031979Y4560490D02*
D03*
X7114001Y4541027D02*
D03*
X7051479Y4529490D02*
D03*
X7080943Y4466027D02*
D03*
X7075964Y4455500D02*
D03*
X7138480Y4429490D02*
D03*
X7140479Y4440990D02*
D03*
X7138480Y4471490D02*
D03*
X7031979Y4454490D02*
D03*
X7090038Y4453027D02*
D03*
X7051479Y4423490D02*
D03*
X7114001Y4435027D02*
D03*
X7214465Y4498500D02*
D03*
X7209055Y4461378D02*
D03*
X7186465Y4461500D02*
D03*
X7196964Y4498500D02*
D03*
X7196465Y4572000D02*
D03*
X7213464Y4571500D02*
D03*
X7208268Y4533819D02*
D03*
X7187465Y4534500D02*
D03*
D38*
X7331555Y4338500D02*
D03*
Y4356216D02*
D03*
X7305965Y4338500D02*
D03*
Y4356216D02*
D03*
D39*
X7206965Y4366000D02*
D03*
X7015465Y4216500D02*
D03*
Y4226500D02*
D03*
Y4236500D02*
D03*
Y4246500D02*
D03*
X7014964Y4319000D02*
D03*
Y4329000D02*
D03*
Y4339000D02*
D03*
Y4349000D02*
D03*
Y4403500D02*
D03*
Y4393500D02*
D03*
X7015465Y4461575D02*
D03*
Y4451575D02*
D03*
Y4441575D02*
D03*
Y4431575D02*
D03*
X7015965Y4561000D02*
D03*
Y4551000D02*
D03*
Y4541000D02*
D03*
Y4531000D02*
D03*
X7190965Y4240500D02*
D03*
X7200964Y4250500D02*
D03*
X7190965D02*
D03*
X7200964Y4260500D02*
D03*
X7190965D02*
D03*
X7200964Y4270500D02*
D03*
X7190965D02*
D03*
X7200964Y4280500D02*
D03*
X7190965D02*
D03*
X7325465Y4246000D02*
D03*
Y4256000D02*
D03*
Y4266000D02*
D03*
Y4276000D02*
D03*
Y4296000D02*
D03*
Y4286000D02*
D03*
D40*
X7216965Y4366000D02*
D03*
D41*
X7321275Y4609322D02*
D03*
X6975964Y4607500D02*
D03*
Y4015000D02*
D03*
X7321275D02*
D03*
X7316417Y4432933D02*
D03*
Y4387264D02*
D03*
X7316063Y4462576D02*
D03*
Y4508245D02*
D03*
X7316417Y4582514D02*
D03*
Y4536845D02*
D03*
D42*
X7015465Y4256500D02*
D03*
X7014964Y4359000D02*
D03*
Y4413500D02*
D03*
X7015465Y4471575D02*
D03*
X7015965Y4571000D02*
D03*
X7200964Y4240500D02*
D03*
X7325465Y4306000D02*
D03*
D43*
X7304410Y4378760D02*
D03*
Y4441437D02*
D03*
X7304055Y4516749D02*
D03*
Y4454072D02*
D03*
X7304410Y4528341D02*
D03*
Y4591018D02*
D03*
D44*
X7281417Y4427618D02*
D03*
X7291417Y4422618D02*
D03*
X7281417Y4417618D02*
D03*
X7291417Y4412618D02*
D03*
X7281417Y4407618D02*
D03*
X7291417Y4402618D02*
D03*
X7281417Y4397618D02*
D03*
X7291417Y4392618D02*
D03*
X7291063Y4467930D02*
D03*
X7281063Y4472930D02*
D03*
X7291063Y4477930D02*
D03*
X7281063Y4482930D02*
D03*
X7291063Y4487930D02*
D03*
X7281063Y4492930D02*
D03*
X7291063Y4497930D02*
D03*
X7281063Y4502930D02*
D03*
X7281417Y4577199D02*
D03*
X7291417Y4572199D02*
D03*
X7281417Y4567199D02*
D03*
X7291417Y4562199D02*
D03*
X7281417Y4557199D02*
D03*
X7291417Y4552199D02*
D03*
X7281417Y4547199D02*
D03*
X7291417Y4542199D02*
D03*
D45*
X7335709Y4383661D02*
D03*
Y4393661D02*
D03*
X7335000Y4427264D02*
D03*
Y4437264D02*
D03*
X7334646Y4512576D02*
D03*
Y4502576D02*
D03*
X7335355Y4468974D02*
D03*
Y4458973D02*
D03*
X7335709Y4533242D02*
D03*
Y4543242D02*
D03*
X7335000Y4576844D02*
D03*
Y4586845D02*
D03*
M02*
