M48
;Layer_Color=9474304
;FILE_FORMAT=4:4
METRIC,LZ
;TYPE=PLATED
T1F00S00C0.7112
T2F00S00C0.9000
T3F00S00C1.5000
T4F00S00C1.9300
T5F00S00C2.0000
;TYPE=NON_PLATED
%
T01
X052448Y023389
X05232
X052192
X052064
X051936
X051808
X05168
Y023517
Y023645
X051808
Y023517
X051936
Y023645
Y023773
X051808
X052064
Y023645
Y023517
X052192
Y023645
Y023773
X05232
Y023645
Y023517
X052448
Y023645
Y023773
X051424
Y023645
Y023517
Y023389
X051552
Y023517
Y023645
X050308Y025924
X055663Y02596602
X056181Y02899802
X056991Y02907902
X05762Y02941702
X057365Y02986302
X056356Y03037202
X05639886Y03101052
X055921Y03063602
X055585Y03020602
X055601Y03125302
X05767506Y03121502
X055423Y03133002
X055417Y03065902
X054672Y03053502
X054419Y03063802
X053973Y03033102
X054Y03002102
X054166Y02960302
X054136Y02940302
X054094Y02907802
X053379Y02928702
X053169Y02923302
X052965Y02868202
X053261Y02819202
X052265Y029375
X05201Y029821
X051636Y029037
X05232006Y031173
X052803Y03124002
X052936Y03150902
X05312Y03099902
X053384Y03100602
X053573Y03098002
X053714Y03153202
X054407Y03148402
X054809Y03105002
X05467Y03001102
X054679Y02961602
X0551639Y02987397
X055104Y02885102
X0553849Y02893997
X050826Y028956
X0500299Y02889795
X049749Y028809
X0498089Y02983195
X049315Y029969
X049324Y029574
X048811Y029561
X048781Y029361
X048739Y029036
X048024Y029245
X047814Y029191
X047906Y02815
X048645Y029979
X048618Y030289
X049064Y030596
X049317Y030493
X049454Y031008
X049052Y031442
X048359Y03149
X048218Y030938
X048029Y030964
X047765Y030957
X050068Y031288
X050246Y031211
X050062Y030617
X050566Y030594
X051001Y03033
X05104386Y0309685
X05023Y030164
X047448Y031198
X047581Y031467
X04761Y02864
X049034Y0321
X049874Y032219
X050073Y032819
X050522Y031863
X05100706Y032258
X05162874Y03188638
X051884Y031862
X052457Y032396
X052463Y033
X054389Y03214202
X055877Y03190502
X056379Y032354
X05698374Y0319284
X057239Y03190402
T02
X046536Y031016
Y03127
Y031524
Y031778
Y032032
X046526Y032574
X046272
X046018
T03
X056491Y023695
X053791
X047816Y024039
X051616
T04
X058982Y022134
X058482
X057982
Y022834
X058482
X058982
X047191
X046691
X046191
Y022134
X046691
X047191
X047127Y024254
X046627
X046127
Y024954
X046627
X047127
X052636Y024755
X053136
X053636
Y025455
X053136
X052636
X057975Y025171
X058475
X058975
Y024471
X058475
X057975
T05
X059397Y027245
X060497
X063316Y027168
X064416
X064333Y031015
X063233
X060497Y031017
X059397
M30
