M48
;Layer_Color=9474304
;FILE_FORMAT=2:3
INCH,LZ
;TYPE=PLATED
T9F00S00C0.079
;TYPE=NON_PLATED
%
G90
G05
T09
G00X06041Y02365
M15
G01X06022
M16
G00X06041Y02562
M15
G01X06022
M16
G00X06041Y02759
M15
G01X06022
M16
G00X06317Y02759
M15
G01X06297
M16
G00X06317Y02562
M15
G01X06297
M16
G00X06317Y02365
M15
G01X06297
M16
G00X03545Y04345
M15
G01X03565
M16
G00X03545Y04542
M15
G01X03565
M16
G00X0327Y04542
M15
G01X03289
M16
G00X0327Y04345
M15
G01X03289
M16
G00X0327Y04739
M15
G01X03289
M16
G00X03545Y04739
M15
G01X03565
M16
G00X06894Y05834
M15
G01Y05854
M16
G00X07091Y05834
M15
G01Y05854
M16
G00X07288Y05834
M15
G01Y05854
M16
G00X07288Y0611
M15
G01Y0613
M16
G00X07091Y0611
M15
G01Y0613
M16
G00X06894Y0611
M15
G01Y0613
M16
G00X06894Y06791
M15
G01Y06811
M16
G00X07091Y06791
M15
G01Y06811
M16
G00X07288Y06791
M15
G01Y06811
M16
G00X07288Y07067
M15
G01Y07086
M16
G00X07091Y07067
M15
G01Y07086
M16
G00X06894Y07067
M15
G01Y07086
M16
G00X06894Y07742
M15
G01Y07762
M16
G00X07091Y07742
M15
G01Y07762
M16
G00X07288Y07742
M15
G01Y07762
M16
G00X07288Y08018
M15
G01Y08037
M16
G00X07091Y08018
M15
G01Y08037
M16
G00X06894Y08018
M15
G01Y08037
M16
M17
M30
