M48
;Layer_Color=9474304
;FILE_FORMAT=2:3
INCH,LZ
;TYPE=PLATED
T1F00S00C0.012
T2F00S00C0.016
T3F00S00C0.020
T4F00S00C0.031
T5F00S00C0.035
T6F00S00C0.039
T7F00S00C0.051
T8F00S00C0.079
T10F00S00C0.138
;TYPE=NON_PLATED
T11F00S00C0.130
T12F00S00C0.256
%
T01
X07188Y01602
X07296
X0735Y01696
X07296Y01789
X07188
X07134Y01696
X02416Y05275
X02308
X02254Y05369
X02308Y05463
X02416
X02471Y05369
T02
X05963Y0097
X06017
X0607
X05912Y00926
X05877
X05841
X05735
X057
X05479Y00873
X05389Y00873
X05304
X05214
X04637Y00943
X04607Y00929
X04574
X04542Y00948
X04543Y00979
X05642Y00646
X04314Y01037
X04279
X04244
X0421
X04175
X04141
X03944Y01005
X03908
X02782Y01856
X01906Y02649
X01859
X07197Y02658
X07236
X07276
Y027
X07236
X07197
Y02741
X07236
X07276
X07319Y02749
X0736
X07402
X07443
X07484
X07402Y02564
X0736
X07319
X07276Y02576
X07236
X07197
Y02617
X07236
X07276
X06894Y02015
Y01983
X07683Y04343
X07728
X05939Y0386
X05896Y03881
X05847Y03862
X03851Y03101
X03805Y03081
X03759Y03098
X02397Y04326
X02357
X02318
Y04367
X02357
X02397
Y04409
X02357
X02318
Y0445
X02357
X02397
Y04491
X02357
X02318
X02275Y04503
X02233
Y04318
X02275
X02192
X02151
X02109
X02689Y05038
Y05071
X06811Y05212
T03
X04425Y01086
X04445Y0113
X04405
T04
X06175Y00819
X06176Y00966
X05509Y0117
X05392Y01166
X02917Y00575
X0296Y00524
X02862Y00421
X02807Y00469
X02449Y02109
X02457Y02897
X03059Y02287
X06688Y0232
X06881Y02163
X07003Y02238
X07028Y02656
X06885Y0296
X0692Y03025
X06723Y03119
X06983Y03297
X07137Y04171
X06527Y03982
X0287Y03948
X03067Y03086
X0261Y03771
X02673Y04042
X02709Y04107
X02571Y04408
X02591Y0483
X02713Y04904
X02906Y04747
X0653Y04777
X07145Y04958
T05
X06354Y00437
X06454
X06554
X06754
X06854
X06954
X07154
X07254
X07354
X038Y00942
X037
X036
T06
X07954Y0103
X0663Y00973
X06626Y00852
X0166Y0072
X01494Y01568
Y01868
Y01968
Y02068
Y02368
Y02468
Y02568
Y02668
X08119Y02699
Y02599
Y02499
Y02799
X08378Y02917
X08119Y02199
Y02099
Y01999
Y01699
Y03299
Y03399
Y03499
Y03599
Y03699
Y03799
Y03899
Y04399
Y04499
X01494Y04468
Y04368
Y04268
Y03768
Y03668
Y03568
Y03468
Y03368
Y03268
Y03168
X01201Y04138
X01494Y04568
Y04868
Y04968
Y05068
Y05368
X0166Y06038
X08119Y05499
Y05199
Y05099
Y04999
Y04699
Y04599
X07954Y06348
T07
X05259Y00611
X05456
X03838
X03641
T08
X02646Y02075
Y02504
Y0287
X02922Y0229
X04224Y02217
Y02413
X06672Y02379
X06947Y02594
Y0296
Y02165
Y03389
Y03768
Y04197
X06672Y03982
Y03175
X05465Y0327
Y03467
Y04549
X04224Y03693
Y03496
X02922Y03893
Y03085
X02646Y03299
Y03678
Y04107
Y04473
Y04902
X02922Y04688
X04127Y05418
Y05812
X05465Y04746
X06672Y04778
X06947Y04992
Y04563
X06032Y05418
Y05812
Y07119
Y07513
X04127
Y07119
T10
X07242Y01696
X02362Y05369
T11
X0926Y00196
X00195Y00196
X06905Y01505
X01996Y05535
X00197Y08111
X09256Y0811
T12
X01882Y0229
X07712Y02379
Y03175
Y03982
X01882Y03893
Y03085
Y04688
X07712Y04778
M30
